<?xml version = "1.0" encoding = "UTF-8" ?> 
<svg xmlns="http://www.w3.org/2000/svg" version = "1.1"> 
<line x1="25" y1="20" x2="63.400000000000006" y2 ="20"         style="stroke:red;stroke:4"/>
<text x = "73.4" y = "25"         font-size = "12px" fill = "red"> = 1 inch (2:5 scale) </text> 
<polyline points="25,30 140.20000000000002,30 " style="fill:none;stroke:black;stroke:2"/>
<polyline points="140.20000000000002,30.0 144.73120000000003,30.0 144.73120000000003,49.2                 140.20000000000002,49.2 140.20000000000002,68.4 140.20000000000002,68.4 144.73120000000003,68.4 144.73120000000003,87.60000000000001                 140.20000000000002,87.60000000000001 140.20000000000002,106.80000000000001 140.20000000000002,106.80000000000001 144.73120000000003,106.80000000000001 144.73120000000003,126.00000000000001                 140.20000000000002,126.00000000000001 140.20000000000002,145.20000000000002 140.20000000000002,145.20000000000002 144.73120000000003,145.20000000000002 144.73120000000003,164.40000000000003                 140.20000000000002,164.40000000000003 140.20000000000002,183.60000000000002 " style="fill:none;stroke:black;stroke:2"/>
<line x1 = "140.20000000000002" y1 = "56.91023622045" x2 = "140.20000000000002" y2 = "60.689763779550006"                 style="fill:none;stroke:white;stroke:2"/>
<line x1 = "140.20000000000002" y1 = "172.11023622045002" x2 = "140.20000000000002" y2 = "175.88976377955004"                 style="fill:none;stroke:white;stroke:2"/>
<polyline points = "140.20000000000002,56.91023622045 137.18061102364,56.91023622045 137.18061102364,55.0204724409 134.91289448818,55.0204724409 134.91289448818,56.91023622045 130.37746141726,56.91023622045                 130.37746141726,60.689763779550006 134.91289448818,60.689763779550006 134.91289448818,62.57952755910001 137.18061102364,62.57952755910001 137.18061102364,60.689763779550006 140.20000000000002,60.689763779550006"                 style="fill:none;stroke:black;stroke:2"/>
<polyline points = "140.20000000000002,172.11023622045002 137.18061102364,172.11023622045002                 137.18061102364,170.2204724409 134.91289448818,170.2204724409 134.91289448818,172.11023622045002                 130.37746141726,172.11023622045002 130.37746141726,175.88976377955004 134.91289448818,175.88976377955004                 134.91289448818,177.77952755910002 137.18061102364,177.77952755910002 137.18061102364,175.88976377955004 140.20000000000002,175.88976377955004"                 style="fill:none;stroke:black;stroke:2"/>
<polyline points="140.20000000000002,183.60000000000002 140.20000000000002,188.13120000000004 121.00000000000001,188.13120000000004                     121.00000000000001,183.60000000000002 101.80000000000001,183.60000000000002 101.80000000000001,183.60000000000002 101.80000000000001,188.13120000000004 82.60000000000001,188.13120000000004                     82.60000000000001,183.60000000000002 63.400000000000006,183.60000000000002 63.400000000000006,183.60000000000002 63.400000000000006,188.13120000000004 44.2,188.13120000000004                     44.2,183.60000000000002 25.0,183.60000000000002 " style="fill:none;stroke:black;stroke:2"/>
<line x1 = "32.71023622045" y1 = "183.60000000000002" x2 = "36.48976377955" y2 = "183.60000000000002"                 style="fill:none;stroke:white;stroke:2"/>
<line x1 = "109.51023622045001" y1 = "183.60000000000002" x2 = "113.28976377955001" y2 = "183.60000000000002"                 style="fill:none;stroke:white;stroke:2"/>
<polyline points = "32.71023622045,183.60000000000002 32.71023622045,180.58061102364002 30.820472440899998,180.58061102364002 30.820472440899998,178.31289448818 32.71023622045,178.31289448818 32.71023622045,173.77746141726                 36.48976377955,173.77746141726 36.48976377955,178.31289448818 38.379527559100005,178.31289448818 38.379527559100005,180.58061102364002 36.48976377955,180.58061102364002 36.48976377955,183.60000000000002"                 style="fill:none;stroke:black;stroke:2"/>
<polyline points = "109.51023622045001,183.60000000000002 109.51023622045001,180.58061102364002                 107.62047244090002,180.58061102364002 107.62047244090002,178.31289448818 109.51023622045001,178.31289448818                 109.51023622045001,173.77746141726 113.28976377955001,173.77746141726 113.28976377955001,178.31289448818                 115.17952755910002,178.31289448818 115.17952755910002,180.58061102364002 113.28976377955001,180.58061102364002                 113.28976377955001,183.60000000000002"                 style="fill:none;stroke:black;stroke:2"/>
<polyline points="25.0,183.60000000000002 20.4688,183.60000000000002 20.4688,164.40000000000003                     25.0,164.40000000000003 25.0,145.20000000000005 25.0,145.20000000000002 20.4688,145.20000000000002 20.4688,126.00000000000003                     25.0,126.00000000000003 25.0,106.80000000000004 25.0,106.80000000000001 20.4688,106.80000000000001 20.4688,87.60000000000002                     25.0,87.60000000000002 25.0,68.40000000000003 25.0,68.4 20.4688,68.4 20.4688,49.20000000000002                     25.0,49.20000000000002 25.0,30.00000000000003 " style="fill:none;stroke:black;stroke:2"/>
<circle cx = "24.624163779550003" cy = "58.800000000000004" r = "1.88976377955"                 style="fill:none;stroke:black;stroke:2"/>
<circle cx = "24.624163779550003" cy = "174.00000000000003" r = "1.88976377955"                 style="fill:none;stroke:black;stroke:2"/>
<polyline points="149.7312,30 191.152,30 191.152,25.4688 232.57279999999997,25.4688 232.57279999999997,30 273.9936,30" style="fill:none;stroke:black;stroke:2"/>
<line x1 = "171.57263622045" y1 = "30" x2 = "175.35216377954998" y2 = "30"                 style="fill:none;stroke:white;stroke:2"/>
<line x1 = "248.37263622045" y1 = "30" x2 = "252.15216377955" y2 = "30"                 style="fill:none;stroke:white;stroke:2"/>
<polyline points = "171.57263622045,30 171.57263622045,33.01938897636 169.68287244089998,33.01938897636 169.68287244089998,35.28710551182 171.57263622045,35.28710551182 171.57263622045,39.82253858274                 175.35216377954998,39.82253858274 175.35216377954998,35.28710551182 177.2419275591,35.28710551182 177.2419275591,33.01938897636 175.35216377954998,33.01938897636 175.35216377954998,30"                     style="fill:none;stroke:black;stroke:2"/>
<polyline points = "248.37263622045,30 248.37263622045,33.01938897636                 246.4828724409,33.01938897636 246.4828724409,35.28710551182 248.37263622045,35.28710551182                 248.37263622045,39.82253858274 252.15216377955,39.82253858274 252.15216377955,35.28710551182                 254.0419275591,35.28710551182 254.0419275591,33.01938897636 252.15216377955,33.01938897636                 252.15216377955,30" style="fill:none;stroke:black;stroke:2"/>
<line x1 = "149.7312" y1 = "30"                 x2 = "154.2624" y2 = "30" style="fill:none;stroke:white;stroke:2"/>
<polyline points="269.4624,30.0 273.9936,30.0 273.9936,49.2                 269.4624,49.2 269.4624,68.4 269.4624,68.4 273.9936,68.4 273.9936,87.60000000000001                 269.4624,87.60000000000001 269.4624,106.80000000000001 269.4624,106.80000000000001 273.9936,106.80000000000001 273.9936,126.00000000000001                 269.4624,126.00000000000001 269.4624,145.20000000000002 269.4624,145.20000000000002 273.9936,145.20000000000002 273.9936,164.40000000000003                 269.4624,164.40000000000003 269.4624,183.60000000000002 " style="fill:none;stroke:black;stroke:2"/>
<line x1 = "269.4624" y1 = "56.91023622045" x2 = "269.4624" y2 = "60.689763779550006"                 style="fill:none;stroke:white;stroke:2"/>
<line x1 = "269.4624" y1 = "172.11023622045002" x2 = "269.4624" y2 = "175.88976377955004"                 style="fill:none;stroke:white;stroke:2"/>
<polyline points = "269.4624,56.91023622045 266.44301102364,56.91023622045 266.44301102364,55.0204724409 264.17529448818,55.0204724409 264.17529448818,56.91023622045 259.63986141725997,56.91023622045                 259.63986141725997,60.689763779550006 264.17529448818,60.689763779550006 264.17529448818,62.57952755910001 266.44301102364,62.57952755910001 266.44301102364,60.689763779550006 269.4624,60.689763779550006"                 style="fill:none;stroke:black;stroke:2"/>
<polyline points = "269.4624,172.11023622045002 266.44301102364,172.11023622045002                 266.44301102364,170.2204724409 264.17529448818,170.2204724409 264.17529448818,172.11023622045002                 259.63986141725997,172.11023622045002 259.63986141725997,175.88976377955004 264.17529448818,175.88976377955004                 264.17529448818,177.77952755910002 266.44301102364,177.77952755910002 266.44301102364,175.88976377955004 269.4624,175.88976377955004"                 style="fill:none;stroke:black;stroke:2"/>
<polyline points="269.4624,183.60000000000002 269.4624,188.13120000000004 250.2624,188.13120000000004                     250.2624,183.60000000000002 231.06240000000003,183.60000000000002 231.0624,183.60000000000002 231.0624,188.13120000000004 211.8624,188.13120000000004                     211.8624,183.60000000000002 192.66240000000002,183.60000000000002 192.6624,183.60000000000002 192.6624,188.13120000000004 173.4624,188.13120000000004                     173.4624,183.60000000000002 154.2624,183.60000000000002 " style="fill:none;stroke:black;stroke:2"/>
<line x1 = "161.97263622044997" y1 = "183.60000000000002" x2 = "165.75216377954996" y2 = "183.60000000000002"                 style="fill:none;stroke:white;stroke:2"/>
<line x1 = "238.77263622044998" y1 = "183.60000000000002" x2 = "242.55216377954997" y2 = "183.60000000000002"                 style="fill:none;stroke:white;stroke:2"/>
<polyline points = "161.97263622044997,183.60000000000002 161.97263622044997,180.58061102364002 160.08287244089996,180.58061102364002 160.08287244089996,178.31289448818 161.97263622044997,178.31289448818 161.97263622044997,173.77746141726                 165.75216377954996,173.77746141726 165.75216377954996,178.31289448818 167.64192755909997,178.31289448818 167.64192755909997,180.58061102364002 165.75216377954996,180.58061102364002 165.75216377954996,183.60000000000002"                 style="fill:none;stroke:black;stroke:2"/>
<polyline points = "238.77263622044998,183.60000000000002 238.77263622044998,180.58061102364002                 236.88287244089997,180.58061102364002 236.88287244089997,178.31289448818 238.77263622044998,178.31289448818                 238.77263622044998,173.77746141726 242.55216377954997,173.77746141726 242.55216377954997,178.31289448818                 244.44192755909998,178.31289448818 244.44192755909998,180.58061102364002 242.55216377954997,180.58061102364002                 242.55216377954997,183.60000000000002"                 style="fill:none;stroke:black;stroke:2"/>
<polyline points="154.26239999999999,183.60000000000002 149.73119999999997,183.60000000000002 149.73119999999997,164.40000000000003                     154.26239999999999,164.40000000000003 154.26239999999999,145.20000000000005 154.26239999999999,145.20000000000002 149.73119999999997,145.20000000000002 149.73119999999997,126.00000000000003                     154.26239999999999,126.00000000000003 154.26239999999999,106.80000000000004 154.26239999999999,106.80000000000001 149.73119999999997,106.80000000000001 149.73119999999997,87.60000000000002                     154.26239999999999,87.60000000000002 154.26239999999999,68.40000000000003 154.26239999999999,68.4 149.73119999999997,68.4 149.73119999999997,49.20000000000002                     154.26239999999999,49.20000000000002 154.26239999999999,30.00000000000003 " style="fill:none;stroke:black;stroke:2"/>
<circle cx = "153.88656377955002" cy = "58.800000000000004" r = "1.88976377955"                 style="fill:none;stroke:black;stroke:2"/>
<circle cx = "153.88656377955002" cy = "174.00000000000003" r = "1.88976377955"                 style="fill:none;stroke:black;stroke:2"/>
<polyline points="283.5248,30 475.5248,30 " style="fill:none;stroke:black;stroke:2"/>
<polyline points="475.5248,30.0 480.05600000000004,30.0 480.05600000000004,49.2                 475.5248,49.2 475.5248,68.4 475.5248,68.4 480.05600000000004,68.4 480.05600000000004,87.60000000000001                 475.5248,87.60000000000001 475.5248,106.80000000000001 475.5248,106.80000000000001 480.05600000000004,106.80000000000001 480.05600000000004,126.00000000000001                 475.5248,126.00000000000001 475.5248,145.20000000000002 475.5248,145.20000000000002 480.05600000000004,145.20000000000002 480.05600000000004,164.40000000000003                 475.5248,164.40000000000003 475.5248,183.60000000000002 " style="fill:none;stroke:black;stroke:2"/>
<line x1 = "475.5248" y1 = "56.91023622045" x2 = "475.5248" y2 = "60.689763779550006"                 style="fill:none;stroke:white;stroke:2"/>
<line x1 = "475.5248" y1 = "172.11023622045002" x2 = "475.5248" y2 = "175.88976377955004"                 style="fill:none;stroke:white;stroke:2"/>
<polyline points = "475.5248,56.91023622045 472.50541102364,56.91023622045 472.50541102364,55.0204724409 470.23769448818,55.0204724409 470.23769448818,56.91023622045 465.70226141726,56.91023622045                 465.70226141726,60.689763779550006 470.23769448818,60.689763779550006 470.23769448818,62.57952755910001 472.50541102364,62.57952755910001 472.50541102364,60.689763779550006 475.5248,60.689763779550006"                 style="fill:none;stroke:black;stroke:2"/>
<polyline points = "475.5248,172.11023622045002 472.50541102364,172.11023622045002                 472.50541102364,170.2204724409 470.23769448818,170.2204724409 470.23769448818,172.11023622045002                 465.70226141726,172.11023622045002 465.70226141726,175.88976377955004 470.23769448818,175.88976377955004                 470.23769448818,177.77952755910002 472.50541102364,177.77952755910002 472.50541102364,175.88976377955004 475.5248,175.88976377955004"                 style="fill:none;stroke:black;stroke:2"/>
<polyline points="475.5248,183.60000000000002 475.5248,188.13120000000004 456.32480000000004,188.13120000000004                     456.32480000000004,183.60000000000002 437.12480000000005,183.60000000000002 437.12480000000005,183.60000000000002 437.12480000000005,188.13120000000004 417.9248,188.13120000000004                     417.9248,183.60000000000002 398.7248000000001,183.60000000000002 398.7248,183.60000000000002 398.7248,188.13120000000004 379.5248,188.13120000000004                     379.5248,183.60000000000002 360.32480000000004,183.60000000000002 360.3248,183.60000000000002 360.3248,188.13120000000004 341.12480000000005,188.13120000000004                     341.12480000000005,183.60000000000002 321.9248,183.60000000000002 321.9248,183.60000000000002 321.9248,188.13120000000004 302.7248,188.13120000000004                     302.7248,183.60000000000002 283.5248,183.60000000000002 " style="fill:none;stroke:black;stroke:2"/>
<polyline points="283.5248,183.60000000000002 278.9936,183.60000000000002 278.9936,164.40000000000003                     283.5248,164.40000000000003 283.5248,145.20000000000005 283.5248,145.20000000000002 278.9936,145.20000000000002 278.9936,126.00000000000003                     283.5248,126.00000000000003 283.5248,106.80000000000004 283.5248,106.80000000000001 278.9936,106.80000000000001 278.9936,87.60000000000002                     283.5248,87.60000000000002 283.5248,68.40000000000003 283.5248,68.4 278.9936,68.4 278.9936,49.20000000000002                     283.5248,49.20000000000002 283.5248,30.00000000000003 " style="fill:none;stroke:black;stroke:2"/>
<circle cx = "283.14896377955" cy = "58.800000000000004" r = "1.88976377955"                 style="fill:none;stroke:black;stroke:2"/>
<circle cx = "283.14896377955" cy = "174.00000000000003" r = "1.88976377955"                 style="fill:none;stroke:black;stroke:2"/>
<polyline points="489.58720000000005,30 681.5872,30 " style="fill:none;stroke:black;stroke:2"/>
<polyline points="681.5872,30.0 686.1184000000001,30.0 686.1184000000001,49.2                 681.5872,49.2 681.5872,68.4 681.5872,68.4 686.1184000000001,68.4 686.1184000000001,87.60000000000001                 681.5872,87.60000000000001 681.5872,106.80000000000001 681.5872,106.80000000000001 686.1184000000001,106.80000000000001 686.1184000000001,126.00000000000001                 681.5872,126.00000000000001 681.5872,145.20000000000002 681.5872,145.20000000000002 686.1184000000001,145.20000000000002 686.1184000000001,164.40000000000003                 681.5872,164.40000000000003 681.5872,183.60000000000002 " style="fill:none;stroke:black;stroke:2"/>
<line x1 = "681.5872" y1 = "56.91023622045" x2 = "681.5872" y2 = "60.689763779550006"                 style="fill:none;stroke:white;stroke:2"/>
<line x1 = "681.5872" y1 = "172.11023622045002" x2 = "681.5872" y2 = "175.88976377955004"                 style="fill:none;stroke:white;stroke:2"/>
<polyline points = "681.5872,56.91023622045 678.56781102364,56.91023622045 678.56781102364,55.0204724409 676.3000944881801,55.0204724409 676.3000944881801,56.91023622045 671.7646614172601,56.91023622045                 671.7646614172601,60.689763779550006 676.3000944881801,60.689763779550006 676.3000944881801,62.57952755910001 678.56781102364,62.57952755910001 678.56781102364,60.689763779550006 681.5872,60.689763779550006"                 style="fill:none;stroke:black;stroke:2"/>
<polyline points = "681.5872,172.11023622045002 678.56781102364,172.11023622045002                 678.56781102364,170.2204724409 676.3000944881801,170.2204724409 676.3000944881801,172.11023622045002                 671.7646614172601,172.11023622045002 671.7646614172601,175.88976377955004 676.3000944881801,175.88976377955004                 676.3000944881801,177.77952755910002 678.56781102364,177.77952755910002 678.56781102364,175.88976377955004 681.5872,175.88976377955004"                 style="fill:none;stroke:black;stroke:2"/>
<polyline points="681.5872,183.60000000000002 681.5872,188.13120000000004 662.3872,188.13120000000004                     662.3872,183.60000000000002 643.1872,183.60000000000002 643.1872000000001,183.60000000000002 643.1872000000001,188.13120000000004 623.9872,188.13120000000004                     623.9872,183.60000000000002 604.7872,183.60000000000002 604.7872,183.60000000000002 604.7872,188.13120000000004 585.5871999999999,188.13120000000004                     585.5871999999999,183.60000000000002 566.3871999999999,183.60000000000002 566.3872,183.60000000000002 566.3872,188.13120000000004 547.1872,188.13120000000004                     547.1872,183.60000000000002 527.9871999999999,183.60000000000002 527.9872,183.60000000000002 527.9872,188.13120000000004 508.7872,188.13120000000004                     508.7872,183.60000000000002 489.58719999999994,183.60000000000002 " style="fill:none;stroke:black;stroke:2"/>
<polyline points="489.58720000000005,183.60000000000002 485.05600000000004,183.60000000000002 485.05600000000004,164.40000000000003                     489.58720000000005,164.40000000000003 489.58720000000005,145.20000000000005 489.58720000000005,145.20000000000002 485.05600000000004,145.20000000000002 485.05600000000004,126.00000000000003                     489.58720000000005,126.00000000000003 489.58720000000005,106.80000000000004 489.58720000000005,106.80000000000001 485.05600000000004,106.80000000000001 485.05600000000004,87.60000000000002                     489.58720000000005,87.60000000000002 489.58720000000005,68.40000000000003 489.58720000000005,68.4 485.05600000000004,68.4 485.05600000000004,49.20000000000002                     489.58720000000005,49.20000000000002 489.58720000000005,30.00000000000003 " style="fill:none;stroke:black;stroke:2"/>
<circle cx = "489.21136377955" cy = "58.800000000000004" r = "1.88976377955"                 style="fill:none;stroke:black;stroke:2"/>
<circle cx = "489.21136377955" cy = "174.00000000000003" r = "1.88976377955"                 style="fill:none;stroke:black;stroke:2"/>
<polyline points="154.2624,197.66240000000002 154.2624,193.1312                   173.4624,193.1312 173.4624,197.66240000000002 192.6624,197.66240000000002 192.66240000000002,197.66240000000002 192.66240000000002,193.1312                   211.8624,193.1312 211.8624,197.66240000000002 231.0624,197.66240000000002 231.06240000000003,197.66240000000002 231.06240000000003,193.1312                   250.2624,193.1312 250.2624,197.66240000000002 269.4624,197.66240000000002 " style="fill:none;stroke:black;stroke:2"/>
<circle cx = "163.8624" cy = "197.28656377955002" r = "1.88976377955"                 style="fill:none;stroke:black;stroke:1"/>
<circle cx = "240.66240000000002" cy = "197.28656377955002" r = "1.88976377955"                 style="fill:none;stroke:black;stroke:1"/>
<polyline points="269.4624,197.66240000000002 273.9936,197.66240000000002 273.9936,216.86240000000004                 269.4624,216.86240000000004 269.4624,236.06240000000003 269.4624,236.06240000000003 273.9936,236.06240000000003 273.9936,255.26240000000004                 269.4624,255.26240000000004 269.4624,274.4624 269.4624,274.4624 273.9936,274.4624 273.9936,293.66240000000005                 269.4624,293.66240000000005 269.4624,312.86240000000004 269.4624,312.86240000000004 273.9936,312.86240000000004 273.9936,332.0624                 269.4624,332.0624 269.4624,351.26240000000007 269.4624,351.26240000000007 273.9936,351.26240000000007 273.9936,370.46240000000006                 269.4624,370.46240000000006 269.4624,389.66240000000005 " style="fill:none;stroke:black;stroke:2"/>
<polyline points="269.4624,389.66240000000005 269.4624,394.19360000000006 250.2624,394.19360000000006                     250.2624,389.66240000000005 231.06240000000003,389.66240000000005 231.0624,389.66240000000005 231.0624,394.19360000000006 211.8624,394.19360000000006                     211.8624,389.66240000000005 192.66240000000002,389.66240000000005 192.6624,389.66240000000005 192.6624,394.19360000000006 173.4624,394.19360000000006                     173.4624,389.66240000000005 154.2624,389.66240000000005 " style="fill:none;stroke:black;stroke:2"/>
<circle cx = "183.0624" cy = "390.0382362204501" r = "1.88976377955"                 style="fill:none;stroke:black;stroke:1"/>
<circle cx = "259.8624" cy = "390.0382362204501" r = "1.88976377955"                 style="fill:none;stroke:black;stroke:1"/>
<polyline points="154.26239999999999,389.66240000000005 149.73119999999997,389.66240000000005 149.73119999999997,370.46240000000006                     154.26239999999999,370.46240000000006 154.26239999999999,351.26240000000007 154.26239999999999,351.26240000000007 149.73119999999997,351.26240000000007 149.73119999999997,332.0624                     154.26239999999999,332.0624 154.26239999999999,312.8624000000001 154.26239999999999,312.86240000000004 149.73119999999997,312.86240000000004 149.73119999999997,293.66240000000005                     154.26239999999999,293.66240000000005 154.26239999999999,274.46240000000006 154.26239999999999,274.4624 149.73119999999997,274.4624 149.73119999999997,255.26240000000004                     154.26239999999999,255.26240000000004 154.26239999999999,236.06240000000005 154.26239999999999,236.06240000000003 149.73119999999997,236.06240000000003 149.73119999999997,216.86240000000004                     154.26239999999999,216.86240000000004 154.26239999999999,197.66240000000005 " style="fill:none;stroke:black;stroke:2"/>
<polyline points = "20.4688,193.1312 61.8896,193.1312 61.8896,197.66240000000002 103.3104,197.66240000000002 103.3104,193.1312           144.7312,193.1312 144.7312,394.19360000000006 20.4688,394.19360000000006 20.4688,193.1312"           style = "fill:none;stroke:black;stroke:2"/>
<circle cx = "44.2" cy = "197.28656377955002"         r = "1.88976377955"         style="fill:none;stroke:black;stroke:1"/>
<circle cx = "121.00000000000001" cy = "197.28656377955002"         r = "1.88976377955"         style="fill:none;stroke:black;stroke:1"/>
<polyline points = "20.4688,204.65120000000002                       37.480000000000004,204.65120000000002"                       fill = "none" stroke = "black" /> 
<polyline points = "                   39.88,                   204.65120000000002 66.76,                   204.65120000000002" fill = "none" stroke = "black" /> 
<polyline points = "20.4688,209.45120000000003                       37.480000000000004,209.45120000000003"                       fill = "none" stroke = "black" /> 
<polyline points = "                   39.88,                   209.45120000000003 66.76,                   209.45120000000003" fill = "none" stroke = "black" /> 
<polyline points = "20.4688,214.2512                       37.480000000000004,214.2512"                       fill = "none" stroke = "black" /> 
<polyline points = "                   39.88,                   214.2512 66.76,                   214.2512" fill = "none" stroke = "black" /> 
<polyline points = "20.4688,219.05120000000002                       37.480000000000004,219.05120000000002"                       fill = "none" stroke = "black" /> 
<polyline points = "                   39.88,                   219.05120000000002 66.76,                   219.05120000000002" fill = "none" stroke = "black" /> 
<polyline points = "20.4688,223.8512                       37.480000000000004,223.8512"                       fill = "none" stroke = "black" /> 
<polyline points = "                   39.88,                   223.8512 66.76,                   223.8512" fill = "none" stroke = "black" /> 
<polyline points = "20.4688,228.65120000000002                       37.480000000000004,228.65120000000002"                       fill = "none" stroke = "black" /> 
<polyline points = "                   39.88,                   228.65120000000002 66.76,                   228.65120000000002" fill = "none" stroke = "black" /> 
<polyline points = "20.4688,233.45120000000003                       37.480000000000004,233.45120000000003"                       fill = "none" stroke = "black" /> 
<polyline points = "                   39.88,                   233.45120000000003 66.76,                   233.45120000000003" fill = "none" stroke = "black" /> 
<polyline points = "20.4688,238.25120000000004                       37.480000000000004,238.25120000000004"                       fill = "none" stroke = "black" /> 
<polyline points = "                   39.88,                   238.25120000000004 66.76,                   238.25120000000004" fill = "none" stroke = "black" /> 
<polyline points = "20.4688,243.05120000000002                       37.480000000000004,243.05120000000002"                       fill = "none" stroke = "black" /> 
<polyline points = "                   39.88,                   243.05120000000002 66.76,                   243.05120000000002" fill = "none" stroke = "black" /> 
<polyline points = "20.4688,247.8512                       37.480000000000004,247.8512"                       fill = "none" stroke = "black" /> 
<polyline points = "                   39.88,                   247.8512 66.76,                   247.8512" fill = "none" stroke = "black" /> 
<polyline points = "20.4688,252.65120000000002                       37.480000000000004,252.65120000000002"                       fill = "none" stroke = "black" /> 
<polyline points = "                   39.88,                   252.65120000000002 66.76,                   252.65120000000002" fill = "none" stroke = "black" /> 
<polyline points = "20.4688,257.45120000000003                       37.480000000000004,257.45120000000003"                       fill = "none" stroke = "black" /> 
<polyline points = "                   39.88,                   257.45120000000003 66.76,                   257.45120000000003" fill = "none" stroke = "black" /> 
<polyline points = "20.4688,262.25120000000004                       37.480000000000004,262.25120000000004"                       fill = "none" stroke = "black" /> 
<polyline points = "                   39.88,                   262.25120000000004 66.76,                   262.25120000000004" fill = "none" stroke = "black" /> 
<polyline points = "20.4688,267.0512                       37.480000000000004,267.0512"                       fill = "none" stroke = "black" /> 
<polyline points = "                   39.88,                   267.0512 66.76,                   267.0512" fill = "none" stroke = "black" /> 
<polyline points = "20.4688,271.85120000000006                       37.480000000000004,271.85120000000006"                       fill = "none" stroke = "black" /> 
<polyline points = "                   39.88,                   271.85120000000006 66.76,                   271.85120000000006" fill = "none" stroke = "black" /> 
<polyline points = "20.4688,276.6512                       37.480000000000004,276.6512"                       fill = "none" stroke = "black" /> 
<polyline points = "                   39.88,                   276.6512 66.76,                   276.6512" fill = "none" stroke = "black" /> 
<polyline points = "20.4688,281.45120000000003                       37.480000000000004,281.45120000000003"                       fill = "none" stroke = "black" /> 
<polyline points = "                   39.88,                   281.45120000000003 66.76,                   281.45120000000003" fill = "none" stroke = "black" /> 
<polyline points = "20.4688,286.25120000000004                       37.480000000000004,286.25120000000004"                       fill = "none" stroke = "black" /> 
<polyline points = "                   39.88,                   286.25120000000004 66.76,                   286.25120000000004" fill = "none" stroke = "black" /> 
<polyline points = "20.4688,291.0512                       37.480000000000004,291.0512"                       fill = "none" stroke = "black" /> 
<polyline points = "                   39.88,                   291.0512 66.76,                   291.0512" fill = "none" stroke = "black" /> 
<polyline points = "20.4688,295.85120000000006                       37.480000000000004,295.85120000000006"                       fill = "none" stroke = "black" /> 
<polyline points = "                   39.88,                   295.85120000000006 66.76,                   295.85120000000006" fill = "none" stroke = "black" /> 
<polyline points = "20.4688,300.6512                       37.480000000000004,300.6512"                       fill = "none" stroke = "black" /> 
<polyline points = "                   39.88,                   300.6512 66.76,                   300.6512" fill = "none" stroke = "black" /> 
<polyline points = "20.4688,305.45120000000003                       37.480000000000004,305.45120000000003"                       fill = "none" stroke = "black" /> 
<polyline points = "                   39.88,                   305.45120000000003 66.76,                   305.45120000000003" fill = "none" stroke = "black" /> 
<polyline points = "20.4688,310.25120000000004                       37.480000000000004,310.25120000000004"                       fill = "none" stroke = "black" /> 
<polyline points = "                   39.88,                   310.25120000000004 66.76,                   310.25120000000004" fill = "none" stroke = "black" /> 
<polyline points = "20.4688,315.05120000000005                       37.480000000000004,315.05120000000005"                       fill = "none" stroke = "black" /> 
<polyline points = "                   39.88,                   315.05120000000005 66.76,                   315.05120000000005" fill = "none" stroke = "black" /> 
<polyline points = "20.4688,319.85120000000006                       37.480000000000004,319.85120000000006"                       fill = "none" stroke = "black" /> 
<polyline points = "                   39.88,                   319.85120000000006 66.76,                   319.85120000000006" fill = "none" stroke = "black" /> 
<polyline points = "20.4688,324.6512                       37.480000000000004,324.6512"                       fill = "none" stroke = "black" /> 
<polyline points = "                   39.88,                   324.6512 66.76,                   324.6512" fill = "none" stroke = "black" /> 
<polyline points = "20.4688,329.45120000000003                       37.480000000000004,329.45120000000003"                       fill = "none" stroke = "black" /> 
<polyline points = "                   39.88,                   329.45120000000003 66.76,                   329.45120000000003" fill = "none" stroke = "black" /> 
<polyline points = "20.4688,334.25120000000004                       37.480000000000004,334.25120000000004"                       fill = "none" stroke = "black" /> 
<polyline points = "                   39.88,                   334.25120000000004 66.76,                   334.25120000000004" fill = "none" stroke = "black" /> 
<polyline points = "20.4688,339.05120000000005                       37.480000000000004,339.05120000000005"                       fill = "none" stroke = "black" /> 
<polyline points = "                   39.88,                   339.05120000000005 66.76,                   339.05120000000005" fill = "none" stroke = "black" /> 
<polyline points = "20.4688,343.85120000000006                       37.480000000000004,343.85120000000006"                       fill = "none" stroke = "black" /> 
<polyline points = "                   39.88,                   343.85120000000006 66.76,                   343.85120000000006" fill = "none" stroke = "black" /> 
<polyline points = "20.4688,348.6512                       37.480000000000004,348.6512"                       fill = "none" stroke = "black" /> 
<polyline points = "                   39.88,                   348.6512 66.76,                   348.6512" fill = "none" stroke = "black" /> 
<polyline points = "20.4688,353.45120000000003                       37.480000000000004,353.45120000000003"                       fill = "none" stroke = "black" /> 
<polyline points = "                   39.88,                   353.45120000000003 66.76,                   353.45120000000003" fill = "none" stroke = "black" /> 
<polyline points = "20.4688,358.25120000000004                       37.480000000000004,358.25120000000004"                       fill = "none" stroke = "black" /> 
<polyline points = "                   39.88,                   358.25120000000004 66.76,                   358.25120000000004" fill = "none" stroke = "black" /> 
<polyline points = "20.4688,363.05120000000005                       37.480000000000004,363.05120000000005"                       fill = "none" stroke = "black" /> 
<polyline points = "                   39.88,                   363.05120000000005 66.76,                   363.05120000000005" fill = "none" stroke = "black" /> 
<polyline points = "20.4688,367.85120000000006                       37.480000000000004,367.85120000000006"                       fill = "none" stroke = "black" /> 
<polyline points = "                   39.88,                   367.85120000000006 66.76,                   367.85120000000006" fill = "none" stroke = "black" /> 
<polyline points = "                   69.16,                   204.65120000000002 96.04,                   204.65120000000002" fill = "none" stroke = "black" /> 
<polyline points = "                   69.16,                   209.45120000000003 96.04,                   209.45120000000003" fill = "none" stroke = "black" /> 
<polyline points = "                   69.16,                   214.2512 96.04,                   214.2512" fill = "none" stroke = "black" /> 
<polyline points = "                   69.16,                   219.05120000000002 96.04,                   219.05120000000002" fill = "none" stroke = "black" /> 
<polyline points = "                   69.16,                   223.8512 96.04,                   223.8512" fill = "none" stroke = "black" /> 
<polyline points = "                   69.16,                   228.65120000000002 96.04,                   228.65120000000002" fill = "none" stroke = "black" /> 
<polyline points = "                   69.16,                   233.45120000000003 96.04,                   233.45120000000003" fill = "none" stroke = "black" /> 
<polyline points = "                   69.16,                   238.25120000000004 96.04,                   238.25120000000004" fill = "none" stroke = "black" /> 
<polyline points = "                   69.16,                   243.05120000000002 96.04,                   243.05120000000002" fill = "none" stroke = "black" /> 
<polyline points = "                   69.16,                   247.8512 96.04,                   247.8512" fill = "none" stroke = "black" /> 
<polyline points = "                   69.16,                   252.65120000000002 96.04,                   252.65120000000002" fill = "none" stroke = "black" /> 
<polyline points = "                   69.16,                   257.45120000000003 96.04,                   257.45120000000003" fill = "none" stroke = "black" /> 
<polyline points = "                   69.16,                   262.25120000000004 96.04,                   262.25120000000004" fill = "none" stroke = "black" /> 
<polyline points = "                   69.16,                   267.0512 96.04,                   267.0512" fill = "none" stroke = "black" /> 
<polyline points = "                   69.16,                   271.85120000000006 96.04,                   271.85120000000006" fill = "none" stroke = "black" /> 
<polyline points = "                   69.16,                   276.6512 96.04,                   276.6512" fill = "none" stroke = "black" /> 
<polyline points = "                   69.16,                   281.45120000000003 96.04,                   281.45120000000003" fill = "none" stroke = "black" /> 
<polyline points = "                   69.16,                   286.25120000000004 96.04,                   286.25120000000004" fill = "none" stroke = "black" /> 
<polyline points = "                   69.16,                   291.0512 96.04,                   291.0512" fill = "none" stroke = "black" /> 
<polyline points = "                   69.16,                   295.85120000000006 96.04,                   295.85120000000006" fill = "none" stroke = "black" /> 
<polyline points = "                   69.16,                   300.6512 96.04,                   300.6512" fill = "none" stroke = "black" /> 
<polyline points = "                   69.16,                   305.45120000000003 96.04,                   305.45120000000003" fill = "none" stroke = "black" /> 
<polyline points = "                   69.16,                   310.25120000000004 96.04,                   310.25120000000004" fill = "none" stroke = "black" /> 
<polyline points = "                   69.16,                   315.05120000000005 96.04,                   315.05120000000005" fill = "none" stroke = "black" /> 
<polyline points = "                   69.16,                   319.85120000000006 96.04,                   319.85120000000006" fill = "none" stroke = "black" /> 
<polyline points = "                   69.16,                   324.6512 96.04,                   324.6512" fill = "none" stroke = "black" /> 
<polyline points = "                   69.16,                   329.45120000000003 96.04,                   329.45120000000003" fill = "none" stroke = "black" /> 
<polyline points = "                   69.16,                   334.25120000000004 96.04,                   334.25120000000004" fill = "none" stroke = "black" /> 
<polyline points = "                   69.16,                   339.05120000000005 96.04,                   339.05120000000005" fill = "none" stroke = "black" /> 
<polyline points = "                   69.16,                   343.85120000000006 96.04,                   343.85120000000006" fill = "none" stroke = "black" /> 
<polyline points = "                   69.16,                   348.6512 96.04,                   348.6512" fill = "none" stroke = "black" /> 
<polyline points = "                   69.16,                   353.45120000000003 96.04,                   353.45120000000003" fill = "none" stroke = "black" /> 
<polyline points = "                   69.16,                   358.25120000000004 96.04,                   358.25120000000004" fill = "none" stroke = "black" /> 
<polyline points = "                   69.16,                   363.05120000000005 96.04,                   363.05120000000005" fill = "none" stroke = "black" /> 
<polyline points = "                   69.16,                   367.85120000000006 96.04,                   367.85120000000006" fill = "none" stroke = "black" /> 
<polyline points = "                   98.44000000000001,                   204.65120000000002 125.32000000000002,                   204.65120000000002" fill = "none" stroke = "black" /> 
<polyline points = "                       127.72000000000003,                       204.65120000000002                       144.73120000000003,                       204.65120000000002" fill = "none" stroke = "black" /> 
<polyline points = "22.8688,                       207.05120000000002 142.3312,                       207.05120000000002" fill = "none" stroke = "black" /> 
<polyline points = "                   98.44000000000001,                   209.45120000000003 125.32000000000002,                   209.45120000000003" fill = "none" stroke = "black" /> 
<polyline points = "                       127.72000000000003,                       209.45120000000003                       144.73120000000003,                       209.45120000000003" fill = "none" stroke = "black" /> 
<polyline points = "22.8688,                       211.8512 142.3312,                       211.8512" fill = "none" stroke = "black" /> 
<polyline points = "                   98.44000000000001,                   214.2512 125.32000000000002,                   214.2512" fill = "none" stroke = "black" /> 
<polyline points = "                       127.72000000000003,                       214.2512                       144.73120000000003,                       214.2512" fill = "none" stroke = "black" /> 
<polyline points = "22.8688,                       216.6512 142.3312,                       216.6512" fill = "none" stroke = "black" /> 
<polyline points = "                   98.44000000000001,                   219.05120000000002 125.32000000000002,                   219.05120000000002" fill = "none" stroke = "black" /> 
<polyline points = "                       127.72000000000003,                       219.05120000000002                       144.73120000000003,                       219.05120000000002" fill = "none" stroke = "black" /> 
<polyline points = "22.8688,                       221.4512 142.3312,                       221.4512" fill = "none" stroke = "black" /> 
<polyline points = "                   98.44000000000001,                   223.8512 125.32000000000002,                   223.8512" fill = "none" stroke = "black" /> 
<polyline points = "                       127.72000000000003,                       223.8512                       144.73120000000003,                       223.8512" fill = "none" stroke = "black" /> 
<polyline points = "22.8688,                       226.25119999999998 142.3312,                       226.25119999999998" fill = "none" stroke = "black" /> 
<polyline points = "                   98.44000000000001,                   228.65120000000002 125.32000000000002,                   228.65120000000002" fill = "none" stroke = "black" /> 
<polyline points = "                       127.72000000000003,                       228.65120000000002                       144.73120000000003,                       228.65120000000002" fill = "none" stroke = "black" /> 
<polyline points = "22.8688,                       231.05120000000002 142.3312,                       231.05120000000002" fill = "none" stroke = "black" /> 
<polyline points = "                   98.44000000000001,                   233.45120000000003 125.32000000000002,                   233.45120000000003" fill = "none" stroke = "black" /> 
<polyline points = "                       127.72000000000003,                       233.45120000000003                       144.73120000000003,                       233.45120000000003" fill = "none" stroke = "black" /> 
<polyline points = "22.8688,                       235.8512 142.3312,                       235.8512" fill = "none" stroke = "black" /> 
<polyline points = "                   98.44000000000001,                   238.25120000000004 125.32000000000002,                   238.25120000000004" fill = "none" stroke = "black" /> 
<polyline points = "                       127.72000000000003,                       238.25120000000004                       144.73120000000003,                       238.25120000000004" fill = "none" stroke = "black" /> 
<polyline points = "22.8688,                       240.65120000000002 142.3312,                       240.65120000000002" fill = "none" stroke = "black" /> 
<polyline points = "                   98.44000000000001,                   243.05120000000002 125.32000000000002,                   243.05120000000002" fill = "none" stroke = "black" /> 
<polyline points = "                       127.72000000000003,                       243.05120000000002                       144.73120000000003,                       243.05120000000002" fill = "none" stroke = "black" /> 
<polyline points = "22.8688,                       245.4512 142.3312,                       245.4512" fill = "none" stroke = "black" /> 
<polyline points = "                   98.44000000000001,                   247.8512 125.32000000000002,                   247.8512" fill = "none" stroke = "black" /> 
<polyline points = "                       127.72000000000003,                       247.8512                       144.73120000000003,                       247.8512" fill = "none" stroke = "black" /> 
<polyline points = "22.8688,                       250.25119999999998 142.3312,                       250.25119999999998" fill = "none" stroke = "black" /> 
<polyline points = "                   98.44000000000001,                   252.65120000000002 125.32000000000002,                   252.65120000000002" fill = "none" stroke = "black" /> 
<polyline points = "                       127.72000000000003,                       252.65120000000002                       144.73120000000003,                       252.65120000000002" fill = "none" stroke = "black" /> 
<polyline points = "22.8688,                       255.05120000000005 142.3312,                       255.05120000000005" fill = "none" stroke = "black" /> 
<polyline points = "                   98.44000000000001,                   257.45120000000003 125.32000000000002,                   257.45120000000003" fill = "none" stroke = "black" /> 
<polyline points = "                       127.72000000000003,                       257.45120000000003                       144.73120000000003,                       257.45120000000003" fill = "none" stroke = "black" /> 
<polyline points = "22.8688,                       259.8512 142.3312,                       259.8512" fill = "none" stroke = "black" /> 
<polyline points = "                   98.44000000000001,                   262.25120000000004 125.32000000000002,                   262.25120000000004" fill = "none" stroke = "black" /> 
<polyline points = "                       127.72000000000003,                       262.25120000000004                       144.73120000000003,                       262.25120000000004" fill = "none" stroke = "black" /> 
<polyline points = "22.8688,                       264.6512 142.3312,                       264.6512" fill = "none" stroke = "black" /> 
<polyline points = "                   98.44000000000001,                   267.0512 125.32000000000002,                   267.0512" fill = "none" stroke = "black" /> 
<polyline points = "                       127.72000000000003,                       267.0512                       144.73120000000003,                       267.0512" fill = "none" stroke = "black" /> 
<polyline points = "22.8688,                       269.45120000000003 142.3312,                       269.45120000000003" fill = "none" stroke = "black" /> 
<polyline points = "                   98.44000000000001,                   271.85120000000006 125.32000000000002,                   271.85120000000006" fill = "none" stroke = "black" /> 
<polyline points = "                       127.72000000000003,                       271.85120000000006                       144.73120000000003,                       271.85120000000006" fill = "none" stroke = "black" /> 
<polyline points = "22.8688,                       274.25120000000004 142.3312,                       274.25120000000004" fill = "none" stroke = "black" /> 
<polyline points = "                   98.44000000000001,                   276.6512 125.32000000000002,                   276.6512" fill = "none" stroke = "black" /> 
<polyline points = "                       127.72000000000003,                       276.6512                       144.73120000000003,                       276.6512" fill = "none" stroke = "black" /> 
<polyline points = "22.8688,                       279.05120000000005 142.3312,                       279.05120000000005" fill = "none" stroke = "black" /> 
<polyline points = "                   98.44000000000001,                   281.45120000000003 125.32000000000002,                   281.45120000000003" fill = "none" stroke = "black" /> 
<polyline points = "                       127.72000000000003,                       281.45120000000003                       144.73120000000003,                       281.45120000000003" fill = "none" stroke = "black" /> 
<polyline points = "22.8688,                       283.8512 142.3312,                       283.8512" fill = "none" stroke = "black" /> 
<polyline points = "                   98.44000000000001,                   286.25120000000004 125.32000000000002,                   286.25120000000004" fill = "none" stroke = "black" /> 
<polyline points = "                       127.72000000000003,                       286.25120000000004                       144.73120000000003,                       286.25120000000004" fill = "none" stroke = "black" /> 
<polyline points = "22.8688,                       288.6512 142.3312,                       288.6512" fill = "none" stroke = "black" /> 
<polyline points = "                   98.44000000000001,                   291.0512 125.32000000000002,                   291.0512" fill = "none" stroke = "black" /> 
<polyline points = "                       127.72000000000003,                       291.0512                       144.73120000000003,                       291.0512" fill = "none" stroke = "black" /> 
<polyline points = "22.8688,                       293.45120000000003 142.3312,                       293.45120000000003" fill = "none" stroke = "black" /> 
<polyline points = "                   98.44000000000001,                   295.85120000000006 125.32000000000002,                   295.85120000000006" fill = "none" stroke = "black" /> 
<polyline points = "                       127.72000000000003,                       295.85120000000006                       144.73120000000003,                       295.85120000000006" fill = "none" stroke = "black" /> 
<polyline points = "22.8688,                       298.25120000000004 142.3312,                       298.25120000000004" fill = "none" stroke = "black" /> 
<polyline points = "                   98.44000000000001,                   300.6512 125.32000000000002,                   300.6512" fill = "none" stroke = "black" /> 
<polyline points = "                       127.72000000000003,                       300.6512                       144.73120000000003,                       300.6512" fill = "none" stroke = "black" /> 
<polyline points = "22.8688,                       303.05120000000005 142.3312,                       303.05120000000005" fill = "none" stroke = "black" /> 
<polyline points = "                   98.44000000000001,                   305.45120000000003 125.32000000000002,                   305.45120000000003" fill = "none" stroke = "black" /> 
<polyline points = "                       127.72000000000003,                       305.45120000000003                       144.73120000000003,                       305.45120000000003" fill = "none" stroke = "black" /> 
<polyline points = "22.8688,                       307.8512 142.3312,                       307.8512" fill = "none" stroke = "black" /> 
<polyline points = "                   98.44000000000001,                   310.25120000000004 125.32000000000002,                   310.25120000000004" fill = "none" stroke = "black" /> 
<polyline points = "                       127.72000000000003,                       310.25120000000004                       144.73120000000003,                       310.25120000000004" fill = "none" stroke = "black" /> 
<polyline points = "22.8688,                       312.6512 142.3312,                       312.6512" fill = "none" stroke = "black" /> 
<polyline points = "                   98.44000000000001,                   315.05120000000005 125.32000000000002,                   315.05120000000005" fill = "none" stroke = "black" /> 
<polyline points = "                       127.72000000000003,                       315.05120000000005                       144.73120000000003,                       315.05120000000005" fill = "none" stroke = "black" /> 
<polyline points = "22.8688,                       317.45120000000003 142.3312,                       317.45120000000003" fill = "none" stroke = "black" /> 
<polyline points = "                   98.44000000000001,                   319.85120000000006 125.32000000000002,                   319.85120000000006" fill = "none" stroke = "black" /> 
<polyline points = "                       127.72000000000003,                       319.85120000000006                       144.73120000000003,                       319.85120000000006" fill = "none" stroke = "black" /> 
<polyline points = "22.8688,                       322.25120000000004 142.3312,                       322.25120000000004" fill = "none" stroke = "black" /> 
<polyline points = "                   98.44000000000001,                   324.6512 125.32000000000002,                   324.6512" fill = "none" stroke = "black" /> 
<polyline points = "                       127.72000000000003,                       324.6512                       144.73120000000003,                       324.6512" fill = "none" stroke = "black" /> 
<polyline points = "22.8688,                       327.05120000000005 142.3312,                       327.05120000000005" fill = "none" stroke = "black" /> 
<polyline points = "                   98.44000000000001,                   329.45120000000003 125.32000000000002,                   329.45120000000003" fill = "none" stroke = "black" /> 
<polyline points = "                       127.72000000000003,                       329.45120000000003                       144.73120000000003,                       329.45120000000003" fill = "none" stroke = "black" /> 
<polyline points = "22.8688,                       331.8512 142.3312,                       331.8512" fill = "none" stroke = "black" /> 
<polyline points = "                   98.44000000000001,                   334.25120000000004 125.32000000000002,                   334.25120000000004" fill = "none" stroke = "black" /> 
<polyline points = "                       127.72000000000003,                       334.25120000000004                       144.73120000000003,                       334.25120000000004" fill = "none" stroke = "black" /> 
<polyline points = "22.8688,                       336.6512000000001 142.3312,                       336.6512000000001" fill = "none" stroke = "black" /> 
<polyline points = "                   98.44000000000001,                   339.05120000000005 125.32000000000002,                   339.05120000000005" fill = "none" stroke = "black" /> 
<polyline points = "                       127.72000000000003,                       339.05120000000005                       144.73120000000003,                       339.05120000000005" fill = "none" stroke = "black" /> 
<polyline points = "22.8688,                       341.45120000000003 142.3312,                       341.45120000000003" fill = "none" stroke = "black" /> 
<polyline points = "                   98.44000000000001,                   343.85120000000006 125.32000000000002,                   343.85120000000006" fill = "none" stroke = "black" /> 
<polyline points = "                       127.72000000000003,                       343.85120000000006                       144.73120000000003,                       343.85120000000006" fill = "none" stroke = "black" /> 
<polyline points = "22.8688,                       346.25120000000004 142.3312,                       346.25120000000004" fill = "none" stroke = "black" /> 
<polyline points = "                   98.44000000000001,                   348.6512 125.32000000000002,                   348.6512" fill = "none" stroke = "black" /> 
<polyline points = "                       127.72000000000003,                       348.6512                       144.73120000000003,                       348.6512" fill = "none" stroke = "black" /> 
<polyline points = "22.8688,                       351.05120000000005 142.3312,                       351.05120000000005" fill = "none" stroke = "black" /> 
<polyline points = "                   98.44000000000001,                   353.45120000000003 125.32000000000002,                   353.45120000000003" fill = "none" stroke = "black" /> 
<polyline points = "                       127.72000000000003,                       353.45120000000003                       144.73120000000003,                       353.45120000000003" fill = "none" stroke = "black" /> 
<polyline points = "22.8688,                       355.8512 142.3312,                       355.8512" fill = "none" stroke = "black" /> 
<polyline points = "                   98.44000000000001,                   358.25120000000004 125.32000000000002,                   358.25120000000004" fill = "none" stroke = "black" /> 
<polyline points = "                       127.72000000000003,                       358.25120000000004                       144.73120000000003,                       358.25120000000004" fill = "none" stroke = "black" /> 
<polyline points = "22.8688,                       360.6512000000001 142.3312,                       360.6512000000001" fill = "none" stroke = "black" /> 
<polyline points = "                   98.44000000000001,                   363.05120000000005 125.32000000000002,                   363.05120000000005" fill = "none" stroke = "black" /> 
<polyline points = "                       127.72000000000003,                       363.05120000000005                       144.73120000000003,                       363.05120000000005" fill = "none" stroke = "black" /> 
<polyline points = "22.8688,                       365.45120000000003 142.3312,                       365.45120000000003" fill = "none" stroke = "black" /> 
<polyline points = "                   98.44000000000001,                   367.85120000000006 125.32000000000002,                   367.85120000000006" fill = "none" stroke = "black" /> 
<polyline points = "                       127.72000000000003,                       367.85120000000006                       144.73120000000003,                       367.85120000000006" fill = "none" stroke = "black" /> 
<polyline points = "22.8688,                       370.25120000000004 142.3312,                       370.25120000000004" fill = "none" stroke = "black" /> 
<polyline points = "211.86240000000004,293.66240000000005 212.24867855618257,         294.3052754755266" fill = "none" stroke = "red" /> 
<polyline points = "211.86240000000004,            293.66240000000005             212.24867855618257,            294.3052754755266"             fill = "none" stroke = "red" /> 
<polyline points = "212.24867855618257,            294.3052754755266             211.1581926558212,            294.9868213892884"             fill = "none" stroke = "red" /> 
<polyline points = "211.1581926558212,            294.9868213892884             209.61548354680224,            293.78015590154666"             fill = "none" stroke = "red" /> 
<polyline points = "209.61548354680224,            293.78015590154666             210.1848212895878,            291.1752872823349"             fill = "none" stroke = "red" /> 
<polyline points = "210.1848212895878,            291.1752872823349             213.44721848152767,            290.2637457986126"             fill = "none" stroke = "red" /> 
<polyline points = "213.44721848152767,            290.2637457986126             216.33774852915727,            293.1920219152956"             fill = "none" stroke = "red" /> 
<polyline points = "216.33774852915727,            293.1920219152956             215.02192887154828,            297.8552364277483"             fill = "none" stroke = "red" /> 
<polyline points = "215.02192887154828,            297.8552364277483             209.61476043950458,            299.22550312740077"             fill = "none" stroke = "red" /> 
<polyline points = "209.61476043950458,            299.22550312740077             205.19550370098287,            294.71833263902164"             fill = "none" stroke = "red" /> 
<polyline points = "205.19550370098287,            294.71833263902164             207.041492927351,            287.9170666766077"             fill = "none" stroke = "red" /> 
<polyline points = "207.041492927351,            287.9170666766077             214.54833727427157,            285.86187175130567"             fill = "none" stroke = "red" /> 
<polyline points = "214.54833727427157,            285.86187175130567             220.66572840660427,            291.7911947826402"             fill = "none" stroke = "red" /> 
<polyline points = "220.66572840660427,            291.7911947826402             218.5118840106094,            300.79309859078694"             fill = "none" stroke = "red" /> 
<polyline points = "218.5118840106094,            300.79309859078694             208.96820776392155,            303.7556478073524"             fill = "none" stroke = "red" /> 
<polyline points = "208.96820776392155,            303.7556478073524             200.995734454248,            296.57411425740344"             fill = "none" stroke = "red" /> 
<polyline points = "200.995734454248,            296.57411425740344             203.2303223959362,            285.3264995544921"             fill = "none" stroke = "red" /> 
<polyline points = "203.2303223959362,            285.3264995544921             214.7305259428843,            281.2391816739883"             fill = "none" stroke = "red" /> 
<polyline points = "214.7305259428843,            281.2391816739883             224.7016629699846,            289.4906705759382"             fill = "none" stroke = "red" /> 
<polyline points = "224.7016629699846,            289.4906705759382             222.61701151817454,            303.0112411631148"             fill = "none" stroke = "red" /> 
<polyline points = "222.61701151817454,            303.0112411631148             209.25767733499606,            308.4345162951832"             fill = "none" stroke = "red" /> 
<polyline points = "209.25767733499606,            308.4345162951832             197.15850828266912,            299.30669520533854"             fill = "none" stroke = "red" /> 
<polyline points = "197.15850828266912,            299.30669520533854             198.86022256548912,            283.5039856571267"             fill = "none" stroke = "red" /> 
<polyline points = "198.86022256548912,            283.5039856571267             213.96464617373883,            276.54097888418727"             fill = "none" stroke = "red" /> 
<polyline points = "213.96464617373883,            276.54097888418727             228.30621823756684,            286.3411404246356"             fill = "none" stroke = "red" /> 
<polyline points = "228.30621823756684,            286.3411404246356             227.22150083041868,            304.4169581815821"             fill = "none" stroke = "red" /> 
<polyline points = "227.22150083041868,            304.4169581815821             210.5021487619896,            313.11489898006664"             fill = "none" stroke = "red" /> 
<polyline points = "210.5021487619896,            313.11489898006664             193.81951788518563,            302.85570761972593"             fill = "none" stroke = "red" /> 
<polyline points = "193.81951788518563,            302.85570761972593             194.05338998071508,            282.53409545110276"             fill = "none" stroke = "red" /> 
<polyline points = "194.05338998071508,            282.53409545110276             212.24198984001086,            271.91571263034854"             fill = "none" stroke = "red" /> 
<polyline points = "212.24198984001086,            271.91571263034854             231.3479715851499,            282.41240000000005"             fill = "none" stroke = "red" /> 
<polyline points = "231.3479715851499,            282.41240000000005             232.197308190991,            304.93422367072736"             fill = "none" stroke = "red" /> 
<polyline points = "232.197308190991,            304.93422367072736             212.69998792086017,            317.64777984845836"             fill = "none" stroke = "red" /> 
<polyline points = "212.69998792086017,            317.64777984845836             191.1053034433508,            307.14221611662197"             fill = "none" stroke = "red" /> 
<polyline points = "191.1053034433508,            307.14221611662197             188.94315181937122,            282.4839357568787"             fill = "none" stroke = "red" /> 
<polyline points = "188.94315181937122,            282.4839357568787             209.57456175287396,            267.5122891750917"             fill = "none" stroke = "red" /> 
<polyline points = "209.57456175287396,            267.5122891750917             233.70585884812354,            277.79219818810316"             fill = "none" stroke = "red" /> 
<polyline points = "233.70585884812354,            277.79219818810316             237.40640968330527,            304.50518881557736"             fill = "none" stroke = "red" /> 
<polyline points = "237.40640968330527,            304.50518881557736             215.82883337736186,            321.8850399591348"             fill = "none" stroke = "red" /> 
<polyline points = "215.82883337736186,            321.8850399591348             189.13088062738368,            312.07002143820785"             fill = "none" stroke = "red" /> 
<polyline points = "189.13088062738368,            312.07002143820785             183.6716213764228,            283.40179570022997"             fill = "none" stroke = "red" /> 
<polyline points = "183.6716213764228,            283.40179570022997             205.99502339217122,            263.4773641089844"             fill = "none" stroke = "red" /> 
<polyline points = "205.99502339217122,            263.4773641089844             235.271462002538,            272.58478589969604"             fill = "none" stroke = "red" /> 
<polyline points = "235.271462002538,            272.58478589969604             242.70322837980797,            303.0913874773082"             fill = "none" stroke = "red" /> 
<polyline points = "242.70322837980797,            303.0913874773082             219.84582255478904,            325.68215896710797"             fill = "none" stroke = "red" /> 
<polyline points = "219.84582255478904,            325.68215896710797             187.99754613495412,            317.5272538650461"             fill = "none" stroke = "red" /> 
<polyline points = "187.99754613495412,            317.5272538650461             178.38719744347816,            285.31609460181147"             fill = "none" stroke = "red" /> 
<polyline points = "178.38719744347816,            285.31609460181147             201.55629740852348,            259.95265735230305"             fill = "none" stroke = "red" /> 
<polyline points = "201.55629740852348,            259.95265735230305             235.95110182891895,            266.90918628281383"             fill = "none" stroke = "red" /> 
<polyline points = "235.95110182891895,            266.90918628281383             247.9371989917017,            300.674630580088"             fill = "none" stroke = "red" /> 
<polyline points = "247.9371989917017,            300.674630580088             224.68815537471286,            328.9008732794715"             fill = "none" stroke = "red" /> 
<polyline points = "224.68815537471286,            328.9008732794715             187.79089504234386,            323.3882330257293"             fill = "none" stroke = "red" /> 
<polyline points = "187.79089504234386,            323.3882330257293             173.24194531907878,            288.2346490625575"             fill = "none" stroke = "red" /> 
<polyline points = "173.24194531907878,            288.2346490625575             196.33083764255127,            257.0723320752656"             fill = "none" stroke = "red" /> 
<polyline points = "196.33083764255127,            257.0723320752656             235.66770271784495,            260.8972117278145"             fill = "none" stroke = "red" /> 
<polyline points = "235.66770271784495,            260.8972117278145             252.95543129628453,            297.2575743883411"             fill = "none" stroke = "red" /> 
<polyline points = "252.95543129628453,            297.2575743883411             230.2739881651413,            331.41174994456503"             fill = "none" stroke = "red" /> 
<polyline points = "230.2739881651413,            331.41174994456503             188.57908125310777,            329.51556677966704"             fill = "none" stroke = "red" /> 
<polyline points = "188.57908125310777,            329.51556677966704             168.38889902466934,            292.1442718934416"             fill = "none" stroke = "red" /> 
<polyline points = "168.38889902466934,            292.1442718934416             190.40957430409972,            254.96047795908174"             fill = "none" stroke = "red" /> 
<polyline points = "190.40957430409972,            254.96047795908174             234.36239999999998,            254.69125682970028"             fill = "none" stroke = "red" /> 
<polyline points = "234.36239999999998,            254.69125682970028             257.6054320534049,            292.8639524054941"             fill = "none" stroke = "red" /> 
<polyline points = "257.6054320534049,            292.8639524054941             236.50364578684412,            333.0966364712738"             fill = "none" stroke = "red" /> 
<polyline points = "236.50364578684412,            333.0966364712738             190.41134888730636,            335.7624582679004"             fill = "none" stroke = "red" /> 
<polyline points = "190.41134888730636,            335.7624582679004             163.9793255875285,            297.0107107397185"             fill = "none" stroke = "red" /> 
<polyline points = "163.9793255875285,            297.0107107397185             183.9005487278863,            253.72873784091183"             fill = "none" stroke = "red" /> 
<polyline points = "183.9005487278863,            253.72873784091183             231.99586383225204,            248.44189984669126"             fill = "none" stroke = "red" /> 
<text x = "82.60000000000001"         y = "106.80000000000001"         dominant-baseline= "central" text-anchor= "middle"         font-size = "30px" fill = "blue">eh </text> 
<text x = "25" y = "408.7248" dy = "0">
<tspan x = "20" dy = ".6em" >BOX ATTRIBUTES </tspan>
<tspan x = "20" dy = "1.2em" >thickness: </tspan>
<tspan x = "20" dy = "1.2em" >width: </tspan>
<tspan x = "20" dy = "1.2em" >length:  </tspan>
<tspan x = "20" dy = "1.2em" >height: </tspan>
<tspan x = "20" dy = "1.2em" >partition:  </tspan>
<tspan x = "20" dy = "1.2em" >partition location: </tspan>
<tspan x = "20" dy = "1.2em" >lid: </tspan>
<tspan x = "20" dy = "1.2em" >top text: </tspan>
<tspan x = "20" dy = "1.2em" >front text: </tspan>
<tspan x = "20" dy = "1.2em" >fractal: </tspan>
<tspan x = "20" dy = "1.2em" >fractal side/bottom: </tspan>
<tspan x = "20" dy = "1.2em" >front text string: </tspan>
<tspan x = "20" dy = "1.2em" >top text string: </tspan>
</text><text x = "200" y = "408.7248" dy = "0">
<tspan x = "200" dy = ".6em" > VALUES </tspan>
<tspan x = "200" dy = "1.2em" >0.118</tspan>
<tspan x = "200" dy = "1.2em" >3</tspan>
<tspan x = "200" dy = "1.2em" >5</tspan>
<tspan x = "200" dy = "1.2em" >4</tspan>
<tspan x = "200" dy = "1.2em" >False</tspan>
<tspan x = "200" dy = "1.2em" >0</tspan>
<tspan x = "200" dy = "1.2em" >True</tspan>
<tspan x = "200" dy = "1.2em" >False</tspan>
<tspan x = "200" dy = "1.2em" >True</tspan>
<tspan x = "200" dy = "1.2em" >True</tspan>
<tspan x = "200" dy = "1.2em" >bottom</tspan>
<tspan x = "200" dy = "1.2em" >eh</tspan>
<tspan x = "200" dy = "1.2em" ></tspan>
</text></svg>