<?xml version = "1.0" encoding = "UTF-8" ?> 
<svg xmlns="http://www.w3.org/2000/svg" version = "1.1"> 
<polyline points = "444,444 445.0300761498201,445.71433460140423" fill = "none" stroke = "red" /> 
<polyline points = "444.0,444.0 445.0300761498201,445.71433460140423" fill = "none" stroke = "red" /> 
<polyline points = "445.0300761498201,445.71433460140423 442.12211374885646,447.5317903714357" fill = "none" stroke = "red" /> 
<polyline points = "442.12211374885646,447.5317903714357 438.0082227914726,444.3140157374577" fill = "none" stroke = "red" /> 
<polyline points = "438.0082227914726,444.3140157374577 439.52645677223404,437.36769941955964" fill = "none" stroke = "red" /> 
<polyline points = "439.52645677223404,437.36769941955964 448.226182617407,434.9369221296335" fill = "none" stroke = "red" /> 
<polyline points = "448.226182617407,434.9369221296335 455.9342627444193,442.74565844078813" fill = "none" stroke = "red" /> 
<polyline points = "455.9342627444193,442.74565844078813 452.4254103241287,455.1808971406621" fill = "none" stroke = "red" /> 
<polyline points = "452.4254103241287,455.1808971406621 438.0062945053454,458.8349416730686" fill = "none" stroke = "red" /> 
<polyline points = "438.0062945053454,458.8349416730686 426.22160986928753,446.81582037072417" fill = "none" stroke = "red" /> 
<polyline points = "426.22160986928753,446.81582037072417 431.1442478062692,428.67911113762045" fill = "none" stroke = "red" /> 
<polyline points = "431.1442478062692,428.67911113762045 451.16249939805743,423.198591336815" fill = "none" stroke = "red" /> 
<polyline points = "451.16249939805743,423.198591336815 467.47554241761134,439.01011942037377" fill = "none" stroke = "red" /> 
<polyline points = "467.47554241761134,439.01011942037377 461.73195736162495,463.01519624209845" fill = "none" stroke = "red" /> 
<polyline points = "461.73195736162495,463.01519624209845 436.28215403712403,470.91532748627293" fill = "none" stroke = "red" /> 
<polyline points = "436.28215403712403,470.91532748627293 415.02222521132796,451.7645713530756" fill = "none" stroke = "red" /> 
<polyline points = "415.02222521132796,451.7645713530756 420.98112638916314,421.77093214531214" fill = "none" stroke = "red" /> 
<polyline points = "420.98112638916314,421.77093214531214 451.6483358476913,410.871417797302" fill = "none" stroke = "red" /> 
<polyline points = "451.6483358476913,410.871417797302 478.23803458662553,432.8753882025018" fill = "none" stroke = "red" /> 
<polyline points = "478.23803458662553,432.8753882025018 472.67896404846533,468.9302431016393" fill = "none" stroke = "red" /> 
<polyline points = "472.67896404846533,468.9302431016393 437.05407289332277,483.39231012048833" fill = "none" stroke = "red" /> 
<polyline points = "437.05407289332277,483.39231012048833 404.7896220871175,459.0514538809026" fill = "none" stroke = "red" /> 
<polyline points = "404.7896220871175,459.0514538809026 409.32752684130423,416.91089508567103" fill = "none" stroke = "red" /> 
<polyline points = "409.32752684130423,416.91089508567103 449.6059897966368,398.3428770244992" fill = "none" stroke = "red" /> 
<polyline points = "449.6059897966368,398.3428770244992 487.85018196684484,424.4766411323616" fill = "none" stroke = "red" /> 
<polyline points = "487.85018196684484,424.4766411323616 484.9576022144497,472.67882181755215" fill = "none" stroke = "red" /> 
<polyline points = "484.9576022144497,472.67882181755215 440.37266336530547,495.87333061351086" fill = "none" stroke = "red" /> 
<polyline points = "440.37266336530547,495.87333061351086 395.8856476938282,468.5154869859357" fill = "none" stroke = "red" /> 
<polyline points = "395.8856476938282,468.5154869859357 396.5093066152401,414.32452120294056" fill = "none" stroke = "red" /> 
<polyline points = "396.5093066152401,414.32452120294056 445.0122395733622,386.0088336809293" fill = "none" stroke = "red" /> 
<polyline points = "445.0122395733622,386.0088336809293 495.9615242270663,413.99999999999994" fill = "none" stroke = "red" /> 
<polyline points = "495.9615242270663,413.99999999999994 498.2264218426426,474.0581964552729" fill = "none" stroke = "red" /> 
<polyline points = "498.2264218426426,474.0581964552729 446.23356778896033,507.96101292922214" fill = "none" stroke = "red" /> 
<polyline points = "446.23356778896033,507.96101292922214 388.64774251560203,479.94617631099186" fill = "none" stroke = "red" /> 
<polyline points = "388.64774251560203,479.94617631099186 382.8820048516565,414.19076201834304" fill = "none" stroke = "red" /> 
<polyline points = "382.8820048516565,414.19076201834304 437.89909800766384,374.2663711335778" fill = "none" stroke = "red" /> 
<polyline points = "437.89909800766384,374.2663711335778 502.249223594996,401.67946183494166" fill = "none" stroke = "red" /> 
<polyline points = "502.249223594996,401.67946183494166 512.1173591554806,472.91410350820615" fill = "none" stroke = "red" /> 
<polyline points = "512.1173591554806,472.91410350820615 454.57715567296486,519.2603732243593" fill = "none" stroke = "red" /> 
<polyline points = "454.57715567296486,519.2603732243593 383.3826150063564,493.08699050188744" fill = "none" stroke = "red" /> 
<polyline points = "383.3826150063564,493.08699050188744 368.82459033712735,416.6383885339464" fill = "none" stroke = "red" /> 
<polyline points = "368.82459033712735,416.6383885339464 428.35366237912314,363.5065709572916" fill = "none" stroke = "red" /> 
<polyline points = "428.35366237912314,363.5065709572916 506.4241653401012,387.793029065856" fill = "none" stroke = "red" /> 
<polyline points = "506.4241653401012,387.793029065856 526.2422090128211,469.1439666061552" fill = "none" stroke = "red" /> 
<polyline points = "526.2422090128211,469.1439666061552 465.2891268127707,529.3860239122877" fill = "none" stroke = "red" /> 
<polyline points = "465.2891268127707,529.3860239122877 380.3603896932109,507.63961030678945" fill = "none" stroke = "red" /> 
<polyline points = "380.3603896932109,507.63961030678945 354.73279318260836,421.7431856048305" fill = "none" stroke = "red" /> 
<polyline points = "354.73279318260836,421.7431856048305 416.5170597560625,354.1073529394747" fill = "none" stroke = "red" /> 
<polyline points = "416.5170597560625,354.1073529394747 508.2365382104504,372.6580967541702" fill = "none" stroke = "red" /> 
<polyline points = "508.2365382104504,372.6580967541702 540.1994639778711,462.6992815469011" fill = "none" stroke = "red" /> 
<polyline points = "540.1994639778711,462.6992815469011 478.2020143325675,537.9692620785906" fill = "none" stroke = "red" /> 
<polyline points = "478.2020143325675,537.9692620785906 379.80932011291685,523.2688880686112" fill = "none" stroke = "red" /> 
<polyline points = "379.80932011291685,523.2688880686112 341.01212085087667,429.5259975001532" fill = "none" stroke = "red" /> 
<polyline points = "341.01212085087667,429.5259975001532 402.5825003801366,346.4264855340415" fill = "none" stroke = "red" /> 
<polyline points = "402.5825003801366,346.4264855340415 507.4808072475864,356.6261646075052" fill = "none" stroke = "red" /> 
<polyline points = "507.4808072475864,356.6261646075052 553.581416790092,453.58713170224274" fill = "none" stroke = "red" /> 
<polyline points = "553.581416790092,453.58713170224274 493.09756844037673,544.6649331855067" fill = "none" stroke = "red" /> 
<polyline points = "493.09756844037673,544.6649331855067 381.91115000828734,539.6084447457786" fill = "none" stroke = "red" /> 
<polyline points = "381.91115000828734,539.6084447457786 328.07066406578485,439.9516583825108" fill = "none" stroke = "red" /> 
<polyline points = "328.07066406578485,439.9516583825108 386.7924648109325,340.79487455755117" fill = "none" stroke = "red" /> 
<polyline points = "386.7924648109325,340.79487455755117 503.9999999999999,340.0769515458673" fill = "none" stroke = "red" /> 
<polyline points = "503.9999999999999,340.0769515458673 565.9814188090797,441.8708064146508" fill = "none" stroke = "red" /> 
<polyline points = "565.9814188090797,441.8708064146508 509.70998876491757,549.1579639233967" fill = "none" stroke = "red" /> 
<polyline points = "509.70998876491757,549.1579639233967 386.7971970328169,556.2668220477342" fill = "none" stroke = "red" /> 
<polyline points = "386.7971970328169,556.2668220477342 316.3118015667426,452.92882863924916" fill = "none" stroke = "red" /> 
<polyline points = "316.3118015667426,452.92882863924916 369.4350632743634,337.51023424243147" fill = "none" stroke = "red" /> 
<polyline points = "369.4350632743634,337.51023424243147 497.68923688600535,323.4119995911766" fill = "none" stroke = "red" /> 
<polyline points = "497.68923688600535,323.4119995911766 577.0011843199372,427.66950798371045" fill = "none" stroke = "red" /> 
<polyline points = "577.0011843199372,427.66950798371045 527.7299606442905,551.1694624905134" fill = "none" stroke = "red" /> 
<polyline points = "527.7299606442905,551.1694624905134 394.5452229627475,572.8340988566134" fill = "none" stroke = "red" /> 
<polyline points = "394.5452229627475,572.8340988566134 306.12691457829095,468.3107448733706" fill = "none" stroke = "red" /> 
<polyline points = "306.12691457829095,468.3107448733706 350.83961788334807,336.8312396083663" fill = "none" stroke = "red" /> 
<polyline points = "350.83961788334807,336.8312396083663 488.49844718999105,307.0478616534974" fill = "none" stroke = "red" /> 
<polyline points = "488.49844718999105,307.0478616534974 586.2580294586442,411.1571460657948" fill = "none" stroke = "red" /> 
<polyline points = "586.2580294586442,411.1571460657948 546.8094388279319,550.46229045012" fill = "none" stroke = "red" /> 
<polyline points = "546.8094388279319,550.46229045012 405.17714323462184,588.8888739433603" fill = "none" stroke = "red" /> 
<polyline points = "405.17714323462184,588.8888739433603 297.8882222173754,485.89687808418336" fill = "none" stroke = "red" /> 
<polyline points = "297.8882222173754,485.89687808418336 331.371529950647,338.972252550376" fill = "none" stroke = "red" /> 
<polyline points = "331.371529950647,338.972252550376 476.4342237675699,291.4089742855262" fill = "none" stroke = "red" /> 
<polyline points = "476.4342237675699,291.4089742855262 593.391934944692,392.5602315957692" fill = "none" stroke = "red" /> 
<polyline points = "593.391934944692,392.5602315957692 566.5671108990362,546.8460175498467" fill = "none" stroke = "red" /> 
<polyline points = "566.5671108990362,546.8460175498467 418.65761666348385,604.0055111764125" fill = "none" stroke = "red" /> 
<polyline points = "418.65761666348385,604.0055111764125 291.9418478510471,505.4354813202102" fill = "none" stroke = "red" /> 
<polyline points = "291.9418478510471,505.4354813202102 311.4265053321493,344.0987061567601" fill = "none" stroke = "red" /> 
<polyline points = "311.4265053321493,344.0987061567601 461.5607818289662,276.92032157813014" fill = "none" stroke = "red" /> 
<polyline points = "461.5607818289662,276.92032157813014 598.07232379623,372.15489550407983" fill = "none" stroke = "red" /> 
<polyline points = "598.07232379623,372.15489550407983 586.5944624794677,540.1811793969678" fill = "none" stroke = "red" /> 
<polyline points = "586.5944624794677,540.1811793969678 434.893543613728,617.7615390472959" fill = "none" stroke = "red" /> 
<polyline points = "434.893543613728,617.7615390472959 288.60122365682867,526.6269950503165" fill = "none" stroke = "red" /> 
<polyline points = "288.60122365682867,526.6269950503165 291.4242204750245,352.32322266600954" fill = "none" stroke = "red" /> 
<polyline points = "291.4242204750245,352.32322266600954 443.99999999999903,264.0" fill = "none" stroke = "red" /> 
<polyline points = "443.99999999999903,264.0 600.0044487277843,350.2630703663698" fill = "none" stroke = "red" /> 
<polyline points = "600.0044487277843,350.2630703663698 606.4623570860424,530.3827675526042" fill = "none" stroke = "red" /> 
<polyline points = "606.4623570860424,530.3827675526042 453.7344878611893,629.7450934643507" fill = "none" stroke = "red" /> 
<polyline points = "453.7344878611893,629.7450934643507 288.14093635965276,549.1282658525014" fill = "none" stroke = "red" /> 
<polyline points = "288.14093635965276,549.1282658525014 271.80152046303516,363.70253026926997" fill = "none" stroke = "red" /> 
<polyline points = "271.80152046303516,363.70253026926997 423.9305350526107,253.0517960892915" fill = "none" stroke = "red" /> 
<polyline points = "423.9305350526107,253.0517960892915 598.9352889491753,327.2478855085033" fill = "none" stroke = "red" /> 
<polyline points = "598.9352889491753,327.2478855085033 625.7280354950908,517.4228923095176" fill = "none" stroke = "red" /> 
<polyline points = "625.7280354950908,517.4228923095176 474.9740240779663,639.5622914378372" fill = "none" stroke = "red" /> 
<polyline points = "474.9740240779663,639.5622914378372 290.7911113762062,572.55752193731" fill = "none" stroke = "red" /> 
</svg>