<?xml version = "1.0" encoding = "UTF-8" ?> 
<svg xmlns="http://www.w3.org/2000/svg" version = "1.1"> 
<line x1="75" y1="40" x2="113.4" y2 ="40" style="stroke:red;stroke:4"/>
<text x = "123.4" y = "45" font-size = "12px" fill = "red"> = 1 inch (2:5 scale) </text> 
<polyline points="75,75 267.0,75 " style="fill:none;stroke:black;stroke:2"/>
<polyline points="267.0,75.0 270.84,75.0 270.84,94.2 267.0,94.2 267.0,113.4 267.0,113.4 270.84,113.4 270.84,132.60000000000002 267.0,132.60000000000002 267.0,151.8 267.0,151.8 270.84,151.8 270.84,171.0 267.0,171.0 267.0,190.20000000000002 267.0,190.20000000000002 270.84,190.20000000000002 270.84,209.40000000000003 267.0,209.40000000000003 267.0,228.60000000000002 267.0,228.60000000000002 270.84,228.60000000000002 270.84,247.8 267.0,247.8 267.0,267.0 " style="fill:none;stroke:black;stroke:2"/>
<line x1 = "267.0" y1 = "101.91023622045002" x2 = "267.0" y2 = "105.68976377955002" style="fill:none;stroke:white;stroke:2"/>
<line x1 = "267.0" y1 = "255.51023622045005" x2 = "267.0" y2 = "259.28976377955007" style="fill:none;stroke:white;stroke:2"/>
<polyline points = "267.0,101.91023622045002 260.89228346454,101.91023622045002 260.89228346454,99.64251968499002 257.86866141726,99.64251968499002 257.86866141726,101.91023622045002 250.30960629906,101.91023622045002 250.30960629906,105.68976377955002 257.86866141726,105.68976377955002 257.86866141726,107.95748031501002 260.89228346454,107.95748031501002 260.89228346454,105.68976377955002 267.0,105.68976377955002" style="fill:none;stroke:black;stroke:2"/>
<polyline points = "267.0,255.51023622045005 260.89228346454,255.51023622045005 260.89228346454,253.24251968499004 257.86866141726,253.24251968499004 257.86866141726,255.51023622045005 250.30960629906,255.51023622045005 250.30960629906,259.28976377955007 257.86866141726,259.28976377955007 257.86866141726,261.55748031501 260.89228346454,261.55748031501 260.89228346454,259.28976377955007 267.0,259.28976377955007" style="fill:none;stroke:black;stroke:2"/>
<polyline points="267.0,267.0 267.0,270.84 247.8,270.84 247.8,267.0 228.60000000000002,267.0 228.6,267.0 228.6,270.84 209.4,270.84 209.4,267.0 190.20000000000002,267.0 190.2,267.0 190.2,270.84 171.0,270.84 171.0,267.0 151.8,267.0 151.79999999999998,267.0 151.79999999999998,270.84 132.6,270.84 132.6,267.0 113.4,267.0 113.39999999999998,267.0 113.39999999999998,270.84 94.19999999999999,270.84 94.19999999999999,267.0 75.0,267.0 " style="fill:none;stroke:black;stroke:2"/>
<line x1 = "82.71023622044997" y1 = "267.0" x2 = "86.48976377954997" y2 = "267.0" style="fill:none;stroke:white;stroke:2"/>
<line x1 = "236.31023622045" y1 = "267.0" x2 = "240.08976377955" y2 = "267.0" style="fill:none;stroke:white;stroke:2"/>
<polyline points = "82.71023622044997,267.0 82.71023622044997,260.89228346454 80.44251968498997,260.89228346454 80.44251968498997,257.86866141726 82.71023622044997,257.86866141726 82.71023622044997,250.30960629906 86.48976377954997,250.30960629906 86.48976377954997,257.86866141726 88.75748031500997,257.86866141726 88.75748031500997,260.89228346454 86.48976377954997,260.89228346454 86.48976377954997,267.0" style="fill:none;stroke:black;stroke:2"/>
<polyline points = "236.31023622045,267.0 236.31023622045,260.89228346454 234.04251968499,260.89228346454 234.04251968499,257.86866141726 236.31023622045,257.86866141726 236.31023622045,250.30960629906 240.08976377955,250.30960629906 240.08976377955,257.86866141726 242.35748031500998,257.86866141726 242.35748031500998,260.89228346454 240.08976377955,260.89228346454 240.08976377955,267.0" style="fill:none;stroke:black;stroke:2"/>
<polyline points="74.99999999999997,267.0 71.15999999999997,267.0 71.15999999999997,247.8 74.99999999999997,247.8 74.99999999999997,228.60000000000002 74.99999999999997,228.6 71.15999999999997,228.6 71.15999999999997,209.4 74.99999999999997,209.4 74.99999999999997,190.20000000000002 74.99999999999997,190.2 71.15999999999997,190.2 71.15999999999997,171.0 74.99999999999997,171.0 74.99999999999997,151.8 74.99999999999997,151.79999999999998 71.15999999999997,151.79999999999998 71.15999999999997,132.6 74.99999999999997,132.6 74.99999999999997,113.4 74.99999999999997,113.39999999999998 71.15999999999997,113.39999999999998 71.15999999999997,94.19999999999999 74.99999999999997,94.19999999999999 74.99999999999997,75.0 " style="fill:none;stroke:black;stroke:2"/>
<circle cx = "74.96976377955" cy = "103.80000000000001" r = "1.88976377955" style="fill:none;stroke:black;stroke:2"/>
<circle cx = "74.96976377955" cy = "257.40000000000003" r = "1.88976377955" style="fill:none;stroke:black;stroke:2"/>
<polyline points="299.68000000000006,75 491.68000000000006,75 " style="fill:none;stroke:black;stroke:2"/>
<polyline points="491.68000000000006,75.0 495.52000000000004,75.0 495.52000000000004,94.2 491.68000000000006,94.2 491.68000000000006,113.4 491.68000000000006,113.4 495.52000000000004,113.4 495.52000000000004,132.60000000000002 491.68000000000006,132.60000000000002 491.68000000000006,151.8 491.68000000000006,151.8 495.52000000000004,151.8 495.52000000000004,171.0 491.68000000000006,171.0 491.68000000000006,190.20000000000002 491.68000000000006,190.20000000000002 495.52000000000004,190.20000000000002 495.52000000000004,209.40000000000003 491.68000000000006,209.40000000000003 491.68000000000006,228.60000000000002 491.68000000000006,228.60000000000002 495.52000000000004,228.60000000000002 495.52000000000004,247.8 491.68000000000006,247.8 491.68000000000006,267.0 " style="fill:none;stroke:black;stroke:2"/>
<line x1 = "491.68000000000006" y1 = "101.91023622045002" x2 = "491.68000000000006" y2 = "105.68976377955002" style="fill:none;stroke:white;stroke:2"/>
<line x1 = "491.68000000000006" y1 = "255.51023622045005" x2 = "491.68000000000006" y2 = "259.28976377955007" style="fill:none;stroke:white;stroke:2"/>
<polyline points = "491.68000000000006,101.91023622045002 485.5722834645401,101.91023622045002 485.5722834645401,99.64251968499002 482.54866141726006,99.64251968499002 482.54866141726006,101.91023622045002 474.9896062990601,101.91023622045002 474.9896062990601,105.68976377955002 482.54866141726006,105.68976377955002 482.54866141726006,107.95748031501002 485.5722834645401,107.95748031501002 485.5722834645401,105.68976377955002 491.68000000000006,105.68976377955002" style="fill:none;stroke:black;stroke:2"/>
<polyline points = "491.68000000000006,255.51023622045005 485.5722834645401,255.51023622045005 485.5722834645401,253.24251968499004 482.54866141726006,253.24251968499004 482.54866141726006,255.51023622045005 474.9896062990601,255.51023622045005 474.9896062990601,259.28976377955007 482.54866141726006,259.28976377955007 482.54866141726006,261.55748031501 485.5722834645401,261.55748031501 485.5722834645401,259.28976377955007 491.68000000000006,259.28976377955007" style="fill:none;stroke:black;stroke:2"/>
<polyline points="491.68000000000006,267.0 491.68000000000006,270.84 472.4800000000001,270.84 472.4800000000001,267.0 453.2800000000001,267.0 453.2800000000001,267.0 453.2800000000001,270.84 434.08000000000004,270.84 434.08000000000004,267.0 414.8800000000001,267.0 414.88000000000005,267.0 414.88000000000005,270.84 395.68000000000006,270.84 395.68000000000006,267.0 376.4800000000001,267.0 376.48,267.0 376.48,270.84 357.2800000000001,270.84 357.2800000000001,267.0 338.08000000000004,267.0 338.08000000000004,267.0 338.08000000000004,270.84 318.88000000000005,270.84 318.88000000000005,267.0 299.68000000000006,267.0 " style="fill:none;stroke:black;stroke:2"/>
<line x1 = "307.3902362204501" y1 = "267.0" x2 = "311.1697637795501" y2 = "267.0" style="fill:none;stroke:white;stroke:2"/>
<line x1 = "460.99023622045013" y1 = "267.0" x2 = "464.76976377955015" y2 = "267.0" style="fill:none;stroke:white;stroke:2"/>
<polyline points = "307.3902362204501,267.0 307.3902362204501,260.89228346454 305.1225196849901,260.89228346454 305.1225196849901,257.86866141726 307.3902362204501,257.86866141726 307.3902362204501,250.30960629906 311.1697637795501,250.30960629906 311.1697637795501,257.86866141726 313.43748031501013,257.86866141726 313.43748031501013,260.89228346454 311.1697637795501,260.89228346454 311.1697637795501,267.0" style="fill:none;stroke:black;stroke:2"/>
<polyline points = "460.99023622045013,267.0 460.99023622045013,260.89228346454 458.7225196849901,260.89228346454 458.7225196849901,257.86866141726 460.99023622045013,257.86866141726 460.99023622045013,250.30960629906 464.76976377955015,250.30960629906 464.76976377955015,257.86866141726 467.03748031501016,257.86866141726 467.03748031501016,260.89228346454 464.76976377955015,260.89228346454 464.76976377955015,267.0" style="fill:none;stroke:black;stroke:2"/>
<polyline points="299.68000000000006,267.0 295.8400000000001,267.0 295.8400000000001,247.8 299.68000000000006,247.8 299.68000000000006,228.60000000000002 299.68000000000006,228.6 295.8400000000001,228.6 295.8400000000001,209.4 299.68000000000006,209.4 299.68000000000006,190.20000000000002 299.68000000000006,190.2 295.8400000000001,190.2 295.8400000000001,171.0 299.68000000000006,171.0 299.68000000000006,151.8 299.68000000000006,151.79999999999998 295.8400000000001,151.79999999999998 295.8400000000001,132.6 299.68000000000006,132.6 299.68000000000006,113.4 299.68000000000006,113.39999999999998 295.8400000000001,113.39999999999998 295.8400000000001,94.19999999999999 299.68000000000006,94.19999999999999 299.68000000000006,75.0 " style="fill:none;stroke:black;stroke:2"/>
<circle cx = "299.64976377955" cy = "103.80000000000001" r = "1.88976377955" style="fill:none;stroke:black;stroke:2"/>
<circle cx = "299.64976377955" cy = "257.40000000000003" r = "1.88976377955" style="fill:none;stroke:black;stroke:2"/>
<polyline points="524.3600000000001,75 716.3600000000001,75 " style="fill:none;stroke:black;stroke:2"/>
<polyline points="716.3600000000001,75.0 720.2000000000002,75.0 720.2000000000002,94.2 716.3600000000001,94.2 716.3600000000001,113.4 716.3600000000001,113.4 720.2000000000002,113.4 720.2000000000002,132.60000000000002 716.3600000000001,132.60000000000002 716.3600000000001,151.8 716.3600000000001,151.8 720.2000000000002,151.8 720.2000000000002,171.0 716.3600000000001,171.0 716.3600000000001,190.20000000000002 716.3600000000001,190.20000000000002 720.2000000000002,190.20000000000002 720.2000000000002,209.40000000000003 716.3600000000001,209.40000000000003 716.3600000000001,228.60000000000002 716.3600000000001,228.60000000000002 720.2000000000002,228.60000000000002 720.2000000000002,247.8 716.3600000000001,247.8 716.3600000000001,267.0 " style="fill:none;stroke:black;stroke:2"/>
<line x1 = "716.3600000000001" y1 = "101.91023622045002" x2 = "716.3600000000001" y2 = "105.68976377955002" style="fill:none;stroke:white;stroke:2"/>
<line x1 = "716.3600000000001" y1 = "255.51023622045005" x2 = "716.3600000000001" y2 = "259.28976377955007" style="fill:none;stroke:white;stroke:2"/>
<polyline points = "716.3600000000001,101.91023622045002 710.2522834645401,101.91023622045002 710.2522834645401,99.64251968499002 707.2286614172601,99.64251968499002 707.2286614172601,101.91023622045002 699.6696062990601,101.91023622045002 699.6696062990601,105.68976377955002 707.2286614172601,105.68976377955002 707.2286614172601,107.95748031501002 710.2522834645401,107.95748031501002 710.2522834645401,105.68976377955002 716.3600000000001,105.68976377955002" style="fill:none;stroke:black;stroke:2"/>
<polyline points = "716.3600000000001,255.51023622045005 710.2522834645401,255.51023622045005 710.2522834645401,253.24251968499004 707.2286614172601,253.24251968499004 707.2286614172601,255.51023622045005 699.6696062990601,255.51023622045005 699.6696062990601,259.28976377955007 707.2286614172601,259.28976377955007 707.2286614172601,261.55748031501 710.2522834645401,261.55748031501 710.2522834645401,259.28976377955007 716.3600000000001,259.28976377955007" style="fill:none;stroke:black;stroke:2"/>
<polyline points="716.3600000000001,267.0 716.3600000000001,270.84 697.1600000000001,270.84 697.1600000000001,267.0 677.96,267.0 677.9600000000002,267.0 677.9600000000002,270.84 658.7600000000001,270.84 658.7600000000001,267.0 639.5600000000001,267.0 639.5600000000002,267.0 639.5600000000002,270.84 620.3600000000001,270.84 620.3600000000001,267.0 601.1600000000001,267.0 601.1600000000001,267.0 601.1600000000001,270.84 581.96,270.84 581.96,267.0 562.76,267.0 562.7600000000001,267.0 562.7600000000001,270.84 543.5600000000001,270.84 543.5600000000001,267.0 524.36,267.0 " style="fill:none;stroke:black;stroke:2"/>
<polyline points="524.3600000000001,267.0 520.5200000000001,267.0 520.5200000000001,247.8 524.3600000000001,247.8 524.3600000000001,228.60000000000002 524.3600000000001,228.6 520.5200000000001,228.6 520.5200000000001,209.4 524.3600000000001,209.4 524.3600000000001,190.20000000000002 524.3600000000001,190.2 520.5200000000001,190.2 520.5200000000001,171.0 524.3600000000001,171.0 524.3600000000001,151.8 524.3600000000001,151.79999999999998 520.5200000000001,151.79999999999998 520.5200000000001,132.6 524.3600000000001,132.6 524.3600000000001,113.4 524.3600000000001,113.39999999999998 520.5200000000001,113.39999999999998 520.5200000000001,94.19999999999999 524.3600000000001,94.19999999999999 524.3600000000001,75.0 " style="fill:none;stroke:black;stroke:2"/>
<circle cx = "524.3297637795501" cy = "103.80000000000001" r = "1.88976377955" style="fill:none;stroke:black;stroke:2"/>
<circle cx = "524.3297637795501" cy = "257.40000000000003" r = "1.88976377955" style="fill:none;stroke:black;stroke:2"/>
<polyline points="749.0400000000002,75 941.0400000000002,75 " style="fill:none;stroke:black;stroke:2"/>
<polyline points="941.0400000000002,75.0 944.8800000000002,75.0 944.8800000000002,94.2 941.0400000000002,94.2 941.0400000000002,113.4 941.0400000000002,113.4 944.8800000000002,113.4 944.8800000000002,132.60000000000002 941.0400000000002,132.60000000000002 941.0400000000002,151.8 941.0400000000002,151.8 944.8800000000002,151.8 944.8800000000002,171.0 941.0400000000002,171.0 941.0400000000002,190.20000000000002 941.0400000000002,190.20000000000002 944.8800000000002,190.20000000000002 944.8800000000002,209.40000000000003 941.0400000000002,209.40000000000003 941.0400000000002,228.60000000000002 941.0400000000002,228.60000000000002 944.8800000000002,228.60000000000002 944.8800000000002,247.8 941.0400000000002,247.8 941.0400000000002,267.0 " style="fill:none;stroke:black;stroke:2"/>
<line x1 = "941.0400000000002" y1 = "101.91023622045002" x2 = "941.0400000000002" y2 = "105.68976377955002" style="fill:none;stroke:white;stroke:2"/>
<line x1 = "941.0400000000002" y1 = "255.51023622045005" x2 = "941.0400000000002" y2 = "259.28976377955007" style="fill:none;stroke:white;stroke:2"/>
<polyline points = "941.0400000000002,101.91023622045002 934.9322834645402,101.91023622045002 934.9322834645402,99.64251968499002 931.9086614172602,99.64251968499002 931.9086614172602,101.91023622045002 924.3496062990602,101.91023622045002 924.3496062990602,105.68976377955002 931.9086614172602,105.68976377955002 931.9086614172602,107.95748031501002 934.9322834645402,107.95748031501002 934.9322834645402,105.68976377955002 941.0400000000002,105.68976377955002" style="fill:none;stroke:black;stroke:2"/>
<polyline points = "941.0400000000002,255.51023622045005 934.9322834645402,255.51023622045005 934.9322834645402,253.24251968499004 931.9086614172602,253.24251968499004 931.9086614172602,255.51023622045005 924.3496062990602,255.51023622045005 924.3496062990602,259.28976377955007 931.9086614172602,259.28976377955007 931.9086614172602,261.55748031501 934.9322834645402,261.55748031501 934.9322834645402,259.28976377955007 941.0400000000002,259.28976377955007" style="fill:none;stroke:black;stroke:2"/>
<polyline points="941.0400000000002,267.0 941.0400000000002,270.84 921.8400000000001,270.84 921.8400000000001,267.0 902.6400000000001,267.0 902.6400000000002,267.0 902.6400000000002,270.84 883.4400000000002,270.84 883.4400000000002,267.0 864.2400000000001,267.0 864.2400000000002,267.0 864.2400000000002,270.84 845.0400000000002,270.84 845.0400000000002,267.0 825.8400000000001,267.0 825.8400000000001,267.0 825.8400000000001,270.84 806.6400000000001,270.84 806.6400000000001,267.0 787.44,267.0 787.4400000000002,267.0 787.4400000000002,270.84 768.2400000000001,270.84 768.2400000000001,267.0 749.0400000000001,267.0 " style="fill:none;stroke:black;stroke:2"/>
<polyline points="749.0400000000002,267.0 745.2000000000002,267.0 745.2000000000002,247.8 749.0400000000002,247.8 749.0400000000002,228.60000000000002 749.0400000000002,228.6 745.2000000000002,228.6 745.2000000000002,209.4 749.0400000000002,209.4 749.0400000000002,190.20000000000002 749.0400000000002,190.2 745.2000000000002,190.2 745.2000000000002,171.0 749.0400000000002,171.0 749.0400000000002,151.8 749.0400000000002,151.79999999999998 745.2000000000002,151.79999999999998 745.2000000000002,132.6 749.0400000000002,132.6 749.0400000000002,113.4 749.0400000000002,113.39999999999998 745.2000000000002,113.39999999999998 745.2000000000002,94.19999999999999 749.0400000000002,94.19999999999999 749.0400000000002,75.0 " style="fill:none;stroke:black;stroke:2"/>
<circle cx = "749.0097637795502" cy = "103.80000000000001" r = "1.88976377955" style="fill:none;stroke:black;stroke:2"/>
<circle cx = "749.0097637795502" cy = "257.40000000000003" r = "1.88976377955" style="fill:none;stroke:black;stroke:2"/>
<polyline points="299.68000000000006,299.68000000000006 299.68000000000006,295.8400000000001 318.88000000000005,295.8400000000001 318.88000000000005,299.68000000000006 338.08000000000004,299.68000000000006 338.08000000000004,299.68000000000006 338.08000000000004,295.8400000000001 357.2800000000001,295.8400000000001 357.2800000000001,299.68000000000006 376.48,299.68000000000006 376.4800000000001,299.68000000000006 376.4800000000001,295.8400000000001 395.68000000000006,295.8400000000001 395.68000000000006,299.68000000000006 414.88000000000005,299.68000000000006 414.8800000000001,299.68000000000006 414.8800000000001,295.8400000000001 434.08000000000004,295.8400000000001 434.08000000000004,299.68000000000006 453.2800000000001,299.68000000000006 453.2800000000001,299.68000000000006 453.2800000000001,295.8400000000001 472.4800000000001,295.8400000000001 472.4800000000001,299.68000000000006 491.68000000000006,299.68000000000006 " style="fill:none;stroke:black;stroke:2"/>
<circle cx = "309.2800000000001" cy = "299.64976377955" r = "1.88976377955" style="fill:none;stroke:black;stroke:1"/>
<circle cx = "462.8800000000001" cy = "299.64976377955" r = "1.88976377955" style="fill:none;stroke:black;stroke:1"/>
<polyline points="491.68000000000006,299.68000000000006 495.52000000000004,299.68000000000006 495.52000000000004,318.88000000000005 491.68000000000006,318.88000000000005 491.68000000000006,338.08000000000004 491.68000000000006,338.08000000000004 495.52000000000004,338.08000000000004 495.52000000000004,357.2800000000001 491.68000000000006,357.2800000000001 491.68000000000006,376.48 491.68000000000006,376.4800000000001 495.52000000000004,376.4800000000001 495.52000000000004,395.68000000000006 491.68000000000006,395.68000000000006 491.68000000000006,414.88000000000005 491.68000000000006,414.8800000000001 495.52000000000004,414.8800000000001 495.52000000000004,434.08000000000004 491.68000000000006,434.08000000000004 491.68000000000006,453.2800000000001 491.68000000000006,453.2800000000001 495.52000000000004,453.2800000000001 495.52000000000004,472.4800000000001 491.68000000000006,472.4800000000001 491.68000000000006,491.68000000000006 " style="fill:none;stroke:black;stroke:2"/>
<polyline points="491.68000000000006,491.68000000000006 491.68000000000006,495.52000000000004 472.4800000000001,495.52000000000004 472.4800000000001,491.68000000000006 453.2800000000001,491.68000000000006 453.2800000000001,491.68000000000006 453.2800000000001,495.52000000000004 434.08000000000004,495.52000000000004 434.08000000000004,491.68000000000006 414.8800000000001,491.68000000000006 414.88000000000005,491.68000000000006 414.88000000000005,495.52000000000004 395.68000000000006,495.52000000000004 395.68000000000006,491.68000000000006 376.4800000000001,491.68000000000006 376.48,491.68000000000006 376.48,495.52000000000004 357.2800000000001,495.52000000000004 357.2800000000001,491.68000000000006 338.08000000000004,491.68000000000006 338.08000000000004,491.68000000000006 338.08000000000004,495.52000000000004 318.88000000000005,495.52000000000004 318.88000000000005,491.68000000000006 299.68000000000006,491.68000000000006 " style="fill:none;stroke:black;stroke:2"/>
<circle cx = "328.4800000000001" cy = "491.7102362204501" r = "1.88976377955" style="fill:none;stroke:black;stroke:1"/>
<circle cx = "482.0800000000001" cy = "491.7102362204501" r = "1.88976377955" style="fill:none;stroke:black;stroke:1"/>
<polyline points="299.68000000000006,491.68000000000006 295.8400000000001,491.68000000000006 295.8400000000001,472.4800000000001 299.68000000000006,472.4800000000001 299.68000000000006,453.2800000000001 299.68000000000006,453.2800000000001 295.8400000000001,453.2800000000001 295.8400000000001,434.08000000000004 299.68000000000006,434.08000000000004 299.68000000000006,414.8800000000001 299.68000000000006,414.88000000000005 295.8400000000001,414.88000000000005 295.8400000000001,395.68000000000006 299.68000000000006,395.68000000000006 299.68000000000006,376.4800000000001 299.68000000000006,376.48 295.8400000000001,376.48 295.8400000000001,357.2800000000001 299.68000000000006,357.2800000000001 299.68000000000006,338.08000000000004 299.68000000000006,338.08000000000004 295.8400000000001,338.08000000000004 295.8400000000001,318.88000000000005 299.68000000000006,318.88000000000005 299.68000000000006,299.68000000000006 " style="fill:none;stroke:black;stroke:2"/>
<text x = "75" y = "36904.00000000001" dy = "0">
<tspan x = "20" dy = ".6em" >BOX ATTRIBUTES </tspan>
<tspan x = "20" dy = "1.2em" >thickness: </tspan>
<tspan x = "20" dy = "1.2em" >width: </tspan>
<tspan x = "20" dy = "1.2em" >length:  </tspan>
<tspan x = "20" dy = "1.2em" >height: </tspan>
<tspan x = "20" dy = "1.2em" >partition:  </tspan>
<tspan x = "20" dy = "1.2em" >partition location: </tspan>
<tspan x = "20" dy = "1.2em" >lid: </tspan>
<tspan x = "20" dy = "1.2em" >top text: </tspan>
<tspan x = "20" dy = "1.2em" >top text string: </tspan>
<tspan x = "20" dy = "1.2em" >front text: </tspan>
<tspan x = "20" dy = "1.2em" >front text string: </tspan>
<tspan x = "20" dy = "1.2em" >fractal: </tspan>
</text><text x = "200" y = "800" dy = "0">
<tspan x = "200" dy = ".6em" >BOX ATTRIBUTES </tspan>
<tspan x = "200" dy = "1.2em" >0.1</tspan>
<tspan x = "200" dy = "1.2em" >5.0</tspan>
<tspan x = "200" dy = "1.2em" >5.0</tspan>
<tspan x = "200" dy = "1.2em" >5.0</tspan>
<tspan x = "200" dy = "1.2em" >False</tspan>
<tspan x = "200" dy = "1.2em" >0</tspan>
<tspan x = "200" dy = "1.2em" >False</tspan>
<tspan x = "200" dy = "1.2em" >False</tspan>
<tspan x = "200" dy = "1.2em" ></tspan>
<tspan x = "200" dy = "1.2em" >False</tspan>
<tspan x = "200" dy = "1.2em" ></tspan>
<tspan x = "200" dy = "1.2em" >False</tspan>
</text></svg>