<?xml version = "1.0" encoding = "UTF-8" ?> 
<svg xmlns="http://www.w3.org/2000/svg" version = "1.1"> 
<line x1="25" y1="20" x2="63.400000000000006" y2 ="20"         style="stroke:red;stroke:4"/>
<text x = "73.4" y = "25"         font-size = "12px" fill = "red"> = 1 inch (2:5 scale) </text> 
<polyline points="25,30 63.400000000000006,30 " style="fill:none;stroke:black;stroke:2"/>
<polyline points="63.400000000000006,30.0 67.9312,30.0 67.9312,49.2                 63.400000000000006,49.2 63.400000000000006,68.4 " style="fill:none;stroke:black;stroke:2"/>
<line x1 = "63.400000000000006" y1 = "56.91023622045" x2 = "63.400000000000006" y2 = "60.689763779550006"                 style="fill:none;stroke:white;stroke:2"/>
<line x1 = "63.400000000000006" y1 = "56.91023622045" x2 = "63.400000000000006" y2 = "60.689763779550006"                 style="fill:none;stroke:white;stroke:2"/>
<polyline points = "63.400000000000006,56.91023622045 60.380611023640014,56.91023622045 60.380611023640014,55.0204724409 58.11289448818002,55.0204724409 58.11289448818002,56.91023622045 53.57746141726002,56.91023622045                 53.57746141726002,60.689763779550006 58.11289448818002,60.689763779550006 58.11289448818002,62.57952755910001 60.380611023640014,62.57952755910001 60.380611023640014,60.689763779550006 63.400000000000006,60.689763779550006"                 style="fill:none;stroke:black;stroke:2"/>
<polyline points = "63.400000000000006,56.91023622045 60.380611023640014,56.91023622045                 60.380611023640014,55.0204724409 58.11289448818002,55.0204724409 58.11289448818002,56.91023622045                 53.57746141726002,56.91023622045 53.57746141726002,60.689763779550006 58.11289448818002,60.689763779550006                 58.11289448818002,62.57952755910001 60.380611023640014,62.57952755910001 60.380611023640014,60.689763779550006 63.400000000000006,60.689763779550006"                 style="fill:none;stroke:black;stroke:2"/>
<polyline points="63.400000000000006,68.4 63.400000000000006,72.9312 44.2,72.9312                     44.2,68.4 25.0,68.4 " style="fill:none;stroke:black;stroke:2"/>
<line x1 = "32.71023622045" y1 = "68.4" x2 = "36.48976377955" y2 = "68.4"                 style="fill:none;stroke:white;stroke:2"/>
<line x1 = "32.71023622045" y1 = "68.4" x2 = "36.48976377955" y2 = "68.4"                 style="fill:none;stroke:white;stroke:2"/>
<polyline points = "32.71023622045,68.4 32.71023622045,65.38061102364001 30.820472440899998,65.38061102364001 30.820472440899998,63.11289448818002 32.71023622045,63.11289448818002 32.71023622045,58.57746141726002                 36.48976377955,58.57746141726002 36.48976377955,63.11289448818002 38.379527559100005,63.11289448818002 38.379527559100005,65.38061102364001 36.48976377955,65.38061102364001 36.48976377955,68.4"                 style="fill:none;stroke:black;stroke:2"/>
<polyline points = "32.71023622045,68.4 32.71023622045,65.38061102364001                 30.820472440899998,65.38061102364001 30.820472440899998,63.11289448818002 32.71023622045,63.11289448818002                 32.71023622045,58.57746141726002 36.48976377955,58.57746141726002 36.48976377955,63.11289448818002                 38.379527559100005,63.11289448818002 38.379527559100005,65.38061102364001 36.48976377955,65.38061102364001                 36.48976377955,68.4"                 style="fill:none;stroke:black;stroke:2"/>
<polyline points="25.0,68.4 20.4688,68.4 20.4688,49.2                     25.0,49.2 25.0,30.0 " style="fill:none;stroke:black;stroke:2"/>
<circle cx = "24.624163779550003" cy = "58.800000000000004" r = "1.88976377955"                 style="fill:none;stroke:black;stroke:2"/>
<circle cx = "24.624163779550003" cy = "58.800000000000004" r = "1.88976377955"                 style="fill:none;stroke:black;stroke:2"/>
<polyline points="77.4624,30 115.86240000000001,30 " style="fill:none;stroke:black;stroke:2"/>
<polyline points="115.86240000000001,30.0 120.3936,30.0 120.3936,49.2                 115.86240000000001,49.2 115.86240000000001,68.4 " style="fill:none;stroke:black;stroke:2"/>
<line x1 = "115.86240000000001" y1 = "56.91023622045" x2 = "115.86240000000001" y2 = "60.689763779550006"                 style="fill:none;stroke:white;stroke:2"/>
<line x1 = "115.86240000000001" y1 = "56.91023622045" x2 = "115.86240000000001" y2 = "60.689763779550006"                 style="fill:none;stroke:white;stroke:2"/>
<polyline points = "115.86240000000001,56.91023622045 112.84301102364002,56.91023622045 112.84301102364002,55.0204724409 110.57529448818002,55.0204724409 110.57529448818002,56.91023622045 106.03986141726003,56.91023622045                 106.03986141726003,60.689763779550006 110.57529448818002,60.689763779550006 110.57529448818002,62.57952755910001 112.84301102364002,62.57952755910001 112.84301102364002,60.689763779550006 115.86240000000001,60.689763779550006"                 style="fill:none;stroke:black;stroke:2"/>
<polyline points = "115.86240000000001,56.91023622045 112.84301102364002,56.91023622045                 112.84301102364002,55.0204724409 110.57529448818002,55.0204724409 110.57529448818002,56.91023622045                 106.03986141726003,56.91023622045 106.03986141726003,60.689763779550006 110.57529448818002,60.689763779550006                 110.57529448818002,62.57952755910001 112.84301102364002,62.57952755910001 112.84301102364002,60.689763779550006 115.86240000000001,60.689763779550006"                 style="fill:none;stroke:black;stroke:2"/>
<polyline points="115.86240000000001,68.4 115.86240000000001,72.9312 96.6624,72.9312                     96.6624,68.4 77.4624,68.4 " style="fill:none;stroke:black;stroke:2"/>
<line x1 = "85.17263622045" y1 = "68.4" x2 = "88.95216377955" y2 = "68.4"                 style="fill:none;stroke:white;stroke:2"/>
<line x1 = "85.17263622045" y1 = "68.4" x2 = "88.95216377955" y2 = "68.4"                 style="fill:none;stroke:white;stroke:2"/>
<polyline points = "85.17263622045,68.4 85.17263622045,65.38061102364001 83.28287244090001,65.38061102364001 83.28287244090001,63.11289448818002 85.17263622045,63.11289448818002 85.17263622045,58.57746141726002                 88.95216377955,58.57746141726002 88.95216377955,63.11289448818002 90.8419275591,63.11289448818002 90.8419275591,65.38061102364001 88.95216377955,65.38061102364001 88.95216377955,68.4"                 style="fill:none;stroke:black;stroke:2"/>
<polyline points = "85.17263622045,68.4 85.17263622045,65.38061102364001                 83.28287244090001,65.38061102364001 83.28287244090001,63.11289448818002 85.17263622045,63.11289448818002                 85.17263622045,58.57746141726002 88.95216377955,58.57746141726002 88.95216377955,63.11289448818002                 90.8419275591,63.11289448818002 90.8419275591,65.38061102364001 88.95216377955,65.38061102364001                 88.95216377955,68.4"                 style="fill:none;stroke:black;stroke:2"/>
<polyline points="77.4624,68.4 72.9312,68.4 72.9312,49.2                     77.4624,49.2 77.4624,30.0 " style="fill:none;stroke:black;stroke:2"/>
<circle cx = "77.08656377954999" cy = "58.800000000000004" r = "1.88976377955"                 style="fill:none;stroke:black;stroke:2"/>
<circle cx = "77.08656377954999" cy = "58.800000000000004" r = "1.88976377955"                 style="fill:none;stroke:black;stroke:2"/>
<polyline points="129.9248,30 168.3248,30 " style="fill:none;stroke:black;stroke:2"/>
<polyline points="168.3248,30.0 172.85600000000002,30.0 172.85600000000002,49.2                 168.3248,49.2 168.3248,68.4 " style="fill:none;stroke:black;stroke:2"/>
<line x1 = "168.3248" y1 = "56.91023622045" x2 = "168.3248" y2 = "60.689763779550006"                 style="fill:none;stroke:white;stroke:2"/>
<line x1 = "168.3248" y1 = "56.91023622045" x2 = "168.3248" y2 = "60.689763779550006"                 style="fill:none;stroke:white;stroke:2"/>
<polyline points = "168.3248,56.91023622045 165.30541102364,56.91023622045 165.30541102364,55.0204724409 163.03769448818,55.0204724409 163.03769448818,56.91023622045 158.50226141726,56.91023622045                 158.50226141726,60.689763779550006 163.03769448818,60.689763779550006 163.03769448818,62.57952755910001 165.30541102364,62.57952755910001 165.30541102364,60.689763779550006 168.3248,60.689763779550006"                 style="fill:none;stroke:black;stroke:2"/>
<polyline points = "168.3248,56.91023622045 165.30541102364,56.91023622045                 165.30541102364,55.0204724409 163.03769448818,55.0204724409 163.03769448818,56.91023622045                 158.50226141726,56.91023622045 158.50226141726,60.689763779550006 163.03769448818,60.689763779550006                 163.03769448818,62.57952755910001 165.30541102364,62.57952755910001 165.30541102364,60.689763779550006 168.3248,60.689763779550006"                 style="fill:none;stroke:black;stroke:2"/>
<polyline points="168.3248,68.4 168.3248,72.9312 149.1248,72.9312                     149.1248,68.4 129.9248,68.4 " style="fill:none;stroke:black;stroke:2"/>
<polyline points="129.9248,68.4 125.3936,68.4 125.3936,49.2                     129.9248,49.2 129.9248,30.0 " style="fill:none;stroke:black;stroke:2"/>
<circle cx = "129.54896377955" cy = "58.800000000000004" r = "1.88976377955"                 style="fill:none;stroke:black;stroke:2"/>
<circle cx = "129.54896377955" cy = "58.800000000000004" r = "1.88976377955"                 style="fill:none;stroke:black;stroke:2"/>
<polyline points="182.3872,30 220.7872,30 " style="fill:none;stroke:black;stroke:2"/>
<polyline points="220.7872,30.0 225.31840000000003,30.0 225.31840000000003,49.2                 220.7872,49.2 220.7872,68.4 " style="fill:none;stroke:black;stroke:2"/>
<line x1 = "220.7872" y1 = "56.91023622045" x2 = "220.7872" y2 = "60.689763779550006"                 style="fill:none;stroke:white;stroke:2"/>
<line x1 = "220.7872" y1 = "56.91023622045" x2 = "220.7872" y2 = "60.689763779550006"                 style="fill:none;stroke:white;stroke:2"/>
<polyline points = "220.7872,56.91023622045 217.76781102364,56.91023622045 217.76781102364,55.0204724409 215.50009448818,55.0204724409 215.50009448818,56.91023622045 210.96466141726,56.91023622045                 210.96466141726,60.689763779550006 215.50009448818,60.689763779550006 215.50009448818,62.57952755910001 217.76781102364,62.57952755910001 217.76781102364,60.689763779550006 220.7872,60.689763779550006"                 style="fill:none;stroke:black;stroke:2"/>
<polyline points = "220.7872,56.91023622045 217.76781102364,56.91023622045                 217.76781102364,55.0204724409 215.50009448818,55.0204724409 215.50009448818,56.91023622045                 210.96466141726,56.91023622045 210.96466141726,60.689763779550006 215.50009448818,60.689763779550006                 215.50009448818,62.57952755910001 217.76781102364,62.57952755910001 217.76781102364,60.689763779550006 220.7872,60.689763779550006"                 style="fill:none;stroke:black;stroke:2"/>
<polyline points="220.7872,68.4 220.7872,72.9312 201.5872,72.9312                     201.5872,68.4 182.3872,68.4 " style="fill:none;stroke:black;stroke:2"/>
<polyline points="182.3872,68.4 177.856,68.4 177.856,49.2                     182.3872,49.2 182.3872,30.0 " style="fill:none;stroke:black;stroke:2"/>
<circle cx = "182.01136377955" cy = "58.800000000000004" r = "1.88976377955"                 style="fill:none;stroke:black;stroke:2"/>
<circle cx = "182.01136377955" cy = "58.800000000000004" r = "1.88976377955"                 style="fill:none;stroke:black;stroke:2"/>
<polyline points="77.4624,82.4624 77.4624,77.9312                   96.6624,77.9312 96.6624,82.4624 115.86240000000001,82.4624 " style="fill:none;stroke:black;stroke:2"/>
<circle cx = "87.0624" cy = "82.08656377954999" r = "1.88976377955"                 style="fill:none;stroke:black;stroke:1"/>
<circle cx = "87.0624" cy = "82.08656377954999" r = "1.88976377955"                 style="fill:none;stroke:black;stroke:1"/>
<polyline points="115.86240000000001,82.4624 120.3936,82.4624 120.3936,101.6624                 115.86240000000001,101.6624 115.86240000000001,120.86240000000001 " style="fill:none;stroke:black;stroke:2"/>
<polyline points="115.86240000000001,120.86240000000001 115.86240000000001,125.3936 96.6624,125.3936                     96.6624,120.86240000000001 77.4624,120.86240000000001 " style="fill:none;stroke:black;stroke:2"/>
<circle cx = "106.26240000000001" cy = "121.23823622045002" r = "1.88976377955"                 style="fill:none;stroke:black;stroke:1"/>
<circle cx = "106.26240000000001" cy = "121.23823622045002" r = "1.88976377955"                 style="fill:none;stroke:black;stroke:1"/>
<polyline points="77.4624,120.86240000000001 72.9312,120.86240000000001 72.9312,101.6624                     77.4624,101.6624 77.4624,82.4624 " style="fill:none;stroke:black;stroke:2"/>
<text x = "44.2"         y = "49.2"         dominant-baseline= "central" text-anchor= "middle"         font-size = "30px" fill = "blue">=) </text> 
<text x = "25" y = "139.9248" dy = "0">
<tspan x = "20" dy = ".6em" >BOX ATTRIBUTES </tspan>
<tspan x = "20" dy = "1.2em" >thickness: </tspan>
<tspan x = "20" dy = "1.2em" >width: </tspan>
<tspan x = "20" dy = "1.2em" >length:  </tspan>
<tspan x = "20" dy = "1.2em" >height: </tspan>
<tspan x = "20" dy = "1.2em" >partition:  </tspan>
<tspan x = "20" dy = "1.2em" >partition location: </tspan>
<tspan x = "20" dy = "1.2em" >lid: </tspan>
<tspan x = "20" dy = "1.2em" >top text: </tspan>
<tspan x = "20" dy = "1.2em" >front text: </tspan>
<tspan x = "20" dy = "1.2em" >fractal: </tspan>
<tspan x = "20" dy = "1.2em" >fractal side/bottom: </tspan>
<tspan x = "20" dy = "1.2em" >front text string: </tspan>
<tspan x = "20" dy = "1.2em" >top text string: </tspan>
</text><text x = "200" y = "139.9248" dy = "0">
<tspan x = "200" dy = ".6em" > VALUES </tspan>
<tspan x = "200" dy = "1.2em" >0.118</tspan>
<tspan x = "200" dy = "1.2em" >1</tspan>
<tspan x = "200" dy = "1.2em" >1</tspan>
<tspan x = "200" dy = "1.2em" >1</tspan>
<tspan x = "200" dy = "1.2em" >False</tspan>
<tspan x = "200" dy = "1.2em" >0</tspan>
<tspan x = "200" dy = "1.2em" >False</tspan>
<tspan x = "200" dy = "1.2em" >False</tspan>
<tspan x = "200" dy = "1.2em" >True</tspan>
<tspan x = "200" dy = "1.2em" >False</tspan>
<tspan x = "200" dy = "1.2em" ></tspan>
<tspan x = "200" dy = "1.2em" >=)</tspan>
<tspan x = "200" dy = "1.2em" ></tspan>
</text></svg>