<?xml version = "1.0" encoding = "UTF-8" ?> 
<svg xmlns="http://www.w3.org/2000/svg" version = "1.1"> 
<line x1="75" y1="40" x2="113.4" y2 ="40" style="stroke:red;stroke:4"/>
<text x = "123.4" y = "45" font-size = "12px" fill = "red"> = 1 inch (2:5 scale) </text> 
<polyline points="75,75 190.20000000000002,75 " style="fill:none;stroke:black;stroke:2"/>
<polyline points="190.20000000000002,75.0 195.00000000000003,75.0 195.00000000000003,94.2 190.20000000000002,94.2 190.20000000000002,113.4 190.20000000000002,113.4 195.00000000000003,113.4 195.00000000000003,132.60000000000002 190.20000000000002,132.60000000000002 190.20000000000002,151.8 190.20000000000002,151.8 195.00000000000003,151.8 195.00000000000003,171.0 190.20000000000002,171.0 190.20000000000002,190.20000000000002 190.20000000000002,190.20000000000002 195.00000000000003,190.20000000000002 195.00000000000003,209.40000000000003 190.20000000000002,209.40000000000003 190.20000000000002,228.60000000000002 190.20000000000002,228.60000000000002 195.00000000000003,228.60000000000002 195.00000000000003,247.8 190.20000000000002,247.8 190.20000000000002,267.0 " style="fill:none;stroke:black;stroke:2"/>
<line x1 = "190.20000000000002" y1 = "101.91023622045002" x2 = "190.20000000000002" y2 = "105.68976377955002" style="fill:none;stroke:white;stroke:2"/>
<line x1 = "190.20000000000002" y1 = "255.51023622045005" x2 = "190.20000000000002" y2 = "259.28976377955007" style="fill:none;stroke:white;stroke:2"/>
<polyline points = "190.20000000000002,101.91023622045002 183.13228346454,101.91023622045002 183.13228346454,99.64251968499002 180.10866141726,99.64251968499002 180.10866141726,101.91023622045002 172.54960629906,101.91023622045002 172.54960629906,105.68976377955002 180.10866141726,105.68976377955002 180.10866141726,107.95748031501002 183.13228346454,107.95748031501002 183.13228346454,105.68976377955002 190.20000000000002,105.68976377955002" style="fill:none;stroke:black;stroke:2"/>
<polyline points = "190.20000000000002,255.51023622045005 183.13228346454,255.51023622045005 183.13228346454,253.24251968499004 180.10866141726,253.24251968499004 180.10866141726,255.51023622045005 172.54960629906,255.51023622045005 172.54960629906,259.28976377955007 180.10866141726,259.28976377955007 180.10866141726,261.55748031501 183.13228346454,261.55748031501 183.13228346454,259.28976377955007 190.20000000000002,259.28976377955007" style="fill:none;stroke:black;stroke:2"/>
<polyline points="190.20000000000002,267.0 190.20000000000002,271.8 171.0,271.8 171.0,267.0 151.8,267.0 151.8,267.0 151.8,271.8 132.6,271.8 132.6,267.0 113.4,267.0 113.4,267.0 113.4,271.8 94.19999999999999,271.8 94.19999999999999,267.0 75.0,267.0 " style="fill:none;stroke:black;stroke:2"/>
<line x1 = "82.71023622045" y1 = "267.0" x2 = "86.48976377955" y2 = "267.0" style="fill:none;stroke:white;stroke:2"/>
<line x1 = "159.51023622045" y1 = "267.0" x2 = "163.28976377955001" y2 = "267.0" style="fill:none;stroke:white;stroke:2"/>
<polyline points = "82.71023622045,267.0 82.71023622045,259.93228346454 80.44251968499,259.93228346454 80.44251968499,256.90866141725996 82.71023622045,256.90866141725996 82.71023622045,249.34960629905996 86.48976377955,249.34960629905996 86.48976377955,256.90866141725996 88.75748031501,256.90866141725996 88.75748031501,259.93228346454 86.48976377955,259.93228346454 86.48976377955,267.0" style="fill:none;stroke:black;stroke:2"/>
<polyline points = "159.51023622045,267.0 159.51023622045,259.93228346454 157.24251968499001,259.93228346454 157.24251968499001,256.90866141725996 159.51023622045,256.90866141725996 159.51023622045,249.34960629905996 163.28976377955001,249.34960629905996 163.28976377955001,256.90866141725996 165.55748031501003,256.90866141725996 165.55748031501003,259.93228346454 163.28976377955001,259.93228346454 163.28976377955001,267.0" style="fill:none;stroke:black;stroke:2"/>
<polyline points="75.0,267.0 70.2,267.0 70.2,247.8 75.0,247.8 75.0,228.60000000000002 75.0,228.6 70.2,228.6 70.2,209.4 75.0,209.4 75.0,190.20000000000002 75.0,190.2 70.2,190.2 70.2,171.0 75.0,171.0 75.0,151.8 75.0,151.79999999999998 70.2,151.79999999999998 70.2,132.6 75.0,132.6 75.0,113.4 75.0,113.39999999999998 70.2,113.39999999999998 70.2,94.19999999999999 75.0,94.19999999999999 75.0,75.0 " style="fill:none;stroke:black;stroke:2"/>
<circle cx = "74.48976377954999" cy = "103.80000000000001" r = "1.88976377955" style="fill:none;stroke:black;stroke:2"/>
<circle cx = "74.48976377954999" cy = "257.40000000000003" r = "1.88976377955" style="fill:none;stroke:black;stroke:2"/>
<polyline points="220.0,75 261.6,75 261.6,70.2 303.20000000000005,70.2 303.20000000000005,75 344.8,75" style="fill:none;stroke:black;stroke:2"/>
<line x1 = "242.11023622045" y1 = "75" x2 = "245.88976377954998" y2 = "75" style="fill:none;stroke:white;stroke:2"/>
<line x1 = "318.91023622045" y1 = "75" x2 = "322.68976377955" y2 = "75" style="fill:none;stroke:white;stroke:2"/>
<polyline points = "242.11023622045,75 242.11023622045,82.06771653546 239.84251968498998,82.06771653546 239.84251968498998,85.09133858274 242.11023622045,85.09133858274 242.11023622045,92.65039370093999 245.88976377954998,92.65039370093999 245.88976377954998,85.09133858274 248.15748031501,85.09133858274 248.15748031501,82.06771653546 245.88976377954998,82.06771653546 245.88976377954998,75" style="fill:none;stroke:black;stroke:2"/>
<polyline points = "318.91023622045,75 318.91023622045,82.06771653546 316.64251968499,82.06771653546 316.64251968499,85.09133858274 318.91023622045,85.09133858274 318.91023622045,92.65039370093999 322.68976377955,92.65039370093999 322.68976377955,85.09133858274 324.95748031501,85.09133858274 324.95748031501,82.06771653546 322.68976377955,82.06771653546 322.68976377955,75" style="fill:none;stroke:black;stroke:2"/>
<line x1 = "220.0" y1 = "75" x2 = "224.8" y2 = "75" style="fill:none;stroke:white;stroke:2"/>
<polyline points="340.0,75.0 344.8,75.0 344.8,94.2 340.0,94.2 340.0,113.4 340.0,113.4 344.8,113.4 344.8,132.60000000000002 340.0,132.60000000000002 340.0,151.8 340.0,151.8 344.8,151.8 344.8,171.0 340.0,171.0 340.0,190.20000000000002 340.0,190.20000000000002 344.8,190.20000000000002 344.8,209.40000000000003 340.0,209.40000000000003 340.0,228.60000000000002 340.0,228.60000000000002 344.8,228.60000000000002 344.8,247.8 340.0,247.8 340.0,267.0 " style="fill:none;stroke:black;stroke:2"/>
<line x1 = "340.0" y1 = "101.91023622045002" x2 = "340.0" y2 = "105.68976377955002" style="fill:none;stroke:white;stroke:2"/>
<line x1 = "340.0" y1 = "255.51023622045005" x2 = "340.0" y2 = "259.28976377955007" style="fill:none;stroke:white;stroke:2"/>
<polyline points = "340.0,101.91023622045002 332.93228346454,101.91023622045002 332.93228346454,99.64251968499002 329.90866141725996,99.64251968499002 329.90866141725996,101.91023622045002 322.34960629906,101.91023622045002 322.34960629906,105.68976377955002 329.90866141725996,105.68976377955002 329.90866141725996,107.95748031501002 332.93228346454,107.95748031501002 332.93228346454,105.68976377955002 340.0,105.68976377955002" style="fill:none;stroke:black;stroke:2"/>
<polyline points = "340.0,255.51023622045005 332.93228346454,255.51023622045005 332.93228346454,253.24251968499004 329.90866141725996,253.24251968499004 329.90866141725996,255.51023622045005 322.34960629906,255.51023622045005 322.34960629906,259.28976377955007 329.90866141725996,259.28976377955007 329.90866141725996,261.55748031501 332.93228346454,261.55748031501 332.93228346454,259.28976377955007 340.0,259.28976377955007" style="fill:none;stroke:black;stroke:2"/>
<polyline points="340.0,267.0 340.0,271.8 320.8,271.8 320.8,267.0 301.6,267.0 301.6,267.0 301.6,271.8 282.4,271.8 282.4,267.0 263.20000000000005,267.0 263.2,267.0 263.2,271.8 244.0,271.8 244.0,267.0 224.8,267.0 " style="fill:none;stroke:black;stroke:2"/>
<line x1 = "232.51023622044997" y1 = "267.0" x2 = "236.28976377954996" y2 = "267.0" style="fill:none;stroke:white;stroke:2"/>
<line x1 = "309.31023622044995" y1 = "267.0" x2 = "313.08976377954997" y2 = "267.0" style="fill:none;stroke:white;stroke:2"/>
<polyline points = "232.51023622044997,267.0 232.51023622044997,259.93228346454 230.24251968498996,259.93228346454 230.24251968498996,256.90866141725996 232.51023622044997,256.90866141725996 232.51023622044997,249.34960629905996 236.28976377954996,249.34960629905996 236.28976377954996,256.90866141725996 238.55748031500997,256.90866141725996 238.55748031500997,259.93228346454 236.28976377954996,259.93228346454 236.28976377954996,267.0" style="fill:none;stroke:black;stroke:2"/>
<polyline points = "309.31023622044995,267.0 309.31023622044995,259.93228346454 307.04251968499,259.93228346454 307.04251968499,256.90866141725996 309.31023622044995,256.90866141725996 309.31023622044995,249.34960629905996 313.08976377954997,249.34960629905996 313.08976377954997,256.90866141725996 315.35748031501,256.90866141725996 315.35748031501,259.93228346454 313.08976377954997,259.93228346454 313.08976377954997,267.0" style="fill:none;stroke:black;stroke:2"/>
<polyline points="224.79999999999998,267.0 219.99999999999997,267.0 219.99999999999997,247.8 224.79999999999998,247.8 224.79999999999998,228.60000000000002 224.79999999999998,228.6 219.99999999999997,228.6 219.99999999999997,209.4 224.79999999999998,209.4 224.79999999999998,190.20000000000002 224.79999999999998,190.2 219.99999999999997,190.2 219.99999999999997,171.0 224.79999999999998,171.0 224.79999999999998,151.8 224.79999999999998,151.79999999999998 219.99999999999997,151.79999999999998 219.99999999999997,132.6 224.79999999999998,132.6 224.79999999999998,113.4 224.79999999999998,113.39999999999998 219.99999999999997,113.39999999999998 219.99999999999997,94.19999999999999 224.79999999999998,94.19999999999999 224.79999999999998,75.0 " style="fill:none;stroke:black;stroke:2"/>
<circle cx = "224.28976377955001" cy = "103.80000000000001" r = "1.88976377955" style="fill:none;stroke:black;stroke:2"/>
<circle cx = "224.28976377955001" cy = "257.40000000000003" r = "1.88976377955" style="fill:none;stroke:black;stroke:2"/>
<polyline points="374.6,75 605.0,75 " style="fill:none;stroke:black;stroke:2"/>
<polyline points="605.0,75.0 609.8,75.0 609.8,94.2 605.0,94.2 605.0,113.4 605.0,113.4 609.8,113.4 609.8,132.60000000000002 605.0,132.60000000000002 605.0,151.8 605.0,151.8 609.8,151.8 609.8,171.0 605.0,171.0 605.0,190.20000000000002 605.0,190.20000000000002 609.8,190.20000000000002 609.8,209.40000000000003 605.0,209.40000000000003 605.0,228.60000000000002 605.0,228.60000000000002 609.8,228.60000000000002 609.8,247.8 605.0,247.8 605.0,267.0 " style="fill:none;stroke:black;stroke:2"/>
<line x1 = "605.0" y1 = "101.91023622045002" x2 = "605.0" y2 = "105.68976377955002" style="fill:none;stroke:white;stroke:2"/>
<line x1 = "605.0" y1 = "255.51023622045005" x2 = "605.0" y2 = "259.28976377955007" style="fill:none;stroke:white;stroke:2"/>
<polyline points = "605.0,101.91023622045002 597.9322834645401,101.91023622045002 597.9322834645401,99.64251968499002 594.9086614172601,99.64251968499002 594.9086614172601,101.91023622045002 587.34960629906,101.91023622045002 587.34960629906,105.68976377955002 594.9086614172601,105.68976377955002 594.9086614172601,107.95748031501002 597.9322834645401,107.95748031501002 597.9322834645401,105.68976377955002 605.0,105.68976377955002" style="fill:none;stroke:black;stroke:2"/>
<polyline points = "605.0,255.51023622045005 597.9322834645401,255.51023622045005 597.9322834645401,253.24251968499004 594.9086614172601,253.24251968499004 594.9086614172601,255.51023622045005 587.34960629906,255.51023622045005 587.34960629906,259.28976377955007 594.9086614172601,259.28976377955007 594.9086614172601,261.55748031501 597.9322834645401,261.55748031501 597.9322834645401,259.28976377955007 605.0,259.28976377955007" style="fill:none;stroke:black;stroke:2"/>
<polyline points="605.0,267.0 605.0,271.8 585.8,271.8 585.8,267.0 566.5999999999999,267.0 566.6,267.0 566.6,271.8 547.4,271.8 547.4,267.0 528.1999999999999,267.0 528.2,267.0 528.2,271.8 508.99999999999994,271.8 508.99999999999994,267.0 489.7999999999999,267.0 489.79999999999995,267.0 489.79999999999995,271.8 470.5999999999999,271.8 470.5999999999999,267.0 451.39999999999986,267.0 451.4,267.0 451.4,271.8 432.19999999999993,271.8 432.19999999999993,267.0 412.9999999999999,267.0 413.0,267.0 413.0,271.8 393.79999999999995,271.8 393.79999999999995,267.0 374.5999999999999,267.0 " style="fill:none;stroke:black;stroke:2"/>
<polyline points="374.59999999999997,267.0 369.79999999999995,267.0 369.79999999999995,247.8 374.59999999999997,247.8 374.59999999999997,228.60000000000002 374.59999999999997,228.6 369.79999999999995,228.6 369.79999999999995,209.4 374.59999999999997,209.4 374.59999999999997,190.20000000000002 374.59999999999997,190.2 369.79999999999995,190.2 369.79999999999995,171.0 374.59999999999997,171.0 374.59999999999997,151.8 374.59999999999997,151.79999999999998 369.79999999999995,151.79999999999998 369.79999999999995,132.6 374.59999999999997,132.6 374.59999999999997,113.4 374.59999999999997,113.39999999999998 369.79999999999995,113.39999999999998 369.79999999999995,94.19999999999999 374.59999999999997,94.19999999999999 374.59999999999997,75.0 " style="fill:none;stroke:black;stroke:2"/>
<circle cx = "374.08976377955" cy = "103.80000000000001" r = "1.88976377955" style="fill:none;stroke:black;stroke:2"/>
<circle cx = "374.08976377955" cy = "257.40000000000003" r = "1.88976377955" style="fill:none;stroke:black;stroke:2"/>
<polyline points="639.6,75 870.0,75 " style="fill:none;stroke:black;stroke:2"/>
<polyline points="870.0,75.0 874.8,75.0 874.8,94.2 870.0,94.2 870.0,113.4 870.0,113.4 874.8,113.4 874.8,132.60000000000002 870.0,132.60000000000002 870.0,151.8 870.0,151.8 874.8,151.8 874.8,171.0 870.0,171.0 870.0,190.20000000000002 870.0,190.20000000000002 874.8,190.20000000000002 874.8,209.40000000000003 870.0,209.40000000000003 870.0,228.60000000000002 870.0,228.60000000000002 874.8,228.60000000000002 874.8,247.8 870.0,247.8 870.0,267.0 " style="fill:none;stroke:black;stroke:2"/>
<line x1 = "870.0" y1 = "101.91023622045002" x2 = "870.0" y2 = "105.68976377955002" style="fill:none;stroke:white;stroke:2"/>
<line x1 = "870.0" y1 = "255.51023622045005" x2 = "870.0" y2 = "259.28976377955007" style="fill:none;stroke:white;stroke:2"/>
<polyline points = "870.0,101.91023622045002 862.9322834645401,101.91023622045002 862.9322834645401,99.64251968499002 859.9086614172601,99.64251968499002 859.9086614172601,101.91023622045002 852.34960629906,101.91023622045002 852.34960629906,105.68976377955002 859.9086614172601,105.68976377955002 859.9086614172601,107.95748031501002 862.9322834645401,107.95748031501002 862.9322834645401,105.68976377955002 870.0,105.68976377955002" style="fill:none;stroke:black;stroke:2"/>
<polyline points = "870.0,255.51023622045005 862.9322834645401,255.51023622045005 862.9322834645401,253.24251968499004 859.9086614172601,253.24251968499004 859.9086614172601,255.51023622045005 852.34960629906,255.51023622045005 852.34960629906,259.28976377955007 859.9086614172601,259.28976377955007 859.9086614172601,261.55748031501 862.9322834645401,261.55748031501 862.9322834645401,259.28976377955007 870.0,259.28976377955007" style="fill:none;stroke:black;stroke:2"/>
<polyline points="870.0,267.0 870.0,271.8 850.8,271.8 850.8,267.0 831.5999999999999,267.0 831.6,267.0 831.6,271.8 812.4,271.8 812.4,267.0 793.1999999999999,267.0 793.2,267.0 793.2,271.8 774.0,271.8 774.0,267.0 754.8,267.0 754.8,267.0 754.8,271.8 735.5999999999999,271.8 735.5999999999999,267.0 716.3999999999999,267.0 716.4,267.0 716.4,271.8 697.1999999999999,271.8 697.1999999999999,267.0 677.9999999999999,267.0 678.0,267.0 678.0,271.8 658.8,271.8 658.8,267.0 639.5999999999999,267.0 " style="fill:none;stroke:black;stroke:2"/>
<polyline points="639.5999999999999,267.0 634.8,267.0 634.8,247.8 639.5999999999999,247.8 639.5999999999999,228.60000000000002 639.5999999999999,228.6 634.8,228.6 634.8,209.4 639.5999999999999,209.4 639.5999999999999,190.20000000000002 639.5999999999999,190.2 634.8,190.2 634.8,171.0 639.5999999999999,171.0 639.5999999999999,151.8 639.5999999999999,151.79999999999998 634.8,151.79999999999998 634.8,132.6 639.5999999999999,132.6 639.5999999999999,113.4 639.5999999999999,113.39999999999998 634.8,113.39999999999998 634.8,94.19999999999999 639.5999999999999,94.19999999999999 639.5999999999999,75.0 " style="fill:none;stroke:black;stroke:2"/>
<circle cx = "639.08976377955" cy = "103.80000000000001" r = "1.88976377955" style="fill:none;stroke:black;stroke:2"/>
<circle cx = "639.08976377955" cy = "257.40000000000003" r = "1.88976377955" style="fill:none;stroke:black;stroke:2"/>
<polyline points="224.8,301.6 224.8,296.8 244.0,296.8 244.0,301.6 263.2,301.6 263.20000000000005,301.6 263.20000000000005,296.8 282.4,296.8 282.4,301.6 301.6,301.6 301.6,301.6 301.6,296.8 320.8,296.8 320.8,301.6 340.0,301.6 " style="fill:none;stroke:black;stroke:2"/>
<circle cx = "234.4" cy = "301.08976377955" r = "1.88976377955" style="fill:none;stroke:black;stroke:1"/>
<circle cx = "311.20000000000005" cy = "301.08976377955" r = "1.88976377955" style="fill:none;stroke:black;stroke:1"/>
<polyline points="340.0,301.6 344.8,301.6 344.8,320.8 340.0,320.8 340.0,340.0 340.0,340.0 344.8,340.0 344.8,359.20000000000005 340.0,359.20000000000005 340.0,378.4 340.0,378.40000000000003 344.8,378.40000000000003 344.8,397.6 340.0,397.6 340.0,416.8 340.0,416.80000000000007 344.8,416.80000000000007 344.8,436.0 340.0,436.0 340.0,455.20000000000005 340.0,455.20000000000005 344.8,455.20000000000005 344.8,474.40000000000003 340.0,474.40000000000003 340.0,493.6 340.0,493.6 344.8,493.6 344.8,512.8000000000001 340.0,512.8000000000001 340.0,532.0 " style="fill:none;stroke:black;stroke:2"/>
<polyline points="340.0,532.0 340.0,536.8 320.8,536.8 320.8,532.0 301.6,532.0 301.6,532.0 301.6,536.8 282.4,536.8 282.4,532.0 263.20000000000005,532.0 263.2,532.0 263.2,536.8 244.0,536.8 244.0,532.0 224.8,532.0 " style="fill:none;stroke:black;stroke:2"/>
<circle cx = "253.6" cy = "532.51023622045" r = "1.88976377955" style="fill:none;stroke:black;stroke:1"/>
<circle cx = "330.4" cy = "532.51023622045" r = "1.88976377955" style="fill:none;stroke:black;stroke:1"/>
<polyline points="224.79999999999998,532.0 219.99999999999997,532.0 219.99999999999997,512.8 224.79999999999998,512.8 224.79999999999998,493.59999999999997 224.79999999999998,493.6 219.99999999999997,493.6 219.99999999999997,474.4 224.79999999999998,474.4 224.79999999999998,455.19999999999993 224.79999999999998,455.2 219.99999999999997,455.2 219.99999999999997,435.99999999999994 224.79999999999998,435.99999999999994 224.79999999999998,416.79999999999995 224.79999999999998,416.79999999999995 219.99999999999997,416.79999999999995 219.99999999999997,397.5999999999999 224.79999999999998,397.5999999999999 224.79999999999998,378.4 224.79999999999998,378.4 219.99999999999997,378.4 219.99999999999997,359.19999999999993 224.79999999999998,359.19999999999993 224.79999999999998,339.99999999999994 224.79999999999998,340.0 219.99999999999997,340.0 219.99999999999997,320.79999999999995 224.79999999999998,320.79999999999995 224.79999999999998,301.5999999999999 " style="fill:none;stroke:black;stroke:2"/>
<polyline points = "70.2,296.8 111.80000000000001,296.8 111.80000000000001,301.6 153.4,301.6 153.4,296.8 195.0,296.8 195.0,536.8000000000001 70.2,536.8000000000001 70.2,296.8" style="fill:none;stroke:black;stroke:2"/>
<circle cx = "94.2" cy = "301.08976377955" r = "1.88976377955" style="fill:none;stroke:black;stroke:1"/>
<circle cx = "171.0" cy = "301.08976377955" r = "1.88976377955" style="fill:none;stroke:black;stroke:1"/>
<polyline points = "70.2,315.8 72.60000000000001,315.8" fill = "none" stroke = "black" /> 
<polyline points = "72.60000000000001,315.8 77.60000000000001,315.8" fill = "none" stroke = "black" /> 
<path d = "M 77.60000000000001 315.8 C 77.60000000000001 317.3, 87.60000000000001 317.3, 87.60000000000001 315.8" stroke = "black" fill = "transparent"/>
<polyline points = "87.60000000000001 315.8 92.60000000000001,315.8" fill = "none" stroke = "black" /> 
<polyline points = "70.2,319.3 72.60000000000001,319.3" fill = "none" stroke = "black" /> 
<polyline points = "72.60000000000001,319.3 77.60000000000001,319.3" fill = "none" stroke = "black" /> 
<path d = "M 77.60000000000001 319.3 C 77.60000000000001 320.8, 87.60000000000001 320.8, 87.60000000000001 319.3" stroke = "black" fill = "transparent"/>
<polyline points = "87.60000000000001 319.3 92.60000000000001,319.3" fill = "none" stroke = "black" /> 
<polyline points = "70.2,322.8 72.60000000000001,322.8" fill = "none" stroke = "black" /> 
<polyline points = "72.60000000000001,322.8 77.60000000000001,322.8" fill = "none" stroke = "black" /> 
<path d = "M 77.60000000000001 322.8 C 77.60000000000001 324.3, 87.60000000000001 324.3, 87.60000000000001 322.8" stroke = "black" fill = "transparent"/>
<polyline points = "87.60000000000001 322.8 92.60000000000001,322.8" fill = "none" stroke = "black" /> 
<polyline points = "70.2,326.3 72.60000000000001,326.3" fill = "none" stroke = "black" /> 
<polyline points = "72.60000000000001,326.3 77.60000000000001,326.3" fill = "none" stroke = "black" /> 
<path d = "M 77.60000000000001 326.3 C 77.60000000000001 327.8, 87.60000000000001 327.8, 87.60000000000001 326.3" stroke = "black" fill = "transparent"/>
<polyline points = "87.60000000000001 326.3 92.60000000000001,326.3" fill = "none" stroke = "black" /> 
<polyline points = "70.2,329.8 72.60000000000001,329.8" fill = "none" stroke = "black" /> 
<polyline points = "72.60000000000001,329.8 77.60000000000001,329.8" fill = "none" stroke = "black" /> 
<path d = "M 77.60000000000001 329.8 C 77.60000000000001 331.3, 87.60000000000001 331.3, 87.60000000000001 329.8" stroke = "black" fill = "transparent"/>
<polyline points = "87.60000000000001 329.8 92.60000000000001,329.8" fill = "none" stroke = "black" /> 
<polyline points = "70.2,333.3 72.60000000000001,333.3" fill = "none" stroke = "black" /> 
<polyline points = "72.60000000000001,333.3 77.60000000000001,333.3" fill = "none" stroke = "black" /> 
<path d = "M 77.60000000000001 333.3 C 77.60000000000001 334.8, 87.60000000000001 334.8, 87.60000000000001 333.3" stroke = "black" fill = "transparent"/>
<polyline points = "87.60000000000001 333.3 92.60000000000001,333.3" fill = "none" stroke = "black" /> 
<polyline points = "70.2,336.8 72.60000000000001,336.8" fill = "none" stroke = "black" /> 
<polyline points = "72.60000000000001,336.8 77.60000000000001,336.8" fill = "none" stroke = "black" /> 
<path d = "M 77.60000000000001 336.8 C 77.60000000000001 338.3, 87.60000000000001 338.3, 87.60000000000001 336.8" stroke = "black" fill = "transparent"/>
<polyline points = "87.60000000000001 336.8 92.60000000000001,336.8" fill = "none" stroke = "black" /> 
<polyline points = "70.2,340.3 72.60000000000001,340.3" fill = "none" stroke = "black" /> 
<polyline points = "72.60000000000001,340.3 77.60000000000001,340.3" fill = "none" stroke = "black" /> 
<path d = "M 77.60000000000001 340.3 C 77.60000000000001 341.8, 87.60000000000001 341.8, 87.60000000000001 340.3" stroke = "black" fill = "transparent"/>
<polyline points = "87.60000000000001 340.3 92.60000000000001,340.3" fill = "none" stroke = "black" /> 
<polyline points = "70.2,343.8 72.60000000000001,343.8" fill = "none" stroke = "black" /> 
<polyline points = "72.60000000000001,343.8 77.60000000000001,343.8" fill = "none" stroke = "black" /> 
<path d = "M 77.60000000000001 343.8 C 77.60000000000001 345.3, 87.60000000000001 345.3, 87.60000000000001 343.8" stroke = "black" fill = "transparent"/>
<polyline points = "87.60000000000001 343.8 92.60000000000001,343.8" fill = "none" stroke = "black" /> 
<polyline points = "70.2,347.3 72.60000000000001,347.3" fill = "none" stroke = "black" /> 
<polyline points = "72.60000000000001,347.3 77.60000000000001,347.3" fill = "none" stroke = "black" /> 
<path d = "M 77.60000000000001 347.3 C 77.60000000000001 348.8, 87.60000000000001 348.8, 87.60000000000001 347.3" stroke = "black" fill = "transparent"/>
<polyline points = "87.60000000000001 347.3 92.60000000000001,347.3" fill = "none" stroke = "black" /> 
<polyline points = "70.2,350.8 72.60000000000001,350.8" fill = "none" stroke = "black" /> 
<polyline points = "72.60000000000001,350.8 77.60000000000001,350.8" fill = "none" stroke = "black" /> 
<path d = "M 77.60000000000001 350.8 C 77.60000000000001 352.3, 87.60000000000001 352.3, 87.60000000000001 350.8" stroke = "black" fill = "transparent"/>
<polyline points = "87.60000000000001 350.8 92.60000000000001,350.8" fill = "none" stroke = "black" /> 
<polyline points = "70.2,354.3 72.60000000000001,354.3" fill = "none" stroke = "black" /> 
<polyline points = "72.60000000000001,354.3 77.60000000000001,354.3" fill = "none" stroke = "black" /> 
<path d = "M 77.60000000000001 354.3 C 77.60000000000001 355.8, 87.60000000000001 355.8, 87.60000000000001 354.3" stroke = "black" fill = "transparent"/>
<polyline points = "87.60000000000001 354.3 92.60000000000001,354.3" fill = "none" stroke = "black" /> 
<polyline points = "70.2,357.8 72.60000000000001,357.8" fill = "none" stroke = "black" /> 
<polyline points = "72.60000000000001,357.8 77.60000000000001,357.8" fill = "none" stroke = "black" /> 
<path d = "M 77.60000000000001 357.8 C 77.60000000000001 359.3, 87.60000000000001 359.3, 87.60000000000001 357.8" stroke = "black" fill = "transparent"/>
<polyline points = "87.60000000000001 357.8 92.60000000000001,357.8" fill = "none" stroke = "black" /> 
<polyline points = "92.60000000000001,317.8 97.60000000000001,317.8" fill = "none" stroke = "black" /> 
<path d = "M 97.60000000000001 317.8 C 97.60000000000001 319.3, 107.60000000000001 319.3, 107.60000000000001 317.8" stroke = "black" fill = "transparent"/>
<polyline points = "107.60000000000001 317.8 112.60000000000001,317.8" fill = "none" stroke = "black" /> 
<polyline points = "92.60000000000001,321.3 97.60000000000001,321.3" fill = "none" stroke = "black" /> 
<path d = "M 97.60000000000001 321.3 C 97.60000000000001 322.8, 107.60000000000001 322.8, 107.60000000000001 321.3" stroke = "black" fill = "transparent"/>
<polyline points = "107.60000000000001 321.3 112.60000000000001,321.3" fill = "none" stroke = "black" /> 
<polyline points = "92.60000000000001,324.8 97.60000000000001,324.8" fill = "none" stroke = "black" /> 
<path d = "M 97.60000000000001 324.8 C 97.60000000000001 326.3, 107.60000000000001 326.3, 107.60000000000001 324.8" stroke = "black" fill = "transparent"/>
<polyline points = "107.60000000000001 324.8 112.60000000000001,324.8" fill = "none" stroke = "black" /> 
<polyline points = "92.60000000000001,328.3 97.60000000000001,328.3" fill = "none" stroke = "black" /> 
<path d = "M 97.60000000000001 328.3 C 97.60000000000001 329.8, 107.60000000000001 329.8, 107.60000000000001 328.3" stroke = "black" fill = "transparent"/>
<polyline points = "107.60000000000001 328.3 112.60000000000001,328.3" fill = "none" stroke = "black" /> 
<polyline points = "92.60000000000001,331.8 97.60000000000001,331.8" fill = "none" stroke = "black" /> 
<path d = "M 97.60000000000001 331.8 C 97.60000000000001 333.3, 107.60000000000001 333.3, 107.60000000000001 331.8" stroke = "black" fill = "transparent"/>
<polyline points = "107.60000000000001 331.8 112.60000000000001,331.8" fill = "none" stroke = "black" /> 
<polyline points = "92.60000000000001,335.3 97.60000000000001,335.3" fill = "none" stroke = "black" /> 
<path d = "M 97.60000000000001 335.3 C 97.60000000000001 336.8, 107.60000000000001 336.8, 107.60000000000001 335.3" stroke = "black" fill = "transparent"/>
<polyline points = "107.60000000000001 335.3 112.60000000000001,335.3" fill = "none" stroke = "black" /> 
<polyline points = "92.60000000000001,338.8 97.60000000000001,338.8" fill = "none" stroke = "black" /> 
<path d = "M 97.60000000000001 338.8 C 97.60000000000001 340.3, 107.60000000000001 340.3, 107.60000000000001 338.8" stroke = "black" fill = "transparent"/>
<polyline points = "107.60000000000001 338.8 112.60000000000001,338.8" fill = "none" stroke = "black" /> 
<polyline points = "92.60000000000001,342.3 97.60000000000001,342.3" fill = "none" stroke = "black" /> 
<path d = "M 97.60000000000001 342.3 C 97.60000000000001 343.8, 107.60000000000001 343.8, 107.60000000000001 342.3" stroke = "black" fill = "transparent"/>
<polyline points = "107.60000000000001 342.3 112.60000000000001,342.3" fill = "none" stroke = "black" /> 
<polyline points = "92.60000000000001,345.8 97.60000000000001,345.8" fill = "none" stroke = "black" /> 
<path d = "M 97.60000000000001 345.8 C 97.60000000000001 347.3, 107.60000000000001 347.3, 107.60000000000001 345.8" stroke = "black" fill = "transparent"/>
<polyline points = "107.60000000000001 345.8 112.60000000000001,345.8" fill = "none" stroke = "black" /> 
<polyline points = "92.60000000000001,349.3 97.60000000000001,349.3" fill = "none" stroke = "black" /> 
<path d = "M 97.60000000000001 349.3 C 97.60000000000001 350.8, 107.60000000000001 350.8, 107.60000000000001 349.3" stroke = "black" fill = "transparent"/>
<polyline points = "107.60000000000001 349.3 112.60000000000001,349.3" fill = "none" stroke = "black" /> 
<polyline points = "92.60000000000001,352.8 97.60000000000001,352.8" fill = "none" stroke = "black" /> 
<path d = "M 97.60000000000001 352.8 C 97.60000000000001 354.3, 107.60000000000001 354.3, 107.60000000000001 352.8" stroke = "black" fill = "transparent"/>
<polyline points = "107.60000000000001 352.8 112.60000000000001,352.8" fill = "none" stroke = "black" /> 
<polyline points = "92.60000000000001,356.3 97.60000000000001,356.3" fill = "none" stroke = "black" /> 
<path d = "M 97.60000000000001 356.3 C 97.60000000000001 357.8, 107.60000000000001 357.8, 107.60000000000001 356.3" stroke = "black" fill = "transparent"/>
<polyline points = "107.60000000000001 356.3 112.60000000000001,356.3" fill = "none" stroke = "black" /> 
<polyline points = "92.60000000000001,359.8 97.60000000000001,359.8" fill = "none" stroke = "black" /> 
<path d = "M 97.60000000000001 359.8 C 97.60000000000001 361.3, 107.60000000000001 361.3, 107.60000000000001 359.8" stroke = "black" fill = "transparent"/>
<polyline points = "107.60000000000001 359.8 112.60000000000001,359.8" fill = "none" stroke = "black" /> 
<polyline points = "112.60000000000001,315.8 117.60000000000001,315.8" fill = "none" stroke = "black" /> 
<path d = "M 117.60000000000001 315.8 C 117.60000000000001 317.3, 127.60000000000001 317.3, 127.60000000000001 315.8" stroke = "black" fill = "transparent"/>
<polyline points = "127.60000000000001 315.8 132.60000000000002,315.8" fill = "none" stroke = "black" /> 
<polyline points = "112.60000000000001,319.3 117.60000000000001,319.3" fill = "none" stroke = "black" /> 
<path d = "M 117.60000000000001 319.3 C 117.60000000000001 320.8, 127.60000000000001 320.8, 127.60000000000001 319.3" stroke = "black" fill = "transparent"/>
<polyline points = "127.60000000000001 319.3 132.60000000000002,319.3" fill = "none" stroke = "black" /> 
<polyline points = "112.60000000000001,322.8 117.60000000000001,322.8" fill = "none" stroke = "black" /> 
<path d = "M 117.60000000000001 322.8 C 117.60000000000001 324.3, 127.60000000000001 324.3, 127.60000000000001 322.8" stroke = "black" fill = "transparent"/>
<polyline points = "127.60000000000001 322.8 132.60000000000002,322.8" fill = "none" stroke = "black" /> 
<polyline points = "112.60000000000001,326.3 117.60000000000001,326.3" fill = "none" stroke = "black" /> 
<path d = "M 117.60000000000001 326.3 C 117.60000000000001 327.8, 127.60000000000001 327.8, 127.60000000000001 326.3" stroke = "black" fill = "transparent"/>
<polyline points = "127.60000000000001 326.3 132.60000000000002,326.3" fill = "none" stroke = "black" /> 
<polyline points = "112.60000000000001,329.8 117.60000000000001,329.8" fill = "none" stroke = "black" /> 
<path d = "M 117.60000000000001 329.8 C 117.60000000000001 331.3, 127.60000000000001 331.3, 127.60000000000001 329.8" stroke = "black" fill = "transparent"/>
<polyline points = "127.60000000000001 329.8 132.60000000000002,329.8" fill = "none" stroke = "black" /> 
<polyline points = "112.60000000000001,333.3 117.60000000000001,333.3" fill = "none" stroke = "black" /> 
<path d = "M 117.60000000000001 333.3 C 117.60000000000001 334.8, 127.60000000000001 334.8, 127.60000000000001 333.3" stroke = "black" fill = "transparent"/>
<polyline points = "127.60000000000001 333.3 132.60000000000002,333.3" fill = "none" stroke = "black" /> 
<polyline points = "112.60000000000001,336.8 117.60000000000001,336.8" fill = "none" stroke = "black" /> 
<path d = "M 117.60000000000001 336.8 C 117.60000000000001 338.3, 127.60000000000001 338.3, 127.60000000000001 336.8" stroke = "black" fill = "transparent"/>
<polyline points = "127.60000000000001 336.8 132.60000000000002,336.8" fill = "none" stroke = "black" /> 
<polyline points = "112.60000000000001,340.3 117.60000000000001,340.3" fill = "none" stroke = "black" /> 
<path d = "M 117.60000000000001 340.3 C 117.60000000000001 341.8, 127.60000000000001 341.8, 127.60000000000001 340.3" stroke = "black" fill = "transparent"/>
<polyline points = "127.60000000000001 340.3 132.60000000000002,340.3" fill = "none" stroke = "black" /> 
<polyline points = "112.60000000000001,343.8 117.60000000000001,343.8" fill = "none" stroke = "black" /> 
<path d = "M 117.60000000000001 343.8 C 117.60000000000001 345.3, 127.60000000000001 345.3, 127.60000000000001 343.8" stroke = "black" fill = "transparent"/>
<polyline points = "127.60000000000001 343.8 132.60000000000002,343.8" fill = "none" stroke = "black" /> 
<polyline points = "112.60000000000001,347.3 117.60000000000001,347.3" fill = "none" stroke = "black" /> 
<path d = "M 117.60000000000001 347.3 C 117.60000000000001 348.8, 127.60000000000001 348.8, 127.60000000000001 347.3" stroke = "black" fill = "transparent"/>
<polyline points = "127.60000000000001 347.3 132.60000000000002,347.3" fill = "none" stroke = "black" /> 
<polyline points = "112.60000000000001,350.8 117.60000000000001,350.8" fill = "none" stroke = "black" /> 
<path d = "M 117.60000000000001 350.8 C 117.60000000000001 352.3, 127.60000000000001 352.3, 127.60000000000001 350.8" stroke = "black" fill = "transparent"/>
<polyline points = "127.60000000000001 350.8 132.60000000000002,350.8" fill = "none" stroke = "black" /> 
<polyline points = "112.60000000000001,354.3 117.60000000000001,354.3" fill = "none" stroke = "black" /> 
<path d = "M 117.60000000000001 354.3 C 117.60000000000001 355.8, 127.60000000000001 355.8, 127.60000000000001 354.3" stroke = "black" fill = "transparent"/>
<polyline points = "127.60000000000001 354.3 132.60000000000002,354.3" fill = "none" stroke = "black" /> 
<polyline points = "112.60000000000001,357.8 117.60000000000001,357.8" fill = "none" stroke = "black" /> 
<path d = "M 117.60000000000001 357.8 C 117.60000000000001 359.3, 127.60000000000001 359.3, 127.60000000000001 357.8" stroke = "black" fill = "transparent"/>
<polyline points = "127.60000000000001 357.8 132.60000000000002,357.8" fill = "none" stroke = "black" /> 
<polyline points = "132.6,317.8 137.6,317.8" fill = "none" stroke = "black" /> 
<path d = "M 137.6 317.8 C 137.6 319.3, 147.6 319.3, 147.6 317.8" stroke = "black" fill = "transparent"/>
<polyline points = "147.6 317.8 152.6,317.8" fill = "none" stroke = "black" /> 
<polyline points = "132.6,321.3 137.6,321.3" fill = "none" stroke = "black" /> 
<path d = "M 137.6 321.3 C 137.6 322.8, 147.6 322.8, 147.6 321.3" stroke = "black" fill = "transparent"/>
<polyline points = "147.6 321.3 152.6,321.3" fill = "none" stroke = "black" /> 
<polyline points = "132.6,324.8 137.6,324.8" fill = "none" stroke = "black" /> 
<path d = "M 137.6 324.8 C 137.6 326.3, 147.6 326.3, 147.6 324.8" stroke = "black" fill = "transparent"/>
<polyline points = "147.6 324.8 152.6,324.8" fill = "none" stroke = "black" /> 
<polyline points = "132.6,328.3 137.6,328.3" fill = "none" stroke = "black" /> 
<path d = "M 137.6 328.3 C 137.6 329.8, 147.6 329.8, 147.6 328.3" stroke = "black" fill = "transparent"/>
<polyline points = "147.6 328.3 152.6,328.3" fill = "none" stroke = "black" /> 
<polyline points = "132.6,331.8 137.6,331.8" fill = "none" stroke = "black" /> 
<path d = "M 137.6 331.8 C 137.6 333.3, 147.6 333.3, 147.6 331.8" stroke = "black" fill = "transparent"/>
<polyline points = "147.6 331.8 152.6,331.8" fill = "none" stroke = "black" /> 
<polyline points = "132.6,335.3 137.6,335.3" fill = "none" stroke = "black" /> 
<path d = "M 137.6 335.3 C 137.6 336.8, 147.6 336.8, 147.6 335.3" stroke = "black" fill = "transparent"/>
<polyline points = "147.6 335.3 152.6,335.3" fill = "none" stroke = "black" /> 
<polyline points = "132.6,338.8 137.6,338.8" fill = "none" stroke = "black" /> 
<path d = "M 137.6 338.8 C 137.6 340.3, 147.6 340.3, 147.6 338.8" stroke = "black" fill = "transparent"/>
<polyline points = "147.6 338.8 152.6,338.8" fill = "none" stroke = "black" /> 
<polyline points = "132.6,342.3 137.6,342.3" fill = "none" stroke = "black" /> 
<path d = "M 137.6 342.3 C 137.6 343.8, 147.6 343.8, 147.6 342.3" stroke = "black" fill = "transparent"/>
<polyline points = "147.6 342.3 152.6,342.3" fill = "none" stroke = "black" /> 
<polyline points = "132.6,345.8 137.6,345.8" fill = "none" stroke = "black" /> 
<path d = "M 137.6 345.8 C 137.6 347.3, 147.6 347.3, 147.6 345.8" stroke = "black" fill = "transparent"/>
<polyline points = "147.6 345.8 152.6,345.8" fill = "none" stroke = "black" /> 
<polyline points = "132.6,349.3 137.6,349.3" fill = "none" stroke = "black" /> 
<path d = "M 137.6 349.3 C 137.6 350.8, 147.6 350.8, 147.6 349.3" stroke = "black" fill = "transparent"/>
<polyline points = "147.6 349.3 152.6,349.3" fill = "none" stroke = "black" /> 
<polyline points = "132.6,352.8 137.6,352.8" fill = "none" stroke = "black" /> 
<path d = "M 137.6 352.8 C 137.6 354.3, 147.6 354.3, 147.6 352.8" stroke = "black" fill = "transparent"/>
<polyline points = "147.6 352.8 152.6,352.8" fill = "none" stroke = "black" /> 
<polyline points = "132.6,356.3 137.6,356.3" fill = "none" stroke = "black" /> 
<path d = "M 137.6 356.3 C 137.6 357.8, 147.6 357.8, 147.6 356.3" stroke = "black" fill = "transparent"/>
<polyline points = "147.6 356.3 152.6,356.3" fill = "none" stroke = "black" /> 
<polyline points = "132.6,359.8 137.6,359.8" fill = "none" stroke = "black" /> 
<path d = "M 137.6 359.8 C 137.6 361.3, 147.6 361.3, 147.6 359.8" stroke = "black" fill = "transparent"/>
<polyline points = "147.6 359.8 152.6,359.8" fill = "none" stroke = "black" /> 
<polyline points = "152.6,315.8 157.6,315.8" fill = "none" stroke = "black" /> 
<path d = "M 157.6 315.8 C 157.6 317.3, 167.6 317.3, 167.6 315.8" stroke = "black" fill = "transparent"/>
<polyline points = "167.6 315.8 172.6,315.8" fill = "none" stroke = "black" /> 
<polyline points = "152.6,319.3 157.6,319.3" fill = "none" stroke = "black" /> 
<path d = "M 157.6 319.3 C 157.6 320.8, 167.6 320.8, 167.6 319.3" stroke = "black" fill = "transparent"/>
<polyline points = "167.6 319.3 172.6,319.3" fill = "none" stroke = "black" /> 
<polyline points = "152.6,322.8 157.6,322.8" fill = "none" stroke = "black" /> 
<path d = "M 157.6 322.8 C 157.6 324.3, 167.6 324.3, 167.6 322.8" stroke = "black" fill = "transparent"/>
<polyline points = "167.6 322.8 172.6,322.8" fill = "none" stroke = "black" /> 
<polyline points = "152.6,326.3 157.6,326.3" fill = "none" stroke = "black" /> 
<path d = "M 157.6 326.3 C 157.6 327.8, 167.6 327.8, 167.6 326.3" stroke = "black" fill = "transparent"/>
<polyline points = "167.6 326.3 172.6,326.3" fill = "none" stroke = "black" /> 
<polyline points = "152.6,329.8 157.6,329.8" fill = "none" stroke = "black" /> 
<path d = "M 157.6 329.8 C 157.6 331.3, 167.6 331.3, 167.6 329.8" stroke = "black" fill = "transparent"/>
<polyline points = "167.6 329.8 172.6,329.8" fill = "none" stroke = "black" /> 
<polyline points = "152.6,333.3 157.6,333.3" fill = "none" stroke = "black" /> 
<path d = "M 157.6 333.3 C 157.6 334.8, 167.6 334.8, 167.6 333.3" stroke = "black" fill = "transparent"/>
<polyline points = "167.6 333.3 172.6,333.3" fill = "none" stroke = "black" /> 
<polyline points = "152.6,336.8 157.6,336.8" fill = "none" stroke = "black" /> 
<path d = "M 157.6 336.8 C 157.6 338.3, 167.6 338.3, 167.6 336.8" stroke = "black" fill = "transparent"/>
<polyline points = "167.6 336.8 172.6,336.8" fill = "none" stroke = "black" /> 
<polyline points = "152.6,340.3 157.6,340.3" fill = "none" stroke = "black" /> 
<path d = "M 157.6 340.3 C 157.6 341.8, 167.6 341.8, 167.6 340.3" stroke = "black" fill = "transparent"/>
<polyline points = "167.6 340.3 172.6,340.3" fill = "none" stroke = "black" /> 
<polyline points = "152.6,343.8 157.6,343.8" fill = "none" stroke = "black" /> 
<path d = "M 157.6 343.8 C 157.6 345.3, 167.6 345.3, 167.6 343.8" stroke = "black" fill = "transparent"/>
<polyline points = "167.6 343.8 172.6,343.8" fill = "none" stroke = "black" /> 
<polyline points = "152.6,347.3 157.6,347.3" fill = "none" stroke = "black" /> 
<path d = "M 157.6 347.3 C 157.6 348.8, 167.6 348.8, 167.6 347.3" stroke = "black" fill = "transparent"/>
<polyline points = "167.6 347.3 172.6,347.3" fill = "none" stroke = "black" /> 
<polyline points = "152.6,350.8 157.6,350.8" fill = "none" stroke = "black" /> 
<path d = "M 157.6 350.8 C 157.6 352.3, 167.6 352.3, 167.6 350.8" stroke = "black" fill = "transparent"/>
<polyline points = "167.6 350.8 172.6,350.8" fill = "none" stroke = "black" /> 
<polyline points = "152.6,354.3 157.6,354.3" fill = "none" stroke = "black" /> 
<path d = "M 157.6 354.3 C 157.6 355.8, 167.6 355.8, 167.6 354.3" stroke = "black" fill = "transparent"/>
<polyline points = "167.6 354.3 172.6,354.3" fill = "none" stroke = "black" /> 
<polyline points = "152.6,357.8 157.6,357.8" fill = "none" stroke = "black" /> 
<path d = "M 157.6 357.8 C 157.6 359.3, 167.6 359.3, 167.6 357.8" stroke = "black" fill = "transparent"/>
<polyline points = "167.6 357.8 172.6,357.8" fill = "none" stroke = "black" /> 
<polyline points = "172.6,317.8 177.6,317.8" fill = "none" stroke = "black" /> 
<path d = "M 177.6 317.8 C 177.6 319.3, 187.6 319.3, 187.6 317.8" stroke = "black" fill = "transparent"/>
<polyline points = "187.6 317.8 192.6,317.8" fill = "none" stroke = "black" /> 
<polyline points = "192.6 317.8 195.0,317.8" fill = "none" stroke = "black" /> 
<polyline points = "172.6,321.3 177.6,321.3" fill = "none" stroke = "black" /> 
<path d = "M 177.6 321.3 C 177.6 322.8, 187.6 322.8, 187.6 321.3" stroke = "black" fill = "transparent"/>
<polyline points = "187.6 321.3 192.6,321.3" fill = "none" stroke = "black" /> 
<polyline points = "192.6 321.3 195.0,321.3" fill = "none" stroke = "black" /> 
<polyline points = "172.6,324.8 177.6,324.8" fill = "none" stroke = "black" /> 
<path d = "M 177.6 324.8 C 177.6 326.3, 187.6 326.3, 187.6 324.8" stroke = "black" fill = "transparent"/>
<polyline points = "187.6 324.8 192.6,324.8" fill = "none" stroke = "black" /> 
<polyline points = "192.6 324.8 195.0,324.8" fill = "none" stroke = "black" /> 
<polyline points = "172.6,328.3 177.6,328.3" fill = "none" stroke = "black" /> 
<path d = "M 177.6 328.3 C 177.6 329.8, 187.6 329.8, 187.6 328.3" stroke = "black" fill = "transparent"/>
<polyline points = "187.6 328.3 192.6,328.3" fill = "none" stroke = "black" /> 
<polyline points = "192.6 328.3 195.0,328.3" fill = "none" stroke = "black" /> 
<polyline points = "172.6,331.8 177.6,331.8" fill = "none" stroke = "black" /> 
<path d = "M 177.6 331.8 C 177.6 333.3, 187.6 333.3, 187.6 331.8" stroke = "black" fill = "transparent"/>
<polyline points = "187.6 331.8 192.6,331.8" fill = "none" stroke = "black" /> 
<polyline points = "192.6 331.8 195.0,331.8" fill = "none" stroke = "black" /> 
<polyline points = "172.6,335.3 177.6,335.3" fill = "none" stroke = "black" /> 
<path d = "M 177.6 335.3 C 177.6 336.8, 187.6 336.8, 187.6 335.3" stroke = "black" fill = "transparent"/>
<polyline points = "187.6 335.3 192.6,335.3" fill = "none" stroke = "black" /> 
<polyline points = "192.6 335.3 195.0,335.3" fill = "none" stroke = "black" /> 
<polyline points = "172.6,338.8 177.6,338.8" fill = "none" stroke = "black" /> 
<path d = "M 177.6 338.8 C 177.6 340.3, 187.6 340.3, 187.6 338.8" stroke = "black" fill = "transparent"/>
<polyline points = "187.6 338.8 192.6,338.8" fill = "none" stroke = "black" /> 
<polyline points = "192.6 338.8 195.0,338.8" fill = "none" stroke = "black" /> 
<polyline points = "172.6,342.3 177.6,342.3" fill = "none" stroke = "black" /> 
<path d = "M 177.6 342.3 C 177.6 343.8, 187.6 343.8, 187.6 342.3" stroke = "black" fill = "transparent"/>
<polyline points = "187.6 342.3 192.6,342.3" fill = "none" stroke = "black" /> 
<polyline points = "192.6 342.3 195.0,342.3" fill = "none" stroke = "black" /> 
<polyline points = "172.6,345.8 177.6,345.8" fill = "none" stroke = "black" /> 
<path d = "M 177.6 345.8 C 177.6 347.3, 187.6 347.3, 187.6 345.8" stroke = "black" fill = "transparent"/>
<polyline points = "187.6 345.8 192.6,345.8" fill = "none" stroke = "black" /> 
<polyline points = "192.6 345.8 195.0,345.8" fill = "none" stroke = "black" /> 
<polyline points = "172.6,349.3 177.6,349.3" fill = "none" stroke = "black" /> 
<path d = "M 177.6 349.3 C 177.6 350.8, 187.6 350.8, 187.6 349.3" stroke = "black" fill = "transparent"/>
<polyline points = "187.6 349.3 192.6,349.3" fill = "none" stroke = "black" /> 
<polyline points = "192.6 349.3 195.0,349.3" fill = "none" stroke = "black" /> 
<polyline points = "172.6,352.8 177.6,352.8" fill = "none" stroke = "black" /> 
<path d = "M 177.6 352.8 C 177.6 354.3, 187.6 354.3, 187.6 352.8" stroke = "black" fill = "transparent"/>
<polyline points = "187.6 352.8 192.6,352.8" fill = "none" stroke = "black" /> 
<polyline points = "192.6 352.8 195.0,352.8" fill = "none" stroke = "black" /> 
<polyline points = "172.6,356.3 177.6,356.3" fill = "none" stroke = "black" /> 
<path d = "M 177.6 356.3 C 177.6 357.8, 187.6 357.8, 187.6 356.3" stroke = "black" fill = "transparent"/>
<polyline points = "187.6 356.3 192.6,356.3" fill = "none" stroke = "black" /> 
<polyline points = "192.6 356.3 195.0,356.3" fill = "none" stroke = "black" /> 
<polyline points = "172.6,359.8 177.6,359.8" fill = "none" stroke = "black" /> 
<path d = "M 177.6 359.8 C 177.6 361.3, 187.6 361.3, 187.6 359.8" stroke = "black" fill = "transparent"/>
<polyline points = "187.6 359.8 192.6,359.8" fill = "none" stroke = "black" /> 
<polyline points = "192.6 359.8 195.0,359.8" fill = "none" stroke = "black" /> 
</svg>