<?xml version = "1.0" encoding = "UTF-8" ?> 
<svg xmlns="http://www.w3.org/2000/svg" version = "1.1"> 
<line x1="25" y1="20" x2="63.400000000000006" y2 ="20" style="stroke:red;stroke:4"/>
<text x = "73.4" y = "25" font-size = "12px" fill = "red"> = 1 inch (2:5 scale) </text> 
<polyline points="25,30 140.20000000000002,30 " style="fill:none;stroke:black;stroke:2"/>
<polyline points="140.20000000000002,30.0 147.88000000000002,30.0 147.88000000000002,49.2 140.20000000000002,49.2 140.20000000000002,68.4 140.20000000000002,68.4 147.88000000000002,68.4 147.88000000000002,87.60000000000001 140.20000000000002,87.60000000000001 140.20000000000002,106.80000000000001 140.20000000000002,106.80000000000001 147.88000000000002,106.80000000000001 147.88000000000002,126.00000000000001 140.20000000000002,126.00000000000001 140.20000000000002,145.20000000000002 " style="fill:none;stroke:black;stroke:2"/>
<line x1 = "140.20000000000002" y1 = "56.91023622045" x2 = "140.20000000000002" y2 = "60.689763779550006" style="fill:none;stroke:white;stroke:2"/>
<line x1 = "140.20000000000002" y1 = "133.71023622045" x2 = "140.20000000000002" y2 = "137.48976377955" style="fill:none;stroke:white;stroke:2"/>
<polyline points = "140.20000000000002,56.91023622045 134.03181102364002,56.91023622045 134.03181102364002,55.0204724409 131.76409448818,55.0204724409 131.76409448818,56.91023622045 127.22866141726001,56.91023622045 127.22866141726001,60.689763779550006 131.76409448818,60.689763779550006 131.76409448818,62.57952755910001 134.03181102364002,62.57952755910001 134.03181102364002,60.689763779550006 140.20000000000002,60.689763779550006" style="fill:none;stroke:black;stroke:2"/>
<polyline points = "140.20000000000002,133.71023622045 134.03181102364002,133.71023622045 134.03181102364002,131.8204724409 131.76409448818,131.8204724409 131.76409448818,133.71023622045 127.22866141726001,133.71023622045 127.22866141726001,137.48976377955 131.76409448818,137.48976377955 131.76409448818,139.3795275591 134.03181102364002,139.3795275591 134.03181102364002,137.48976377955 140.20000000000002,137.48976377955" style="fill:none;stroke:black;stroke:2"/>
<polyline points="140.20000000000002,145.20000000000002 140.20000000000002,152.88000000000002 121.00000000000001,152.88000000000002 121.00000000000001,145.20000000000002 101.80000000000001,145.20000000000002 101.80000000000001,145.20000000000002 101.80000000000001,152.88000000000002 82.60000000000001,152.88000000000002 82.60000000000001,145.20000000000002 63.400000000000006,145.20000000000002 63.400000000000006,145.20000000000002 63.400000000000006,152.88000000000002 44.2,152.88000000000002 44.2,145.20000000000002 25.0,145.20000000000002 " style="fill:none;stroke:black;stroke:2"/>
<line x1 = "32.71023622045" y1 = "145.20000000000002" x2 = "36.48976377955" y2 = "145.20000000000002" style="fill:none;stroke:white;stroke:2"/>
<line x1 = "109.51023622045001" y1 = "145.20000000000002" x2 = "113.28976377955001" y2 = "145.20000000000002" style="fill:none;stroke:white;stroke:2"/>
<polyline points = "32.71023622045,145.20000000000002 32.71023622045,139.03181102364002 30.820472440899998,139.03181102364002 30.820472440899998,136.76409448818 32.71023622045,136.76409448818 32.71023622045,132.22866141726 36.48976377955,132.22866141726 36.48976377955,136.76409448818 38.379527559100005,136.76409448818 38.379527559100005,139.03181102364002 36.48976377955,139.03181102364002 36.48976377955,145.20000000000002" style="fill:none;stroke:black;stroke:2"/>
<polyline points = "109.51023622045001,145.20000000000002 109.51023622045001,139.03181102364002 107.62047244090002,139.03181102364002 107.62047244090002,136.76409448818 109.51023622045001,136.76409448818 109.51023622045001,132.22866141726 113.28976377955001,132.22866141726 113.28976377955001,136.76409448818 115.17952755910002,136.76409448818 115.17952755910002,139.03181102364002 113.28976377955001,139.03181102364002 113.28976377955001,145.20000000000002" style="fill:none;stroke:black;stroke:2"/>
<polyline points="25.0,145.20000000000002 17.32,145.20000000000002 17.32,126.00000000000001 25.0,126.00000000000001 25.0,106.80000000000001 25.0,106.80000000000001 17.32,106.80000000000001 17.32,87.60000000000001 25.0,87.60000000000001 25.0,68.4 25.0,68.4 17.32,68.4 17.32,49.2 25.0,49.2 25.0,30.0 " style="fill:none;stroke:black;stroke:2"/>
<circle cx = "23.04976377955" cy = "58.800000000000004" r = "1.88976377955" style="fill:none;stroke:black;stroke:2"/>
<circle cx = "23.04976377955" cy = "135.60000000000002" r = "1.88976377955" style="fill:none;stroke:black;stroke:2"/>
<polyline points="160.56,30 275.76,30 " style="fill:none;stroke:black;stroke:2"/>
<polyline points="275.76,30.0 283.44,30.0 283.44,49.2 275.76,49.2 275.76,68.4 275.76,68.4 283.44,68.4 283.44,87.60000000000001 275.76,87.60000000000001 275.76,106.80000000000001 275.76,106.80000000000001 283.44,106.80000000000001 283.44,126.00000000000001 275.76,126.00000000000001 275.76,145.20000000000002 " style="fill:none;stroke:black;stroke:2"/>
<line x1 = "275.76" y1 = "56.91023622045" x2 = "275.76" y2 = "60.689763779550006" style="fill:none;stroke:white;stroke:2"/>
<line x1 = "275.76" y1 = "133.71023622045" x2 = "275.76" y2 = "137.48976377955" style="fill:none;stroke:white;stroke:2"/>
<polyline points = "275.76,56.91023622045 269.59181102364,56.91023622045 269.59181102364,55.0204724409 267.32409448818,55.0204724409 267.32409448818,56.91023622045 262.78866141725996,56.91023622045 262.78866141725996,60.689763779550006 267.32409448818,60.689763779550006 267.32409448818,62.57952755910001 269.59181102364,62.57952755910001 269.59181102364,60.689763779550006 275.76,60.689763779550006" style="fill:none;stroke:black;stroke:2"/>
<polyline points = "275.76,133.71023622045 269.59181102364,133.71023622045 269.59181102364,131.8204724409 267.32409448818,131.8204724409 267.32409448818,133.71023622045 262.78866141725996,133.71023622045 262.78866141725996,137.48976377955 267.32409448818,137.48976377955 267.32409448818,139.3795275591 269.59181102364,139.3795275591 269.59181102364,137.48976377955 275.76,137.48976377955" style="fill:none;stroke:black;stroke:2"/>
<polyline points="275.76,145.20000000000002 275.76,152.88000000000002 256.56,152.88000000000002 256.56,145.20000000000002 237.36,145.20000000000002 237.35999999999999,145.20000000000002 237.35999999999999,152.88000000000002 218.16,152.88000000000002 218.16,145.20000000000002 198.96,145.20000000000002 198.95999999999998,145.20000000000002 198.95999999999998,152.88000000000002 179.76,152.88000000000002 179.76,145.20000000000002 160.56,145.20000000000002 " style="fill:none;stroke:black;stroke:2"/>
<line x1 = "168.27023622044996" y1 = "145.20000000000002" x2 = "172.04976377954995" y2 = "145.20000000000002" style="fill:none;stroke:white;stroke:2"/>
<line x1 = "245.07023622044997" y1 = "145.20000000000002" x2 = "248.84976377954996" y2 = "145.20000000000002" style="fill:none;stroke:white;stroke:2"/>
<polyline points = "168.27023622044996,145.20000000000002 168.27023622044996,139.03181102364002 166.38047244089995,139.03181102364002 166.38047244089995,136.76409448818 168.27023622044996,136.76409448818 168.27023622044996,132.22866141726 172.04976377954995,132.22866141726 172.04976377954995,136.76409448818 173.93952755909996,136.76409448818 173.93952755909996,139.03181102364002 172.04976377954995,139.03181102364002 172.04976377954995,145.20000000000002" style="fill:none;stroke:black;stroke:2"/>
<polyline points = "245.07023622044997,145.20000000000002 245.07023622044997,139.03181102364002 243.18047244089996,139.03181102364002 243.18047244089996,136.76409448818 245.07023622044997,136.76409448818 245.07023622044997,132.22866141726 248.84976377954996,132.22866141726 248.84976377954996,136.76409448818 250.73952755909997,136.76409448818 250.73952755909997,139.03181102364002 248.84976377954996,139.03181102364002 248.84976377954996,145.20000000000002" style="fill:none;stroke:black;stroke:2"/>
<polyline points="160.55999999999997,145.20000000000002 152.87999999999997,145.20000000000002 152.87999999999997,126.00000000000001 160.55999999999997,126.00000000000001 160.55999999999997,106.80000000000001 160.55999999999997,106.80000000000001 152.87999999999997,106.80000000000001 152.87999999999997,87.60000000000001 160.55999999999997,87.60000000000001 160.55999999999997,68.4 160.55999999999997,68.4 152.87999999999997,68.4 152.87999999999997,49.2 160.55999999999997,49.2 160.55999999999997,30.0 " style="fill:none;stroke:black;stroke:2"/>
<circle cx = "158.60976377955" cy = "58.800000000000004" r = "1.88976377955" style="fill:none;stroke:black;stroke:2"/>
<circle cx = "158.60976377955" cy = "135.60000000000002" r = "1.88976377955" style="fill:none;stroke:black;stroke:2"/>
<polyline points="296.12,30 411.32000000000005,30 " style="fill:none;stroke:black;stroke:2"/>
<polyline points="411.32000000000005,30.0 419.00000000000006,30.0 419.00000000000006,49.2 411.32000000000005,49.2 411.32000000000005,68.4 411.32000000000005,68.4 419.00000000000006,68.4 419.00000000000006,87.60000000000001 411.32000000000005,87.60000000000001 411.32000000000005,106.80000000000001 411.32000000000005,106.80000000000001 419.00000000000006,106.80000000000001 419.00000000000006,126.00000000000001 411.32000000000005,126.00000000000001 411.32000000000005,145.20000000000002 " style="fill:none;stroke:black;stroke:2"/>
<line x1 = "411.32000000000005" y1 = "56.91023622045" x2 = "411.32000000000005" y2 = "60.689763779550006" style="fill:none;stroke:white;stroke:2"/>
<line x1 = "411.32000000000005" y1 = "133.71023622045" x2 = "411.32000000000005" y2 = "137.48976377955" style="fill:none;stroke:white;stroke:2"/>
<polyline points = "411.32000000000005,56.91023622045 405.15181102364005,56.91023622045 405.15181102364005,55.0204724409 402.88409448818004,55.0204724409 402.88409448818004,56.91023622045 398.34866141726,56.91023622045 398.34866141726,60.689763779550006 402.88409448818004,60.689763779550006 402.88409448818004,62.57952755910001 405.15181102364005,62.57952755910001 405.15181102364005,60.689763779550006 411.32000000000005,60.689763779550006" style="fill:none;stroke:black;stroke:2"/>
<polyline points = "411.32000000000005,133.71023622045 405.15181102364005,133.71023622045 405.15181102364005,131.8204724409 402.88409448818004,131.8204724409 402.88409448818004,133.71023622045 398.34866141726,133.71023622045 398.34866141726,137.48976377955 402.88409448818004,137.48976377955 402.88409448818004,139.3795275591 405.15181102364005,139.3795275591 405.15181102364005,137.48976377955 411.32000000000005,137.48976377955" style="fill:none;stroke:black;stroke:2"/>
<polyline points="411.32000000000005,145.20000000000002 411.32000000000005,152.88000000000002 392.12000000000006,152.88000000000002 392.12000000000006,145.20000000000002 372.9200000000001,145.20000000000002 372.9200000000001,145.20000000000002 372.9200000000001,152.88000000000002 353.72,152.88000000000002 353.72,145.20000000000002 334.5200000000001,145.20000000000002 334.52000000000004,145.20000000000002 334.52000000000004,152.88000000000002 315.32000000000005,152.88000000000002 315.32000000000005,145.20000000000002 296.12000000000006,145.20000000000002 " style="fill:none;stroke:black;stroke:2"/>
<polyline points="296.12,145.20000000000002 288.44,145.20000000000002 288.44,126.00000000000001 296.12,126.00000000000001 296.12,106.80000000000001 296.12,106.80000000000001 288.44,106.80000000000001 288.44,87.60000000000001 296.12,87.60000000000001 296.12,68.4 296.12,68.4 288.44,68.4 288.44,49.2 296.12,49.2 296.12,30.0 " style="fill:none;stroke:black;stroke:2"/>
<circle cx = "294.16976377955" cy = "58.800000000000004" r = "1.88976377955" style="fill:none;stroke:black;stroke:2"/>
<circle cx = "294.16976377955" cy = "135.60000000000002" r = "1.88976377955" style="fill:none;stroke:black;stroke:2"/>
<polyline points="431.68,30 546.88,30 " style="fill:none;stroke:black;stroke:2"/>
<polyline points="546.88,30.0 554.56,30.0 554.56,49.2 546.88,49.2 546.88,68.4 546.88,68.4 554.56,68.4 554.56,87.60000000000001 546.88,87.60000000000001 546.88,106.80000000000001 546.88,106.80000000000001 554.56,106.80000000000001 554.56,126.00000000000001 546.88,126.00000000000001 546.88,145.20000000000002 " style="fill:none;stroke:black;stroke:2"/>
<line x1 = "546.88" y1 = "56.91023622045" x2 = "546.88" y2 = "60.689763779550006" style="fill:none;stroke:white;stroke:2"/>
<line x1 = "546.88" y1 = "133.71023622045" x2 = "546.88" y2 = "137.48976377955" style="fill:none;stroke:white;stroke:2"/>
<polyline points = "546.88,56.91023622045 540.71181102364,56.91023622045 540.71181102364,55.0204724409 538.4440944881801,55.0204724409 538.4440944881801,56.91023622045 533.9086614172601,56.91023622045 533.9086614172601,60.689763779550006 538.4440944881801,60.689763779550006 538.4440944881801,62.57952755910001 540.71181102364,62.57952755910001 540.71181102364,60.689763779550006 546.88,60.689763779550006" style="fill:none;stroke:black;stroke:2"/>
<polyline points = "546.88,133.71023622045 540.71181102364,133.71023622045 540.71181102364,131.8204724409 538.4440944881801,131.8204724409 538.4440944881801,133.71023622045 533.9086614172601,133.71023622045 533.9086614172601,137.48976377955 538.4440944881801,137.48976377955 538.4440944881801,139.3795275591 540.71181102364,139.3795275591 540.71181102364,137.48976377955 546.88,137.48976377955" style="fill:none;stroke:black;stroke:2"/>
<polyline points="546.88,145.20000000000002 546.88,152.88000000000002 527.68,152.88000000000002 527.68,145.20000000000002 508.47999999999996,145.20000000000002 508.48,145.20000000000002 508.48,152.88000000000002 489.28,152.88000000000002 489.28,145.20000000000002 470.0799999999999,145.20000000000002 470.08,145.20000000000002 470.08,152.88000000000002 450.87999999999994,152.88000000000002 450.87999999999994,145.20000000000002 431.67999999999995,145.20000000000002 " style="fill:none;stroke:black;stroke:2"/>
<polyline points="431.67999999999995,145.20000000000002 423.99999999999994,145.20000000000002 423.99999999999994,126.00000000000001 431.67999999999995,126.00000000000001 431.67999999999995,106.80000000000001 431.67999999999995,106.80000000000001 423.99999999999994,106.80000000000001 423.99999999999994,87.60000000000001 431.67999999999995,87.60000000000001 431.67999999999995,68.4 431.67999999999995,68.4 423.99999999999994,68.4 423.99999999999994,49.2 431.67999999999995,49.2 431.67999999999995,30.0 " style="fill:none;stroke:black;stroke:2"/>
<circle cx = "429.72976377955" cy = "58.800000000000004" r = "1.88976377955" style="fill:none;stroke:black;stroke:2"/>
<circle cx = "429.72976377955" cy = "135.60000000000002" r = "1.88976377955" style="fill:none;stroke:black;stroke:2"/>
<polyline points="160.56,165.56 160.56,157.88                   179.76,157.88 179.76,165.56 198.95999999999998,165.56 198.96,165.56 198.96,157.88                   218.16,157.88 218.16,165.56 237.35999999999999,165.56 237.36,165.56 237.36,157.88                   256.56,157.88 256.56,165.56 275.76,165.56 " style="fill:none;stroke:black;stroke:2"/>
<circle cx = "170.16" cy = "163.60976377955" r = "1.88976377955" style="fill:none;stroke:black;stroke:1"/>
<circle cx = "246.96" cy = "163.60976377955" r = "1.88976377955" style="fill:none;stroke:black;stroke:1"/>
<polyline points="275.76,165.56 283.44,165.56 283.44,184.76 275.76,184.76 275.76,203.95999999999998 275.76,203.96 283.44,203.96 283.44,223.16 275.76,223.16 275.76,242.35999999999999 275.76,242.36 283.44,242.36 283.44,261.56 275.76,261.56 275.76,280.76 " style="fill:none;stroke:black;stroke:2"/>
<polyline points="275.76,280.76 275.76,288.44 256.56,288.44 256.56,280.76 237.36,280.76 237.35999999999999,280.76 237.35999999999999,288.44 218.16,288.44 218.16,280.76 198.96,280.76 198.95999999999998,280.76 198.95999999999998,288.44 179.76,288.44 179.76,280.76 160.56,280.76 " style="fill:none;stroke:black;stroke:2"/>
<circle cx = "189.35999999999999" cy = "282.71023622045" r = "1.88976377955" style="fill:none;stroke:black;stroke:1"/>
<circle cx = "266.15999999999997" cy = "282.71023622045" r = "1.88976377955" style="fill:none;stroke:black;stroke:1"/>
<polyline points="160.55999999999997,280.76 152.87999999999997,280.76 152.87999999999997,261.56 160.55999999999997,261.56 160.55999999999997,242.36 160.55999999999997,242.35999999999999 152.87999999999997,242.35999999999999 152.87999999999997,223.16 160.55999999999997,223.16 160.55999999999997,203.96 160.55999999999997,203.95999999999998 152.87999999999997,203.95999999999998 152.87999999999997,184.76 160.55999999999997,184.76 160.55999999999997,165.56 " style="fill:none;stroke:black;stroke:2"/>
<text x = "25" y = "306.12" dy = "0">
<tspan x = "20" dy = ".6em" >BOX ATTRIBUTES </tspan>
<tspan x = "20" dy = "1.2em" >thickness: </tspan>
<tspan x = "20" dy = "1.2em" >width: </tspan>
<tspan x = "20" dy = "1.2em" >length:  </tspan>
<tspan x = "20" dy = "1.2em" >height: </tspan>
<tspan x = "20" dy = "1.2em" >partition:  </tspan>
<tspan x = "20" dy = "1.2em" >partition location: </tspan>
<tspan x = "20" dy = "1.2em" >lid: </tspan>
<tspan x = "20" dy = "1.2em" >top text: </tspan>
<tspan x = "20" dy = "1.2em" >front text: </tspan>
<tspan x = "20" dy = "1.2em" >fractal: </tspan>
<tspan x = "20" dy = "1.2em" >fractal side/bottom: </tspan>
<tspan x = "20" dy = "1.2em" >front text string: </tspan>
<tspan x = "20" dy = "1.2em" >top text string: </tspan>
</text><text x = "200" y = "306.12" dy = "0">
<tspan x = "200" dy = ".6em" > VALUES </tspan>
<tspan x = "200" dy = "1.2em" >0.2</tspan>
<tspan x = "200" dy = "1.2em" >3</tspan>
<tspan x = "200" dy = "1.2em" >3</tspan>
<tspan x = "200" dy = "1.2em" >3</tspan>
<tspan x = "200" dy = "1.2em" >False</tspan>
<tspan x = "200" dy = "1.2em" >0</tspan>
<tspan x = "200" dy = "1.2em" >False</tspan>
<tspan x = "200" dy = "1.2em" >False</tspan>
<tspan x = "200" dy = "1.2em" >False</tspan>
<tspan x = "200" dy = "1.2em" >False</tspan>
<tspan x = "200" dy = "1.2em" ></tspan>
<tspan x = "200" dy = "1.2em" ></tspan>
<tspan x = "200" dy = "1.2em" ></tspan>
</text></svg>