<?xml version = "1.0" encoding = "UTF-8" ?> 
<svg xmlns="http://www.w3.org/2000/svg" version = "1.1"> 
<line x1="25" y1="20" x2="63.400000000000006" y2 ="20" style="stroke:red;stroke:4"/>
<text x = "73.4" y = "25" font-size = "12px" fill = "red"> = 1 inch (2:5 scale) </text> 
<polyline points="25,30 178.60000000000002,30 " style="fill:none;stroke:black;stroke:2"/>
<polyline points="178.60000000000002,30.0 183.13120000000004,30.0 183.13120000000004,49.2 178.60000000000002,49.2 178.60000000000002,68.4 178.60000000000002,68.4 183.13120000000004,68.4 183.13120000000004,87.60000000000001 178.60000000000002,87.60000000000001 178.60000000000002,106.80000000000001 178.60000000000002,106.80000000000001 183.13120000000004,106.80000000000001 183.13120000000004,126.00000000000001 178.60000000000002,126.00000000000001 178.60000000000002,145.20000000000002 178.60000000000002,145.20000000000002 183.13120000000004,145.20000000000002 183.13120000000004,164.40000000000003 178.60000000000002,164.40000000000003 178.60000000000002,183.60000000000002 178.60000000000002,183.60000000000002 183.13120000000004,183.60000000000002 183.13120000000004,202.8 178.60000000000002,202.8 178.60000000000002,222.00000000000003 " style="fill:none;stroke:black;stroke:2"/>
<line x1 = "178.60000000000002" y1 = "57.288188976360004" x2 = "178.60000000000002" y2 = "60.311811023640004" style="fill:none;stroke:white;stroke:2"/>
<line x1 = "178.60000000000002" y1 = "210.88818897636003" x2 = "178.60000000000002" y2 = "213.91181102364004" style="fill:none;stroke:white;stroke:2"/>
<polyline points = "178.60000000000002,57.288188976360004 175.58061102364002,57.288188976360004 175.58061102364002,55.02047244090001 173.31289448818,55.02047244090001 173.31289448818,57.288188976360004 168.77746141726,57.288188976360004 168.77746141726,60.311811023640004 173.31289448818,60.311811023640004 173.31289448818,62.5795275591 175.58061102364002,62.5795275591 175.58061102364002,60.311811023640004 178.60000000000002,60.311811023640004" style="fill:none;stroke:black;stroke:2"/>
<polyline points = "178.60000000000002,210.88818897636003 175.58061102364002,210.88818897636003 175.58061102364002,208.62047244090002 173.31289448818,208.62047244090002 173.31289448818,210.88818897636003 168.77746141726,210.88818897636003 168.77746141726,213.91181102364004 173.31289448818,213.91181102364004 173.31289448818,216.17952755910002 175.58061102364002,216.17952755910002 175.58061102364002,213.91181102364004 178.60000000000002,213.91181102364004" style="fill:none;stroke:black;stroke:2"/>
<polyline points="178.60000000000002,222.00000000000003 178.60000000000002,226.53120000000004 159.40000000000003,226.53120000000004 159.40000000000003,222.00000000000003 140.20000000000005,222.00000000000003 140.20000000000002,222.00000000000003 140.20000000000002,226.53120000000004 121.00000000000003,226.53120000000004 121.00000000000003,222.00000000000003 101.80000000000004,222.00000000000003 101.80000000000001,222.00000000000003 101.80000000000001,226.53120000000004 82.60000000000002,226.53120000000004 82.60000000000002,222.00000000000003 63.400000000000034,222.00000000000003 63.400000000000006,222.00000000000003 63.400000000000006,226.53120000000004 44.20000000000002,226.53120000000004 44.20000000000002,222.00000000000003 25.00000000000003,222.00000000000003 " style="fill:none;stroke:black;stroke:2"/>
<line x1 = "33.08818897636" y1 = "222.00000000000003" x2 = "36.11181102364" y2 = "222.00000000000003" style="fill:none;stroke:white;stroke:2"/>
<line x1 = "148.28818897636" y1 = "222.00000000000003" x2 = "151.31181102364002" y2 = "222.00000000000003" style="fill:none;stroke:white;stroke:2"/>
<polyline points = "33.08818897636,222.00000000000003 33.08818897636,218.98061102364002 30.8204724409,218.98061102364002 30.8204724409,216.71289448818 33.08818897636,216.71289448818 33.08818897636,212.17746141726002 36.11181102364,212.17746141726002 36.11181102364,216.71289448818 38.3795275591,216.71289448818 38.3795275591,218.98061102364002 36.11181102364,218.98061102364002 36.11181102364,222.00000000000003" style="fill:none;stroke:black;stroke:2"/>
<polyline points = "148.28818897636,222.00000000000003 148.28818897636,218.98061102364002 146.02047244090002,218.98061102364002 146.02047244090002,216.71289448818 148.28818897636,216.71289448818 148.28818897636,212.17746141726002 151.31181102364002,212.17746141726002 151.31181102364002,216.71289448818 153.57952755910003,216.71289448818 153.57952755910003,218.98061102364002 151.31181102364002,218.98061102364002 151.31181102364002,222.00000000000003" style="fill:none;stroke:black;stroke:2"/>
<polyline points="25.0,222.00000000000003 20.4688,222.00000000000003 20.4688,202.8 25.0,202.8 25.0,183.60000000000002 25.0,183.60000000000002 20.4688,183.60000000000002 20.4688,164.4 25.0,164.4 25.0,145.20000000000002 25.0,145.20000000000002 20.4688,145.20000000000002 20.4688,126.0 25.0,126.0 25.0,106.80000000000001 25.0,106.80000000000001 20.4688,106.80000000000001 20.4688,87.6 25.0,87.6 25.0,68.4 25.0,68.4 20.4688,68.4 20.4688,49.19999999999999 25.0,49.19999999999999 25.0,30.0 " style="fill:none;stroke:black;stroke:2"/>
<circle cx = "24.24621102364" cy = "58.800000000000004" r = "1.51181102364" style="fill:none;stroke:black;stroke:2"/>
<circle cx = "24.24621102364" cy = "212.40000000000003" r = "1.51181102364" style="fill:none;stroke:black;stroke:2"/>
<polyline points="192.66240000000002,30 346.26240000000007,30 " style="fill:none;stroke:black;stroke:2"/>
<polyline points="346.26240000000007,30.0 350.7936000000001,30.0 350.7936000000001,49.2 346.26240000000007,49.2 346.26240000000007,68.4 346.26240000000007,68.4 350.7936000000001,68.4 350.7936000000001,87.60000000000001 346.26240000000007,87.60000000000001 346.26240000000007,106.80000000000001 346.26240000000007,106.80000000000001 350.7936000000001,106.80000000000001 350.7936000000001,126.00000000000001 346.26240000000007,126.00000000000001 346.26240000000007,145.20000000000002 346.26240000000007,145.20000000000002 350.7936000000001,145.20000000000002 350.7936000000001,164.40000000000003 346.26240000000007,164.40000000000003 346.26240000000007,183.60000000000002 346.26240000000007,183.60000000000002 350.7936000000001,183.60000000000002 350.7936000000001,202.8 346.26240000000007,202.8 346.26240000000007,222.00000000000003 " style="fill:none;stroke:black;stroke:2"/>
<line x1 = "346.26240000000007" y1 = "57.288188976360004" x2 = "346.26240000000007" y2 = "60.311811023640004" style="fill:none;stroke:white;stroke:2"/>
<line x1 = "346.26240000000007" y1 = "210.88818897636003" x2 = "346.26240000000007" y2 = "213.91181102364004" style="fill:none;stroke:white;stroke:2"/>
<polyline points = "346.26240000000007,57.288188976360004 343.24301102364007,57.288188976360004 343.24301102364007,55.02047244090001 340.97529448818005,55.02047244090001 340.97529448818005,57.288188976360004 336.43986141726003,57.288188976360004 336.43986141726003,60.311811023640004 340.97529448818005,60.311811023640004 340.97529448818005,62.5795275591 343.24301102364007,62.5795275591 343.24301102364007,60.311811023640004 346.26240000000007,60.311811023640004" style="fill:none;stroke:black;stroke:2"/>
<polyline points = "346.26240000000007,210.88818897636003 343.24301102364007,210.88818897636003 343.24301102364007,208.62047244090002 340.97529448818005,208.62047244090002 340.97529448818005,210.88818897636003 336.43986141726003,210.88818897636003 336.43986141726003,213.91181102364004 340.97529448818005,213.91181102364004 340.97529448818005,216.17952755910002 343.24301102364007,216.17952755910002 343.24301102364007,213.91181102364004 346.26240000000007,213.91181102364004" style="fill:none;stroke:black;stroke:2"/>
<polyline points="346.26240000000007,222.00000000000003 346.26240000000007,226.53120000000004 327.0624000000001,226.53120000000004 327.0624000000001,222.00000000000003 307.8624000000001,222.00000000000003 307.8624000000001,222.00000000000003 307.8624000000001,226.53120000000004 288.66240000000005,226.53120000000004 288.66240000000005,222.00000000000003 269.4624000000001,222.00000000000003 269.46240000000006,222.00000000000003 269.46240000000006,226.53120000000004 250.26240000000007,226.53120000000004 250.26240000000007,222.00000000000003 231.06240000000008,222.00000000000003 231.06240000000005,222.00000000000003 231.06240000000005,226.53120000000004 211.86240000000006,226.53120000000004 211.86240000000006,222.00000000000003 192.66240000000008,222.00000000000003 " style="fill:none;stroke:black;stroke:2"/>
<line x1 = "200.75058897636004" y1 = "222.00000000000003" x2 = "203.77421102364002" y2 = "222.00000000000003" style="fill:none;stroke:white;stroke:2"/>
<line x1 = "315.95058897636005" y1 = "222.00000000000003" x2 = "318.97421102364" y2 = "222.00000000000003" style="fill:none;stroke:white;stroke:2"/>
<polyline points = "200.75058897636004,222.00000000000003 200.75058897636004,218.98061102364002 198.48287244090002,218.98061102364002 198.48287244090002,216.71289448818 200.75058897636004,216.71289448818 200.75058897636004,212.17746141726002 203.77421102364002,212.17746141726002 203.77421102364002,216.71289448818 206.04192755910003,216.71289448818 206.04192755910003,218.98061102364002 203.77421102364002,218.98061102364002 203.77421102364002,222.00000000000003" style="fill:none;stroke:black;stroke:2"/>
<polyline points = "315.95058897636005,222.00000000000003 315.95058897636005,218.98061102364002 313.68287244090004,218.98061102364002 313.68287244090004,216.71289448818 315.95058897636005,216.71289448818 315.95058897636005,212.17746141726002 318.97421102364,212.17746141726002 318.97421102364,216.71289448818 321.2419275591001,216.71289448818 321.2419275591001,218.98061102364002 318.97421102364,218.98061102364002 318.97421102364,222.00000000000003" style="fill:none;stroke:black;stroke:2"/>
<polyline points="192.66240000000005,222.00000000000003 188.13120000000004,222.00000000000003 188.13120000000004,202.8 192.66240000000005,202.8 192.66240000000005,183.60000000000002 192.66240000000005,183.60000000000002 188.13120000000004,183.60000000000002 188.13120000000004,164.4 192.66240000000005,164.4 192.66240000000005,145.20000000000002 192.66240000000005,145.20000000000002 188.13120000000004,145.20000000000002 188.13120000000004,126.0 192.66240000000005,126.0 192.66240000000005,106.80000000000001 192.66240000000005,106.80000000000001 188.13120000000004,106.80000000000001 188.13120000000004,87.6 192.66240000000005,87.6 192.66240000000005,68.4 192.66240000000005,68.4 188.13120000000004,68.4 188.13120000000004,49.19999999999999 192.66240000000005,49.19999999999999 192.66240000000005,30.0 " style="fill:none;stroke:black;stroke:2"/>
<circle cx = "191.90861102364002" cy = "58.800000000000004" r = "1.51181102364" style="fill:none;stroke:black;stroke:2"/>
<circle cx = "191.90861102364002" cy = "212.40000000000003" r = "1.51181102364" style="fill:none;stroke:black;stroke:2"/>
<polyline points="360.32480000000004,30 552.3248000000001,30 " style="fill:none;stroke:black;stroke:2"/>
<polyline points="552.3248000000001,30.0 556.8560000000001,30.0 556.8560000000001,49.2 552.3248000000001,49.2 552.3248000000001,68.4 552.3248000000001,68.4 556.8560000000001,68.4 556.8560000000001,87.60000000000001 552.3248000000001,87.60000000000001 552.3248000000001,106.80000000000001 552.3248000000001,106.80000000000001 556.8560000000001,106.80000000000001 556.8560000000001,126.00000000000001 552.3248000000001,126.00000000000001 552.3248000000001,145.20000000000002 552.3248000000001,145.20000000000002 556.8560000000001,145.20000000000002 556.8560000000001,164.40000000000003 552.3248000000001,164.40000000000003 552.3248000000001,183.60000000000002 552.3248000000001,183.60000000000002 556.8560000000001,183.60000000000002 556.8560000000001,202.8 552.3248000000001,202.8 552.3248000000001,222.00000000000003 " style="fill:none;stroke:black;stroke:2"/>
<line x1 = "552.3248000000001" y1 = "57.288188976360004" x2 = "552.3248000000001" y2 = "60.311811023640004" style="fill:none;stroke:white;stroke:2"/>
<line x1 = "552.3248000000001" y1 = "210.88818897636003" x2 = "552.3248000000001" y2 = "213.91181102364004" style="fill:none;stroke:white;stroke:2"/>
<polyline points = "552.3248000000001,57.288188976360004 549.3054110236401,57.288188976360004 549.3054110236401,55.02047244090001 547.0376944881801,55.02047244090001 547.0376944881801,57.288188976360004 542.5022614172601,57.288188976360004 542.5022614172601,60.311811023640004 547.0376944881801,60.311811023640004 547.0376944881801,62.5795275591 549.3054110236401,62.5795275591 549.3054110236401,60.311811023640004 552.3248000000001,60.311811023640004" style="fill:none;stroke:black;stroke:2"/>
<polyline points = "552.3248000000001,210.88818897636003 549.3054110236401,210.88818897636003 549.3054110236401,208.62047244090002 547.0376944881801,208.62047244090002 547.0376944881801,210.88818897636003 542.5022614172601,210.88818897636003 542.5022614172601,213.91181102364004 547.0376944881801,213.91181102364004 547.0376944881801,216.17952755910002 549.3054110236401,216.17952755910002 549.3054110236401,213.91181102364004 552.3248000000001,213.91181102364004" style="fill:none;stroke:black;stroke:2"/>
<polyline points="552.3248000000001,222.00000000000003 552.3248000000001,226.53120000000004 533.1248,226.53120000000004 533.1248,222.00000000000003 513.9248,222.00000000000003 513.9248000000001,222.00000000000003 513.9248000000001,226.53120000000004 494.7248000000001,226.53120000000004 494.7248000000001,222.00000000000003 475.5248,222.00000000000003 475.5248000000001,222.00000000000003 475.5248000000001,226.53120000000004 456.32480000000004,226.53120000000004 456.32480000000004,222.00000000000003 437.1248,222.00000000000003 437.12480000000005,222.00000000000003 437.12480000000005,226.53120000000004 417.9248,226.53120000000004 417.9248,222.00000000000003 398.72479999999996,222.00000000000003 398.7248000000001,222.00000000000003 398.7248000000001,226.53120000000004 379.5248,226.53120000000004 379.5248,222.00000000000003 360.3248,222.00000000000003 " style="fill:none;stroke:black;stroke:2"/>
<polyline points="360.3248000000001,222.00000000000003 355.7936000000001,222.00000000000003 355.7936000000001,202.8 360.3248000000001,202.8 360.3248000000001,183.60000000000002 360.3248000000001,183.60000000000002 355.7936000000001,183.60000000000002 355.7936000000001,164.4 360.3248000000001,164.4 360.3248000000001,145.20000000000002 360.3248000000001,145.20000000000002 355.7936000000001,145.20000000000002 355.7936000000001,126.0 360.3248000000001,126.0 360.3248000000001,106.80000000000001 360.3248000000001,106.80000000000001 355.7936000000001,106.80000000000001 355.7936000000001,87.6 360.3248000000001,87.6 360.3248000000001,68.4 360.3248000000001,68.4 355.7936000000001,68.4 355.7936000000001,49.19999999999999 360.3248000000001,49.19999999999999 360.3248000000001,30.0 " style="fill:none;stroke:black;stroke:2"/>
<circle cx = "359.57101102364004" cy = "58.800000000000004" r = "1.51181102364" style="fill:none;stroke:black;stroke:2"/>
<circle cx = "359.57101102364004" cy = "212.40000000000003" r = "1.51181102364" style="fill:none;stroke:black;stroke:2"/>
<polyline points="566.3872000000001,30 758.3872000000001,30 " style="fill:none;stroke:black;stroke:2"/>
<polyline points="758.3872000000001,30.0 762.9184000000001,30.0 762.9184000000001,49.2 758.3872000000001,49.2 758.3872000000001,68.4 758.3872000000001,68.4 762.9184000000001,68.4 762.9184000000001,87.60000000000001 758.3872000000001,87.60000000000001 758.3872000000001,106.80000000000001 758.3872000000001,106.80000000000001 762.9184000000001,106.80000000000001 762.9184000000001,126.00000000000001 758.3872000000001,126.00000000000001 758.3872000000001,145.20000000000002 758.3872000000001,145.20000000000002 762.9184000000001,145.20000000000002 762.9184000000001,164.40000000000003 758.3872000000001,164.40000000000003 758.3872000000001,183.60000000000002 758.3872000000001,183.60000000000002 762.9184000000001,183.60000000000002 762.9184000000001,202.8 758.3872000000001,202.8 758.3872000000001,222.00000000000003 " style="fill:none;stroke:black;stroke:2"/>
<line x1 = "758.3872000000001" y1 = "57.288188976360004" x2 = "758.3872000000001" y2 = "60.311811023640004" style="fill:none;stroke:white;stroke:2"/>
<line x1 = "758.3872000000001" y1 = "210.88818897636003" x2 = "758.3872000000001" y2 = "213.91181102364004" style="fill:none;stroke:white;stroke:2"/>
<polyline points = "758.3872000000001,57.288188976360004 755.3678110236401,57.288188976360004 755.3678110236401,55.02047244090001 753.1000944881802,55.02047244090001 753.1000944881802,57.288188976360004 748.5646614172601,57.288188976360004 748.5646614172601,60.311811023640004 753.1000944881802,60.311811023640004 753.1000944881802,62.5795275591 755.3678110236401,62.5795275591 755.3678110236401,60.311811023640004 758.3872000000001,60.311811023640004" style="fill:none;stroke:black;stroke:2"/>
<polyline points = "758.3872000000001,210.88818897636003 755.3678110236401,210.88818897636003 755.3678110236401,208.62047244090002 753.1000944881802,208.62047244090002 753.1000944881802,210.88818897636003 748.5646614172601,210.88818897636003 748.5646614172601,213.91181102364004 753.1000944881802,213.91181102364004 753.1000944881802,216.17952755910002 755.3678110236401,216.17952755910002 755.3678110236401,213.91181102364004 758.3872000000001,213.91181102364004" style="fill:none;stroke:black;stroke:2"/>
<polyline points="758.3872000000001,222.00000000000003 758.3872000000001,226.53120000000004 739.1872000000001,226.53120000000004 739.1872000000001,222.00000000000003 719.9872,222.00000000000003 719.9872000000001,222.00000000000003 719.9872000000001,226.53120000000004 700.7872000000001,226.53120000000004 700.7872000000001,222.00000000000003 681.5872,222.00000000000003 681.5872000000002,222.00000000000003 681.5872000000002,226.53120000000004 662.3872000000001,226.53120000000004 662.3872000000001,222.00000000000003 643.1872000000001,222.00000000000003 643.1872000000001,222.00000000000003 643.1872000000001,226.53120000000004 623.9872,226.53120000000004 623.9872,222.00000000000003 604.7872,222.00000000000003 604.7872000000001,222.00000000000003 604.7872000000001,226.53120000000004 585.5872,226.53120000000004 585.5872,222.00000000000003 566.3872,222.00000000000003 " style="fill:none;stroke:black;stroke:2"/>
<polyline points="566.3872000000001,222.00000000000003 561.8560000000001,222.00000000000003 561.8560000000001,202.8 566.3872000000001,202.8 566.3872000000001,183.60000000000002 566.3872000000001,183.60000000000002 561.8560000000001,183.60000000000002 561.8560000000001,164.4 566.3872000000001,164.4 566.3872000000001,145.20000000000002 566.3872000000001,145.20000000000002 561.8560000000001,145.20000000000002 561.8560000000001,126.0 566.3872000000001,126.0 566.3872000000001,106.80000000000001 566.3872000000001,106.80000000000001 561.8560000000001,106.80000000000001 561.8560000000001,87.6 566.3872000000001,87.6 566.3872000000001,68.4 566.3872000000001,68.4 561.8560000000001,68.4 561.8560000000001,49.19999999999999 566.3872000000001,49.19999999999999 566.3872000000001,30.0 " style="fill:none;stroke:black;stroke:2"/>
<circle cx = "565.6334110236402" cy = "58.800000000000004" r = "1.51181102364" style="fill:none;stroke:black;stroke:2"/>
<circle cx = "565.6334110236402" cy = "212.40000000000003" r = "1.51181102364" style="fill:none;stroke:black;stroke:2"/>
<polyline points="192.66240000000002,236.06240000000003 192.66240000000002,231.5312 211.86240000000004,231.5312 211.86240000000004,236.06240000000003 231.06240000000003,236.06240000000003 231.06240000000003,236.06240000000003 231.06240000000003,231.5312 250.26240000000004,231.5312 250.26240000000004,236.06240000000003 269.4624,236.06240000000003 269.4624,236.06240000000003 269.4624,231.5312 288.66240000000005,231.5312 288.66240000000005,236.06240000000003 307.86240000000004,236.06240000000003 307.86240000000004,236.06240000000003 307.86240000000004,231.5312 327.0624,231.5312 327.0624,236.06240000000003 346.26240000000007,236.06240000000003 " style="fill:none;stroke:black;stroke:2"/>
<circle cx = "202.2624" cy = "235.30861102364003" r = "1.51181102364" style="fill:none;stroke:black;stroke:1"/>
<circle cx = "317.4624" cy = "235.30861102364003" r = "1.51181102364" style="fill:none;stroke:black;stroke:1"/>
<polyline points="346.26240000000007,236.06240000000003 350.7936000000001,236.06240000000003 350.7936000000001,255.2624 346.26240000000007,255.2624 346.26240000000007,274.4624 346.26240000000007,274.4624 350.7936000000001,274.4624 350.7936000000001,293.66240000000005 346.26240000000007,293.66240000000005 346.26240000000007,312.8624 346.26240000000007,312.86240000000004 350.7936000000001,312.86240000000004 350.7936000000001,332.0624 346.26240000000007,332.0624 346.26240000000007,351.2624 346.26240000000007,351.26240000000007 350.7936000000001,351.26240000000007 350.7936000000001,370.4624 346.26240000000007,370.4624 346.26240000000007,389.66240000000005 346.26240000000007,389.66240000000005 350.7936000000001,389.66240000000005 350.7936000000001,408.86240000000004 346.26240000000007,408.86240000000004 346.26240000000007,428.0624 " style="fill:none;stroke:black;stroke:2"/>
<polyline points="346.26240000000007,428.0624 346.26240000000007,432.59360000000004 327.0624000000001,432.59360000000004 327.0624000000001,428.0624 307.8624000000001,428.0624 307.8624000000001,428.0624 307.8624000000001,432.59360000000004 288.66240000000005,432.59360000000004 288.66240000000005,428.0624 269.4624000000001,428.0624 269.46240000000006,428.0624 269.46240000000006,432.59360000000004 250.26240000000007,432.59360000000004 250.26240000000007,428.0624 231.06240000000008,428.0624 231.06240000000005,428.0624 231.06240000000005,432.59360000000004 211.86240000000006,432.59360000000004 211.86240000000006,428.0624 192.66240000000008,428.0624 " style="fill:none;stroke:black;stroke:2"/>
<circle cx = "221.46240000000006" cy = "428.81618897636" r = "1.51181102364" style="fill:none;stroke:black;stroke:1"/>
<circle cx = "336.66240000000005" cy = "428.81618897636" r = "1.51181102364" style="fill:none;stroke:black;stroke:1"/>
<polyline points="192.66240000000005,428.0624 188.13120000000004,428.0624 188.13120000000004,408.86240000000004 192.66240000000005,408.86240000000004 192.66240000000005,389.66240000000005 192.66240000000005,389.66240000000005 188.13120000000004,389.66240000000005 188.13120000000004,370.4624 192.66240000000005,370.4624 192.66240000000005,351.26240000000007 192.66240000000005,351.2624 188.13120000000004,351.2624 188.13120000000004,332.0624 192.66240000000005,332.0624 192.66240000000005,312.86240000000004 192.66240000000005,312.8624 188.13120000000004,312.8624 188.13120000000004,293.66240000000005 192.66240000000005,293.66240000000005 192.66240000000005,274.4624 192.66240000000005,274.4624 188.13120000000004,274.4624 188.13120000000004,255.2624 192.66240000000005,255.2624 192.66240000000005,236.06240000000003 " style="fill:none;stroke:black;stroke:2"/>
<text x = "25" y = "447.12480000000005" dy = "0">
<tspan x = "20" dy = ".6em" >BOX ATTRIBUTES </tspan>
<tspan x = "20" dy = "1.2em" >thickness: </tspan>
<tspan x = "20" dy = "1.2em" >width: </tspan>
<tspan x = "20" dy = "1.2em" >length:  </tspan>
<tspan x = "20" dy = "1.2em" >height: </tspan>
<tspan x = "20" dy = "1.2em" >partition:  </tspan>
<tspan x = "20" dy = "1.2em" >partition location: </tspan>
<tspan x = "20" dy = "1.2em" >lid: </tspan>
<tspan x = "20" dy = "1.2em" >top text: </tspan>
<tspan x = "20" dy = "1.2em" >top text string: </tspan>
<tspan x = "20" dy = "1.2em" >front text: </tspan>
<tspan x = "20" dy = "1.2em" >front text string: </tspan>
<tspan x = "20" dy = "1.2em" >fractal: </tspan>
<tspan x = "20" dy = "1.2em" >fractal side/bottom: </tspan>
</text><text x = "200" y = "447.12480000000005" dy = "0">
<tspan x = "200" dy = ".6em" > VALUES </tspan>
<tspan x = "200" dy = "1.2em" >0.118</tspan>
<tspan x = "200" dy = "1.2em" >4</tspan>
<tspan x = "200" dy = "1.2em" >5</tspan>
<tspan x = "200" dy = "1.2em" >5</tspan>
<tspan x = "200" dy = "1.2em" >False</tspan>
<tspan x = "200" dy = "1.2em" >0</tspan>
<tspan x = "200" dy = "1.2em" >False</tspan>
<tspan x = "200" dy = "1.2em" >False</tspan>
<tspan x = "200" dy = "1.2em" >False</tspan>
<tspan x = "200" dy = "1.2em" >False</tspan>
<tspan x = "200" dy = "1.2em" ></tspan>
<tspan x = "200" dy = "1.2em" ></tspan>
<tspan x = "200" dy = "1.2em" ></tspan>
</text></svg>