<?xml version = "1.0" encoding = "UTF-8" ?> 
<svg xmlns="http://www.w3.org/2000/svg" version = "1.1"> 
<line x1="75" y1="40" x2="113.4" y2 ="40" style="stroke:red;stroke:4"/>
<text x = "123.4" y = "45" font-size = "12px" fill = "red"> = 1 inch (2:5 scale) </text> 
<polyline points="75,75 267.0,75 " style="fill:none;stroke:black;stroke:2"/>
<polyline points="267.0,75.0 271.8,75.0 271.8,94.2 267.0,94.2 267.0,113.4 267.0,113.4 271.8,113.4 271.8,132.60000000000002 267.0,132.60000000000002 267.0,151.8 267.0,151.8 271.8,151.8 271.8,171.0 267.0,171.0 267.0,190.20000000000002 267.0,190.20000000000002 271.8,190.20000000000002 271.8,209.40000000000003 267.0,209.40000000000003 267.0,228.60000000000002 267.0,228.60000000000002 271.8,228.60000000000002 271.8,247.8 267.0,247.8 267.0,267.0 " style="fill:none;stroke:black;stroke:2"/>
<line x1 = "267.0" y1 = "101.91023622045002" x2 = "267.0" y2 = "105.68976377955002" style="fill:none;stroke:white;stroke:2"/>
<line x1 = "267.0" y1 = "255.51023622045005" x2 = "267.0" y2 = "259.28976377955007" style="fill:none;stroke:white;stroke:2"/>
<polyline points = "267.0,101.91023622045002 259.93228346454,101.91023622045002 259.93228346454,99.64251968499002 256.90866141725996,99.64251968499002 256.90866141725996,101.91023622045002 249.34960629905996,101.91023622045002 249.34960629905996,105.68976377955002 256.90866141725996,105.68976377955002 256.90866141725996,107.95748031501002 259.93228346454,107.95748031501002 259.93228346454,105.68976377955002 267.0,105.68976377955002" style="fill:none;stroke:black;stroke:2"/>
<polyline points = "267.0,255.51023622045005 259.93228346454,255.51023622045005 259.93228346454,253.24251968499004 256.90866141725996,253.24251968499004 256.90866141725996,255.51023622045005 249.34960629905996,255.51023622045005 249.34960629905996,259.28976377955007 256.90866141725996,259.28976377955007 256.90866141725996,261.55748031501 259.93228346454,261.55748031501 259.93228346454,259.28976377955007 267.0,259.28976377955007" style="fill:none;stroke:black;stroke:2"/>
<polyline points="267.0,267.0 267.0,271.8 247.8,271.8 247.8,267.0 228.60000000000002,267.0 228.6,267.0 228.6,271.8 209.4,271.8 209.4,267.0 190.20000000000002,267.0 190.2,267.0 190.2,271.8 171.0,271.8 171.0,267.0 151.8,267.0 151.79999999999998,267.0 151.79999999999998,271.8 132.6,271.8 132.6,267.0 113.4,267.0 113.39999999999998,267.0 113.39999999999998,271.8 94.19999999999999,271.8 94.19999999999999,267.0 75.0,267.0 " style="fill:none;stroke:black;stroke:2"/>
<line x1 = "82.71023622044997" y1 = "267.0" x2 = "86.48976377954997" y2 = "267.0" style="fill:none;stroke:white;stroke:2"/>
<line x1 = "236.31023622045" y1 = "267.0" x2 = "240.08976377955" y2 = "267.0" style="fill:none;stroke:white;stroke:2"/>
<polyline points = "82.71023622044997,267.0 82.71023622044997,259.93228346454 80.44251968498997,259.93228346454 80.44251968498997,256.90866141725996 82.71023622044997,256.90866141725996 82.71023622044997,249.34960629905996 86.48976377954997,249.34960629905996 86.48976377954997,256.90866141725996 88.75748031500997,256.90866141725996 88.75748031500997,259.93228346454 86.48976377954997,259.93228346454 86.48976377954997,267.0" style="fill:none;stroke:black;stroke:2"/>
<polyline points = "236.31023622045,267.0 236.31023622045,259.93228346454 234.04251968499,259.93228346454 234.04251968499,256.90866141725996 236.31023622045,256.90866141725996 236.31023622045,249.34960629905996 240.08976377955,249.34960629905996 240.08976377955,256.90866141725996 242.35748031500998,256.90866141725996 242.35748031500998,259.93228346454 240.08976377955,259.93228346454 240.08976377955,267.0" style="fill:none;stroke:black;stroke:2"/>
<polyline points="74.99999999999997,267.0 70.19999999999997,267.0 70.19999999999997,247.8 74.99999999999997,247.8 74.99999999999997,228.60000000000002 74.99999999999997,228.6 70.19999999999997,228.6 70.19999999999997,209.4 74.99999999999997,209.4 74.99999999999997,190.20000000000002 74.99999999999997,190.2 70.19999999999997,190.2 70.19999999999997,171.0 74.99999999999997,171.0 74.99999999999997,151.8 74.99999999999997,151.79999999999998 70.19999999999997,151.79999999999998 70.19999999999997,132.6 74.99999999999997,132.6 74.99999999999997,113.4 74.99999999999997,113.39999999999998 70.19999999999997,113.39999999999998 70.19999999999997,94.19999999999999 74.99999999999997,94.19999999999999 74.99999999999997,75.0 " style="fill:none;stroke:black;stroke:2"/>
<circle cx = "72.6" cy = "103.80000000000001" r = "1.88976377955" style="fill:none;stroke:black;stroke:2"/>
<circle cx = "72.6" cy = "257.40000000000003" r = "1.88976377955" style="fill:none;stroke:black;stroke:2"/>
<polyline points="301.6,75 493.6,75 " style="fill:none;stroke:black;stroke:2"/>
<line x1 = "331.71023622045004" y1 = "75" x2 = "335.48976377955006" y2 = "75" style="fill:none;stroke:white;stroke:2"/>
<line x1 = "459.71023622045004" y1 = "75" x2 = "463.48976377955006" y2 = "75" style="fill:none;stroke:white;stroke:2"/>
<polyline points = "331.71023622045004,75 331.71023622045004,82.06771653546 329.44251968499003,82.06771653546 329.44251968499003,85.09133858274 331.71023622045004,85.09133858274 331.71023622045004,92.65039370093999 335.48976377955006,92.65039370093999 335.48976377955006,85.09133858274 337.75748031501007,85.09133858274 337.75748031501007,82.06771653546 335.48976377955006,82.06771653546 335.48976377955006,75" style="fill:none;stroke:black;stroke:2"/>
<polyline points = "459.71023622045004,75 459.71023622045004,82.06771653546 457.44251968499003,82.06771653546 457.44251968499003,85.09133858274 459.71023622045004,85.09133858274 459.71023622045004,92.65039370093999 463.48976377955006,92.65039370093999 463.48976377955006,85.09133858274 465.75748031501007,85.09133858274 465.75748031501007,82.06771653546 463.48976377955006,82.06771653546 463.48976377955006,75" style="fill:none;stroke:black;stroke:2"/>
<polyline points="493.6,75.0 498.40000000000003,75.0 498.40000000000003,94.2 493.6,94.2 493.6,113.4 493.6,113.4 498.40000000000003,113.4 498.40000000000003,132.60000000000002 493.6,132.60000000000002 493.6,151.8 493.6,151.8 498.40000000000003,151.8 498.40000000000003,171.0 493.6,171.0 493.6,190.20000000000002 493.6,190.20000000000002 498.40000000000003,190.20000000000002 498.40000000000003,209.40000000000003 493.6,209.40000000000003 493.6,228.60000000000002 493.6,228.60000000000002 498.40000000000003,228.60000000000002 498.40000000000003,247.8 493.6,247.8 493.6,267.0 " style="fill:none;stroke:black;stroke:2"/>
<line x1 = "493.6" y1 = "101.91023622045002" x2 = "493.6" y2 = "105.68976377955002" style="fill:none;stroke:white;stroke:2"/>
<line x1 = "493.6" y1 = "255.51023622045005" x2 = "493.6" y2 = "259.28976377955007" style="fill:none;stroke:white;stroke:2"/>
<polyline points = "493.6,101.91023622045002 486.53228346454,101.91023622045002 486.53228346454,99.64251968499002 483.50866141726,99.64251968499002 483.50866141726,101.91023622045002 475.94960629906,101.91023622045002 475.94960629906,105.68976377955002 483.50866141726,105.68976377955002 483.50866141726,107.95748031501002 486.53228346454,107.95748031501002 486.53228346454,105.68976377955002 493.6,105.68976377955002" style="fill:none;stroke:black;stroke:2"/>
<polyline points = "493.6,255.51023622045005 486.53228346454,255.51023622045005 486.53228346454,253.24251968499004 483.50866141726,253.24251968499004 483.50866141726,255.51023622045005 475.94960629906,255.51023622045005 475.94960629906,259.28976377955007 483.50866141726,259.28976377955007 483.50866141726,261.55748031501 486.53228346454,261.55748031501 486.53228346454,259.28976377955007 493.6,259.28976377955007" style="fill:none;stroke:black;stroke:2"/>
<polyline points="493.6,267.0 493.6,271.8 474.40000000000003,271.8 474.40000000000003,267.0 455.20000000000005,267.0 455.20000000000005,267.0 455.20000000000005,271.8 436.0,271.8 436.0,267.0 416.80000000000007,267.0 416.8,267.0 416.8,271.8 397.6,271.8 397.6,267.0 378.40000000000003,267.0 378.4,267.0 378.4,271.8 359.20000000000005,271.8 359.20000000000005,267.0 340.0,267.0 340.0,267.0 340.0,271.8 320.8,271.8 320.8,267.0 301.6,267.0 " style="fill:none;stroke:black;stroke:2"/>
<line x1 = "309.31023622045007" y1 = "267.0" x2 = "313.0897637795501" y2 = "267.0" style="fill:none;stroke:white;stroke:2"/>
<line x1 = "462.9102362204501" y1 = "267.0" x2 = "466.6897637795501" y2 = "267.0" style="fill:none;stroke:white;stroke:2"/>
<polyline points = "309.31023622045007,267.0 309.31023622045007,259.93228346454 307.04251968499005,259.93228346454 307.04251968499005,256.90866141725996 309.31023622045007,256.90866141725996 309.31023622045007,249.34960629905996 313.0897637795501,249.34960629905996 313.0897637795501,256.90866141725996 315.3574803150101,256.90866141725996 315.3574803150101,259.93228346454 313.0897637795501,259.93228346454 313.0897637795501,267.0" style="fill:none;stroke:black;stroke:2"/>
<polyline points = "462.9102362204501,267.0 462.9102362204501,259.93228346454 460.6425196849901,259.93228346454 460.6425196849901,256.90866141725996 462.9102362204501,256.90866141725996 462.9102362204501,249.34960629905996 466.6897637795501,249.34960629905996 466.6897637795501,256.90866141725996 468.9574803150101,256.90866141725996 468.9574803150101,259.93228346454 466.6897637795501,259.93228346454 466.6897637795501,267.0" style="fill:none;stroke:black;stroke:2"/>
<polyline points="301.6,267.0 296.8,267.0 296.8,247.8 301.6,247.8 301.6,228.60000000000002 301.6,228.6 296.8,228.6 296.8,209.4 301.6,209.4 301.6,190.20000000000002 301.6,190.2 296.8,190.2 296.8,171.0 301.6,171.0 301.6,151.8 301.6,151.79999999999998 296.8,151.79999999999998 296.8,132.6 301.6,132.6 301.6,113.4 301.6,113.39999999999998 296.8,113.39999999999998 296.8,94.19999999999999 301.6,94.19999999999999 301.6,75.0 " style="fill:none;stroke:black;stroke:2"/>
<circle cx = "299.20000000000005" cy = "103.80000000000001" r = "1.88976377955" style="fill:none;stroke:black;stroke:2"/>
<circle cx = "299.20000000000005" cy = "257.40000000000003" r = "1.88976377955" style="fill:none;stroke:black;stroke:2"/>
<polyline points="528.2,75 720.2,75 " style="fill:none;stroke:black;stroke:2"/>
<polyline points="720.2,75.0 725.0,75.0 725.0,94.2 720.2,94.2 720.2,113.4 720.2,113.4 725.0,113.4 725.0,132.60000000000002 720.2,132.60000000000002 720.2,151.8 720.2,151.8 725.0,151.8 725.0,171.0 720.2,171.0 720.2,190.20000000000002 720.2,190.20000000000002 725.0,190.20000000000002 725.0,209.40000000000003 720.2,209.40000000000003 720.2,228.60000000000002 720.2,228.60000000000002 725.0,228.60000000000002 725.0,247.8 720.2,247.8 720.2,267.0 " style="fill:none;stroke:black;stroke:2"/>
<line x1 = "720.2" y1 = "101.91023622045002" x2 = "720.2" y2 = "105.68976377955002" style="fill:none;stroke:white;stroke:2"/>
<line x1 = "720.2" y1 = "255.51023622045005" x2 = "720.2" y2 = "259.28976377955007" style="fill:none;stroke:white;stroke:2"/>
<polyline points = "720.2,101.91023622045002 713.1322834645401,101.91023622045002 713.1322834645401,99.64251968499002 710.1086614172601,99.64251968499002 710.1086614172601,101.91023622045002 702.5496062990601,101.91023622045002 702.5496062990601,105.68976377955002 710.1086614172601,105.68976377955002 710.1086614172601,107.95748031501002 713.1322834645401,107.95748031501002 713.1322834645401,105.68976377955002 720.2,105.68976377955002" style="fill:none;stroke:black;stroke:2"/>
<polyline points = "720.2,255.51023622045005 713.1322834645401,255.51023622045005 713.1322834645401,253.24251968499004 710.1086614172601,253.24251968499004 710.1086614172601,255.51023622045005 702.5496062990601,255.51023622045005 702.5496062990601,259.28976377955007 710.1086614172601,259.28976377955007 710.1086614172601,261.55748031501 713.1322834645401,261.55748031501 713.1322834645401,259.28976377955007 720.2,259.28976377955007" style="fill:none;stroke:black;stroke:2"/>
<polyline points="720.2,267.0 720.2,271.8 701.0,271.8 701.0,267.0 681.8,267.0 681.8000000000001,267.0 681.8000000000001,271.8 662.6,271.8 662.6,267.0 643.4,267.0 643.4000000000001,267.0 643.4000000000001,271.8 624.2,271.8 624.2,267.0 605.0,267.0 605.0,267.0 605.0,271.8 585.8,271.8 585.8,267.0 566.5999999999999,267.0 566.6,267.0 566.6,271.8 547.4,271.8 547.4,267.0 528.1999999999999,267.0 " style="fill:none;stroke:black;stroke:2"/>
<polyline points="528.2,267.0 523.4000000000001,267.0 523.4000000000001,247.8 528.2,247.8 528.2,228.60000000000002 528.2,228.6 523.4000000000001,228.6 523.4000000000001,209.4 528.2,209.4 528.2,190.20000000000002 528.2,190.2 523.4000000000001,190.2 523.4000000000001,171.0 528.2,171.0 528.2,151.8 528.2,151.79999999999998 523.4000000000001,151.79999999999998 523.4000000000001,132.6 528.2,132.6 528.2,113.4 528.2,113.39999999999998 523.4000000000001,113.39999999999998 523.4000000000001,94.19999999999999 528.2,94.19999999999999 528.2,75.0 " style="fill:none;stroke:black;stroke:2"/>
<circle cx = "525.8000000000001" cy = "103.80000000000001" r = "1.88976377955" style="fill:none;stroke:black;stroke:2"/>
<circle cx = "525.8000000000001" cy = "257.40000000000003" r = "1.88976377955" style="fill:none;stroke:black;stroke:2"/>
<polyline points="754.8000000000001,75 946.8000000000001,75 " style="fill:none;stroke:black;stroke:2"/>
<polyline points="946.8000000000001,75.0 951.6,75.0 951.6,94.2 946.8000000000001,94.2 946.8000000000001,113.4 946.8000000000001,113.4 951.6,113.4 951.6,132.60000000000002 946.8000000000001,132.60000000000002 946.8000000000001,151.8 946.8000000000001,151.8 951.6,151.8 951.6,171.0 946.8000000000001,171.0 946.8000000000001,190.20000000000002 946.8000000000001,190.20000000000002 951.6,190.20000000000002 951.6,209.40000000000003 946.8000000000001,209.40000000000003 946.8000000000001,228.60000000000002 946.8000000000001,228.60000000000002 951.6,228.60000000000002 951.6,247.8 946.8000000000001,247.8 946.8000000000001,267.0 " style="fill:none;stroke:black;stroke:2"/>
<line x1 = "946.8000000000001" y1 = "101.91023622045002" x2 = "946.8000000000001" y2 = "105.68976377955002" style="fill:none;stroke:white;stroke:2"/>
<line x1 = "946.8000000000001" y1 = "255.51023622045005" x2 = "946.8000000000001" y2 = "259.28976377955007" style="fill:none;stroke:white;stroke:2"/>
<polyline points = "946.8000000000001,101.91023622045002 939.7322834645402,101.91023622045002 939.7322834645402,99.64251968499002 936.7086614172601,99.64251968499002 936.7086614172601,101.91023622045002 929.1496062990601,101.91023622045002 929.1496062990601,105.68976377955002 936.7086614172601,105.68976377955002 936.7086614172601,107.95748031501002 939.7322834645402,107.95748031501002 939.7322834645402,105.68976377955002 946.8000000000001,105.68976377955002" style="fill:none;stroke:black;stroke:2"/>
<polyline points = "946.8000000000001,255.51023622045005 939.7322834645402,255.51023622045005 939.7322834645402,253.24251968499004 936.7086614172601,253.24251968499004 936.7086614172601,255.51023622045005 929.1496062990601,255.51023622045005 929.1496062990601,259.28976377955007 936.7086614172601,259.28976377955007 936.7086614172601,261.55748031501 939.7322834645402,261.55748031501 939.7322834645402,259.28976377955007 946.8000000000001,259.28976377955007" style="fill:none;stroke:black;stroke:2"/>
<polyline points="946.8000000000001,267.0 946.8000000000001,271.8 927.6,271.8 927.6,267.0 908.4,267.0 908.4000000000001,267.0 908.4000000000001,271.8 889.2,271.8 889.2,267.0 870.0,267.0 870.0,267.0 870.0,271.8 850.8,271.8 850.8,267.0 831.5999999999999,267.0 831.6,267.0 831.6,271.8 812.4,271.8 812.4,267.0 793.1999999999999,267.0 793.2,267.0 793.2,271.8 774.0,271.8 774.0,267.0 754.8,267.0 " style="fill:none;stroke:black;stroke:2"/>
<polyline points="754.8000000000001,267.0 750.0000000000001,267.0 750.0000000000001,247.8 754.8000000000001,247.8 754.8000000000001,228.60000000000002 754.8000000000001,228.6 750.0000000000001,228.6 750.0000000000001,209.4 754.8000000000001,209.4 754.8000000000001,190.20000000000002 754.8000000000001,190.2 750.0000000000001,190.2 750.0000000000001,171.0 754.8000000000001,171.0 754.8000000000001,151.8 754.8000000000001,151.79999999999998 750.0000000000001,151.79999999999998 750.0000000000001,132.6 754.8000000000001,132.6 754.8000000000001,113.4 754.8000000000001,113.39999999999998 750.0000000000001,113.39999999999998 750.0000000000001,94.19999999999999 754.8000000000001,94.19999999999999 754.8000000000001,75.0 " style="fill:none;stroke:black;stroke:2"/>
<circle cx = "752.4000000000001" cy = "103.80000000000001" r = "1.88976377955" style="fill:none;stroke:black;stroke:2"/>
<circle cx = "752.4000000000001" cy = "257.40000000000003" r = "1.88976377955" style="fill:none;stroke:black;stroke:2"/>
<polyline points="301.6,301.6 301.6,296.8 320.8,296.8 320.8,301.6 340.0,301.6 340.0,301.6 340.0,296.8 359.20000000000005,296.8 359.20000000000005,301.6 378.4,301.6 378.40000000000003,301.6 378.40000000000003,296.8 397.6,296.8 397.6,301.6 416.8,301.6 416.80000000000007,301.6 416.80000000000007,296.8 436.0,296.8 436.0,301.6 455.20000000000005,301.6 455.20000000000005,301.6 455.20000000000005,296.8 474.40000000000003,296.8 474.40000000000003,301.6 493.6,301.6 " style="fill:none;stroke:black;stroke:2"/>
<circle cx = "311.20000000000005" cy = "299.20000000000005" r = "1.88976377955" style="fill:none;stroke:black;stroke:2"/>
<circle cx = "464.80000000000007" cy = "299.20000000000005" r = "1.88976377955" style="fill:none;stroke:black;stroke:2"/>
<polyline points="493.6,301.6 498.40000000000003,301.6 498.40000000000003,320.8 493.6,320.8 493.6,340.0 493.6,340.0 498.40000000000003,340.0 498.40000000000003,359.20000000000005 493.6,359.20000000000005 493.6,378.4 493.6,378.40000000000003 498.40000000000003,378.40000000000003 498.40000000000003,397.6 493.6,397.6 493.6,416.8 493.6,416.80000000000007 498.40000000000003,416.80000000000007 498.40000000000003,436.0 493.6,436.0 493.6,455.20000000000005 493.6,455.20000000000005 498.40000000000003,455.20000000000005 498.40000000000003,474.40000000000003 493.6,474.40000000000003 493.6,493.6 " style="fill:none;stroke:black;stroke:2"/>
<polyline points="493.6,493.6 493.6,498.40000000000003 474.40000000000003,498.40000000000003 474.40000000000003,493.6 455.20000000000005,493.6 455.20000000000005,493.6 455.20000000000005,498.40000000000003 436.0,498.40000000000003 436.0,493.6 416.80000000000007,493.6 416.8,493.6 416.8,498.40000000000003 397.6,498.40000000000003 397.6,493.6 378.40000000000003,493.6 378.4,493.6 378.4,498.40000000000003 359.20000000000005,498.40000000000003 359.20000000000005,493.6 340.0,493.6 340.0,493.6 340.0,498.40000000000003 320.8,498.40000000000003 320.8,493.6 301.6,493.6 " style="fill:none;stroke:black;stroke:2"/>
<circle cx = "330.40000000000003" cy = "496.0" r = "1.88976377955" style="fill:none;stroke:black;stroke:2"/>
<circle cx = "484.00000000000006" cy = "496.0" r = "1.88976377955" style="fill:none;stroke:black;stroke:2"/>
<polyline points="301.6,493.6 296.8,493.6 296.8,474.40000000000003 301.6,474.40000000000003 301.6,455.20000000000005 301.6,455.20000000000005 296.8,455.20000000000005 296.8,436.0 301.6,436.0 301.6,416.80000000000007 301.6,416.8 296.8,416.8 296.8,397.6 301.6,397.6 301.6,378.40000000000003 301.6,378.4 296.8,378.4 296.8,359.20000000000005 301.6,359.20000000000005 301.6,340.0 301.6,340.0 296.8,340.0 296.8,320.8 301.6,320.8 301.6,301.6 " style="fill:none;stroke:black;stroke:2"/>
<rect x = "70.2" y = "296.8" width = "201.60000000000002" height = "201.60000000000002" style="fill:none;stroke:black;stroke:2"/>
<circle cx = "107.0" cy = "299.20000000000005" r = "1.88976377955" style="fill:none;stroke:black;stroke:2"/>
<circle cx = "235.00000000000003" cy = "299.20000000000005" r = "1.88976377955" style="fill:none;stroke:black;stroke:2"/>
<polyline points = "70.2,319.8 71.00000000000001,319.8" fill = "none" stroke = "black" /> 
<polyline points = "71.00000000000001,319.8 76.00000000000001,319.8" fill = "none" stroke = "black" /> 
<path d = "M 76.00000000000001 319.8 C 76.00000000000001 329.8, 86.00000000000001 329.8, 86.00000000000001 319.8" stroke = "black" fill = "transparent"/>
<polyline points = "86.00000000000001 319.8 91.00000000000001,319.8" fill = "none" stroke = "black" /> 
<polyline points = "70.2,329.8 71.00000000000001,329.8" fill = "none" stroke = "black" /> 
<polyline points = "71.00000000000001,329.8 76.00000000000001,329.8" fill = "none" stroke = "black" /> 
<path d = "M 76.00000000000001 329.8 C 76.00000000000001 339.8, 86.00000000000001 339.8, 86.00000000000001 329.8" stroke = "black" fill = "transparent"/>
<polyline points = "86.00000000000001 329.8 91.00000000000001,329.8" fill = "none" stroke = "black" /> 
<polyline points = "70.2,339.8 71.00000000000001,339.8" fill = "none" stroke = "black" /> 
<polyline points = "71.00000000000001,339.8 76.00000000000001,339.8" fill = "none" stroke = "black" /> 
<path d = "M 76.00000000000001 339.8 C 76.00000000000001 349.8, 86.00000000000001 349.8, 86.00000000000001 339.8" stroke = "black" fill = "transparent"/>
<polyline points = "86.00000000000001 339.8 91.00000000000001,339.8" fill = "none" stroke = "black" /> 
<polyline points = "70.2,349.8 71.00000000000001,349.8" fill = "none" stroke = "black" /> 
<polyline points = "71.00000000000001,349.8 76.00000000000001,349.8" fill = "none" stroke = "black" /> 
<path d = "M 76.00000000000001 349.8 C 76.00000000000001 359.8, 86.00000000000001 359.8, 86.00000000000001 349.8" stroke = "black" fill = "transparent"/>
<polyline points = "86.00000000000001 349.8 91.00000000000001,349.8" fill = "none" stroke = "black" /> 
<polyline points = "70.2,359.8 71.00000000000001,359.8" fill = "none" stroke = "black" /> 
<polyline points = "71.00000000000001,359.8 76.00000000000001,359.8" fill = "none" stroke = "black" /> 
<path d = "M 76.00000000000001 359.8 C 76.00000000000001 369.8, 86.00000000000001 369.8, 86.00000000000001 359.8" stroke = "black" fill = "transparent"/>
<polyline points = "86.00000000000001 359.8 91.00000000000001,359.8" fill = "none" stroke = "black" /> 
<polyline points = "70.2,369.8 71.00000000000001,369.8" fill = "none" stroke = "black" /> 
<polyline points = "71.00000000000001,369.8 76.00000000000001,369.8" fill = "none" stroke = "black" /> 
<path d = "M 76.00000000000001 369.8 C 76.00000000000001 379.8, 86.00000000000001 379.8, 86.00000000000001 369.8" stroke = "black" fill = "transparent"/>
<polyline points = "86.00000000000001 369.8 91.00000000000001,369.8" fill = "none" stroke = "black" /> 
<polyline points = "70.2,379.8 71.00000000000001,379.8" fill = "none" stroke = "black" /> 
<polyline points = "71.00000000000001,379.8 76.00000000000001,379.8" fill = "none" stroke = "black" /> 
<path d = "M 76.00000000000001 379.8 C 76.00000000000001 389.8, 86.00000000000001 389.8, 86.00000000000001 379.8" stroke = "black" fill = "transparent"/>
<polyline points = "86.00000000000001 379.8 91.00000000000001,379.8" fill = "none" stroke = "black" /> 
<polyline points = "70.2,389.8 71.00000000000001,389.8" fill = "none" stroke = "black" /> 
<polyline points = "71.00000000000001,389.8 76.00000000000001,389.8" fill = "none" stroke = "black" /> 
<path d = "M 76.00000000000001 389.8 C 76.00000000000001 399.8, 86.00000000000001 399.8, 86.00000000000001 389.8" stroke = "black" fill = "transparent"/>
<polyline points = "86.00000000000001 389.8 91.00000000000001,389.8" fill = "none" stroke = "black" /> 
<polyline points = "91.00000000000001,323.8 96.00000000000001,323.8" fill = "none" stroke = "black" /> 
<path d = "M 96.00000000000001 323.8 C 96.00000000000001 333.8, 106.00000000000001 333.8, 106.00000000000001 323.8" stroke = "black" fill = "transparent"/>
<polyline points = "106.00000000000001 323.8 111.00000000000001,323.8" fill = "none" stroke = "black" /> 
<polyline points = "91.00000000000001,333.8 96.00000000000001,333.8" fill = "none" stroke = "black" /> 
<path d = "M 96.00000000000001 333.8 C 96.00000000000001 343.8, 106.00000000000001 343.8, 106.00000000000001 333.8" stroke = "black" fill = "transparent"/>
<polyline points = "106.00000000000001 333.8 111.00000000000001,333.8" fill = "none" stroke = "black" /> 
<polyline points = "91.00000000000001,343.8 96.00000000000001,343.8" fill = "none" stroke = "black" /> 
<path d = "M 96.00000000000001 343.8 C 96.00000000000001 353.8, 106.00000000000001 353.8, 106.00000000000001 343.8" stroke = "black" fill = "transparent"/>
<polyline points = "106.00000000000001 343.8 111.00000000000001,343.8" fill = "none" stroke = "black" /> 
<polyline points = "91.00000000000001,353.8 96.00000000000001,353.8" fill = "none" stroke = "black" /> 
<path d = "M 96.00000000000001 353.8 C 96.00000000000001 363.8, 106.00000000000001 363.8, 106.00000000000001 353.8" stroke = "black" fill = "transparent"/>
<polyline points = "106.00000000000001 353.8 111.00000000000001,353.8" fill = "none" stroke = "black" /> 
<polyline points = "91.00000000000001,363.8 96.00000000000001,363.8" fill = "none" stroke = "black" /> 
<path d = "M 96.00000000000001 363.8 C 96.00000000000001 373.8, 106.00000000000001 373.8, 106.00000000000001 363.8" stroke = "black" fill = "transparent"/>
<polyline points = "106.00000000000001 363.8 111.00000000000001,363.8" fill = "none" stroke = "black" /> 
<polyline points = "91.00000000000001,373.8 96.00000000000001,373.8" fill = "none" stroke = "black" /> 
<path d = "M 96.00000000000001 373.8 C 96.00000000000001 383.8, 106.00000000000001 383.8, 106.00000000000001 373.8" stroke = "black" fill = "transparent"/>
<polyline points = "106.00000000000001 373.8 111.00000000000001,373.8" fill = "none" stroke = "black" /> 
<polyline points = "91.00000000000001,383.8 96.00000000000001,383.8" fill = "none" stroke = "black" /> 
<path d = "M 96.00000000000001 383.8 C 96.00000000000001 393.8, 106.00000000000001 393.8, 106.00000000000001 383.8" stroke = "black" fill = "transparent"/>
<polyline points = "106.00000000000001 383.8 111.00000000000001,383.8" fill = "none" stroke = "black" /> 
<polyline points = "91.00000000000001,393.8 96.00000000000001,393.8" fill = "none" stroke = "black" /> 
<path d = "M 96.00000000000001 393.8 C 96.00000000000001 403.8, 106.00000000000001 403.8, 106.00000000000001 393.8" stroke = "black" fill = "transparent"/>
<polyline points = "106.00000000000001 393.8 111.00000000000001,393.8" fill = "none" stroke = "black" /> 
<polyline points = "111.00000000000001,319.8 116.00000000000001,319.8" fill = "none" stroke = "black" /> 
<path d = "M 116.00000000000001 319.8 C 116.00000000000001 329.8, 126.00000000000001 329.8, 126.00000000000001 319.8" stroke = "black" fill = "transparent"/>
<polyline points = "126.00000000000001 319.8 131.0,319.8" fill = "none" stroke = "black" /> 
<polyline points = "111.00000000000001,329.8 116.00000000000001,329.8" fill = "none" stroke = "black" /> 
<path d = "M 116.00000000000001 329.8 C 116.00000000000001 339.8, 126.00000000000001 339.8, 126.00000000000001 329.8" stroke = "black" fill = "transparent"/>
<polyline points = "126.00000000000001 329.8 131.0,329.8" fill = "none" stroke = "black" /> 
<polyline points = "111.00000000000001,339.8 116.00000000000001,339.8" fill = "none" stroke = "black" /> 
<path d = "M 116.00000000000001 339.8 C 116.00000000000001 349.8, 126.00000000000001 349.8, 126.00000000000001 339.8" stroke = "black" fill = "transparent"/>
<polyline points = "126.00000000000001 339.8 131.0,339.8" fill = "none" stroke = "black" /> 
<polyline points = "111.00000000000001,349.8 116.00000000000001,349.8" fill = "none" stroke = "black" /> 
<path d = "M 116.00000000000001 349.8 C 116.00000000000001 359.8, 126.00000000000001 359.8, 126.00000000000001 349.8" stroke = "black" fill = "transparent"/>
<polyline points = "126.00000000000001 349.8 131.0,349.8" fill = "none" stroke = "black" /> 
<polyline points = "111.00000000000001,359.8 116.00000000000001,359.8" fill = "none" stroke = "black" /> 
<path d = "M 116.00000000000001 359.8 C 116.00000000000001 369.8, 126.00000000000001 369.8, 126.00000000000001 359.8" stroke = "black" fill = "transparent"/>
<polyline points = "126.00000000000001 359.8 131.0,359.8" fill = "none" stroke = "black" /> 
<polyline points = "111.00000000000001,369.8 116.00000000000001,369.8" fill = "none" stroke = "black" /> 
<path d = "M 116.00000000000001 369.8 C 116.00000000000001 379.8, 126.00000000000001 379.8, 126.00000000000001 369.8" stroke = "black" fill = "transparent"/>
<polyline points = "126.00000000000001 369.8 131.0,369.8" fill = "none" stroke = "black" /> 
<polyline points = "111.00000000000001,379.8 116.00000000000001,379.8" fill = "none" stroke = "black" /> 
<path d = "M 116.00000000000001 379.8 C 116.00000000000001 389.8, 126.00000000000001 389.8, 126.00000000000001 379.8" stroke = "black" fill = "transparent"/>
<polyline points = "126.00000000000001 379.8 131.0,379.8" fill = "none" stroke = "black" /> 
<polyline points = "111.00000000000001,389.8 116.00000000000001,389.8" fill = "none" stroke = "black" /> 
<path d = "M 116.00000000000001 389.8 C 116.00000000000001 399.8, 126.00000000000001 399.8, 126.00000000000001 389.8" stroke = "black" fill = "transparent"/>
<polyline points = "126.00000000000001 389.8 131.0,389.8" fill = "none" stroke = "black" /> 
<polyline points = "131.0,323.8 136.0,323.8" fill = "none" stroke = "black" /> 
<path d = "M 136.0 323.8 C 136.0 333.8, 146.0 333.8, 146.0 323.8" stroke = "black" fill = "transparent"/>
<polyline points = "146.0 323.8 151.0,323.8" fill = "none" stroke = "black" /> 
<polyline points = "131.0,333.8 136.0,333.8" fill = "none" stroke = "black" /> 
<path d = "M 136.0 333.8 C 136.0 343.8, 146.0 343.8, 146.0 333.8" stroke = "black" fill = "transparent"/>
<polyline points = "146.0 333.8 151.0,333.8" fill = "none" stroke = "black" /> 
<polyline points = "131.0,343.8 136.0,343.8" fill = "none" stroke = "black" /> 
<path d = "M 136.0 343.8 C 136.0 353.8, 146.0 353.8, 146.0 343.8" stroke = "black" fill = "transparent"/>
<polyline points = "146.0 343.8 151.0,343.8" fill = "none" stroke = "black" /> 
<polyline points = "131.0,353.8 136.0,353.8" fill = "none" stroke = "black" /> 
<path d = "M 136.0 353.8 C 136.0 363.8, 146.0 363.8, 146.0 353.8" stroke = "black" fill = "transparent"/>
<polyline points = "146.0 353.8 151.0,353.8" fill = "none" stroke = "black" /> 
<polyline points = "131.0,363.8 136.0,363.8" fill = "none" stroke = "black" /> 
<path d = "M 136.0 363.8 C 136.0 373.8, 146.0 373.8, 146.0 363.8" stroke = "black" fill = "transparent"/>
<polyline points = "146.0 363.8 151.0,363.8" fill = "none" stroke = "black" /> 
<polyline points = "131.0,373.8 136.0,373.8" fill = "none" stroke = "black" /> 
<path d = "M 136.0 373.8 C 136.0 383.8, 146.0 383.8, 146.0 373.8" stroke = "black" fill = "transparent"/>
<polyline points = "146.0 373.8 151.0,373.8" fill = "none" stroke = "black" /> 
<polyline points = "131.0,383.8 136.0,383.8" fill = "none" stroke = "black" /> 
<path d = "M 136.0 383.8 C 136.0 393.8, 146.0 393.8, 146.0 383.8" stroke = "black" fill = "transparent"/>
<polyline points = "146.0 383.8 151.0,383.8" fill = "none" stroke = "black" /> 
<polyline points = "131.0,393.8 136.0,393.8" fill = "none" stroke = "black" /> 
<path d = "M 136.0 393.8 C 136.0 403.8, 146.0 403.8, 146.0 393.8" stroke = "black" fill = "transparent"/>
<polyline points = "146.0 393.8 151.0,393.8" fill = "none" stroke = "black" /> 
<polyline points = "151.0,319.8 156.0,319.8" fill = "none" stroke = "black" /> 
<path d = "M 156.0 319.8 C 156.0 329.8, 166.0 329.8, 166.0 319.8" stroke = "black" fill = "transparent"/>
<polyline points = "166.0 319.8 171.0,319.8" fill = "none" stroke = "black" /> 
<polyline points = "151.0,329.8 156.0,329.8" fill = "none" stroke = "black" /> 
<path d = "M 156.0 329.8 C 156.0 339.8, 166.0 339.8, 166.0 329.8" stroke = "black" fill = "transparent"/>
<polyline points = "166.0 329.8 171.0,329.8" fill = "none" stroke = "black" /> 
<polyline points = "151.0,339.8 156.0,339.8" fill = "none" stroke = "black" /> 
<path d = "M 156.0 339.8 C 156.0 349.8, 166.0 349.8, 166.0 339.8" stroke = "black" fill = "transparent"/>
<polyline points = "166.0 339.8 171.0,339.8" fill = "none" stroke = "black" /> 
<polyline points = "151.0,349.8 156.0,349.8" fill = "none" stroke = "black" /> 
<path d = "M 156.0 349.8 C 156.0 359.8, 166.0 359.8, 166.0 349.8" stroke = "black" fill = "transparent"/>
<polyline points = "166.0 349.8 171.0,349.8" fill = "none" stroke = "black" /> 
<polyline points = "151.0,359.8 156.0,359.8" fill = "none" stroke = "black" /> 
<path d = "M 156.0 359.8 C 156.0 369.8, 166.0 369.8, 166.0 359.8" stroke = "black" fill = "transparent"/>
<polyline points = "166.0 359.8 171.0,359.8" fill = "none" stroke = "black" /> 
<polyline points = "151.0,369.8 156.0,369.8" fill = "none" stroke = "black" /> 
<path d = "M 156.0 369.8 C 156.0 379.8, 166.0 379.8, 166.0 369.8" stroke = "black" fill = "transparent"/>
<polyline points = "166.0 369.8 171.0,369.8" fill = "none" stroke = "black" /> 
<polyline points = "151.0,379.8 156.0,379.8" fill = "none" stroke = "black" /> 
<path d = "M 156.0 379.8 C 156.0 389.8, 166.0 389.8, 166.0 379.8" stroke = "black" fill = "transparent"/>
<polyline points = "166.0 379.8 171.0,379.8" fill = "none" stroke = "black" /> 
<polyline points = "151.0,389.8 156.0,389.8" fill = "none" stroke = "black" /> 
<path d = "M 156.0 389.8 C 156.0 399.8, 166.0 399.8, 166.0 389.8" stroke = "black" fill = "transparent"/>
<polyline points = "166.0 389.8 171.0,389.8" fill = "none" stroke = "black" /> 
<polyline points = "171.0,323.8 176.0,323.8" fill = "none" stroke = "black" /> 
<path d = "M 176.0 323.8 C 176.0 333.8, 186.0 333.8, 186.0 323.8" stroke = "black" fill = "transparent"/>
<polyline points = "186.0 323.8 191.0,323.8" fill = "none" stroke = "black" /> 
<polyline points = "171.0,333.8 176.0,333.8" fill = "none" stroke = "black" /> 
<path d = "M 176.0 333.8 C 176.0 343.8, 186.0 343.8, 186.0 333.8" stroke = "black" fill = "transparent"/>
<polyline points = "186.0 333.8 191.0,333.8" fill = "none" stroke = "black" /> 
<polyline points = "171.0,343.8 176.0,343.8" fill = "none" stroke = "black" /> 
<path d = "M 176.0 343.8 C 176.0 353.8, 186.0 353.8, 186.0 343.8" stroke = "black" fill = "transparent"/>
<polyline points = "186.0 343.8 191.0,343.8" fill = "none" stroke = "black" /> 
<polyline points = "171.0,353.8 176.0,353.8" fill = "none" stroke = "black" /> 
<path d = "M 176.0 353.8 C 176.0 363.8, 186.0 363.8, 186.0 353.8" stroke = "black" fill = "transparent"/>
<polyline points = "186.0 353.8 191.0,353.8" fill = "none" stroke = "black" /> 
<polyline points = "171.0,363.8 176.0,363.8" fill = "none" stroke = "black" /> 
<path d = "M 176.0 363.8 C 176.0 373.8, 186.0 373.8, 186.0 363.8" stroke = "black" fill = "transparent"/>
<polyline points = "186.0 363.8 191.0,363.8" fill = "none" stroke = "black" /> 
<polyline points = "171.0,373.8 176.0,373.8" fill = "none" stroke = "black" /> 
<path d = "M 176.0 373.8 C 176.0 383.8, 186.0 383.8, 186.0 373.8" stroke = "black" fill = "transparent"/>
<polyline points = "186.0 373.8 191.0,373.8" fill = "none" stroke = "black" /> 
<polyline points = "171.0,383.8 176.0,383.8" fill = "none" stroke = "black" /> 
<path d = "M 176.0 383.8 C 176.0 393.8, 186.0 393.8, 186.0 383.8" stroke = "black" fill = "transparent"/>
<polyline points = "186.0 383.8 191.0,383.8" fill = "none" stroke = "black" /> 
<polyline points = "171.0,393.8 176.0,393.8" fill = "none" stroke = "black" /> 
<path d = "M 176.0 393.8 C 176.0 403.8, 186.0 403.8, 186.0 393.8" stroke = "black" fill = "transparent"/>
<polyline points = "186.0 393.8 191.0,393.8" fill = "none" stroke = "black" /> 
<polyline points = "191.0,319.8 196.0,319.8" fill = "none" stroke = "black" /> 
<path d = "M 196.0 319.8 C 196.0 329.8, 206.0 329.8, 206.0 319.8" stroke = "black" fill = "transparent"/>
<polyline points = "206.0 319.8 211.0,319.8" fill = "none" stroke = "black" /> 
<polyline points = "191.0,329.8 196.0,329.8" fill = "none" stroke = "black" /> 
<path d = "M 196.0 329.8 C 196.0 339.8, 206.0 339.8, 206.0 329.8" stroke = "black" fill = "transparent"/>
<polyline points = "206.0 329.8 211.0,329.8" fill = "none" stroke = "black" /> 
<polyline points = "191.0,339.8 196.0,339.8" fill = "none" stroke = "black" /> 
<path d = "M 196.0 339.8 C 196.0 349.8, 206.0 349.8, 206.0 339.8" stroke = "black" fill = "transparent"/>
<polyline points = "206.0 339.8 211.0,339.8" fill = "none" stroke = "black" /> 
<polyline points = "191.0,349.8 196.0,349.8" fill = "none" stroke = "black" /> 
<path d = "M 196.0 349.8 C 196.0 359.8, 206.0 359.8, 206.0 349.8" stroke = "black" fill = "transparent"/>
<polyline points = "206.0 349.8 211.0,349.8" fill = "none" stroke = "black" /> 
<polyline points = "191.0,359.8 196.0,359.8" fill = "none" stroke = "black" /> 
<path d = "M 196.0 359.8 C 196.0 369.8, 206.0 369.8, 206.0 359.8" stroke = "black" fill = "transparent"/>
<polyline points = "206.0 359.8 211.0,359.8" fill = "none" stroke = "black" /> 
<polyline points = "191.0,369.8 196.0,369.8" fill = "none" stroke = "black" /> 
<path d = "M 196.0 369.8 C 196.0 379.8, 206.0 379.8, 206.0 369.8" stroke = "black" fill = "transparent"/>
<polyline points = "206.0 369.8 211.0,369.8" fill = "none" stroke = "black" /> 
<polyline points = "191.0,379.8 196.0,379.8" fill = "none" stroke = "black" /> 
<path d = "M 196.0 379.8 C 196.0 389.8, 206.0 389.8, 206.0 379.8" stroke = "black" fill = "transparent"/>
<polyline points = "206.0 379.8 211.0,379.8" fill = "none" stroke = "black" /> 
<polyline points = "191.0,389.8 196.0,389.8" fill = "none" stroke = "black" /> 
<path d = "M 196.0 389.8 C 196.0 399.8, 206.0 399.8, 206.0 389.8" stroke = "black" fill = "transparent"/>
<polyline points = "206.0 389.8 211.0,389.8" fill = "none" stroke = "black" /> 
<polyline points = "211.0,323.8 216.0,323.8" fill = "none" stroke = "black" /> 
<path d = "M 216.0 323.8 C 216.0 333.8, 226.0 333.8, 226.0 323.8" stroke = "black" fill = "transparent"/>
<polyline points = "226.0 323.8 231.0,323.8" fill = "none" stroke = "black" /> 
<polyline points = "211.0,333.8 216.0,333.8" fill = "none" stroke = "black" /> 
<path d = "M 216.0 333.8 C 216.0 343.8, 226.0 343.8, 226.0 333.8" stroke = "black" fill = "transparent"/>
<polyline points = "226.0 333.8 231.0,333.8" fill = "none" stroke = "black" /> 
<polyline points = "211.0,343.8 216.0,343.8" fill = "none" stroke = "black" /> 
<path d = "M 216.0 343.8 C 216.0 353.8, 226.0 353.8, 226.0 343.8" stroke = "black" fill = "transparent"/>
<polyline points = "226.0 343.8 231.0,343.8" fill = "none" stroke = "black" /> 
<polyline points = "211.0,353.8 216.0,353.8" fill = "none" stroke = "black" /> 
<path d = "M 216.0 353.8 C 216.0 363.8, 226.0 363.8, 226.0 353.8" stroke = "black" fill = "transparent"/>
<polyline points = "226.0 353.8 231.0,353.8" fill = "none" stroke = "black" /> 
<polyline points = "211.0,363.8 216.0,363.8" fill = "none" stroke = "black" /> 
<path d = "M 216.0 363.8 C 216.0 373.8, 226.0 373.8, 226.0 363.8" stroke = "black" fill = "transparent"/>
<polyline points = "226.0 363.8 231.0,363.8" fill = "none" stroke = "black" /> 
<polyline points = "211.0,373.8 216.0,373.8" fill = "none" stroke = "black" /> 
<path d = "M 216.0 373.8 C 216.0 383.8, 226.0 383.8, 226.0 373.8" stroke = "black" fill = "transparent"/>
<polyline points = "226.0 373.8 231.0,373.8" fill = "none" stroke = "black" /> 
<polyline points = "211.0,383.8 216.0,383.8" fill = "none" stroke = "black" /> 
<path d = "M 216.0 383.8 C 216.0 393.8, 226.0 393.8, 226.0 383.8" stroke = "black" fill = "transparent"/>
<polyline points = "226.0 383.8 231.0,383.8" fill = "none" stroke = "black" /> 
<polyline points = "211.0,393.8 216.0,393.8" fill = "none" stroke = "black" /> 
<path d = "M 216.0 393.8 C 216.0 403.8, 226.0 403.8, 226.0 393.8" stroke = "black" fill = "transparent"/>
<polyline points = "226.0 393.8 231.0,393.8" fill = "none" stroke = "black" /> 
<polyline points = "231.0,319.8 236.0,319.8" fill = "none" stroke = "black" /> 
<path d = "M 236.0 319.8 C 236.0 329.8, 246.0 329.8, 246.0 319.8" stroke = "black" fill = "transparent"/>
<polyline points = "246.0 319.8 251.0,319.8" fill = "none" stroke = "black" /> 
<polyline points = "231.0,329.8 236.0,329.8" fill = "none" stroke = "black" /> 
<path d = "M 236.0 329.8 C 236.0 339.8, 246.0 339.8, 246.0 329.8" stroke = "black" fill = "transparent"/>
<polyline points = "246.0 329.8 251.0,329.8" fill = "none" stroke = "black" /> 
<polyline points = "231.0,339.8 236.0,339.8" fill = "none" stroke = "black" /> 
<path d = "M 236.0 339.8 C 236.0 349.8, 246.0 349.8, 246.0 339.8" stroke = "black" fill = "transparent"/>
<polyline points = "246.0 339.8 251.0,339.8" fill = "none" stroke = "black" /> 
<polyline points = "231.0,349.8 236.0,349.8" fill = "none" stroke = "black" /> 
<path d = "M 236.0 349.8 C 236.0 359.8, 246.0 359.8, 246.0 349.8" stroke = "black" fill = "transparent"/>
<polyline points = "246.0 349.8 251.0,349.8" fill = "none" stroke = "black" /> 
<polyline points = "231.0,359.8 236.0,359.8" fill = "none" stroke = "black" /> 
<path d = "M 236.0 359.8 C 236.0 369.8, 246.0 369.8, 246.0 359.8" stroke = "black" fill = "transparent"/>
<polyline points = "246.0 359.8 251.0,359.8" fill = "none" stroke = "black" /> 
<polyline points = "231.0,369.8 236.0,369.8" fill = "none" stroke = "black" /> 
<path d = "M 236.0 369.8 C 236.0 379.8, 246.0 379.8, 246.0 369.8" stroke = "black" fill = "transparent"/>
<polyline points = "246.0 369.8 251.0,369.8" fill = "none" stroke = "black" /> 
<polyline points = "231.0,379.8 236.0,379.8" fill = "none" stroke = "black" /> 
<path d = "M 236.0 379.8 C 236.0 389.8, 246.0 389.8, 246.0 379.8" stroke = "black" fill = "transparent"/>
<polyline points = "246.0 379.8 251.0,379.8" fill = "none" stroke = "black" /> 
<polyline points = "231.0,389.8 236.0,389.8" fill = "none" stroke = "black" /> 
<path d = "M 236.0 389.8 C 236.0 399.8, 246.0 399.8, 246.0 389.8" stroke = "black" fill = "transparent"/>
<polyline points = "246.0 389.8 251.0,389.8" fill = "none" stroke = "black" /> 
<polyline points = "251.0,323.8 256.0,323.8" fill = "none" stroke = "black" /> 
<path d = "M 256.0 323.8 C 256.0 333.8, 266.0 333.8, 266.0 323.8" stroke = "black" fill = "transparent"/>
<polyline points = "266.0 323.8 271.0,323.8" fill = "none" stroke = "black" /> 
<polyline points = "271.0 323.8 271.8,323.8" fill = "none" stroke = "black" /> 
<polyline points = "251.0,333.8 256.0,333.8" fill = "none" stroke = "black" /> 
<path d = "M 256.0 333.8 C 256.0 343.8, 266.0 343.8, 266.0 333.8" stroke = "black" fill = "transparent"/>
<polyline points = "266.0 333.8 271.0,333.8" fill = "none" stroke = "black" /> 
<polyline points = "271.0 333.8 271.8,333.8" fill = "none" stroke = "black" /> 
<polyline points = "251.0,343.8 256.0,343.8" fill = "none" stroke = "black" /> 
<path d = "M 256.0 343.8 C 256.0 353.8, 266.0 353.8, 266.0 343.8" stroke = "black" fill = "transparent"/>
<polyline points = "266.0 343.8 271.0,343.8" fill = "none" stroke = "black" /> 
<polyline points = "271.0 343.8 271.8,343.8" fill = "none" stroke = "black" /> 
<polyline points = "251.0,353.8 256.0,353.8" fill = "none" stroke = "black" /> 
<path d = "M 256.0 353.8 C 256.0 363.8, 266.0 363.8, 266.0 353.8" stroke = "black" fill = "transparent"/>
<polyline points = "266.0 353.8 271.0,353.8" fill = "none" stroke = "black" /> 
<polyline points = "271.0 353.8 271.8,353.8" fill = "none" stroke = "black" /> 
<polyline points = "251.0,363.8 256.0,363.8" fill = "none" stroke = "black" /> 
<path d = "M 256.0 363.8 C 256.0 373.8, 266.0 373.8, 266.0 363.8" stroke = "black" fill = "transparent"/>
<polyline points = "266.0 363.8 271.0,363.8" fill = "none" stroke = "black" /> 
<polyline points = "271.0 363.8 271.8,363.8" fill = "none" stroke = "black" /> 
<polyline points = "251.0,373.8 256.0,373.8" fill = "none" stroke = "black" /> 
<path d = "M 256.0 373.8 C 256.0 383.8, 266.0 383.8, 266.0 373.8" stroke = "black" fill = "transparent"/>
<polyline points = "266.0 373.8 271.0,373.8" fill = "none" stroke = "black" /> 
<polyline points = "271.0 373.8 271.8,373.8" fill = "none" stroke = "black" /> 
<polyline points = "251.0,383.8 256.0,383.8" fill = "none" stroke = "black" /> 
<path d = "M 256.0 383.8 C 256.0 393.8, 266.0 393.8, 266.0 383.8" stroke = "black" fill = "transparent"/>
<polyline points = "266.0 383.8 271.0,383.8" fill = "none" stroke = "black" /> 
<polyline points = "271.0 383.8 271.8,383.8" fill = "none" stroke = "black" /> 
<polyline points = "251.0,393.8 256.0,393.8" fill = "none" stroke = "black" /> 
<path d = "M 256.0 393.8 C 256.0 403.8, 266.0 403.8, 266.0 393.8" stroke = "black" fill = "transparent"/>
<polyline points = "266.0 393.8 271.0,393.8" fill = "none" stroke = "black" /> 
<polyline points = "271.0 393.8 271.8,393.8" fill = "none" stroke = "black" /> 
</svg>