<?xml version = "1.0" encoding = "UTF-8" ?> 
<svg xmlns="http://www.w3.org/2000/svg" version = "1.1"> 
<line x1="75" y1="40" x2="171" y2 ="40" style="stroke:red;stroke-horizontalDim:4"/>
<text x = "181" y = "45" font-size = "20px" fill = "red"> = 1 inch </text> 
<polyline points="75,75 459.0,75 " style="fill:none;stroke:black;stroke-horizontalDim:2"/>
<polyline points="459.0,75 471.0,75 471.0,123.0 459.0,123.0 459.0,171.0 459.0,171 471.0,171 471.0,219.0 459.0,219.0 459.0,267.0 459.0,267 471.0,267 471.0,315.0 459.0,315.0 459.0,363.0 459.0,363 471.0,363 471.0,411.0 459.0,411.0 459.0,459.0 459.0,459 471.0,459 471.0,507.0 459.0,507.0 459.0,555.0 " style="fill:none;stroke:black;stroke-horizontalDim:2"/>
<polyline points="459.0,555.0 459.0,567.0 411.0,567.0 411.0,555.0 363.0,555.0 363.0,555.0 363.0,567.0 315.0,567.0 315.0,555.0 267.0,555.0 267.0,555.0 267.0,567.0 219.0,567.0 219.0,555.0 171.0,555.0 171.0,555.0 171.0,567.0 123.0,567.0 123.0,555.0 75.0,555.0 " style="fill:none;stroke:black;stroke-horizontalDim:2"/>
<polyline points="75.0,555.0 63.0,555.0 63.0,507.0 75.0,507.0 75.0,459.0 75.0,459.0 63.0,459.0 63.0,411.0 75.0,411.0 75.0,363.0 75.0,363.0 63.0,363.0 63.0,315.0 75.0,315.0 75.0,267.0 75.0,267.0 63.0,267.0 63.0,219.0 75.0,219.0 75.0,171.0 75.0,171.0 63.0,171.0 63.0,123.0 75.0,123.0 75.0,75.0 " style="fill:none;stroke:black;stroke-horizontalDim:2"/>
<polyline points="508.0,75 892.0,75 " style="fill:none;stroke:black;stroke-horizontalDim:2"/>
<polyline points="892.0,75 904.0,75 904.0,123.0 892.0,123.0 892.0,171.0 892.0,171 904.0,171 904.0,219.0 892.0,219.0 892.0,267.0 892.0,267 904.0,267 904.0,315.0 892.0,315.0 892.0,363.0 892.0,363 904.0,363 904.0,411.0 892.0,411.0 892.0,459.0 892.0,459 904.0,459 904.0,507.0 892.0,507.0 892.0,555.0 " style="fill:none;stroke:black;stroke-horizontalDim:2"/>
<polyline points="892.0,555.0 892.0,567.0 844.0,567.0 844.0,555.0 796.0,555.0 796.0,555.0 796.0,567.0 748.0,567.0 748.0,555.0 700.0,555.0 700.0,555.0 700.0,567.0 652.0,567.0 652.0,555.0 604.0,555.0 604.0,555.0 604.0,567.0 556.0,567.0 556.0,555.0 508.0,555.0 " style="fill:none;stroke:black;stroke-horizontalDim:2"/>
<polyline points="508.0,555.0 496.0,555.0 496.0,507.0 508.0,507.0 508.0,459.0 508.0,459.0 496.0,459.0 496.0,411.0 508.0,411.0 508.0,363.0 508.0,363.0 496.0,363.0 496.0,315.0 508.0,315.0 508.0,267.0 508.0,267.0 496.0,267.0 496.0,219.0 508.0,219.0 508.0,171.0 508.0,171.0 496.0,171.0 496.0,123.0 508.0,123.0 508.0,75.0 " style="fill:none;stroke:black;stroke-horizontalDim:2"/>
<polyline points="941.0,75 1517.0,75 " style="fill:none;stroke:black;stroke-horizontalDim:2"/>
<polyline points="1517.0,75 1529.0,75 1529.0,123.0 1517.0,123.0 1517.0,171.0 1517.0,171 1529.0,171 1529.0,219.0 1517.0,219.0 1517.0,267.0 1517.0,267 1529.0,267 1529.0,315.0 1517.0,315.0 1517.0,363.0 1517.0,363 1529.0,363 1529.0,411.0 1517.0,411.0 1517.0,459.0 1517.0,459 1529.0,459 1529.0,507.0 1517.0,507.0 1517.0,555.0 " style="fill:none;stroke:black;stroke-horizontalDim:2"/>
<polyline points="1517.0,555.0 1517.0,567.0 1469.0,567.0 1469.0,555.0 1421.0,555.0 1421.0,555.0 1421.0,567.0 1373.0,567.0 1373.0,555.0 1325.0,555.0 1325.0,555.0 1325.0,567.0 1277.0,567.0 1277.0,555.0 1229.0,555.0 1229.0,555.0 1229.0,567.0 1181.0,567.0 1181.0,555.0 1133.0,555.0 1133.0,555.0 1133.0,567.0 1085.0,567.0 1085.0,555.0 1037.0,555.0 1037.0,555.0 1037.0,567.0 989.0,567.0 989.0,555.0 941.0,555.0 " style="fill:none;stroke:black;stroke-horizontalDim:2"/>
<polyline points="941.0,555.0 929.0,555.0 929.0,507.0 941.0,507.0 941.0,459.0 941.0,459.0 929.0,459.0 929.0,411.0 941.0,411.0 941.0,363.0 941.0,363.0 929.0,363.0 929.0,315.0 941.0,315.0 941.0,267.0 941.0,267.0 929.0,267.0 929.0,219.0 941.0,219.0 941.0,171.0 941.0,171.0 929.0,171.0 929.0,123.0 941.0,123.0 941.0,75.0 " style="fill:none;stroke:black;stroke-horizontalDim:2"/>
<rect x = "1163.0" y = "99.0" width = "12.0" height = "48.0" style="fill:none;stroke:blue;strokeDim:3"/>
<rect x = "1163.0" y = "483.0" width = "12.0" height = "48.0" style="fill:none;stroke:blue;strokeDim:3"/>
<polyline points="1566.0,75 2142.0,75 " style="fill:none;stroke:black;stroke-horizontalDim:2"/>
<polyline points="2142.0,75 2154.0,75 2154.0,123.0 2142.0,123.0 2142.0,171.0 2142.0,171 2154.0,171 2154.0,219.0 2142.0,219.0 2142.0,267.0 2142.0,267 2154.0,267 2154.0,315.0 2142.0,315.0 2142.0,363.0 2142.0,363 2154.0,363 2154.0,411.0 2142.0,411.0 2142.0,459.0 2142.0,459 2154.0,459 2154.0,507.0 2142.0,507.0 2142.0,555.0 " style="fill:none;stroke:black;stroke-horizontalDim:2"/>
<polyline points="2142.0,555.0 2142.0,567.0 2094.0,567.0 2094.0,555.0 2046.0,555.0 2046.0,555.0 2046.0,567.0 1998.0,567.0 1998.0,555.0 1950.0,555.0 1950.0,555.0 1950.0,567.0 1902.0,567.0 1902.0,555.0 1854.0,555.0 1854.0,555.0 1854.0,567.0 1806.0,567.0 1806.0,555.0 1758.0,555.0 1758.0,555.0 1758.0,567.0 1710.0,567.0 1710.0,555.0 1662.0,555.0 1662.0,555.0 1662.0,567.0 1614.0,567.0 1614.0,555.0 1566.0,555.0 " style="fill:none;stroke:black;stroke-horizontalDim:2"/>
<polyline points="1566.0,555.0 1554.0,555.0 1554.0,507.0 1566.0,507.0 1566.0,459.0 1566.0,459.0 1554.0,459.0 1554.0,411.0 1566.0,411.0 1566.0,363.0 1566.0,363.0 1554.0,363.0 1554.0,315.0 1566.0,315.0 1566.0,267.0 1566.0,267.0 1554.0,267.0 1554.0,219.0 1566.0,219.0 1566.0,171.0 1566.0,171.0 1554.0,171.0 1554.0,123.0 1566.0,123.0 1566.0,75.0 " style="fill:none;stroke:black;stroke-horizontalDim:2"/>
<rect x = "1788.0" y = "99.0" width = "12.0" height = "48.0" style="fill:none;stroke:blue;strokeDim:3"/>
<rect x = "1788.0" y = "483.0" width = "12.0" height = "48.0" style="fill:none;stroke:blue;strokeDim:3"/>
<polyline points="508.0,604.0 508.0,592.0 556.0,592.0 556.0,604.0 604.0,604.0 604.0,604.0 604.0,592.0 652.0,592.0 652.0,604.0 700.0,604.0 700.0,604.0 700.0,592.0 748.0,592.0 748.0,604.0 796.0,604.0 796.0,604.0 796.0,592.0 844.0,592.0 844.0,604.0 892.0,604.0 " style="fill:none;stroke:black;stroke-horizontalDim:2"/>
<polyline points="892.0,604.0 904.0,604.0 904.0,652.0 892.0,652.0 892.0,700.0 892.0,700.0 904.0,700.0 904.0,748.0 892.0,748.0 892.0,796.0 892.0,796.0 904.0,796.0 904.0,844.0 892.0,844.0 892.0,892.0 892.0,892.0 904.0,892.0 904.0,940.0 892.0,940.0 892.0,988.0 892.0,988.0 904.0,988.0 904.0,1036.0 892.0,1036.0 892.0,1084.0 892.0,1084.0 904.0,1084.0 904.0,1132.0 892.0,1132.0 892.0,1180.0 " style="fill:none;stroke:black;stroke-horizontalDim:2"/>
<polyline points="892.0,1180.0 892.0,1192.0 844.0,1192.0 844.0,1180.0 796.0,1180.0 796.0,1180.0 796.0,1192.0 748.0,1192.0 748.0,1180.0 700.0,1180.0 700.0,1180.0 700.0,1192.0 652.0,1192.0 652.0,1180.0 604.0,1180.0 604.0,1180.0 604.0,1192.0 556.0,1192.0 556.0,1180.0 508.0,1180.0 " style="fill:none;stroke:black;stroke-horizontalDim:2"/>
<polyline points="508.0,1180.0 496.0,1180.0 496.0,1132.0 508.0,1132.0 508.0,1084.0 508.0,1084.0 496.0,1084.0 496.0,1036.0 508.0,1036.0 508.0,988.0 508.0,988.0 496.0,988.0 496.0,940.0 508.0,940.0 508.0,892.0 508.0,892.0 496.0,892.0 496.0,844.0 508.0,844.0 508.0,796.0 508.0,796.0 496.0,796.0 496.0,748.0 508.0,748.0 508.0,700.0 508.0,700.0 496.0,700.0 496.0,652.0 508.0,652.0 508.0,604.0 " style="fill:none;stroke:black;stroke-horizontalDim:2"/>
<polyline points="941.0,604.0 1325.0,604.0 " style="fill:none;stroke:black;stroke-horizontalDim:2"/>
<polyline points="1325.0,604.0 1325.0,628.0 1337.0,628.0 1337.0,676.0 1325.0,676.0 1325.0,1012.0 1337.0,1012.0 1337.0,1060.0 1325.0,1060.0 1325.0,1084.0" style="fill:none;stroke:black;stroke-horizontalDim:2"/>
<polyline points="1325.0,1084.0 941.0,1084.0 " style="fill:none;stroke:black;stroke-horizontalDim:2"/>
<polyline points="941.0,604.0 941.0,628.0 929.0,628.0 929.0,676.0 941.0,676.0 941.0,1012.0 929.0,1012.0 929.0,1060.0 941.0,1060.0 941.0,1084.0" style="fill:none;stroke:black;stroke-horizontalDim:2"/>
<polyline points = "700.0,892.0 701.0300761498202,893.7143346014042" fill = "none" stroke = "red" /> 
<polyline points = "700.0,892.0 701.0300761498202,893.7143346014042" fill = "none" stroke = "red" /> 
<polyline points = "701.0300761498202,893.7143346014042 698.1221137488565,895.5317903714357" fill = "none" stroke = "red" /> 
<polyline points = "698.1221137488565,895.5317903714357 694.0082227914726,892.3140157374577" fill = "none" stroke = "red" /> 
<polyline points = "694.0082227914726,892.3140157374577 695.526456772234,885.3676994195597" fill = "none" stroke = "red" /> 
<polyline points = "695.526456772234,885.3676994195597 704.226182617407,882.9369221296336" fill = "none" stroke = "red" /> 
<polyline points = "704.226182617407,882.9369221296336 711.9342627444192,890.7456584407881" fill = "none" stroke = "red" /> 
<polyline points = "711.9342627444192,890.7456584407881 708.4254103241287,903.1808971406621" fill = "none" stroke = "red" /> 
<polyline points = "708.4254103241287,903.1808971406621 694.0062945053454,906.8349416730686" fill = "none" stroke = "red" /> 
<polyline points = "694.0062945053454,906.8349416730686 682.2216098692875,894.8158203707242" fill = "none" stroke = "red" /> 
<polyline points = "682.2216098692875,894.8158203707242 687.1442478062693,876.6791111376205" fill = "none" stroke = "red" /> 
<polyline points = "687.1442478062693,876.6791111376205 707.1624993980574,871.1985913368151" fill = "none" stroke = "red" /> 
<polyline points = "707.1624993980574,871.1985913368151 723.4755424176113,887.0101194203738" fill = "none" stroke = "red" /> 
<polyline points = "723.4755424176113,887.0101194203738 717.731957361625,911.0151962420985" fill = "none" stroke = "red" /> 
<polyline points = "717.731957361625,911.0151962420985 692.282154037124,918.9153274862729" fill = "none" stroke = "red" /> 
<polyline points = "692.282154037124,918.9153274862729 671.022225211328,899.7645713530757" fill = "none" stroke = "red" /> 
<polyline points = "671.022225211328,899.7645713530757 676.9811263891631,869.7709321453121" fill = "none" stroke = "red" /> 
<polyline points = "676.9811263891631,869.7709321453121 707.6483358476913,858.871417797302" fill = "none" stroke = "red" /> 
<polyline points = "707.6483358476913,858.871417797302 734.2380345866255,880.8753882025018" fill = "none" stroke = "red" /> 
<polyline points = "734.2380345866255,880.8753882025018 728.6789640484653,916.9302431016393" fill = "none" stroke = "red" /> 
<polyline points = "728.6789640484653,916.9302431016393 693.0540728933228,931.3923101204883" fill = "none" stroke = "red" /> 
<polyline points = "693.0540728933228,931.3923101204883 660.7896220871176,907.0514538809026" fill = "none" stroke = "red" /> 
<polyline points = "660.7896220871176,907.0514538809026 665.3275268413042,864.910895085671" fill = "none" stroke = "red" /> 
<polyline points = "665.3275268413042,864.910895085671 705.6059897966368,846.3428770244992" fill = "none" stroke = "red" /> 
<polyline points = "705.6059897966368,846.3428770244992 743.8501819668448,872.4766411323616" fill = "none" stroke = "red" /> 
<polyline points = "743.8501819668448,872.4766411323616 740.9576022144497,920.6788218175521" fill = "none" stroke = "red" /> 
<polyline points = "740.9576022144497,920.6788218175521 696.3726633653055,943.8733306135109" fill = "none" stroke = "red" /> 
<polyline points = "696.3726633653055,943.8733306135109 651.8856476938282,916.5154869859357" fill = "none" stroke = "red" /> 
<polyline points = "651.8856476938282,916.5154869859357 652.5093066152401,862.3245212029406" fill = "none" stroke = "red" /> 
<polyline points = "652.5093066152401,862.3245212029406 701.0122395733622,834.0088336809293" fill = "none" stroke = "red" /> 
<polyline points = "701.0122395733622,834.0088336809293 751.9615242270663,862.0" fill = "none" stroke = "red" /> 
<polyline points = "751.9615242270663,862.0 754.2264218426426,922.0581964552729" fill = "none" stroke = "red" /> 
<polyline points = "754.2264218426426,922.0581964552729 702.2335677889604,955.9610129292221" fill = "none" stroke = "red" /> 
<polyline points = "702.2335677889604,955.9610129292221 644.6477425156021,927.9461763109919" fill = "none" stroke = "red" /> 
<polyline points = "644.6477425156021,927.9461763109919 638.8820048516565,862.190762018343" fill = "none" stroke = "red" /> 
<polyline points = "638.8820048516565,862.190762018343 693.8990980076638,822.2663711335779" fill = "none" stroke = "red" /> 
<polyline points = "693.8990980076638,822.2663711335779 758.249223594996,849.6794618349417" fill = "none" stroke = "red" /> 
<polyline points = "758.249223594996,849.6794618349417 768.1173591554806,920.9141035082062" fill = "none" stroke = "red" /> 
<polyline points = "768.1173591554806,920.9141035082062 710.5771556729649,967.2603732243593" fill = "none" stroke = "red" /> 
<polyline points = "710.5771556729649,967.2603732243593 639.3826150063563,941.0869905018874" fill = "none" stroke = "red" /> 
<polyline points = "639.3826150063563,941.0869905018874 624.8245903371273,864.6383885339463" fill = "none" stroke = "red" /> 
<polyline points = "624.8245903371273,864.6383885339463 684.3536623791232,811.5065709572916" fill = "none" stroke = "red" /> 
<polyline points = "684.3536623791232,811.5065709572916 762.4241653401012,835.793029065856" fill = "none" stroke = "red" /> 
<polyline points = "762.4241653401012,835.793029065856 782.2422090128211,917.1439666061551" fill = "none" stroke = "red" /> 
<polyline points = "782.2422090128211,917.1439666061551 721.2891268127706,977.3860239122877" fill = "none" stroke = "red" /> 
<polyline points = "721.2891268127706,977.3860239122877 636.3603896932109,955.6396103067895" fill = "none" stroke = "red" /> 
<polyline points = "636.3603896932109,955.6396103067895 610.7327931826084,869.7431856048305" fill = "none" stroke = "red" /> 
<polyline points = "610.7327931826084,869.7431856048305 672.5170597560625,802.1073529394747" fill = "none" stroke = "red" /> 
<polyline points = "672.5170597560625,802.1073529394747 764.2365382104504,820.6580967541702" fill = "none" stroke = "red" /> 
<polyline points = "764.2365382104504,820.6580967541702 796.1994639778711,910.699281546901" fill = "none" stroke = "red" /> 
<polyline points = "796.1994639778711,910.699281546901 734.2020143325675,985.9692620785906" fill = "none" stroke = "red" /> 
<polyline points = "734.2020143325675,985.9692620785906 635.8093201129169,971.2688880686112" fill = "none" stroke = "red" /> 
<polyline points = "635.8093201129169,971.2688880686112 597.0121208508767,877.5259975001532" fill = "none" stroke = "red" /> 
<polyline points = "597.0121208508767,877.5259975001532 658.5825003801366,794.4264855340415" fill = "none" stroke = "red" /> 
<polyline points = "658.5825003801366,794.4264855340415 763.4808072475864,804.6261646075052" fill = "none" stroke = "red" /> 
<polyline points = "763.4808072475864,804.6261646075052 809.581416790092,901.5871317022427" fill = "none" stroke = "red" /> 
<polyline points = "809.581416790092,901.5871317022427 749.0975684403768,992.6649331855067" fill = "none" stroke = "red" /> 
<polyline points = "749.0975684403768,992.6649331855067 637.9111500082873,987.6084447457786" fill = "none" stroke = "red" /> 
<polyline points = "637.9111500082873,987.6084447457786 584.0706640657849,887.9516583825108" fill = "none" stroke = "red" /> 
<polyline points = "584.0706640657849,887.9516583825108 642.7924648109325,788.7948745575511" fill = "none" stroke = "red" /> 
<polyline points = "642.7924648109325,788.7948745575511 759.9999999999999,788.0769515458672" fill = "none" stroke = "red" /> 
<polyline points = "759.9999999999999,788.0769515458672 821.9814188090797,889.8708064146508" fill = "none" stroke = "red" /> 
<polyline points = "821.9814188090797,889.8708064146508 765.7099887649176,997.1579639233967" fill = "none" stroke = "red" /> 
<polyline points = "765.7099887649176,997.1579639233967 642.7971970328169,1004.2668220477342" fill = "none" stroke = "red" /> 
<polyline points = "642.7971970328169,1004.2668220477342 572.3118015667426,900.9288286392492" fill = "none" stroke = "red" /> 
<polyline points = "572.3118015667426,900.9288286392492 625.4350632743634,785.5102342424315" fill = "none" stroke = "red" /> 
<polyline points = "625.4350632743634,785.5102342424315 753.6892368860053,771.4119995911766" fill = "none" stroke = "red" /> 
<polyline points = "753.6892368860053,771.4119995911766 833.0011843199372,875.6695079837104" fill = "none" stroke = "red" /> 
<polyline points = "833.0011843199372,875.6695079837104 783.7299606442905,999.1694624905134" fill = "none" stroke = "red" /> 
<polyline points = "783.7299606442905,999.1694624905134 650.5452229627475,1020.8340988566134" fill = "none" stroke = "red" /> 
<polyline points = "650.5452229627475,1020.8340988566134 562.126914578291,916.3107448733706" fill = "none" stroke = "red" /> 
<polyline points = "562.126914578291,916.3107448733706 606.8396178833481,784.8312396083663" fill = "none" stroke = "red" /> 
<polyline points = "606.8396178833481,784.8312396083663 744.4984471899911,755.0478616534974" fill = "none" stroke = "red" /> 
<polyline points = "744.4984471899911,755.0478616534974 842.2580294586442,859.1571460657948" fill = "none" stroke = "red" /> 
<polyline points = "842.2580294586442,859.1571460657948 802.8094388279319,998.46229045012" fill = "none" stroke = "red" /> 
<polyline points = "802.8094388279319,998.46229045012 661.1771432346219,1036.8888739433603" fill = "none" stroke = "red" /> 
<polyline points = "661.1771432346219,1036.8888739433603 553.8882222173754,933.8968780841833" fill = "none" stroke = "red" /> 
<polyline points = "553.8882222173754,933.8968780841833 587.371529950647,786.9722525503761" fill = "none" stroke = "red" /> 
<polyline points = "587.371529950647,786.9722525503761 732.4342237675698,739.4089742855263" fill = "none" stroke = "red" /> 
<polyline points = "732.4342237675698,739.4089742855263 849.391934944692,840.5602315957692" fill = "none" stroke = "red" /> 
<polyline points = "849.391934944692,840.5602315957692 822.5671108990362,994.8460175498467" fill = "none" stroke = "red" /> 
<polyline points = "822.5671108990362,994.8460175498467 674.6576166634839,1052.0055111764125" fill = "none" stroke = "red" /> 
<polyline points = "674.6576166634839,1052.0055111764125 547.9418478510471,953.4354813202102" fill = "none" stroke = "red" /> 
<polyline points = "547.9418478510471,953.4354813202102 567.4265053321493,792.09870615676" fill = "none" stroke = "red" /> 
<polyline points = "567.4265053321493,792.09870615676 717.5607818289662,724.9203215781301" fill = "none" stroke = "red" /> 
<polyline points = "717.5607818289662,724.9203215781301 854.07232379623,820.1548955040798" fill = "none" stroke = "red" /> 
<polyline points = "854.07232379623,820.1548955040798 842.5944624794677,988.1811793969678" fill = "none" stroke = "red" /> 
<polyline points = "842.5944624794677,988.1811793969678 690.8935436137281,1065.7615390472959" fill = "none" stroke = "red" /> 
<polyline points = "690.8935436137281,1065.7615390472959 544.6012236568287,974.6269950503165" fill = "none" stroke = "red" /> 
<polyline points = "544.6012236568287,974.6269950503165 547.4242204750245,800.3232226660095" fill = "none" stroke = "red" /> 
<polyline points = "547.4242204750245,800.3232226660095 699.999999999999,712.0" fill = "none" stroke = "red" /> 
<polyline points = "699.999999999999,712.0 856.0044487277843,798.2630703663698" fill = "none" stroke = "red" /> 
<polyline points = "856.0044487277843,798.2630703663698 862.4623570860424,978.3827675526042" fill = "none" stroke = "red" /> 
<polyline points = "862.4623570860424,978.3827675526042 709.7344878611893,1077.7450934643507" fill = "none" stroke = "red" /> 
<polyline points = "709.7344878611893,1077.7450934643507 544.1409363596528,997.1282658525014" fill = "none" stroke = "red" /> 
<polyline points = "544.1409363596528,997.1282658525014 527.8015204630351,811.70253026927" fill = "none" stroke = "red" /> 
<polyline points = "527.8015204630351,811.70253026927 679.9305350526107,701.0517960892915" fill = "none" stroke = "red" /> 
<polyline points = "679.9305350526107,701.0517960892915 854.9352889491753,775.2478855085033" fill = "none" stroke = "red" /> 
<polyline points = "854.9352889491753,775.2478855085033 881.7280354950908,965.4228923095176" fill = "none" stroke = "red" /> 
<polyline points = "881.7280354950908,965.4228923095176 730.9740240779663,1087.562291437837" fill = "none" stroke = "red" /> 
<polyline points = "730.9740240779663,1087.562291437837 546.7911113762061,1020.55752193731" fill = "none" stroke = "red" /> 
<text x = "267.0" y = "892.0" dominant-baseline= "central" text-anchor= "middle" font-size = "30px" fill = "red">David </text> 
<text x = "267.0" y = "315.0" dominant-baseline= "central" text-anchor= "middle" font-size = "30px" fill = "red">Yehuda </text> 
<rect x = "63.0" y = "508.0" width = "408.0" height = "600.0" style="fill:none;stroke:black;stroke-horizontalDim:2"/>
</svg>