<?xml version = "1.0" encoding = "UTF-8" ?> 
<svg xmlns="http://www.w3.org/2000/svg" version = "1.1"> 
<line x1="25" y1="20" x2="63.400000000000006" y2 ="20" style="stroke:red;stroke:4"/>
<text x = "73.4" y = "25" font-size = "12px" fill = "red"> = 1 inch (2:5 scale) </text> 
<polyline points="25,30 63.400000000000006,30 " style="fill:none;stroke:black;stroke:2"/>
<polyline points="63.400000000000006,30.0 67.9312,30.0 67.9312,49.2 63.400000000000006,49.2 63.400000000000006,68.4 " style="fill:none;stroke:black;stroke:2"/>
<line x1 = "63.400000000000006" y1 = "57.288188976360004" x2 = "63.400000000000006" y2 = "60.311811023640004" style="fill:none;stroke:white;stroke:2"/>
<line x1 = "63.400000000000006" y1 = "57.288188976360004" x2 = "63.400000000000006" y2 = "60.311811023640004" style="fill:none;stroke:white;stroke:2"/>
<polyline points = "63.400000000000006,57.288188976360004 60.380611023640014,57.288188976360004 60.380611023640014,55.02047244090001 58.11289448818002,55.02047244090001 58.11289448818002,57.288188976360004 53.57746141726002,57.288188976360004 53.57746141726002,60.311811023640004 58.11289448818002,60.311811023640004 58.11289448818002,62.5795275591 60.380611023640014,62.5795275591 60.380611023640014,60.311811023640004 63.400000000000006,60.311811023640004" style="fill:none;stroke:black;stroke:2"/>
<polyline points = "63.400000000000006,57.288188976360004 60.380611023640014,57.288188976360004 60.380611023640014,55.02047244090001 58.11289448818002,55.02047244090001 58.11289448818002,57.288188976360004 53.57746141726002,57.288188976360004 53.57746141726002,60.311811023640004 58.11289448818002,60.311811023640004 58.11289448818002,62.5795275591 60.380611023640014,62.5795275591 60.380611023640014,60.311811023640004 63.400000000000006,60.311811023640004" style="fill:none;stroke:black;stroke:2"/>
<polyline points="63.400000000000006,68.4 63.400000000000006,72.9312 44.2,72.9312 44.2,68.4 25.0,68.4 " style="fill:none;stroke:black;stroke:2"/>
<line x1 = "33.08818897636" y1 = "68.4" x2 = "36.11181102364" y2 = "68.4" style="fill:none;stroke:white;stroke:2"/>
<line x1 = "33.08818897636" y1 = "68.4" x2 = "36.11181102364" y2 = "68.4" style="fill:none;stroke:white;stroke:2"/>
<polyline points = "33.08818897636,68.4 33.08818897636,65.38061102364001 30.8204724409,65.38061102364001 30.8204724409,63.11289448818002 33.08818897636,63.11289448818002 33.08818897636,58.57746141726002 36.11181102364,58.57746141726002 36.11181102364,63.11289448818002 38.3795275591,63.11289448818002 38.3795275591,65.38061102364001 36.11181102364,65.38061102364001 36.11181102364,68.4" style="fill:none;stroke:black;stroke:2"/>
<polyline points = "33.08818897636,68.4 33.08818897636,65.38061102364001 30.8204724409,65.38061102364001 30.8204724409,63.11289448818002 33.08818897636,63.11289448818002 33.08818897636,58.57746141726002 36.11181102364,58.57746141726002 36.11181102364,63.11289448818002 38.3795275591,63.11289448818002 38.3795275591,65.38061102364001 36.11181102364,65.38061102364001 36.11181102364,68.4" style="fill:none;stroke:black;stroke:2"/>
<polyline points="25.0,68.4 20.4688,68.4 20.4688,49.2 25.0,49.2 25.0,30.0 " style="fill:none;stroke:black;stroke:2"/>
<circle cx = "24.24621102364" cy = "58.800000000000004" r = "1.51181102364" style="fill:none;stroke:black;stroke:2"/>
<circle cx = "24.24621102364" cy = "58.800000000000004" r = "1.51181102364" style="fill:none;stroke:black;stroke:2"/>
<polyline points="72.9312,30 88.75200000000001,30 88.75200000000001,25.4688 104.57280000000002,25.4688 104.57280000000002,30 120.39360000000002,30" style="fill:none;stroke:black;stroke:2"/>
<line x1 = "82.35058897636" y1 = "30" x2 = "85.37421102364" y2 = "30" style="fill:none;stroke:white;stroke:2"/>
<line x1 = "107.95058897636" y1 = "30" x2 = "110.97421102364001" y2 = "30" style="fill:none;stroke:white;stroke:2"/>
<polyline points = "82.35058897636,30 82.35058897636,33.01938897636 80.0828724409,33.01938897636 80.0828724409,35.28710551182 82.35058897636,35.28710551182 82.35058897636,39.82253858274 85.37421102364,39.82253858274 85.37421102364,35.28710551182 87.6419275591,35.28710551182 87.6419275591,33.01938897636 85.37421102364,33.01938897636 85.37421102364,30" style="fill:none;stroke:black;stroke:2"/>
<polyline points = "107.95058897636,30 107.95058897636,33.01938897636 105.68287244090001,33.01938897636 105.68287244090001,35.28710551182 107.95058897636,35.28710551182 107.95058897636,39.82253858274 110.97421102364001,39.82253858274 110.97421102364001,35.28710551182 113.24192755909999,35.28710551182 113.24192755909999,33.01938897636 110.97421102364001,33.01938897636 110.97421102364001,30" style="fill:none;stroke:black;stroke:2"/>
<line x1 = "72.9312" y1 = "30" x2 = "77.4624" y2 = "30" style="fill:none;stroke:white;stroke:2"/>
<polyline points="115.86240000000001,30.0 120.3936,30.0 120.3936,49.2 115.86240000000001,49.2 115.86240000000001,68.4 " style="fill:none;stroke:black;stroke:2"/>
<line x1 = "115.86240000000001" y1 = "57.288188976360004" x2 = "115.86240000000001" y2 = "60.311811023640004" style="fill:none;stroke:white;stroke:2"/>
<line x1 = "115.86240000000001" y1 = "57.288188976360004" x2 = "115.86240000000001" y2 = "60.311811023640004" style="fill:none;stroke:white;stroke:2"/>
<polyline points = "115.86240000000001,57.288188976360004 112.84301102364002,57.288188976360004 112.84301102364002,55.02047244090001 110.57529448818002,55.02047244090001 110.57529448818002,57.288188976360004 106.03986141726003,57.288188976360004 106.03986141726003,60.311811023640004 110.57529448818002,60.311811023640004 110.57529448818002,62.5795275591 112.84301102364002,62.5795275591 112.84301102364002,60.311811023640004 115.86240000000001,60.311811023640004" style="fill:none;stroke:black;stroke:2"/>
<polyline points = "115.86240000000001,57.288188976360004 112.84301102364002,57.288188976360004 112.84301102364002,55.02047244090001 110.57529448818002,55.02047244090001 110.57529448818002,57.288188976360004 106.03986141726003,57.288188976360004 106.03986141726003,60.311811023640004 110.57529448818002,60.311811023640004 110.57529448818002,62.5795275591 112.84301102364002,62.5795275591 112.84301102364002,60.311811023640004 115.86240000000001,60.311811023640004" style="fill:none;stroke:black;stroke:2"/>
<polyline points="115.86240000000001,68.4 115.86240000000001,72.9312 96.6624,72.9312 96.6624,68.4 77.4624,68.4 " style="fill:none;stroke:black;stroke:2"/>
<line x1 = "85.55058897635999" y1 = "68.4" x2 = "88.57421102363999" y2 = "68.4" style="fill:none;stroke:white;stroke:2"/>
<line x1 = "85.55058897635999" y1 = "68.4" x2 = "88.57421102363999" y2 = "68.4" style="fill:none;stroke:white;stroke:2"/>
<polyline points = "85.55058897635999,68.4 85.55058897635999,65.38061102364001 83.2828724409,65.38061102364001 83.2828724409,63.11289448818002 85.55058897635999,63.11289448818002 85.55058897635999,58.57746141726002 88.57421102363999,58.57746141726002 88.57421102363999,63.11289448818002 90.84192755909999,63.11289448818002 90.84192755909999,65.38061102364001 88.57421102363999,65.38061102364001 88.57421102363999,68.4" style="fill:none;stroke:black;stroke:2"/>
<polyline points = "85.55058897635999,68.4 85.55058897635999,65.38061102364001 83.2828724409,65.38061102364001 83.2828724409,63.11289448818002 85.55058897635999,63.11289448818002 85.55058897635999,58.57746141726002 88.57421102363999,58.57746141726002 88.57421102363999,63.11289448818002 90.84192755909999,63.11289448818002 90.84192755909999,65.38061102364001 88.57421102363999,65.38061102364001 88.57421102363999,68.4" style="fill:none;stroke:black;stroke:2"/>
<polyline points="77.4624,68.4 72.9312,68.4 72.9312,49.2 77.4624,49.2 77.4624,30.0 " style="fill:none;stroke:black;stroke:2"/>
<circle cx = "76.70861102364" cy = "58.800000000000004" r = "1.51181102364" style="fill:none;stroke:black;stroke:2"/>
<circle cx = "76.70861102364" cy = "58.800000000000004" r = "1.51181102364" style="fill:none;stroke:black;stroke:2"/>
<polyline points="129.9248,30 437.12480000000005,30 " style="fill:none;stroke:black;stroke:2"/>
<polyline points="437.12480000000005,30.0 441.65600000000006,30.0 441.65600000000006,49.2 437.12480000000005,49.2 437.12480000000005,68.4 " style="fill:none;stroke:black;stroke:2"/>
<line x1 = "437.12480000000005" y1 = "57.288188976360004" x2 = "437.12480000000005" y2 = "60.311811023640004" style="fill:none;stroke:white;stroke:2"/>
<line x1 = "437.12480000000005" y1 = "57.288188976360004" x2 = "437.12480000000005" y2 = "60.311811023640004" style="fill:none;stroke:white;stroke:2"/>
<polyline points = "437.12480000000005,57.288188976360004 434.10541102364004,57.288188976360004 434.10541102364004,55.02047244090001 431.83769448818003,55.02047244090001 431.83769448818003,57.288188976360004 427.30226141726,57.288188976360004 427.30226141726,60.311811023640004 431.83769448818003,60.311811023640004 431.83769448818003,62.5795275591 434.10541102364004,62.5795275591 434.10541102364004,60.311811023640004 437.12480000000005,60.311811023640004" style="fill:none;stroke:black;stroke:2"/>
<polyline points = "437.12480000000005,57.288188976360004 434.10541102364004,57.288188976360004 434.10541102364004,55.02047244090001 431.83769448818003,55.02047244090001 431.83769448818003,57.288188976360004 427.30226141726,57.288188976360004 427.30226141726,60.311811023640004 431.83769448818003,60.311811023640004 431.83769448818003,62.5795275591 434.10541102364004,62.5795275591 434.10541102364004,60.311811023640004 437.12480000000005,60.311811023640004" style="fill:none;stroke:black;stroke:2"/>
<polyline points="437.12480000000005,68.4 437.12480000000005,72.9312 417.92480000000006,72.9312 417.92480000000006,68.4 398.7248000000001,68.4 398.7248000000001,68.4 398.7248000000001,72.9312 379.5248,72.9312 379.5248,68.4 360.3248000000001,68.4 360.32480000000004,68.4 360.32480000000004,72.9312 341.12480000000005,72.9312 341.12480000000005,68.4 321.92480000000006,68.4 321.9248,68.4 321.9248,72.9312 302.7248000000001,72.9312 302.7248000000001,68.4 283.5248,68.4 283.5248,68.4 283.5248,72.9312 264.32480000000004,72.9312 264.32480000000004,68.4 245.12480000000005,68.4 245.12480000000002,68.4 245.12480000000002,72.9312 225.92480000000003,72.9312 225.92480000000003,68.4 206.72480000000004,68.4 206.72480000000002,68.4 206.72480000000002,72.9312 187.52480000000003,72.9312 187.52480000000003,68.4 168.32480000000004,68.4 168.32479999999998,68.4 168.32479999999998,72.9312 149.1248,72.9312 149.1248,68.4 129.9248,68.4 " style="fill:none;stroke:black;stroke:2"/>
<polyline points="129.9248,68.4 125.3936,68.4 125.3936,49.2 129.9248,49.2 129.9248,30.0 " style="fill:none;stroke:black;stroke:2"/>
<circle cx = "129.17101102364" cy = "58.800000000000004" r = "1.51181102364" style="fill:none;stroke:black;stroke:2"/>
<circle cx = "129.17101102364" cy = "58.800000000000004" r = "1.51181102364" style="fill:none;stroke:black;stroke:2"/>
<polyline points="451.1872000000001,30 758.3872000000001,30 " style="fill:none;stroke:black;stroke:2"/>
<polyline points="758.3872000000001,30.0 762.9184000000001,30.0 762.9184000000001,49.2 758.3872000000001,49.2 758.3872000000001,68.4 " style="fill:none;stroke:black;stroke:2"/>
<line x1 = "758.3872000000001" y1 = "57.288188976360004" x2 = "758.3872000000001" y2 = "60.311811023640004" style="fill:none;stroke:white;stroke:2"/>
<line x1 = "758.3872000000001" y1 = "57.288188976360004" x2 = "758.3872000000001" y2 = "60.311811023640004" style="fill:none;stroke:white;stroke:2"/>
<polyline points = "758.3872000000001,57.288188976360004 755.3678110236401,57.288188976360004 755.3678110236401,55.02047244090001 753.1000944881802,55.02047244090001 753.1000944881802,57.288188976360004 748.5646614172601,57.288188976360004 748.5646614172601,60.311811023640004 753.1000944881802,60.311811023640004 753.1000944881802,62.5795275591 755.3678110236401,62.5795275591 755.3678110236401,60.311811023640004 758.3872000000001,60.311811023640004" style="fill:none;stroke:black;stroke:2"/>
<polyline points = "758.3872000000001,57.288188976360004 755.3678110236401,57.288188976360004 755.3678110236401,55.02047244090001 753.1000944881802,55.02047244090001 753.1000944881802,57.288188976360004 748.5646614172601,57.288188976360004 748.5646614172601,60.311811023640004 753.1000944881802,60.311811023640004 753.1000944881802,62.5795275591 755.3678110236401,62.5795275591 755.3678110236401,60.311811023640004 758.3872000000001,60.311811023640004" style="fill:none;stroke:black;stroke:2"/>
<polyline points="758.3872000000001,68.4 758.3872000000001,72.9312 739.1872000000001,72.9312 739.1872000000001,68.4 719.9872,68.4 719.9872000000001,68.4 719.9872000000001,72.9312 700.7872000000001,72.9312 700.7872000000001,68.4 681.5872,68.4 681.5872000000002,68.4 681.5872000000002,72.9312 662.3872000000001,72.9312 662.3872000000001,68.4 643.1872000000001,68.4 643.1872000000001,68.4 643.1872000000001,72.9312 623.9872,72.9312 623.9872,68.4 604.7872,68.4 604.7872000000001,68.4 604.7872000000001,72.9312 585.5872,72.9312 585.5872,68.4 566.3872,68.4 566.3872000000001,68.4 566.3872000000001,72.9312 547.1872000000001,72.9312 547.1872000000001,68.4 527.9872,68.4 527.9872,68.4 527.9872,72.9312 508.78720000000004,72.9312 508.78720000000004,68.4 489.5872,68.4 489.58720000000005,68.4 489.58720000000005,72.9312 470.3872,72.9312 470.3872,68.4 451.18719999999996,68.4 " style="fill:none;stroke:black;stroke:2"/>
<polyline points="451.1872000000001,68.4 446.65600000000006,68.4 446.65600000000006,49.2 451.1872000000001,49.2 451.1872000000001,30.0 " style="fill:none;stroke:black;stroke:2"/>
<circle cx = "450.4334110236401" cy = "58.800000000000004" r = "1.51181102364" style="fill:none;stroke:black;stroke:2"/>
<circle cx = "450.4334110236401" cy = "58.800000000000004" r = "1.51181102364" style="fill:none;stroke:black;stroke:2"/>
<polyline points="77.4624,82.4624 77.4624,77.9312 96.6624,77.9312 96.6624,82.4624 115.86240000000001,82.4624 " style="fill:none;stroke:black;stroke:2"/>
<circle cx = "87.0624" cy = "81.70861102364" r = "1.51181102364" style="fill:none;stroke:black;stroke:1"/>
<circle cx = "87.0624" cy = "81.70861102364" r = "1.51181102364" style="fill:none;stroke:black;stroke:1"/>
<polyline points="115.86240000000001,82.4624 120.3936,82.4624 120.3936,101.6624 115.86240000000001,101.6624 115.86240000000001,120.86240000000001 115.86240000000001,120.86240000000001 120.3936,120.86240000000001 120.3936,140.06240000000003 115.86240000000001,140.06240000000003 115.86240000000001,159.2624 115.86240000000001,159.2624 120.3936,159.2624 120.3936,178.4624 115.86240000000001,178.4624 115.86240000000001,197.66240000000002 115.86240000000001,197.66240000000002 120.3936,197.66240000000002 120.3936,216.86240000000004 115.86240000000001,216.86240000000004 115.86240000000001,236.06240000000003 115.86240000000001,236.06240000000003 120.3936,236.06240000000003 120.3936,255.2624 115.86240000000001,255.2624 115.86240000000001,274.4624 115.86240000000001,274.4624 120.3936,274.4624 120.3936,293.66240000000005 115.86240000000001,293.66240000000005 115.86240000000001,312.86240000000004 115.86240000000001,312.86240000000004 120.3936,312.86240000000004 120.3936,332.0624 115.86240000000001,332.0624 115.86240000000001,351.26240000000007 115.86240000000001,351.26240000000007 120.3936,351.26240000000007 120.3936,370.46240000000006 115.86240000000001,370.46240000000006 115.86240000000001,389.66240000000005 " style="fill:none;stroke:black;stroke:2"/>
<polyline points="115.86240000000001,389.66240000000005 115.86240000000001,394.19360000000006 96.6624,394.19360000000006 96.6624,389.66240000000005 77.4624,389.66240000000005 " style="fill:none;stroke:black;stroke:2"/>
<circle cx = "106.26240000000001" cy = "390.41618897636005" r = "1.51181102364" style="fill:none;stroke:black;stroke:1"/>
<circle cx = "106.26240000000001" cy = "390.41618897636005" r = "1.51181102364" style="fill:none;stroke:black;stroke:1"/>
<polyline points="77.4624,389.66240000000005 72.9312,389.66240000000005 72.9312,370.46240000000006 77.4624,370.46240000000006 77.4624,351.26240000000007 77.4624,351.26240000000007 72.9312,351.26240000000007 72.9312,332.0624 77.4624,332.0624 77.4624,312.8624000000001 77.4624,312.86240000000004 72.9312,312.86240000000004 72.9312,293.66240000000005 77.4624,293.66240000000005 77.4624,274.46240000000006 77.4624,274.4624 72.9312,274.4624 72.9312,255.26240000000004 77.4624,255.26240000000004 77.4624,236.06240000000005 77.4624,236.06240000000003 72.9312,236.06240000000003 72.9312,216.86240000000004 77.4624,216.86240000000004 77.4624,197.66240000000005 77.4624,197.66240000000002 72.9312,197.66240000000002 72.9312,178.46240000000003 77.4624,178.46240000000003 77.4624,159.26240000000004 77.4624,159.2624 72.9312,159.2624 72.9312,140.06240000000003 77.4624,140.06240000000003 77.4624,120.86240000000004 77.4624,120.86239999999998 72.9312,120.86239999999998 72.9312,101.66239999999999 77.4624,101.66239999999999 77.4624,82.4624 " style="fill:none;stroke:black;stroke:2"/>
<polyline points = "20.4688,77.9312 36.28960000000001,77.9312 36.28960000000001,82.4624 52.11040000000001,82.4624 52.11040000000001,77.9312 67.93120000000002,77.9312 67.93120000000002,394.19360000000006 20.4688,394.19360000000006 20.4688,77.9312" style="fill:none;stroke:black;stroke:2"/>
<circle cx = "31.400000000000002" cy = "81.70861102364" r = "1.51181102364" style="fill:none;stroke:black;stroke:1"/>
<circle cx = "57.00000000000001" cy = "81.70861102364" r = "1.51181102364" style="fill:none;stroke:black;stroke:1"/>
<polyline points = "20.4688,89.4512 28.360000000000007,89.4512" fill = "none" stroke = "black" /> 
<polyline points = "30.760000000000005,89.4512 57.64000000000001,89.4512" fill = "none" stroke = "black" /> 
<polyline points = "60.040000000000006 89.4512 67.9312,89.4512" fill = "none" stroke = "black" /> 
<polyline points = "22.8688,91.8512 65.53120000000001,91.8512" fill = "none" stroke = "black" /> 
<polyline points = "20.4688,94.2512 28.360000000000007,94.2512" fill = "none" stroke = "black" /> 
<polyline points = "30.760000000000005,94.2512 57.64000000000001,94.2512" fill = "none" stroke = "black" /> 
<polyline points = "60.040000000000006 94.2512 67.9312,94.2512" fill = "none" stroke = "black" /> 
<polyline points = "22.8688,96.65119999999999 65.53120000000001,96.65119999999999" fill = "none" stroke = "black" /> 
<polyline points = "20.4688,99.05120000000001 28.360000000000007,99.05120000000001" fill = "none" stroke = "black" /> 
<polyline points = "30.760000000000005,99.05120000000001 57.64000000000001,99.05120000000001" fill = "none" stroke = "black" /> 
<polyline points = "60.040000000000006 99.05120000000001 67.9312,99.05120000000001" fill = "none" stroke = "black" /> 
<polyline points = "22.8688,101.4512 65.53120000000001,101.4512" fill = "none" stroke = "black" /> 
<polyline points = "20.4688,103.8512 28.360000000000007,103.8512" fill = "none" stroke = "black" /> 
<polyline points = "30.760000000000005,103.8512 57.64000000000001,103.8512" fill = "none" stroke = "black" /> 
<polyline points = "60.040000000000006 103.8512 67.9312,103.8512" fill = "none" stroke = "black" /> 
<polyline points = "22.8688,106.25120000000001 65.53120000000001,106.25120000000001" fill = "none" stroke = "black" /> 
<polyline points = "20.4688,108.6512 28.360000000000007,108.6512" fill = "none" stroke = "black" /> 
<polyline points = "30.760000000000005,108.6512 57.64000000000001,108.6512" fill = "none" stroke = "black" /> 
<polyline points = "60.040000000000006 108.6512 67.9312,108.6512" fill = "none" stroke = "black" /> 
<polyline points = "22.8688,111.05120000000001 65.53120000000001,111.05120000000001" fill = "none" stroke = "black" /> 
<polyline points = "20.4688,113.4512 28.360000000000007,113.4512" fill = "none" stroke = "black" /> 
<polyline points = "30.760000000000005,113.4512 57.64000000000001,113.4512" fill = "none" stroke = "black" /> 
<polyline points = "60.040000000000006 113.4512 67.9312,113.4512" fill = "none" stroke = "black" /> 
<polyline points = "22.8688,115.8512 65.53120000000001,115.8512" fill = "none" stroke = "black" /> 
<polyline points = "20.4688,118.2512 28.360000000000007,118.2512" fill = "none" stroke = "black" /> 
<polyline points = "30.760000000000005,118.2512 57.64000000000001,118.2512" fill = "none" stroke = "black" /> 
<polyline points = "60.040000000000006 118.2512 67.9312,118.2512" fill = "none" stroke = "black" /> 
<polyline points = "22.8688,120.65119999999999 65.53120000000001,120.65119999999999" fill = "none" stroke = "black" /> 
<polyline points = "20.4688,123.05120000000001 28.360000000000007,123.05120000000001" fill = "none" stroke = "black" /> 
<polyline points = "30.760000000000005,123.05120000000001 57.64000000000001,123.05120000000001" fill = "none" stroke = "black" /> 
<polyline points = "60.040000000000006 123.05120000000001 67.9312,123.05120000000001" fill = "none" stroke = "black" /> 
<polyline points = "22.8688,125.4512 65.53120000000001,125.4512" fill = "none" stroke = "black" /> 
<polyline points = "20.4688,127.85120000000002 28.360000000000007,127.85120000000002" fill = "none" stroke = "black" /> 
<polyline points = "30.760000000000005,127.85120000000002 57.64000000000001,127.85120000000002" fill = "none" stroke = "black" /> 
<polyline points = "60.040000000000006 127.85120000000002 67.9312,127.85120000000002" fill = "none" stroke = "black" /> 
<polyline points = "22.8688,130.2512 65.53120000000001,130.2512" fill = "none" stroke = "black" /> 
<polyline points = "20.4688,132.6512 28.360000000000007,132.6512" fill = "none" stroke = "black" /> 
<polyline points = "30.760000000000005,132.6512 57.64000000000001,132.6512" fill = "none" stroke = "black" /> 
<polyline points = "60.040000000000006 132.6512 67.9312,132.6512" fill = "none" stroke = "black" /> 
<polyline points = "22.8688,135.0512 65.53120000000001,135.0512" fill = "none" stroke = "black" /> 
<polyline points = "20.4688,137.4512 28.360000000000007,137.4512" fill = "none" stroke = "black" /> 
<polyline points = "30.760000000000005,137.4512 57.64000000000001,137.4512" fill = "none" stroke = "black" /> 
<polyline points = "60.040000000000006 137.4512 67.9312,137.4512" fill = "none" stroke = "black" /> 
<polyline points = "22.8688,139.8512 65.53120000000001,139.8512" fill = "none" stroke = "black" /> 
<polyline points = "20.4688,142.25119999999998 28.360000000000007,142.25119999999998" fill = "none" stroke = "black" /> 
<polyline points = "30.760000000000005,142.25119999999998 57.64000000000001,142.25119999999998" fill = "none" stroke = "black" /> 
<polyline points = "60.040000000000006 142.25119999999998 67.9312,142.25119999999998" fill = "none" stroke = "black" /> 
<polyline points = "22.8688,144.6512 65.53120000000001,144.6512" fill = "none" stroke = "black" /> 
<polyline points = "20.4688,147.0512 28.360000000000007,147.0512" fill = "none" stroke = "black" /> 
<polyline points = "30.760000000000005,147.0512 57.64000000000001,147.0512" fill = "none" stroke = "black" /> 
<polyline points = "60.040000000000006 147.0512 67.9312,147.0512" fill = "none" stroke = "black" /> 
<polyline points = "22.8688,149.4512 65.53120000000001,149.4512" fill = "none" stroke = "black" /> 
<polyline points = "20.4688,151.8512 28.360000000000007,151.8512" fill = "none" stroke = "black" /> 
<polyline points = "30.760000000000005,151.8512 57.64000000000001,151.8512" fill = "none" stroke = "black" /> 
<polyline points = "60.040000000000006 151.8512 67.9312,151.8512" fill = "none" stroke = "black" /> 
<polyline points = "22.8688,154.2512 65.53120000000001,154.2512" fill = "none" stroke = "black" /> 
<polyline points = "20.4688,156.65120000000002 28.360000000000007,156.65120000000002" fill = "none" stroke = "black" /> 
<polyline points = "30.760000000000005,156.65120000000002 57.64000000000001,156.65120000000002" fill = "none" stroke = "black" /> 
<polyline points = "60.040000000000006 156.65120000000002 67.9312,156.65120000000002" fill = "none" stroke = "black" /> 
<polyline points = "22.8688,159.05120000000002 65.53120000000001,159.05120000000002" fill = "none" stroke = "black" /> 
<polyline points = "20.4688,161.4512 28.360000000000007,161.4512" fill = "none" stroke = "black" /> 
<polyline points = "30.760000000000005,161.4512 57.64000000000001,161.4512" fill = "none" stroke = "black" /> 
<polyline points = "60.040000000000006 161.4512 67.9312,161.4512" fill = "none" stroke = "black" /> 
<polyline points = "22.8688,163.8512 65.53120000000001,163.8512" fill = "none" stroke = "black" /> 
<polyline points = "20.4688,166.25119999999998 28.360000000000007,166.25119999999998" fill = "none" stroke = "black" /> 
<polyline points = "30.760000000000005,166.25119999999998 57.64000000000001,166.25119999999998" fill = "none" stroke = "black" /> 
<polyline points = "60.040000000000006 166.25119999999998 67.9312,166.25119999999998" fill = "none" stroke = "black" /> 
<polyline points = "22.8688,168.6512 65.53120000000001,168.6512" fill = "none" stroke = "black" /> 
<polyline points = "20.4688,171.0512 28.360000000000007,171.0512" fill = "none" stroke = "black" /> 
<polyline points = "30.760000000000005,171.0512 57.64000000000001,171.0512" fill = "none" stroke = "black" /> 
<polyline points = "60.040000000000006 171.0512 67.9312,171.0512" fill = "none" stroke = "black" /> 
<polyline points = "22.8688,173.45119999999997 65.53120000000001,173.45119999999997" fill = "none" stroke = "black" /> 
<polyline points = "20.4688,175.8512 28.360000000000007,175.8512" fill = "none" stroke = "black" /> 
<polyline points = "30.760000000000005,175.8512 57.64000000000001,175.8512" fill = "none" stroke = "black" /> 
<polyline points = "60.040000000000006 175.8512 67.9312,175.8512" fill = "none" stroke = "black" /> 
<polyline points = "22.8688,178.25119999999998 65.53120000000001,178.25119999999998" fill = "none" stroke = "black" /> 
<polyline points = "20.4688,180.65120000000002 28.360000000000007,180.65120000000002" fill = "none" stroke = "black" /> 
<polyline points = "30.760000000000005,180.65120000000002 57.64000000000001,180.65120000000002" fill = "none" stroke = "black" /> 
<polyline points = "60.040000000000006 180.65120000000002 67.9312,180.65120000000002" fill = "none" stroke = "black" /> 
<polyline points = "22.8688,183.0512 65.53120000000001,183.0512" fill = "none" stroke = "black" /> 
<polyline points = "20.4688,185.4512 28.360000000000007,185.4512" fill = "none" stroke = "black" /> 
<polyline points = "30.760000000000005,185.4512 57.64000000000001,185.4512" fill = "none" stroke = "black" /> 
<polyline points = "60.040000000000006 185.4512 67.9312,185.4512" fill = "none" stroke = "black" /> 
<polyline points = "22.8688,187.85119999999998 65.53120000000001,187.85119999999998" fill = "none" stroke = "black" /> 
<polyline points = "20.4688,190.25119999999998 28.360000000000007,190.25119999999998" fill = "none" stroke = "black" /> 
<polyline points = "30.760000000000005,190.25119999999998 57.64000000000001,190.25119999999998" fill = "none" stroke = "black" /> 
<polyline points = "60.040000000000006 190.25119999999998 67.9312,190.25119999999998" fill = "none" stroke = "black" /> 
<polyline points = "22.8688,192.6512 65.53120000000001,192.6512" fill = "none" stroke = "black" /> 
<polyline points = "20.4688,195.0512 28.360000000000007,195.0512" fill = "none" stroke = "black" /> 
<polyline points = "30.760000000000005,195.0512 57.64000000000001,195.0512" fill = "none" stroke = "black" /> 
<polyline points = "60.040000000000006 195.0512 67.9312,195.0512" fill = "none" stroke = "black" /> 
<polyline points = "22.8688,197.4512 65.53120000000001,197.4512" fill = "none" stroke = "black" /> 
<polyline points = "20.4688,199.8512 28.360000000000007,199.8512" fill = "none" stroke = "black" /> 
<polyline points = "30.760000000000005,199.8512 57.64000000000001,199.8512" fill = "none" stroke = "black" /> 
<polyline points = "60.040000000000006 199.8512 67.9312,199.8512" fill = "none" stroke = "black" /> 
<polyline points = "22.8688,202.25119999999998 65.53120000000001,202.25119999999998" fill = "none" stroke = "black" /> 
<polyline points = "20.4688,204.65120000000002 28.360000000000007,204.65120000000002" fill = "none" stroke = "black" /> 
<polyline points = "30.760000000000005,204.65120000000002 57.64000000000001,204.65120000000002" fill = "none" stroke = "black" /> 
<polyline points = "60.040000000000006 204.65120000000002 67.9312,204.65120000000002" fill = "none" stroke = "black" /> 
<polyline points = "22.8688,207.0512 65.53120000000001,207.0512" fill = "none" stroke = "black" /> 
<polyline points = "20.4688,209.4512 28.360000000000007,209.4512" fill = "none" stroke = "black" /> 
<polyline points = "30.760000000000005,209.4512 57.64000000000001,209.4512" fill = "none" stroke = "black" /> 
<polyline points = "60.040000000000006 209.4512 67.9312,209.4512" fill = "none" stroke = "black" /> 
<polyline points = "22.8688,211.85119999999998 65.53120000000001,211.85119999999998" fill = "none" stroke = "black" /> 
<polyline points = "20.4688,214.25119999999998 28.360000000000007,214.25119999999998" fill = "none" stroke = "black" /> 
<polyline points = "30.760000000000005,214.25119999999998 57.64000000000001,214.25119999999998" fill = "none" stroke = "black" /> 
<polyline points = "60.040000000000006 214.25119999999998 67.9312,214.25119999999998" fill = "none" stroke = "black" /> 
<polyline points = "22.8688,216.6512 65.53120000000001,216.6512" fill = "none" stroke = "black" /> 
<polyline points = "20.4688,219.0512 28.360000000000007,219.0512" fill = "none" stroke = "black" /> 
<polyline points = "30.760000000000005,219.0512 57.64000000000001,219.0512" fill = "none" stroke = "black" /> 
<polyline points = "60.040000000000006 219.0512 67.9312,219.0512" fill = "none" stroke = "black" /> 
<polyline points = "22.8688,221.4512 65.53120000000001,221.4512" fill = "none" stroke = "black" /> 
<polyline points = "20.4688,223.8512 28.360000000000007,223.8512" fill = "none" stroke = "black" /> 
<polyline points = "30.760000000000005,223.8512 57.64000000000001,223.8512" fill = "none" stroke = "black" /> 
<polyline points = "60.040000000000006 223.8512 67.9312,223.8512" fill = "none" stroke = "black" /> 
<polyline points = "22.8688,226.25119999999998 65.53120000000001,226.25119999999998" fill = "none" stroke = "black" /> 
<polyline points = "20.4688,228.65120000000002 28.360000000000007,228.65120000000002" fill = "none" stroke = "black" /> 
<polyline points = "30.760000000000005,228.65120000000002 57.64000000000001,228.65120000000002" fill = "none" stroke = "black" /> 
<polyline points = "60.040000000000006 228.65120000000002 67.9312,228.65120000000002" fill = "none" stroke = "black" /> 
<polyline points = "22.8688,231.0512 65.53120000000001,231.0512" fill = "none" stroke = "black" /> 
<polyline points = "20.4688,233.45120000000003 28.360000000000007,233.45120000000003" fill = "none" stroke = "black" /> 
<polyline points = "30.760000000000005,233.45120000000003 57.64000000000001,233.45120000000003" fill = "none" stroke = "black" /> 
<polyline points = "60.040000000000006 233.45120000000003 67.9312,233.45120000000003" fill = "none" stroke = "black" /> 
<polyline points = "22.8688,235.8512 65.53120000000001,235.8512" fill = "none" stroke = "black" /> 
<polyline points = "20.4688,238.25119999999998 28.360000000000007,238.25119999999998" fill = "none" stroke = "black" /> 
<polyline points = "30.760000000000005,238.25119999999998 57.64000000000001,238.25119999999998" fill = "none" stroke = "black" /> 
<polyline points = "60.040000000000006 238.25119999999998 67.9312,238.25119999999998" fill = "none" stroke = "black" /> 
<polyline points = "22.8688,240.6512 65.53120000000001,240.6512" fill = "none" stroke = "black" /> 
<polyline points = "20.4688,243.0512 28.360000000000007,243.0512" fill = "none" stroke = "black" /> 
<polyline points = "30.760000000000005,243.0512 57.64000000000001,243.0512" fill = "none" stroke = "black" /> 
<polyline points = "60.040000000000006 243.0512 67.9312,243.0512" fill = "none" stroke = "black" /> 
<polyline points = "22.8688,245.4512 65.53120000000001,245.4512" fill = "none" stroke = "black" /> 
<polyline points = "20.4688,247.8512 28.360000000000007,247.8512" fill = "none" stroke = "black" /> 
<polyline points = "30.760000000000005,247.8512 57.64000000000001,247.8512" fill = "none" stroke = "black" /> 
<polyline points = "60.040000000000006 247.8512 67.9312,247.8512" fill = "none" stroke = "black" /> 
<polyline points = "22.8688,250.25119999999998 65.53120000000001,250.25119999999998" fill = "none" stroke = "black" /> 
<polyline points = "20.4688,252.65120000000002 28.360000000000007,252.65120000000002" fill = "none" stroke = "black" /> 
<polyline points = "30.760000000000005,252.65120000000002 57.64000000000001,252.65120000000002" fill = "none" stroke = "black" /> 
<polyline points = "60.040000000000006 252.65120000000002 67.9312,252.65120000000002" fill = "none" stroke = "black" /> 
<polyline points = "22.8688,255.0512 65.53120000000001,255.0512" fill = "none" stroke = "black" /> 
<polyline points = "20.4688,257.45120000000003 28.360000000000007,257.45120000000003" fill = "none" stroke = "black" /> 
<polyline points = "30.760000000000005,257.45120000000003 57.64000000000001,257.45120000000003" fill = "none" stroke = "black" /> 
<polyline points = "60.040000000000006 257.45120000000003 67.9312,257.45120000000003" fill = "none" stroke = "black" /> 
<polyline points = "22.8688,259.8512 65.53120000000001,259.8512" fill = "none" stroke = "black" /> 
<polyline points = "20.4688,262.2512 28.360000000000007,262.2512" fill = "none" stroke = "black" /> 
<polyline points = "30.760000000000005,262.2512 57.64000000000001,262.2512" fill = "none" stroke = "black" /> 
<polyline points = "60.040000000000006 262.2512 67.9312,262.2512" fill = "none" stroke = "black" /> 
<polyline points = "22.8688,264.65119999999996 65.53120000000001,264.65119999999996" fill = "none" stroke = "black" /> 
<polyline points = "20.4688,267.0512 28.360000000000007,267.0512" fill = "none" stroke = "black" /> 
<polyline points = "30.760000000000005,267.0512 57.64000000000001,267.0512" fill = "none" stroke = "black" /> 
<polyline points = "60.040000000000006 267.0512 67.9312,267.0512" fill = "none" stroke = "black" /> 
<polyline points = "22.8688,269.45120000000003 65.53120000000001,269.45120000000003" fill = "none" stroke = "black" /> 
<polyline points = "20.4688,271.8512 28.360000000000007,271.8512" fill = "none" stroke = "black" /> 
<polyline points = "30.760000000000005,271.8512 57.64000000000001,271.8512" fill = "none" stroke = "black" /> 
<polyline points = "60.040000000000006 271.8512 67.9312,271.8512" fill = "none" stroke = "black" /> 
<polyline points = "22.8688,274.2512 65.53120000000001,274.2512" fill = "none" stroke = "black" /> 
<polyline points = "20.4688,276.6512 28.360000000000007,276.6512" fill = "none" stroke = "black" /> 
<polyline points = "30.760000000000005,276.6512 57.64000000000001,276.6512" fill = "none" stroke = "black" /> 
<polyline points = "60.040000000000006 276.6512 67.9312,276.6512" fill = "none" stroke = "black" /> 
<polyline points = "22.8688,279.0512 65.53120000000001,279.0512" fill = "none" stroke = "black" /> 
<polyline points = "20.4688,281.45120000000003 28.360000000000007,281.45120000000003" fill = "none" stroke = "black" /> 
<polyline points = "30.760000000000005,281.45120000000003 57.64000000000001,281.45120000000003" fill = "none" stroke = "black" /> 
<polyline points = "60.040000000000006 281.45120000000003 67.9312,281.45120000000003" fill = "none" stroke = "black" /> 
<polyline points = "22.8688,283.8512 65.53120000000001,283.8512" fill = "none" stroke = "black" /> 
<polyline points = "20.4688,286.25120000000004 28.360000000000007,286.25120000000004" fill = "none" stroke = "black" /> 
<polyline points = "30.760000000000005,286.25120000000004 57.64000000000001,286.25120000000004" fill = "none" stroke = "black" /> 
<polyline points = "60.040000000000006 286.25120000000004 67.9312,286.25120000000004" fill = "none" stroke = "black" /> 
<polyline points = "22.8688,288.6512 65.53120000000001,288.6512" fill = "none" stroke = "black" /> 
<polyline points = "20.4688,291.0512 28.360000000000007,291.0512" fill = "none" stroke = "black" /> 
<polyline points = "30.760000000000005,291.0512 57.64000000000001,291.0512" fill = "none" stroke = "black" /> 
<polyline points = "60.040000000000006 291.0512 67.9312,291.0512" fill = "none" stroke = "black" /> 
<polyline points = "22.8688,293.45120000000003 65.53120000000001,293.45120000000003" fill = "none" stroke = "black" /> 
<polyline points = "20.4688,295.8512 28.360000000000007,295.8512" fill = "none" stroke = "black" /> 
<polyline points = "30.760000000000005,295.8512 57.64000000000001,295.8512" fill = "none" stroke = "black" /> 
<polyline points = "60.040000000000006 295.8512 67.9312,295.8512" fill = "none" stroke = "black" /> 
<polyline points = "22.8688,298.2512 65.53120000000001,298.2512" fill = "none" stroke = "black" /> 
<polyline points = "20.4688,300.6512 28.360000000000007,300.6512" fill = "none" stroke = "black" /> 
<polyline points = "30.760000000000005,300.6512 57.64000000000001,300.6512" fill = "none" stroke = "black" /> 
<polyline points = "60.040000000000006 300.6512 67.9312,300.6512" fill = "none" stroke = "black" /> 
<polyline points = "22.8688,303.0512 65.53120000000001,303.0512" fill = "none" stroke = "black" /> 
<polyline points = "20.4688,305.45120000000003 28.360000000000007,305.45120000000003" fill = "none" stroke = "black" /> 
<polyline points = "30.760000000000005,305.45120000000003 57.64000000000001,305.45120000000003" fill = "none" stroke = "black" /> 
<polyline points = "60.040000000000006 305.45120000000003 67.9312,305.45120000000003" fill = "none" stroke = "black" /> 
<polyline points = "22.8688,307.8512 65.53120000000001,307.8512" fill = "none" stroke = "black" /> 
<polyline points = "20.4688,310.25120000000004 28.360000000000007,310.25120000000004" fill = "none" stroke = "black" /> 
<polyline points = "30.760000000000005,310.25120000000004 57.64000000000001,310.25120000000004" fill = "none" stroke = "black" /> 
<polyline points = "60.040000000000006 310.25120000000004 67.9312,310.25120000000004" fill = "none" stroke = "black" /> 
<polyline points = "22.8688,312.6512 65.53120000000001,312.6512" fill = "none" stroke = "black" /> 
<polyline points = "20.4688,315.0512 28.360000000000007,315.0512" fill = "none" stroke = "black" /> 
<polyline points = "30.760000000000005,315.0512 57.64000000000001,315.0512" fill = "none" stroke = "black" /> 
<polyline points = "60.040000000000006 315.0512 67.9312,315.0512" fill = "none" stroke = "black" /> 
<polyline points = "22.8688,317.45120000000003 65.53120000000001,317.45120000000003" fill = "none" stroke = "black" /> 
<polyline points = "20.4688,319.8512 28.360000000000007,319.8512" fill = "none" stroke = "black" /> 
<polyline points = "30.760000000000005,319.8512 57.64000000000001,319.8512" fill = "none" stroke = "black" /> 
<polyline points = "60.040000000000006 319.8512 67.9312,319.8512" fill = "none" stroke = "black" /> 
<polyline points = "22.8688,322.2512 65.53120000000001,322.2512" fill = "none" stroke = "black" /> 
<polyline points = "20.4688,324.6512 28.360000000000007,324.6512" fill = "none" stroke = "black" /> 
<polyline points = "30.760000000000005,324.6512 57.64000000000001,324.6512" fill = "none" stroke = "black" /> 
<polyline points = "60.040000000000006 324.6512 67.9312,324.6512" fill = "none" stroke = "black" /> 
<polyline points = "22.8688,327.0512 65.53120000000001,327.0512" fill = "none" stroke = "black" /> 
<polyline points = "20.4688,329.45120000000003 28.360000000000007,329.45120000000003" fill = "none" stroke = "black" /> 
<polyline points = "30.760000000000005,329.45120000000003 57.64000000000001,329.45120000000003" fill = "none" stroke = "black" /> 
<polyline points = "60.040000000000006 329.45120000000003 67.9312,329.45120000000003" fill = "none" stroke = "black" /> 
<polyline points = "22.8688,331.8512 65.53120000000001,331.8512" fill = "none" stroke = "black" /> 
<polyline points = "20.4688,334.25120000000004 28.360000000000007,334.25120000000004" fill = "none" stroke = "black" /> 
<polyline points = "30.760000000000005,334.25120000000004 57.64000000000001,334.25120000000004" fill = "none" stroke = "black" /> 
<polyline points = "60.040000000000006 334.25120000000004 67.9312,334.25120000000004" fill = "none" stroke = "black" /> 
<polyline points = "22.8688,336.6512 65.53120000000001,336.6512" fill = "none" stroke = "black" /> 
<polyline points = "20.4688,339.0512 28.360000000000007,339.0512" fill = "none" stroke = "black" /> 
<polyline points = "30.760000000000005,339.0512 57.64000000000001,339.0512" fill = "none" stroke = "black" /> 
<polyline points = "60.040000000000006 339.0512 67.9312,339.0512" fill = "none" stroke = "black" /> 
<polyline points = "22.8688,341.45120000000003 65.53120000000001,341.45120000000003" fill = "none" stroke = "black" /> 
<polyline points = "20.4688,343.8512 28.360000000000007,343.8512" fill = "none" stroke = "black" /> 
<polyline points = "30.760000000000005,343.8512 57.64000000000001,343.8512" fill = "none" stroke = "black" /> 
<polyline points = "60.040000000000006 343.8512 67.9312,343.8512" fill = "none" stroke = "black" /> 
<polyline points = "22.8688,346.2512 65.53120000000001,346.2512" fill = "none" stroke = "black" /> 
<polyline points = "20.4688,348.6512 28.360000000000007,348.6512" fill = "none" stroke = "black" /> 
<polyline points = "30.760000000000005,348.6512 57.64000000000001,348.6512" fill = "none" stroke = "black" /> 
<polyline points = "60.040000000000006 348.6512 67.9312,348.6512" fill = "none" stroke = "black" /> 
<polyline points = "22.8688,351.05120000000005 65.53120000000001,351.05120000000005" fill = "none" stroke = "black" /> 
<polyline points = "20.4688,353.45120000000003 28.360000000000007,353.45120000000003" fill = "none" stroke = "black" /> 
<polyline points = "30.760000000000005,353.45120000000003 57.64000000000001,353.45120000000003" fill = "none" stroke = "black" /> 
<polyline points = "60.040000000000006 353.45120000000003 67.9312,353.45120000000003" fill = "none" stroke = "black" /> 
<polyline points = "22.8688,355.8512 65.53120000000001,355.8512" fill = "none" stroke = "black" /> 
<polyline points = "96.6624,236.06240000000003 97.04867855618255,236.7052754755266" fill = "none" stroke = "red" /> 
<polyline points = "96.6624,236.06240000000003 97.04867855618255,236.7052754755266" fill = "none" stroke = "red" /> 
<polyline points = "97.04867855618255,236.7052754755266 95.95819265582116,237.38682138928843" fill = "none" stroke = "red" /> 
<polyline points = "95.95819265582116,237.38682138928843 94.41548354680222,236.18015590154664" fill = "none" stroke = "red" /> 
<polyline points = "94.41548354680222,236.18015590154664 94.98482128958776,233.5752872823349" fill = "none" stroke = "red" /> 
<polyline points = "94.98482128958776,233.5752872823349 98.24721848152763,232.66374579861258" fill = "none" stroke = "red" /> 
<polyline points = "98.24721848152763,232.66374579861258 101.13774852915724,235.5920219152956" fill = "none" stroke = "red" /> 
<polyline points = "101.13774852915724,235.5920219152956 99.82192887154827,240.25523642774832" fill = "none" stroke = "red" /> 
<polyline points = "99.82192887154827,240.25523642774832 94.41476043950453,241.62550312740075" fill = "none" stroke = "red" /> 
<polyline points = "94.41476043950453,241.62550312740075 89.99550370098282,237.1183326390216" fill = "none" stroke = "red" /> 
<polyline points = "89.99550370098282,237.1183326390216 91.84149292735097,230.31706667660768" fill = "none" stroke = "red" /> 
<polyline points = "91.84149292735097,230.31706667660768 99.34833727427154,228.26187175130565" fill = "none" stroke = "red" /> 
<polyline points = "99.34833727427154,228.26187175130565 105.46572840660426,234.1911947826402" fill = "none" stroke = "red" /> 
<polyline points = "105.46572840660426,234.1911947826402 103.31188401060936,243.19309859078695" fill = "none" stroke = "red" /> 
<polyline points = "103.31188401060936,243.19309859078695 93.76820776392151,246.15564780735238" fill = "none" stroke = "red" /> 
<polyline points = "93.76820776392151,246.15564780735238 85.79573445424799,238.9741142574034" fill = "none" stroke = "red" /> 
<polyline points = "85.79573445424799,238.9741142574034 88.03032239593617,227.72649955449208" fill = "none" stroke = "red" /> 
<polyline points = "88.03032239593617,227.72649955449208 99.53052594288425,223.63918167398828" fill = "none" stroke = "red" /> 
<polyline points = "99.53052594288425,223.63918167398828 109.50166296998457,231.8906705759382" fill = "none" stroke = "red" /> 
<polyline points = "109.50166296998457,231.8906705759382 107.4170115181745,245.41124116311477" fill = "none" stroke = "red" /> 
<polyline points = "107.4170115181745,245.41124116311477 94.05767733499604,250.83451629518314" fill = "none" stroke = "red" /> 
<polyline points = "94.05767733499604,250.83451629518314 81.95850828266907,241.7066952053385" fill = "none" stroke = "red" /> 
<polyline points = "81.95850828266907,241.7066952053385 83.6602225654891,225.90398565712667" fill = "none" stroke = "red" /> 
<text x = "44.2" y = "375.0338285714286" dominant-baseline= "central" text-anchor= "middle" font-size = "14px" fill = "blue">SEAS 22' </text> 
<text x = "25" y = "408.7248" dy = "0">
<tspan x = "20" dy = ".6em" >BOX ATTRIBUTES </tspan>
<tspan x = "20" dy = "1.2em" >thickness: </tspan>
<tspan x = "20" dy = "1.2em" >width: </tspan>
<tspan x = "20" dy = "1.2em" >length:  </tspan>
<tspan x = "20" dy = "1.2em" >height: </tspan>
<tspan x = "20" dy = "1.2em" >partition:  </tspan>
<tspan x = "20" dy = "1.2em" >partition location: </tspan>
<tspan x = "20" dy = "1.2em" >lid: </tspan>
<tspan x = "20" dy = "1.2em" >top text: </tspan>
<tspan x = "20" dy = "1.2em" >front text: </tspan>
<tspan x = "20" dy = "1.2em" >fractal: </tspan>
<tspan x = "20" dy = "1.2em" >fractal side/bottom: </tspan>
<tspan x = "20" dy = "1.2em" >front text string: </tspan>
<tspan x = "20" dy = "1.2em" >top text string: </tspan>
</text><text x = "200" y = "408.7248" dy = "0">
<tspan x = "200" dy = ".6em" > VALUES </tspan>
<tspan x = "200" dy = "1.2em" >0.118</tspan>
<tspan x = "200" dy = "1.2em" >1</tspan>
<tspan x = "200" dy = "1.2em" >8</tspan>
<tspan x = "200" dy = "1.2em" >1</tspan>
<tspan x = "200" dy = "1.2em" >False</tspan>
<tspan x = "200" dy = "1.2em" >0</tspan>
<tspan x = "200" dy = "1.2em" >True</tspan>
<tspan x = "200" dy = "1.2em" >True</tspan>
<tspan x = "200" dy = "1.2em" >False</tspan>
<tspan x = "200" dy = "1.2em" >True</tspan>
<tspan x = "200" dy = "1.2em" >bottom</tspan>
<tspan x = "200" dy = "1.2em" ></tspan>
<tspan x = "200" dy = "1.2em" >SEAS 22'</tspan>
</text></svg>