<?xml version = "1.0" encoding = "UTF-8" ?> 
<svg xmlns="http://www.w3.org/2000/svg" version = "1.1"> 
<line x1="25" y1="20" x2="63.400000000000006" y2 ="20" style="stroke:red;stroke:4"/>
<text x = "73.4" y = "25" font-size = "12px" fill = "red"> = 1 inch (2:5 scale) </text> 
<polyline points="25,30 140.20000000000002,30 " style="fill:none;stroke:black;stroke:2"/>
<polyline points="140.20000000000002,30.0 144.73120000000003,30.0 144.73120000000003,49.2 140.20000000000002,49.2 140.20000000000002,68.4 140.20000000000002,68.4 144.73120000000003,68.4 144.73120000000003,87.60000000000001 140.20000000000002,87.60000000000001 140.20000000000002,106.80000000000001 140.20000000000002,106.80000000000001 144.73120000000003,106.80000000000001 144.73120000000003,126.00000000000001 140.20000000000002,126.00000000000001 140.20000000000002,145.20000000000002 " style="fill:none;stroke:black;stroke:2"/>
<line x1 = "140.20000000000002" y1 = "57.288188976360004" x2 = "140.20000000000002" y2 = "60.311811023640004" style="fill:none;stroke:white;stroke:2"/>
<line x1 = "140.20000000000002" y1 = "134.08818897636002" x2 = "140.20000000000002" y2 = "137.11181102364003" style="fill:none;stroke:white;stroke:2"/>
<polyline points = "140.20000000000002,57.288188976360004 137.18061102364,57.288188976360004 137.18061102364,55.02047244090001 134.91289448818,55.02047244090001 134.91289448818,57.288188976360004 130.37746141726,57.288188976360004 130.37746141726,60.311811023640004 134.91289448818,60.311811023640004 134.91289448818,62.5795275591 137.18061102364,62.5795275591 137.18061102364,60.311811023640004 140.20000000000002,60.311811023640004" style="fill:none;stroke:black;stroke:2"/>
<polyline points = "140.20000000000002,134.08818897636002 137.18061102364,134.08818897636002 137.18061102364,131.8204724409 134.91289448818,131.8204724409 134.91289448818,134.08818897636002 130.37746141726,134.08818897636002 130.37746141726,137.11181102364003 134.91289448818,137.11181102364003 134.91289448818,139.3795275591 137.18061102364,139.3795275591 137.18061102364,137.11181102364003 140.20000000000002,137.11181102364003" style="fill:none;stroke:black;stroke:2"/>
<polyline points="140.20000000000002,145.20000000000002 140.20000000000002,149.73120000000003 121.00000000000001,149.73120000000003 121.00000000000001,145.20000000000002 101.80000000000001,145.20000000000002 101.80000000000001,145.20000000000002 101.80000000000001,149.73120000000003 82.60000000000001,149.73120000000003 82.60000000000001,145.20000000000002 63.400000000000006,145.20000000000002 63.400000000000006,145.20000000000002 63.400000000000006,149.73120000000003 44.2,149.73120000000003 44.2,145.20000000000002 25.0,145.20000000000002 " style="fill:none;stroke:black;stroke:2"/>
<line x1 = "33.08818897636" y1 = "145.20000000000002" x2 = "36.11181102364" y2 = "145.20000000000002" style="fill:none;stroke:white;stroke:2"/>
<line x1 = "109.88818897636001" y1 = "145.20000000000002" x2 = "112.91181102364001" y2 = "145.20000000000002" style="fill:none;stroke:white;stroke:2"/>
<polyline points = "33.08818897636,145.20000000000002 33.08818897636,142.18061102364 30.8204724409,142.18061102364 30.8204724409,139.91289448818 33.08818897636,139.91289448818 33.08818897636,135.37746141726 36.11181102364,135.37746141726 36.11181102364,139.91289448818 38.3795275591,139.91289448818 38.3795275591,142.18061102364 36.11181102364,142.18061102364 36.11181102364,145.20000000000002" style="fill:none;stroke:black;stroke:2"/>
<polyline points = "109.88818897636001,145.20000000000002 109.88818897636001,142.18061102364 107.62047244090002,142.18061102364 107.62047244090002,139.91289448818 109.88818897636001,139.91289448818 109.88818897636001,135.37746141726 112.91181102364001,135.37746141726 112.91181102364001,139.91289448818 115.17952755910001,139.91289448818 115.17952755910001,142.18061102364 112.91181102364001,142.18061102364 112.91181102364001,145.20000000000002" style="fill:none;stroke:black;stroke:2"/>
<polyline points="25.0,145.20000000000002 20.4688,145.20000000000002 20.4688,126.00000000000001 25.0,126.00000000000001 25.0,106.80000000000001 25.0,106.80000000000001 20.4688,106.80000000000001 20.4688,87.60000000000001 25.0,87.60000000000001 25.0,68.4 25.0,68.4 20.4688,68.4 20.4688,49.2 25.0,49.2 25.0,30.0 " style="fill:none;stroke:black;stroke:2"/>
<circle cx = "24.24621102364" cy = "58.800000000000004" r = "1.51181102364" style="fill:none;stroke:black;stroke:2"/>
<circle cx = "24.24621102364" cy = "135.60000000000002" r = "1.51181102364" style="fill:none;stroke:black;stroke:2"/>
<polyline points="154.2624,30 269.4624,30 " style="fill:none;stroke:black;stroke:2"/>
<polyline points="269.4624,30.0 273.9936,30.0 273.9936,49.2 269.4624,49.2 269.4624,68.4 269.4624,68.4 273.9936,68.4 273.9936,87.60000000000001 269.4624,87.60000000000001 269.4624,106.80000000000001 269.4624,106.80000000000001 273.9936,106.80000000000001 273.9936,126.00000000000001 269.4624,126.00000000000001 269.4624,145.20000000000002 " style="fill:none;stroke:black;stroke:2"/>
<line x1 = "269.4624" y1 = "57.288188976360004" x2 = "269.4624" y2 = "60.311811023640004" style="fill:none;stroke:white;stroke:2"/>
<line x1 = "269.4624" y1 = "134.08818897636002" x2 = "269.4624" y2 = "137.11181102364003" style="fill:none;stroke:white;stroke:2"/>
<polyline points = "269.4624,57.288188976360004 266.44301102364,57.288188976360004 266.44301102364,55.02047244090001 264.17529448818,55.02047244090001 264.17529448818,57.288188976360004 259.63986141725997,57.288188976360004 259.63986141725997,60.311811023640004 264.17529448818,60.311811023640004 264.17529448818,62.5795275591 266.44301102364,62.5795275591 266.44301102364,60.311811023640004 269.4624,60.311811023640004" style="fill:none;stroke:black;stroke:2"/>
<polyline points = "269.4624,134.08818897636002 266.44301102364,134.08818897636002 266.44301102364,131.8204724409 264.17529448818,131.8204724409 264.17529448818,134.08818897636002 259.63986141725997,134.08818897636002 259.63986141725997,137.11181102364003 264.17529448818,137.11181102364003 264.17529448818,139.3795275591 266.44301102364,139.3795275591 266.44301102364,137.11181102364003 269.4624,137.11181102364003" style="fill:none;stroke:black;stroke:2"/>
<polyline points="269.4624,145.20000000000002 269.4624,149.73120000000003 250.2624,149.73120000000003 250.2624,145.20000000000002 231.06240000000003,145.20000000000002 231.0624,145.20000000000002 231.0624,149.73120000000003 211.8624,149.73120000000003 211.8624,145.20000000000002 192.66240000000002,145.20000000000002 192.6624,145.20000000000002 192.6624,149.73120000000003 173.4624,149.73120000000003 173.4624,145.20000000000002 154.2624,145.20000000000002 " style="fill:none;stroke:black;stroke:2"/>
<line x1 = "162.35058897635997" y1 = "145.20000000000002" x2 = "165.37421102364" y2 = "145.20000000000002" style="fill:none;stroke:white;stroke:2"/>
<line x1 = "239.15058897635998" y1 = "145.20000000000002" x2 = "242.17421102364" y2 = "145.20000000000002" style="fill:none;stroke:white;stroke:2"/>
<polyline points = "162.35058897635997,145.20000000000002 162.35058897635997,142.18061102364 160.08287244089996,142.18061102364 160.08287244089996,139.91289448818 162.35058897635997,139.91289448818 162.35058897635997,135.37746141726 165.37421102364,135.37746141726 165.37421102364,139.91289448818 167.6419275591,139.91289448818 167.6419275591,142.18061102364 165.37421102364,142.18061102364 165.37421102364,145.20000000000002" style="fill:none;stroke:black;stroke:2"/>
<polyline points = "239.15058897635998,145.20000000000002 239.15058897635998,142.18061102364 236.88287244089997,142.18061102364 236.88287244089997,139.91289448818 239.15058897635998,139.91289448818 239.15058897635998,135.37746141726 242.17421102364,135.37746141726 242.17421102364,139.91289448818 244.4419275591,139.91289448818 244.4419275591,142.18061102364 242.17421102364,142.18061102364 242.17421102364,145.20000000000002" style="fill:none;stroke:black;stroke:2"/>
<polyline points="154.26239999999999,145.20000000000002 149.73119999999997,145.20000000000002 149.73119999999997,126.00000000000001 154.26239999999999,126.00000000000001 154.26239999999999,106.80000000000001 154.26239999999999,106.80000000000001 149.73119999999997,106.80000000000001 149.73119999999997,87.60000000000001 154.26239999999999,87.60000000000001 154.26239999999999,68.4 154.26239999999999,68.4 149.73119999999997,68.4 149.73119999999997,49.2 154.26239999999999,49.2 154.26239999999999,30.0 " style="fill:none;stroke:black;stroke:2"/>
<circle cx = "153.50861102364001" cy = "58.800000000000004" r = "1.51181102364" style="fill:none;stroke:black;stroke:2"/>
<circle cx = "153.50861102364001" cy = "135.60000000000002" r = "1.51181102364" style="fill:none;stroke:black;stroke:2"/>
<polyline points="283.5248,30 475.5248,30 " style="fill:none;stroke:black;stroke:2"/>
<polyline points="475.5248,30.0 480.05600000000004,30.0 480.05600000000004,49.2 475.5248,49.2 475.5248,68.4 475.5248,68.4 480.05600000000004,68.4 480.05600000000004,87.60000000000001 475.5248,87.60000000000001 475.5248,106.80000000000001 475.5248,106.80000000000001 480.05600000000004,106.80000000000001 480.05600000000004,126.00000000000001 475.5248,126.00000000000001 475.5248,145.20000000000002 " style="fill:none;stroke:black;stroke:2"/>
<line x1 = "475.5248" y1 = "57.288188976360004" x2 = "475.5248" y2 = "60.311811023640004" style="fill:none;stroke:white;stroke:2"/>
<line x1 = "475.5248" y1 = "134.08818897636002" x2 = "475.5248" y2 = "137.11181102364003" style="fill:none;stroke:white;stroke:2"/>
<polyline points = "475.5248,57.288188976360004 472.50541102364,57.288188976360004 472.50541102364,55.02047244090001 470.23769448818,55.02047244090001 470.23769448818,57.288188976360004 465.70226141726,57.288188976360004 465.70226141726,60.311811023640004 470.23769448818,60.311811023640004 470.23769448818,62.5795275591 472.50541102364,62.5795275591 472.50541102364,60.311811023640004 475.5248,60.311811023640004" style="fill:none;stroke:black;stroke:2"/>
<polyline points = "475.5248,134.08818897636002 472.50541102364,134.08818897636002 472.50541102364,131.8204724409 470.23769448818,131.8204724409 470.23769448818,134.08818897636002 465.70226141726,134.08818897636002 465.70226141726,137.11181102364003 470.23769448818,137.11181102364003 470.23769448818,139.3795275591 472.50541102364,139.3795275591 472.50541102364,137.11181102364003 475.5248,137.11181102364003" style="fill:none;stroke:black;stroke:2"/>
<polyline points="475.5248,145.20000000000002 475.5248,149.73120000000003 456.32480000000004,149.73120000000003 456.32480000000004,145.20000000000002 437.12480000000005,145.20000000000002 437.12480000000005,145.20000000000002 437.12480000000005,149.73120000000003 417.9248,149.73120000000003 417.9248,145.20000000000002 398.7248000000001,145.20000000000002 398.7248,145.20000000000002 398.7248,149.73120000000003 379.5248,149.73120000000003 379.5248,145.20000000000002 360.32480000000004,145.20000000000002 360.3248,145.20000000000002 360.3248,149.73120000000003 341.12480000000005,149.73120000000003 341.12480000000005,145.20000000000002 321.9248,145.20000000000002 321.9248,145.20000000000002 321.9248,149.73120000000003 302.7248,149.73120000000003 302.7248,145.20000000000002 283.5248,145.20000000000002 " style="fill:none;stroke:black;stroke:2"/>
<polyline points="283.5248,145.20000000000002 278.9936,145.20000000000002 278.9936,126.00000000000001 283.5248,126.00000000000001 283.5248,106.80000000000001 283.5248,106.80000000000001 278.9936,106.80000000000001 278.9936,87.60000000000001 283.5248,87.60000000000001 283.5248,68.4 283.5248,68.4 278.9936,68.4 278.9936,49.2 283.5248,49.2 283.5248,30.0 " style="fill:none;stroke:black;stroke:2"/>
<circle cx = "282.77101102364" cy = "58.800000000000004" r = "1.51181102364" style="fill:none;stroke:black;stroke:2"/>
<circle cx = "282.77101102364" cy = "135.60000000000002" r = "1.51181102364" style="fill:none;stroke:black;stroke:2"/>
<rect x = "348.45920000000007" y = "39.6" width = "4.5312" height = "19.200000000000003" style="fill:none;stroke:black;strokeDim:3"/>
<rect x = "348.45920000000007" y = "116.4" width = "4.5312" height = "19.200000000000003" style="fill:none;stroke:black;strokeDim:3"/>
<polyline points="489.58720000000005,30 681.5872,30 " style="fill:none;stroke:black;stroke:2"/>
<polyline points="681.5872,30.0 686.1184000000001,30.0 686.1184000000001,49.2 681.5872,49.2 681.5872,68.4 681.5872,68.4 686.1184000000001,68.4 686.1184000000001,87.60000000000001 681.5872,87.60000000000001 681.5872,106.80000000000001 681.5872,106.80000000000001 686.1184000000001,106.80000000000001 686.1184000000001,126.00000000000001 681.5872,126.00000000000001 681.5872,145.20000000000002 " style="fill:none;stroke:black;stroke:2"/>
<line x1 = "681.5872" y1 = "57.288188976360004" x2 = "681.5872" y2 = "60.311811023640004" style="fill:none;stroke:white;stroke:2"/>
<line x1 = "681.5872" y1 = "134.08818897636002" x2 = "681.5872" y2 = "137.11181102364003" style="fill:none;stroke:white;stroke:2"/>
<polyline points = "681.5872,57.288188976360004 678.56781102364,57.288188976360004 678.56781102364,55.02047244090001 676.3000944881801,55.02047244090001 676.3000944881801,57.288188976360004 671.7646614172601,57.288188976360004 671.7646614172601,60.311811023640004 676.3000944881801,60.311811023640004 676.3000944881801,62.5795275591 678.56781102364,62.5795275591 678.56781102364,60.311811023640004 681.5872,60.311811023640004" style="fill:none;stroke:black;stroke:2"/>
<polyline points = "681.5872,134.08818897636002 678.56781102364,134.08818897636002 678.56781102364,131.8204724409 676.3000944881801,131.8204724409 676.3000944881801,134.08818897636002 671.7646614172601,134.08818897636002 671.7646614172601,137.11181102364003 676.3000944881801,137.11181102364003 676.3000944881801,139.3795275591 678.56781102364,139.3795275591 678.56781102364,137.11181102364003 681.5872,137.11181102364003" style="fill:none;stroke:black;stroke:2"/>
<polyline points="681.5872,145.20000000000002 681.5872,149.73120000000003 662.3872,149.73120000000003 662.3872,145.20000000000002 643.1872,145.20000000000002 643.1872000000001,145.20000000000002 643.1872000000001,149.73120000000003 623.9872,149.73120000000003 623.9872,145.20000000000002 604.7872,145.20000000000002 604.7872,145.20000000000002 604.7872,149.73120000000003 585.5871999999999,149.73120000000003 585.5871999999999,145.20000000000002 566.3871999999999,145.20000000000002 566.3872,145.20000000000002 566.3872,149.73120000000003 547.1872,149.73120000000003 547.1872,145.20000000000002 527.9871999999999,145.20000000000002 527.9872,145.20000000000002 527.9872,149.73120000000003 508.7872,149.73120000000003 508.7872,145.20000000000002 489.58719999999994,145.20000000000002 " style="fill:none;stroke:black;stroke:2"/>
<polyline points="489.58720000000005,145.20000000000002 485.05600000000004,145.20000000000002 485.05600000000004,126.00000000000001 489.58720000000005,126.00000000000001 489.58720000000005,106.80000000000001 489.58720000000005,106.80000000000001 485.05600000000004,106.80000000000001 485.05600000000004,87.60000000000001 489.58720000000005,87.60000000000001 489.58720000000005,68.4 489.58720000000005,68.4 485.05600000000004,68.4 485.05600000000004,49.2 489.58720000000005,49.2 489.58720000000005,30.0 " style="fill:none;stroke:black;stroke:2"/>
<circle cx = "488.83341102364005" cy = "58.800000000000004" r = "1.51181102364" style="fill:none;stroke:black;stroke:2"/>
<circle cx = "488.83341102364005" cy = "135.60000000000002" r = "1.51181102364" style="fill:none;stroke:black;stroke:2"/>
<rect x = "612.1216000000001" y = "39.6" width = "4.5312" height = "19.200000000000003" style="fill:none;stroke:black;strokeDim:3"/>
<rect x = "612.1216000000001" y = "116.4" width = "4.5312" height = "19.200000000000003" style="fill:none;stroke:black;strokeDim:3"/>
<polyline points="154.2624,159.2624 154.2624,154.7312 173.4624,154.7312 173.4624,159.2624 192.6624,159.2624 192.66240000000002,159.2624 192.66240000000002,154.7312 211.8624,154.7312 211.8624,159.2624 231.0624,159.2624 231.06240000000003,159.2624 231.06240000000003,154.7312 250.2624,154.7312 250.2624,159.2624 269.4624,159.2624 " style="fill:none;stroke:black;stroke:2"/>
<circle cx = "163.8624" cy = "158.50861102364001" r = "1.51181102364" style="fill:none;stroke:black;stroke:1"/>
<circle cx = "240.66240000000002" cy = "158.50861102364001" r = "1.51181102364" style="fill:none;stroke:black;stroke:1"/>
<polyline points="269.4624,159.2624 273.9936,159.2624 273.9936,178.4624 269.4624,178.4624 269.4624,197.6624 269.4624,197.66240000000002 273.9936,197.66240000000002 273.9936,216.8624 269.4624,216.8624 269.4624,236.0624 269.4624,236.06240000000003 273.9936,236.06240000000003 273.9936,255.2624 269.4624,255.2624 269.4624,274.4624 269.4624,274.4624 273.9936,274.4624 273.9936,293.66240000000005 269.4624,293.66240000000005 269.4624,312.8624 269.4624,312.86240000000004 273.9936,312.86240000000004 273.9936,332.0624 269.4624,332.0624 269.4624,351.2624 " style="fill:none;stroke:black;stroke:2"/>
<polyline points="269.4624,351.26240000000007 269.4624,355.7936000000001 250.2624,355.7936000000001 250.2624,351.26240000000007 231.06240000000003,351.26240000000007 231.0624,351.26240000000007 231.0624,355.7936000000001 211.8624,355.7936000000001 211.8624,351.26240000000007 192.66240000000002,351.26240000000007 192.6624,351.26240000000007 192.6624,355.7936000000001 173.4624,355.7936000000001 173.4624,351.26240000000007 154.2624,351.26240000000007 " style="fill:none;stroke:black;stroke:2"/>
<circle cx = "183.0624" cy = "352.01618897636007" r = "1.51181102364" style="fill:none;stroke:black;stroke:1"/>
<circle cx = "259.8624" cy = "352.01618897636007" r = "1.51181102364" style="fill:none;stroke:black;stroke:1"/>
<polyline points="154.26239999999999,351.26240000000007 149.73119999999997,351.26240000000007 149.73119999999997,332.0624000000001 154.26239999999999,332.0624000000001 154.26239999999999,312.8624000000001 154.26239999999999,312.8624000000001 149.73119999999997,312.8624000000001 149.73119999999997,293.66240000000005 154.26239999999999,293.66240000000005 154.26239999999999,274.4624000000001 154.26239999999999,274.46240000000006 149.73119999999997,274.46240000000006 149.73119999999997,255.26240000000007 154.26239999999999,255.26240000000007 154.26239999999999,236.06240000000008 154.26239999999999,236.06240000000005 149.73119999999997,236.06240000000005 149.73119999999997,216.86240000000006 154.26239999999999,216.86240000000006 154.26239999999999,197.66240000000008 154.26239999999999,197.66240000000005 149.73119999999997,197.66240000000005 149.73119999999997,178.46240000000006 154.26239999999999,178.46240000000006 154.26239999999999,159.26240000000007 " style="fill:none;stroke:black;stroke:2"/>
<polyline points="283.5248,159.2624 398.7248000000001,159.2624 " style="fill:none;stroke:black;stroke:2"/>
<polyline points="398.7248000000001,159.2624 398.7248000000001,168.8624 403.2560000000001,168.8624 403.2560000000001,188.06240000000003 398.7248000000001,188.06240000000003 398.7248000000001,245.66240000000002 403.2560000000001,245.66240000000002 403.2560000000001,264.86240000000004 398.7248000000001,264.86240000000004 398.7248000000001,274.4624" style="fill:none;stroke:black;stroke:2"/>
<polyline points="398.7248000000001,274.4624 283.5248,274.4624 " style="fill:none;stroke:black;stroke:2"/>
<polyline points="283.5248,159.2624 283.5248,168.8624 278.9936,168.8624 278.9936,188.06240000000003 283.5248,188.06240000000003 283.5248,245.66240000000002 278.9936,245.66240000000002 278.9936,264.86240000000004 283.5248,264.86240000000004 283.5248,274.4624" style="fill:none;stroke:black;stroke:2"/>
<polyline points = "211.86240000000004,255.2624 212.24867855618257,255.9052754755266" fill = "none" stroke = "red" /> 
<polyline points = "211.86240000000004,255.2624 212.24867855618257,255.9052754755266" fill = "none" stroke = "red" /> 
<polyline points = "212.24867855618257,255.9052754755266 211.1581926558212,256.5868213892884" fill = "none" stroke = "red" /> 
<polyline points = "211.1581926558212,256.5868213892884 209.61548354680224,255.38015590154663" fill = "none" stroke = "red" /> 
<polyline points = "209.61548354680224,255.38015590154663 210.1848212895878,252.7752872823349" fill = "none" stroke = "red" /> 
<polyline points = "210.1848212895878,252.7752872823349 213.44721848152767,251.86374579861257" fill = "none" stroke = "red" /> 
<polyline points = "213.44721848152767,251.86374579861257 216.33774852915727,254.79202191529558" fill = "none" stroke = "red" /> 
<polyline points = "216.33774852915727,254.79202191529558 215.02192887154828,259.4552364277483" fill = "none" stroke = "red" /> 
<polyline points = "215.02192887154828,259.4552364277483 209.61476043950458,260.82550312740074" fill = "none" stroke = "red" /> 
<polyline points = "209.61476043950458,260.82550312740074 205.19550370098287,256.3183326390216" fill = "none" stroke = "red" /> 
<polyline points = "205.19550370098287,256.3183326390216 207.041492927351,249.51706667660767" fill = "none" stroke = "red" /> 
<polyline points = "207.041492927351,249.51706667660767 214.54833727427157,247.46187175130564" fill = "none" stroke = "red" /> 
<polyline points = "214.54833727427157,247.46187175130564 220.66572840660427,253.39119478264018" fill = "none" stroke = "red" /> 
<polyline points = "220.66572840660427,253.39119478264018 218.5118840106094,262.3930985907869" fill = "none" stroke = "red" /> 
<polyline points = "218.5118840106094,262.3930985907869 208.96820776392155,265.35564780735234" fill = "none" stroke = "red" /> 
<polyline points = "208.96820776392155,265.35564780735234 200.995734454248,258.1741142574034" fill = "none" stroke = "red" /> 
<polyline points = "200.995734454248,258.1741142574034 203.2303223959362,246.92649955449207" fill = "none" stroke = "red" /> 
<polyline points = "203.2303223959362,246.92649955449207 214.7305259428843,242.83918167398826" fill = "none" stroke = "red" /> 
<polyline points = "214.7305259428843,242.83918167398826 224.7016629699846,251.0906705759382" fill = "none" stroke = "red" /> 
<polyline points = "224.7016629699846,251.0906705759382 222.61701151817454,264.61124116311476" fill = "none" stroke = "red" /> 
<polyline points = "222.61701151817454,264.61124116311476 209.25767733499606,270.03451629518315" fill = "none" stroke = "red" /> 
<polyline points = "209.25767733499606,270.03451629518315 197.15850828266912,260.9066952053385" fill = "none" stroke = "red" /> 
<polyline points = "197.15850828266912,260.9066952053385 198.86022256548912,245.10398565712666" fill = "none" stroke = "red" /> 
<polyline points = "198.86022256548912,245.10398565712666 213.96464617373883,238.1409788841872" fill = "none" stroke = "red" /> 
<polyline points = "213.96464617373883,238.1409788841872 228.30621823756684,247.94114042463562" fill = "none" stroke = "red" /> 
<polyline points = "228.30621823756684,247.94114042463562 227.22150083041868,266.0169581815821" fill = "none" stroke = "red" /> 
<polyline points = "227.22150083041868,266.0169581815821 210.5021487619896,274.7148989800666" fill = "none" stroke = "red" /> 
<polyline points = "210.5021487619896,274.7148989800666 193.81951788518563,264.4557076197259" fill = "none" stroke = "red" /> 
<polyline points = "193.81951788518563,264.4557076197259 194.05338998071508,244.13409545110272" fill = "none" stroke = "red" /> 
<polyline points = "194.05338998071508,244.13409545110272 212.24198984001086,233.5157126303485" fill = "none" stroke = "red" /> 
<polyline points = "212.24198984001086,233.5157126303485 231.3479715851499,244.0124" fill = "none" stroke = "red" /> 
<polyline points = "231.3479715851499,244.0124 232.197308190991,266.53422367072733" fill = "none" stroke = "red" /> 
<polyline points = "232.197308190991,266.53422367072733 212.69998792086017,279.2477798484583" fill = "none" stroke = "red" /> 
<polyline points = "212.69998792086017,279.2477798484583 191.1053034433508,268.74221611662193" fill = "none" stroke = "red" /> 
<polyline points = "191.1053034433508,268.74221611662193 188.94315181937122,244.08393575687865" fill = "none" stroke = "red" /> 
<polyline points = "188.94315181937122,244.08393575687865 209.57456175287396,229.1122891750917" fill = "none" stroke = "red" /> 
<polyline points = "209.57456175287396,229.1122891750917 233.70585884812354,239.39219818810312" fill = "none" stroke = "red" /> 
<polyline points = "233.70585884812354,239.39219818810312 237.40640968330527,266.1051888155773" fill = "none" stroke = "red" /> 
<polyline points = "237.40640968330527,266.1051888155773 215.82883337736186,283.4850399591348" fill = "none" stroke = "red" /> 
<polyline points = "215.82883337736186,283.4850399591348 189.13088062738368,273.6700214382078" fill = "none" stroke = "red" /> 
<polyline points = "189.13088062738368,273.6700214382078 183.6716213764228,245.0017957002299" fill = "none" stroke = "red" /> 
<polyline points = "183.6716213764228,245.0017957002299 205.99502339217122,225.07736410898437" fill = "none" stroke = "red" /> 
<polyline points = "205.99502339217122,225.07736410898437 235.271462002538,234.184785899696" fill = "none" stroke = "red" /> 
<polyline points = "235.271462002538,234.184785899696 242.70322837980797,264.6913874773082" fill = "none" stroke = "red" /> 
<polyline points = "242.70322837980797,264.6913874773082 219.84582255478904,287.2821589671079" fill = "none" stroke = "red" /> 
<polyline points = "219.84582255478904,287.2821589671079 187.99754613495412,279.12725386504604" fill = "none" stroke = "red" /> 
<polyline points = "187.99754613495412,279.12725386504604 178.38719744347816,246.91609460181147" fill = "none" stroke = "red" /> 
<polyline points = "178.38719744347816,246.91609460181147 201.55629740852348,221.55265735230304" fill = "none" stroke = "red" /> 
<polyline points = "201.55629740852348,221.55265735230304 235.95110182891895,228.50918628281383" fill = "none" stroke = "red" /> 
<polyline points = "235.95110182891895,228.50918628281383 247.9371989917017,262.27463058008794" fill = "none" stroke = "red" /> 
<polyline points = "247.9371989917017,262.27463058008794 224.68815537471286,290.5008732794715" fill = "none" stroke = "red" /> 
<polyline points = "224.68815537471286,290.5008732794715 187.79089504234386,284.98823302572924" fill = "none" stroke = "red" /> 
<polyline points = "187.79089504234386,284.98823302572924 173.24194531907878,249.83464906255747" fill = "none" stroke = "red" /> 
<polyline points = "173.24194531907878,249.83464906255747 196.33083764255127,218.67233207526556" fill = "none" stroke = "red" /> 
<polyline points = "196.33083764255127,218.67233207526556 235.66770271784495,222.49721172781446" fill = "none" stroke = "red" /> 
<polyline points = "235.66770271784495,222.49721172781446 252.95543129628453,258.85757438834105" fill = "none" stroke = "red" /> 
<polyline points = "252.95543129628453,258.85757438834105 230.2739881651413,293.011749944565" fill = "none" stroke = "red" /> 
<polyline points = "230.2739881651413,293.011749944565 188.57908125310777,291.115566779667" fill = "none" stroke = "red" /> 
<polyline points = "188.57908125310777,291.115566779667 168.38889902466934,253.74427189344158" fill = "none" stroke = "red" /> 
<polyline points = "168.38889902466934,253.74427189344158 190.40957430409972,216.5604779590817" fill = "none" stroke = "red" /> 
<polyline points = "190.40957430409972,216.5604779590817 234.36239999999998,216.29125682970025" fill = "none" stroke = "red" /> 
<polyline points = "234.36239999999998,216.29125682970025 257.6054320534049,254.46395240549407" fill = "none" stroke = "red" /> 
<polyline points = "257.6054320534049,254.46395240549407 236.50364578684412,294.6966364712738" fill = "none" stroke = "red" /> 
<polyline points = "236.50364578684412,294.6966364712738 190.41134888730636,297.36245826790037" fill = "none" stroke = "red" /> 
<polyline points = "190.41134888730636,297.36245826790037 163.9793255875285,258.61071073971846" fill = "none" stroke = "red" /> 
<polyline points = "163.9793255875285,258.61071073971846 183.9005487278863,215.3287378409118" fill = "none" stroke = "red" /> 
<polyline points = "183.9005487278863,215.3287378409118 231.99586383225204,210.04189984669122" fill = "none" stroke = "red" /> 
<text x = "82.60000000000001" y = "87.60000000000001" dominant-baseline= "central" text-anchor= "middle" font-size = "30px" fill = "blue">i'm long </text> 
<text x = "25" y = "370.32480000000004" dy = "0">
<tspan x = "20" dy = ".6em" >BOX ATTRIBUTES </tspan>
<tspan x = "20" dy = "1.2em" >thickness: </tspan>
<tspan x = "20" dy = "1.2em" >width: </tspan>
<tspan x = "20" dy = "1.2em" >length:  </tspan>
<tspan x = "20" dy = "1.2em" >height: </tspan>
<tspan x = "20" dy = "1.2em" >partition:  </tspan>
<tspan x = "20" dy = "1.2em" >partition location: </tspan>
<tspan x = "20" dy = "1.2em" >lid: </tspan>
<tspan x = "20" dy = "1.2em" >top text: </tspan>
<tspan x = "20" dy = "1.2em" >front text: </tspan>
<tspan x = "20" dy = "1.2em" >fractal: </tspan>
<tspan x = "20" dy = "1.2em" >fractal side/bottom: </tspan>
<tspan x = "20" dy = "1.2em" >front text string: </tspan>
<tspan x = "20" dy = "1.2em" >top text string: </tspan>
</text><text x = "200" y = "370.32480000000004" dy = "0">
<tspan x = "200" dy = ".6em" > VALUES </tspan>
<tspan x = "200" dy = "1.2em" >0.118</tspan>
<tspan x = "200" dy = "1.2em" >3</tspan>
<tspan x = "200" dy = "1.2em" >5</tspan>
<tspan x = "200" dy = "1.2em" >3</tspan>
<tspan x = "200" dy = "1.2em" >True</tspan>
<tspan x = "200" dy = "1.2em" >1.75</tspan>
<tspan x = "200" dy = "1.2em" >False</tspan>
<tspan x = "200" dy = "1.2em" >False</tspan>
<tspan x = "200" dy = "1.2em" >True</tspan>
<tspan x = "200" dy = "1.2em" >True</tspan>
<tspan x = "200" dy = "1.2em" >bottom</tspan>
<tspan x = "200" dy = "1.2em" >i'm long</tspan>
<tspan x = "200" dy = "1.2em" ></tspan>
</text></svg>