<?xml version = "1.0" encoding = "UTF-8" ?> 
<svg xmlns="http://www.w3.org/2000/svg" version = "1.1"> 
<line x1="75" y1="40" x2="113.4" y2 ="40" style="stroke:red;stroke:4"/>
<text x = "123.4" y = "45" font-size = "12px" fill = "red"> = 1 inch (2:5 scale) </text> 
<polyline points="75,75 190.20000000000002,75 " style="fill:none;stroke:black;stroke:2"/>
<polyline points="190.20000000000002,75.0 194.73120000000003,75.0 194.73120000000003,94.2 190.20000000000002,94.2 190.20000000000002,113.4 190.20000000000002,113.4 194.73120000000003,113.4 194.73120000000003,132.60000000000002 190.20000000000002,132.60000000000002 190.20000000000002,151.8 190.20000000000002,151.8 194.73120000000003,151.8 194.73120000000003,171.0 190.20000000000002,171.0 190.20000000000002,190.20000000000002 190.20000000000002,190.20000000000002 194.73120000000003,190.20000000000002 194.73120000000003,209.40000000000003 190.20000000000002,209.40000000000003 190.20000000000002,228.60000000000002 " style="fill:none;stroke:black;stroke:2"/>
<line x1 = "190.20000000000002" y1 = "101.91023622045002" x2 = "190.20000000000002" y2 = "105.68976377955002" style="fill:none;stroke:white;stroke:2"/>
<line x1 = "190.20000000000002" y1 = "217.11023622045002" x2 = "190.20000000000002" y2 = "220.88976377955004" style="fill:none;stroke:white;stroke:2"/>
<polyline points = "190.20000000000002,101.91023622045002 183.40108346454,101.91023622045002 183.40108346454,99.64251968499002 180.37746141726,99.64251968499002 180.37746141726,101.91023622045002 172.81840629906,101.91023622045002 172.81840629906,105.68976377955002 180.37746141726,105.68976377955002 180.37746141726,107.95748031501002 183.40108346454,107.95748031501002 183.40108346454,105.68976377955002 190.20000000000002,105.68976377955002" style="fill:none;stroke:black;stroke:2"/>
<polyline points = "190.20000000000002,217.11023622045002 183.40108346454,217.11023622045002 183.40108346454,214.84251968499004 180.37746141726,214.84251968499004 180.37746141726,217.11023622045002 172.81840629906,217.11023622045002 172.81840629906,220.88976377955004 180.37746141726,220.88976377955004 180.37746141726,223.15748031501005 183.40108346454,223.15748031501005 183.40108346454,220.88976377955004 190.20000000000002,220.88976377955004" style="fill:none;stroke:black;stroke:2"/>
<polyline points="190.20000000000002,228.60000000000002 190.20000000000002,233.13120000000004 171.0,233.13120000000004 171.0,228.60000000000002 151.8,228.60000000000002 151.8,228.60000000000002 151.8,233.13120000000004 132.6,233.13120000000004 132.6,228.60000000000002 113.4,228.60000000000002 113.4,228.60000000000002 113.4,233.13120000000004 94.19999999999999,233.13120000000004 94.19999999999999,228.60000000000002 75.0,228.60000000000002 " style="fill:none;stroke:black;stroke:2"/>
<line x1 = "82.71023622045" y1 = "228.60000000000002" x2 = "86.48976377955" y2 = "228.60000000000002" style="fill:none;stroke:white;stroke:2"/>
<line x1 = "159.51023622045" y1 = "228.60000000000002" x2 = "163.28976377955001" y2 = "228.60000000000002" style="fill:none;stroke:white;stroke:2"/>
<polyline points = "82.71023622045,228.60000000000002 82.71023622045,221.80108346454 80.44251968499,221.80108346454 80.44251968499,218.77746141725999 82.71023622045,218.77746141725999 82.71023622045,211.21840629905998 86.48976377955,211.21840629905998 86.48976377955,218.77746141725999 88.75748031501,218.77746141725999 88.75748031501,221.80108346454 86.48976377955,221.80108346454 86.48976377955,228.60000000000002" style="fill:none;stroke:black;stroke:2"/>
<polyline points = "159.51023622045,228.60000000000002 159.51023622045,221.80108346454 157.24251968499001,221.80108346454 157.24251968499001,218.77746141725999 159.51023622045,218.77746141725999 159.51023622045,211.21840629905998 163.28976377955001,211.21840629905998 163.28976377955001,218.77746141725999 165.55748031501003,218.77746141725999 165.55748031501003,221.80108346454 163.28976377955001,221.80108346454 163.28976377955001,228.60000000000002" style="fill:none;stroke:black;stroke:2"/>
<polyline points="75.0,228.60000000000002 70.4688,228.60000000000002 70.4688,209.40000000000003 75.0,209.40000000000003 75.0,190.20000000000005 75.0,190.20000000000002 70.4688,190.20000000000002 70.4688,171.00000000000003 75.0,171.00000000000003 75.0,151.80000000000004 75.0,151.8 70.4688,151.8 70.4688,132.60000000000002 75.0,132.60000000000002 75.0,113.40000000000003 75.0,113.4 70.4688,113.4 70.4688,94.20000000000002 75.0,94.20000000000002 75.0,75.00000000000003 " style="fill:none;stroke:black;stroke:2"/>
<circle cx = "74.62416377954999" cy = "103.80000000000001" r = "1.88976377955" style="fill:none;stroke:black;stroke:2"/>
<circle cx = "74.62416377954999" cy = "219.00000000000003" r = "1.88976377955" style="fill:none;stroke:black;stroke:2"/>
<polyline points="209.7312,75 251.152,75 251.152,70.4688 292.5728,70.4688 292.5728,75 333.9936,75" style="fill:none;stroke:black;stroke:2"/>
<line x1 = "231.57263622045" y1 = "75" x2 = "235.35216377954998" y2 = "75" style="fill:none;stroke:white;stroke:2"/>
<line x1 = "308.37263622045" y1 = "75" x2 = "312.15216377955" y2 = "75" style="fill:none;stroke:white;stroke:2"/>
<polyline points = "231.57263622045,75 231.57263622045,81.79891653546 229.30491968498998,81.79891653546 229.30491968498998,84.82253858274 231.57263622045,84.82253858274 231.57263622045,92.38159370093999 235.35216377954998,92.38159370093999 235.35216377954998,84.82253858274 237.61988031501,84.82253858274 237.61988031501,81.79891653546 235.35216377954998,81.79891653546 235.35216377954998,75" style="fill:none;stroke:black;stroke:2"/>
<polyline points = "308.37263622045,75 308.37263622045,81.79891653546 306.10491968499,81.79891653546 306.10491968499,84.82253858274 308.37263622045,84.82253858274 308.37263622045,92.38159370093999 312.15216377955,92.38159370093999 312.15216377955,84.82253858274 314.41988031501,84.82253858274 314.41988031501,81.79891653546 312.15216377955,81.79891653546 312.15216377955,75" style="fill:none;stroke:black;stroke:2"/>
<line x1 = "209.7312" y1 = "75" x2 = "214.2624" y2 = "75" style="fill:none;stroke:white;stroke:2"/>
<polyline points="329.4624,75.0 333.9936,75.0 333.9936,94.2 329.4624,94.2 329.4624,113.4 329.4624,113.4 333.9936,113.4 333.9936,132.60000000000002 329.4624,132.60000000000002 329.4624,151.8 329.4624,151.8 333.9936,151.8 333.9936,171.0 329.4624,171.0 329.4624,190.20000000000002 329.4624,190.20000000000002 333.9936,190.20000000000002 333.9936,209.40000000000003 329.4624,209.40000000000003 329.4624,228.60000000000002 " style="fill:none;stroke:black;stroke:2"/>
<line x1 = "329.4624" y1 = "101.91023622045002" x2 = "329.4624" y2 = "105.68976377955002" style="fill:none;stroke:white;stroke:2"/>
<line x1 = "329.4624" y1 = "217.11023622045002" x2 = "329.4624" y2 = "220.88976377955004" style="fill:none;stroke:white;stroke:2"/>
<polyline points = "329.4624,101.91023622045002 322.66348346454,101.91023622045002 322.66348346454,99.64251968499002 319.63986141725997,99.64251968499002 319.63986141725997,101.91023622045002 312.08080629906,101.91023622045002 312.08080629906,105.68976377955002 319.63986141725997,105.68976377955002 319.63986141725997,107.95748031501002 322.66348346454,107.95748031501002 322.66348346454,105.68976377955002 329.4624,105.68976377955002" style="fill:none;stroke:black;stroke:2"/>
<polyline points = "329.4624,217.11023622045002 322.66348346454,217.11023622045002 322.66348346454,214.84251968499004 319.63986141725997,214.84251968499004 319.63986141725997,217.11023622045002 312.08080629906,217.11023622045002 312.08080629906,220.88976377955004 319.63986141725997,220.88976377955004 319.63986141725997,223.15748031501005 322.66348346454,223.15748031501005 322.66348346454,220.88976377955004 329.4624,220.88976377955004" style="fill:none;stroke:black;stroke:2"/>
<polyline points="329.4624,228.60000000000002 329.4624,233.13120000000004 310.2624,233.13120000000004 310.2624,228.60000000000002 291.0624,228.60000000000002 291.0624,228.60000000000002 291.0624,233.13120000000004 271.8624,233.13120000000004 271.8624,228.60000000000002 252.66240000000002,228.60000000000002 252.6624,228.60000000000002 252.6624,233.13120000000004 233.4624,233.13120000000004 233.4624,228.60000000000002 214.2624,228.60000000000002 " style="fill:none;stroke:black;stroke:2"/>
<line x1 = "221.97263622044997" y1 = "228.60000000000002" x2 = "225.75216377954996" y2 = "228.60000000000002" style="fill:none;stroke:white;stroke:2"/>
<line x1 = "298.77263622044995" y1 = "228.60000000000002" x2 = "302.55216377954997" y2 = "228.60000000000002" style="fill:none;stroke:white;stroke:2"/>
<polyline points = "221.97263622044997,228.60000000000002 221.97263622044997,221.80108346454 219.70491968498996,221.80108346454 219.70491968498996,218.77746141725999 221.97263622044997,218.77746141725999 221.97263622044997,211.21840629905998 225.75216377954996,211.21840629905998 225.75216377954996,218.77746141725999 228.01988031500997,218.77746141725999 228.01988031500997,221.80108346454 225.75216377954996,221.80108346454 225.75216377954996,228.60000000000002" style="fill:none;stroke:black;stroke:2"/>
<polyline points = "298.77263622044995,228.60000000000002 298.77263622044995,221.80108346454 296.50491968499,221.80108346454 296.50491968499,218.77746141725999 298.77263622044995,218.77746141725999 298.77263622044995,211.21840629905998 302.55216377954997,211.21840629905998 302.55216377954997,218.77746141725999 304.81988031501,218.77746141725999 304.81988031501,221.80108346454 302.55216377954997,221.80108346454 302.55216377954997,228.60000000000002" style="fill:none;stroke:black;stroke:2"/>
<polyline points="214.26239999999999,228.60000000000002 209.73119999999997,228.60000000000002 209.73119999999997,209.40000000000003 214.26239999999999,209.40000000000003 214.26239999999999,190.20000000000005 214.26239999999999,190.20000000000002 209.73119999999997,190.20000000000002 209.73119999999997,171.00000000000003 214.26239999999999,171.00000000000003 214.26239999999999,151.80000000000004 214.26239999999999,151.8 209.73119999999997,151.8 209.73119999999997,132.60000000000002 214.26239999999999,132.60000000000002 214.26239999999999,113.40000000000003 214.26239999999999,113.4 209.73119999999997,113.4 209.73119999999997,94.20000000000002 214.26239999999999,94.20000000000002 214.26239999999999,75.00000000000003 " style="fill:none;stroke:black;stroke:2"/>
<circle cx = "213.88656377955002" cy = "103.80000000000001" r = "1.88976377955" style="fill:none;stroke:black;stroke:2"/>
<circle cx = "213.88656377955002" cy = "219.00000000000003" r = "1.88976377955" style="fill:none;stroke:black;stroke:2"/>
<polyline points="353.5248,75 545.5248,75 " style="fill:none;stroke:black;stroke:2"/>
<polyline points="545.5248,75.0 550.056,75.0 550.056,94.2 545.5248,94.2 545.5248,113.4 545.5248,113.4 550.056,113.4 550.056,132.60000000000002 545.5248,132.60000000000002 545.5248,151.8 545.5248,151.8 550.056,151.8 550.056,171.0 545.5248,171.0 545.5248,190.20000000000002 545.5248,190.20000000000002 550.056,190.20000000000002 550.056,209.40000000000003 545.5248,209.40000000000003 545.5248,228.60000000000002 " style="fill:none;stroke:black;stroke:2"/>
<line x1 = "545.5248" y1 = "101.91023622045002" x2 = "545.5248" y2 = "105.68976377955002" style="fill:none;stroke:white;stroke:2"/>
<line x1 = "545.5248" y1 = "217.11023622045002" x2 = "545.5248" y2 = "220.88976377955004" style="fill:none;stroke:white;stroke:2"/>
<polyline points = "545.5248,101.91023622045002 538.7258834645401,101.91023622045002 538.7258834645401,99.64251968499002 535.70226141726,99.64251968499002 535.70226141726,101.91023622045002 528.14320629906,101.91023622045002 528.14320629906,105.68976377955002 535.70226141726,105.68976377955002 535.70226141726,107.95748031501002 538.7258834645401,107.95748031501002 538.7258834645401,105.68976377955002 545.5248,105.68976377955002" style="fill:none;stroke:black;stroke:2"/>
<polyline points = "545.5248,217.11023622045002 538.7258834645401,217.11023622045002 538.7258834645401,214.84251968499004 535.70226141726,214.84251968499004 535.70226141726,217.11023622045002 528.14320629906,217.11023622045002 528.14320629906,220.88976377955004 535.70226141726,220.88976377955004 535.70226141726,223.15748031501005 538.7258834645401,223.15748031501005 538.7258834645401,220.88976377955004 545.5248,220.88976377955004" style="fill:none;stroke:black;stroke:2"/>
<polyline points="545.5248,228.60000000000002 545.5248,233.13120000000004 526.3248,233.13120000000004 526.3248,228.60000000000002 507.1248,228.60000000000002 507.12480000000005,228.60000000000002 507.12480000000005,233.13120000000004 487.9248,233.13120000000004 487.9248,228.60000000000002 468.72479999999996,228.60000000000002 468.7248,228.60000000000002 468.7248,233.13120000000004 449.52479999999997,233.13120000000004 449.52479999999997,228.60000000000002 430.3248,228.60000000000002 430.3248,228.60000000000002 430.3248,233.13120000000004 411.12479999999994,233.13120000000004 411.12479999999994,228.60000000000002 391.9248,228.60000000000002 391.9248,228.60000000000002 391.9248,233.13120000000004 372.72479999999996,233.13120000000004 372.72479999999996,228.60000000000002 353.52479999999997,228.60000000000002 " style="fill:none;stroke:black;stroke:2"/>
<polyline points="353.5248,228.60000000000002 348.9936,228.60000000000002 348.9936,209.40000000000003 353.5248,209.40000000000003 353.5248,190.20000000000005 353.5248,190.20000000000002 348.9936,190.20000000000002 348.9936,171.00000000000003 353.5248,171.00000000000003 353.5248,151.80000000000004 353.5248,151.8 348.9936,151.8 348.9936,132.60000000000002 353.5248,132.60000000000002 353.5248,113.40000000000003 353.5248,113.4 348.9936,113.4 348.9936,94.20000000000002 353.5248,94.20000000000002 353.5248,75.00000000000003 " style="fill:none;stroke:black;stroke:2"/>
<circle cx = "353.14896377955" cy = "103.80000000000001" r = "1.88976377955" style="fill:none;stroke:black;stroke:2"/>
<circle cx = "353.14896377955" cy = "219.00000000000003" r = "1.88976377955" style="fill:none;stroke:black;stroke:2"/>
<polyline points="569.5872,75 761.5872,75 " style="fill:none;stroke:black;stroke:2"/>
<polyline points="761.5872,75.0 766.1184000000001,75.0 766.1184000000001,94.2 761.5872,94.2 761.5872,113.4 761.5872,113.4 766.1184000000001,113.4 766.1184000000001,132.60000000000002 761.5872,132.60000000000002 761.5872,151.8 761.5872,151.8 766.1184000000001,151.8 766.1184000000001,171.0 761.5872,171.0 761.5872,190.20000000000002 761.5872,190.20000000000002 766.1184000000001,190.20000000000002 766.1184000000001,209.40000000000003 761.5872,209.40000000000003 761.5872,228.60000000000002 " style="fill:none;stroke:black;stroke:2"/>
<line x1 = "761.5872" y1 = "101.91023622045002" x2 = "761.5872" y2 = "105.68976377955002" style="fill:none;stroke:white;stroke:2"/>
<line x1 = "761.5872" y1 = "217.11023622045002" x2 = "761.5872" y2 = "220.88976377955004" style="fill:none;stroke:white;stroke:2"/>
<polyline points = "761.5872,101.91023622045002 754.7882834645401,101.91023622045002 754.7882834645401,99.64251968499002 751.7646614172601,99.64251968499002 751.7646614172601,101.91023622045002 744.20560629906,101.91023622045002 744.20560629906,105.68976377955002 751.7646614172601,105.68976377955002 751.7646614172601,107.95748031501002 754.7882834645401,107.95748031501002 754.7882834645401,105.68976377955002 761.5872,105.68976377955002" style="fill:none;stroke:black;stroke:2"/>
<polyline points = "761.5872,217.11023622045002 754.7882834645401,217.11023622045002 754.7882834645401,214.84251968499004 751.7646614172601,214.84251968499004 751.7646614172601,217.11023622045002 744.20560629906,217.11023622045002 744.20560629906,220.88976377955004 751.7646614172601,220.88976377955004 751.7646614172601,223.15748031501005 754.7882834645401,223.15748031501005 754.7882834645401,220.88976377955004 761.5872,220.88976377955004" style="fill:none;stroke:black;stroke:2"/>
<polyline points="761.5872,228.60000000000002 761.5872,233.13120000000004 742.3872,233.13120000000004 742.3872,228.60000000000002 723.1872,228.60000000000002 723.1872000000001,228.60000000000002 723.1872000000001,233.13120000000004 703.9872,233.13120000000004 703.9872,228.60000000000002 684.7872,228.60000000000002 684.7872,228.60000000000002 684.7872,233.13120000000004 665.5871999999999,233.13120000000004 665.5871999999999,228.60000000000002 646.3871999999999,228.60000000000002 646.3872,228.60000000000002 646.3872,233.13120000000004 627.1872,233.13120000000004 627.1872,228.60000000000002 607.9871999999999,228.60000000000002 607.9872,228.60000000000002 607.9872,233.13120000000004 588.7872,233.13120000000004 588.7872,228.60000000000002 569.5871999999999,228.60000000000002 " style="fill:none;stroke:black;stroke:2"/>
<polyline points="569.5872,228.60000000000002 565.056,228.60000000000002 565.056,209.40000000000003 569.5872,209.40000000000003 569.5872,190.20000000000005 569.5872,190.20000000000002 565.056,190.20000000000002 565.056,171.00000000000003 569.5872,171.00000000000003 569.5872,151.80000000000004 569.5872,151.8 565.056,151.8 565.056,132.60000000000002 569.5872,132.60000000000002 569.5872,113.40000000000003 569.5872,113.4 565.056,113.4 565.056,94.20000000000002 569.5872,94.20000000000002 569.5872,75.00000000000003 " style="fill:none;stroke:black;stroke:2"/>
<circle cx = "569.2113637795501" cy = "103.80000000000001" r = "1.88976377955" style="fill:none;stroke:black;stroke:2"/>
<circle cx = "569.2113637795501" cy = "219.00000000000003" r = "1.88976377955" style="fill:none;stroke:black;stroke:2"/>
<polyline points="214.2624,252.66240000000002 214.2624,248.1312 233.4624,248.1312 233.4624,252.66240000000002 252.6624,252.66240000000002 252.66240000000002,252.66240000000002 252.66240000000002,248.1312 271.8624,248.1312 271.8624,252.66240000000002 291.0624,252.66240000000002 291.0624,252.66240000000002 291.0624,248.1312 310.2624,248.1312 310.2624,252.66240000000002 329.4624,252.66240000000002 " style="fill:none;stroke:black;stroke:2"/>
<circle cx = "223.8624" cy = "252.28656377955002" r = "1.88976377955" style="fill:none;stroke:black;stroke:1"/>
<circle cx = "300.66240000000005" cy = "252.28656377955002" r = "1.88976377955" style="fill:none;stroke:black;stroke:1"/>
<polyline points="329.4624,252.66240000000002 333.9936,252.66240000000002 333.9936,271.86240000000004 329.4624,271.86240000000004 329.4624,291.0624 329.4624,291.0624 333.9936,291.0624 333.9936,310.26240000000007 329.4624,310.26240000000007 329.4624,329.4624 329.4624,329.4624 333.9936,329.4624 333.9936,348.66240000000005 329.4624,348.66240000000005 329.4624,367.86240000000004 329.4624,367.86240000000004 333.9936,367.86240000000004 333.9936,387.0624 329.4624,387.0624 329.4624,406.26240000000007 329.4624,406.26240000000007 333.9936,406.26240000000007 333.9936,425.46240000000006 329.4624,425.46240000000006 329.4624,444.66240000000005 " style="fill:none;stroke:black;stroke:2"/>
<polyline points="329.4624,444.66240000000005 329.4624,449.19360000000006 310.2624,449.19360000000006 310.2624,444.66240000000005 291.0624,444.66240000000005 291.0624,444.66240000000005 291.0624,449.19360000000006 271.8624,449.19360000000006 271.8624,444.66240000000005 252.66240000000002,444.66240000000005 252.6624,444.66240000000005 252.6624,449.19360000000006 233.4624,449.19360000000006 233.4624,444.66240000000005 214.2624,444.66240000000005 " style="fill:none;stroke:black;stroke:2"/>
<circle cx = "243.0624" cy = "445.0382362204501" r = "1.88976377955" style="fill:none;stroke:black;stroke:1"/>
<circle cx = "319.8624" cy = "445.0382362204501" r = "1.88976377955" style="fill:none;stroke:black;stroke:1"/>
<polyline points="214.26239999999999,444.66240000000005 209.73119999999997,444.66240000000005 209.73119999999997,425.46240000000006 214.26239999999999,425.46240000000006 214.26239999999999,406.26240000000007 214.26239999999999,406.26240000000007 209.73119999999997,406.26240000000007 209.73119999999997,387.0624 214.26239999999999,387.0624 214.26239999999999,367.8624000000001 214.26239999999999,367.86240000000004 209.73119999999997,367.86240000000004 209.73119999999997,348.66240000000005 214.26239999999999,348.66240000000005 214.26239999999999,329.46240000000006 214.26239999999999,329.4624 209.73119999999997,329.4624 209.73119999999997,310.26240000000007 214.26239999999999,310.26240000000007 214.26239999999999,291.0624 214.26239999999999,291.0624 209.73119999999997,291.0624 209.73119999999997,271.86240000000004 214.26239999999999,271.86240000000004 214.26239999999999,252.66240000000005 " style="fill:none;stroke:black;stroke:2"/>
<polyline points = "70.4688,248.1312 111.8896,248.1312 111.8896,252.66240000000002 153.31040000000002,252.66240000000002 153.31040000000002,248.1312 194.7312,248.1312 194.7312,449.19360000000006 70.4688,449.19360000000006 70.4688,248.1312" style="fill:none;stroke:black;stroke:2"/>
<circle cx = "94.2" cy = "252.28656377955002" r = "1.88976377955" style="fill:none;stroke:black;stroke:1"/>
<circle cx = "171.0" cy = "252.28656377955002" r = "1.88976377955" style="fill:none;stroke:black;stroke:1"/>
<polyline points = "70.4688,267.13120000000004 72.60000000000001,267.13120000000004" fill = "none" stroke = "black" /> 
<polyline points = "72.60000000000001,267.13120000000004 77.60000000000001,267.13120000000004" fill = "none" stroke = "black" /> 
<path d = "M 77.60000000000001 267.13120000000004 C 77.60000000000001 268.63120000000004, 87.60000000000001 268.63120000000004, 87.60000000000001 267.13120000000004" stroke = "black" fill = "transparent"/>
<polyline points = "87.60000000000001 267.13120000000004 92.60000000000001,267.13120000000004" fill = "none" stroke = "black" /> 
<polyline points = "70.4688,270.63120000000004 72.60000000000001,270.63120000000004" fill = "none" stroke = "black" /> 
<polyline points = "72.60000000000001,270.63120000000004 77.60000000000001,270.63120000000004" fill = "none" stroke = "black" /> 
<path d = "M 77.60000000000001 270.63120000000004 C 77.60000000000001 272.13120000000004, 87.60000000000001 272.13120000000004, 87.60000000000001 270.63120000000004" stroke = "black" fill = "transparent"/>
<polyline points = "87.60000000000001 270.63120000000004 92.60000000000001,270.63120000000004" fill = "none" stroke = "black" /> 
<polyline points = "70.4688,274.13120000000004 72.60000000000001,274.13120000000004" fill = "none" stroke = "black" /> 
<polyline points = "72.60000000000001,274.13120000000004 77.60000000000001,274.13120000000004" fill = "none" stroke = "black" /> 
<path d = "M 77.60000000000001 274.13120000000004 C 77.60000000000001 275.63120000000004, 87.60000000000001 275.63120000000004, 87.60000000000001 274.13120000000004" stroke = "black" fill = "transparent"/>
<polyline points = "87.60000000000001 274.13120000000004 92.60000000000001,274.13120000000004" fill = "none" stroke = "black" /> 
<polyline points = "70.4688,277.63120000000004 72.60000000000001,277.63120000000004" fill = "none" stroke = "black" /> 
<polyline points = "72.60000000000001,277.63120000000004 77.60000000000001,277.63120000000004" fill = "none" stroke = "black" /> 
<path d = "M 77.60000000000001 277.63120000000004 C 77.60000000000001 279.13120000000004, 87.60000000000001 279.13120000000004, 87.60000000000001 277.63120000000004" stroke = "black" fill = "transparent"/>
<polyline points = "87.60000000000001 277.63120000000004 92.60000000000001,277.63120000000004" fill = "none" stroke = "black" /> 
<polyline points = "70.4688,281.13120000000004 72.60000000000001,281.13120000000004" fill = "none" stroke = "black" /> 
<polyline points = "72.60000000000001,281.13120000000004 77.60000000000001,281.13120000000004" fill = "none" stroke = "black" /> 
<path d = "M 77.60000000000001 281.13120000000004 C 77.60000000000001 282.63120000000004, 87.60000000000001 282.63120000000004, 87.60000000000001 281.13120000000004" stroke = "black" fill = "transparent"/>
<polyline points = "87.60000000000001 281.13120000000004 92.60000000000001,281.13120000000004" fill = "none" stroke = "black" /> 
<polyline points = "70.4688,284.63120000000004 72.60000000000001,284.63120000000004" fill = "none" stroke = "black" /> 
<polyline points = "72.60000000000001,284.63120000000004 77.60000000000001,284.63120000000004" fill = "none" stroke = "black" /> 
<path d = "M 77.60000000000001 284.63120000000004 C 77.60000000000001 286.13120000000004, 87.60000000000001 286.13120000000004, 87.60000000000001 284.63120000000004" stroke = "black" fill = "transparent"/>
<polyline points = "87.60000000000001 284.63120000000004 92.60000000000001,284.63120000000004" fill = "none" stroke = "black" /> 
<polyline points = "70.4688,288.13120000000004 72.60000000000001,288.13120000000004" fill = "none" stroke = "black" /> 
<polyline points = "72.60000000000001,288.13120000000004 77.60000000000001,288.13120000000004" fill = "none" stroke = "black" /> 
<path d = "M 77.60000000000001 288.13120000000004 C 77.60000000000001 289.63120000000004, 87.60000000000001 289.63120000000004, 87.60000000000001 288.13120000000004" stroke = "black" fill = "transparent"/>
<polyline points = "87.60000000000001 288.13120000000004 92.60000000000001,288.13120000000004" fill = "none" stroke = "black" /> 
<polyline points = "70.4688,291.63120000000004 72.60000000000001,291.63120000000004" fill = "none" stroke = "black" /> 
<polyline points = "72.60000000000001,291.63120000000004 77.60000000000001,291.63120000000004" fill = "none" stroke = "black" /> 
<path d = "M 77.60000000000001 291.63120000000004 C 77.60000000000001 293.13120000000004, 87.60000000000001 293.13120000000004, 87.60000000000001 291.63120000000004" stroke = "black" fill = "transparent"/>
<polyline points = "87.60000000000001 291.63120000000004 92.60000000000001,291.63120000000004" fill = "none" stroke = "black" /> 
<polyline points = "70.4688,295.13120000000004 72.60000000000001,295.13120000000004" fill = "none" stroke = "black" /> 
<polyline points = "72.60000000000001,295.13120000000004 77.60000000000001,295.13120000000004" fill = "none" stroke = "black" /> 
<path d = "M 77.60000000000001 295.13120000000004 C 77.60000000000001 296.63120000000004, 87.60000000000001 296.63120000000004, 87.60000000000001 295.13120000000004" stroke = "black" fill = "transparent"/>
<polyline points = "87.60000000000001 295.13120000000004 92.60000000000001,295.13120000000004" fill = "none" stroke = "black" /> 
<polyline points = "70.4688,298.63120000000004 72.60000000000001,298.63120000000004" fill = "none" stroke = "black" /> 
<polyline points = "72.60000000000001,298.63120000000004 77.60000000000001,298.63120000000004" fill = "none" stroke = "black" /> 
<path d = "M 77.60000000000001 298.63120000000004 C 77.60000000000001 300.13120000000004, 87.60000000000001 300.13120000000004, 87.60000000000001 298.63120000000004" stroke = "black" fill = "transparent"/>
<polyline points = "87.60000000000001 298.63120000000004 92.60000000000001,298.63120000000004" fill = "none" stroke = "black" /> 
<polyline points = "70.4688,302.13120000000004 72.60000000000001,302.13120000000004" fill = "none" stroke = "black" /> 
<polyline points = "72.60000000000001,302.13120000000004 77.60000000000001,302.13120000000004" fill = "none" stroke = "black" /> 
<path d = "M 77.60000000000001 302.13120000000004 C 77.60000000000001 303.63120000000004, 87.60000000000001 303.63120000000004, 87.60000000000001 302.13120000000004" stroke = "black" fill = "transparent"/>
<polyline points = "87.60000000000001 302.13120000000004 92.60000000000001,302.13120000000004" fill = "none" stroke = "black" /> 
<polyline points = "70.4688,305.63120000000004 72.60000000000001,305.63120000000004" fill = "none" stroke = "black" /> 
<polyline points = "72.60000000000001,305.63120000000004 77.60000000000001,305.63120000000004" fill = "none" stroke = "black" /> 
<path d = "M 77.60000000000001 305.63120000000004 C 77.60000000000001 307.13120000000004, 87.60000000000001 307.13120000000004, 87.60000000000001 305.63120000000004" stroke = "black" fill = "transparent"/>
<polyline points = "87.60000000000001 305.63120000000004 92.60000000000001,305.63120000000004" fill = "none" stroke = "black" /> 
<polyline points = "70.4688,309.13120000000004 72.60000000000001,309.13120000000004" fill = "none" stroke = "black" /> 
<polyline points = "72.60000000000001,309.13120000000004 77.60000000000001,309.13120000000004" fill = "none" stroke = "black" /> 
<path d = "M 77.60000000000001 309.13120000000004 C 77.60000000000001 310.63120000000004, 87.60000000000001 310.63120000000004, 87.60000000000001 309.13120000000004" stroke = "black" fill = "transparent"/>
<polyline points = "87.60000000000001 309.13120000000004 92.60000000000001,309.13120000000004" fill = "none" stroke = "black" /> 
<polyline points = "92.60000000000001,269.13120000000004 97.60000000000001,269.13120000000004" fill = "none" stroke = "black" /> 
<path d = "M 97.60000000000001 269.13120000000004 C 97.60000000000001 270.63120000000004, 107.60000000000001 270.63120000000004, 107.60000000000001 269.13120000000004" stroke = "black" fill = "transparent"/>
<polyline points = "107.60000000000001 269.13120000000004 112.60000000000001,269.13120000000004" fill = "none" stroke = "black" /> 
<polyline points = "92.60000000000001,272.63120000000004 97.60000000000001,272.63120000000004" fill = "none" stroke = "black" /> 
<path d = "M 97.60000000000001 272.63120000000004 C 97.60000000000001 274.13120000000004, 107.60000000000001 274.13120000000004, 107.60000000000001 272.63120000000004" stroke = "black" fill = "transparent"/>
<polyline points = "107.60000000000001 272.63120000000004 112.60000000000001,272.63120000000004" fill = "none" stroke = "black" /> 
<polyline points = "92.60000000000001,276.13120000000004 97.60000000000001,276.13120000000004" fill = "none" stroke = "black" /> 
<path d = "M 97.60000000000001 276.13120000000004 C 97.60000000000001 277.63120000000004, 107.60000000000001 277.63120000000004, 107.60000000000001 276.13120000000004" stroke = "black" fill = "transparent"/>
<polyline points = "107.60000000000001 276.13120000000004 112.60000000000001,276.13120000000004" fill = "none" stroke = "black" /> 
<polyline points = "92.60000000000001,279.63120000000004 97.60000000000001,279.63120000000004" fill = "none" stroke = "black" /> 
<path d = "M 97.60000000000001 279.63120000000004 C 97.60000000000001 281.13120000000004, 107.60000000000001 281.13120000000004, 107.60000000000001 279.63120000000004" stroke = "black" fill = "transparent"/>
<polyline points = "107.60000000000001 279.63120000000004 112.60000000000001,279.63120000000004" fill = "none" stroke = "black" /> 
<polyline points = "92.60000000000001,283.13120000000004 97.60000000000001,283.13120000000004" fill = "none" stroke = "black" /> 
<path d = "M 97.60000000000001 283.13120000000004 C 97.60000000000001 284.63120000000004, 107.60000000000001 284.63120000000004, 107.60000000000001 283.13120000000004" stroke = "black" fill = "transparent"/>
<polyline points = "107.60000000000001 283.13120000000004 112.60000000000001,283.13120000000004" fill = "none" stroke = "black" /> 
<polyline points = "92.60000000000001,286.63120000000004 97.60000000000001,286.63120000000004" fill = "none" stroke = "black" /> 
<path d = "M 97.60000000000001 286.63120000000004 C 97.60000000000001 288.13120000000004, 107.60000000000001 288.13120000000004, 107.60000000000001 286.63120000000004" stroke = "black" fill = "transparent"/>
<polyline points = "107.60000000000001 286.63120000000004 112.60000000000001,286.63120000000004" fill = "none" stroke = "black" /> 
<polyline points = "92.60000000000001,290.13120000000004 97.60000000000001,290.13120000000004" fill = "none" stroke = "black" /> 
<path d = "M 97.60000000000001 290.13120000000004 C 97.60000000000001 291.63120000000004, 107.60000000000001 291.63120000000004, 107.60000000000001 290.13120000000004" stroke = "black" fill = "transparent"/>
<polyline points = "107.60000000000001 290.13120000000004 112.60000000000001,290.13120000000004" fill = "none" stroke = "black" /> 
<polyline points = "92.60000000000001,293.63120000000004 97.60000000000001,293.63120000000004" fill = "none" stroke = "black" /> 
<path d = "M 97.60000000000001 293.63120000000004 C 97.60000000000001 295.13120000000004, 107.60000000000001 295.13120000000004, 107.60000000000001 293.63120000000004" stroke = "black" fill = "transparent"/>
<polyline points = "107.60000000000001 293.63120000000004 112.60000000000001,293.63120000000004" fill = "none" stroke = "black" /> 
<polyline points = "92.60000000000001,297.13120000000004 97.60000000000001,297.13120000000004" fill = "none" stroke = "black" /> 
<path d = "M 97.60000000000001 297.13120000000004 C 97.60000000000001 298.63120000000004, 107.60000000000001 298.63120000000004, 107.60000000000001 297.13120000000004" stroke = "black" fill = "transparent"/>
<polyline points = "107.60000000000001 297.13120000000004 112.60000000000001,297.13120000000004" fill = "none" stroke = "black" /> 
<polyline points = "92.60000000000001,300.63120000000004 97.60000000000001,300.63120000000004" fill = "none" stroke = "black" /> 
<path d = "M 97.60000000000001 300.63120000000004 C 97.60000000000001 302.13120000000004, 107.60000000000001 302.13120000000004, 107.60000000000001 300.63120000000004" stroke = "black" fill = "transparent"/>
<polyline points = "107.60000000000001 300.63120000000004 112.60000000000001,300.63120000000004" fill = "none" stroke = "black" /> 
<polyline points = "92.60000000000001,304.13120000000004 97.60000000000001,304.13120000000004" fill = "none" stroke = "black" /> 
<path d = "M 97.60000000000001 304.13120000000004 C 97.60000000000001 305.63120000000004, 107.60000000000001 305.63120000000004, 107.60000000000001 304.13120000000004" stroke = "black" fill = "transparent"/>
<polyline points = "107.60000000000001 304.13120000000004 112.60000000000001,304.13120000000004" fill = "none" stroke = "black" /> 
<polyline points = "92.60000000000001,307.63120000000004 97.60000000000001,307.63120000000004" fill = "none" stroke = "black" /> 
<path d = "M 97.60000000000001 307.63120000000004 C 97.60000000000001 309.13120000000004, 107.60000000000001 309.13120000000004, 107.60000000000001 307.63120000000004" stroke = "black" fill = "transparent"/>
<polyline points = "107.60000000000001 307.63120000000004 112.60000000000001,307.63120000000004" fill = "none" stroke = "black" /> 
<polyline points = "92.60000000000001,311.13120000000004 97.60000000000001,311.13120000000004" fill = "none" stroke = "black" /> 
<path d = "M 97.60000000000001 311.13120000000004 C 97.60000000000001 312.63120000000004, 107.60000000000001 312.63120000000004, 107.60000000000001 311.13120000000004" stroke = "black" fill = "transparent"/>
<polyline points = "107.60000000000001 311.13120000000004 112.60000000000001,311.13120000000004" fill = "none" stroke = "black" /> 
<polyline points = "112.60000000000001,267.13120000000004 117.60000000000001,267.13120000000004" fill = "none" stroke = "black" /> 
<path d = "M 117.60000000000001 267.13120000000004 C 117.60000000000001 268.63120000000004, 127.60000000000001 268.63120000000004, 127.60000000000001 267.13120000000004" stroke = "black" fill = "transparent"/>
<polyline points = "127.60000000000001 267.13120000000004 132.60000000000002,267.13120000000004" fill = "none" stroke = "black" /> 
<polyline points = "112.60000000000001,270.63120000000004 117.60000000000001,270.63120000000004" fill = "none" stroke = "black" /> 
<path d = "M 117.60000000000001 270.63120000000004 C 117.60000000000001 272.13120000000004, 127.60000000000001 272.13120000000004, 127.60000000000001 270.63120000000004" stroke = "black" fill = "transparent"/>
<polyline points = "127.60000000000001 270.63120000000004 132.60000000000002,270.63120000000004" fill = "none" stroke = "black" /> 
<polyline points = "112.60000000000001,274.13120000000004 117.60000000000001,274.13120000000004" fill = "none" stroke = "black" /> 
<path d = "M 117.60000000000001 274.13120000000004 C 117.60000000000001 275.63120000000004, 127.60000000000001 275.63120000000004, 127.60000000000001 274.13120000000004" stroke = "black" fill = "transparent"/>
<polyline points = "127.60000000000001 274.13120000000004 132.60000000000002,274.13120000000004" fill = "none" stroke = "black" /> 
<polyline points = "112.60000000000001,277.63120000000004 117.60000000000001,277.63120000000004" fill = "none" stroke = "black" /> 
<path d = "M 117.60000000000001 277.63120000000004 C 117.60000000000001 279.13120000000004, 127.60000000000001 279.13120000000004, 127.60000000000001 277.63120000000004" stroke = "black" fill = "transparent"/>
<polyline points = "127.60000000000001 277.63120000000004 132.60000000000002,277.63120000000004" fill = "none" stroke = "black" /> 
<polyline points = "112.60000000000001,281.13120000000004 117.60000000000001,281.13120000000004" fill = "none" stroke = "black" /> 
<path d = "M 117.60000000000001 281.13120000000004 C 117.60000000000001 282.63120000000004, 127.60000000000001 282.63120000000004, 127.60000000000001 281.13120000000004" stroke = "black" fill = "transparent"/>
<polyline points = "127.60000000000001 281.13120000000004 132.60000000000002,281.13120000000004" fill = "none" stroke = "black" /> 
<polyline points = "112.60000000000001,284.63120000000004 117.60000000000001,284.63120000000004" fill = "none" stroke = "black" /> 
<path d = "M 117.60000000000001 284.63120000000004 C 117.60000000000001 286.13120000000004, 127.60000000000001 286.13120000000004, 127.60000000000001 284.63120000000004" stroke = "black" fill = "transparent"/>
<polyline points = "127.60000000000001 284.63120000000004 132.60000000000002,284.63120000000004" fill = "none" stroke = "black" /> 
<polyline points = "112.60000000000001,288.13120000000004 117.60000000000001,288.13120000000004" fill = "none" stroke = "black" /> 
<path d = "M 117.60000000000001 288.13120000000004 C 117.60000000000001 289.63120000000004, 127.60000000000001 289.63120000000004, 127.60000000000001 288.13120000000004" stroke = "black" fill = "transparent"/>
<polyline points = "127.60000000000001 288.13120000000004 132.60000000000002,288.13120000000004" fill = "none" stroke = "black" /> 
<polyline points = "112.60000000000001,291.63120000000004 117.60000000000001,291.63120000000004" fill = "none" stroke = "black" /> 
<path d = "M 117.60000000000001 291.63120000000004 C 117.60000000000001 293.13120000000004, 127.60000000000001 293.13120000000004, 127.60000000000001 291.63120000000004" stroke = "black" fill = "transparent"/>
<polyline points = "127.60000000000001 291.63120000000004 132.60000000000002,291.63120000000004" fill = "none" stroke = "black" /> 
<polyline points = "112.60000000000001,295.13120000000004 117.60000000000001,295.13120000000004" fill = "none" stroke = "black" /> 
<path d = "M 117.60000000000001 295.13120000000004 C 117.60000000000001 296.63120000000004, 127.60000000000001 296.63120000000004, 127.60000000000001 295.13120000000004" stroke = "black" fill = "transparent"/>
<polyline points = "127.60000000000001 295.13120000000004 132.60000000000002,295.13120000000004" fill = "none" stroke = "black" /> 
<polyline points = "112.60000000000001,298.63120000000004 117.60000000000001,298.63120000000004" fill = "none" stroke = "black" /> 
<path d = "M 117.60000000000001 298.63120000000004 C 117.60000000000001 300.13120000000004, 127.60000000000001 300.13120000000004, 127.60000000000001 298.63120000000004" stroke = "black" fill = "transparent"/>
<polyline points = "127.60000000000001 298.63120000000004 132.60000000000002,298.63120000000004" fill = "none" stroke = "black" /> 
<polyline points = "112.60000000000001,302.13120000000004 117.60000000000001,302.13120000000004" fill = "none" stroke = "black" /> 
<path d = "M 117.60000000000001 302.13120000000004 C 117.60000000000001 303.63120000000004, 127.60000000000001 303.63120000000004, 127.60000000000001 302.13120000000004" stroke = "black" fill = "transparent"/>
<polyline points = "127.60000000000001 302.13120000000004 132.60000000000002,302.13120000000004" fill = "none" stroke = "black" /> 
<polyline points = "112.60000000000001,305.63120000000004 117.60000000000001,305.63120000000004" fill = "none" stroke = "black" /> 
<path d = "M 117.60000000000001 305.63120000000004 C 117.60000000000001 307.13120000000004, 127.60000000000001 307.13120000000004, 127.60000000000001 305.63120000000004" stroke = "black" fill = "transparent"/>
<polyline points = "127.60000000000001 305.63120000000004 132.60000000000002,305.63120000000004" fill = "none" stroke = "black" /> 
<polyline points = "112.60000000000001,309.13120000000004 117.60000000000001,309.13120000000004" fill = "none" stroke = "black" /> 
<path d = "M 117.60000000000001 309.13120000000004 C 117.60000000000001 310.63120000000004, 127.60000000000001 310.63120000000004, 127.60000000000001 309.13120000000004" stroke = "black" fill = "transparent"/>
<polyline points = "127.60000000000001 309.13120000000004 132.60000000000002,309.13120000000004" fill = "none" stroke = "black" /> 
<polyline points = "132.6,269.13120000000004 137.6,269.13120000000004" fill = "none" stroke = "black" /> 
<path d = "M 137.6 269.13120000000004 C 137.6 270.63120000000004, 147.6 270.63120000000004, 147.6 269.13120000000004" stroke = "black" fill = "transparent"/>
<polyline points = "147.6 269.13120000000004 152.6,269.13120000000004" fill = "none" stroke = "black" /> 
<polyline points = "132.6,272.63120000000004 137.6,272.63120000000004" fill = "none" stroke = "black" /> 
<path d = "M 137.6 272.63120000000004 C 137.6 274.13120000000004, 147.6 274.13120000000004, 147.6 272.63120000000004" stroke = "black" fill = "transparent"/>
<polyline points = "147.6 272.63120000000004 152.6,272.63120000000004" fill = "none" stroke = "black" /> 
<polyline points = "132.6,276.13120000000004 137.6,276.13120000000004" fill = "none" stroke = "black" /> 
<path d = "M 137.6 276.13120000000004 C 137.6 277.63120000000004, 147.6 277.63120000000004, 147.6 276.13120000000004" stroke = "black" fill = "transparent"/>
<polyline points = "147.6 276.13120000000004 152.6,276.13120000000004" fill = "none" stroke = "black" /> 
<polyline points = "132.6,279.63120000000004 137.6,279.63120000000004" fill = "none" stroke = "black" /> 
<path d = "M 137.6 279.63120000000004 C 137.6 281.13120000000004, 147.6 281.13120000000004, 147.6 279.63120000000004" stroke = "black" fill = "transparent"/>
<polyline points = "147.6 279.63120000000004 152.6,279.63120000000004" fill = "none" stroke = "black" /> 
<polyline points = "132.6,283.13120000000004 137.6,283.13120000000004" fill = "none" stroke = "black" /> 
<path d = "M 137.6 283.13120000000004 C 137.6 284.63120000000004, 147.6 284.63120000000004, 147.6 283.13120000000004" stroke = "black" fill = "transparent"/>
<polyline points = "147.6 283.13120000000004 152.6,283.13120000000004" fill = "none" stroke = "black" /> 
<polyline points = "132.6,286.63120000000004 137.6,286.63120000000004" fill = "none" stroke = "black" /> 
<path d = "M 137.6 286.63120000000004 C 137.6 288.13120000000004, 147.6 288.13120000000004, 147.6 286.63120000000004" stroke = "black" fill = "transparent"/>
<polyline points = "147.6 286.63120000000004 152.6,286.63120000000004" fill = "none" stroke = "black" /> 
<polyline points = "132.6,290.13120000000004 137.6,290.13120000000004" fill = "none" stroke = "black" /> 
<path d = "M 137.6 290.13120000000004 C 137.6 291.63120000000004, 147.6 291.63120000000004, 147.6 290.13120000000004" stroke = "black" fill = "transparent"/>
<polyline points = "147.6 290.13120000000004 152.6,290.13120000000004" fill = "none" stroke = "black" /> 
<polyline points = "132.6,293.63120000000004 137.6,293.63120000000004" fill = "none" stroke = "black" /> 
<path d = "M 137.6 293.63120000000004 C 137.6 295.13120000000004, 147.6 295.13120000000004, 147.6 293.63120000000004" stroke = "black" fill = "transparent"/>
<polyline points = "147.6 293.63120000000004 152.6,293.63120000000004" fill = "none" stroke = "black" /> 
<polyline points = "132.6,297.13120000000004 137.6,297.13120000000004" fill = "none" stroke = "black" /> 
<path d = "M 137.6 297.13120000000004 C 137.6 298.63120000000004, 147.6 298.63120000000004, 147.6 297.13120000000004" stroke = "black" fill = "transparent"/>
<polyline points = "147.6 297.13120000000004 152.6,297.13120000000004" fill = "none" stroke = "black" /> 
<polyline points = "132.6,300.63120000000004 137.6,300.63120000000004" fill = "none" stroke = "black" /> 
<path d = "M 137.6 300.63120000000004 C 137.6 302.13120000000004, 147.6 302.13120000000004, 147.6 300.63120000000004" stroke = "black" fill = "transparent"/>
<polyline points = "147.6 300.63120000000004 152.6,300.63120000000004" fill = "none" stroke = "black" /> 
<polyline points = "132.6,304.13120000000004 137.6,304.13120000000004" fill = "none" stroke = "black" /> 
<path d = "M 137.6 304.13120000000004 C 137.6 305.63120000000004, 147.6 305.63120000000004, 147.6 304.13120000000004" stroke = "black" fill = "transparent"/>
<polyline points = "147.6 304.13120000000004 152.6,304.13120000000004" fill = "none" stroke = "black" /> 
<polyline points = "132.6,307.63120000000004 137.6,307.63120000000004" fill = "none" stroke = "black" /> 
<path d = "M 137.6 307.63120000000004 C 137.6 309.13120000000004, 147.6 309.13120000000004, 147.6 307.63120000000004" stroke = "black" fill = "transparent"/>
<polyline points = "147.6 307.63120000000004 152.6,307.63120000000004" fill = "none" stroke = "black" /> 
<polyline points = "132.6,311.13120000000004 137.6,311.13120000000004" fill = "none" stroke = "black" /> 
<path d = "M 137.6 311.13120000000004 C 137.6 312.63120000000004, 147.6 312.63120000000004, 147.6 311.13120000000004" stroke = "black" fill = "transparent"/>
<polyline points = "147.6 311.13120000000004 152.6,311.13120000000004" fill = "none" stroke = "black" /> 
<polyline points = "152.6,267.13120000000004 157.6,267.13120000000004" fill = "none" stroke = "black" /> 
<path d = "M 157.6 267.13120000000004 C 157.6 268.63120000000004, 167.6 268.63120000000004, 167.6 267.13120000000004" stroke = "black" fill = "transparent"/>
<polyline points = "167.6 267.13120000000004 172.6,267.13120000000004" fill = "none" stroke = "black" /> 
<polyline points = "152.6,270.63120000000004 157.6,270.63120000000004" fill = "none" stroke = "black" /> 
<path d = "M 157.6 270.63120000000004 C 157.6 272.13120000000004, 167.6 272.13120000000004, 167.6 270.63120000000004" stroke = "black" fill = "transparent"/>
<polyline points = "167.6 270.63120000000004 172.6,270.63120000000004" fill = "none" stroke = "black" /> 
<polyline points = "152.6,274.13120000000004 157.6,274.13120000000004" fill = "none" stroke = "black" /> 
<path d = "M 157.6 274.13120000000004 C 157.6 275.63120000000004, 167.6 275.63120000000004, 167.6 274.13120000000004" stroke = "black" fill = "transparent"/>
<polyline points = "167.6 274.13120000000004 172.6,274.13120000000004" fill = "none" stroke = "black" /> 
<polyline points = "152.6,277.63120000000004 157.6,277.63120000000004" fill = "none" stroke = "black" /> 
<path d = "M 157.6 277.63120000000004 C 157.6 279.13120000000004, 167.6 279.13120000000004, 167.6 277.63120000000004" stroke = "black" fill = "transparent"/>
<polyline points = "167.6 277.63120000000004 172.6,277.63120000000004" fill = "none" stroke = "black" /> 
<polyline points = "152.6,281.13120000000004 157.6,281.13120000000004" fill = "none" stroke = "black" /> 
<path d = "M 157.6 281.13120000000004 C 157.6 282.63120000000004, 167.6 282.63120000000004, 167.6 281.13120000000004" stroke = "black" fill = "transparent"/>
<polyline points = "167.6 281.13120000000004 172.6,281.13120000000004" fill = "none" stroke = "black" /> 
<polyline points = "152.6,284.63120000000004 157.6,284.63120000000004" fill = "none" stroke = "black" /> 
<path d = "M 157.6 284.63120000000004 C 157.6 286.13120000000004, 167.6 286.13120000000004, 167.6 284.63120000000004" stroke = "black" fill = "transparent"/>
<polyline points = "167.6 284.63120000000004 172.6,284.63120000000004" fill = "none" stroke = "black" /> 
<polyline points = "152.6,288.13120000000004 157.6,288.13120000000004" fill = "none" stroke = "black" /> 
<path d = "M 157.6 288.13120000000004 C 157.6 289.63120000000004, 167.6 289.63120000000004, 167.6 288.13120000000004" stroke = "black" fill = "transparent"/>
<polyline points = "167.6 288.13120000000004 172.6,288.13120000000004" fill = "none" stroke = "black" /> 
<polyline points = "152.6,291.63120000000004 157.6,291.63120000000004" fill = "none" stroke = "black" /> 
<path d = "M 157.6 291.63120000000004 C 157.6 293.13120000000004, 167.6 293.13120000000004, 167.6 291.63120000000004" stroke = "black" fill = "transparent"/>
<polyline points = "167.6 291.63120000000004 172.6,291.63120000000004" fill = "none" stroke = "black" /> 
<polyline points = "152.6,295.13120000000004 157.6,295.13120000000004" fill = "none" stroke = "black" /> 
<path d = "M 157.6 295.13120000000004 C 157.6 296.63120000000004, 167.6 296.63120000000004, 167.6 295.13120000000004" stroke = "black" fill = "transparent"/>
<polyline points = "167.6 295.13120000000004 172.6,295.13120000000004" fill = "none" stroke = "black" /> 
<polyline points = "152.6,298.63120000000004 157.6,298.63120000000004" fill = "none" stroke = "black" /> 
<path d = "M 157.6 298.63120000000004 C 157.6 300.13120000000004, 167.6 300.13120000000004, 167.6 298.63120000000004" stroke = "black" fill = "transparent"/>
<polyline points = "167.6 298.63120000000004 172.6,298.63120000000004" fill = "none" stroke = "black" /> 
<polyline points = "152.6,302.13120000000004 157.6,302.13120000000004" fill = "none" stroke = "black" /> 
<path d = "M 157.6 302.13120000000004 C 157.6 303.63120000000004, 167.6 303.63120000000004, 167.6 302.13120000000004" stroke = "black" fill = "transparent"/>
<polyline points = "167.6 302.13120000000004 172.6,302.13120000000004" fill = "none" stroke = "black" /> 
<polyline points = "152.6,305.63120000000004 157.6,305.63120000000004" fill = "none" stroke = "black" /> 
<path d = "M 157.6 305.63120000000004 C 157.6 307.13120000000004, 167.6 307.13120000000004, 167.6 305.63120000000004" stroke = "black" fill = "transparent"/>
<polyline points = "167.6 305.63120000000004 172.6,305.63120000000004" fill = "none" stroke = "black" /> 
<polyline points = "152.6,309.13120000000004 157.6,309.13120000000004" fill = "none" stroke = "black" /> 
<path d = "M 157.6 309.13120000000004 C 157.6 310.63120000000004, 167.6 310.63120000000004, 167.6 309.13120000000004" stroke = "black" fill = "transparent"/>
<polyline points = "167.6 309.13120000000004 172.6,309.13120000000004" fill = "none" stroke = "black" /> 
<polyline points = "172.6,269.13120000000004 177.6,269.13120000000004" fill = "none" stroke = "black" /> 
<path d = "M 177.6 269.13120000000004 C 177.6 270.63120000000004, 187.6 270.63120000000004, 187.6 269.13120000000004" stroke = "black" fill = "transparent"/>
<polyline points = "187.6 269.13120000000004 192.6,269.13120000000004" fill = "none" stroke = "black" /> 
<polyline points = "192.6 269.13120000000004 194.7312,269.13120000000004" fill = "none" stroke = "black" /> 
<polyline points = "172.6,272.63120000000004 177.6,272.63120000000004" fill = "none" stroke = "black" /> 
<path d = "M 177.6 272.63120000000004 C 177.6 274.13120000000004, 187.6 274.13120000000004, 187.6 272.63120000000004" stroke = "black" fill = "transparent"/>
<polyline points = "187.6 272.63120000000004 192.6,272.63120000000004" fill = "none" stroke = "black" /> 
<polyline points = "192.6 272.63120000000004 194.7312,272.63120000000004" fill = "none" stroke = "black" /> 
<polyline points = "172.6,276.13120000000004 177.6,276.13120000000004" fill = "none" stroke = "black" /> 
<path d = "M 177.6 276.13120000000004 C 177.6 277.63120000000004, 187.6 277.63120000000004, 187.6 276.13120000000004" stroke = "black" fill = "transparent"/>
<polyline points = "187.6 276.13120000000004 192.6,276.13120000000004" fill = "none" stroke = "black" /> 
<polyline points = "192.6 276.13120000000004 194.7312,276.13120000000004" fill = "none" stroke = "black" /> 
<polyline points = "172.6,279.63120000000004 177.6,279.63120000000004" fill = "none" stroke = "black" /> 
<path d = "M 177.6 279.63120000000004 C 177.6 281.13120000000004, 187.6 281.13120000000004, 187.6 279.63120000000004" stroke = "black" fill = "transparent"/>
<polyline points = "187.6 279.63120000000004 192.6,279.63120000000004" fill = "none" stroke = "black" /> 
<polyline points = "192.6 279.63120000000004 194.7312,279.63120000000004" fill = "none" stroke = "black" /> 
<polyline points = "172.6,283.13120000000004 177.6,283.13120000000004" fill = "none" stroke = "black" /> 
<path d = "M 177.6 283.13120000000004 C 177.6 284.63120000000004, 187.6 284.63120000000004, 187.6 283.13120000000004" stroke = "black" fill = "transparent"/>
<polyline points = "187.6 283.13120000000004 192.6,283.13120000000004" fill = "none" stroke = "black" /> 
<polyline points = "192.6 283.13120000000004 194.7312,283.13120000000004" fill = "none" stroke = "black" /> 
<polyline points = "172.6,286.63120000000004 177.6,286.63120000000004" fill = "none" stroke = "black" /> 
<path d = "M 177.6 286.63120000000004 C 177.6 288.13120000000004, 187.6 288.13120000000004, 187.6 286.63120000000004" stroke = "black" fill = "transparent"/>
<polyline points = "187.6 286.63120000000004 192.6,286.63120000000004" fill = "none" stroke = "black" /> 
<polyline points = "192.6 286.63120000000004 194.7312,286.63120000000004" fill = "none" stroke = "black" /> 
<polyline points = "172.6,290.13120000000004 177.6,290.13120000000004" fill = "none" stroke = "black" /> 
<path d = "M 177.6 290.13120000000004 C 177.6 291.63120000000004, 187.6 291.63120000000004, 187.6 290.13120000000004" stroke = "black" fill = "transparent"/>
<polyline points = "187.6 290.13120000000004 192.6,290.13120000000004" fill = "none" stroke = "black" /> 
<polyline points = "192.6 290.13120000000004 194.7312,290.13120000000004" fill = "none" stroke = "black" /> 
<polyline points = "172.6,293.63120000000004 177.6,293.63120000000004" fill = "none" stroke = "black" /> 
<path d = "M 177.6 293.63120000000004 C 177.6 295.13120000000004, 187.6 295.13120000000004, 187.6 293.63120000000004" stroke = "black" fill = "transparent"/>
<polyline points = "187.6 293.63120000000004 192.6,293.63120000000004" fill = "none" stroke = "black" /> 
<polyline points = "192.6 293.63120000000004 194.7312,293.63120000000004" fill = "none" stroke = "black" /> 
<polyline points = "172.6,297.13120000000004 177.6,297.13120000000004" fill = "none" stroke = "black" /> 
<path d = "M 177.6 297.13120000000004 C 177.6 298.63120000000004, 187.6 298.63120000000004, 187.6 297.13120000000004" stroke = "black" fill = "transparent"/>
<polyline points = "187.6 297.13120000000004 192.6,297.13120000000004" fill = "none" stroke = "black" /> 
<polyline points = "192.6 297.13120000000004 194.7312,297.13120000000004" fill = "none" stroke = "black" /> 
<polyline points = "172.6,300.63120000000004 177.6,300.63120000000004" fill = "none" stroke = "black" /> 
<path d = "M 177.6 300.63120000000004 C 177.6 302.13120000000004, 187.6 302.13120000000004, 187.6 300.63120000000004" stroke = "black" fill = "transparent"/>
<polyline points = "187.6 300.63120000000004 192.6,300.63120000000004" fill = "none" stroke = "black" /> 
<polyline points = "192.6 300.63120000000004 194.7312,300.63120000000004" fill = "none" stroke = "black" /> 
<polyline points = "172.6,304.13120000000004 177.6,304.13120000000004" fill = "none" stroke = "black" /> 
<path d = "M 177.6 304.13120000000004 C 177.6 305.63120000000004, 187.6 305.63120000000004, 187.6 304.13120000000004" stroke = "black" fill = "transparent"/>
<polyline points = "187.6 304.13120000000004 192.6,304.13120000000004" fill = "none" stroke = "black" /> 
<polyline points = "192.6 304.13120000000004 194.7312,304.13120000000004" fill = "none" stroke = "black" /> 
<polyline points = "172.6,307.63120000000004 177.6,307.63120000000004" fill = "none" stroke = "black" /> 
<path d = "M 177.6 307.63120000000004 C 177.6 309.13120000000004, 187.6 309.13120000000004, 187.6 307.63120000000004" stroke = "black" fill = "transparent"/>
<polyline points = "187.6 307.63120000000004 192.6,307.63120000000004" fill = "none" stroke = "black" /> 
<polyline points = "192.6 307.63120000000004 194.7312,307.63120000000004" fill = "none" stroke = "black" /> 
<polyline points = "172.6,311.13120000000004 177.6,311.13120000000004" fill = "none" stroke = "black" /> 
<path d = "M 177.6 311.13120000000004 C 177.6 312.63120000000004, 187.6 312.63120000000004, 187.6 311.13120000000004" stroke = "black" fill = "transparent"/>
<polyline points = "187.6 311.13120000000004 192.6,311.13120000000004" fill = "none" stroke = "black" /> 
<polyline points = "192.6 311.13120000000004 194.7312,311.13120000000004" fill = "none" stroke = "black" /> 
<polyline points = "271.86240000000004,348.66240000000005 272.2486785561826,349.3052754755266" fill = "none" stroke = "red" /> 
<polyline points = "271.86240000000004,348.66240000000005 272.2486785561826,349.3052754755266" fill = "none" stroke = "red" /> 
<polyline points = "272.2486785561826,349.3052754755266 271.1581926558212,349.9868213892884" fill = "none" stroke = "red" /> 
<polyline points = "271.1581926558212,349.9868213892884 269.61548354680224,348.78015590154666" fill = "none" stroke = "red" /> 
<polyline points = "269.61548354680224,348.78015590154666 270.1848212895878,346.1752872823349" fill = "none" stroke = "red" /> 
<polyline points = "270.1848212895878,346.1752872823349 273.44721848152767,345.2637457986126" fill = "none" stroke = "red" /> 
<polyline points = "273.44721848152767,345.2637457986126 276.33774852915724,348.1920219152956" fill = "none" stroke = "red" /> 
<polyline points = "276.33774852915724,348.1920219152956 275.0219288715483,352.8552364277483" fill = "none" stroke = "red" /> 
<polyline points = "275.0219288715483,352.8552364277483 269.61476043950455,354.22550312740077" fill = "none" stroke = "red" /> 
<polyline points = "269.61476043950455,354.22550312740077 265.19550370098284,349.71833263902164" fill = "none" stroke = "red" /> 
<polyline points = "265.19550370098284,349.71833263902164 267.041492927351,342.9170666766077" fill = "none" stroke = "red" /> 
<polyline points = "267.041492927351,342.9170666766077 274.5483372742716,340.86187175130567" fill = "none" stroke = "red" /> 
<polyline points = "274.5483372742716,340.86187175130567 280.6657284066043,346.7911947826402" fill = "none" stroke = "red" /> 
<polyline points = "280.6657284066043,346.7911947826402 278.5118840106094,355.79309859078694" fill = "none" stroke = "red" /> 
<polyline points = "278.5118840106094,355.79309859078694 268.96820776392155,358.7556478073524" fill = "none" stroke = "red" /> 
<polyline points = "268.96820776392155,358.7556478073524 260.995734454248,351.57411425740344" fill = "none" stroke = "red" /> 
<polyline points = "260.995734454248,351.57411425740344 263.2303223959362,340.3264995544921" fill = "none" stroke = "red" /> 
<polyline points = "263.2303223959362,340.3264995544921 274.7305259428843,336.2391816739883" fill = "none" stroke = "red" /> 
<polyline points = "274.7305259428843,336.2391816739883 284.7016629699846,344.4906705759382" fill = "none" stroke = "red" /> 
<polyline points = "284.7016629699846,344.4906705759382 282.61701151817454,358.0112411631148" fill = "none" stroke = "red" /> 
<polyline points = "282.61701151817454,358.0112411631148 269.25767733499606,363.4345162951832" fill = "none" stroke = "red" /> 
<polyline points = "269.25767733499606,363.4345162951832 257.1585082826691,354.30669520533854" fill = "none" stroke = "red" /> 
<polyline points = "257.1585082826691,354.30669520533854 258.86022256548915,338.5039856571267" fill = "none" stroke = "red" /> 
<polyline points = "258.86022256548915,338.5039856571267 273.96464617373886,331.54097888418727" fill = "none" stroke = "red" /> 
<polyline points = "273.96464617373886,331.54097888418727 288.30621823756684,341.3411404246356" fill = "none" stroke = "red" /> 
<polyline points = "288.30621823756684,341.3411404246356 287.2215008304187,359.4169581815821" fill = "none" stroke = "red" /> 
<polyline points = "287.2215008304187,359.4169581815821 270.5021487619896,368.11489898006664" fill = "none" stroke = "red" /> 
<polyline points = "270.5021487619896,368.11489898006664 253.81951788518563,357.85570761972593" fill = "none" stroke = "red" /> 
<polyline points = "253.81951788518563,357.85570761972593 254.05338998071508,337.53409545110276" fill = "none" stroke = "red" /> 
<polyline points = "254.05338998071508,337.53409545110276 272.2419898400109,326.91571263034854" fill = "none" stroke = "red" /> 
<polyline points = "272.2419898400109,326.91571263034854 291.3479715851499,337.41240000000005" fill = "none" stroke = "red" /> 
<polyline points = "291.3479715851499,337.41240000000005 292.197308190991,359.93422367072736" fill = "none" stroke = "red" /> 
<polyline points = "292.197308190991,359.93422367072736 272.69998792086017,372.64777984845836" fill = "none" stroke = "red" /> 
<polyline points = "272.69998792086017,372.64777984845836 251.1053034433508,362.14221611662197" fill = "none" stroke = "red" /> 
<polyline points = "251.1053034433508,362.14221611662197 248.94315181937122,337.4839357568787" fill = "none" stroke = "red" /> 
<polyline points = "248.94315181937122,337.4839357568787 269.574561752874,322.5122891750917" fill = "none" stroke = "red" /> 
<polyline points = "269.574561752874,322.5122891750917 293.7058588481235,332.79219818810316" fill = "none" stroke = "red" /> 
<polyline points = "293.7058588481235,332.79219818810316 297.4064096833053,359.50518881557736" fill = "none" stroke = "red" /> 
<polyline points = "297.4064096833053,359.50518881557736 275.82883337736183,376.8850399591348" fill = "none" stroke = "red" /> 
<polyline points = "275.82883337736183,376.8850399591348 249.13088062738368,367.07002143820785" fill = "none" stroke = "red" /> 
<polyline points = "249.13088062738368,367.07002143820785 243.6716213764228,338.40179570022997" fill = "none" stroke = "red" /> 
<polyline points = "243.6716213764228,338.40179570022997 265.9950233921712,318.4773641089844" fill = "none" stroke = "red" /> 
<polyline points = "265.9950233921712,318.4773641089844 295.271462002538,327.58478589969604" fill = "none" stroke = "red" /> 
<polyline points = "295.271462002538,327.58478589969604 302.70322837980797,358.0913874773082" fill = "none" stroke = "red" /> 
<polyline points = "302.70322837980797,358.0913874773082 279.84582255478904,380.68215896710797" fill = "none" stroke = "red" /> 
<polyline points = "279.84582255478904,380.68215896710797 247.99754613495412,372.5272538650461" fill = "none" stroke = "red" /> 
<polyline points = "247.99754613495412,372.5272538650461 238.38719744347816,340.31609460181147" fill = "none" stroke = "red" /> 
<polyline points = "238.38719744347816,340.31609460181147 261.55629740852345,314.95265735230305" fill = "none" stroke = "red" /> 
<polyline points = "261.55629740852345,314.95265735230305 295.9511018289189,321.90918628281383" fill = "none" stroke = "red" /> 
<polyline points = "295.9511018289189,321.90918628281383 307.93719899170173,355.674630580088" fill = "none" stroke = "red" /> 
<polyline points = "307.93719899170173,355.674630580088 284.68815537471284,383.9008732794715" fill = "none" stroke = "red" /> 
<polyline points = "284.68815537471284,383.9008732794715 247.79089504234386,378.3882330257293" fill = "none" stroke = "red" /> 
<polyline points = "247.79089504234386,378.3882330257293 233.24194531907878,343.2346490625575" fill = "none" stroke = "red" /> 
<polyline points = "233.24194531907878,343.2346490625575 256.3308376425513,312.0723320752656" fill = "none" stroke = "red" /> 
<polyline points = "256.3308376425513,312.0723320752656 295.667702717845,315.8972117278145" fill = "none" stroke = "red" /> 
<polyline points = "295.667702717845,315.8972117278145 312.95543129628453,352.2575743883411" fill = "none" stroke = "red" /> 
<polyline points = "312.95543129628453,352.2575743883411 290.2739881651413,386.41174994456503" fill = "none" stroke = "red" /> 
<polyline points = "290.2739881651413,386.41174994456503 248.57908125310777,384.51556677966704" fill = "none" stroke = "red" /> 
<polyline points = "248.57908125310777,384.51556677966704 228.38889902466934,347.1442718934416" fill = "none" stroke = "red" /> 
<polyline points = "228.38889902466934,347.1442718934416 250.40957430409972,309.96047795908174" fill = "none" stroke = "red" /> 
<polyline points = "250.40957430409972,309.96047795908174 294.3624,309.69125682970025" fill = "none" stroke = "red" /> 
<polyline points = "294.3624,309.69125682970025 317.6054320534049,347.8639524054941" fill = "none" stroke = "red" /> 
<polyline points = "317.6054320534049,347.8639524054941 296.5036457868441,388.0966364712738" fill = "none" stroke = "red" /> 
<polyline points = "296.5036457868441,388.0966364712738 250.41134888730636,390.7624582679004" fill = "none" stroke = "red" /> 
<polyline points = "250.41134888730636,390.7624582679004 223.9793255875285,352.0107107397185" fill = "none" stroke = "red" /> 
<polyline points = "223.9793255875285,352.0107107397185 243.9005487278863,308.72873784091183" fill = "none" stroke = "red" /> 
<polyline points = "243.9005487278863,308.72873784091183 291.99586383225204,303.4418998466913" fill = "none" stroke = "red" /> 
<text x = "132.60000000000002" y = "406.26240000000007" dominant-baseline= "central" text-anchor= "middle" font-size = "30px" fill = "blue">topsie </text> 
<text x = "132.60000000000002" y = "151.8" dominant-baseline= "central" text-anchor= "middle" font-size = "30px" fill = "blue">eh </text> 
<text x = "75" y = "800" dy = "0">
<tspan x = "20" dy = ".6em" >BOX ATTRIBUTES </tspan>
<tspan x = "20" dy = "1.2em" >thickness: </tspan>
<tspan x = "20" dy = "1.2em" >width: </tspan>
<tspan x = "20" dy = "1.2em" >length:  </tspan>
<tspan x = "20" dy = "1.2em" >height: </tspan>
<tspan x = "20" dy = "1.2em" >partition:  </tspan>
<tspan x = "20" dy = "1.2em" >partition location: </tspan>
<tspan x = "20" dy = "1.2em" >lid: </tspan>
<tspan x = "20" dy = "1.2em" >top text: </tspan>
<tspan x = "20" dy = "1.2em" >top text string: </tspan>
<tspan x = "20" dy = "1.2em" >front text: </tspan>
<tspan x = "20" dy = "1.2em" >front text string: </tspan>
<tspan x = "20" dy = "1.2em" >fractal: </tspan>
</text><text x = "200" y = "800" dy = "0">
<tspan x = "200" dy = ".6em" >BOX ATTRIBUTES </tspan>
<tspan x = "200" dy = "1.2em" >0.118</tspan>
<tspan x = "200" dy = "1.2em" >3.0</tspan>
<tspan x = "200" dy = "1.2em" >5.0</tspan>
<tspan x = "200" dy = "1.2em" >4.0</tspan>
<tspan x = "200" dy = "1.2em" >False</tspan>
<tspan x = "200" dy = "1.2em" >0</tspan>
<tspan x = "200" dy = "1.2em" >True</tspan>
<tspan x = "200" dy = "1.2em" >True</tspan>
<tspan x = "200" dy = "1.2em" >topsie</tspan>
<tspan x = "200" dy = "1.2em" >True</tspan>
<tspan x = "200" dy = "1.2em" >eh</tspan>
<tspan x = "200" dy = "1.2em" >True</tspan>
</text></svg>