<?xml version = "1.0" encoding = "UTF-8" ?> 
<svg xmlns="http://www.w3.org/2000/svg" version = "1.1"> 
<line x1="75" y1="40" x2="113.4" y2 ="40" style="stroke:red;stroke:4"/>
<text x = "123.4" y = "45" font-size = "12px" fill = "red"> = 1 inch (2:5 scale) </text> 
<polyline points="75,75 190.20000000000002,75 " style="fill:none;stroke:black;stroke:2"/>
<polyline points="190.20000000000002,75.0 199.8,75.0 199.8,94.2 190.20000000000002,94.2 190.20000000000002,113.4 190.20000000000002,113.4 199.8,113.4 199.8,132.60000000000002 190.20000000000002,132.60000000000002 190.20000000000002,151.8 190.20000000000002,151.8 199.8,151.8 199.8,171.0 190.20000000000002,171.0 190.20000000000002,190.20000000000002 190.20000000000002,190.20000000000002 199.8,190.20000000000002 199.8,209.40000000000003 190.20000000000002,209.40000000000003 190.20000000000002,228.60000000000002 190.20000000000002,228.60000000000002 199.8,228.60000000000002 199.8,247.8 190.20000000000002,247.8 190.20000000000002,267.0 " style="fill:none;stroke:black;stroke:2"/>
<line x1 = "190.20000000000002" y1 = "101.91023622045002" x2 = "190.20000000000002" y2 = "105.68976377955002" style="fill:none;stroke:white;stroke:2"/>
<line x1 = "190.20000000000002" y1 = "255.51023622045005" x2 = "190.20000000000002" y2 = "259.28976377955007" style="fill:none;stroke:white;stroke:2"/>
<polyline points = "190.20000000000002,101.91023622045002 173.79685039362002,101.91023622045002 173.79685039362002,99.64251968499002 170.77322834634003,99.64251968499002 170.77322834634003,101.91023622045002 167.74960629906002,101.91023622045002 167.74960629906002,105.68976377955002 170.77322834634003,105.68976377955002 170.77322834634003,107.95748031501002 173.79685039362002,107.95748031501002 173.79685039362002,105.68976377955002 190.20000000000002,105.68976377955002" style="fill:none;stroke:black;stroke:2"/>
<polyline points = "190.20000000000002,255.51023622045005 173.79685039362002,255.51023622045005 173.79685039362002,253.24251968499004 170.77322834634003,253.24251968499004 170.77322834634003,255.51023622045005 167.74960629906002,255.51023622045005 167.74960629906002,259.28976377955007 170.77322834634003,259.28976377955007 170.77322834634003,261.55748031501 173.79685039362002,261.55748031501 173.79685039362002,259.28976377955007 190.20000000000002,259.28976377955007" style="fill:none;stroke:black;stroke:2"/>
<polyline points="190.20000000000002,267.0 190.20000000000002,276.6 171.0,276.6 171.0,267.0 151.8,267.0 151.8,267.0 151.8,276.6 132.6,276.6 132.6,267.0 113.4,267.0 113.4,267.0 113.4,276.6 94.19999999999999,276.6 94.19999999999999,267.0 75.0,267.0 " style="fill:none;stroke:black;stroke:2"/>
<polyline points="75.0,267.0 65.4,267.0 65.4,247.8 75.0,247.8 75.0,228.60000000000002 75.0,228.6 65.4,228.6 65.4,209.4 75.0,209.4 75.0,190.20000000000002 75.0,190.2 65.4,190.2 65.4,171.0 75.0,171.0 75.0,151.8 75.0,151.79999999999998 65.4,151.79999999999998 65.4,132.6 75.0,132.6 75.0,113.4 75.0,113.39999999999998 65.4,113.39999999999998 65.4,94.19999999999999 75.0,94.19999999999999 75.0,75.0 " style="fill:none;stroke:black;stroke:2"/>
<circle cx = "70.2" cy = "103.80000000000001" r = "1.88976377955" style="fill:none;stroke:black;stroke:2"/>
<circle cx = "70.2" cy = "257.40000000000003" r = "1.88976377955" style="fill:none;stroke:black;stroke:2"/>
<polyline points="234.40000000000003,75 349.6,75 " style="fill:none;stroke:black;stroke:2"/>
<polyline points="349.6,75.0 359.20000000000005,75.0 359.20000000000005,94.2 349.6,94.2 349.6,113.4 349.6,113.4 359.20000000000005,113.4 359.20000000000005,132.60000000000002 349.6,132.60000000000002 349.6,151.8 349.6,151.8 359.20000000000005,151.8 359.20000000000005,171.0 349.6,171.0 349.6,190.20000000000002 349.6,190.20000000000002 359.20000000000005,190.20000000000002 359.20000000000005,209.40000000000003 349.6,209.40000000000003 349.6,228.60000000000002 349.6,228.60000000000002 359.20000000000005,228.60000000000002 359.20000000000005,247.8 349.6,247.8 349.6,267.0 " style="fill:none;stroke:black;stroke:2"/>
<line x1 = "349.6" y1 = "101.91023622045002" x2 = "349.6" y2 = "105.68976377955002" style="fill:none;stroke:white;stroke:2"/>
<line x1 = "349.6" y1 = "255.51023622045005" x2 = "349.6" y2 = "259.28976377955007" style="fill:none;stroke:white;stroke:2"/>
<polyline points = "349.6,101.91023622045002 333.19685039362,101.91023622045002 333.19685039362,99.64251968499002 330.17322834634,99.64251968499002 330.17322834634,101.91023622045002 327.14960629906,101.91023622045002 327.14960629906,105.68976377955002 330.17322834634,105.68976377955002 330.17322834634,107.95748031501002 333.19685039362,107.95748031501002 333.19685039362,105.68976377955002 349.6,105.68976377955002" style="fill:none;stroke:black;stroke:2"/>
<polyline points = "349.6,255.51023622045005 333.19685039362,255.51023622045005 333.19685039362,253.24251968499004 330.17322834634,253.24251968499004 330.17322834634,255.51023622045005 327.14960629906,255.51023622045005 327.14960629906,259.28976377955007 330.17322834634,259.28976377955007 330.17322834634,261.55748031501 333.19685039362,261.55748031501 333.19685039362,259.28976377955007 349.6,259.28976377955007" style="fill:none;stroke:black;stroke:2"/>
<polyline points="349.6,267.0 349.6,276.6 330.40000000000003,276.6 330.40000000000003,267.0 311.20000000000005,267.0 311.20000000000005,267.0 311.20000000000005,276.6 292.0,276.6 292.0,267.0 272.80000000000007,267.0 272.8,267.0 272.8,276.6 253.60000000000002,276.6 253.60000000000002,267.0 234.40000000000003,267.0 " style="fill:none;stroke:black;stroke:2"/>
<polyline points="234.4,267.0 224.8,267.0 224.8,247.8 234.4,247.8 234.4,228.60000000000002 234.4,228.6 224.8,228.6 224.8,209.4 234.4,209.4 234.4,190.20000000000002 234.4,190.2 224.8,190.2 224.8,171.0 234.4,171.0 234.4,151.8 234.4,151.79999999999998 224.8,151.79999999999998 224.8,132.6 234.4,132.6 234.4,113.4 234.4,113.39999999999998 224.8,113.39999999999998 224.8,94.19999999999999 234.4,94.19999999999999 234.4,75.0 " style="fill:none;stroke:black;stroke:2"/>
<circle cx = "229.60000000000002" cy = "103.80000000000001" r = "1.88976377955" style="fill:none;stroke:black;stroke:2"/>
<circle cx = "229.60000000000002" cy = "257.40000000000003" r = "1.88976377955" style="fill:none;stroke:black;stroke:2"/>
<polyline points="393.80000000000007,75 547.4000000000001,75 " style="fill:none;stroke:black;stroke:2"/>
<polyline points="547.4000000000001,75.0 557.0000000000001,75.0 557.0000000000001,94.2 547.4000000000001,94.2 547.4000000000001,113.4 547.4000000000001,113.4 557.0000000000001,113.4 557.0000000000001,132.60000000000002 547.4000000000001,132.60000000000002 547.4000000000001,151.8 547.4000000000001,151.8 557.0000000000001,151.8 557.0000000000001,171.0 547.4000000000001,171.0 547.4000000000001,190.20000000000002 547.4000000000001,190.20000000000002 557.0000000000001,190.20000000000002 557.0000000000001,209.40000000000003 547.4000000000001,209.40000000000003 547.4000000000001,228.60000000000002 547.4000000000001,228.60000000000002 557.0000000000001,228.60000000000002 557.0000000000001,247.8 547.4000000000001,247.8 547.4000000000001,267.0 " style="fill:none;stroke:black;stroke:2"/>
<line x1 = "547.4000000000001" y1 = "101.91023622045002" x2 = "547.4000000000001" y2 = "105.68976377955002" style="fill:none;stroke:white;stroke:2"/>
<line x1 = "547.4000000000001" y1 = "255.51023622045005" x2 = "547.4000000000001" y2 = "259.28976377955007" style="fill:none;stroke:white;stroke:2"/>
<polyline points = "547.4000000000001,101.91023622045002 530.9968503936201,101.91023622045002 530.9968503936201,99.64251968499002 527.9732283463401,99.64251968499002 527.9732283463401,101.91023622045002 524.9496062990601,101.91023622045002 524.9496062990601,105.68976377955002 527.9732283463401,105.68976377955002 527.9732283463401,107.95748031501002 530.9968503936201,107.95748031501002 530.9968503936201,105.68976377955002 547.4000000000001,105.68976377955002" style="fill:none;stroke:black;stroke:2"/>
<polyline points = "547.4000000000001,255.51023622045005 530.9968503936201,255.51023622045005 530.9968503936201,253.24251968499004 527.9732283463401,253.24251968499004 527.9732283463401,255.51023622045005 524.9496062990601,255.51023622045005 524.9496062990601,259.28976377955007 527.9732283463401,259.28976377955007 527.9732283463401,261.55748031501 530.9968503936201,261.55748031501 530.9968503936201,259.28976377955007 547.4000000000001,259.28976377955007" style="fill:none;stroke:black;stroke:2"/>
<polyline points="547.4000000000001,267.0 547.4000000000001,276.6 528.2,276.6 528.2,267.0 509.00000000000006,267.0 509.0000000000001,267.0 509.0000000000001,276.6 489.80000000000007,276.6 489.80000000000007,267.0 470.6,267.0 470.6000000000001,267.0 470.6000000000001,276.6 451.40000000000003,276.6 451.40000000000003,267.0 432.20000000000005,267.0 432.20000000000005,267.0 432.20000000000005,276.6 413.0,276.6 413.0,267.0 393.80000000000007,267.0 " style="fill:none;stroke:black;stroke:2"/>
<polyline points="393.80000000000007,267.0 384.20000000000005,267.0 384.20000000000005,247.8 393.80000000000007,247.8 393.80000000000007,228.60000000000002 393.80000000000007,228.6 384.20000000000005,228.6 384.20000000000005,209.4 393.80000000000007,209.4 393.80000000000007,190.20000000000002 393.80000000000007,190.2 384.20000000000005,190.2 384.20000000000005,171.0 393.80000000000007,171.0 393.80000000000007,151.8 393.80000000000007,151.79999999999998 384.20000000000005,151.79999999999998 384.20000000000005,132.6 393.80000000000007,132.6 393.80000000000007,113.4 393.80000000000007,113.39999999999998 384.20000000000005,113.39999999999998 384.20000000000005,94.19999999999999 393.80000000000007,94.19999999999999 393.80000000000007,75.0 " style="fill:none;stroke:black;stroke:2"/>
<circle cx = "389.00000000000006" cy = "103.80000000000001" r = "1.88976377955" style="fill:none;stroke:black;stroke:2"/>
<circle cx = "389.00000000000006" cy = "257.40000000000003" r = "1.88976377955" style="fill:none;stroke:black;stroke:2"/>
<rect x = "446.6000000000001" y = "84.6" width = "9.600000000000001" height = "19.200000000000003" style="fill:none;stroke:black;strokeDim:3"/>
<rect x = "446.6000000000001" y = "238.20000000000002" width = "9.600000000000001" height = "19.200000000000003" style="fill:none;stroke:black;strokeDim:3"/>
<polyline points="591.6000000000001,75 745.2000000000002,75 " style="fill:none;stroke:black;stroke:2"/>
<polyline points="745.2000000000002,75.0 754.8000000000002,75.0 754.8000000000002,94.2 745.2000000000002,94.2 745.2000000000002,113.4 745.2000000000002,113.4 754.8000000000002,113.4 754.8000000000002,132.60000000000002 745.2000000000002,132.60000000000002 745.2000000000002,151.8 745.2000000000002,151.8 754.8000000000002,151.8 754.8000000000002,171.0 745.2000000000002,171.0 745.2000000000002,190.20000000000002 745.2000000000002,190.20000000000002 754.8000000000002,190.20000000000002 754.8000000000002,209.40000000000003 745.2000000000002,209.40000000000003 745.2000000000002,228.60000000000002 745.2000000000002,228.60000000000002 754.8000000000002,228.60000000000002 754.8000000000002,247.8 745.2000000000002,247.8 745.2000000000002,267.0 " style="fill:none;stroke:black;stroke:2"/>
<line x1 = "745.2000000000002" y1 = "101.91023622045002" x2 = "745.2000000000002" y2 = "105.68976377955002" style="fill:none;stroke:white;stroke:2"/>
<line x1 = "745.2000000000002" y1 = "255.51023622045005" x2 = "745.2000000000002" y2 = "259.28976377955007" style="fill:none;stroke:white;stroke:2"/>
<polyline points = "745.2000000000002,101.91023622045002 728.7968503936202,101.91023622045002 728.7968503936202,99.64251968499002 725.7732283463401,99.64251968499002 725.7732283463401,101.91023622045002 722.7496062990601,101.91023622045002 722.7496062990601,105.68976377955002 725.7732283463401,105.68976377955002 725.7732283463401,107.95748031501002 728.7968503936202,107.95748031501002 728.7968503936202,105.68976377955002 745.2000000000002,105.68976377955002" style="fill:none;stroke:black;stroke:2"/>
<polyline points = "745.2000000000002,255.51023622045005 728.7968503936202,255.51023622045005 728.7968503936202,253.24251968499004 725.7732283463401,253.24251968499004 725.7732283463401,255.51023622045005 722.7496062990601,255.51023622045005 722.7496062990601,259.28976377955007 725.7732283463401,259.28976377955007 725.7732283463401,261.55748031501 728.7968503936202,261.55748031501 728.7968503936202,259.28976377955007 745.2000000000002,259.28976377955007" style="fill:none;stroke:black;stroke:2"/>
<polyline points="745.2000000000002,267.0 745.2000000000002,276.6 726.0000000000001,276.6 726.0000000000001,267.0 706.8000000000001,267.0 706.8000000000002,267.0 706.8000000000002,276.6 687.6000000000001,276.6 687.6000000000001,267.0 668.4000000000001,267.0 668.4000000000001,267.0 668.4000000000001,276.6 649.2,276.6 649.2,267.0 630.0,267.0 630.0000000000001,267.0 630.0000000000001,276.6 610.8000000000001,276.6 610.8000000000001,267.0 591.6,267.0 " style="fill:none;stroke:black;stroke:2"/>
<polyline points="591.6000000000001,267.0 582.0000000000001,267.0 582.0000000000001,247.8 591.6000000000001,247.8 591.6000000000001,228.60000000000002 591.6000000000001,228.6 582.0000000000001,228.6 582.0000000000001,209.4 591.6000000000001,209.4 591.6000000000001,190.20000000000002 591.6000000000001,190.2 582.0000000000001,190.2 582.0000000000001,171.0 591.6000000000001,171.0 591.6000000000001,151.8 591.6000000000001,151.79999999999998 582.0000000000001,151.79999999999998 582.0000000000001,132.6 591.6000000000001,132.6 591.6000000000001,113.4 591.6000000000001,113.39999999999998 582.0000000000001,113.39999999999998 582.0000000000001,94.19999999999999 591.6000000000001,94.19999999999999 591.6000000000001,75.0 " style="fill:none;stroke:black;stroke:2"/>
<circle cx = "586.8000000000002" cy = "103.80000000000001" r = "1.88976377955" style="fill:none;stroke:black;stroke:2"/>
<circle cx = "586.8000000000002" cy = "257.40000000000003" r = "1.88976377955" style="fill:none;stroke:black;stroke:2"/>
<rect x = "682.8000000000002" y = "84.6" width = "9.600000000000001" height = "19.200000000000003" style="fill:none;stroke:black;strokeDim:3"/>
<rect x = "682.8000000000002" y = "238.20000000000002" width = "9.600000000000001" height = "19.200000000000003" style="fill:none;stroke:black;strokeDim:3"/>
<polyline points="234.40000000000003,311.20000000000005 234.40000000000003,301.6 253.60000000000002,301.6 253.60000000000002,311.20000000000005 272.8,311.20000000000005 272.80000000000007,311.20000000000005 272.80000000000007,301.6 292.0,301.6 292.0,311.20000000000005 311.20000000000005,311.20000000000005 311.20000000000005,311.20000000000005 311.20000000000005,301.6 330.40000000000003,301.6 330.40000000000003,311.20000000000005 349.6,311.20000000000005 " style="fill:none;stroke:black;stroke:2"/>
<polyline points="349.6,311.20000000000005 359.20000000000005,311.20000000000005 359.20000000000005,330.40000000000003 349.6,330.40000000000003 349.6,349.6 349.6,349.6 359.20000000000005,349.6 359.20000000000005,368.80000000000007 349.6,368.80000000000007 349.6,388.0 349.6,388.00000000000006 359.20000000000005,388.00000000000006 359.20000000000005,407.20000000000005 349.6,407.20000000000005 349.6,426.40000000000003 349.6,426.4000000000001 359.20000000000005,426.4000000000001 359.20000000000005,445.6 349.6,445.6 349.6,464.80000000000007 " style="fill:none;stroke:black;stroke:2"/>
<polyline points="349.6,464.80000000000007 349.6,474.4000000000001 330.40000000000003,474.4000000000001 330.40000000000003,464.80000000000007 311.20000000000005,464.80000000000007 311.20000000000005,464.80000000000007 311.20000000000005,474.4000000000001 292.0,474.4000000000001 292.0,464.80000000000007 272.80000000000007,464.80000000000007 272.8,464.80000000000007 272.8,474.4000000000001 253.60000000000002,474.4000000000001 253.60000000000002,464.80000000000007 234.40000000000003,464.80000000000007 " style="fill:none;stroke:black;stroke:2"/>
<polyline points="234.4,464.80000000000007 224.8,464.80000000000007 224.8,445.6000000000001 234.4,445.6000000000001 234.4,426.4000000000001 234.4,426.4000000000001 224.8,426.4000000000001 224.8,407.20000000000005 234.4,407.20000000000005 234.4,388.0000000000001 234.4,388.00000000000006 224.8,388.00000000000006 224.8,368.80000000000007 234.4,368.80000000000007 234.4,349.6000000000001 234.4,349.6 224.8,349.6 224.8,330.4000000000001 234.4,330.4000000000001 234.4,311.20000000000005 " style="fill:none;stroke:black;stroke:2"/>
<polyline points="393.80000000000007,311.20000000000005 509.0000000000001,311.20000000000005 " style="fill:none;stroke:black;stroke:2"/>
<polyline points="509.0000000000001,311.20000000000005 509.0000000000001,320.80000000000007 518.6000000000001,320.80000000000007 518.6000000000001,340.00000000000006 509.0000000000001,340.00000000000006 509.0000000000001,474.4000000000001 518.6000000000001,474.4000000000001 518.6000000000001,493.6000000000001 509.0000000000001,493.6000000000001 509.0000000000001,503.20000000000005" style="fill:none;stroke:black;stroke:2"/>
<polyline points="509.0000000000001,503.20000000000005 393.80000000000007,503.20000000000005 " style="fill:none;stroke:black;stroke:2"/>
<polyline points="393.80000000000007,311.20000000000005 393.80000000000007,320.80000000000007 384.20000000000005,320.80000000000007 384.20000000000005,340.00000000000006 393.80000000000007,340.00000000000006 393.80000000000007,474.4000000000001 384.20000000000005,474.4000000000001 384.20000000000005,493.6000000000001 393.80000000000007,493.6000000000001 393.80000000000007,503.20000000000005" style="fill:none;stroke:black;stroke:2"/>
<rect x = "65.4" y = "301.6" width = "134.40000000000003" height = "172.8" style="fill:none;stroke:black;stroke:2"/>
<polyline points = "65.4,324.6 72.60000000000002,324.6" fill = "none" stroke = "black" /> 
<polyline points = "72.60000000000002,324.6 77.60000000000002,324.6" fill = "none" stroke = "black" /> 
<path d = "M 77.60000000000002 324.6 C 77.60000000000002 334.6, 87.60000000000002 334.6, 87.60000000000002 324.6" stroke = "black" fill = "transparent"/>
<polyline points = "87.60000000000002 324.6 92.60000000000002,324.6" fill = "none" stroke = "black" /> 
<polyline points = "65.4,334.6 72.60000000000002,334.6" fill = "none" stroke = "black" /> 
<polyline points = "72.60000000000002,334.6 77.60000000000002,334.6" fill = "none" stroke = "black" /> 
<path d = "M 77.60000000000002 334.6 C 77.60000000000002 344.6, 87.60000000000002 344.6, 87.60000000000002 334.6" stroke = "black" fill = "transparent"/>
<polyline points = "87.60000000000002 334.6 92.60000000000002,334.6" fill = "none" stroke = "black" /> 
<polyline points = "65.4,344.6 72.60000000000002,344.6" fill = "none" stroke = "black" /> 
<polyline points = "72.60000000000002,344.6 77.60000000000002,344.6" fill = "none" stroke = "black" /> 
<path d = "M 77.60000000000002 344.6 C 77.60000000000002 354.6, 87.60000000000002 354.6, 87.60000000000002 344.6" stroke = "black" fill = "transparent"/>
<polyline points = "87.60000000000002 344.6 92.60000000000002,344.6" fill = "none" stroke = "black" /> 
<polyline points = "65.4,354.6 72.60000000000002,354.6" fill = "none" stroke = "black" /> 
<polyline points = "72.60000000000002,354.6 77.60000000000002,354.6" fill = "none" stroke = "black" /> 
<path d = "M 77.60000000000002 354.6 C 77.60000000000002 364.6, 87.60000000000002 364.6, 87.60000000000002 354.6" stroke = "black" fill = "transparent"/>
<polyline points = "87.60000000000002 354.6 92.60000000000002,354.6" fill = "none" stroke = "black" /> 
<polyline points = "65.4,364.6 72.60000000000002,364.6" fill = "none" stroke = "black" /> 
<polyline points = "72.60000000000002,364.6 77.60000000000002,364.6" fill = "none" stroke = "black" /> 
<path d = "M 77.60000000000002 364.6 C 77.60000000000002 374.6, 87.60000000000002 374.6, 87.60000000000002 364.6" stroke = "black" fill = "transparent"/>
<polyline points = "87.60000000000002 364.6 92.60000000000002,364.6" fill = "none" stroke = "black" /> 
<polyline points = "65.4,374.6 72.60000000000002,374.6" fill = "none" stroke = "black" /> 
<polyline points = "72.60000000000002,374.6 77.60000000000002,374.6" fill = "none" stroke = "black" /> 
<path d = "M 77.60000000000002 374.6 C 77.60000000000002 384.6, 87.60000000000002 384.6, 87.60000000000002 374.6" stroke = "black" fill = "transparent"/>
<polyline points = "87.60000000000002 374.6 92.60000000000002,374.6" fill = "none" stroke = "black" /> 
<polyline points = "65.4,384.6 72.60000000000002,384.6" fill = "none" stroke = "black" /> 
<polyline points = "72.60000000000002,384.6 77.60000000000002,384.6" fill = "none" stroke = "black" /> 
<path d = "M 77.60000000000002 384.6 C 77.60000000000002 394.6, 87.60000000000002 394.6, 87.60000000000002 384.6" stroke = "black" fill = "transparent"/>
<polyline points = "87.60000000000002 384.6 92.60000000000002,384.6" fill = "none" stroke = "black" /> 
<polyline points = "65.4,394.6 72.60000000000002,394.6" fill = "none" stroke = "black" /> 
<polyline points = "72.60000000000002,394.6 77.60000000000002,394.6" fill = "none" stroke = "black" /> 
<path d = "M 77.60000000000002 394.6 C 77.60000000000002 404.6, 87.60000000000002 404.6, 87.60000000000002 394.6" stroke = "black" fill = "transparent"/>
<polyline points = "87.60000000000002 394.6 92.60000000000002,394.6" fill = "none" stroke = "black" /> 
<polyline points = "92.60000000000002,328.6 97.60000000000002,328.6" fill = "none" stroke = "black" /> 
<path d = "M 97.60000000000002 328.6 C 97.60000000000002 338.6, 107.60000000000002 338.6, 107.60000000000002 328.6" stroke = "black" fill = "transparent"/>
<polyline points = "107.60000000000002 328.6 112.60000000000002,328.6" fill = "none" stroke = "black" /> 
<polyline points = "92.60000000000002,338.6 97.60000000000002,338.6" fill = "none" stroke = "black" /> 
<path d = "M 97.60000000000002 338.6 C 97.60000000000002 348.6, 107.60000000000002 348.6, 107.60000000000002 338.6" stroke = "black" fill = "transparent"/>
<polyline points = "107.60000000000002 338.6 112.60000000000002,338.6" fill = "none" stroke = "black" /> 
<polyline points = "92.60000000000002,348.6 97.60000000000002,348.6" fill = "none" stroke = "black" /> 
<path d = "M 97.60000000000002 348.6 C 97.60000000000002 358.6, 107.60000000000002 358.6, 107.60000000000002 348.6" stroke = "black" fill = "transparent"/>
<polyline points = "107.60000000000002 348.6 112.60000000000002,348.6" fill = "none" stroke = "black" /> 
<polyline points = "92.60000000000002,358.6 97.60000000000002,358.6" fill = "none" stroke = "black" /> 
<path d = "M 97.60000000000002 358.6 C 97.60000000000002 368.6, 107.60000000000002 368.6, 107.60000000000002 358.6" stroke = "black" fill = "transparent"/>
<polyline points = "107.60000000000002 358.6 112.60000000000002,358.6" fill = "none" stroke = "black" /> 
<polyline points = "92.60000000000002,368.6 97.60000000000002,368.6" fill = "none" stroke = "black" /> 
<path d = "M 97.60000000000002 368.6 C 97.60000000000002 378.6, 107.60000000000002 378.6, 107.60000000000002 368.6" stroke = "black" fill = "transparent"/>
<polyline points = "107.60000000000002 368.6 112.60000000000002,368.6" fill = "none" stroke = "black" /> 
<polyline points = "92.60000000000002,378.6 97.60000000000002,378.6" fill = "none" stroke = "black" /> 
<path d = "M 97.60000000000002 378.6 C 97.60000000000002 388.6, 107.60000000000002 388.6, 107.60000000000002 378.6" stroke = "black" fill = "transparent"/>
<polyline points = "107.60000000000002 378.6 112.60000000000002,378.6" fill = "none" stroke = "black" /> 
<polyline points = "92.60000000000002,388.6 97.60000000000002,388.6" fill = "none" stroke = "black" /> 
<path d = "M 97.60000000000002 388.6 C 97.60000000000002 398.6, 107.60000000000002 398.6, 107.60000000000002 388.6" stroke = "black" fill = "transparent"/>
<polyline points = "107.60000000000002 388.6 112.60000000000002,388.6" fill = "none" stroke = "black" /> 
<polyline points = "92.60000000000002,398.6 97.60000000000002,398.6" fill = "none" stroke = "black" /> 
<path d = "M 97.60000000000002 398.6 C 97.60000000000002 408.6, 107.60000000000002 408.6, 107.60000000000002 398.6" stroke = "black" fill = "transparent"/>
<polyline points = "107.60000000000002 398.6 112.60000000000002,398.6" fill = "none" stroke = "black" /> 
<polyline points = "112.60000000000002,324.6 117.60000000000002,324.6" fill = "none" stroke = "black" /> 
<path d = "M 117.60000000000002 324.6 C 117.60000000000002 334.6, 127.60000000000002 334.6, 127.60000000000002 324.6" stroke = "black" fill = "transparent"/>
<polyline points = "127.60000000000002 324.6 132.60000000000002,324.6" fill = "none" stroke = "black" /> 
<polyline points = "112.60000000000002,334.6 117.60000000000002,334.6" fill = "none" stroke = "black" /> 
<path d = "M 117.60000000000002 334.6 C 117.60000000000002 344.6, 127.60000000000002 344.6, 127.60000000000002 334.6" stroke = "black" fill = "transparent"/>
<polyline points = "127.60000000000002 334.6 132.60000000000002,334.6" fill = "none" stroke = "black" /> 
<polyline points = "112.60000000000002,344.6 117.60000000000002,344.6" fill = "none" stroke = "black" /> 
<path d = "M 117.60000000000002 344.6 C 117.60000000000002 354.6, 127.60000000000002 354.6, 127.60000000000002 344.6" stroke = "black" fill = "transparent"/>
<polyline points = "127.60000000000002 344.6 132.60000000000002,344.6" fill = "none" stroke = "black" /> 
<polyline points = "112.60000000000002,354.6 117.60000000000002,354.6" fill = "none" stroke = "black" /> 
<path d = "M 117.60000000000002 354.6 C 117.60000000000002 364.6, 127.60000000000002 364.6, 127.60000000000002 354.6" stroke = "black" fill = "transparent"/>
<polyline points = "127.60000000000002 354.6 132.60000000000002,354.6" fill = "none" stroke = "black" /> 
<polyline points = "112.60000000000002,364.6 117.60000000000002,364.6" fill = "none" stroke = "black" /> 
<path d = "M 117.60000000000002 364.6 C 117.60000000000002 374.6, 127.60000000000002 374.6, 127.60000000000002 364.6" stroke = "black" fill = "transparent"/>
<polyline points = "127.60000000000002 364.6 132.60000000000002,364.6" fill = "none" stroke = "black" /> 
<polyline points = "112.60000000000002,374.6 117.60000000000002,374.6" fill = "none" stroke = "black" /> 
<path d = "M 117.60000000000002 374.6 C 117.60000000000002 384.6, 127.60000000000002 384.6, 127.60000000000002 374.6" stroke = "black" fill = "transparent"/>
<polyline points = "127.60000000000002 374.6 132.60000000000002,374.6" fill = "none" stroke = "black" /> 
<polyline points = "112.60000000000002,384.6 117.60000000000002,384.6" fill = "none" stroke = "black" /> 
<path d = "M 117.60000000000002 384.6 C 117.60000000000002 394.6, 127.60000000000002 394.6, 127.60000000000002 384.6" stroke = "black" fill = "transparent"/>
<polyline points = "127.60000000000002 384.6 132.60000000000002,384.6" fill = "none" stroke = "black" /> 
<polyline points = "112.60000000000002,394.6 117.60000000000002,394.6" fill = "none" stroke = "black" /> 
<path d = "M 117.60000000000002 394.6 C 117.60000000000002 404.6, 127.60000000000002 404.6, 127.60000000000002 394.6" stroke = "black" fill = "transparent"/>
<polyline points = "127.60000000000002 394.6 132.60000000000002,394.6" fill = "none" stroke = "black" /> 
<polyline points = "132.60000000000002,328.6 137.60000000000002,328.6" fill = "none" stroke = "black" /> 
<path d = "M 137.60000000000002 328.6 C 137.60000000000002 338.6, 147.60000000000002 338.6, 147.60000000000002 328.6" stroke = "black" fill = "transparent"/>
<polyline points = "147.60000000000002 328.6 152.60000000000002,328.6" fill = "none" stroke = "black" /> 
<polyline points = "132.60000000000002,338.6 137.60000000000002,338.6" fill = "none" stroke = "black" /> 
<path d = "M 137.60000000000002 338.6 C 137.60000000000002 348.6, 147.60000000000002 348.6, 147.60000000000002 338.6" stroke = "black" fill = "transparent"/>
<polyline points = "147.60000000000002 338.6 152.60000000000002,338.6" fill = "none" stroke = "black" /> 
<polyline points = "132.60000000000002,348.6 137.60000000000002,348.6" fill = "none" stroke = "black" /> 
<path d = "M 137.60000000000002 348.6 C 137.60000000000002 358.6, 147.60000000000002 358.6, 147.60000000000002 348.6" stroke = "black" fill = "transparent"/>
<polyline points = "147.60000000000002 348.6 152.60000000000002,348.6" fill = "none" stroke = "black" /> 
<polyline points = "132.60000000000002,358.6 137.60000000000002,358.6" fill = "none" stroke = "black" /> 
<path d = "M 137.60000000000002 358.6 C 137.60000000000002 368.6, 147.60000000000002 368.6, 147.60000000000002 358.6" stroke = "black" fill = "transparent"/>
<polyline points = "147.60000000000002 358.6 152.60000000000002,358.6" fill = "none" stroke = "black" /> 
<polyline points = "132.60000000000002,368.6 137.60000000000002,368.6" fill = "none" stroke = "black" /> 
<path d = "M 137.60000000000002 368.6 C 137.60000000000002 378.6, 147.60000000000002 378.6, 147.60000000000002 368.6" stroke = "black" fill = "transparent"/>
<polyline points = "147.60000000000002 368.6 152.60000000000002,368.6" fill = "none" stroke = "black" /> 
<polyline points = "132.60000000000002,378.6 137.60000000000002,378.6" fill = "none" stroke = "black" /> 
<path d = "M 137.60000000000002 378.6 C 137.60000000000002 388.6, 147.60000000000002 388.6, 147.60000000000002 378.6" stroke = "black" fill = "transparent"/>
<polyline points = "147.60000000000002 378.6 152.60000000000002,378.6" fill = "none" stroke = "black" /> 
<polyline points = "132.60000000000002,388.6 137.60000000000002,388.6" fill = "none" stroke = "black" /> 
<path d = "M 137.60000000000002 388.6 C 137.60000000000002 398.6, 147.60000000000002 398.6, 147.60000000000002 388.6" stroke = "black" fill = "transparent"/>
<polyline points = "147.60000000000002 388.6 152.60000000000002,388.6" fill = "none" stroke = "black" /> 
<polyline points = "132.60000000000002,398.6 137.60000000000002,398.6" fill = "none" stroke = "black" /> 
<path d = "M 137.60000000000002 398.6 C 137.60000000000002 408.6, 147.60000000000002 408.6, 147.60000000000002 398.6" stroke = "black" fill = "transparent"/>
<polyline points = "147.60000000000002 398.6 152.60000000000002,398.6" fill = "none" stroke = "black" /> 
<polyline points = "152.60000000000002,324.6 157.60000000000002,324.6" fill = "none" stroke = "black" /> 
<path d = "M 157.60000000000002 324.6 C 157.60000000000002 334.6, 167.60000000000002 334.6, 167.60000000000002 324.6" stroke = "black" fill = "transparent"/>
<polyline points = "167.60000000000002 324.6 172.60000000000002,324.6" fill = "none" stroke = "black" /> 
<polyline points = "152.60000000000002,334.6 157.60000000000002,334.6" fill = "none" stroke = "black" /> 
<path d = "M 157.60000000000002 334.6 C 157.60000000000002 344.6, 167.60000000000002 344.6, 167.60000000000002 334.6" stroke = "black" fill = "transparent"/>
<polyline points = "167.60000000000002 334.6 172.60000000000002,334.6" fill = "none" stroke = "black" /> 
<polyline points = "152.60000000000002,344.6 157.60000000000002,344.6" fill = "none" stroke = "black" /> 
<path d = "M 157.60000000000002 344.6 C 157.60000000000002 354.6, 167.60000000000002 354.6, 167.60000000000002 344.6" stroke = "black" fill = "transparent"/>
<polyline points = "167.60000000000002 344.6 172.60000000000002,344.6" fill = "none" stroke = "black" /> 
<polyline points = "152.60000000000002,354.6 157.60000000000002,354.6" fill = "none" stroke = "black" /> 
<path d = "M 157.60000000000002 354.6 C 157.60000000000002 364.6, 167.60000000000002 364.6, 167.60000000000002 354.6" stroke = "black" fill = "transparent"/>
<polyline points = "167.60000000000002 354.6 172.60000000000002,354.6" fill = "none" stroke = "black" /> 
<polyline points = "152.60000000000002,364.6 157.60000000000002,364.6" fill = "none" stroke = "black" /> 
<path d = "M 157.60000000000002 364.6 C 157.60000000000002 374.6, 167.60000000000002 374.6, 167.60000000000002 364.6" stroke = "black" fill = "transparent"/>
<polyline points = "167.60000000000002 364.6 172.60000000000002,364.6" fill = "none" stroke = "black" /> 
<polyline points = "152.60000000000002,374.6 157.60000000000002,374.6" fill = "none" stroke = "black" /> 
<path d = "M 157.60000000000002 374.6 C 157.60000000000002 384.6, 167.60000000000002 384.6, 167.60000000000002 374.6" stroke = "black" fill = "transparent"/>
<polyline points = "167.60000000000002 374.6 172.60000000000002,374.6" fill = "none" stroke = "black" /> 
<polyline points = "152.60000000000002,384.6 157.60000000000002,384.6" fill = "none" stroke = "black" /> 
<path d = "M 157.60000000000002 384.6 C 157.60000000000002 394.6, 167.60000000000002 394.6, 167.60000000000002 384.6" stroke = "black" fill = "transparent"/>
<polyline points = "167.60000000000002 384.6 172.60000000000002,384.6" fill = "none" stroke = "black" /> 
<polyline points = "152.60000000000002,394.6 157.60000000000002,394.6" fill = "none" stroke = "black" /> 
<path d = "M 157.60000000000002 394.6 C 157.60000000000002 404.6, 167.60000000000002 404.6, 167.60000000000002 394.6" stroke = "black" fill = "transparent"/>
<polyline points = "167.60000000000002 394.6 172.60000000000002,394.6" fill = "none" stroke = "black" /> 
<polyline points = "172.60000000000002,328.6 177.60000000000002,328.6" fill = "none" stroke = "black" /> 
<path d = "M 177.60000000000002 328.6 C 177.60000000000002 338.6, 187.60000000000002 338.6, 187.60000000000002 328.6" stroke = "black" fill = "transparent"/>
<polyline points = "187.60000000000002 328.6 192.60000000000002,328.6" fill = "none" stroke = "black" /> 
<polyline points = "192.60000000000002 328.6 199.80000000000004,328.6" fill = "none" stroke = "black" /> 
<polyline points = "172.60000000000002,338.6 177.60000000000002,338.6" fill = "none" stroke = "black" /> 
<path d = "M 177.60000000000002 338.6 C 177.60000000000002 348.6, 187.60000000000002 348.6, 187.60000000000002 338.6" stroke = "black" fill = "transparent"/>
<polyline points = "187.60000000000002 338.6 192.60000000000002,338.6" fill = "none" stroke = "black" /> 
<polyline points = "192.60000000000002 338.6 199.80000000000004,338.6" fill = "none" stroke = "black" /> 
<polyline points = "172.60000000000002,348.6 177.60000000000002,348.6" fill = "none" stroke = "black" /> 
<path d = "M 177.60000000000002 348.6 C 177.60000000000002 358.6, 187.60000000000002 358.6, 187.60000000000002 348.6" stroke = "black" fill = "transparent"/>
<polyline points = "187.60000000000002 348.6 192.60000000000002,348.6" fill = "none" stroke = "black" /> 
<polyline points = "192.60000000000002 348.6 199.80000000000004,348.6" fill = "none" stroke = "black" /> 
<polyline points = "172.60000000000002,358.6 177.60000000000002,358.6" fill = "none" stroke = "black" /> 
<path d = "M 177.60000000000002 358.6 C 177.60000000000002 368.6, 187.60000000000002 368.6, 187.60000000000002 358.6" stroke = "black" fill = "transparent"/>
<polyline points = "187.60000000000002 358.6 192.60000000000002,358.6" fill = "none" stroke = "black" /> 
<polyline points = "192.60000000000002 358.6 199.80000000000004,358.6" fill = "none" stroke = "black" /> 
<polyline points = "172.60000000000002,368.6 177.60000000000002,368.6" fill = "none" stroke = "black" /> 
<path d = "M 177.60000000000002 368.6 C 177.60000000000002 378.6, 187.60000000000002 378.6, 187.60000000000002 368.6" stroke = "black" fill = "transparent"/>
<polyline points = "187.60000000000002 368.6 192.60000000000002,368.6" fill = "none" stroke = "black" /> 
<polyline points = "192.60000000000002 368.6 199.80000000000004,368.6" fill = "none" stroke = "black" /> 
<polyline points = "172.60000000000002,378.6 177.60000000000002,378.6" fill = "none" stroke = "black" /> 
<path d = "M 177.60000000000002 378.6 C 177.60000000000002 388.6, 187.60000000000002 388.6, 187.60000000000002 378.6" stroke = "black" fill = "transparent"/>
<polyline points = "187.60000000000002 378.6 192.60000000000002,378.6" fill = "none" stroke = "black" /> 
<polyline points = "192.60000000000002 378.6 199.80000000000004,378.6" fill = "none" stroke = "black" /> 
<polyline points = "172.60000000000002,388.6 177.60000000000002,388.6" fill = "none" stroke = "black" /> 
<path d = "M 177.60000000000002 388.6 C 177.60000000000002 398.6, 187.60000000000002 398.6, 187.60000000000002 388.6" stroke = "black" fill = "transparent"/>
<polyline points = "187.60000000000002 388.6 192.60000000000002,388.6" fill = "none" stroke = "black" /> 
<polyline points = "192.60000000000002 388.6 199.80000000000004,388.6" fill = "none" stroke = "black" /> 
<polyline points = "172.60000000000002,398.6 177.60000000000002,398.6" fill = "none" stroke = "black" /> 
<path d = "M 177.60000000000002 398.6 C 177.60000000000002 408.6, 187.60000000000002 408.6, 187.60000000000002 398.6" stroke = "black" fill = "transparent"/>
<polyline points = "187.60000000000002 398.6 192.60000000000002,398.6" fill = "none" stroke = "black" /> 
<polyline points = "192.60000000000002 398.6 199.80000000000004,398.6" fill = "none" stroke = "black" /> 
<polyline points = "470.6000000000001,171.0 470.98627855618264,171.64287547552658" fill = "none" stroke = "red" /> 
<polyline points = "470.6000000000001,171.0 470.98627855618264,171.64287547552658" fill = "none" stroke = "red" /> 
<polyline points = "470.98627855618264,171.64287547552658 469.89579265582125,172.3244213892884" fill = "none" stroke = "red" /> 
<polyline points = "469.89579265582125,172.3244213892884 468.3530835468023,171.11775590154662" fill = "none" stroke = "red" /> 
<polyline points = "468.3530835468023,171.11775590154662 468.9224212895878,168.51288728233487" fill = "none" stroke = "red" /> 
<polyline points = "468.9224212895878,168.51288728233487 472.1848184815277,167.60134579861256" fill = "none" stroke = "red" /> 
<polyline points = "472.1848184815277,167.60134579861256 475.0753485291573,170.52962191529556" fill = "none" stroke = "red" /> 
<polyline points = "475.0753485291573,170.52962191529556 473.75952887154835,175.1928364277483" fill = "none" stroke = "red" /> 
<polyline points = "473.75952887154835,175.1928364277483 468.3523604395046,176.56310312740072" fill = "none" stroke = "red" /> 
<polyline points = "468.3523604395046,176.56310312740072 463.9331037009829,172.05593263902156" fill = "none" stroke = "red" /> 
<polyline points = "463.9331037009829,172.05593263902156 465.77909292735103,165.25466667660766" fill = "none" stroke = "red" /> 
<polyline points = "465.77909292735103,165.25466667660766 473.28593727427165,163.19947175130562" fill = "none" stroke = "red" /> 
<polyline points = "473.28593727427165,163.19947175130562 479.4033284066043,169.12879478264017" fill = "none" stroke = "red" /> 
<polyline points = "479.4033284066043,169.12879478264017 477.2494840106094,178.13069859078692" fill = "none" stroke = "red" /> 
<polyline points = "477.2494840106094,178.13069859078692 467.7058077639216,181.09324780735236" fill = "none" stroke = "red" /> 
<polyline points = "467.7058077639216,181.09324780735236 459.73333445424805,173.91171425740336" fill = "none" stroke = "red" /> 
<polyline points = "459.73333445424805,173.91171425740336 461.9679223959362,162.66409955449205" fill = "none" stroke = "red" /> 
<polyline points = "461.9679223959362,162.66409955449205 473.46812594288434,158.57678167398825" fill = "none" stroke = "red" /> 
<polyline points = "473.46812594288434,158.57678167398825 483.43926296998467,166.82827057593818" fill = "none" stroke = "red" /> 
<polyline points = "483.43926296998467,166.82827057593818 481.3546115181746,180.34884116311474" fill = "none" stroke = "red" /> 
<polyline points = "481.3546115181746,180.34884116311474 467.9952773349961,185.7721162951831" fill = "none" stroke = "red" /> 
<polyline points = "467.9952773349961,185.7721162951831 455.89610828266916,176.64429520533847" fill = "none" stroke = "red" /> 
<polyline points = "455.89610828266916,176.64429520533847 457.5978225654892,160.84158565712664" fill = "none" stroke = "red" /> 
<polyline points = "457.5978225654892,160.84158565712664 472.7022461737389,153.8785788841872" fill = "none" stroke = "red" /> 
<polyline points = "472.7022461737389,153.8785788841872 487.0438182375669,163.6787404246356" fill = "none" stroke = "red" /> 
<polyline points = "487.0438182375669,163.6787404246356 485.9591008304187,181.75455818158207" fill = "none" stroke = "red" /> 
<polyline points = "485.9591008304187,181.75455818158207 469.23974876198963,190.45249898006657" fill = "none" stroke = "red" /> 
<polyline points = "469.23974876198963,190.45249898006657 452.5571178851857,180.19330761972589" fill = "none" stroke = "red" /> 
<polyline points = "452.5571178851857,180.19330761972589 452.79098998071515,159.8716954511027" fill = "none" stroke = "red" /> 
<polyline points = "452.79098998071515,159.8716954511027 470.97958984001093,149.2533126303485" fill = "none" stroke = "red" /> 
<polyline points = "470.97958984001093,149.2533126303485 490.0855715851499,159.75" fill = "none" stroke = "red" /> 
<polyline points = "490.0855715851499,159.75 490.93490819099105,182.27182367072731" fill = "none" stroke = "red" /> 
<polyline points = "490.93490819099105,182.27182367072731 471.4375879208602,194.9853798484583" fill = "none" stroke = "red" /> 
<polyline points = "471.4375879208602,194.9853798484583 449.84290344335085,184.47981611662195" fill = "none" stroke = "red" /> 
<polyline points = "449.84290344335085,184.47981611662195 447.68075181937127,159.82153575687863" fill = "none" stroke = "red" /> 
<polyline points = "447.68075181937127,159.82153575687863 468.31216175287403,144.84988917509168" fill = "none" stroke = "red" /> 
<polyline points = "468.31216175287403,144.84988917509168 492.44345884812356,155.1297981881031" fill = "none" stroke = "red" /> 
<polyline points = "492.44345884812356,155.1297981881031 496.14400968330534,181.8427888155773" fill = "none" stroke = "red" /> 
<polyline points = "496.14400968330534,181.8427888155773 474.5664333773619,199.22263995913477" fill = "none" stroke = "red" /> 
<polyline points = "474.5664333773619,199.22263995913477 447.8684806273837,189.4076214382078" fill = "none" stroke = "red" /> 
<polyline points = "447.8684806273837,189.4076214382078 442.40922137642286,160.7393957002299" fill = "none" stroke = "red" /> 
<polyline points = "442.40922137642286,160.7393957002299 464.73262339217126,140.81496410898436" fill = "none" stroke = "red" /> 
<polyline points = "464.73262339217126,140.81496410898436 494.00906200253803,149.922385899696" fill = "none" stroke = "red" /> 
<polyline points = "494.00906200253803,149.922385899696 501.440828379808,180.4289874773082" fill = "none" stroke = "red" /> 
<polyline points = "501.440828379808,180.4289874773082 478.5834225547891,203.0197589671079" fill = "none" stroke = "red" /> 
<polyline points = "478.5834225547891,203.0197589671079 446.73514613495416,194.86485386504603" fill = "none" stroke = "red" /> 
<polyline points = "446.73514613495416,194.86485386504603 437.1247974434782,162.65369460181145" fill = "none" stroke = "red" /> 
<polyline points = "437.1247974434782,162.65369460181145 460.2938974085235,137.29025735230303" fill = "none" stroke = "red" /> 
<polyline points = "460.2938974085235,137.29025735230303 494.68870182891897,144.24678628281382" fill = "none" stroke = "red" /> 
<polyline points = "494.68870182891897,144.24678628281382 506.6747989917018,178.0122305800879" fill = "none" stroke = "red" /> 
<polyline points = "506.6747989917018,178.0122305800879 483.4257553747129,206.23847327947146" fill = "none" stroke = "red" /> 
<polyline points = "483.4257553747129,206.23847327947146 446.5284950423439,200.72583302572923" fill = "none" stroke = "red" /> 
<polyline points = "446.5284950423439,200.72583302572923 431.97954531907885,165.57224906255746" fill = "none" stroke = "red" /> 
<polyline points = "431.97954531907885,165.57224906255746 455.0684376425513,134.40993207526554" fill = "none" stroke = "red" /> 
<polyline points = "455.0684376425513,134.40993207526554 494.405302717845,138.23481172781445" fill = "none" stroke = "red" /> 
<polyline points = "494.405302717845,138.23481172781445 511.6930312962846,174.59517438834104" fill = "none" stroke = "red" /> 
<polyline points = "511.6930312962846,174.59517438834104 489.01158816514135,208.74934994456498" fill = "none" stroke = "red" /> 
<polyline points = "489.01158816514135,208.74934994456498 447.31668125310784,206.853166779667" fill = "none" stroke = "red" /> 
<polyline points = "447.31668125310784,206.853166779667 427.1264990246694,169.48187189344156" fill = "none" stroke = "red" /> 
<polyline points = "427.1264990246694,169.48187189344156 449.14717430409974,132.2980779590817" fill = "none" stroke = "red" /> 
<polyline points = "449.14717430409974,132.2980779590817 493.1,132.02885682970023" fill = "none" stroke = "red" /> 
<polyline points = "493.1,132.02885682970023 516.343032053405,170.20155240549406" fill = "none" stroke = "red" /> 
<polyline points = "516.343032053405,170.20155240549406 495.24124578684416,210.43423647127378" fill = "none" stroke = "red" /> 
<polyline points = "495.24124578684416,210.43423647127378 449.1489488873064,213.10005826790035" fill = "none" stroke = "red" /> 
<polyline points = "449.1489488873064,213.10005826790035 422.7169255875285,174.34831073971844" fill = "none" stroke = "red" /> 
<polyline points = "422.7169255875285,174.34831073971844 442.63814872788635,131.06633784091179" fill = "none" stroke = "red" /> 
<polyline points = "442.63814872788635,131.06633784091179 490.7334638322521,125.77949984669121" fill = "none" stroke = "red" /> 
<text x = "132.60000000000002" y = "434.08000000000004" dominant-baseline= "central" text-anchor= "middle" font-size = "30px" fill = "red">top </text> 
<text x = "132.60000000000002" y = "228.60000000000002" dominant-baseline= "central" text-anchor= "middle" font-size = "30px" fill = "red">front </text> 
</svg>