<?xml version = "1.0" encoding = "UTF-8" ?> 
<svg xmlns="http://www.w3.org/2000/svg" version = "1.1"> 
<line x1="75" y1="40" x2="171" y2 ="40" style="stroke:red;stroke-horizontalDim:4"/>
<text x = "181" y = "45" font-size = "20px" fill = "red"> = 1 inch </text> 
<polyline points="75,75 651.0,75 " style="fill:none;stroke:black;stroke-horizontalDim:2"/>
<polyline points="651.0,75 675.0,75 675.0,123.0 651.0,123.0 651.0,171.0 651.0,171 675.0,171 675.0,219.0 651.0,219.0 651.0,267.0 651.0,267 675.0,267 675.0,315.0 651.0,315.0 651.0,363.0 651.0,363 675.0,363 675.0,411.0 651.0,411.0 651.0,459.0 " style="fill:none;stroke:black;stroke-horizontalDim:2"/>
<polyline points="651.0,459.0 651.0,483.0 603.0,483.0 603.0,459.0 555.0,459.0 555.0,459.0 555.0,483.0 507.0,483.0 507.0,459.0 459.0,459.0 459.0,459.0 459.0,483.0 411.0,483.0 411.0,459.0 363.0,459.0 363.0,459.0 363.0,483.0 315.0,483.0 315.0,459.0 267.0,459.0 267.0,459.0 267.0,483.0 219.0,483.0 219.0,459.0 171.0,459.0 171.0,459.0 171.0,483.0 123.0,483.0 123.0,459.0 75.0,459.0 " style="fill:none;stroke:black;stroke-horizontalDim:2"/>
<polyline points="75.0,459.0 51.0,459.0 51.0,411.0 75.0,411.0 75.0,363.0 75.0,363.0 51.0,363.0 51.0,315.0 75.0,315.0 75.0,267.0 75.0,267.0 51.0,267.0 51.0,219.0 75.0,219.0 75.0,171.0 75.0,171.0 51.0,171.0 51.0,123.0 75.0,123.0 75.0,75.0 " style="fill:none;stroke:black;stroke-horizontalDim:2"/>
<polyline points="724.0,75 1300.0,75 " style="fill:none;stroke:black;stroke-horizontalDim:2"/>
<polyline points="1300.0,75 1324.0,75 1324.0,123.0 1300.0,123.0 1300.0,171.0 1300.0,171 1324.0,171 1324.0,219.0 1300.0,219.0 1300.0,267.0 1300.0,267 1324.0,267 1324.0,315.0 1300.0,315.0 1300.0,363.0 1300.0,363 1324.0,363 1324.0,411.0 1300.0,411.0 1300.0,459.0 " style="fill:none;stroke:black;stroke-horizontalDim:2"/>
<polyline points="1300.0,459.0 1300.0,483.0 1252.0,483.0 1252.0,459.0 1204.0,459.0 1204.0,459.0 1204.0,483.0 1156.0,483.0 1156.0,459.0 1108.0,459.0 1108.0,459.0 1108.0,483.0 1060.0,483.0 1060.0,459.0 1012.0,459.0 1012.0,459.0 1012.0,483.0 964.0,483.0 964.0,459.0 916.0,459.0 916.0,459.0 916.0,483.0 868.0,483.0 868.0,459.0 820.0,459.0 820.0,459.0 820.0,483.0 772.0,483.0 772.0,459.0 724.0,459.0 " style="fill:none;stroke:black;stroke-horizontalDim:2"/>
<polyline points="724.0,459.0 700.0,459.0 700.0,411.0 724.0,411.0 724.0,363.0 724.0,363.0 700.0,363.0 700.0,315.0 724.0,315.0 724.0,267.0 724.0,267.0 700.0,267.0 700.0,219.0 724.0,219.0 724.0,171.0 724.0,171.0 700.0,171.0 700.0,123.0 724.0,123.0 724.0,75.0 " style="fill:none;stroke:black;stroke-horizontalDim:2"/>
<polyline points="1373.0,75 1661.0,75 " style="fill:none;stroke:black;stroke-horizontalDim:2"/>
<polyline points="1661.0,75 1685.0,75 1685.0,123.0 1661.0,123.0 1661.0,171.0 1661.0,171 1685.0,171 1685.0,219.0 1661.0,219.0 1661.0,267.0 1661.0,267 1685.0,267 1685.0,315.0 1661.0,315.0 1661.0,363.0 1661.0,363 1685.0,363 1685.0,411.0 1661.0,411.0 1661.0,459.0 " style="fill:none;stroke:black;stroke-horizontalDim:2"/>
<polyline points="1661.0,459.0 1661.0,483.0 1613.0,483.0 1613.0,459.0 1565.0,459.0 1565.0,459.0 1565.0,483.0 1517.0,483.0 1517.0,459.0 1469.0,459.0 1469.0,459.0 1469.0,483.0 1421.0,483.0 1421.0,459.0 1373.0,459.0 " style="fill:none;stroke:black;stroke-horizontalDim:2"/>
<polyline points="1373.0,459.0 1349.0,459.0 1349.0,411.0 1373.0,411.0 1373.0,363.0 1373.0,363.0 1349.0,363.0 1349.0,315.0 1373.0,315.0 1373.0,267.0 1373.0,267.0 1349.0,267.0 1349.0,219.0 1373.0,219.0 1373.0,171.0 1373.0,171.0 1349.0,171.0 1349.0,123.0 1373.0,123.0 1373.0,75.0 " style="fill:none;stroke:black;stroke-horizontalDim:2"/>
<polyline points="1734.0,75 2022.0,75 " style="fill:none;stroke:black;stroke-horizontalDim:2"/>
<polyline points="2022.0,75 2046.0,75 2046.0,123.0 2022.0,123.0 2022.0,171.0 2022.0,171 2046.0,171 2046.0,219.0 2022.0,219.0 2022.0,267.0 2022.0,267 2046.0,267 2046.0,315.0 2022.0,315.0 2022.0,363.0 2022.0,363 2046.0,363 2046.0,411.0 2022.0,411.0 2022.0,459.0 " style="fill:none;stroke:black;stroke-horizontalDim:2"/>
<polyline points="2022.0,459.0 2022.0,483.0 1974.0,483.0 1974.0,459.0 1926.0,459.0 1926.0,459.0 1926.0,483.0 1878.0,483.0 1878.0,459.0 1830.0,459.0 1830.0,459.0 1830.0,483.0 1782.0,483.0 1782.0,459.0 1734.0,459.0 " style="fill:none;stroke:black;stroke-horizontalDim:2"/>
<polyline points="1734.0,459.0 1710.0,459.0 1710.0,411.0 1734.0,411.0 1734.0,363.0 1734.0,363.0 1710.0,363.0 1710.0,315.0 1734.0,315.0 1734.0,267.0 1734.0,267.0 1710.0,267.0 1710.0,219.0 1734.0,219.0 1734.0,171.0 1734.0,171.0 1710.0,171.0 1710.0,123.0 1734.0,123.0 1734.0,75.0 " style="fill:none;stroke:black;stroke-horizontalDim:2"/>
<polyline points="724.0,532.0 724.0,508.0 772.0,508.0 772.0,532.0 820.0,532.0 820.0,532.0 820.0,508.0 868.0,508.0 868.0,532.0 916.0,532.0 916.0,532.0 916.0,508.0 964.0,508.0 964.0,532.0 1012.0,532.0 1012.0,532.0 1012.0,508.0 1060.0,508.0 1060.0,532.0 1108.0,532.0 1108.0,532.0 1108.0,508.0 1156.0,508.0 1156.0,532.0 1204.0,532.0 1204.0,532.0 1204.0,508.0 1252.0,508.0 1252.0,532.0 1300.0,532.0 " style="fill:none;stroke:black;stroke-horizontalDim:2"/>
<polyline points="1300.0,532.0 1324.0,532.0 1324.0,580.0 1300.0,580.0 1300.0,628.0 1300.0,628.0 1324.0,628.0 1324.0,676.0 1300.0,676.0 1300.0,724.0 1300.0,724.0 1324.0,724.0 1324.0,772.0 1300.0,772.0 1300.0,820.0 " style="fill:none;stroke:black;stroke-horizontalDim:2"/>
<polyline points="1300.0,820.0 1300.0,844.0 1252.0,844.0 1252.0,820.0 1204.0,820.0 1204.0,820.0 1204.0,844.0 1156.0,844.0 1156.0,820.0 1108.0,820.0 1108.0,820.0 1108.0,844.0 1060.0,844.0 1060.0,820.0 1012.0,820.0 1012.0,820.0 1012.0,844.0 964.0,844.0 964.0,820.0 916.0,820.0 916.0,820.0 916.0,844.0 868.0,844.0 868.0,820.0 820.0,820.0 820.0,820.0 820.0,844.0 772.0,844.0 772.0,820.0 724.0,820.0 " style="fill:none;stroke:black;stroke-horizontalDim:2"/>
<polyline points="724.0,820.0 700.0,820.0 700.0,772.0 724.0,772.0 724.0,724.0 724.0,724.0 700.0,724.0 700.0,676.0 724.0,676.0 724.0,628.0 724.0,628.0 700.0,628.0 700.0,580.0 724.0,580.0 724.0,532.0 " style="fill:none;stroke:black;stroke-horizontalDim:2"/>
</svg>