<?xml version = "1.0" encoding = "UTF-8" ?> 
<svg xmlns="http://www.w3.org/2000/svg" version = "1.1"> 
<line x1="75" y1="40" x2="171" y2 ="40" style="stroke:red;stroke-horizontalDim:4"/>
<text x = "181" y = "45" font-size = "20px" fill = "red"> = 1 inch </text> 
<polyline points="75,75 651.0,75 " style="fill:none;stroke:black;stroke-horizontalDim:2"/>
<polyline points="651.0,75 663.0,75 663.0,123.0 651.0,123.0 651.0,171.0 651.0,171 663.0,171 663.0,219.0 651.0,219.0 651.0,267.0 651.0,267 663.0,267 663.0,315.0 651.0,315.0 651.0,363.0 651.0,363 663.0,363 663.0,411.0 651.0,411.0 651.0,459.0 651.0,459 663.0,459 663.0,507.0 651.0,507.0 651.0,555.0 " style="fill:none;stroke:black;stroke-horizontalDim:2"/>
<polyline points="651.0,555.0 651.0,567.0 603.0,567.0 603.0,555.0 555.0,555.0 555.0,555.0 555.0,567.0 507.0,567.0 507.0,555.0 459.0,555.0 459.0,555.0 459.0,567.0 411.0,567.0 411.0,555.0 363.0,555.0 363.0,555.0 363.0,567.0 315.0,567.0 315.0,555.0 267.0,555.0 267.0,555.0 267.0,567.0 219.0,567.0 219.0,555.0 171.0,555.0 171.0,555.0 171.0,567.0 123.0,567.0 123.0,555.0 75.0,555.0 " style="fill:none;stroke:black;stroke-horizontalDim:2"/>
<polyline points="75.0,555.0 63.0,555.0 63.0,507.0 75.0,507.0 75.0,459.0 75.0,459.0 63.0,459.0 63.0,411.0 75.0,411.0 75.0,363.0 75.0,363.0 63.0,363.0 63.0,315.0 75.0,315.0 75.0,267.0 75.0,267.0 63.0,267.0 63.0,219.0 75.0,219.0 75.0,171.0 75.0,171.0 63.0,171.0 63.0,123.0 75.0,123.0 75.0,75.0 " style="fill:none;stroke:black;stroke-horizontalDim:2"/>
<polyline points="700.0,75 1276.0,75 " style="fill:none;stroke:black;stroke-horizontalDim:2"/>
<polyline points="1276.0,75 1288.0,75 1288.0,123.0 1276.0,123.0 1276.0,171.0 1276.0,171 1288.0,171 1288.0,219.0 1276.0,219.0 1276.0,267.0 1276.0,267 1288.0,267 1288.0,315.0 1276.0,315.0 1276.0,363.0 1276.0,363 1288.0,363 1288.0,411.0 1276.0,411.0 1276.0,459.0 1276.0,459 1288.0,459 1288.0,507.0 1276.0,507.0 1276.0,555.0 " style="fill:none;stroke:black;stroke-horizontalDim:2"/>
<polyline points="1276.0,555.0 1276.0,567.0 1228.0,567.0 1228.0,555.0 1180.0,555.0 1180.0,555.0 1180.0,567.0 1132.0,567.0 1132.0,555.0 1084.0,555.0 1084.0,555.0 1084.0,567.0 1036.0,567.0 1036.0,555.0 988.0,555.0 988.0,555.0 988.0,567.0 940.0,567.0 940.0,555.0 892.0,555.0 892.0,555.0 892.0,567.0 844.0,567.0 844.0,555.0 796.0,555.0 796.0,555.0 796.0,567.0 748.0,567.0 748.0,555.0 700.0,555.0 " style="fill:none;stroke:black;stroke-horizontalDim:2"/>
<polyline points="700.0,555.0 688.0,555.0 688.0,507.0 700.0,507.0 700.0,459.0 700.0,459.0 688.0,459.0 688.0,411.0 700.0,411.0 700.0,363.0 700.0,363.0 688.0,363.0 688.0,315.0 700.0,315.0 700.0,267.0 700.0,267.0 688.0,267.0 688.0,219.0 700.0,219.0 700.0,171.0 700.0,171.0 688.0,171.0 688.0,123.0 700.0,123.0 700.0,75.0 " style="fill:none;stroke:black;stroke-horizontalDim:2"/>
<polyline points="1325.0,75 1709.0,75 " style="fill:none;stroke:black;stroke-horizontalDim:2"/>
<polyline points="1709.0,75 1721.0,75 1721.0,123.0 1709.0,123.0 1709.0,171.0 1709.0,171 1721.0,171 1721.0,219.0 1709.0,219.0 1709.0,267.0 1709.0,267 1721.0,267 1721.0,315.0 1709.0,315.0 1709.0,363.0 1709.0,363 1721.0,363 1721.0,411.0 1709.0,411.0 1709.0,459.0 1709.0,459 1721.0,459 1721.0,507.0 1709.0,507.0 1709.0,555.0 " style="fill:none;stroke:black;stroke-horizontalDim:2"/>
<polyline points="1709.0,555.0 1709.0,567.0 1661.0,567.0 1661.0,555.0 1613.0,555.0 1613.0,555.0 1613.0,567.0 1565.0,567.0 1565.0,555.0 1517.0,555.0 1517.0,555.0 1517.0,567.0 1469.0,567.0 1469.0,555.0 1421.0,555.0 1421.0,555.0 1421.0,567.0 1373.0,567.0 1373.0,555.0 1325.0,555.0 " style="fill:none;stroke:black;stroke-horizontalDim:2"/>
<polyline points="1325.0,555.0 1313.0,555.0 1313.0,507.0 1325.0,507.0 1325.0,459.0 1325.0,459.0 1313.0,459.0 1313.0,411.0 1325.0,411.0 1325.0,363.0 1325.0,363.0 1313.0,363.0 1313.0,315.0 1325.0,315.0 1325.0,267.0 1325.0,267.0 1313.0,267.0 1313.0,219.0 1325.0,219.0 1325.0,171.0 1325.0,171.0 1313.0,171.0 1313.0,123.0 1325.0,123.0 1325.0,75.0 " style="fill:none;stroke:black;stroke-horizontalDim:2"/>
<rect x = "1415.0" y = "99.0" width = "12.0" height = "48.0" style="fill:none;stroke:blue;strokeDim:3"/>
<rect x = "1415.0" y = "483.0" width = "12.0" height = "48.0" style="fill:none;stroke:blue;strokeDim:3"/>
<polyline points="1758.0,75 2142.0,75 " style="fill:none;stroke:black;stroke-horizontalDim:2"/>
<polyline points="2142.0,75 2154.0,75 2154.0,123.0 2142.0,123.0 2142.0,171.0 2142.0,171 2154.0,171 2154.0,219.0 2142.0,219.0 2142.0,267.0 2142.0,267 2154.0,267 2154.0,315.0 2142.0,315.0 2142.0,363.0 2142.0,363 2154.0,363 2154.0,411.0 2142.0,411.0 2142.0,459.0 2142.0,459 2154.0,459 2154.0,507.0 2142.0,507.0 2142.0,555.0 " style="fill:none;stroke:black;stroke-horizontalDim:2"/>
<polyline points="2142.0,555.0 2142.0,567.0 2094.0,567.0 2094.0,555.0 2046.0,555.0 2046.0,555.0 2046.0,567.0 1998.0,567.0 1998.0,555.0 1950.0,555.0 1950.0,555.0 1950.0,567.0 1902.0,567.0 1902.0,555.0 1854.0,555.0 1854.0,555.0 1854.0,567.0 1806.0,567.0 1806.0,555.0 1758.0,555.0 " style="fill:none;stroke:black;stroke-horizontalDim:2"/>
<polyline points="1758.0,555.0 1746.0,555.0 1746.0,507.0 1758.0,507.0 1758.0,459.0 1758.0,459.0 1746.0,459.0 1746.0,411.0 1758.0,411.0 1758.0,363.0 1758.0,363.0 1746.0,363.0 1746.0,315.0 1758.0,315.0 1758.0,267.0 1758.0,267.0 1746.0,267.0 1746.0,219.0 1758.0,219.0 1758.0,171.0 1758.0,171.0 1746.0,171.0 1746.0,123.0 1758.0,123.0 1758.0,75.0 " style="fill:none;stroke:black;stroke-horizontalDim:2"/>
<rect x = "1848.0" y = "99.0" width = "12.0" height = "48.0" style="fill:none;stroke:blue;strokeDim:3"/>
<rect x = "1848.0" y = "483.0" width = "12.0" height = "48.0" style="fill:none;stroke:blue;strokeDim:3"/>
<polyline points="700.0,604.0 700.0,592.0 748.0,592.0 748.0,604.0 796.0,604.0 796.0,604.0 796.0,592.0 844.0,592.0 844.0,604.0 892.0,604.0 892.0,604.0 892.0,592.0 940.0,592.0 940.0,604.0 988.0,604.0 988.0,604.0 988.0,592.0 1036.0,592.0 1036.0,604.0 1084.0,604.0 1084.0,604.0 1084.0,592.0 1132.0,592.0 1132.0,604.0 1180.0,604.0 1180.0,604.0 1180.0,592.0 1228.0,592.0 1228.0,604.0 1276.0,604.0 " style="fill:none;stroke:black;stroke-horizontalDim:2"/>
<polyline points="1276.0,604.0 1288.0,604.0 1288.0,652.0 1276.0,652.0 1276.0,700.0 1276.0,700.0 1288.0,700.0 1288.0,748.0 1276.0,748.0 1276.0,796.0 1276.0,796.0 1288.0,796.0 1288.0,844.0 1276.0,844.0 1276.0,892.0 1276.0,892.0 1288.0,892.0 1288.0,940.0 1276.0,940.0 1276.0,988.0 " style="fill:none;stroke:black;stroke-horizontalDim:2"/>
<polyline points="1276.0,988.0 1276.0,1000.0 1228.0,1000.0 1228.0,988.0 1180.0,988.0 1180.0,988.0 1180.0,1000.0 1132.0,1000.0 1132.0,988.0 1084.0,988.0 1084.0,988.0 1084.0,1000.0 1036.0,1000.0 1036.0,988.0 988.0,988.0 988.0,988.0 988.0,1000.0 940.0,1000.0 940.0,988.0 892.0,988.0 892.0,988.0 892.0,1000.0 844.0,1000.0 844.0,988.0 796.0,988.0 796.0,988.0 796.0,1000.0 748.0,1000.0 748.0,988.0 700.0,988.0 " style="fill:none;stroke:black;stroke-horizontalDim:2"/>
<polyline points="700.0,988.0 688.0,988.0 688.0,940.0 700.0,940.0 700.0,892.0 700.0,892.0 688.0,892.0 688.0,844.0 700.0,844.0 700.0,796.0 700.0,796.0 688.0,796.0 688.0,748.0 700.0,748.0 700.0,700.0 700.0,700.0 688.0,700.0 688.0,652.0 700.0,652.0 700.0,604.0 " style="fill:none;stroke:black;stroke-horizontalDim:2"/>
<polyline points="1325.0,604.0 1901.0,604.0 " style="fill:none;stroke:black;stroke-horizontalDim:2"/>
<polyline points="1901.0,604.0 1901.0,628.0 1913.0,628.0 1913.0,676.0 1901.0,676.0 1901.0,1012.0 1913.0,1012.0 1901.0,1060.0 1901.0,1060.0 1901.0,1084.0" style="fill:none;stroke:black;stroke-horizontalDim:2"/>
<polyline points="1901.0,1084.0 1325.0,1084.0 " style="fill:none;stroke:black;stroke-horizontalDim:2"/>
<polyline points="1325.0,1084.0 1325.0,604.0 " style="fill:none;stroke:black;stroke-horizontalDim:2"/>
<polyline points = "1517.0,315.0 1518.0300761498202,316.71433460140423" fill = "none" stroke = "red" /> 
<polyline points = "1517.0,315.0 1518.0300761498202,316.71433460140423" fill = "none" stroke = "red" /> 
<polyline points = "1518.0300761498202,316.71433460140423 1515.1221137488565,318.5317903714357" fill = "none" stroke = "red" /> 
<polyline points = "1515.1221137488565,318.5317903714357 1511.0082227914725,315.3140157374577" fill = "none" stroke = "red" /> 
<polyline points = "1511.0082227914725,315.3140157374577 1512.526456772234,308.36769941955964" fill = "none" stroke = "red" /> 
<polyline points = "1512.526456772234,308.36769941955964 1521.226182617407,305.9369221296335" fill = "none" stroke = "red" /> 
<polyline points = "1521.226182617407,305.9369221296335 1528.9342627444194,313.74565844078813" fill = "none" stroke = "red" /> 
<polyline points = "1528.9342627444194,313.74565844078813 1525.4254103241287,326.1808971406621" fill = "none" stroke = "red" /> 
<polyline points = "1525.4254103241287,326.1808971406621 1511.0062945053455,329.8349416730686" fill = "none" stroke = "red" /> 
<polyline points = "1511.0062945053455,329.8349416730686 1499.2216098692875,317.81582037072417" fill = "none" stroke = "red" /> 
<polyline points = "1499.2216098692875,317.81582037072417 1504.1442478062693,299.67911113762045" fill = "none" stroke = "red" /> 
<polyline points = "1504.1442478062693,299.67911113762045 1524.1624993980574,294.198591336815" fill = "none" stroke = "red" /> 
<polyline points = "1524.1624993980574,294.198591336815 1540.4755424176115,310.01011942037377" fill = "none" stroke = "red" /> 
<polyline points = "1540.4755424176115,310.01011942037377 1534.731957361625,334.01519624209845" fill = "none" stroke = "red" /> 
<polyline points = "1534.731957361625,334.01519624209845 1509.282154037124,341.91532748627293" fill = "none" stroke = "red" /> 
<polyline points = "1509.282154037124,341.91532748627293 1488.0222252113279,322.7645713530756" fill = "none" stroke = "red" /> 
<polyline points = "1488.0222252113279,322.7645713530756 1493.9811263891631,292.77093214531214" fill = "none" stroke = "red" /> 
<polyline points = "1493.9811263891631,292.77093214531214 1524.6483358476914,281.871417797302" fill = "none" stroke = "red" /> 
<polyline points = "1524.6483358476914,281.871417797302 1551.2380345866254,303.8753882025018" fill = "none" stroke = "red" /> 
<polyline points = "1551.2380345866254,303.8753882025018 1545.6789640484653,339.9302431016393" fill = "none" stroke = "red" /> 
<polyline points = "1545.6789640484653,339.9302431016393 1510.0540728933227,354.39231012048833" fill = "none" stroke = "red" /> 
<polyline points = "1510.0540728933227,354.39231012048833 1477.7896220871176,330.0514538809026" fill = "none" stroke = "red" /> 
<polyline points = "1477.7896220871176,330.0514538809026 1482.3275268413042,287.91089508567103" fill = "none" stroke = "red" /> 
<polyline points = "1482.3275268413042,287.91089508567103 1522.6059897966368,269.3428770244992" fill = "none" stroke = "red" /> 
<polyline points = "1522.6059897966368,269.3428770244992 1560.850181966845,295.4766411323616" fill = "none" stroke = "red" /> 
<polyline points = "1560.850181966845,295.4766411323616 1557.9576022144497,343.67882181755215" fill = "none" stroke = "red" /> 
<polyline points = "1557.9576022144497,343.67882181755215 1513.3726633653055,366.87333061351086" fill = "none" stroke = "red" /> 
<polyline points = "1513.3726633653055,366.87333061351086 1468.8856476938283,339.5154869859357" fill = "none" stroke = "red" /> 
<polyline points = "1468.8856476938283,339.5154869859357 1469.5093066152401,285.32452120294056" fill = "none" stroke = "red" /> 
<polyline points = "1469.5093066152401,285.32452120294056 1518.0122395733622,257.0088336809293" fill = "none" stroke = "red" /> 
<polyline points = "1518.0122395733622,257.0088336809293 1568.9615242270663,284.99999999999994" fill = "none" stroke = "red" /> 
<polyline points = "1568.9615242270663,284.99999999999994 1571.2264218426426,345.0581964552729" fill = "none" stroke = "red" /> 
<polyline points = "1571.2264218426426,345.0581964552729 1519.2335677889603,378.96101292922214" fill = "none" stroke = "red" /> 
<polyline points = "1519.2335677889603,378.96101292922214 1461.647742515602,350.94617631099186" fill = "none" stroke = "red" /> 
<polyline points = "1461.647742515602,350.94617631099186 1455.8820048516566,285.19076201834304" fill = "none" stroke = "red" /> 
<polyline points = "1455.8820048516566,285.19076201834304 1510.8990980076637,245.26637113357782" fill = "none" stroke = "red" /> 
<polyline points = "1510.8990980076637,245.26637113357782 1575.249223594996,272.67946183494166" fill = "none" stroke = "red" /> 
<polyline points = "1575.249223594996,272.67946183494166 1585.1173591554807,343.91410350820615" fill = "none" stroke = "red" /> 
<polyline points = "1585.1173591554807,343.91410350820615 1527.5771556729649,390.26037322435934" fill = "none" stroke = "red" /> 
<polyline points = "1527.5771556729649,390.26037322435934 1456.3826150063564,364.08699050188744" fill = "none" stroke = "red" /> 
<polyline points = "1456.3826150063564,364.08699050188744 1441.8245903371273,287.6383885339464" fill = "none" stroke = "red" /> 
<polyline points = "1441.8245903371273,287.6383885339464 1501.353662379123,234.5065709572916" fill = "none" stroke = "red" /> 
<polyline points = "1501.353662379123,234.5065709572916 1579.4241653401011,258.793029065856" fill = "none" stroke = "red" /> 
<polyline points = "1579.4241653401011,258.793029065856 1599.2422090128211,340.1439666061552" fill = "none" stroke = "red" /> 
<polyline points = "1599.2422090128211,340.1439666061552 1538.2891268127707,400.3860239122877" fill = "none" stroke = "red" /> 
<polyline points = "1538.2891268127707,400.3860239122877 1453.360389693211,378.63961030678945" fill = "none" stroke = "red" /> 
<polyline points = "1453.360389693211,378.63961030678945 1427.7327931826082,292.7431856048305" fill = "none" stroke = "red" /> 
<polyline points = "1427.7327931826082,292.7431856048305 1489.5170597560625,225.10735293947474" fill = "none" stroke = "red" /> 
<polyline points = "1489.5170597560625,225.10735293947474 1581.2365382104504,243.65809675417017" fill = "none" stroke = "red" /> 
<polyline points = "1581.2365382104504,243.65809675417017 1613.1994639778711,333.6992815469011" fill = "none" stroke = "red" /> 
<polyline points = "1613.1994639778711,333.6992815469011 1551.2020143325676,408.9692620785906" fill = "none" stroke = "red" /> 
<polyline points = "1551.2020143325676,408.9692620785906 1452.8093201129168,394.26888806861126" fill = "none" stroke = "red" /> 
<polyline points = "1452.8093201129168,394.26888806861126 1414.0121208508767,300.5259975001532" fill = "none" stroke = "red" /> 
<polyline points = "1414.0121208508767,300.5259975001532 1475.5825003801367,217.4264855340415" fill = "none" stroke = "red" /> 
<polyline points = "1475.5825003801367,217.4264855340415 1580.4808072475864,227.6261646075052" fill = "none" stroke = "red" /> 
<polyline points = "1580.4808072475864,227.6261646075052 1626.581416790092,324.58713170224274" fill = "none" stroke = "red" /> 
<polyline points = "1626.581416790092,324.58713170224274 1566.0975684403768,415.6649331855067" fill = "none" stroke = "red" /> 
<polyline points = "1566.0975684403768,415.6649331855067 1454.9111500082872,410.6084447457786" fill = "none" stroke = "red" /> 
<polyline points = "1454.9111500082872,410.6084447457786 1401.070664065785,310.9516583825108" fill = "none" stroke = "red" /> 
<polyline points = "1401.070664065785,310.9516583825108 1459.7924648109324,211.79487455755117" fill = "none" stroke = "red" /> 
<polyline points = "1459.7924648109324,211.79487455755117 1576.9999999999998,211.0769515458673" fill = "none" stroke = "red" /> 
<polyline points = "1576.9999999999998,211.0769515458673 1638.9814188090797,312.8708064146508" fill = "none" stroke = "red" /> 
<polyline points = "1638.9814188090797,312.8708064146508 1582.7099887649176,420.1579639233967" fill = "none" stroke = "red" /> 
<polyline points = "1582.7099887649176,420.1579639233967 1459.797197032817,427.26682204773425" fill = "none" stroke = "red" /> 
<polyline points = "1459.797197032817,427.26682204773425 1389.3118015667426,323.92882863924916" fill = "none" stroke = "red" /> 
<polyline points = "1389.3118015667426,323.92882863924916 1442.4350632743635,208.51023424243147" fill = "none" stroke = "red" /> 
<polyline points = "1442.4350632743635,208.51023424243147 1570.6892368860053,194.41199959117657" fill = "none" stroke = "red" /> 
<polyline points = "1570.6892368860053,194.41199959117657 1650.0011843199372,298.66950798371045" fill = "none" stroke = "red" /> 
<polyline points = "1650.0011843199372,298.66950798371045 1600.7299606442905,422.1694624905134" fill = "none" stroke = "red" /> 
<polyline points = "1600.7299606442905,422.1694624905134 1467.5452229627476,443.8340988566134" fill = "none" stroke = "red" /> 
<polyline points = "1467.5452229627476,443.8340988566134 1379.126914578291,339.3107448733706" fill = "none" stroke = "red" /> 
<polyline points = "1379.126914578291,339.3107448733706 1423.839617883348,207.83123960836627" fill = "none" stroke = "red" /> 
<polyline points = "1423.839617883348,207.83123960836627 1561.498447189991,178.04786165349745" fill = "none" stroke = "red" /> 
<polyline points = "1561.498447189991,178.04786165349745 1659.2580294586442,282.1571460657948" fill = "none" stroke = "red" /> 
<polyline points = "1659.2580294586442,282.1571460657948 1619.809438827932,421.46229045012" fill = "none" stroke = "red" /> 
<polyline points = "1619.809438827932,421.46229045012 1478.1771432346218,459.88887394336024" fill = "none" stroke = "red" /> 
<polyline points = "1478.1771432346218,459.88887394336024 1370.8882222173754,356.89687808418336" fill = "none" stroke = "red" /> 
<polyline points = "1370.8882222173754,356.89687808418336 1404.371529950647,209.97225255037603" fill = "none" stroke = "red" /> 
<polyline points = "1404.371529950647,209.97225255037603 1549.4342237675698,162.4089742855262" fill = "none" stroke = "red" /> 
<polyline points = "1549.4342237675698,162.4089742855262 1666.3919349446921,263.5602315957692" fill = "none" stroke = "red" /> 
<polyline points = "1666.3919349446921,263.5602315957692 1639.5671108990362,417.8460175498467" fill = "none" stroke = "red" /> 
<polyline points = "1639.5671108990362,417.8460175498467 1491.6576166634839,475.0055111764125" fill = "none" stroke = "red" /> 
<polyline points = "1491.6576166634839,475.0055111764125 1364.9418478510472,376.4354813202102" fill = "none" stroke = "red" /> 
<polyline points = "1364.9418478510472,376.4354813202102 1384.4265053321492,215.0987061567601" fill = "none" stroke = "red" /> 
<polyline points = "1384.4265053321492,215.0987061567601 1534.5607818289661,147.9203215781301" fill = "none" stroke = "red" /> 
<polyline points = "1534.5607818289661,147.9203215781301 1671.07232379623,243.15489550407983" fill = "none" stroke = "red" /> 
<polyline points = "1671.07232379623,243.15489550407983 1659.5944624794677,411.18117939696776" fill = "none" stroke = "red" /> 
<polyline points = "1659.5944624794677,411.18117939696776 1507.893543613728,488.76153904729586" fill = "none" stroke = "red" /> 
<polyline points = "1507.893543613728,488.76153904729586 1361.6012236568288,397.62699505031645" fill = "none" stroke = "red" /> 
<polyline points = "1361.6012236568288,397.62699505031645 1364.4242204750244,223.32322266600954" fill = "none" stroke = "red" /> 
<polyline points = "1364.4242204750244,223.32322266600954 1516.999999999999,135.0" fill = "none" stroke = "red" /> 
<polyline points = "1516.999999999999,135.0 1673.0044487277842,221.26307036636982" fill = "none" stroke = "red" /> 
<polyline points = "1673.0044487277842,221.26307036636982 1679.4623570860424,401.38276755260415" fill = "none" stroke = "red" /> 
<polyline points = "1679.4623570860424,401.38276755260415 1526.7344878611893,500.74509346435065" fill = "none" stroke = "red" /> 
<polyline points = "1526.7344878611893,500.74509346435065 1361.1409363596529,420.12826585250133" fill = "none" stroke = "red" /> 
<polyline points = "1361.1409363596529,420.12826585250133 1344.801520463035,234.70253026926997" fill = "none" stroke = "red" /> 
<polyline points = "1344.801520463035,234.70253026926997 1496.9305350526106,124.05179608929151" fill = "none" stroke = "red" /> 
<polyline points = "1496.9305350526106,124.05179608929151 1671.9352889491754,198.24788550850332" fill = "none" stroke = "red" /> 
<polyline points = "1671.9352889491754,198.24788550850332 1698.7280354950908,388.4228923095176" fill = "none" stroke = "red" /> 
<polyline points = "1698.7280354950908,388.4228923095176 1547.9740240779663,510.5622914378372" fill = "none" stroke = "red" /> 
<polyline points = "1547.9740240779663,510.5622914378372 1363.7911113762061,443.55752193730996" fill = "none" stroke = "red" /> 
<text x = "363.0" y = "796.0" dominant-baseline= "central" text-anchor= "middle" font-size = "30px" fill = "red">TOP </text> 
<text x = "363.0" y = "315.0" dominant-baseline= "central" text-anchor= "middle" font-size = "30px" fill = "red">FRONT </text> 
</svg>