<?xml version = "1.0" encoding = "UTF-8" ?> 
<svg xmlns="http://www.w3.org/2000/svg" version = "1.1"> 
<line x1="25" y1="20" x2="63.400000000000006" y2 ="20" style="stroke:red;stroke:4"/>
<text x = "73.4" y = "25" font-size = "12px" fill = "red"> = 1 inch (2:5 scale) </text> 
<polyline points="25,30 63.400000000000006,30 " style="fill:none;stroke:black;stroke:2"/>
<polyline points="63.400000000000006,30.0 68.2,30.0 68.2,49.2 63.400000000000006,49.2 63.400000000000006,68.4 " style="fill:none;stroke:black;stroke:2"/>
<line x1 = "63.400000000000006" y1 = "56.53228346454" x2 = "63.400000000000006" y2 = "61.06771653546" style="fill:none;stroke:white;stroke:2"/>
<line x1 = "63.400000000000006" y1 = "56.53228346454" x2 = "63.400000000000006" y2 = "61.06771653546" style="fill:none;stroke:white;stroke:2"/>
<polyline points = "63.400000000000006,56.53228346454 60.111811023640016,56.53228346454 60.111811023640016,55.0204724409 57.84409448818002,55.0204724409 57.84409448818002,56.53228346454 53.30866141726002,56.53228346454 53.30866141726002,61.06771653546 57.84409448818002,61.06771653546 57.84409448818002,62.5795275591 60.111811023640016,62.5795275591 60.111811023640016,61.06771653546 63.400000000000006,61.06771653546" style="fill:none;stroke:black;stroke:2"/>
<polyline points = "63.400000000000006,56.53228346454 60.111811023640016,56.53228346454 60.111811023640016,55.0204724409 57.84409448818002,55.0204724409 57.84409448818002,56.53228346454 53.30866141726002,56.53228346454 53.30866141726002,61.06771653546 57.84409448818002,61.06771653546 57.84409448818002,62.5795275591 60.111811023640016,62.5795275591 60.111811023640016,61.06771653546 63.400000000000006,61.06771653546" style="fill:none;stroke:black;stroke:2"/>
<polyline points="63.400000000000006,68.4 63.400000000000006,73.2 44.2,73.2 44.2,68.4 25.0,68.4 " style="fill:none;stroke:black;stroke:2"/>
<line x1 = "32.33228346454" y1 = "68.4" x2 = "36.86771653546" y2 = "68.4" style="fill:none;stroke:white;stroke:2"/>
<line x1 = "32.33228346454" y1 = "68.4" x2 = "36.86771653546" y2 = "68.4" style="fill:none;stroke:white;stroke:2"/>
<polyline points = "32.33228346454,68.4 32.33228346454,65.11181102364002 30.820472440899998,65.11181102364002 30.820472440899998,62.84409448818002 32.33228346454,62.84409448818002 32.33228346454,58.30866141726002 36.86771653546,58.30866141726002 36.86771653546,62.84409448818002 38.3795275591,62.84409448818002 38.3795275591,65.11181102364002 36.86771653546,65.11181102364002 36.86771653546,68.4" style="fill:none;stroke:black;stroke:2"/>
<polyline points = "32.33228346454,68.4 32.33228346454,65.11181102364002 30.820472440899998,65.11181102364002 30.820472440899998,62.84409448818002 32.33228346454,62.84409448818002 32.33228346454,58.30866141726002 36.86771653546,58.30866141726002 36.86771653546,62.84409448818002 38.3795275591,62.84409448818002 38.3795275591,65.11181102364002 36.86771653546,65.11181102364002 36.86771653546,68.4" style="fill:none;stroke:black;stroke:2"/>
<polyline points="25.0,68.4 20.2,68.4 20.2,49.2 25.0,49.2 25.0,30.0 " style="fill:none;stroke:black;stroke:2"/>
<circle cx = "24.86771653546" cy = "58.800000000000004" r = "2.26771653546" style="fill:none;stroke:black;stroke:2"/>
<circle cx = "24.86771653546" cy = "58.800000000000004" r = "2.26771653546" style="fill:none;stroke:black;stroke:2"/>
<polyline points="73.2,30 89.2,30 89.2,25.2 105.2,25.2 105.2,30 121.20000000000002,30" style="fill:none;stroke:black;stroke:2"/>
<line x1 = "82.13228346454001" y1 = "30" x2 = "86.66771653546002" y2 = "30" style="fill:none;stroke:white;stroke:2"/>
<line x1 = "107.73228346454002" y1 = "30" x2 = "112.26771653546001" y2 = "30" style="fill:none;stroke:white;stroke:2"/>
<polyline points = "82.13228346454001,30 82.13228346454001,33.288188976360004 80.62047244090002,33.288188976360004 80.62047244090002,35.55590551182 82.13228346454001,35.55590551182 82.13228346454001,40.09133858274 86.66771653546002,40.09133858274 86.66771653546002,35.55590551182 88.17952755910002,35.55590551182 88.17952755910002,33.288188976360004 86.66771653546002,33.288188976360004 86.66771653546002,30" style="fill:none;stroke:black;stroke:2"/>
<polyline points = "107.73228346454002,30 107.73228346454002,33.288188976360004 106.22047244090001,33.288188976360004 106.22047244090001,35.55590551182 107.73228346454002,35.55590551182 107.73228346454002,40.09133858274 112.26771653546001,40.09133858274 112.26771653546001,35.55590551182 113.77952755910002,35.55590551182 113.77952755910002,33.288188976360004 112.26771653546001,33.288188976360004 112.26771653546001,30" style="fill:none;stroke:black;stroke:2"/>
<line x1 = "73.2" y1 = "30" x2 = "78.0" y2 = "30" style="fill:none;stroke:white;stroke:2"/>
<polyline points="116.4,30.0 121.2,30.0 121.2,49.2 116.4,49.2 116.4,68.4 " style="fill:none;stroke:black;stroke:2"/>
<line x1 = "116.4" y1 = "56.53228346454" x2 = "116.4" y2 = "61.06771653546" style="fill:none;stroke:white;stroke:2"/>
<line x1 = "116.4" y1 = "56.53228346454" x2 = "116.4" y2 = "61.06771653546" style="fill:none;stroke:white;stroke:2"/>
<polyline points = "116.4,56.53228346454 113.11181102364002,56.53228346454 113.11181102364002,55.0204724409 110.84409448818002,55.0204724409 110.84409448818002,56.53228346454 106.30866141726003,56.53228346454 106.30866141726003,61.06771653546 110.84409448818002,61.06771653546 110.84409448818002,62.5795275591 113.11181102364002,62.5795275591 113.11181102364002,61.06771653546 116.4,61.06771653546" style="fill:none;stroke:black;stroke:2"/>
<polyline points = "116.4,56.53228346454 113.11181102364002,56.53228346454 113.11181102364002,55.0204724409 110.84409448818002,55.0204724409 110.84409448818002,56.53228346454 106.30866141726003,56.53228346454 106.30866141726003,61.06771653546 110.84409448818002,61.06771653546 110.84409448818002,62.5795275591 113.11181102364002,62.5795275591 113.11181102364002,61.06771653546 116.4,61.06771653546" style="fill:none;stroke:black;stroke:2"/>
<polyline points="116.4,68.4 116.4,73.2 97.2,73.2 97.2,68.4 78.0,68.4 " style="fill:none;stroke:black;stroke:2"/>
<line x1 = "85.33228346454" y1 = "68.4" x2 = "89.86771653546" y2 = "68.4" style="fill:none;stroke:white;stroke:2"/>
<line x1 = "85.33228346454" y1 = "68.4" x2 = "89.86771653546" y2 = "68.4" style="fill:none;stroke:white;stroke:2"/>
<polyline points = "85.33228346454,68.4 85.33228346454,65.11181102364002 83.8204724409,65.11181102364002 83.8204724409,62.84409448818002 85.33228346454,62.84409448818002 85.33228346454,58.30866141726002 89.86771653546,58.30866141726002 89.86771653546,62.84409448818002 91.37952755910001,62.84409448818002 91.37952755910001,65.11181102364002 89.86771653546,65.11181102364002 89.86771653546,68.4" style="fill:none;stroke:black;stroke:2"/>
<polyline points = "85.33228346454,68.4 85.33228346454,65.11181102364002 83.8204724409,65.11181102364002 83.8204724409,62.84409448818002 85.33228346454,62.84409448818002 85.33228346454,58.30866141726002 89.86771653546,58.30866141726002 89.86771653546,62.84409448818002 91.37952755910001,62.84409448818002 91.37952755910001,65.11181102364002 89.86771653546,65.11181102364002 89.86771653546,68.4" style="fill:none;stroke:black;stroke:2"/>
<polyline points="78.0,68.4 73.2,68.4 73.2,49.2 78.0,49.2 78.0,30.0 " style="fill:none;stroke:black;stroke:2"/>
<circle cx = "77.86771653545999" cy = "58.800000000000004" r = "2.26771653546" style="fill:none;stroke:black;stroke:2"/>
<circle cx = "77.86771653545999" cy = "58.800000000000004" r = "2.26771653546" style="fill:none;stroke:black;stroke:2"/>
<polyline points="131.0,30 169.4,30 " style="fill:none;stroke:black;stroke:2"/>
<polyline points="169.4,30.0 174.20000000000002,30.0 174.20000000000002,49.2 169.4,49.2 169.4,68.4 " style="fill:none;stroke:black;stroke:2"/>
<line x1 = "169.4" y1 = "56.53228346454" x2 = "169.4" y2 = "61.06771653546" style="fill:none;stroke:white;stroke:2"/>
<line x1 = "169.4" y1 = "56.53228346454" x2 = "169.4" y2 = "61.06771653546" style="fill:none;stroke:white;stroke:2"/>
<polyline points = "169.4,56.53228346454 166.11181102364,56.53228346454 166.11181102364,55.0204724409 163.84409448818,55.0204724409 163.84409448818,56.53228346454 159.30866141726,56.53228346454 159.30866141726,61.06771653546 163.84409448818,61.06771653546 163.84409448818,62.5795275591 166.11181102364,62.5795275591 166.11181102364,61.06771653546 169.4,61.06771653546" style="fill:none;stroke:black;stroke:2"/>
<polyline points = "169.4,56.53228346454 166.11181102364,56.53228346454 166.11181102364,55.0204724409 163.84409448818,55.0204724409 163.84409448818,56.53228346454 159.30866141726,56.53228346454 159.30866141726,61.06771653546 163.84409448818,61.06771653546 163.84409448818,62.5795275591 166.11181102364,62.5795275591 166.11181102364,61.06771653546 169.4,61.06771653546" style="fill:none;stroke:black;stroke:2"/>
<polyline points="169.4,68.4 169.4,73.2 150.2,73.2 150.2,68.4 131.0,68.4 " style="fill:none;stroke:black;stroke:2"/>
<polyline points="131.0,68.4 126.2,68.4 126.2,49.2 131.0,49.2 131.0,30.0 " style="fill:none;stroke:black;stroke:2"/>
<circle cx = "130.86771653546" cy = "58.800000000000004" r = "2.26771653546" style="fill:none;stroke:black;stroke:2"/>
<circle cx = "130.86771653546" cy = "58.800000000000004" r = "2.26771653546" style="fill:none;stroke:black;stroke:2"/>
<polyline points="184.0,30 222.4,30 " style="fill:none;stroke:black;stroke:2"/>
<polyline points="222.4,30.0 227.20000000000002,30.0 227.20000000000002,49.2 222.4,49.2 222.4,68.4 " style="fill:none;stroke:black;stroke:2"/>
<line x1 = "222.4" y1 = "56.53228346454" x2 = "222.4" y2 = "61.06771653546" style="fill:none;stroke:white;stroke:2"/>
<line x1 = "222.4" y1 = "56.53228346454" x2 = "222.4" y2 = "61.06771653546" style="fill:none;stroke:white;stroke:2"/>
<polyline points = "222.4,56.53228346454 219.11181102364,56.53228346454 219.11181102364,55.0204724409 216.84409448818,55.0204724409 216.84409448818,56.53228346454 212.30866141726,56.53228346454 212.30866141726,61.06771653546 216.84409448818,61.06771653546 216.84409448818,62.5795275591 219.11181102364,62.5795275591 219.11181102364,61.06771653546 222.4,61.06771653546" style="fill:none;stroke:black;stroke:2"/>
<polyline points = "222.4,56.53228346454 219.11181102364,56.53228346454 219.11181102364,55.0204724409 216.84409448818,55.0204724409 216.84409448818,56.53228346454 212.30866141726,56.53228346454 212.30866141726,61.06771653546 216.84409448818,61.06771653546 216.84409448818,62.5795275591 219.11181102364,62.5795275591 219.11181102364,61.06771653546 222.4,61.06771653546" style="fill:none;stroke:black;stroke:2"/>
<polyline points="222.4,68.4 222.4,73.2 203.2,73.2 203.2,68.4 184.0,68.4 " style="fill:none;stroke:black;stroke:2"/>
<polyline points="184.0,68.4 179.2,68.4 179.2,49.2 184.0,49.2 184.0,30.0 " style="fill:none;stroke:black;stroke:2"/>
<circle cx = "183.86771653546" cy = "58.800000000000004" r = "2.26771653546" style="fill:none;stroke:black;stroke:2"/>
<circle cx = "183.86771653546" cy = "58.800000000000004" r = "2.26771653546" style="fill:none;stroke:black;stroke:2"/>
<polyline points="78.0,83.0 78.0,78.2 97.2,78.2 97.2,83.0 116.4,83.0 " style="fill:none;stroke:black;stroke:2"/>
<circle cx = "87.6" cy = "82.86771653545999" r = "2.26771653546" style="fill:none;stroke:black;stroke:1"/>
<circle cx = "87.6" cy = "82.86771653545999" r = "2.26771653546" style="fill:none;stroke:black;stroke:1"/>
<polyline points="116.4,83.0 121.2,83.0 121.2,102.2 116.4,102.2 116.4,121.4 " style="fill:none;stroke:black;stroke:2"/>
<polyline points="116.4,121.4 116.4,126.2 97.2,126.2 97.2,121.4 78.0,121.4 " style="fill:none;stroke:black;stroke:2"/>
<circle cx = "106.80000000000001" cy = "121.53228346454001" r = "2.26771653546" style="fill:none;stroke:black;stroke:1"/>
<circle cx = "106.80000000000001" cy = "121.53228346454001" r = "2.26771653546" style="fill:none;stroke:black;stroke:1"/>
<polyline points="78.0,121.4 73.2,121.4 73.2,102.2 78.0,102.2 78.0,83.0 " style="fill:none;stroke:black;stroke:2"/>
<polyline points = "20.2,78.2 36.2,78.2 36.2,83.0 52.2,83.0 52.2,78.2 68.2,78.2 68.2,126.20000000000002 20.2,126.20000000000002 20.2,78.2" style="fill:none;stroke:black;stroke:2"/>
<circle cx = "31.400000000000002" cy = "82.86771653545999" r = "2.26771653546" style="fill:none;stroke:black;stroke:1"/>
<circle cx = "57.00000000000001" cy = "82.86771653545999" r = "2.26771653546" style="fill:none;stroke:black;stroke:1"/>
<polyline points = "20.2,89.72 28.360000000000003,89.72" fill = "none" stroke = "black" /> 
<polyline points = "30.760000000000005,89.72 57.64000000000001,89.72" fill = "none" stroke = "black" /> 
<polyline points = "60.040000000000006 89.72 68.20000000000002,89.72" fill = "none" stroke = "black" /> 
<polyline points = "22.6,92.12 65.8,92.12" fill = "none" stroke = "black" /> 
<polyline points = "20.2,94.52 28.360000000000003,94.52" fill = "none" stroke = "black" /> 
<polyline points = "30.760000000000005,94.52 57.64000000000001,94.52" fill = "none" stroke = "black" /> 
<polyline points = "60.040000000000006 94.52 68.20000000000002,94.52" fill = "none" stroke = "black" /> 
<polyline points = "22.6,96.91999999999999 65.8,96.91999999999999" fill = "none" stroke = "black" /> 
<polyline points = "20.2,99.32000000000001 28.360000000000003,99.32000000000001" fill = "none" stroke = "black" /> 
<polyline points = "30.760000000000005,99.32000000000001 57.64000000000001,99.32000000000001" fill = "none" stroke = "black" /> 
<polyline points = "60.040000000000006 99.32000000000001 68.20000000000002,99.32000000000001" fill = "none" stroke = "black" /> 
<polyline points = "22.6,101.72 65.8,101.72" fill = "none" stroke = "black" /> 
<polyline points = "20.2,104.12 28.360000000000003,104.12" fill = "none" stroke = "black" /> 
<polyline points = "30.760000000000005,104.12 57.64000000000001,104.12" fill = "none" stroke = "black" /> 
<polyline points = "60.040000000000006 104.12 68.20000000000002,104.12" fill = "none" stroke = "black" /> 
<polyline points = "22.6,106.52000000000001 65.8,106.52000000000001" fill = "none" stroke = "black" /> 
<polyline points = "20.2,108.92 28.360000000000003,108.92" fill = "none" stroke = "black" /> 
<polyline points = "30.760000000000005,108.92 57.64000000000001,108.92" fill = "none" stroke = "black" /> 
<polyline points = "60.040000000000006 108.92 68.20000000000002,108.92" fill = "none" stroke = "black" /> 
<polyline points = "22.6,111.32000000000001 65.8,111.32000000000001" fill = "none" stroke = "black" /> 
<polyline points = "20.2,113.72 28.360000000000003,113.72" fill = "none" stroke = "black" /> 
<polyline points = "30.760000000000005,113.72 57.64000000000001,113.72" fill = "none" stroke = "black" /> 
<polyline points = "60.040000000000006 113.72 68.20000000000002,113.72" fill = "none" stroke = "black" /> 
<polyline points = "22.6,116.12 65.8,116.12" fill = "none" stroke = "black" /> 
<polyline points = "20.2,118.52 28.360000000000003,118.52" fill = "none" stroke = "black" /> 
<polyline points = "30.760000000000005,118.52 57.64000000000001,118.52" fill = "none" stroke = "black" /> 
<polyline points = "60.040000000000006 118.52 68.20000000000002,118.52" fill = "none" stroke = "black" /> 
<polyline points = "22.6,120.91999999999999 65.8,120.91999999999999" fill = "none" stroke = "black" /> 
<polyline points = "97.2,102.2 97.58627855618255,102.84287547552658" fill = "none" stroke = "red" /> 
<polyline points = "97.2,102.2 97.58627855618255,102.84287547552658" fill = "none" stroke = "red" /> 
<polyline points = "97.58627855618255,102.84287547552658 96.49579265582116,103.52442138928839" fill = "none" stroke = "red" /> 
<polyline points = "96.49579265582116,103.52442138928839 94.95308354680222,102.31775590154663" fill = "none" stroke = "red" /> 
<polyline points = "94.95308354680222,102.31775590154663 95.52242128958775,99.71288728233488" fill = "none" stroke = "red" /> 
<polyline points = "95.52242128958775,99.71288728233488 98.78481848152762,98.80134579861257" fill = "none" stroke = "red" /> 
<polyline points = "98.78481848152762,98.80134579861257 101.67534852915723,101.72962191529557" fill = "none" stroke = "red" /> 
<polyline points = "101.67534852915723,101.72962191529557 100.35952887154826,106.39283642774829" fill = "none" stroke = "red" /> 
<polyline points = "100.35952887154826,106.39283642774829 94.95236043950453,107.76310312740073" fill = "none" stroke = "red" /> 
<polyline points = "94.95236043950453,107.76310312740073 90.53310370098282,103.25593263902157" fill = "none" stroke = "red" /> 
<polyline points = "90.53310370098282,103.25593263902157 92.37909292735097,96.45466667660767" fill = "none" stroke = "red" /> 
<polyline points = "92.37909292735097,96.45466667660767 99.88593727427154,94.39947175130564" fill = "none" stroke = "red" /> 
<polyline points = "99.88593727427154,94.39947175130564 106.00332840660425,100.32879478264017" fill = "none" stroke = "red" /> 
<polyline points = "106.00332840660425,100.32879478264017 103.84948401060936,109.33069859078691" fill = "none" stroke = "red" /> 
<polyline points = "103.84948401060936,109.33069859078691 94.3058077639215,112.29324780735234" fill = "none" stroke = "red" /> 
<polyline points = "94.3058077639215,112.29324780735234 86.33333445424799,105.11171425740336" fill = "none" stroke = "red" /> 
<polyline points = "86.33333445424799,105.11171425740336 88.56792239593617,93.86409955449206" fill = "none" stroke = "red" /> 
<polyline points = "88.56792239593617,93.86409955449206 100.06812594288425,89.77678167398824" fill = "none" stroke = "red" /> 
<polyline points = "100.06812594288425,89.77678167398824 110.03926296998456,98.02827057593818" fill = "none" stroke = "red" /> 
<polyline points = "110.03926296998456,98.02827057593818 107.9546115181745,111.54884116311474" fill = "none" stroke = "red" /> 
<polyline points = "107.9546115181745,111.54884116311474 94.59527733499604,116.97211629518313" fill = "none" stroke = "red" /> 
<polyline points = "94.59527733499604,116.97211629518313 82.49610828266907,107.84429520533847" fill = "none" stroke = "red" /> 
<polyline points = "82.49610828266907,107.84429520533847 84.19782256548909,92.04158565712663" fill = "none" stroke = "red" /> 
<text x = "44.2" y = "119.57142857142858" dominant-baseline= "central" text-anchor= "middle" font-size = "10px" fill = "blue">SEAS 22' </text> 
<text x = "25" y = "141.0" dy = "0">
<tspan x = "20" dy = ".6em" >BOX ATTRIBUTES </tspan>
<tspan x = "20" dy = "1.2em" >thickness: </tspan>
<tspan x = "20" dy = "1.2em" >width: </tspan>
<tspan x = "20" dy = "1.2em" >length:  </tspan>
<tspan x = "20" dy = "1.2em" >height: </tspan>
<tspan x = "20" dy = "1.2em" >partition:  </tspan>
<tspan x = "20" dy = "1.2em" >partition location: </tspan>
<tspan x = "20" dy = "1.2em" >lid: </tspan>
<tspan x = "20" dy = "1.2em" >top text: </tspan>
<tspan x = "20" dy = "1.2em" >front text: </tspan>
<tspan x = "20" dy = "1.2em" >fractal: </tspan>
<tspan x = "20" dy = "1.2em" >fractal side/bottom: </tspan>
<tspan x = "20" dy = "1.2em" >front text string: </tspan>
<tspan x = "20" dy = "1.2em" >top text string: </tspan>
</text><text x = "200" y = "141.0" dy = "0">
<tspan x = "200" dy = ".6em" > VALUES </tspan>
<tspan x = "200" dy = "1.2em" >0.125</tspan>
<tspan x = "200" dy = "1.2em" >1</tspan>
<tspan x = "200" dy = "1.2em" >1</tspan>
<tspan x = "200" dy = "1.2em" >1</tspan>
<tspan x = "200" dy = "1.2em" >False</tspan>
<tspan x = "200" dy = "1.2em" >0</tspan>
<tspan x = "200" dy = "1.2em" >True</tspan>
<tspan x = "200" dy = "1.2em" >True</tspan>
<tspan x = "200" dy = "1.2em" >False</tspan>
<tspan x = "200" dy = "1.2em" >True</tspan>
<tspan x = "200" dy = "1.2em" >bottom</tspan>
<tspan x = "200" dy = "1.2em" ></tspan>
<tspan x = "200" dy = "1.2em" >SEAS 22'</tspan>
</text></svg>