<?xml version = "1.0" encoding = "UTF-8" ?> 
<svg xmlns="http://www.w3.org/2000/svg" version = "1.1"> 
<line x1="25" y1="20" x2="63.400000000000006" y2 ="20" style="stroke:red;stroke:4"/>
<text x = "73.4" y = "25" font-size = "12px" fill = "red"> = 1 inch (2:5 scale) </text> 
<polyline points="25,30 217.00000000000003,30 " style="fill:none;stroke:black;stroke:2"/>
<polyline points="217.00000000000003,30.0 221.80000000000004,30.0 221.80000000000004,49.2 217.00000000000003,49.2 217.00000000000003,68.4 217.00000000000003,68.4 221.80000000000004,68.4 221.80000000000004,87.60000000000001 217.00000000000003,87.60000000000001 217.00000000000003,106.80000000000001 217.00000000000003,106.80000000000001 221.80000000000004,106.80000000000001 221.80000000000004,126.00000000000001 217.00000000000003,126.00000000000001 217.00000000000003,145.20000000000002 " style="fill:none;stroke:black;stroke:2"/>
<line x1 = "217.00000000000003" y1 = "56.91023622045" x2 = "217.00000000000003" y2 = "60.689763779550006" style="fill:none;stroke:white;stroke:2"/>
<line x1 = "217.00000000000003" y1 = "133.71023622045" x2 = "217.00000000000003" y2 = "137.48976377955" style="fill:none;stroke:white;stroke:2"/>
<polyline points = "217.00000000000003,56.91023622045 213.71181102364002,56.91023622045 213.71181102364002,55.0204724409 211.44409448818,55.0204724409 211.44409448818,56.91023622045 206.90866141726002,56.91023622045 206.90866141726002,60.689763779550006 211.44409448818,60.689763779550006 211.44409448818,62.57952755910001 213.71181102364002,62.57952755910001 213.71181102364002,60.689763779550006 217.00000000000003,60.689763779550006" style="fill:none;stroke:black;stroke:2"/>
<polyline points = "217.00000000000003,133.71023622045 213.71181102364002,133.71023622045 213.71181102364002,131.8204724409 211.44409448818,131.8204724409 211.44409448818,133.71023622045 206.90866141726002,133.71023622045 206.90866141726002,137.48976377955 211.44409448818,137.48976377955 211.44409448818,139.3795275591 213.71181102364002,139.3795275591 213.71181102364002,137.48976377955 217.00000000000003,137.48976377955" style="fill:none;stroke:black;stroke:2"/>
<polyline points="217.00000000000003,145.20000000000002 217.00000000000003,150.00000000000003 197.8,150.00000000000003 197.8,145.20000000000002 178.60000000000002,145.20000000000002 178.60000000000002,145.20000000000002 178.60000000000002,150.00000000000003 159.4,150.00000000000003 159.4,145.20000000000002 140.20000000000002,145.20000000000002 140.20000000000002,145.20000000000002 140.20000000000002,150.00000000000003 121.0,150.00000000000003 121.0,145.20000000000002 101.80000000000001,145.20000000000002 101.80000000000001,145.20000000000002 101.80000000000001,150.00000000000003 82.6,150.00000000000003 82.6,145.20000000000002 63.400000000000006,145.20000000000002 63.400000000000006,145.20000000000002 63.400000000000006,150.00000000000003 44.19999999999999,150.00000000000003 44.19999999999999,145.20000000000002 25.0,145.20000000000002 " style="fill:none;stroke:black;stroke:2"/>
<line x1 = "32.71023622045" y1 = "145.20000000000002" x2 = "36.48976377955" y2 = "145.20000000000002" style="fill:none;stroke:white;stroke:2"/>
<line x1 = "186.31023622045" y1 = "145.20000000000002" x2 = "190.08976377955003" y2 = "145.20000000000002" style="fill:none;stroke:white;stroke:2"/>
<polyline points = "32.71023622045,145.20000000000002 32.71023622045,141.91181102364 30.820472440899998,141.91181102364 30.820472440899998,139.64409448818 32.71023622045,139.64409448818 32.71023622045,135.10866141726 36.48976377955,135.10866141726 36.48976377955,139.64409448818 38.379527559100005,139.64409448818 38.379527559100005,141.91181102364 36.48976377955,141.91181102364 36.48976377955,145.20000000000002" style="fill:none;stroke:black;stroke:2"/>
<polyline points = "186.31023622045,145.20000000000002 186.31023622045,141.91181102364 184.42047244090003,141.91181102364 184.42047244090003,139.64409448818 186.31023622045,139.64409448818 186.31023622045,135.10866141726 190.08976377955003,135.10866141726 190.08976377955003,139.64409448818 191.97952755910003,139.64409448818 191.97952755910003,141.91181102364 190.08976377955003,141.91181102364 190.08976377955003,145.20000000000002" style="fill:none;stroke:black;stroke:2"/>
<polyline points="25.0,145.20000000000002 20.2,145.20000000000002 20.2,126.00000000000001 25.0,126.00000000000001 25.0,106.80000000000001 25.0,106.80000000000001 20.2,106.80000000000001 20.2,87.60000000000001 25.0,87.60000000000001 25.0,68.4 25.0,68.4 20.2,68.4 20.2,49.2 25.0,49.2 25.0,30.0 " style="fill:none;stroke:black;stroke:2"/>
<circle cx = "24.489763779550003" cy = "58.800000000000004" r = "1.88976377955" style="fill:none;stroke:black;stroke:2"/>
<circle cx = "24.489763779550003" cy = "135.60000000000002" r = "1.88976377955" style="fill:none;stroke:black;stroke:2"/>
<polyline points="226.8,30 294.0,30 294.0,25.2 361.2,25.2 361.2,30 428.40000000000003,30" style="fill:none;stroke:black;stroke:2"/>
<line x1 = "261.71023622045004" y1 = "30" x2 = "265.48976377955006" y2 = "30" style="fill:none;stroke:white;stroke:2"/>
<line x1 = "389.71023622045004" y1 = "30" x2 = "393.48976377955006" y2 = "30" style="fill:none;stroke:white;stroke:2"/>
<polyline points = "261.71023622045004,30 261.71023622045004,33.288188976360004 259.82047244090006,33.288188976360004 259.82047244090006,35.55590551182 261.71023622045004,35.55590551182 261.71023622045004,40.09133858274 265.48976377955006,40.09133858274 265.48976377955006,35.55590551182 267.37952755910004,35.55590551182 267.37952755910004,33.288188976360004 265.48976377955006,33.288188976360004 265.48976377955006,30" style="fill:none;stroke:black;stroke:2"/>
<polyline points = "389.71023622045004,30 389.71023622045004,33.288188976360004 387.82047244090006,33.288188976360004 387.82047244090006,35.55590551182 389.71023622045004,35.55590551182 389.71023622045004,40.09133858274 393.48976377955006,40.09133858274 393.48976377955006,35.55590551182 395.37952755910004,35.55590551182 395.37952755910004,33.288188976360004 393.48976377955006,33.288188976360004 393.48976377955006,30" style="fill:none;stroke:black;stroke:2"/>
<line x1 = "226.8" y1 = "30" x2 = "231.60000000000002" y2 = "30" style="fill:none;stroke:white;stroke:2"/>
<polyline points="423.6,30.0 428.40000000000003,30.0 428.40000000000003,49.2 423.6,49.2 423.6,68.4 423.6,68.4 428.40000000000003,68.4 428.40000000000003,87.60000000000001 423.6,87.60000000000001 423.6,106.80000000000001 423.6,106.80000000000001 428.40000000000003,106.80000000000001 428.40000000000003,126.00000000000001 423.6,126.00000000000001 423.6,145.20000000000002 " style="fill:none;stroke:black;stroke:2"/>
<line x1 = "423.6" y1 = "56.91023622045" x2 = "423.6" y2 = "60.689763779550006" style="fill:none;stroke:white;stroke:2"/>
<line x1 = "423.6" y1 = "133.71023622045" x2 = "423.6" y2 = "137.48976377955" style="fill:none;stroke:white;stroke:2"/>
<polyline points = "423.6,56.91023622045 420.31181102364,56.91023622045 420.31181102364,55.0204724409 418.04409448818,55.0204724409 418.04409448818,56.91023622045 413.50866141726,56.91023622045 413.50866141726,60.689763779550006 418.04409448818,60.689763779550006 418.04409448818,62.57952755910001 420.31181102364,62.57952755910001 420.31181102364,60.689763779550006 423.6,60.689763779550006" style="fill:none;stroke:black;stroke:2"/>
<polyline points = "423.6,133.71023622045 420.31181102364,133.71023622045 420.31181102364,131.8204724409 418.04409448818,131.8204724409 418.04409448818,133.71023622045 413.50866141726,133.71023622045 413.50866141726,137.48976377955 418.04409448818,137.48976377955 418.04409448818,139.3795275591 420.31181102364,139.3795275591 420.31181102364,137.48976377955 423.6,137.48976377955" style="fill:none;stroke:black;stroke:2"/>
<polyline points="423.6,145.20000000000002 423.6,150.00000000000003 404.40000000000003,150.00000000000003 404.40000000000003,145.20000000000002 385.20000000000005,145.20000000000002 385.20000000000005,145.20000000000002 385.20000000000005,150.00000000000003 366.0,150.00000000000003 366.0,145.20000000000002 346.80000000000007,145.20000000000002 346.8,145.20000000000002 346.8,150.00000000000003 327.6,150.00000000000003 327.6,145.20000000000002 308.40000000000003,145.20000000000002 308.4,145.20000000000002 308.4,150.00000000000003 289.20000000000005,150.00000000000003 289.20000000000005,145.20000000000002 270.0,145.20000000000002 270.0,145.20000000000002 270.0,150.00000000000003 250.8,150.00000000000003 250.8,145.20000000000002 231.60000000000002,145.20000000000002 " style="fill:none;stroke:black;stroke:2"/>
<line x1 = "239.31023622044998" y1 = "145.20000000000002" x2 = "243.08976377954997" y2 = "145.20000000000002" style="fill:none;stroke:white;stroke:2"/>
<line x1 = "392.91023622045" y1 = "145.20000000000002" x2 = "396.68976377955" y2 = "145.20000000000002" style="fill:none;stroke:white;stroke:2"/>
<polyline points = "239.31023622044998,145.20000000000002 239.31023622044998,141.91181102364 237.42047244089997,141.91181102364 237.42047244089997,139.64409448818 239.31023622044998,139.64409448818 239.31023622044998,135.10866141726 243.08976377954997,135.10866141726 243.08976377954997,139.64409448818 244.97952755909998,139.64409448818 244.97952755909998,141.91181102364 243.08976377954997,141.91181102364 243.08976377954997,145.20000000000002" style="fill:none;stroke:black;stroke:2"/>
<polyline points = "392.91023622045,145.20000000000002 392.91023622045,141.91181102364 391.0204724409,141.91181102364 391.0204724409,139.64409448818 392.91023622045,139.64409448818 392.91023622045,135.10866141726 396.68976377955,135.10866141726 396.68976377955,139.64409448818 398.57952755910003,139.64409448818 398.57952755910003,141.91181102364 396.68976377955,141.91181102364 396.68976377955,145.20000000000002" style="fill:none;stroke:black;stroke:2"/>
<polyline points="231.6,145.20000000000002 226.79999999999998,145.20000000000002 226.79999999999998,126.00000000000001 231.6,126.00000000000001 231.6,106.80000000000001 231.6,106.80000000000001 226.79999999999998,106.80000000000001 226.79999999999998,87.60000000000001 231.6,87.60000000000001 231.6,68.4 231.6,68.4 226.79999999999998,68.4 226.79999999999998,49.2 231.6,49.2 231.6,30.0 " style="fill:none;stroke:black;stroke:2"/>
<circle cx = "231.08976377955003" cy = "58.800000000000004" r = "1.88976377955" style="fill:none;stroke:black;stroke:2"/>
<circle cx = "231.08976377955003" cy = "135.60000000000002" r = "1.88976377955" style="fill:none;stroke:black;stroke:2"/>
<polyline points="438.20000000000005,30 591.8000000000001,30 " style="fill:none;stroke:black;stroke:2"/>
<polyline points="591.8000000000001,30.0 596.6,30.0 596.6,49.2 591.8000000000001,49.2 591.8000000000001,68.4 591.8000000000001,68.4 596.6,68.4 596.6,87.60000000000001 591.8000000000001,87.60000000000001 591.8000000000001,106.80000000000001 591.8000000000001,106.80000000000001 596.6,106.80000000000001 596.6,126.00000000000001 591.8000000000001,126.00000000000001 591.8000000000001,145.20000000000002 " style="fill:none;stroke:black;stroke:2"/>
<line x1 = "591.8000000000001" y1 = "56.91023622045" x2 = "591.8000000000001" y2 = "60.689763779550006" style="fill:none;stroke:white;stroke:2"/>
<line x1 = "591.8000000000001" y1 = "133.71023622045" x2 = "591.8000000000001" y2 = "137.48976377955" style="fill:none;stroke:white;stroke:2"/>
<polyline points = "591.8000000000001,56.91023622045 588.5118110236401,56.91023622045 588.5118110236401,55.0204724409 586.2440944881802,55.0204724409 586.2440944881802,56.91023622045 581.7086614172601,56.91023622045 581.7086614172601,60.689763779550006 586.2440944881802,60.689763779550006 586.2440944881802,62.57952755910001 588.5118110236401,62.57952755910001 588.5118110236401,60.689763779550006 591.8000000000001,60.689763779550006" style="fill:none;stroke:black;stroke:2"/>
<polyline points = "591.8000000000001,133.71023622045 588.5118110236401,133.71023622045 588.5118110236401,131.8204724409 586.2440944881802,131.8204724409 586.2440944881802,133.71023622045 581.7086614172601,133.71023622045 581.7086614172601,137.48976377955 586.2440944881802,137.48976377955 586.2440944881802,139.3795275591 588.5118110236401,139.3795275591 588.5118110236401,137.48976377955 591.8000000000001,137.48976377955" style="fill:none;stroke:black;stroke:2"/>
<polyline points="591.8000000000001,145.20000000000002 591.8000000000001,150.00000000000003 572.6,150.00000000000003 572.6,145.20000000000002 553.4,145.20000000000002 553.4000000000001,145.20000000000002 553.4000000000001,150.00000000000003 534.2,150.00000000000003 534.2,145.20000000000002 515.0,145.20000000000002 515.0,145.20000000000002 515.0,150.00000000000003 495.8,150.00000000000003 495.8,145.20000000000002 476.59999999999997,145.20000000000002 476.6,145.20000000000002 476.6,150.00000000000003 457.4,150.00000000000003 457.4,145.20000000000002 438.19999999999993,145.20000000000002 " style="fill:none;stroke:black;stroke:2"/>
<polyline points="438.20000000000005,145.20000000000002 433.40000000000003,145.20000000000002 433.40000000000003,126.00000000000001 438.20000000000005,126.00000000000001 438.20000000000005,106.80000000000001 438.20000000000005,106.80000000000001 433.40000000000003,106.80000000000001 433.40000000000003,87.60000000000001 438.20000000000005,87.60000000000001 438.20000000000005,68.4 438.20000000000005,68.4 433.40000000000003,68.4 433.40000000000003,49.2 438.20000000000005,49.2 438.20000000000005,30.0 " style="fill:none;stroke:black;stroke:2"/>
<circle cx = "437.68976377955005" cy = "58.800000000000004" r = "1.88976377955" style="fill:none;stroke:black;stroke:2"/>
<circle cx = "437.68976377955005" cy = "135.60000000000002" r = "1.88976377955" style="fill:none;stroke:black;stroke:2"/>
<rect x = "474.20000000000005" y = "39.6" width = "4.800000000000001" height = "19.200000000000003" style="fill:none;stroke:black;strokeDim:3"/>
<rect x = "474.20000000000005" y = "116.4" width = "4.800000000000001" height = "19.200000000000003" style="fill:none;stroke:black;strokeDim:3"/>
<polyline points="606.4000000000001,30 760.0000000000001,30 " style="fill:none;stroke:black;stroke:2"/>
<polyline points="760.0000000000001,30.0 764.8000000000001,30.0 764.8000000000001,49.2 760.0000000000001,49.2 760.0000000000001,68.4 760.0000000000001,68.4 764.8000000000001,68.4 764.8000000000001,87.60000000000001 760.0000000000001,87.60000000000001 760.0000000000001,106.80000000000001 760.0000000000001,106.80000000000001 764.8000000000001,106.80000000000001 764.8000000000001,126.00000000000001 760.0000000000001,126.00000000000001 760.0000000000001,145.20000000000002 " style="fill:none;stroke:black;stroke:2"/>
<line x1 = "760.0000000000001" y1 = "56.91023622045" x2 = "760.0000000000001" y2 = "60.689763779550006" style="fill:none;stroke:white;stroke:2"/>
<line x1 = "760.0000000000001" y1 = "133.71023622045" x2 = "760.0000000000001" y2 = "137.48976377955" style="fill:none;stroke:white;stroke:2"/>
<polyline points = "760.0000000000001,56.91023622045 756.7118110236402,56.91023622045 756.7118110236402,55.0204724409 754.4440944881802,55.0204724409 754.4440944881802,56.91023622045 749.9086614172602,56.91023622045 749.9086614172602,60.689763779550006 754.4440944881802,60.689763779550006 754.4440944881802,62.57952755910001 756.7118110236402,62.57952755910001 756.7118110236402,60.689763779550006 760.0000000000001,60.689763779550006" style="fill:none;stroke:black;stroke:2"/>
<polyline points = "760.0000000000001,133.71023622045 756.7118110236402,133.71023622045 756.7118110236402,131.8204724409 754.4440944881802,131.8204724409 754.4440944881802,133.71023622045 749.9086614172602,133.71023622045 749.9086614172602,137.48976377955 754.4440944881802,137.48976377955 754.4440944881802,139.3795275591 756.7118110236402,139.3795275591 756.7118110236402,137.48976377955 760.0000000000001,137.48976377955" style="fill:none;stroke:black;stroke:2"/>
<polyline points="760.0000000000001,145.20000000000002 760.0000000000001,150.00000000000003 740.8000000000001,150.00000000000003 740.8000000000001,145.20000000000002 721.6,145.20000000000002 721.6000000000001,145.20000000000002 721.6000000000001,150.00000000000003 702.4000000000001,150.00000000000003 702.4000000000001,145.20000000000002 683.2,145.20000000000002 683.2,145.20000000000002 683.2,150.00000000000003 664.0,150.00000000000003 664.0,145.20000000000002 644.8,145.20000000000002 644.8000000000001,145.20000000000002 644.8000000000001,150.00000000000003 625.6,150.00000000000003 625.6,145.20000000000002 606.4,145.20000000000002 " style="fill:none;stroke:black;stroke:2"/>
<polyline points="606.4000000000001,145.20000000000002 601.6000000000001,145.20000000000002 601.6000000000001,126.00000000000001 606.4000000000001,126.00000000000001 606.4000000000001,106.80000000000001 606.4000000000001,106.80000000000001 601.6000000000001,106.80000000000001 601.6000000000001,87.60000000000001 606.4000000000001,87.60000000000001 606.4000000000001,68.4 606.4000000000001,68.4 601.6000000000001,68.4 601.6000000000001,49.2 606.4000000000001,49.2 606.4000000000001,30.0 " style="fill:none;stroke:black;stroke:2"/>
<circle cx = "605.8897637795501" cy = "58.800000000000004" r = "1.88976377955" style="fill:none;stroke:black;stroke:2"/>
<circle cx = "605.8897637795501" cy = "135.60000000000002" r = "1.88976377955" style="fill:none;stroke:black;stroke:2"/>
<rect x = "719.2000000000002" y = "39.6" width = "4.800000000000001" height = "19.200000000000003" style="fill:none;stroke:black;strokeDim:3"/>
<rect x = "719.2000000000002" y = "116.4" width = "4.800000000000001" height = "19.200000000000003" style="fill:none;stroke:black;strokeDim:3"/>
<polyline points="231.60000000000002,159.8 231.60000000000002,155.0                   250.8,155.0 250.8,159.8 270.0,159.8 270.0,159.8 270.0,155.0                   289.20000000000005,155.0 289.20000000000005,159.8 308.4,159.8 308.40000000000003,159.8 308.40000000000003,155.0                   327.6,155.0 327.6,159.8 346.8,159.8 346.80000000000007,159.8 346.80000000000007,155.0                   366.0,155.0 366.0,159.8 385.20000000000005,159.8 385.20000000000005,159.8 385.20000000000005,155.0                   404.40000000000003,155.0 404.40000000000003,159.8 423.6,159.8 " style="fill:none;stroke:black;stroke:2"/>
<circle cx = "241.20000000000002" cy = "159.28976377955001" r = "1.88976377955" style="fill:none;stroke:black;stroke:1"/>
<circle cx = "394.80000000000007" cy = "159.28976377955001" r = "1.88976377955" style="fill:none;stroke:black;stroke:1"/>
<polyline points="423.6,159.8 428.40000000000003,159.8 428.40000000000003,179.0 423.6,179.0 423.6,198.2 423.6,198.20000000000002 428.40000000000003,198.20000000000002 428.40000000000003,217.4 423.6,217.4 423.6,236.6 423.6,236.60000000000002 428.40000000000003,236.60000000000002 428.40000000000003,255.8 423.6,255.8 423.6,275.0 423.6,275.0 428.40000000000003,275.0 428.40000000000003,294.20000000000005 423.6,294.20000000000005 423.6,313.4 " style="fill:none;stroke:black;stroke:2"/>
<polyline points="423.6,313.40000000000003 423.6,318.20000000000005 404.40000000000003,318.20000000000005 404.40000000000003,313.40000000000003 385.20000000000005,313.40000000000003 385.20000000000005,313.40000000000003 385.20000000000005,318.20000000000005 366.0,318.20000000000005 366.0,313.40000000000003 346.80000000000007,313.40000000000003 346.8,313.40000000000003 346.8,318.20000000000005 327.6,318.20000000000005 327.6,313.40000000000003 308.40000000000003,313.40000000000003 308.4,313.40000000000003 308.4,318.20000000000005 289.20000000000005,318.20000000000005 289.20000000000005,313.40000000000003 270.0,313.40000000000003 270.0,313.40000000000003 270.0,318.20000000000005 250.8,318.20000000000005 250.8,313.40000000000003 231.60000000000002,313.40000000000003 " style="fill:none;stroke:black;stroke:2"/>
<circle cx = "260.4" cy = "313.91023622045003" r = "1.88976377955" style="fill:none;stroke:black;stroke:1"/>
<circle cx = "414.0" cy = "313.91023622045003" r = "1.88976377955" style="fill:none;stroke:black;stroke:1"/>
<polyline points="231.6,313.40000000000003 226.79999999999998,313.40000000000003 226.79999999999998,294.20000000000005 231.6,294.20000000000005 231.6,275.00000000000006 231.6,275.0 226.79999999999998,275.0 226.79999999999998,255.80000000000004 231.6,255.80000000000004 231.6,236.60000000000005 231.6,236.60000000000002 226.79999999999998,236.60000000000002 226.79999999999998,217.40000000000003 231.6,217.40000000000003 231.6,198.20000000000005 231.6,198.20000000000002 226.79999999999998,198.20000000000002 226.79999999999998,179.00000000000003 231.6,179.00000000000003 231.6,159.80000000000004 " style="fill:none;stroke:black;stroke:2"/>
<polyline points="438.20000000000005,159.8 630.2,159.8 " style="fill:none;stroke:black;stroke:2"/>
<polyline points="630.2,159.8 630.2,169.4 635.0,169.4 635.0,188.60000000000002 630.2,188.60000000000002 630.2,246.20000000000002 635.0,246.20000000000002 635.0,265.40000000000003 630.2,265.40000000000003 630.2,275.0" style="fill:none;stroke:black;stroke:2"/>
<polyline points="630.2,275.0 438.20000000000005,275.0 " style="fill:none;stroke:black;stroke:2"/>
<polyline points="438.20000000000005,159.8 438.20000000000005,169.4 433.40000000000003,169.4 433.40000000000003,188.60000000000002 438.20000000000005,188.60000000000002 438.20000000000005,246.20000000000002 433.40000000000003,246.20000000000002 433.40000000000003,265.40000000000003 438.20000000000005,265.40000000000003 438.20000000000005,275.0" style="fill:none;stroke:black;stroke:2"/>
<polyline points = "20.2,155.0           87.4,155.0           87.4,159.8           154.60000000000002,159.8           154.60000000000002,155.0           221.8,155.0           221.8,318.20000000000005           20.2,318.20000000000005           20.2,155.0"           style = "fill:none;stroke:black;stroke:2"/>
<circle cx = "57.00000000000001" cy = "159.28976377955001"         r = "1.88976377955"         style="fill:none;stroke:black;stroke:1"/>
<circle cx = "185.00000000000003" cy = "159.28976377955001"         r = "1.88976377955"         style="fill:none;stroke:black;stroke:1"/>
<polyline points = "20.2,166.52                       31.960000000000004,166.52"                       fill = "none" stroke = "black" /> 
<polyline points = "                   34.36000000000001,                   166.52 61.24000000000001,                   166.52" fill = "none" stroke = "black" /> 
<polyline points = "20.2,171.32000000000002                       31.960000000000004,171.32000000000002"                       fill = "none" stroke = "black" /> 
<polyline points = "                   34.36000000000001,                   171.32000000000002 61.24000000000001,                   171.32000000000002" fill = "none" stroke = "black" /> 
<polyline points = "20.2,176.12                       31.960000000000004,176.12"                       fill = "none" stroke = "black" /> 
<polyline points = "                   34.36000000000001,                   176.12 61.24000000000001,                   176.12" fill = "none" stroke = "black" /> 
<polyline points = "20.2,180.92000000000002                       31.960000000000004,180.92000000000002"                       fill = "none" stroke = "black" /> 
<polyline points = "                   34.36000000000001,                   180.92000000000002 61.24000000000001,                   180.92000000000002" fill = "none" stroke = "black" /> 
<polyline points = "20.2,185.72000000000003                       31.960000000000004,185.72000000000003"                       fill = "none" stroke = "black" /> 
<polyline points = "                   34.36000000000001,                   185.72000000000003 61.24000000000001,                   185.72000000000003" fill = "none" stroke = "black" /> 
<polyline points = "20.2,190.52                       31.960000000000004,190.52"                       fill = "none" stroke = "black" /> 
<polyline points = "                   34.36000000000001,                   190.52 61.24000000000001,                   190.52" fill = "none" stroke = "black" /> 
<polyline points = "20.2,195.32000000000002                       31.960000000000004,195.32000000000002"                       fill = "none" stroke = "black" /> 
<polyline points = "                   34.36000000000001,                   195.32000000000002 61.24000000000001,                   195.32000000000002" fill = "none" stroke = "black" /> 
<polyline points = "20.2,200.12                       31.960000000000004,200.12"                       fill = "none" stroke = "black" /> 
<polyline points = "                   34.36000000000001,                   200.12 61.24000000000001,                   200.12" fill = "none" stroke = "black" /> 
<polyline points = "20.2,204.92000000000002                       31.960000000000004,204.92000000000002"                       fill = "none" stroke = "black" /> 
<polyline points = "                   34.36000000000001,                   204.92000000000002 61.24000000000001,                   204.92000000000002" fill = "none" stroke = "black" /> 
<polyline points = "20.2,209.72000000000003                       31.960000000000004,209.72000000000003"                       fill = "none" stroke = "black" /> 
<polyline points = "                   34.36000000000001,                   209.72000000000003 61.24000000000001,                   209.72000000000003" fill = "none" stroke = "black" /> 
<polyline points = "20.2,214.52                       31.960000000000004,214.52"                       fill = "none" stroke = "black" /> 
<polyline points = "                   34.36000000000001,                   214.52 61.24000000000001,                   214.52" fill = "none" stroke = "black" /> 
<polyline points = "20.2,219.32000000000002                       31.960000000000004,219.32000000000002"                       fill = "none" stroke = "black" /> 
<polyline points = "                   34.36000000000001,                   219.32000000000002 61.24000000000001,                   219.32000000000002" fill = "none" stroke = "black" /> 
<polyline points = "20.2,224.12                       31.960000000000004,224.12"                       fill = "none" stroke = "black" /> 
<polyline points = "                   34.36000000000001,                   224.12 61.24000000000001,                   224.12" fill = "none" stroke = "black" /> 
<polyline points = "20.2,228.92000000000002                       31.960000000000004,228.92000000000002"                       fill = "none" stroke = "black" /> 
<polyline points = "                   34.36000000000001,                   228.92000000000002 61.24000000000001,                   228.92000000000002" fill = "none" stroke = "black" /> 
<polyline points = "20.2,233.72000000000003                       31.960000000000004,233.72000000000003"                       fill = "none" stroke = "black" /> 
<polyline points = "                   34.36000000000001,                   233.72000000000003 61.24000000000001,                   233.72000000000003" fill = "none" stroke = "black" /> 
<polyline points = "20.2,238.52000000000004                       31.960000000000004,238.52000000000004"                       fill = "none" stroke = "black" /> 
<polyline points = "                   34.36000000000001,                   238.52000000000004 61.24000000000001,                   238.52000000000004" fill = "none" stroke = "black" /> 
<polyline points = "20.2,243.32000000000002                       31.960000000000004,243.32000000000002"                       fill = "none" stroke = "black" /> 
<polyline points = "                   34.36000000000001,                   243.32000000000002 61.24000000000001,                   243.32000000000002" fill = "none" stroke = "black" /> 
<polyline points = "20.2,248.12                       31.960000000000004,248.12"                       fill = "none" stroke = "black" /> 
<polyline points = "                   34.36000000000001,                   248.12 61.24000000000001,                   248.12" fill = "none" stroke = "black" /> 
<polyline points = "20.2,252.92000000000002                       31.960000000000004,252.92000000000002"                       fill = "none" stroke = "black" /> 
<polyline points = "                   34.36000000000001,                   252.92000000000002 61.24000000000001,                   252.92000000000002" fill = "none" stroke = "black" /> 
<polyline points = "20.2,257.72                       31.960000000000004,257.72"                       fill = "none" stroke = "black" /> 
<polyline points = "                   34.36000000000001,                   257.72 61.24000000000001,                   257.72" fill = "none" stroke = "black" /> 
<polyline points = "20.2,262.52000000000004                       31.960000000000004,262.52000000000004"                       fill = "none" stroke = "black" /> 
<polyline points = "                   34.36000000000001,                   262.52000000000004 61.24000000000001,                   262.52000000000004" fill = "none" stroke = "black" /> 
<polyline points = "20.2,267.32                       31.960000000000004,267.32"                       fill = "none" stroke = "black" /> 
<polyline points = "                   34.36000000000001,                   267.32 61.24000000000001,                   267.32" fill = "none" stroke = "black" /> 
<polyline points = "20.2,272.12000000000006                       31.960000000000004,272.12000000000006"                       fill = "none" stroke = "black" /> 
<polyline points = "                   34.36000000000001,                   272.12000000000006 61.24000000000001,                   272.12000000000006" fill = "none" stroke = "black" /> 
<polyline points = "20.2,276.92                       31.960000000000004,276.92"                       fill = "none" stroke = "black" /> 
<polyline points = "                   34.36000000000001,                   276.92 61.24000000000001,                   276.92" fill = "none" stroke = "black" /> 
<polyline points = "20.2,281.72                       31.960000000000004,281.72"                       fill = "none" stroke = "black" /> 
<polyline points = "                   34.36000000000001,                   281.72 61.24000000000001,                   281.72" fill = "none" stroke = "black" /> 
<polyline points = "20.2,286.52000000000004                       31.960000000000004,286.52000000000004"                       fill = "none" stroke = "black" /> 
<polyline points = "                   34.36000000000001,                   286.52000000000004 61.24000000000001,                   286.52000000000004" fill = "none" stroke = "black" /> 
<polyline points = "20.2,291.32                       31.960000000000004,291.32"                       fill = "none" stroke = "black" /> 
<polyline points = "                   34.36000000000001,                   291.32 61.24000000000001,                   291.32" fill = "none" stroke = "black" /> 
<polyline points = "20.2,296.12000000000006                       31.960000000000004,296.12000000000006"                       fill = "none" stroke = "black" /> 
<polyline points = "                   34.36000000000001,                   296.12000000000006 61.24000000000001,                   296.12000000000006" fill = "none" stroke = "black" /> 
<polyline points = "                   63.64000000000001,                   166.52 90.52000000000001,                   166.52" fill = "none" stroke = "black" /> 
<polyline points = "                   63.64000000000001,                   171.32000000000002 90.52000000000001,                   171.32000000000002" fill = "none" stroke = "black" /> 
<polyline points = "                   63.64000000000001,                   176.12 90.52000000000001,                   176.12" fill = "none" stroke = "black" /> 
<polyline points = "                   63.64000000000001,                   180.92000000000002 90.52000000000001,                   180.92000000000002" fill = "none" stroke = "black" /> 
<polyline points = "                   63.64000000000001,                   185.72000000000003 90.52000000000001,                   185.72000000000003" fill = "none" stroke = "black" /> 
<polyline points = "                   63.64000000000001,                   190.52 90.52000000000001,                   190.52" fill = "none" stroke = "black" /> 
<polyline points = "                   63.64000000000001,                   195.32000000000002 90.52000000000001,                   195.32000000000002" fill = "none" stroke = "black" /> 
<polyline points = "                   63.64000000000001,                   200.12 90.52000000000001,                   200.12" fill = "none" stroke = "black" /> 
<polyline points = "                   63.64000000000001,                   204.92000000000002 90.52000000000001,                   204.92000000000002" fill = "none" stroke = "black" /> 
<polyline points = "                   63.64000000000001,                   209.72000000000003 90.52000000000001,                   209.72000000000003" fill = "none" stroke = "black" /> 
<polyline points = "                   63.64000000000001,                   214.52 90.52000000000001,                   214.52" fill = "none" stroke = "black" /> 
<polyline points = "                   63.64000000000001,                   219.32000000000002 90.52000000000001,                   219.32000000000002" fill = "none" stroke = "black" /> 
<polyline points = "                   63.64000000000001,                   224.12 90.52000000000001,                   224.12" fill = "none" stroke = "black" /> 
<polyline points = "                   63.64000000000001,                   228.92000000000002 90.52000000000001,                   228.92000000000002" fill = "none" stroke = "black" /> 
<polyline points = "                   63.64000000000001,                   233.72000000000003 90.52000000000001,                   233.72000000000003" fill = "none" stroke = "black" /> 
<polyline points = "                   63.64000000000001,                   238.52000000000004 90.52000000000001,                   238.52000000000004" fill = "none" stroke = "black" /> 
<polyline points = "                   63.64000000000001,                   243.32000000000002 90.52000000000001,                   243.32000000000002" fill = "none" stroke = "black" /> 
<polyline points = "                   63.64000000000001,                   248.12 90.52000000000001,                   248.12" fill = "none" stroke = "black" /> 
<polyline points = "                   63.64000000000001,                   252.92000000000002 90.52000000000001,                   252.92000000000002" fill = "none" stroke = "black" /> 
<polyline points = "                   63.64000000000001,                   257.72 90.52000000000001,                   257.72" fill = "none" stroke = "black" /> 
<polyline points = "                   63.64000000000001,                   262.52000000000004 90.52000000000001,                   262.52000000000004" fill = "none" stroke = "black" /> 
<polyline points = "                   63.64000000000001,                   267.32 90.52000000000001,                   267.32" fill = "none" stroke = "black" /> 
<polyline points = "                   63.64000000000001,                   272.12000000000006 90.52000000000001,                   272.12000000000006" fill = "none" stroke = "black" /> 
<polyline points = "                   63.64000000000001,                   276.92 90.52000000000001,                   276.92" fill = "none" stroke = "black" /> 
<polyline points = "                   63.64000000000001,                   281.72 90.52000000000001,                   281.72" fill = "none" stroke = "black" /> 
<polyline points = "                   63.64000000000001,                   286.52000000000004 90.52000000000001,                   286.52000000000004" fill = "none" stroke = "black" /> 
<polyline points = "                   63.64000000000001,                   291.32 90.52000000000001,                   291.32" fill = "none" stroke = "black" /> 
<polyline points = "                   63.64000000000001,                   296.12000000000006 90.52000000000001,                   296.12000000000006" fill = "none" stroke = "black" /> 
<polyline points = "                   92.92000000000002,                   166.52 119.80000000000001,                   166.52" fill = "none" stroke = "black" /> 
<polyline points = "                   92.92000000000002,                   171.32000000000002 119.80000000000001,                   171.32000000000002" fill = "none" stroke = "black" /> 
<polyline points = "                   92.92000000000002,                   176.12 119.80000000000001,                   176.12" fill = "none" stroke = "black" /> 
<polyline points = "                   92.92000000000002,                   180.92000000000002 119.80000000000001,                   180.92000000000002" fill = "none" stroke = "black" /> 
<polyline points = "                   92.92000000000002,                   185.72000000000003 119.80000000000001,                   185.72000000000003" fill = "none" stroke = "black" /> 
<polyline points = "                   92.92000000000002,                   190.52 119.80000000000001,                   190.52" fill = "none" stroke = "black" /> 
<polyline points = "                   92.92000000000002,                   195.32000000000002 119.80000000000001,                   195.32000000000002" fill = "none" stroke = "black" /> 
<polyline points = "                   92.92000000000002,                   200.12 119.80000000000001,                   200.12" fill = "none" stroke = "black" /> 
<polyline points = "                   92.92000000000002,                   204.92000000000002 119.80000000000001,                   204.92000000000002" fill = "none" stroke = "black" /> 
<polyline points = "                   92.92000000000002,                   209.72000000000003 119.80000000000001,                   209.72000000000003" fill = "none" stroke = "black" /> 
<polyline points = "                   92.92000000000002,                   214.52 119.80000000000001,                   214.52" fill = "none" stroke = "black" /> 
<polyline points = "                   92.92000000000002,                   219.32000000000002 119.80000000000001,                   219.32000000000002" fill = "none" stroke = "black" /> 
<polyline points = "                   92.92000000000002,                   224.12 119.80000000000001,                   224.12" fill = "none" stroke = "black" /> 
<polyline points = "                   92.92000000000002,                   228.92000000000002 119.80000000000001,                   228.92000000000002" fill = "none" stroke = "black" /> 
<polyline points = "                   92.92000000000002,                   233.72000000000003 119.80000000000001,                   233.72000000000003" fill = "none" stroke = "black" /> 
<polyline points = "                   92.92000000000002,                   238.52000000000004 119.80000000000001,                   238.52000000000004" fill = "none" stroke = "black" /> 
<polyline points = "                   92.92000000000002,                   243.32000000000002 119.80000000000001,                   243.32000000000002" fill = "none" stroke = "black" /> 
<polyline points = "                   92.92000000000002,                   248.12 119.80000000000001,                   248.12" fill = "none" stroke = "black" /> 
<polyline points = "                   92.92000000000002,                   252.92000000000002 119.80000000000001,                   252.92000000000002" fill = "none" stroke = "black" /> 
<polyline points = "                   92.92000000000002,                   257.72 119.80000000000001,                   257.72" fill = "none" stroke = "black" /> 
<polyline points = "                   92.92000000000002,                   262.52000000000004 119.80000000000001,                   262.52000000000004" fill = "none" stroke = "black" /> 
<polyline points = "                   92.92000000000002,                   267.32 119.80000000000001,                   267.32" fill = "none" stroke = "black" /> 
<polyline points = "                   92.92000000000002,                   272.12000000000006 119.80000000000001,                   272.12000000000006" fill = "none" stroke = "black" /> 
<polyline points = "                   92.92000000000002,                   276.92 119.80000000000001,                   276.92" fill = "none" stroke = "black" /> 
<polyline points = "                   92.92000000000002,                   281.72 119.80000000000001,                   281.72" fill = "none" stroke = "black" /> 
<polyline points = "                   92.92000000000002,                   286.52000000000004 119.80000000000001,                   286.52000000000004" fill = "none" stroke = "black" /> 
<polyline points = "                   92.92000000000002,                   291.32 119.80000000000001,                   291.32" fill = "none" stroke = "black" /> 
<polyline points = "                   92.92000000000002,                   296.12000000000006 119.80000000000001,                   296.12000000000006" fill = "none" stroke = "black" /> 
<polyline points = "                   122.20000000000002,                   166.52 149.08,                   166.52" fill = "none" stroke = "black" /> 
<polyline points = "                   122.20000000000002,                   171.32000000000002 149.08,                   171.32000000000002" fill = "none" stroke = "black" /> 
<polyline points = "                   122.20000000000002,                   176.12 149.08,                   176.12" fill = "none" stroke = "black" /> 
<polyline points = "                   122.20000000000002,                   180.92000000000002 149.08,                   180.92000000000002" fill = "none" stroke = "black" /> 
<polyline points = "                   122.20000000000002,                   185.72000000000003 149.08,                   185.72000000000003" fill = "none" stroke = "black" /> 
<polyline points = "                   122.20000000000002,                   190.52 149.08,                   190.52" fill = "none" stroke = "black" /> 
<polyline points = "                   122.20000000000002,                   195.32000000000002 149.08,                   195.32000000000002" fill = "none" stroke = "black" /> 
<polyline points = "                   122.20000000000002,                   200.12 149.08,                   200.12" fill = "none" stroke = "black" /> 
<polyline points = "                   122.20000000000002,                   204.92000000000002 149.08,                   204.92000000000002" fill = "none" stroke = "black" /> 
<polyline points = "                   122.20000000000002,                   209.72000000000003 149.08,                   209.72000000000003" fill = "none" stroke = "black" /> 
<polyline points = "                   122.20000000000002,                   214.52 149.08,                   214.52" fill = "none" stroke = "black" /> 
<polyline points = "                   122.20000000000002,                   219.32000000000002 149.08,                   219.32000000000002" fill = "none" stroke = "black" /> 
<polyline points = "                   122.20000000000002,                   224.12 149.08,                   224.12" fill = "none" stroke = "black" /> 
<polyline points = "                   122.20000000000002,                   228.92000000000002 149.08,                   228.92000000000002" fill = "none" stroke = "black" /> 
<polyline points = "                   122.20000000000002,                   233.72000000000003 149.08,                   233.72000000000003" fill = "none" stroke = "black" /> 
<polyline points = "                   122.20000000000002,                   238.52000000000004 149.08,                   238.52000000000004" fill = "none" stroke = "black" /> 
<polyline points = "                   122.20000000000002,                   243.32000000000002 149.08,                   243.32000000000002" fill = "none" stroke = "black" /> 
<polyline points = "                   122.20000000000002,                   248.12 149.08,                   248.12" fill = "none" stroke = "black" /> 
<polyline points = "                   122.20000000000002,                   252.92000000000002 149.08,                   252.92000000000002" fill = "none" stroke = "black" /> 
<polyline points = "                   122.20000000000002,                   257.72 149.08,                   257.72" fill = "none" stroke = "black" /> 
<polyline points = "                   122.20000000000002,                   262.52000000000004 149.08,                   262.52000000000004" fill = "none" stroke = "black" /> 
<polyline points = "                   122.20000000000002,                   267.32 149.08,                   267.32" fill = "none" stroke = "black" /> 
<polyline points = "                   122.20000000000002,                   272.12000000000006 149.08,                   272.12000000000006" fill = "none" stroke = "black" /> 
<polyline points = "                   122.20000000000002,                   276.92 149.08,                   276.92" fill = "none" stroke = "black" /> 
<polyline points = "                   122.20000000000002,                   281.72 149.08,                   281.72" fill = "none" stroke = "black" /> 
<polyline points = "                   122.20000000000002,                   286.52000000000004 149.08,                   286.52000000000004" fill = "none" stroke = "black" /> 
<polyline points = "                   122.20000000000002,                   291.32 149.08,                   291.32" fill = "none" stroke = "black" /> 
<polyline points = "                   122.20000000000002,                   296.12000000000006 149.08,                   296.12000000000006" fill = "none" stroke = "black" /> 
<polyline points = "                   151.48000000000002,                   166.52 178.36,                   166.52" fill = "none" stroke = "black" /> 
<polyline points = "                   151.48000000000002,                   171.32000000000002 178.36,                   171.32000000000002" fill = "none" stroke = "black" /> 
<polyline points = "                   151.48000000000002,                   176.12 178.36,                   176.12" fill = "none" stroke = "black" /> 
<polyline points = "                   151.48000000000002,                   180.92000000000002 178.36,                   180.92000000000002" fill = "none" stroke = "black" /> 
<polyline points = "                   151.48000000000002,                   185.72000000000003 178.36,                   185.72000000000003" fill = "none" stroke = "black" /> 
<polyline points = "                   151.48000000000002,                   190.52 178.36,                   190.52" fill = "none" stroke = "black" /> 
<polyline points = "                   151.48000000000002,                   195.32000000000002 178.36,                   195.32000000000002" fill = "none" stroke = "black" /> 
<polyline points = "                   151.48000000000002,                   200.12 178.36,                   200.12" fill = "none" stroke = "black" /> 
<polyline points = "                   151.48000000000002,                   204.92000000000002 178.36,                   204.92000000000002" fill = "none" stroke = "black" /> 
<polyline points = "                   151.48000000000002,                   209.72000000000003 178.36,                   209.72000000000003" fill = "none" stroke = "black" /> 
<polyline points = "                   151.48000000000002,                   214.52 178.36,                   214.52" fill = "none" stroke = "black" /> 
<polyline points = "                   151.48000000000002,                   219.32000000000002 178.36,                   219.32000000000002" fill = "none" stroke = "black" /> 
<polyline points = "                   151.48000000000002,                   224.12 178.36,                   224.12" fill = "none" stroke = "black" /> 
<polyline points = "                   151.48000000000002,                   228.92000000000002 178.36,                   228.92000000000002" fill = "none" stroke = "black" /> 
<polyline points = "                   151.48000000000002,                   233.72000000000003 178.36,                   233.72000000000003" fill = "none" stroke = "black" /> 
<polyline points = "                   151.48000000000002,                   238.52000000000004 178.36,                   238.52000000000004" fill = "none" stroke = "black" /> 
<polyline points = "                   151.48000000000002,                   243.32000000000002 178.36,                   243.32000000000002" fill = "none" stroke = "black" /> 
<polyline points = "                   151.48000000000002,                   248.12 178.36,                   248.12" fill = "none" stroke = "black" /> 
<polyline points = "                   151.48000000000002,                   252.92000000000002 178.36,                   252.92000000000002" fill = "none" stroke = "black" /> 
<polyline points = "                   151.48000000000002,                   257.72 178.36,                   257.72" fill = "none" stroke = "black" /> 
<polyline points = "                   151.48000000000002,                   262.52000000000004 178.36,                   262.52000000000004" fill = "none" stroke = "black" /> 
<polyline points = "                   151.48000000000002,                   267.32 178.36,                   267.32" fill = "none" stroke = "black" /> 
<polyline points = "                   151.48000000000002,                   272.12000000000006 178.36,                   272.12000000000006" fill = "none" stroke = "black" /> 
<polyline points = "                   151.48000000000002,                   276.92 178.36,                   276.92" fill = "none" stroke = "black" /> 
<polyline points = "                   151.48000000000002,                   281.72 178.36,                   281.72" fill = "none" stroke = "black" /> 
<polyline points = "                   151.48000000000002,                   286.52000000000004 178.36,                   286.52000000000004" fill = "none" stroke = "black" /> 
<polyline points = "                   151.48000000000002,                   291.32 178.36,                   291.32" fill = "none" stroke = "black" /> 
<polyline points = "                   151.48000000000002,                   296.12000000000006 178.36,                   296.12000000000006" fill = "none" stroke = "black" /> 
<polyline points = "                   180.76000000000002,                   166.52 207.64000000000004,                   166.52" fill = "none" stroke = "black" /> 
<polyline points = "                       210.04000000000002,                       166.52                       221.80000000000004,                       166.52" fill = "none" stroke = "black" /> 
<polyline points = "22.6,                       168.92000000000002 219.4,                       168.92000000000002" fill = "none" stroke = "black" /> 
<polyline points = "                   180.76000000000002,                   171.32000000000002 207.64000000000004,                   171.32000000000002" fill = "none" stroke = "black" /> 
<polyline points = "                       210.04000000000002,                       171.32000000000002                       221.80000000000004,                       171.32000000000002" fill = "none" stroke = "black" /> 
<polyline points = "22.6,                       173.72 219.4,                       173.72" fill = "none" stroke = "black" /> 
<polyline points = "                   180.76000000000002,                   176.12 207.64000000000004,                   176.12" fill = "none" stroke = "black" /> 
<polyline points = "                       210.04000000000002,                       176.12                       221.80000000000004,                       176.12" fill = "none" stroke = "black" /> 
<polyline points = "22.6,                       178.51999999999998 219.4,                       178.51999999999998" fill = "none" stroke = "black" /> 
<polyline points = "                   180.76000000000002,                   180.92000000000002 207.64000000000004,                   180.92000000000002" fill = "none" stroke = "black" /> 
<polyline points = "                       210.04000000000002,                       180.92000000000002                       221.80000000000004,                       180.92000000000002" fill = "none" stroke = "black" /> 
<polyline points = "22.6,                       183.32 219.4,                       183.32" fill = "none" stroke = "black" /> 
<polyline points = "                   180.76000000000002,                   185.72000000000003 207.64000000000004,                   185.72000000000003" fill = "none" stroke = "black" /> 
<polyline points = "                       210.04000000000002,                       185.72000000000003                       221.80000000000004,                       185.72000000000003" fill = "none" stroke = "black" /> 
<polyline points = "22.6,                       188.12 219.4,                       188.12" fill = "none" stroke = "black" /> 
<polyline points = "                   180.76000000000002,                   190.52 207.64000000000004,                   190.52" fill = "none" stroke = "black" /> 
<polyline points = "                       210.04000000000002,                       190.52                       221.80000000000004,                       190.52" fill = "none" stroke = "black" /> 
<polyline points = "22.6,                       192.92000000000002 219.4,                       192.92000000000002" fill = "none" stroke = "black" /> 
<polyline points = "                   180.76000000000002,                   195.32000000000002 207.64000000000004,                   195.32000000000002" fill = "none" stroke = "black" /> 
<polyline points = "                       210.04000000000002,                       195.32000000000002                       221.80000000000004,                       195.32000000000002" fill = "none" stroke = "black" /> 
<polyline points = "22.6,                       197.72 219.4,                       197.72" fill = "none" stroke = "black" /> 
<polyline points = "                   180.76000000000002,                   200.12 207.64000000000004,                   200.12" fill = "none" stroke = "black" /> 
<polyline points = "                       210.04000000000002,                       200.12                       221.80000000000004,                       200.12" fill = "none" stroke = "black" /> 
<polyline points = "22.6,                       202.52 219.4,                       202.52" fill = "none" stroke = "black" /> 
<polyline points = "                   180.76000000000002,                   204.92000000000002 207.64000000000004,                   204.92000000000002" fill = "none" stroke = "black" /> 
<polyline points = "                       210.04000000000002,                       204.92000000000002                       221.80000000000004,                       204.92000000000002" fill = "none" stroke = "black" /> 
<polyline points = "22.6,                       207.32 219.4,                       207.32" fill = "none" stroke = "black" /> 
<polyline points = "                   180.76000000000002,                   209.72000000000003 207.64000000000004,                   209.72000000000003" fill = "none" stroke = "black" /> 
<polyline points = "                       210.04000000000002,                       209.72000000000003                       221.80000000000004,                       209.72000000000003" fill = "none" stroke = "black" /> 
<polyline points = "22.6,                       212.12 219.4,                       212.12" fill = "none" stroke = "black" /> 
<polyline points = "                   180.76000000000002,                   214.52 207.64000000000004,                   214.52" fill = "none" stroke = "black" /> 
<polyline points = "                       210.04000000000002,                       214.52                       221.80000000000004,                       214.52" fill = "none" stroke = "black" /> 
<polyline points = "22.6,                       216.92000000000002 219.4,                       216.92000000000002" fill = "none" stroke = "black" /> 
<polyline points = "                   180.76000000000002,                   219.32000000000002 207.64000000000004,                   219.32000000000002" fill = "none" stroke = "black" /> 
<polyline points = "                       210.04000000000002,                       219.32000000000002                       221.80000000000004,                       219.32000000000002" fill = "none" stroke = "black" /> 
<polyline points = "22.6,                       221.72 219.4,                       221.72" fill = "none" stroke = "black" /> 
<polyline points = "                   180.76000000000002,                   224.12 207.64000000000004,                   224.12" fill = "none" stroke = "black" /> 
<polyline points = "                       210.04000000000002,                       224.12                       221.80000000000004,                       224.12" fill = "none" stroke = "black" /> 
<polyline points = "22.6,                       226.52 219.4,                       226.52" fill = "none" stroke = "black" /> 
<polyline points = "                   180.76000000000002,                   228.92000000000002 207.64000000000004,                   228.92000000000002" fill = "none" stroke = "black" /> 
<polyline points = "                       210.04000000000002,                       228.92000000000002                       221.80000000000004,                       228.92000000000002" fill = "none" stroke = "black" /> 
<polyline points = "22.6,                       231.32000000000002 219.4,                       231.32000000000002" fill = "none" stroke = "black" /> 
<polyline points = "                   180.76000000000002,                   233.72000000000003 207.64000000000004,                   233.72000000000003" fill = "none" stroke = "black" /> 
<polyline points = "                       210.04000000000002,                       233.72000000000003                       221.80000000000004,                       233.72000000000003" fill = "none" stroke = "black" /> 
<polyline points = "22.6,                       236.12 219.4,                       236.12" fill = "none" stroke = "black" /> 
<polyline points = "                   180.76000000000002,                   238.52000000000004 207.64000000000004,                   238.52000000000004" fill = "none" stroke = "black" /> 
<polyline points = "                       210.04000000000002,                       238.52000000000004                       221.80000000000004,                       238.52000000000004" fill = "none" stroke = "black" /> 
<polyline points = "22.6,                       240.92000000000002 219.4,                       240.92000000000002" fill = "none" stroke = "black" /> 
<polyline points = "                   180.76000000000002,                   243.32000000000002 207.64000000000004,                   243.32000000000002" fill = "none" stroke = "black" /> 
<polyline points = "                       210.04000000000002,                       243.32000000000002                       221.80000000000004,                       243.32000000000002" fill = "none" stroke = "black" /> 
<polyline points = "22.6,                       245.72 219.4,                       245.72" fill = "none" stroke = "black" /> 
<polyline points = "                   180.76000000000002,                   248.12 207.64000000000004,                   248.12" fill = "none" stroke = "black" /> 
<polyline points = "                       210.04000000000002,                       248.12                       221.80000000000004,                       248.12" fill = "none" stroke = "black" /> 
<polyline points = "22.6,                       250.52 219.4,                       250.52" fill = "none" stroke = "black" /> 
<polyline points = "                   180.76000000000002,                   252.92000000000002 207.64000000000004,                   252.92000000000002" fill = "none" stroke = "black" /> 
<polyline points = "                       210.04000000000002,                       252.92000000000002                       221.80000000000004,                       252.92000000000002" fill = "none" stroke = "black" /> 
<polyline points = "22.6,                       255.32000000000002 219.4,                       255.32000000000002" fill = "none" stroke = "black" /> 
<polyline points = "                   180.76000000000002,                   257.72 207.64000000000004,                   257.72" fill = "none" stroke = "black" /> 
<polyline points = "                       210.04000000000002,                       257.72                       221.80000000000004,                       257.72" fill = "none" stroke = "black" /> 
<polyline points = "22.6,                       260.12000000000006 219.4,                       260.12000000000006" fill = "none" stroke = "black" /> 
<polyline points = "                   180.76000000000002,                   262.52000000000004 207.64000000000004,                   262.52000000000004" fill = "none" stroke = "black" /> 
<polyline points = "                       210.04000000000002,                       262.52000000000004                       221.80000000000004,                       262.52000000000004" fill = "none" stroke = "black" /> 
<polyline points = "22.6,                       264.9200000000001 219.4,                       264.9200000000001" fill = "none" stroke = "black" /> 
<polyline points = "                   180.76000000000002,                   267.32 207.64000000000004,                   267.32" fill = "none" stroke = "black" /> 
<polyline points = "                       210.04000000000002,                       267.32                       221.80000000000004,                       267.32" fill = "none" stroke = "black" /> 
<polyline points = "22.6,                       269.72 219.4,                       269.72" fill = "none" stroke = "black" /> 
<polyline points = "                   180.76000000000002,                   272.12000000000006 207.64000000000004,                   272.12000000000006" fill = "none" stroke = "black" /> 
<polyline points = "                       210.04000000000002,                       272.12000000000006                       221.80000000000004,                       272.12000000000006" fill = "none" stroke = "black" /> 
<polyline points = "22.6,                       274.52000000000004 219.4,                       274.52000000000004" fill = "none" stroke = "black" /> 
<polyline points = "                   180.76000000000002,                   276.92 207.64000000000004,                   276.92" fill = "none" stroke = "black" /> 
<polyline points = "                       210.04000000000002,                       276.92                       221.80000000000004,                       276.92" fill = "none" stroke = "black" /> 
<polyline points = "22.6,                       279.32000000000005 219.4,                       279.32000000000005" fill = "none" stroke = "black" /> 
<polyline points = "                   180.76000000000002,                   281.72 207.64000000000004,                   281.72" fill = "none" stroke = "black" /> 
<polyline points = "                       210.04000000000002,                       281.72                       221.80000000000004,                       281.72" fill = "none" stroke = "black" /> 
<polyline points = "22.6,                       284.12000000000006 219.4,                       284.12000000000006" fill = "none" stroke = "black" /> 
<polyline points = "                   180.76000000000002,                   286.52000000000004 207.64000000000004,                   286.52000000000004" fill = "none" stroke = "black" /> 
<polyline points = "                       210.04000000000002,                       286.52000000000004                       221.80000000000004,                       286.52000000000004" fill = "none" stroke = "black" /> 
<polyline points = "22.6,                       288.9200000000001 219.4,                       288.9200000000001" fill = "none" stroke = "black" /> 
<polyline points = "                   180.76000000000002,                   291.32 207.64000000000004,                   291.32" fill = "none" stroke = "black" /> 
<polyline points = "                       210.04000000000002,                       291.32                       221.80000000000004,                       291.32" fill = "none" stroke = "black" /> 
<polyline points = "22.6,                       293.72 219.4,                       293.72" fill = "none" stroke = "black" /> 
<polyline points = "                   180.76000000000002,                   296.12000000000006 207.64000000000004,                   296.12000000000006" fill = "none" stroke = "black" /> 
<polyline points = "                       210.04000000000002,                       296.12000000000006                       221.80000000000004,                       296.12000000000006" fill = "none" stroke = "black" /> 
<polyline points = "22.6,                       298.5200000000001 219.4,                       298.5200000000001" fill = "none" stroke = "black" /> 
<polyline points = "515.0,87.60000000000001 515.3862785561826,88.24287547552659" fill = "none" stroke = "red" /> 
<polyline points = "515.0,87.60000000000001 515.3862785561826,88.24287547552659" fill = "none" stroke = "red" /> 
<polyline points = "515.3862785561826,88.24287547552659 514.2957926558212,88.9244213892884" fill = "none" stroke = "red" /> 
<polyline points = "514.2957926558212,88.9244213892884 512.7530835468023,87.71775590154664" fill = "none" stroke = "red" /> 
<polyline points = "512.7530835468023,87.71775590154664 513.3224212895877,85.11288728233488" fill = "none" stroke = "red" /> 
<polyline points = "513.3224212895877,85.11288728233488 516.5848184815276,84.20134579861258" fill = "none" stroke = "red" /> 
<polyline points = "516.5848184815276,84.20134579861258 519.4753485291573,87.12962191529557" fill = "none" stroke = "red" /> 
<polyline points = "519.4753485291573,87.12962191529557 518.1595288715482,91.7928364277483" fill = "none" stroke = "red" /> 
<polyline points = "518.1595288715482,91.7928364277483 512.7523604395045,93.16310312740073" fill = "none" stroke = "red" /> 
<polyline points = "512.7523604395045,93.16310312740073 508.3331037009828,88.65593263902157" fill = "none" stroke = "red" /> 
<polyline points = "508.3331037009828,88.65593263902157 510.17909292735095,81.85466667660768" fill = "none" stroke = "red" /> 
<polyline points = "510.17909292735095,81.85466667660768 517.6859372742715,79.79947175130565" fill = "none" stroke = "red" /> 
<polyline points = "517.6859372742715,79.79947175130565 523.8033284066042,85.72879478264018" fill = "none" stroke = "red" /> 
<polyline points = "523.8033284066042,85.72879478264018 521.6494840106094,94.73069859078691" fill = "none" stroke = "red" /> 
<polyline points = "521.6494840106094,94.73069859078691 512.1058077639215,97.69324780735235" fill = "none" stroke = "red" /> 
<polyline points = "512.1058077639215,97.69324780735235 504.133334454248,90.51171425740337" fill = "none" stroke = "red" /> 
<polyline points = "504.133334454248,90.51171425740337 506.36792239593615,79.26409955449206" fill = "none" stroke = "red" /> 
<polyline points = "506.36792239593615,79.26409955449206 517.8681259428843,75.17678167398824" fill = "none" stroke = "red" /> 
<polyline points = "517.8681259428843,75.17678167398824 527.8392629699846,83.42827057593819" fill = "none" stroke = "red" /> 
<polyline points = "527.8392629699846,83.42827057593819 525.7546115181744,96.94884116311475" fill = "none" stroke = "red" /> 
<polyline points = "525.7546115181744,96.94884116311475 512.3952773349961,102.37211629518313" fill = "none" stroke = "red" /> 
<polyline points = "512.3952773349961,102.37211629518313 500.2961082826691,93.24429520533847" fill = "none" stroke = "red" /> 
<polyline points = "500.2961082826691,93.24429520533847 501.9978225654891,77.44158565712664" fill = "none" stroke = "red" /> 
<polyline points = "501.9978225654891,77.44158565712664 517.1022461737388,70.4785788841872" fill = "none" stroke = "red" /> 
<polyline points = "517.1022461737388,70.4785788841872 531.4438182375668,80.27874042463561" fill = "none" stroke = "red" /> 
<polyline points = "531.4438182375668,80.27874042463561 530.3591008304186,98.35455818158206" fill = "none" stroke = "red" /> 
<polyline points = "530.3591008304186,98.35455818158206 513.6397487619896,107.05249898006659" fill = "none" stroke = "red" /> 
<polyline points = "513.6397487619896,107.05249898006659 496.9571178851856,96.7933076197259" fill = "none" stroke = "red" /> 
<polyline points = "496.9571178851856,96.7933076197259 497.1909899807151,76.4716954511027" fill = "none" stroke = "red" /> 
<polyline points = "497.1909899807151,76.4716954511027 515.3795898400108,65.8533126303485" fill = "none" stroke = "red" /> 
<polyline points = "515.3795898400108,65.8533126303485 534.4855715851498,76.35" fill = "none" stroke = "red" /> 
<polyline points = "534.4855715851498,76.35 535.334908190991,98.87182367072734" fill = "none" stroke = "red" /> 
<polyline points = "535.334908190991,98.87182367072734 515.8375879208601,111.5853798484583" fill = "none" stroke = "red" /> 
<polyline points = "515.8375879208601,111.5853798484583 494.24290344335077,101.07981611662196" fill = "none" stroke = "red" /> 
<polyline points = "494.24290344335077,101.07981611662196 492.0807518193712,76.42153575687864" fill = "none" stroke = "red" /> 
<polyline points = "492.0807518193712,76.42153575687864 512.712161752874,61.44988917509169" fill = "none" stroke = "red" /> 
<polyline points = "512.712161752874,61.44988917509169 536.8434588481235,71.72979818810313" fill = "none" stroke = "red" /> 
<polyline points = "536.8434588481235,71.72979818810313 540.5440096833053,98.44278881557732" fill = "none" stroke = "red" /> 
<polyline points = "540.5440096833053,98.44278881557732 518.9664333773618,115.82263995913476" fill = "none" stroke = "red" /> 
<polyline points = "518.9664333773618,115.82263995913476 492.2684806273836,106.00762143820779" fill = "none" stroke = "red" /> 
<polyline points = "492.2684806273836,106.00762143820779 486.8092213764228,77.3393957002299" fill = "none" stroke = "red" /> 
<polyline points = "486.8092213764228,77.3393957002299 509.1326233921712,57.41496410898436" fill = "none" stroke = "red" /> 
<polyline points = "509.1326233921712,57.41496410898436 538.4090620025379,66.522385899696" fill = "none" stroke = "red" /> 
<polyline points = "538.4090620025379,66.522385899696 545.8408283798079,97.02898747730819" fill = "none" stroke = "red" /> 
<polyline points = "545.8408283798079,97.02898747730819 522.9834225547891,119.6197589671079" fill = "none" stroke = "red" /> 
<polyline points = "522.9834225547891,119.6197589671079 491.1351461349541,111.46485386504605" fill = "none" stroke = "red" /> 
<polyline points = "491.1351461349541,111.46485386504605 481.5247974434781,79.25369460181145" fill = "none" stroke = "red" /> 
<polyline points = "481.5247974434781,79.25369460181145 504.6938974085234,53.89025735230304" fill = "none" stroke = "red" /> 
<polyline points = "504.6938974085234,53.89025735230304 539.0887018289189,60.846786282813824" fill = "none" stroke = "red" /> 
<polyline points = "539.0887018289189,60.846786282813824 551.0747989917016,94.61223058008791" fill = "none" stroke = "red" /> 
<polyline points = "551.0747989917016,94.61223058008791 527.8257553747128,122.83847327947149" fill = "none" stroke = "red" /> 
<polyline points = "527.8257553747128,122.83847327947149 490.9284950423438,117.32583302572922" fill = "none" stroke = "red" /> 
<polyline points = "490.9284950423438,117.32583302572922 476.3795453190788,82.17224906255746" fill = "none" stroke = "red" /> 
<polyline points = "476.3795453190788,82.17224906255746 499.46843764255124,51.00993207526557" fill = "none" stroke = "red" /> 
<polyline points = "499.46843764255124,51.00993207526557 538.8053027178449,54.83481172781446" fill = "none" stroke = "red" /> 
<polyline points = "538.8053027178449,54.83481172781446 556.0930312962845,91.19517438834103" fill = "none" stroke = "red" /> 
<polyline points = "556.0930312962845,91.19517438834103 533.4115881651413,125.349349944565" fill = "none" stroke = "red" /> 
<polyline points = "533.4115881651413,125.349349944565 491.71668125310777,123.45316677966699" fill = "none" stroke = "red" /> 
<polyline points = "491.71668125310777,123.45316677966699 471.5264990246693,86.08187189344157" fill = "none" stroke = "red" /> 
<polyline points = "471.5264990246693,86.08187189344157 493.5471743040997,48.89807795908169" fill = "none" stroke = "red" /> 
<polyline points = "493.5471743040997,48.89807795908169 537.5,48.62885682970024" fill = "none" stroke = "red" /> 
<polyline points = "537.5,48.62885682970024 560.7430320534049,86.80155240549406" fill = "none" stroke = "red" /> 
<polyline points = "560.7430320534049,86.80155240549406 539.6412457868441,127.03423647127377" fill = "none" stroke = "red" /> 
<polyline points = "539.6412457868441,127.03423647127377 493.5489488873063,129.70005826790035" fill = "none" stroke = "red" /> 
<polyline points = "493.5489488873063,129.70005826790035 467.11692558752844,90.94831073971845" fill = "none" stroke = "red" /> 
<polyline points = "467.11692558752844,90.94831073971845 487.03814872788627,47.66633784091181" fill = "none" stroke = "red" /> 
<polyline points = "487.03814872788627,47.66633784091181 535.133463832252,42.37949984669122" fill = "none" stroke = "red" /> 
<text         x = "121.00000000000001"         y = "306.0857142857143"         dominant-baseline = "central"         text-anchor = "middle"         font-size = "14px"         fill = "blue">i am a lid </text> 
<text x = "121.00000000000001" y = "87.60000000000001" dominant-baseline= "central" text-anchor= "middle" font-size = "30px" fill = "blue">i am a box </text> 
<text x = "25" y = "333.00000000000006" dy = "0">
<tspan x = "20" dy = ".6em" >BOX ATTRIBUTES </tspan>
<tspan x = "20" dy = "1.2em" >thickness: </tspan>
<tspan x = "20" dy = "1.2em" >width: </tspan>
<tspan x = "20" dy = "1.2em" >length:  </tspan>
<tspan x = "20" dy = "1.2em" >height: </tspan>
<tspan x = "20" dy = "1.2em" >partition:  </tspan>
<tspan x = "20" dy = "1.2em" >partition location: </tspan>
<tspan x = "20" dy = "1.2em" >lid: </tspan>
<tspan x = "20" dy = "1.2em" >top text: </tspan>
<tspan x = "20" dy = "1.2em" >front text: </tspan>
<tspan x = "20" dy = "1.2em" >fractal: </tspan>
<tspan x = "20" dy = "1.2em" >fractal side/bottom: </tspan>
<tspan x = "20" dy = "1.2em" >front text string: </tspan>
<tspan x = "20" dy = "1.2em" >top text string: </tspan>
</text><text x = "200" y = "333.00000000000006" dy = "0">
<tspan x = "200" dy = ".6em" > VALUES </tspan>
<tspan x = "200" dy = "1.2em" >0.125</tspan>
<tspan x = "200" dy = "1.2em" >5</tspan>
<tspan x = "200" dy = "1.2em" >4</tspan>
<tspan x = "200" dy = "1.2em" >3</tspan>
<tspan x = "200" dy = "1.2em" >True</tspan>
<tspan x = "200" dy = "1.2em" >1.0</tspan>
<tspan x = "200" dy = "1.2em" >True</tspan>
<tspan x = "200" dy = "1.2em" >True</tspan>
<tspan x = "200" dy = "1.2em" >True</tspan>
<tspan x = "200" dy = "1.2em" >True</tspan>
<tspan x = "200" dy = "1.2em" >side</tspan>
<tspan x = "200" dy = "1.2em" >i am a box</tspan>
<tspan x = "200" dy = "1.2em" >i am a lid</tspan>
</text></svg>