<?xml version = "1.0" encoding = "UTF-8" ?> 
<svg xmlns="http://www.w3.org/2000/svg" version = "1.1"> 
<line x1="75" y1="40" x2="113.4" y2 ="40" style="stroke:red;stroke:4"/>
<text x = "123.4" y = "45" font-size = "12px" fill = "red"> = 1 inch (2:5 scale) </text> 
<polyline points="75,75 382.20000000000005,75 " style="fill:none;stroke:black;stroke:2"/>
<polyline points="382.20000000000005,75.0 387.00000000000006,75.0 387.00000000000006,94.2 382.20000000000005,94.2 382.20000000000005,113.4 382.20000000000005,113.4 387.00000000000006,113.4 387.00000000000006,132.60000000000002 382.20000000000005,132.60000000000002 382.20000000000005,151.8 382.20000000000005,151.8 387.00000000000006,151.8 387.00000000000006,171.0 382.20000000000005,171.0 382.20000000000005,190.20000000000002 382.20000000000005,190.20000000000002 387.00000000000006,190.20000000000002 387.00000000000006,209.40000000000003 382.20000000000005,209.40000000000003 382.20000000000005,228.60000000000002 382.20000000000005,228.60000000000002 387.00000000000006,228.60000000000002 387.00000000000006,247.8 382.20000000000005,247.8 382.20000000000005,267.0 " style="fill:none;stroke:black;stroke:2"/>
<line x1 = "382.20000000000005" y1 = "101.91023622045002" x2 = "382.20000000000005" y2 = "105.68976377955002" style="fill:none;stroke:white;stroke:2"/>
<line x1 = "382.20000000000005" y1 = "255.51023622045005" x2 = "382.20000000000005" y2 = "259.28976377955007" style="fill:none;stroke:white;stroke:2"/>
<polyline points = "382.20000000000005,101.91023622045002 370.59685039362006,101.91023622045002 370.59685039362006,99.64251968499002 367.57322834634004,99.64251968499002 367.57322834634004,101.91023622045002 364.54960629906003,101.91023622045002 364.54960629906003,105.68976377955002 367.57322834634004,105.68976377955002 367.57322834634004,107.95748031501002 370.59685039362006,107.95748031501002 370.59685039362006,105.68976377955002 382.20000000000005,105.68976377955002" style="fill:none;stroke:black;stroke:2"/>
<polyline points = "382.20000000000005,255.51023622045005 370.59685039362006,255.51023622045005 370.59685039362006,253.24251968499004 367.57322834634004,253.24251968499004 367.57322834634004,255.51023622045005 364.54960629906003,255.51023622045005 364.54960629906003,259.28976377955007 367.57322834634004,259.28976377955007 367.57322834634004,261.55748031501 370.59685039362006,261.55748031501 370.59685039362006,259.28976377955007 382.20000000000005,259.28976377955007" style="fill:none;stroke:black;stroke:2"/>
<polyline points="382.20000000000005,267.0 382.20000000000005,271.8 363.00000000000006,271.8 363.00000000000006,267.0 343.80000000000007,267.0 343.80000000000007,267.0 343.80000000000007,271.8 324.6,271.8 324.6,267.0 305.4000000000001,267.0 305.40000000000003,267.0 305.40000000000003,271.8 286.20000000000005,271.8 286.20000000000005,267.0 267.00000000000006,267.0 267.0,267.0 267.0,271.8 247.80000000000004,271.8 247.80000000000004,267.0 228.60000000000005,267.0 228.60000000000002,267.0 228.60000000000002,271.8 209.40000000000003,271.8 209.40000000000003,267.0 190.20000000000005,267.0 190.20000000000002,267.0 190.20000000000002,271.8 171.00000000000003,271.8 171.00000000000003,267.0 151.80000000000004,267.0 151.8,267.0 151.8,271.8 132.60000000000002,271.8 132.60000000000002,267.0 113.40000000000003,267.0 113.39999999999998,267.0 113.39999999999998,271.8 94.19999999999999,271.8 94.19999999999999,267.0 75.0,267.0 " style="fill:none;stroke:black;stroke:2"/>
<polyline points="75.0,267.0 70.2,267.0 70.2,247.8 75.0,247.8 75.0,228.60000000000002 75.0,228.6 70.2,228.6 70.2,209.4 75.0,209.4 75.0,190.20000000000002 75.0,190.2 70.2,190.2 70.2,171.0 75.0,171.0 75.0,151.8 75.0,151.79999999999998 70.2,151.79999999999998 70.2,132.6 75.0,132.6 75.0,113.4 75.0,113.39999999999998 70.2,113.39999999999998 70.2,94.19999999999999 75.0,94.19999999999999 75.0,75.0 " style="fill:none;stroke:black;stroke:2"/>
<circle cx = "72.6" cy = "103.80000000000001" r = "1.88976377955" style="fill:none;stroke:black;stroke:2"/>
<circle cx = "72.6" cy = "257.40000000000003" r = "1.88976377955" style="fill:none;stroke:black;stroke:2"/>
<polyline points="416.80000000000007,75 724.0000000000001,75 " style="fill:none;stroke:black;stroke:2"/>
<polyline points="724.0000000000001,75.0 728.8000000000001,75.0 728.8000000000001,94.2 724.0000000000001,94.2 724.0000000000001,113.4 724.0000000000001,113.4 728.8000000000001,113.4 728.8000000000001,132.60000000000002 724.0000000000001,132.60000000000002 724.0000000000001,151.8 724.0000000000001,151.8 728.8000000000001,151.8 728.8000000000001,171.0 724.0000000000001,171.0 724.0000000000001,190.20000000000002 724.0000000000001,190.20000000000002 728.8000000000001,190.20000000000002 728.8000000000001,209.40000000000003 724.0000000000001,209.40000000000003 724.0000000000001,228.60000000000002 724.0000000000001,228.60000000000002 728.8000000000001,228.60000000000002 728.8000000000001,247.8 724.0000000000001,247.8 724.0000000000001,267.0 " style="fill:none;stroke:black;stroke:2"/>
<line x1 = "724.0000000000001" y1 = "101.91023622045002" x2 = "724.0000000000001" y2 = "105.68976377955002" style="fill:none;stroke:white;stroke:2"/>
<line x1 = "724.0000000000001" y1 = "255.51023622045005" x2 = "724.0000000000001" y2 = "259.28976377955007" style="fill:none;stroke:white;stroke:2"/>
<polyline points = "724.0000000000001,101.91023622045002 712.3968503936202,101.91023622045002 712.3968503936202,99.64251968499002 709.3732283463402,99.64251968499002 709.3732283463402,101.91023622045002 706.3496062990602,101.91023622045002 706.3496062990602,105.68976377955002 709.3732283463402,105.68976377955002 709.3732283463402,107.95748031501002 712.3968503936202,107.95748031501002 712.3968503936202,105.68976377955002 724.0000000000001,105.68976377955002" style="fill:none;stroke:black;stroke:2"/>
<polyline points = "724.0000000000001,255.51023622045005 712.3968503936202,255.51023622045005 712.3968503936202,253.24251968499004 709.3732283463402,253.24251968499004 709.3732283463402,255.51023622045005 706.3496062990602,255.51023622045005 706.3496062990602,259.28976377955007 709.3732283463402,259.28976377955007 709.3732283463402,261.55748031501 712.3968503936202,261.55748031501 712.3968503936202,259.28976377955007 724.0000000000001,259.28976377955007" style="fill:none;stroke:black;stroke:2"/>
<polyline points="724.0000000000001,267.0 724.0000000000001,271.8 704.8000000000001,271.8 704.8000000000001,267.0 685.6,267.0 685.6000000000001,267.0 685.6000000000001,271.8 666.4000000000001,271.8 666.4000000000001,267.0 647.2,267.0 647.2,267.0 647.2,271.8 628.0,271.8 628.0,267.0 608.8,267.0 608.8000000000001,267.0 608.8000000000001,271.8 589.6,271.8 589.6,267.0 570.4,267.0 570.4000000000001,267.0 570.4000000000001,271.8 551.2,271.8 551.2,267.0 532.0,267.0 532.0000000000001,267.0 532.0000000000001,271.8 512.8000000000001,271.8 512.8000000000001,267.0 493.6,267.0 493.6000000000001,267.0 493.6000000000001,271.8 474.40000000000003,271.8 474.40000000000003,267.0 455.2,267.0 455.20000000000005,267.0 455.20000000000005,271.8 436.0,271.8 436.0,267.0 416.79999999999995,267.0 " style="fill:none;stroke:black;stroke:2"/>
<polyline points="416.80000000000007,267.0 412.00000000000006,267.0 412.00000000000006,247.8 416.80000000000007,247.8 416.80000000000007,228.60000000000002 416.80000000000007,228.6 412.00000000000006,228.6 412.00000000000006,209.4 416.80000000000007,209.4 416.80000000000007,190.20000000000002 416.80000000000007,190.2 412.00000000000006,190.2 412.00000000000006,171.0 416.80000000000007,171.0 416.80000000000007,151.8 416.80000000000007,151.79999999999998 412.00000000000006,151.79999999999998 412.00000000000006,132.6 416.80000000000007,132.6 416.80000000000007,113.4 416.80000000000007,113.39999999999998 412.00000000000006,113.39999999999998 412.00000000000006,94.19999999999999 416.80000000000007,94.19999999999999 416.80000000000007,75.0 " style="fill:none;stroke:black;stroke:2"/>
<circle cx = "414.4000000000001" cy = "103.80000000000001" r = "1.88976377955" style="fill:none;stroke:black;stroke:2"/>
<circle cx = "414.4000000000001" cy = "257.40000000000003" r = "1.88976377955" style="fill:none;stroke:black;stroke:2"/>
<polyline points="758.6000000000001,75 912.2000000000002,75 " style="fill:none;stroke:black;stroke:2"/>
<polyline points="912.2000000000002,75.0 917.0000000000001,75.0 917.0000000000001,94.2 912.2000000000002,94.2 912.2000000000002,113.4 912.2000000000002,113.4 917.0000000000001,113.4 917.0000000000001,132.60000000000002 912.2000000000002,132.60000000000002 912.2000000000002,151.8 912.2000000000002,151.8 917.0000000000001,151.8 917.0000000000001,171.0 912.2000000000002,171.0 912.2000000000002,190.20000000000002 912.2000000000002,190.20000000000002 917.0000000000001,190.20000000000002 917.0000000000001,209.40000000000003 912.2000000000002,209.40000000000003 912.2000000000002,228.60000000000002 912.2000000000002,228.60000000000002 917.0000000000001,228.60000000000002 917.0000000000001,247.8 912.2000000000002,247.8 912.2000000000002,267.0 " style="fill:none;stroke:black;stroke:2"/>
<line x1 = "912.2000000000002" y1 = "101.91023622045002" x2 = "912.2000000000002" y2 = "105.68976377955002" style="fill:none;stroke:white;stroke:2"/>
<line x1 = "912.2000000000002" y1 = "255.51023622045005" x2 = "912.2000000000002" y2 = "259.28976377955007" style="fill:none;stroke:white;stroke:2"/>
<polyline points = "912.2000000000002,101.91023622045002 900.5968503936202,101.91023622045002 900.5968503936202,99.64251968499002 897.5732283463402,99.64251968499002 897.5732283463402,101.91023622045002 894.5496062990602,101.91023622045002 894.5496062990602,105.68976377955002 897.5732283463402,105.68976377955002 897.5732283463402,107.95748031501002 900.5968503936202,107.95748031501002 900.5968503936202,105.68976377955002 912.2000000000002,105.68976377955002" style="fill:none;stroke:black;stroke:2"/>
<polyline points = "912.2000000000002,255.51023622045005 900.5968503936202,255.51023622045005 900.5968503936202,253.24251968499004 897.5732283463402,253.24251968499004 897.5732283463402,255.51023622045005 894.5496062990602,255.51023622045005 894.5496062990602,259.28976377955007 897.5732283463402,259.28976377955007 897.5732283463402,261.55748031501 900.5968503936202,261.55748031501 900.5968503936202,259.28976377955007 912.2000000000002,259.28976377955007" style="fill:none;stroke:black;stroke:2"/>
<polyline points="912.2000000000002,267.0 912.2000000000002,271.8 893.0000000000001,271.8 893.0000000000001,267.0 873.8000000000001,267.0 873.8000000000002,267.0 873.8000000000002,271.8 854.6000000000001,271.8 854.6000000000001,267.0 835.4000000000001,267.0 835.4000000000001,267.0 835.4000000000001,271.8 816.2,271.8 816.2,267.0 797.0,267.0 797.0000000000001,267.0 797.0000000000001,271.8 777.8000000000001,271.8 777.8000000000001,267.0 758.6,267.0 " style="fill:none;stroke:black;stroke:2"/>
<polyline points="758.6000000000001,267.0 753.8000000000002,267.0 753.8000000000002,247.8 758.6000000000001,247.8 758.6000000000001,228.60000000000002 758.6000000000001,228.6 753.8000000000002,228.6 753.8000000000002,209.4 758.6000000000001,209.4 758.6000000000001,190.20000000000002 758.6000000000001,190.2 753.8000000000002,190.2 753.8000000000002,171.0 758.6000000000001,171.0 758.6000000000001,151.8 758.6000000000001,151.79999999999998 753.8000000000002,151.79999999999998 753.8000000000002,132.6 758.6000000000001,132.6 758.6000000000001,113.4 758.6000000000001,113.39999999999998 753.8000000000002,113.39999999999998 753.8000000000002,94.19999999999999 758.6000000000001,94.19999999999999 758.6000000000001,75.0 " style="fill:none;stroke:black;stroke:2"/>
<circle cx = "756.2000000000002" cy = "103.80000000000001" r = "1.88976377955" style="fill:none;stroke:black;stroke:2"/>
<circle cx = "756.2000000000002" cy = "257.40000000000003" r = "1.88976377955" style="fill:none;stroke:black;stroke:2"/>
<polyline points="946.8000000000002,75 1100.4,75 " style="fill:none;stroke:black;stroke:2"/>
<polyline points="1100.4,75.0 1105.2,75.0 1105.2,94.2 1100.4,94.2 1100.4,113.4 1100.4,113.4 1105.2,113.4 1105.2,132.60000000000002 1100.4,132.60000000000002 1100.4,151.8 1100.4,151.8 1105.2,151.8 1105.2,171.0 1100.4,171.0 1100.4,190.20000000000002 1100.4,190.20000000000002 1105.2,190.20000000000002 1105.2,209.40000000000003 1100.4,209.40000000000003 1100.4,228.60000000000002 1100.4,228.60000000000002 1105.2,228.60000000000002 1105.2,247.8 1100.4,247.8 1100.4,267.0 " style="fill:none;stroke:black;stroke:2"/>
<line x1 = "1100.4" y1 = "101.91023622045002" x2 = "1100.4" y2 = "105.68976377955002" style="fill:none;stroke:white;stroke:2"/>
<line x1 = "1100.4" y1 = "255.51023622045005" x2 = "1100.4" y2 = "259.28976377955007" style="fill:none;stroke:white;stroke:2"/>
<polyline points = "1100.4,101.91023622045002 1088.7968503936202,101.91023622045002 1088.7968503936202,99.64251968499002 1085.7732283463401,99.64251968499002 1085.7732283463401,101.91023622045002 1082.7496062990601,101.91023622045002 1082.7496062990601,105.68976377955002 1085.7732283463401,105.68976377955002 1085.7732283463401,107.95748031501002 1088.7968503936202,107.95748031501002 1088.7968503936202,105.68976377955002 1100.4,105.68976377955002" style="fill:none;stroke:black;stroke:2"/>
<polyline points = "1100.4,255.51023622045005 1088.7968503936202,255.51023622045005 1088.7968503936202,253.24251968499004 1085.7732283463401,253.24251968499004 1085.7732283463401,255.51023622045005 1082.7496062990601,255.51023622045005 1082.7496062990601,259.28976377955007 1085.7732283463401,259.28976377955007 1085.7732283463401,261.55748031501 1088.7968503936202,261.55748031501 1088.7968503936202,259.28976377955007 1100.4,259.28976377955007" style="fill:none;stroke:black;stroke:2"/>
<polyline points="1100.4,267.0 1100.4,271.8 1081.2,271.8 1081.2,267.0 1062.0,267.0 1062.0,267.0 1062.0,271.8 1042.8,271.8 1042.8,267.0 1023.6,267.0 1023.6000000000001,267.0 1023.6000000000001,271.8 1004.4000000000001,271.8 1004.4000000000001,267.0 985.2,267.0 985.2,267.0 985.2,271.8 966.0,271.8 966.0,267.0 946.8,267.0 " style="fill:none;stroke:black;stroke:2"/>
<polyline points="946.8000000000001,267.0 942.0000000000001,267.0 942.0000000000001,247.8 946.8000000000001,247.8 946.8000000000001,228.60000000000002 946.8000000000001,228.6 942.0000000000001,228.6 942.0000000000001,209.4 946.8000000000001,209.4 946.8000000000001,190.20000000000002 946.8000000000001,190.2 942.0000000000001,190.2 942.0000000000001,171.0 946.8000000000001,171.0 946.8000000000001,151.8 946.8000000000001,151.79999999999998 942.0000000000001,151.79999999999998 942.0000000000001,132.6 946.8000000000001,132.6 946.8000000000001,113.4 946.8000000000001,113.39999999999998 942.0000000000001,113.39999999999998 942.0000000000001,94.19999999999999 946.8000000000001,94.19999999999999 946.8000000000001,75.0 " style="fill:none;stroke:black;stroke:2"/>
<circle cx = "944.4000000000002" cy = "103.80000000000001" r = "1.88976377955" style="fill:none;stroke:black;stroke:2"/>
<circle cx = "944.4000000000002" cy = "257.40000000000003" r = "1.88976377955" style="fill:none;stroke:black;stroke:2"/>
<polyline points="416.80000000000007,301.6 416.80000000000007,296.8 436.00000000000006,296.8 436.00000000000006,301.6 455.20000000000005,301.6 455.20000000000005,301.6 455.20000000000005,296.8 474.4000000000001,296.8 474.4000000000001,301.6 493.6,301.6 493.6000000000001,301.6 493.6000000000001,296.8 512.8000000000001,296.8 512.8000000000001,301.6 532.0,301.6 532.0000000000001,301.6 532.0000000000001,296.8 551.2,296.8 551.2,301.6 570.4000000000001,301.6 570.4000000000001,301.6 570.4000000000001,296.8 589.6000000000001,296.8 589.6000000000001,301.6 608.8000000000001,301.6 608.8000000000001,301.6 608.8000000000001,296.8 628.0000000000001,296.8 628.0000000000001,301.6 647.2,301.6 647.2,301.6 647.2,296.8 666.4000000000001,296.8 666.4000000000001,301.6 685.6000000000001,301.6 685.6000000000001,301.6 685.6000000000001,296.8 704.8000000000002,296.8 704.8000000000002,301.6 724.0000000000001,301.6 " style="fill:none;stroke:black;stroke:2"/>
<polyline points="724.0000000000001,301.6 728.8000000000001,301.6 728.8000000000001,320.8 724.0000000000001,320.8 724.0000000000001,340.0 724.0000000000001,340.0 728.8000000000001,340.0 728.8000000000001,359.20000000000005 724.0000000000001,359.20000000000005 724.0000000000001,378.4 724.0000000000001,378.40000000000003 728.8000000000001,378.40000000000003 728.8000000000001,397.6 724.0000000000001,397.6 724.0000000000001,416.8 724.0000000000001,416.80000000000007 728.8000000000001,416.80000000000007 728.8000000000001,436.0 724.0000000000001,436.0 724.0000000000001,455.20000000000005 " style="fill:none;stroke:black;stroke:2"/>
<polyline points="724.0000000000001,455.20000000000005 724.0000000000001,460.00000000000006 704.8000000000001,460.00000000000006 704.8000000000001,455.20000000000005 685.6,455.20000000000005 685.6000000000001,455.20000000000005 685.6000000000001,460.00000000000006 666.4000000000001,460.00000000000006 666.4000000000001,455.20000000000005 647.2,455.20000000000005 647.2,455.20000000000005 647.2,460.00000000000006 628.0,460.00000000000006 628.0,455.20000000000005 608.8,455.20000000000005 608.8000000000001,455.20000000000005 608.8000000000001,460.00000000000006 589.6,460.00000000000006 589.6,455.20000000000005 570.4,455.20000000000005 570.4000000000001,455.20000000000005 570.4000000000001,460.00000000000006 551.2,460.00000000000006 551.2,455.20000000000005 532.0,455.20000000000005 532.0000000000001,455.20000000000005 532.0000000000001,460.00000000000006 512.8000000000001,460.00000000000006 512.8000000000001,455.20000000000005 493.6,455.20000000000005 493.6000000000001,455.20000000000005 493.6000000000001,460.00000000000006 474.40000000000003,460.00000000000006 474.40000000000003,455.20000000000005 455.2,455.20000000000005 455.20000000000005,455.20000000000005 455.20000000000005,460.00000000000006 436.0,460.00000000000006 436.0,455.20000000000005 416.79999999999995,455.20000000000005 " style="fill:none;stroke:black;stroke:2"/>
<polyline points="416.80000000000007,455.20000000000005 412.00000000000006,455.20000000000005 412.00000000000006,436.00000000000006 416.80000000000007,436.00000000000006 416.80000000000007,416.80000000000007 416.80000000000007,416.80000000000007 412.00000000000006,416.80000000000007 412.00000000000006,397.6 416.80000000000007,397.6 416.80000000000007,378.4000000000001 416.80000000000007,378.40000000000003 412.00000000000006,378.40000000000003 412.00000000000006,359.20000000000005 416.80000000000007,359.20000000000005 416.80000000000007,340.00000000000006 416.80000000000007,340.0 412.00000000000006,340.0 412.00000000000006,320.80000000000007 416.80000000000007,320.80000000000007 416.80000000000007,301.6 " style="fill:none;stroke:black;stroke:2"/>
</svg>