<?xml version = "1.0" encoding = "UTF-8" ?> 
<svg xmlns="http://www.w3.org/2000/svg" version = "1.1"> 
<line x1="25" y1="20" x2="63.400000000000006" y2 ="20" style="stroke:red;stroke:4"/>
<text x = "73.4" y = "25" font-size = "12px" fill = "red"> = 1 inch (2:5 scale) </text> 
<polyline points="25,30 217.00000000000003,30 " style="fill:none;stroke:black;stroke:2"/>
<polyline points="217.00000000000003,30.0 220.84000000000003,30.0 220.84000000000003,49.2 217.00000000000003,49.2 217.00000000000003,68.4 217.00000000000003,68.4 220.84000000000003,68.4 220.84000000000003,87.60000000000001 217.00000000000003,87.60000000000001 217.00000000000003,106.80000000000001 217.00000000000003,106.80000000000001 220.84000000000003,106.80000000000001 220.84000000000003,126.00000000000001 217.00000000000003,126.00000000000001 217.00000000000003,145.20000000000002 217.00000000000003,145.20000000000002 220.84000000000003,145.20000000000002 220.84000000000003,164.40000000000003 217.00000000000003,164.40000000000003 217.00000000000003,183.60000000000002 217.00000000000003,183.60000000000002 220.84000000000003,183.60000000000002 220.84000000000003,202.8 217.00000000000003,202.8 217.00000000000003,222.00000000000003 217.00000000000003,222.00000000000003 220.84000000000003,222.00000000000003 220.84000000000003,241.20000000000005 217.00000000000003,241.20000000000005 217.00000000000003,260.40000000000003 " style="fill:none;stroke:black;stroke:2"/>
<line x1 = "217.00000000000003" y1 = "57.288188976360004" x2 = "217.00000000000003" y2 = "60.311811023640004" style="fill:none;stroke:white;stroke:2"/>
<line x1 = "217.00000000000003" y1 = "249.28818897636003" x2 = "217.00000000000003" y2 = "252.31181102364002" style="fill:none;stroke:white;stroke:2"/>
<polyline points = "217.00000000000003,57.288188976360004 214.67181102364003,57.288188976360004 214.67181102364003,55.02047244090001 212.40409448818002,55.02047244090001 212.40409448818002,57.288188976360004 207.86866141726003,57.288188976360004 207.86866141726003,60.311811023640004 212.40409448818002,60.311811023640004 212.40409448818002,62.5795275591 214.67181102364003,62.5795275591 214.67181102364003,60.311811023640004 217.00000000000003,60.311811023640004" style="fill:none;stroke:black;stroke:2"/>
<polyline points = "217.00000000000003,249.28818897636003 214.67181102364003,249.28818897636003 214.67181102364003,247.02047244090005 212.40409448818002,247.02047244090005 212.40409448818002,249.28818897636003 207.86866141726003,249.28818897636003 207.86866141726003,252.31181102364002 212.40409448818002,252.31181102364002 212.40409448818002,254.57952755910003 214.67181102364003,254.57952755910003 214.67181102364003,252.31181102364002 217.00000000000003,252.31181102364002" style="fill:none;stroke:black;stroke:2"/>
<polyline points="217.00000000000003,260.40000000000003 217.00000000000003,264.24 197.8,264.24 197.8,260.40000000000003 178.60000000000002,260.40000000000003 178.60000000000002,260.40000000000003 178.60000000000002,264.24 159.4,264.24 159.4,260.40000000000003 140.20000000000002,260.40000000000003 140.20000000000002,260.40000000000003 140.20000000000002,264.24 121.0,264.24 121.0,260.40000000000003 101.80000000000001,260.40000000000003 101.80000000000001,260.40000000000003 101.80000000000001,264.24 82.6,264.24 82.6,260.40000000000003 63.400000000000006,260.40000000000003 63.400000000000006,260.40000000000003 63.400000000000006,264.24 44.19999999999999,264.24 44.19999999999999,260.40000000000003 25.0,260.40000000000003 " style="fill:none;stroke:black;stroke:2"/>
<line x1 = "33.08818897636" y1 = "260.40000000000003" x2 = "36.11181102364" y2 = "260.40000000000003" style="fill:none;stroke:white;stroke:2"/>
<line x1 = "186.68818897636004" y1 = "260.40000000000003" x2 = "189.71181102364002" y2 = "260.40000000000003" style="fill:none;stroke:white;stroke:2"/>
<polyline points = "33.08818897636,260.40000000000003 33.08818897636,258.07181102364007 30.8204724409,258.07181102364007 30.8204724409,255.80409448818006 33.08818897636,255.80409448818006 33.08818897636,251.26866141726006 36.11181102364,251.26866141726006 36.11181102364,255.80409448818006 38.3795275591,255.80409448818006 38.3795275591,258.07181102364007 36.11181102364,258.07181102364007 36.11181102364,260.40000000000003" style="fill:none;stroke:black;stroke:2"/>
<polyline points = "186.68818897636004,260.40000000000003 186.68818897636004,258.07181102364007 184.42047244090003,258.07181102364007 184.42047244090003,255.80409448818006 186.68818897636004,255.80409448818006 186.68818897636004,251.26866141726006 189.71181102364002,251.26866141726006 189.71181102364002,255.80409448818006 191.9795275591,255.80409448818006 191.9795275591,258.07181102364007 189.71181102364002,258.07181102364007 189.71181102364002,260.40000000000003" style="fill:none;stroke:black;stroke:2"/>
<polyline points="25.0,260.40000000000003 21.16,260.40000000000003 21.16,241.20000000000005 25.0,241.20000000000005 25.0,222.00000000000006 25.0,222.00000000000003 21.16,222.00000000000003 21.16,202.80000000000004 25.0,202.80000000000004 25.0,183.60000000000005 25.0,183.60000000000002 21.16,183.60000000000002 21.16,164.40000000000003 25.0,164.40000000000003 25.0,145.20000000000005 25.0,145.20000000000002 21.16,145.20000000000002 21.16,126.00000000000003 25.0,126.00000000000003 25.0,106.80000000000004 25.0,106.80000000000001 21.16,106.80000000000001 21.16,87.60000000000002 25.0,87.60000000000002 25.0,68.40000000000003 25.0,68.4 21.16,68.4 21.16,49.20000000000002 25.0,49.20000000000002 25.0,30.00000000000003 " style="fill:none;stroke:black;stroke:2"/>
<circle cx = "24.59181102364" cy = "58.800000000000004" r = "1.51181102364" style="fill:none;stroke:black;stroke:2"/>
<circle cx = "24.59181102364" cy = "250.80000000000004" r = "1.51181102364" style="fill:none;stroke:black;stroke:2"/>
<polyline points="225.84000000000003,30 292.40000000000003,30 292.40000000000003,26.16 358.96000000000004,26.16 358.96000000000004,30 425.5200000000001,30" style="fill:none;stroke:black;stroke:2"/>
<line x1 = "260.16818897636006" y1 = "30" x2 = "263.19181102364007" y2 = "30" style="fill:none;stroke:white;stroke:2"/>
<line x1 = "388.16818897636006" y1 = "30" x2 = "391.19181102364007" y2 = "30" style="fill:none;stroke:white;stroke:2"/>
<polyline points = "260.16818897636006,30 260.16818897636006,32.32818897636 257.90047244090005,32.32818897636 257.90047244090005,34.59590551182001 260.16818897636006,34.59590551182001 260.16818897636006,39.13133858274001 263.19181102364007,39.13133858274001 263.19181102364007,34.59590551182001 265.4595275591001,34.59590551182001 265.4595275591001,32.32818897636 263.19181102364007,32.32818897636 263.19181102364007,30" style="fill:none;stroke:black;stroke:2"/>
<polyline points = "388.16818897636006,30 388.16818897636006,32.32818897636 385.90047244090005,32.32818897636 385.90047244090005,34.59590551182001 388.16818897636006,34.59590551182001 388.16818897636006,39.13133858274001 391.19181102364007,39.13133858274001 391.19181102364007,34.59590551182001 393.4595275591001,34.59590551182001 393.4595275591001,32.32818897636 391.19181102364007,32.32818897636 391.19181102364007,30" style="fill:none;stroke:black;stroke:2"/>
<line x1 = "225.84000000000003" y1 = "30" x2 = "229.68000000000004" y2 = "30" style="fill:none;stroke:white;stroke:2"/>
<polyline points="421.68000000000006,30.0 425.52000000000004,30.0 425.52000000000004,49.2 421.68000000000006,49.2 421.68000000000006,68.4 421.68000000000006,68.4 425.52000000000004,68.4 425.52000000000004,87.60000000000001 421.68000000000006,87.60000000000001 421.68000000000006,106.80000000000001 421.68000000000006,106.80000000000001 425.52000000000004,106.80000000000001 425.52000000000004,126.00000000000001 421.68000000000006,126.00000000000001 421.68000000000006,145.20000000000002 421.68000000000006,145.20000000000002 425.52000000000004,145.20000000000002 425.52000000000004,164.40000000000003 421.68000000000006,164.40000000000003 421.68000000000006,183.60000000000002 421.68000000000006,183.60000000000002 425.52000000000004,183.60000000000002 425.52000000000004,202.8 421.68000000000006,202.8 421.68000000000006,222.00000000000003 421.68000000000006,222.00000000000003 425.52000000000004,222.00000000000003 425.52000000000004,241.20000000000005 421.68000000000006,241.20000000000005 421.68000000000006,260.40000000000003 " style="fill:none;stroke:black;stroke:2"/>
<line x1 = "421.68000000000006" y1 = "57.288188976360004" x2 = "421.68000000000006" y2 = "60.311811023640004" style="fill:none;stroke:white;stroke:2"/>
<line x1 = "421.68000000000006" y1 = "249.28818897636003" x2 = "421.68000000000006" y2 = "252.31181102364002" style="fill:none;stroke:white;stroke:2"/>
<polyline points = "421.68000000000006,57.288188976360004 419.3518110236401,57.288188976360004 419.3518110236401,55.02047244090001 417.0840944881801,55.02047244090001 417.0840944881801,57.288188976360004 412.54866141726006,57.288188976360004 412.54866141726006,60.311811023640004 417.0840944881801,60.311811023640004 417.0840944881801,62.5795275591 419.3518110236401,62.5795275591 419.3518110236401,60.311811023640004 421.68000000000006,60.311811023640004" style="fill:none;stroke:black;stroke:2"/>
<polyline points = "421.68000000000006,249.28818897636003 419.3518110236401,249.28818897636003 419.3518110236401,247.02047244090005 417.0840944881801,247.02047244090005 417.0840944881801,249.28818897636003 412.54866141726006,249.28818897636003 412.54866141726006,252.31181102364002 417.0840944881801,252.31181102364002 417.0840944881801,254.57952755910003 419.3518110236401,254.57952755910003 419.3518110236401,252.31181102364002 421.68000000000006,252.31181102364002" style="fill:none;stroke:black;stroke:2"/>
<polyline points="421.68000000000006,260.40000000000003 421.68000000000006,264.24 402.4800000000001,264.24 402.4800000000001,260.40000000000003 383.2800000000001,260.40000000000003 383.2800000000001,260.40000000000003 383.2800000000001,264.24 364.08000000000004,264.24 364.08000000000004,260.40000000000003 344.8800000000001,260.40000000000003 344.88000000000005,260.40000000000003 344.88000000000005,264.24 325.68000000000006,264.24 325.68000000000006,260.40000000000003 306.4800000000001,260.40000000000003 306.48,260.40000000000003 306.48,264.24 287.2800000000001,264.24 287.2800000000001,260.40000000000003 268.08000000000004,260.40000000000003 268.08000000000004,260.40000000000003 268.08000000000004,264.24 248.88000000000005,264.24 248.88000000000005,260.40000000000003 229.68000000000006,260.40000000000003 " style="fill:none;stroke:black;stroke:2"/>
<line x1 = "237.76818897636002" y1 = "260.40000000000003" x2 = "240.79181102364004" y2 = "260.40000000000003" style="fill:none;stroke:white;stroke:2"/>
<line x1 = "391.36818897636005" y1 = "260.40000000000003" x2 = "394.39181102364006" y2 = "260.40000000000003" style="fill:none;stroke:white;stroke:2"/>
<polyline points = "237.76818897636002,260.40000000000003 237.76818897636002,258.07181102364007 235.5004724409,258.07181102364007 235.5004724409,255.80409448818006 237.76818897636002,255.80409448818006 237.76818897636002,251.26866141726006 240.79181102364004,251.26866141726006 240.79181102364004,255.80409448818006 243.05952755910005,255.80409448818006 243.05952755910005,258.07181102364007 240.79181102364004,258.07181102364007 240.79181102364004,260.40000000000003" style="fill:none;stroke:black;stroke:2"/>
<polyline points = "391.36818897636005,260.40000000000003 391.36818897636005,258.07181102364007 389.10047244090003,258.07181102364007 389.10047244090003,255.80409448818006 391.36818897636005,255.80409448818006 391.36818897636005,251.26866141726006 394.39181102364006,251.26866141726006 394.39181102364006,255.80409448818006 396.65952755910007,255.80409448818006 396.65952755910007,258.07181102364007 394.39181102364006,258.07181102364007 394.39181102364006,260.40000000000003" style="fill:none;stroke:black;stroke:2"/>
<polyline points="229.68000000000004,260.40000000000003 225.84000000000003,260.40000000000003 225.84000000000003,241.20000000000005 229.68000000000004,241.20000000000005 229.68000000000004,222.00000000000006 229.68000000000004,222.00000000000003 225.84000000000003,222.00000000000003 225.84000000000003,202.80000000000004 229.68000000000004,202.80000000000004 229.68000000000004,183.60000000000005 229.68000000000004,183.60000000000002 225.84000000000003,183.60000000000002 225.84000000000003,164.40000000000003 229.68000000000004,164.40000000000003 229.68000000000004,145.20000000000005 229.68000000000004,145.20000000000002 225.84000000000003,145.20000000000002 225.84000000000003,126.00000000000003 229.68000000000004,126.00000000000003 229.68000000000004,106.80000000000004 229.68000000000004,106.80000000000001 225.84000000000003,106.80000000000001 225.84000000000003,87.60000000000002 229.68000000000004,87.60000000000002 229.68000000000004,68.40000000000003 229.68000000000004,68.4 225.84000000000003,68.4 225.84000000000003,49.20000000000002 229.68000000000004,49.20000000000002 229.68000000000004,30.00000000000003 " style="fill:none;stroke:black;stroke:2"/>
<circle cx = "229.27181102364005" cy = "58.800000000000004" r = "1.51181102364" style="fill:none;stroke:black;stroke:2"/>
<circle cx = "229.27181102364005" cy = "250.80000000000004" r = "1.51181102364" style="fill:none;stroke:black;stroke:2"/>
<polyline points="434.36000000000007,30 587.96,30 " style="fill:none;stroke:black;stroke:2"/>
<polyline points="587.96,30.0 591.8000000000001,30.0 591.8000000000001,49.2 587.96,49.2 587.96,68.4 587.96,68.4 591.8000000000001,68.4 591.8000000000001,87.60000000000001 587.96,87.60000000000001 587.96,106.80000000000001 587.96,106.80000000000001 591.8000000000001,106.80000000000001 591.8000000000001,126.00000000000001 587.96,126.00000000000001 587.96,145.20000000000002 587.96,145.20000000000002 591.8000000000001,145.20000000000002 591.8000000000001,164.40000000000003 587.96,164.40000000000003 587.96,183.60000000000002 587.96,183.60000000000002 591.8000000000001,183.60000000000002 591.8000000000001,202.8 587.96,202.8 587.96,222.00000000000003 587.96,222.00000000000003 591.8000000000001,222.00000000000003 591.8000000000001,241.20000000000005 587.96,241.20000000000005 587.96,260.40000000000003 " style="fill:none;stroke:black;stroke:2"/>
<line x1 = "587.96" y1 = "57.288188976360004" x2 = "587.96" y2 = "60.311811023640004" style="fill:none;stroke:white;stroke:2"/>
<line x1 = "587.96" y1 = "249.28818897636003" x2 = "587.96" y2 = "252.31181102364002" style="fill:none;stroke:white;stroke:2"/>
<polyline points = "587.96,57.288188976360004 585.63181102364,57.288188976360004 585.63181102364,55.02047244090001 583.3640944881801,55.02047244090001 583.3640944881801,57.288188976360004 578.82866141726,57.288188976360004 578.82866141726,60.311811023640004 583.3640944881801,60.311811023640004 583.3640944881801,62.5795275591 585.63181102364,62.5795275591 585.63181102364,60.311811023640004 587.96,60.311811023640004" style="fill:none;stroke:black;stroke:2"/>
<polyline points = "587.96,249.28818897636003 585.63181102364,249.28818897636003 585.63181102364,247.02047244090005 583.3640944881801,247.02047244090005 583.3640944881801,249.28818897636003 578.82866141726,249.28818897636003 578.82866141726,252.31181102364002 583.3640944881801,252.31181102364002 583.3640944881801,254.57952755910003 585.63181102364,254.57952755910003 585.63181102364,252.31181102364002 587.96,252.31181102364002" style="fill:none;stroke:black;stroke:2"/>
<polyline points="587.96,260.40000000000003 587.96,264.24 568.76,264.24 568.76,260.40000000000003 549.56,260.40000000000003 549.5600000000001,260.40000000000003 549.5600000000001,264.24 530.36,264.24 530.36,260.40000000000003 511.15999999999997,260.40000000000003 511.16,260.40000000000003 511.16,264.24 491.96,264.24 491.96,260.40000000000003 472.75999999999993,260.40000000000003 472.76,260.40000000000003 472.76,264.24 453.55999999999995,264.24 453.55999999999995,260.40000000000003 434.3599999999999,260.40000000000003 " style="fill:none;stroke:black;stroke:2"/>
<polyline points="434.36,260.40000000000003 430.52000000000004,260.40000000000003 430.52000000000004,241.20000000000005 434.36,241.20000000000005 434.36,222.00000000000006 434.36,222.00000000000003 430.52000000000004,222.00000000000003 430.52000000000004,202.80000000000004 434.36,202.80000000000004 434.36,183.60000000000005 434.36,183.60000000000002 430.52000000000004,183.60000000000002 430.52000000000004,164.40000000000003 434.36,164.40000000000003 434.36,145.20000000000005 434.36,145.20000000000002 430.52000000000004,145.20000000000002 430.52000000000004,126.00000000000003 434.36,126.00000000000003 434.36,106.80000000000004 434.36,106.80000000000001 430.52000000000004,106.80000000000001 430.52000000000004,87.60000000000002 434.36,87.60000000000002 434.36,68.40000000000003 434.36,68.4 430.52000000000004,68.4 430.52000000000004,49.20000000000002 434.36,49.20000000000002 434.36,30.00000000000003 " style="fill:none;stroke:black;stroke:2"/>
<circle cx = "433.95181102364006" cy = "58.800000000000004" r = "1.51181102364" style="fill:none;stroke:black;stroke:2"/>
<circle cx = "433.95181102364006" cy = "250.80000000000004" r = "1.51181102364" style="fill:none;stroke:black;stroke:2"/>
<polyline points="600.6400000000001,30 754.2400000000001,30 " style="fill:none;stroke:black;stroke:2"/>
<polyline points="754.2400000000001,30.0 758.0800000000002,30.0 758.0800000000002,49.2 754.2400000000001,49.2 754.2400000000001,68.4 754.2400000000001,68.4 758.0800000000002,68.4 758.0800000000002,87.60000000000001 754.2400000000001,87.60000000000001 754.2400000000001,106.80000000000001 754.2400000000001,106.80000000000001 758.0800000000002,106.80000000000001 758.0800000000002,126.00000000000001 754.2400000000001,126.00000000000001 754.2400000000001,145.20000000000002 754.2400000000001,145.20000000000002 758.0800000000002,145.20000000000002 758.0800000000002,164.40000000000003 754.2400000000001,164.40000000000003 754.2400000000001,183.60000000000002 754.2400000000001,183.60000000000002 758.0800000000002,183.60000000000002 758.0800000000002,202.8 754.2400000000001,202.8 754.2400000000001,222.00000000000003 754.2400000000001,222.00000000000003 758.0800000000002,222.00000000000003 758.0800000000002,241.20000000000005 754.2400000000001,241.20000000000005 754.2400000000001,260.40000000000003 " style="fill:none;stroke:black;stroke:2"/>
<line x1 = "754.2400000000001" y1 = "57.288188976360004" x2 = "754.2400000000001" y2 = "60.311811023640004" style="fill:none;stroke:white;stroke:2"/>
<line x1 = "754.2400000000001" y1 = "249.28818897636003" x2 = "754.2400000000001" y2 = "252.31181102364002" style="fill:none;stroke:white;stroke:2"/>
<polyline points = "754.2400000000001,57.288188976360004 751.9118110236401,57.288188976360004 751.9118110236401,55.02047244090001 749.6440944881801,55.02047244090001 749.6440944881801,57.288188976360004 745.1086614172601,57.288188976360004 745.1086614172601,60.311811023640004 749.6440944881801,60.311811023640004 749.6440944881801,62.5795275591 751.9118110236401,62.5795275591 751.9118110236401,60.311811023640004 754.2400000000001,60.311811023640004" style="fill:none;stroke:black;stroke:2"/>
<polyline points = "754.2400000000001,249.28818897636003 751.9118110236401,249.28818897636003 751.9118110236401,247.02047244090005 749.6440944881801,247.02047244090005 749.6440944881801,249.28818897636003 745.1086614172601,249.28818897636003 745.1086614172601,252.31181102364002 749.6440944881801,252.31181102364002 749.6440944881801,254.57952755910003 751.9118110236401,254.57952755910003 751.9118110236401,252.31181102364002 754.2400000000001,252.31181102364002" style="fill:none;stroke:black;stroke:2"/>
<polyline points="754.2400000000001,260.40000000000003 754.2400000000001,264.24 735.0400000000001,264.24 735.0400000000001,260.40000000000003 715.84,260.40000000000003 715.8400000000001,260.40000000000003 715.8400000000001,264.24 696.6400000000001,264.24 696.6400000000001,260.40000000000003 677.44,260.40000000000003 677.44,260.40000000000003 677.44,264.24 658.24,264.24 658.24,260.40000000000003 639.04,260.40000000000003 639.0400000000001,260.40000000000003 639.0400000000001,264.24 619.84,264.24 619.84,260.40000000000003 600.64,260.40000000000003 " style="fill:none;stroke:black;stroke:2"/>
<polyline points="600.6400000000001,260.40000000000003 596.8000000000001,260.40000000000003 596.8000000000001,241.20000000000005 600.6400000000001,241.20000000000005 600.6400000000001,222.00000000000006 600.6400000000001,222.00000000000003 596.8000000000001,222.00000000000003 596.8000000000001,202.80000000000004 600.6400000000001,202.80000000000004 600.6400000000001,183.60000000000005 600.6400000000001,183.60000000000002 596.8000000000001,183.60000000000002 596.8000000000001,164.40000000000003 600.6400000000001,164.40000000000003 600.6400000000001,145.20000000000005 600.6400000000001,145.20000000000002 596.8000000000001,145.20000000000002 596.8000000000001,126.00000000000003 600.6400000000001,126.00000000000003 600.6400000000001,106.80000000000004 600.6400000000001,106.80000000000001 596.8000000000001,106.80000000000001 596.8000000000001,87.60000000000002 600.6400000000001,87.60000000000002 600.6400000000001,68.40000000000003 600.6400000000001,68.4 596.8000000000001,68.4 596.8000000000001,49.20000000000002 600.6400000000001,49.20000000000002 600.6400000000001,30.00000000000003 " style="fill:none;stroke:black;stroke:2"/>
<circle cx = "600.2318110236401" cy = "58.800000000000004" r = "1.51181102364" style="fill:none;stroke:black;stroke:2"/>
<circle cx = "600.2318110236401" cy = "250.80000000000004" r = "1.51181102364" style="fill:none;stroke:black;stroke:2"/>
<polyline points="229.68000000000004,273.08000000000004 229.68000000000004,269.24000000000007 248.88000000000005,269.24000000000007 248.88000000000005,273.08000000000004 268.08000000000004,273.08000000000004 268.08000000000004,273.08000000000004 268.08000000000004,269.24000000000007 287.2800000000001,269.24000000000007 287.2800000000001,273.08000000000004 306.48,273.08000000000004 306.48,273.08000000000004 306.48,269.24000000000007 325.68000000000006,269.24000000000007 325.68000000000006,273.08000000000004 344.88000000000005,273.08000000000004 344.88000000000005,273.08000000000004 344.88000000000005,269.24000000000007 364.08000000000004,269.24000000000007 364.08000000000004,273.08000000000004 383.2800000000001,273.08000000000004 383.2800000000001,273.08000000000004 383.2800000000001,269.24000000000007 402.4800000000001,269.24000000000007 402.4800000000001,273.08000000000004 421.68000000000006,273.08000000000004 " style="fill:none;stroke:black;stroke:2"/>
<circle cx = "239.28000000000003" cy = "272.67181102364003" r = "1.51181102364" style="fill:none;stroke:black;stroke:1"/>
<circle cx = "392.88000000000005" cy = "272.67181102364003" r = "1.51181102364" style="fill:none;stroke:black;stroke:1"/>
<polyline points="421.68000000000006,273.08000000000004 425.52000000000004,273.08000000000004 425.52000000000004,292.28000000000003 421.68000000000006,292.28000000000003 421.68000000000006,311.48 421.68000000000006,311.48 425.52000000000004,311.48 425.52000000000004,330.68000000000006 421.68000000000006,330.68000000000006 421.68000000000006,349.88 421.68000000000006,349.88000000000005 425.52000000000004,349.88000000000005 425.52000000000004,369.08000000000004 421.68000000000006,369.08000000000004 421.68000000000006,388.28000000000003 421.68000000000006,388.2800000000001 425.52000000000004,388.2800000000001 425.52000000000004,407.48 421.68000000000006,407.48 421.68000000000006,426.68000000000006 " style="fill:none;stroke:black;stroke:2"/>
<polyline points="421.68000000000006,426.68000000000006 421.68000000000006,430.52000000000004 402.4800000000001,430.52000000000004 402.4800000000001,426.68000000000006 383.2800000000001,426.68000000000006 383.2800000000001,426.68000000000006 383.2800000000001,430.52000000000004 364.08000000000004,430.52000000000004 364.08000000000004,426.68000000000006 344.8800000000001,426.68000000000006 344.88000000000005,426.68000000000006 344.88000000000005,430.52000000000004 325.68000000000006,430.52000000000004 325.68000000000006,426.68000000000006 306.4800000000001,426.68000000000006 306.48,426.68000000000006 306.48,430.52000000000004 287.2800000000001,430.52000000000004 287.2800000000001,426.68000000000006 268.08000000000004,426.68000000000006 268.08000000000004,426.68000000000006 268.08000000000004,430.52000000000004 248.88000000000005,430.52000000000004 248.88000000000005,426.68000000000006 229.68000000000006,426.68000000000006 " style="fill:none;stroke:black;stroke:2"/>
<circle cx = "258.48" cy = "427.0881889763601" r = "1.51181102364" style="fill:none;stroke:black;stroke:1"/>
<circle cx = "412.08000000000004" cy = "427.0881889763601" r = "1.51181102364" style="fill:none;stroke:black;stroke:1"/>
<polyline points="229.68000000000004,426.68000000000006 225.84000000000003,426.68000000000006 225.84000000000003,407.4800000000001 229.68000000000004,407.4800000000001 229.68000000000004,388.2800000000001 229.68000000000004,388.2800000000001 225.84000000000003,388.2800000000001 225.84000000000003,369.08000000000004 229.68000000000004,369.08000000000004 229.68000000000004,349.8800000000001 229.68000000000004,349.88000000000005 225.84000000000003,349.88000000000005 225.84000000000003,330.68000000000006 229.68000000000004,330.68000000000006 229.68000000000004,311.4800000000001 229.68000000000004,311.48 225.84000000000003,311.48 225.84000000000003,292.2800000000001 229.68000000000004,292.2800000000001 229.68000000000004,273.08000000000004 " style="fill:none;stroke:black;stroke:2"/>
<polyline points = "21.16,269.24000000000007 87.72,269.24000000000007 87.72,273.08000000000004 154.28,273.08000000000004 154.28,269.24000000000007 220.84000000000003,269.24000000000007 220.84000000000003,430.5200000000001 21.16,430.5200000000001 21.16,269.24000000000007" style="fill:none;stroke:black;stroke:2"/>
<circle cx = "57.00000000000001" cy = "272.67181102364003" r = "1.51181102364" style="fill:none;stroke:black;stroke:1"/>
<circle cx = "185.00000000000003" cy = "272.67181102364003" r = "1.51181102364" style="fill:none;stroke:black;stroke:1"/>
<polyline points = "21.16,280.76000000000005 31.96000000000001,280.76000000000005" fill = "none" stroke = "black" /> 
<polyline points = "34.360000000000014,280.76000000000005 61.240000000000016,280.76000000000005" fill = "none" stroke = "black" /> 
<polyline points = "21.16,285.56000000000006 31.96000000000001,285.56000000000006" fill = "none" stroke = "black" /> 
<polyline points = "34.360000000000014,285.56000000000006 61.240000000000016,285.56000000000006" fill = "none" stroke = "black" /> 
<polyline points = "21.16,290.36000000000007 31.96000000000001,290.36000000000007" fill = "none" stroke = "black" /> 
<polyline points = "34.360000000000014,290.36000000000007 61.240000000000016,290.36000000000007" fill = "none" stroke = "black" /> 
<polyline points = "21.16,295.16 31.96000000000001,295.16" fill = "none" stroke = "black" /> 
<polyline points = "34.360000000000014,295.16 61.240000000000016,295.16" fill = "none" stroke = "black" /> 
<polyline points = "21.16,299.96000000000004 31.96000000000001,299.96000000000004" fill = "none" stroke = "black" /> 
<polyline points = "34.360000000000014,299.96000000000004 61.240000000000016,299.96000000000004" fill = "none" stroke = "black" /> 
<polyline points = "21.16,304.76000000000005 31.96000000000001,304.76000000000005" fill = "none" stroke = "black" /> 
<polyline points = "34.360000000000014,304.76000000000005 61.240000000000016,304.76000000000005" fill = "none" stroke = "black" /> 
<polyline points = "21.16,309.56000000000006 31.96000000000001,309.56000000000006" fill = "none" stroke = "black" /> 
<polyline points = "34.360000000000014,309.56000000000006 61.240000000000016,309.56000000000006" fill = "none" stroke = "black" /> 
<polyline points = "21.16,314.36000000000007 31.96000000000001,314.36000000000007" fill = "none" stroke = "black" /> 
<polyline points = "34.360000000000014,314.36000000000007 61.240000000000016,314.36000000000007" fill = "none" stroke = "black" /> 
<polyline points = "21.16,319.16 31.96000000000001,319.16" fill = "none" stroke = "black" /> 
<polyline points = "34.360000000000014,319.16 61.240000000000016,319.16" fill = "none" stroke = "black" /> 
<polyline points = "21.16,323.96000000000004 31.96000000000001,323.96000000000004" fill = "none" stroke = "black" /> 
<polyline points = "34.360000000000014,323.96000000000004 61.240000000000016,323.96000000000004" fill = "none" stroke = "black" /> 
<polyline points = "21.16,328.76000000000005 31.96000000000001,328.76000000000005" fill = "none" stroke = "black" /> 
<polyline points = "34.360000000000014,328.76000000000005 61.240000000000016,328.76000000000005" fill = "none" stroke = "black" /> 
<polyline points = "21.16,333.56000000000006 31.96000000000001,333.56000000000006" fill = "none" stroke = "black" /> 
<polyline points = "34.360000000000014,333.56000000000006 61.240000000000016,333.56000000000006" fill = "none" stroke = "black" /> 
<polyline points = "21.16,338.36000000000007 31.96000000000001,338.36000000000007" fill = "none" stroke = "black" /> 
<polyline points = "34.360000000000014,338.36000000000007 61.240000000000016,338.36000000000007" fill = "none" stroke = "black" /> 
<polyline points = "21.16,343.16 31.96000000000001,343.16" fill = "none" stroke = "black" /> 
<polyline points = "34.360000000000014,343.16 61.240000000000016,343.16" fill = "none" stroke = "black" /> 
<polyline points = "21.16,347.9600000000001 31.96000000000001,347.9600000000001" fill = "none" stroke = "black" /> 
<polyline points = "34.360000000000014,347.9600000000001 61.240000000000016,347.9600000000001" fill = "none" stroke = "black" /> 
<polyline points = "21.16,352.76000000000005 31.96000000000001,352.76000000000005" fill = "none" stroke = "black" /> 
<polyline points = "34.360000000000014,352.76000000000005 61.240000000000016,352.76000000000005" fill = "none" stroke = "black" /> 
<polyline points = "21.16,357.56000000000006 31.96000000000001,357.56000000000006" fill = "none" stroke = "black" /> 
<polyline points = "34.360000000000014,357.56000000000006 61.240000000000016,357.56000000000006" fill = "none" stroke = "black" /> 
<polyline points = "21.16,362.36000000000007 31.96000000000001,362.36000000000007" fill = "none" stroke = "black" /> 
<polyline points = "34.360000000000014,362.36000000000007 61.240000000000016,362.36000000000007" fill = "none" stroke = "black" /> 
<polyline points = "21.16,367.16 31.96000000000001,367.16" fill = "none" stroke = "black" /> 
<polyline points = "34.360000000000014,367.16 61.240000000000016,367.16" fill = "none" stroke = "black" /> 
<polyline points = "21.16,371.9600000000001 31.96000000000001,371.9600000000001" fill = "none" stroke = "black" /> 
<polyline points = "34.360000000000014,371.9600000000001 61.240000000000016,371.9600000000001" fill = "none" stroke = "black" /> 
<polyline points = "21.16,376.76000000000005 31.96000000000001,376.76000000000005" fill = "none" stroke = "black" /> 
<polyline points = "34.360000000000014,376.76000000000005 61.240000000000016,376.76000000000005" fill = "none" stroke = "black" /> 
<polyline points = "21.16,381.56000000000006 31.96000000000001,381.56000000000006" fill = "none" stroke = "black" /> 
<polyline points = "34.360000000000014,381.56000000000006 61.240000000000016,381.56000000000006" fill = "none" stroke = "black" /> 
<polyline points = "21.16,386.36000000000007 31.96000000000001,386.36000000000007" fill = "none" stroke = "black" /> 
<polyline points = "34.360000000000014,386.36000000000007 61.240000000000016,386.36000000000007" fill = "none" stroke = "black" /> 
<polyline points = "21.16,391.1600000000001 31.96000000000001,391.1600000000001" fill = "none" stroke = "black" /> 
<polyline points = "34.360000000000014,391.1600000000001 61.240000000000016,391.1600000000001" fill = "none" stroke = "black" /> 
<polyline points = "21.16,395.9600000000001 31.96000000000001,395.9600000000001" fill = "none" stroke = "black" /> 
<polyline points = "34.360000000000014,395.9600000000001 61.240000000000016,395.9600000000001" fill = "none" stroke = "black" /> 
<polyline points = "21.16,400.76000000000005 31.96000000000001,400.76000000000005" fill = "none" stroke = "black" /> 
<polyline points = "34.360000000000014,400.76000000000005 61.240000000000016,400.76000000000005" fill = "none" stroke = "black" /> 
<polyline points = "21.16,405.56000000000006 31.96000000000001,405.56000000000006" fill = "none" stroke = "black" /> 
<polyline points = "34.360000000000014,405.56000000000006 61.240000000000016,405.56000000000006" fill = "none" stroke = "black" /> 
<polyline points = "21.16,410.36000000000007 31.96000000000001,410.36000000000007" fill = "none" stroke = "black" /> 
<polyline points = "34.360000000000014,410.36000000000007 61.240000000000016,410.36000000000007" fill = "none" stroke = "black" /> 
<polyline points = "63.640000000000015,280.76000000000005 90.52000000000001,280.76000000000005" fill = "none" stroke = "black" /> 
<polyline points = "63.640000000000015,285.56000000000006 90.52000000000001,285.56000000000006" fill = "none" stroke = "black" /> 
<polyline points = "63.640000000000015,290.36000000000007 90.52000000000001,290.36000000000007" fill = "none" stroke = "black" /> 
<polyline points = "63.640000000000015,295.16 90.52000000000001,295.16" fill = "none" stroke = "black" /> 
<polyline points = "63.640000000000015,299.96000000000004 90.52000000000001,299.96000000000004" fill = "none" stroke = "black" /> 
<polyline points = "63.640000000000015,304.76000000000005 90.52000000000001,304.76000000000005" fill = "none" stroke = "black" /> 
<polyline points = "63.640000000000015,309.56000000000006 90.52000000000001,309.56000000000006" fill = "none" stroke = "black" /> 
<polyline points = "63.640000000000015,314.36000000000007 90.52000000000001,314.36000000000007" fill = "none" stroke = "black" /> 
<polyline points = "63.640000000000015,319.16 90.52000000000001,319.16" fill = "none" stroke = "black" /> 
<polyline points = "63.640000000000015,323.96000000000004 90.52000000000001,323.96000000000004" fill = "none" stroke = "black" /> 
<polyline points = "63.640000000000015,328.76000000000005 90.52000000000001,328.76000000000005" fill = "none" stroke = "black" /> 
<polyline points = "63.640000000000015,333.56000000000006 90.52000000000001,333.56000000000006" fill = "none" stroke = "black" /> 
<polyline points = "63.640000000000015,338.36000000000007 90.52000000000001,338.36000000000007" fill = "none" stroke = "black" /> 
<polyline points = "63.640000000000015,343.16 90.52000000000001,343.16" fill = "none" stroke = "black" /> 
<polyline points = "63.640000000000015,347.9600000000001 90.52000000000001,347.9600000000001" fill = "none" stroke = "black" /> 
<polyline points = "63.640000000000015,352.76000000000005 90.52000000000001,352.76000000000005" fill = "none" stroke = "black" /> 
<polyline points = "63.640000000000015,357.56000000000006 90.52000000000001,357.56000000000006" fill = "none" stroke = "black" /> 
<polyline points = "63.640000000000015,362.36000000000007 90.52000000000001,362.36000000000007" fill = "none" stroke = "black" /> 
<polyline points = "63.640000000000015,367.16 90.52000000000001,367.16" fill = "none" stroke = "black" /> 
<polyline points = "63.640000000000015,371.9600000000001 90.52000000000001,371.9600000000001" fill = "none" stroke = "black" /> 
<polyline points = "63.640000000000015,376.76000000000005 90.52000000000001,376.76000000000005" fill = "none" stroke = "black" /> 
<polyline points = "63.640000000000015,381.56000000000006 90.52000000000001,381.56000000000006" fill = "none" stroke = "black" /> 
<polyline points = "63.640000000000015,386.36000000000007 90.52000000000001,386.36000000000007" fill = "none" stroke = "black" /> 
<polyline points = "63.640000000000015,391.1600000000001 90.52000000000001,391.1600000000001" fill = "none" stroke = "black" /> 
<polyline points = "63.640000000000015,395.9600000000001 90.52000000000001,395.9600000000001" fill = "none" stroke = "black" /> 
<polyline points = "63.640000000000015,400.76000000000005 90.52000000000001,400.76000000000005" fill = "none" stroke = "black" /> 
<polyline points = "63.640000000000015,405.56000000000006 90.52000000000001,405.56000000000006" fill = "none" stroke = "black" /> 
<polyline points = "63.640000000000015,410.36000000000007 90.52000000000001,410.36000000000007" fill = "none" stroke = "black" /> 
<polyline points = "92.92000000000002,280.76000000000005 119.80000000000003,280.76000000000005" fill = "none" stroke = "black" /> 
<polyline points = "92.92000000000002,285.56000000000006 119.80000000000003,285.56000000000006" fill = "none" stroke = "black" /> 
<polyline points = "92.92000000000002,290.36000000000007 119.80000000000003,290.36000000000007" fill = "none" stroke = "black" /> 
<polyline points = "92.92000000000002,295.16 119.80000000000003,295.16" fill = "none" stroke = "black" /> 
<polyline points = "92.92000000000002,299.96000000000004 119.80000000000003,299.96000000000004" fill = "none" stroke = "black" /> 
<polyline points = "92.92000000000002,304.76000000000005 119.80000000000003,304.76000000000005" fill = "none" stroke = "black" /> 
<polyline points = "92.92000000000002,309.56000000000006 119.80000000000003,309.56000000000006" fill = "none" stroke = "black" /> 
<polyline points = "92.92000000000002,314.36000000000007 119.80000000000003,314.36000000000007" fill = "none" stroke = "black" /> 
<polyline points = "92.92000000000002,319.16 119.80000000000003,319.16" fill = "none" stroke = "black" /> 
<polyline points = "92.92000000000002,323.96000000000004 119.80000000000003,323.96000000000004" fill = "none" stroke = "black" /> 
<polyline points = "92.92000000000002,328.76000000000005 119.80000000000003,328.76000000000005" fill = "none" stroke = "black" /> 
<polyline points = "92.92000000000002,333.56000000000006 119.80000000000003,333.56000000000006" fill = "none" stroke = "black" /> 
<polyline points = "92.92000000000002,338.36000000000007 119.80000000000003,338.36000000000007" fill = "none" stroke = "black" /> 
<polyline points = "92.92000000000002,343.16 119.80000000000003,343.16" fill = "none" stroke = "black" /> 
<polyline points = "92.92000000000002,347.9600000000001 119.80000000000003,347.9600000000001" fill = "none" stroke = "black" /> 
<polyline points = "92.92000000000002,352.76000000000005 119.80000000000003,352.76000000000005" fill = "none" stroke = "black" /> 
<polyline points = "92.92000000000002,357.56000000000006 119.80000000000003,357.56000000000006" fill = "none" stroke = "black" /> 
<polyline points = "92.92000000000002,362.36000000000007 119.80000000000003,362.36000000000007" fill = "none" stroke = "black" /> 
<polyline points = "92.92000000000002,367.16 119.80000000000003,367.16" fill = "none" stroke = "black" /> 
<polyline points = "92.92000000000002,371.9600000000001 119.80000000000003,371.9600000000001" fill = "none" stroke = "black" /> 
<polyline points = "92.92000000000002,376.76000000000005 119.80000000000003,376.76000000000005" fill = "none" stroke = "black" /> 
<polyline points = "92.92000000000002,381.56000000000006 119.80000000000003,381.56000000000006" fill = "none" stroke = "black" /> 
<polyline points = "92.92000000000002,386.36000000000007 119.80000000000003,386.36000000000007" fill = "none" stroke = "black" /> 
<polyline points = "92.92000000000002,391.1600000000001 119.80000000000003,391.1600000000001" fill = "none" stroke = "black" /> 
<polyline points = "92.92000000000002,395.9600000000001 119.80000000000003,395.9600000000001" fill = "none" stroke = "black" /> 
<polyline points = "92.92000000000002,400.76000000000005 119.80000000000003,400.76000000000005" fill = "none" stroke = "black" /> 
<polyline points = "92.92000000000002,405.56000000000006 119.80000000000003,405.56000000000006" fill = "none" stroke = "black" /> 
<polyline points = "92.92000000000002,410.36000000000007 119.80000000000003,410.36000000000007" fill = "none" stroke = "black" /> 
<polyline points = "122.20000000000003,280.76000000000005 149.08000000000004,280.76000000000005" fill = "none" stroke = "black" /> 
<polyline points = "122.20000000000003,285.56000000000006 149.08000000000004,285.56000000000006" fill = "none" stroke = "black" /> 
<polyline points = "122.20000000000003,290.36000000000007 149.08000000000004,290.36000000000007" fill = "none" stroke = "black" /> 
<polyline points = "122.20000000000003,295.16 149.08000000000004,295.16" fill = "none" stroke = "black" /> 
<polyline points = "122.20000000000003,299.96000000000004 149.08000000000004,299.96000000000004" fill = "none" stroke = "black" /> 
<polyline points = "122.20000000000003,304.76000000000005 149.08000000000004,304.76000000000005" fill = "none" stroke = "black" /> 
<polyline points = "122.20000000000003,309.56000000000006 149.08000000000004,309.56000000000006" fill = "none" stroke = "black" /> 
<polyline points = "122.20000000000003,314.36000000000007 149.08000000000004,314.36000000000007" fill = "none" stroke = "black" /> 
<polyline points = "122.20000000000003,319.16 149.08000000000004,319.16" fill = "none" stroke = "black" /> 
<polyline points = "122.20000000000003,323.96000000000004 149.08000000000004,323.96000000000004" fill = "none" stroke = "black" /> 
<polyline points = "122.20000000000003,328.76000000000005 149.08000000000004,328.76000000000005" fill = "none" stroke = "black" /> 
<polyline points = "122.20000000000003,333.56000000000006 149.08000000000004,333.56000000000006" fill = "none" stroke = "black" /> 
<polyline points = "122.20000000000003,338.36000000000007 149.08000000000004,338.36000000000007" fill = "none" stroke = "black" /> 
<polyline points = "122.20000000000003,343.16 149.08000000000004,343.16" fill = "none" stroke = "black" /> 
<polyline points = "122.20000000000003,347.9600000000001 149.08000000000004,347.9600000000001" fill = "none" stroke = "black" /> 
<polyline points = "122.20000000000003,352.76000000000005 149.08000000000004,352.76000000000005" fill = "none" stroke = "black" /> 
<polyline points = "122.20000000000003,357.56000000000006 149.08000000000004,357.56000000000006" fill = "none" stroke = "black" /> 
<polyline points = "122.20000000000003,362.36000000000007 149.08000000000004,362.36000000000007" fill = "none" stroke = "black" /> 
<polyline points = "122.20000000000003,367.16 149.08000000000004,367.16" fill = "none" stroke = "black" /> 
<polyline points = "122.20000000000003,371.9600000000001 149.08000000000004,371.9600000000001" fill = "none" stroke = "black" /> 
<polyline points = "122.20000000000003,376.76000000000005 149.08000000000004,376.76000000000005" fill = "none" stroke = "black" /> 
<polyline points = "122.20000000000003,381.56000000000006 149.08000000000004,381.56000000000006" fill = "none" stroke = "black" /> 
<polyline points = "122.20000000000003,386.36000000000007 149.08000000000004,386.36000000000007" fill = "none" stroke = "black" /> 
<polyline points = "122.20000000000003,391.1600000000001 149.08000000000004,391.1600000000001" fill = "none" stroke = "black" /> 
<polyline points = "122.20000000000003,395.9600000000001 149.08000000000004,395.9600000000001" fill = "none" stroke = "black" /> 
<polyline points = "122.20000000000003,400.76000000000005 149.08000000000004,400.76000000000005" fill = "none" stroke = "black" /> 
<polyline points = "122.20000000000003,405.56000000000006 149.08000000000004,405.56000000000006" fill = "none" stroke = "black" /> 
<polyline points = "122.20000000000003,410.36000000000007 149.08000000000004,410.36000000000007" fill = "none" stroke = "black" /> 
<polyline points = "151.48000000000002,280.76000000000005 178.36,280.76000000000005" fill = "none" stroke = "black" /> 
<polyline points = "151.48000000000002,285.56000000000006 178.36,285.56000000000006" fill = "none" stroke = "black" /> 
<polyline points = "151.48000000000002,290.36000000000007 178.36,290.36000000000007" fill = "none" stroke = "black" /> 
<polyline points = "151.48000000000002,295.16 178.36,295.16" fill = "none" stroke = "black" /> 
<polyline points = "151.48000000000002,299.96000000000004 178.36,299.96000000000004" fill = "none" stroke = "black" /> 
<polyline points = "151.48000000000002,304.76000000000005 178.36,304.76000000000005" fill = "none" stroke = "black" /> 
<polyline points = "151.48000000000002,309.56000000000006 178.36,309.56000000000006" fill = "none" stroke = "black" /> 
<polyline points = "151.48000000000002,314.36000000000007 178.36,314.36000000000007" fill = "none" stroke = "black" /> 
<polyline points = "151.48000000000002,319.16 178.36,319.16" fill = "none" stroke = "black" /> 
<polyline points = "151.48000000000002,323.96000000000004 178.36,323.96000000000004" fill = "none" stroke = "black" /> 
<polyline points = "151.48000000000002,328.76000000000005 178.36,328.76000000000005" fill = "none" stroke = "black" /> 
<polyline points = "151.48000000000002,333.56000000000006 178.36,333.56000000000006" fill = "none" stroke = "black" /> 
<polyline points = "151.48000000000002,338.36000000000007 178.36,338.36000000000007" fill = "none" stroke = "black" /> 
<polyline points = "151.48000000000002,343.16 178.36,343.16" fill = "none" stroke = "black" /> 
<polyline points = "151.48000000000002,347.9600000000001 178.36,347.9600000000001" fill = "none" stroke = "black" /> 
<polyline points = "151.48000000000002,352.76000000000005 178.36,352.76000000000005" fill = "none" stroke = "black" /> 
<polyline points = "151.48000000000002,357.56000000000006 178.36,357.56000000000006" fill = "none" stroke = "black" /> 
<polyline points = "151.48000000000002,362.36000000000007 178.36,362.36000000000007" fill = "none" stroke = "black" /> 
<polyline points = "151.48000000000002,367.16 178.36,367.16" fill = "none" stroke = "black" /> 
<polyline points = "151.48000000000002,371.9600000000001 178.36,371.9600000000001" fill = "none" stroke = "black" /> 
<polyline points = "151.48000000000002,376.76000000000005 178.36,376.76000000000005" fill = "none" stroke = "black" /> 
<polyline points = "151.48000000000002,381.56000000000006 178.36,381.56000000000006" fill = "none" stroke = "black" /> 
<polyline points = "151.48000000000002,386.36000000000007 178.36,386.36000000000007" fill = "none" stroke = "black" /> 
<polyline points = "151.48000000000002,391.1600000000001 178.36,391.1600000000001" fill = "none" stroke = "black" /> 
<polyline points = "151.48000000000002,395.9600000000001 178.36,395.9600000000001" fill = "none" stroke = "black" /> 
<polyline points = "151.48000000000002,400.76000000000005 178.36,400.76000000000005" fill = "none" stroke = "black" /> 
<polyline points = "151.48000000000002,405.56000000000006 178.36,405.56000000000006" fill = "none" stroke = "black" /> 
<polyline points = "151.48000000000002,410.36000000000007 178.36,410.36000000000007" fill = "none" stroke = "black" /> 
<polyline points = "180.76000000000002,280.76000000000005 207.64000000000004,280.76000000000005" fill = "none" stroke = "black" /> 
<polyline points = "210.04000000000005 280.76000000000005 220.84000000000006,280.76000000000005" fill = "none" stroke = "black" /> 
<polyline points = "23.560000000000002,283.16 218.44000000000003,283.16" fill = "none" stroke = "black" /> 
<polyline points = "180.76000000000002,285.56000000000006 207.64000000000004,285.56000000000006" fill = "none" stroke = "black" /> 
<polyline points = "210.04000000000005 285.56000000000006 220.84000000000006,285.56000000000006" fill = "none" stroke = "black" /> 
<polyline points = "23.560000000000002,287.96000000000004 218.44000000000003,287.96000000000004" fill = "none" stroke = "black" /> 
<polyline points = "180.76000000000002,290.36000000000007 207.64000000000004,290.36000000000007" fill = "none" stroke = "black" /> 
<polyline points = "210.04000000000005 290.36000000000007 220.84000000000006,290.36000000000007" fill = "none" stroke = "black" /> 
<polyline points = "23.560000000000002,292.76 218.44000000000003,292.76" fill = "none" stroke = "black" /> 
<polyline points = "180.76000000000002,295.16 207.64000000000004,295.16" fill = "none" stroke = "black" /> 
<polyline points = "210.04000000000005 295.16 220.84000000000006,295.16" fill = "none" stroke = "black" /> 
<polyline points = "23.560000000000002,297.56 218.44000000000003,297.56" fill = "none" stroke = "black" /> 
<polyline points = "180.76000000000002,299.96000000000004 207.64000000000004,299.96000000000004" fill = "none" stroke = "black" /> 
<polyline points = "210.04000000000005 299.96000000000004 220.84000000000006,299.96000000000004" fill = "none" stroke = "black" /> 
<polyline points = "23.560000000000002,302.36 218.44000000000003,302.36" fill = "none" stroke = "black" /> 
<polyline points = "180.76000000000002,304.76000000000005 207.64000000000004,304.76000000000005" fill = "none" stroke = "black" /> 
<polyline points = "210.04000000000005 304.76000000000005 220.84000000000006,304.76000000000005" fill = "none" stroke = "black" /> 
<polyline points = "23.560000000000002,307.16 218.44000000000003,307.16" fill = "none" stroke = "black" /> 
<polyline points = "180.76000000000002,309.56000000000006 207.64000000000004,309.56000000000006" fill = "none" stroke = "black" /> 
<polyline points = "210.04000000000005 309.56000000000006 220.84000000000006,309.56000000000006" fill = "none" stroke = "black" /> 
<polyline points = "23.560000000000002,311.96000000000004 218.44000000000003,311.96000000000004" fill = "none" stroke = "black" /> 
<polyline points = "180.76000000000002,314.36000000000007 207.64000000000004,314.36000000000007" fill = "none" stroke = "black" /> 
<polyline points = "210.04000000000005 314.36000000000007 220.84000000000006,314.36000000000007" fill = "none" stroke = "black" /> 
<polyline points = "23.560000000000002,316.76 218.44000000000003,316.76" fill = "none" stroke = "black" /> 
<polyline points = "180.76000000000002,319.16 207.64000000000004,319.16" fill = "none" stroke = "black" /> 
<polyline points = "210.04000000000005 319.16 220.84000000000006,319.16" fill = "none" stroke = "black" /> 
<polyline points = "23.560000000000002,321.56 218.44000000000003,321.56" fill = "none" stroke = "black" /> 
<polyline points = "180.76000000000002,323.96000000000004 207.64000000000004,323.96000000000004" fill = "none" stroke = "black" /> 
<polyline points = "210.04000000000005 323.96000000000004 220.84000000000006,323.96000000000004" fill = "none" stroke = "black" /> 
<polyline points = "23.560000000000002,326.36 218.44000000000003,326.36" fill = "none" stroke = "black" /> 
<polyline points = "180.76000000000002,328.76000000000005 207.64000000000004,328.76000000000005" fill = "none" stroke = "black" /> 
<polyline points = "210.04000000000005 328.76000000000005 220.84000000000006,328.76000000000005" fill = "none" stroke = "black" /> 
<polyline points = "23.560000000000002,331.16 218.44000000000003,331.16" fill = "none" stroke = "black" /> 
<polyline points = "180.76000000000002,333.56000000000006 207.64000000000004,333.56000000000006" fill = "none" stroke = "black" /> 
<polyline points = "210.04000000000005 333.56000000000006 220.84000000000006,333.56000000000006" fill = "none" stroke = "black" /> 
<polyline points = "23.560000000000002,335.96000000000004 218.44000000000003,335.96000000000004" fill = "none" stroke = "black" /> 
<polyline points = "180.76000000000002,338.36000000000007 207.64000000000004,338.36000000000007" fill = "none" stroke = "black" /> 
<polyline points = "210.04000000000005 338.36000000000007 220.84000000000006,338.36000000000007" fill = "none" stroke = "black" /> 
<polyline points = "23.560000000000002,340.76 218.44000000000003,340.76" fill = "none" stroke = "black" /> 
<polyline points = "180.76000000000002,343.16 207.64000000000004,343.16" fill = "none" stroke = "black" /> 
<polyline points = "210.04000000000005 343.16 220.84000000000006,343.16" fill = "none" stroke = "black" /> 
<polyline points = "23.560000000000002,345.56 218.44000000000003,345.56" fill = "none" stroke = "black" /> 
<polyline points = "180.76000000000002,347.9600000000001 207.64000000000004,347.9600000000001" fill = "none" stroke = "black" /> 
<polyline points = "210.04000000000005 347.9600000000001 220.84000000000006,347.9600000000001" fill = "none" stroke = "black" /> 
<polyline points = "23.560000000000002,350.36000000000007 218.44000000000003,350.36000000000007" fill = "none" stroke = "black" /> 
<polyline points = "180.76000000000002,352.76000000000005 207.64000000000004,352.76000000000005" fill = "none" stroke = "black" /> 
<polyline points = "210.04000000000005 352.76000000000005 220.84000000000006,352.76000000000005" fill = "none" stroke = "black" /> 
<polyline points = "23.560000000000002,355.16 218.44000000000003,355.16" fill = "none" stroke = "black" /> 
<polyline points = "180.76000000000002,357.56000000000006 207.64000000000004,357.56000000000006" fill = "none" stroke = "black" /> 
<polyline points = "210.04000000000005 357.56000000000006 220.84000000000006,357.56000000000006" fill = "none" stroke = "black" /> 
<polyline points = "23.560000000000002,359.96000000000004 218.44000000000003,359.96000000000004" fill = "none" stroke = "black" /> 
<polyline points = "180.76000000000002,362.36000000000007 207.64000000000004,362.36000000000007" fill = "none" stroke = "black" /> 
<polyline points = "210.04000000000005 362.36000000000007 220.84000000000006,362.36000000000007" fill = "none" stroke = "black" /> 
<polyline points = "23.560000000000002,364.76 218.44000000000003,364.76" fill = "none" stroke = "black" /> 
<polyline points = "180.76000000000002,367.16 207.64000000000004,367.16" fill = "none" stroke = "black" /> 
<polyline points = "210.04000000000005 367.16 220.84000000000006,367.16" fill = "none" stroke = "black" /> 
<polyline points = "23.560000000000002,369.56 218.44000000000003,369.56" fill = "none" stroke = "black" /> 
<polyline points = "180.76000000000002,371.9600000000001 207.64000000000004,371.9600000000001" fill = "none" stroke = "black" /> 
<polyline points = "210.04000000000005 371.9600000000001 220.84000000000006,371.9600000000001" fill = "none" stroke = "black" /> 
<polyline points = "23.560000000000002,374.36000000000007 218.44000000000003,374.36000000000007" fill = "none" stroke = "black" /> 
<polyline points = "180.76000000000002,376.76000000000005 207.64000000000004,376.76000000000005" fill = "none" stroke = "black" /> 
<polyline points = "210.04000000000005 376.76000000000005 220.84000000000006,376.76000000000005" fill = "none" stroke = "black" /> 
<polyline points = "23.560000000000002,379.16 218.44000000000003,379.16" fill = "none" stroke = "black" /> 
<polyline points = "180.76000000000002,381.56000000000006 207.64000000000004,381.56000000000006" fill = "none" stroke = "black" /> 
<polyline points = "210.04000000000005 381.56000000000006 220.84000000000006,381.56000000000006" fill = "none" stroke = "black" /> 
<polyline points = "23.560000000000002,383.96000000000004 218.44000000000003,383.96000000000004" fill = "none" stroke = "black" /> 
<polyline points = "180.76000000000002,386.36000000000007 207.64000000000004,386.36000000000007" fill = "none" stroke = "black" /> 
<polyline points = "210.04000000000005 386.36000000000007 220.84000000000006,386.36000000000007" fill = "none" stroke = "black" /> 
<polyline points = "23.560000000000002,388.76 218.44000000000003,388.76" fill = "none" stroke = "black" /> 
<polyline points = "180.76000000000002,391.1600000000001 207.64000000000004,391.1600000000001" fill = "none" stroke = "black" /> 
<polyline points = "210.04000000000005 391.1600000000001 220.84000000000006,391.1600000000001" fill = "none" stroke = "black" /> 
<polyline points = "23.560000000000002,393.56000000000006 218.44000000000003,393.56000000000006" fill = "none" stroke = "black" /> 
<polyline points = "180.76000000000002,395.9600000000001 207.64000000000004,395.9600000000001" fill = "none" stroke = "black" /> 
<polyline points = "210.04000000000005 395.9600000000001 220.84000000000006,395.9600000000001" fill = "none" stroke = "black" /> 
<polyline points = "23.560000000000002,398.36000000000007 218.44000000000003,398.36000000000007" fill = "none" stroke = "black" /> 
<polyline points = "180.76000000000002,400.76000000000005 207.64000000000004,400.76000000000005" fill = "none" stroke = "black" /> 
<polyline points = "210.04000000000005 400.76000000000005 220.84000000000006,400.76000000000005" fill = "none" stroke = "black" /> 
<polyline points = "23.560000000000002,403.16 218.44000000000003,403.16" fill = "none" stroke = "black" /> 
<polyline points = "180.76000000000002,405.56000000000006 207.64000000000004,405.56000000000006" fill = "none" stroke = "black" /> 
<polyline points = "210.04000000000005 405.56000000000006 220.84000000000006,405.56000000000006" fill = "none" stroke = "black" /> 
<polyline points = "23.560000000000002,407.96000000000004 218.44000000000003,407.96000000000004" fill = "none" stroke = "black" /> 
<polyline points = "180.76000000000002,410.36000000000007 207.64000000000004,410.36000000000007" fill = "none" stroke = "black" /> 
<polyline points = "210.04000000000005 410.36000000000007 220.84000000000006,410.36000000000007" fill = "none" stroke = "black" /> 
<polyline points = "23.560000000000002,412.76000000000005 218.44000000000003,412.76000000000005" fill = "none" stroke = "black" /> 
<polyline points = "325.68000000000006,349.88000000000005 326.0662785561826,350.52287547552663" fill = "none" stroke = "red" /> 
<polyline points = "325.68000000000006,349.88000000000005 326.0662785561826,350.52287547552663" fill = "none" stroke = "red" /> 
<polyline points = "326.0662785561826,350.52287547552663 324.97579265582124,351.2044213892884" fill = "none" stroke = "red" /> 
<polyline points = "324.97579265582124,351.2044213892884 323.43308354680227,349.99775590154667" fill = "none" stroke = "red" /> 
<polyline points = "323.43308354680227,349.99775590154667 324.0024212895878,347.3928872823349" fill = "none" stroke = "red" /> 
<polyline points = "324.0024212895878,347.3928872823349 327.2648184815277,346.4813457986126" fill = "none" stroke = "red" /> 
<polyline points = "327.2648184815277,346.4813457986126 330.15534852915727,349.4096219152956" fill = "none" stroke = "red" /> 
<polyline points = "330.15534852915727,349.4096219152956 328.83952887154834,354.0728364277483" fill = "none" stroke = "red" /> 
<polyline points = "328.83952887154834,354.0728364277483 323.4323604395046,355.4431031274008" fill = "none" stroke = "red" /> 
<polyline points = "323.4323604395046,355.4431031274008 319.01310370098287,350.93593263902164" fill = "none" stroke = "red" /> 
<polyline points = "319.01310370098287,350.93593263902164 320.859092927351,344.1346666766077" fill = "none" stroke = "red" /> 
<polyline points = "320.859092927351,344.1346666766077 328.36593727427163,342.0794717513057" fill = "none" stroke = "red" /> 
<polyline points = "328.36593727427163,342.0794717513057 334.4833284066043,348.0087947826402" fill = "none" stroke = "red" /> 
<polyline points = "334.4833284066043,348.0087947826402 332.3294840106094,357.01069859078694" fill = "none" stroke = "red" /> 
<polyline points = "332.3294840106094,357.01069859078694 322.7858077639216,359.9732478073524" fill = "none" stroke = "red" /> 
<polyline points = "322.7858077639216,359.9732478073524 314.81333445424804,352.79171425740344" fill = "none" stroke = "red" /> 
<polyline points = "314.81333445424804,352.79171425740344 317.0479223959362,341.5440995544921" fill = "none" stroke = "red" /> 
<polyline points = "317.0479223959362,341.5440995544921 328.5481259428843,337.4567816739883" fill = "none" stroke = "red" /> 
<polyline points = "328.5481259428843,337.4567816739883 338.51926296998465,345.70827057593823" fill = "none" stroke = "red" /> 
<polyline points = "338.51926296998465,345.70827057593823 336.43461151817456,359.2288411631148" fill = "none" stroke = "red" /> 
<polyline points = "336.43461151817456,359.2288411631148 323.0752773349961,364.6521162951832" fill = "none" stroke = "red" /> 
<polyline points = "323.0752773349961,364.6521162951832 310.97610828266914,355.52429520533855" fill = "none" stroke = "red" /> 
<polyline points = "310.97610828266914,355.52429520533855 312.6778225654892,339.7215856571267" fill = "none" stroke = "red" /> 
<polyline points = "312.6778225654892,339.7215856571267 327.7822461737389,332.7585788841873" fill = "none" stroke = "red" /> 
<polyline points = "327.7822461737389,332.7585788841873 342.12381823756687,342.55874042463563" fill = "none" stroke = "red" /> 
<polyline points = "342.12381823756687,342.55874042463563 341.0391008304187,360.6345581815821" fill = "none" stroke = "red" /> 
<polyline points = "341.0391008304187,360.6345581815821 324.3197487619896,369.33249898006665" fill = "none" stroke = "red" /> 
<polyline points = "324.3197487619896,369.33249898006665 307.63711788518566,359.07330761972594" fill = "none" stroke = "red" /> 
<polyline points = "307.63711788518566,359.07330761972594 307.87098998071514,338.75169545110276" fill = "none" stroke = "red" /> 
<polyline points = "307.87098998071514,338.75169545110276 326.0595898400109,328.13331263034854" fill = "none" stroke = "red" /> 
<polyline points = "326.0595898400109,328.13331263034854 345.1655715851499,338.63000000000005" fill = "none" stroke = "red" /> 
<polyline points = "345.1655715851499,338.63000000000005 346.01490819099104,361.15182367072737" fill = "none" stroke = "red" /> 
<polyline points = "346.01490819099104,361.15182367072737 326.5175879208602,373.86537984845836" fill = "none" stroke = "red" /> 
<polyline points = "326.5175879208602,373.86537984845836 304.92290344335083,363.35981611662197" fill = "none" stroke = "red" /> 
<polyline points = "304.92290344335083,363.35981611662197 302.76075181937125,338.7015357568787" fill = "none" stroke = "red" /> 
<polyline points = "302.76075181937125,338.7015357568787 323.392161752874,323.7298891750917" fill = "none" stroke = "red" /> 
<polyline points = "323.392161752874,323.7298891750917 347.52345884812354,334.00979818810316" fill = "none" stroke = "red" /> 
<polyline points = "347.52345884812354,334.00979818810316 351.2240096833053,360.72278881557736" fill = "none" stroke = "red" /> 
<polyline points = "351.2240096833053,360.72278881557736 329.64643337736186,378.1026399591348" fill = "none" stroke = "red" /> 
<polyline points = "329.64643337736186,378.1026399591348 302.9484806273837,368.28762143820785" fill = "none" stroke = "red" /> 
<polyline points = "302.9484806273837,368.28762143820785 297.48922137642285,339.61939570023" fill = "none" stroke = "red" /> 
<polyline points = "297.48922137642285,339.61939570023 319.81262339217125,319.6949641089844" fill = "none" stroke = "red" /> 
<polyline points = "319.81262339217125,319.6949641089844 349.089062002538,328.80238589969605" fill = "none" stroke = "red" /> 
<polyline points = "349.089062002538,328.80238589969605 356.520828379808,359.3089874773082" fill = "none" stroke = "red" /> 
<polyline points = "356.520828379808,359.3089874773082 333.66342255478907,381.8997589671079" fill = "none" stroke = "red" /> 
<polyline points = "333.66342255478907,381.8997589671079 301.81514613495415,373.7448538650461" fill = "none" stroke = "red" /> 
<polyline points = "301.81514613495415,373.7448538650461 292.2047974434782,341.5336946018115" fill = "none" stroke = "red" /> 
<polyline points = "292.2047974434782,341.5336946018115 315.3738974085235,316.1702573523031" fill = "none" stroke = "red" /> 
<polyline points = "315.3738974085235,316.1702573523031 349.76870182891895,323.1267862828139" fill = "none" stroke = "red" /> 
<polyline points = "349.76870182891895,323.1267862828139 361.7547989917017,356.892230580088" fill = "none" stroke = "red" /> 
<polyline points = "361.7547989917017,356.892230580088 338.50575537471286,385.1184732794715" fill = "none" stroke = "red" /> 
<polyline points = "338.50575537471286,385.1184732794715 301.60849504234386,379.6058330257293" fill = "none" stroke = "red" /> 
<polyline points = "301.60849504234386,379.6058330257293 287.05954531907884,344.4522490625575" fill = "none" stroke = "red" /> 
<polyline points = "287.05954531907884,344.4522490625575 310.1484376425513,313.2899320752656" fill = "none" stroke = "red" /> 
<polyline points = "310.1484376425513,313.2899320752656 349.485302717845,317.1148117278145" fill = "none" stroke = "red" /> 
<polyline points = "349.485302717845,317.1148117278145 366.77303129628456,353.4751743883411" fill = "none" stroke = "red" /> 
<polyline points = "366.77303129628456,353.4751743883411 344.09158816514133,387.62934994456504" fill = "none" stroke = "red" /> 
<polyline points = "344.09158816514133,387.62934994456504 302.39668125310783,385.73316677966704" fill = "none" stroke = "red" /> 
<polyline points = "302.39668125310783,385.73316677966704 282.20649902466937,348.3618718934416" fill = "none" stroke = "red" /> 
<polyline points = "282.20649902466937,348.3618718934416 304.2271743040998,311.17807795908175" fill = "none" stroke = "red" /> 
<polyline points = "304.2271743040998,311.17807795908175 348.18,310.9088568297003" fill = "none" stroke = "red" /> 
<polyline points = "348.18,310.9088568297003 371.42303205340494,349.0815524054941" fill = "none" stroke = "red" /> 
<polyline points = "371.42303205340494,349.0815524054941 350.32124578684414,389.31423647127383" fill = "none" stroke = "red" /> 
<polyline points = "350.32124578684414,389.31423647127383 304.2289488873064,391.9800582679004" fill = "none" stroke = "red" /> 
<polyline points = "304.2289488873064,391.9800582679004 277.7969255875285,353.2283107397185" fill = "none" stroke = "red" /> 
<polyline points = "277.7969255875285,353.2283107397185 297.71814872788633,309.94633784091184" fill = "none" stroke = "red" /> 
<polyline points = "297.71814872788633,309.94633784091184 345.81346383225207,304.65949984669123" fill = "none" stroke = "red" /> 
<polyline points = "345.81346383225207,304.65949984669123 375.5554441199765,343.75606549389147" fill = "none" stroke = "red" /> 
<polyline points = "375.5554441199765,343.75606549389147 357.078735241609,390.06854843394257" fill = "none" stroke = "red" /> 
<polyline points = "357.078735241609,390.06854843394257 307.13445861103037,398.1927870712301" fill = "none" stroke = "red" /> 
<polyline points = "307.13445861103037,398.1927870712301 273.97759296685916,358.99652932751405" fill = "none" stroke = "red" /> 
<polyline points = "273.97759296685916,358.99652932751405 290.7448567062556,309.6917148531374" fill = "none" stroke = "red" /> 
<polyline points = "290.7448567062556,309.6917148531374 342.36691769624673,298.5229481200616" fill = "none" stroke = "red" /> 
<polyline points = "342.36691769624673,298.5229481200616 379.0267610469916,337.5639297746731" fill = "none" stroke = "red" /> 
<polyline points = "379.0267610469916,337.5639297746731 364.2335395604745,389.8033589187951" fill = "none" stroke = "red" /> 
<polyline points = "364.2335395604745,389.8033589187951 311.12142871298323,404.21332772876013" fill = "none" stroke = "red" /> 
<polyline points = "311.12142871298323,404.21332772876013 270.8880833315158,365.5913292815688" fill = "none" stroke = "red" /> 
<polyline points = "270.8880833315158,365.5913292815688 283.4443237314927,310.49459470639107" fill = "none" stroke = "red" /> 
<polyline points = "283.4443237314927,310.49459470639107 337.8428339128388,292.6583653570724" fill = "none" stroke = "red" /> 
<polyline points = "337.8428339128388,292.6583653570724 381.7019756042596,330.59008684841353" fill = "none" stroke = "red" /> 
<polyline points = "381.7019756042596,330.59008684841353 371.64266658713865,388.44725658119256" fill = "none" stroke = "red" /> 
<polyline points = "371.64266658713865,388.44725658119256 316.1766062488065,409.8820666911547" fill = "none" stroke = "red" /> 
<polyline points = "316.1766062488065,409.8820666911547 268.65819294414274,372.91830549507887" fill = "none" stroke = "red" /> 
<polyline points = "268.65819294414274,372.91830549507887 275.96493949955607,312.4170148087851" fill = "none" stroke = "red" /> 
<polyline points = "275.96493949955607,312.4170148087851 332.2652931858624,287.2251205917988" fill = "none" stroke = "red" /> 
<polyline points = "332.2652931858624,287.2251205917988 383.4571214235863,322.93808581403" fill = "none" stroke = "red" /> 
<polyline points = "383.4571214235863,322.93808581403 379.1529234298004,385.94794227386296" fill = "none" stroke = "red" /> 
<polyline points = "379.1529234298004,385.94794227386296 322.2650788551481,415.04057714273597" fill = "none" stroke = "red" /> 
<polyline points = "322.2650788551481,415.04057714273597 267.4054588713108,380.86512314386874" fill = "none" stroke = "red" /> 
<text x = "25" y = "444.36000000000007" dy = "0">
<tspan x = "20" dy = ".6em" >BOX ATTRIBUTES </tspan>
<tspan x = "20" dy = "1.2em" >thickness: </tspan>
<tspan x = "20" dy = "1.2em" >width: </tspan>
<tspan x = "20" dy = "1.2em" >length:  </tspan>
<tspan x = "20" dy = "1.2em" >height: </tspan>
<tspan x = "20" dy = "1.2em" >partition:  </tspan>
<tspan x = "20" dy = "1.2em" >partition location: </tspan>
<tspan x = "20" dy = "1.2em" >lid: </tspan>
<tspan x = "20" dy = "1.2em" >top text: </tspan>
<tspan x = "20" dy = "1.2em" >top text string: </tspan>
<tspan x = "20" dy = "1.2em" >front text: </tspan>
<tspan x = "20" dy = "1.2em" >front text string: </tspan>
<tspan x = "20" dy = "1.2em" >fractal: </tspan>
<tspan x = "20" dy = "1.2em" >fractal side/bottom: </tspan>
</text><text x = "200" y = "444.36000000000007" dy = "0">
<tspan x = "200" dy = ".6em" > VALUES </tspan>
<tspan x = "200" dy = "1.2em" >0.1</tspan>
<tspan x = "200" dy = "1.2em" >5</tspan>
<tspan x = "200" dy = "1.2em" >4</tspan>
<tspan x = "200" dy = "1.2em" >6</tspan>
<tspan x = "200" dy = "1.2em" >False</tspan>
<tspan x = "200" dy = "1.2em" >0</tspan>
<tspan x = "200" dy = "1.2em" >True</tspan>
<tspan x = "200" dy = "1.2em" >False</tspan>
<tspan x = "200" dy = "1.2em" >False</tspan>
<tspan x = "200" dy = "1.2em" >True</tspan>
<tspan x = "200" dy = "1.2em" ></tspan>
<tspan x = "200" dy = "1.2em" ></tspan>
<tspan x = "200" dy = "1.2em" >bottom</tspan>
</text></svg>