<?xml version = "1.0" encoding = "UTF-8" ?> 
<svg xmlns="http://www.w3.org/2000/svg" version = "1.1"> 
<line x1="75" y1="40" x2="171" y2 ="40" style="stroke:red;stroke-horizontalDim:4"/>
<text x = "181" y = "45" font-size = "20px" fill = "red"> = 1 inch </text> 
<polyline points="75,75 459.0,75 " style="fill:none;stroke:black;stroke-horizontalDim:2"/>
<polyline points="459.0,75 468.6,75 468.6,123.0 459.0,123.0 459.0,171.0 459.0,171 468.6,171 468.6,219.0 459.0,219.0 459.0,267.0 459.0,267 468.6,267 468.6,315.0 459.0,315.0 459.0,363.0 459.0,363 468.6,363 468.6,411.0 459.0,411.0 459.0,459.0 459.0,459 468.6,459 468.6,507.0 459.0,507.0 459.0,555.0 459.0,555 468.6,555 468.6,603.0 459.0,603.0 459.0,651.0 459.0,651 468.6,651 468.6,699.0 459.0,699.0 459.0,747.0 " style="fill:none;stroke:black;stroke-horizontalDim:2"/>
<polyline points="459.0,747.0 459.0,756.6 411.0,756.6 411.0,747.0 363.0,747.0 363.0,747.0 363.0,756.6 315.0,756.6 315.0,747.0 267.0,747.0 267.0,747.0 267.0,756.6 219.0,756.6 219.0,747.0 171.0,747.0 171.0,747.0 171.0,756.6 123.0,756.6 123.0,747.0 75.0,747.0 " style="fill:none;stroke:black;stroke-horizontalDim:2"/>
<polyline points="75.0,747.0 65.4,747.0 65.4,699.0 75.0,699.0 75.0,651.0 75.0,651.0 65.4,651.0 65.4,603.0 75.0,603.0 75.0,555.0 75.0,555.0 65.4,555.0 65.4,507.0 75.0,507.0 75.0,459.0 75.0,459.0 65.4,459.0 65.4,411.0 75.0,411.0 75.0,363.0 75.0,363.0 65.4,363.0 65.4,315.0 75.0,315.0 75.0,267.0 75.0,267.0 65.4,267.0 65.4,219.0 75.0,219.0 75.0,171.0 75.0,171.0 65.4,171.0 65.4,123.0 75.0,123.0 75.0,75.0 " style="fill:none;stroke:black;stroke-horizontalDim:2"/>
<polyline points="503.20000000000005,75 887.2,75 " style="fill:none;stroke:black;stroke-horizontalDim:2"/>
<polyline points="887.2,75 896.8000000000001,75 896.8000000000001,123.0 887.2,123.0 887.2,171.0 887.2,171 896.8000000000001,171 896.8000000000001,219.0 887.2,219.0 887.2,267.0 887.2,267 896.8000000000001,267 896.8000000000001,315.0 887.2,315.0 887.2,363.0 887.2,363 896.8000000000001,363 896.8000000000001,411.0 887.2,411.0 887.2,459.0 887.2,459 896.8000000000001,459 896.8000000000001,507.0 887.2,507.0 887.2,555.0 887.2,555 896.8000000000001,555 896.8000000000001,603.0 887.2,603.0 887.2,651.0 887.2,651 896.8000000000001,651 896.8000000000001,699.0 887.2,699.0 887.2,747.0 " style="fill:none;stroke:black;stroke-horizontalDim:2"/>
<polyline points="887.2,747.0 887.2,756.6 839.2,756.6 839.2,747.0 791.2,747.0 791.2,747.0 791.2,756.6 743.2,756.6 743.2,747.0 695.2,747.0 695.2,747.0 695.2,756.6 647.2,756.6 647.2,747.0 599.2,747.0 599.2,747.0 599.2,756.6 551.2,756.6 551.2,747.0 503.20000000000005,747.0 " style="fill:none;stroke:black;stroke-horizontalDim:2"/>
<polyline points="503.20000000000005,747.0 493.6,747.0 493.6,699.0 503.20000000000005,699.0 503.20000000000005,651.0 503.20000000000005,651.0 493.6,651.0 493.6,603.0 503.20000000000005,603.0 503.20000000000005,555.0 503.20000000000005,555.0 493.6,555.0 493.6,507.0 503.20000000000005,507.0 503.20000000000005,459.0 503.20000000000005,459.0 493.6,459.0 493.6,411.0 503.20000000000005,411.0 503.20000000000005,363.0 503.20000000000005,363.0 493.6,363.0 493.6,315.0 503.20000000000005,315.0 503.20000000000005,267.0 503.20000000000005,267.0 493.6,267.0 493.6,219.0 503.20000000000005,219.0 503.20000000000005,171.0 503.20000000000005,171.0 493.6,171.0 493.6,123.0 503.20000000000005,123.0 503.20000000000005,75.0 " style="fill:none;stroke:black;stroke-horizontalDim:2"/>
<polyline points="931.4000000000001,75 1507.4,75 " style="fill:none;stroke:black;stroke-horizontalDim:2"/>
<polyline points="1507.4,75 1517.0,75 1517.0,123.0 1507.4,123.0 1507.4,171.0 1507.4,171 1517.0,171 1517.0,219.0 1507.4,219.0 1507.4,267.0 1507.4,267 1517.0,267 1517.0,315.0 1507.4,315.0 1507.4,363.0 1507.4,363 1517.0,363 1517.0,411.0 1507.4,411.0 1507.4,459.0 1507.4,459 1517.0,459 1517.0,507.0 1507.4,507.0 1507.4,555.0 1507.4,555 1517.0,555 1517.0,603.0 1507.4,603.0 1507.4,651.0 1507.4,651 1517.0,651 1517.0,699.0 1507.4,699.0 1507.4,747.0 " style="fill:none;stroke:black;stroke-horizontalDim:2"/>
<polyline points="1507.4,747.0 1507.4,756.6 1459.4,756.6 1459.4,747.0 1411.4,747.0 1411.4,747.0 1411.4,756.6 1363.4,756.6 1363.4,747.0 1315.4,747.0 1315.4,747.0 1315.4,756.6 1267.4,756.6 1267.4,747.0 1219.4,747.0 1219.4,747.0 1219.4,756.6 1171.4,756.6 1171.4,747.0 1123.4,747.0 1123.4,747.0 1123.4,756.6 1075.4,756.6 1075.4,747.0 1027.4,747.0 1027.4,747.0 1027.4,756.6 979.4000000000001,756.6 979.4000000000001,747.0 931.4000000000001,747.0 " style="fill:none;stroke:black;stroke-horizontalDim:2"/>
<polyline points="931.4000000000001,747.0 921.8000000000001,747.0 921.8000000000001,699.0 931.4000000000001,699.0 931.4000000000001,651.0 931.4000000000001,651.0 921.8000000000001,651.0 921.8000000000001,603.0 931.4000000000001,603.0 931.4000000000001,555.0 931.4000000000001,555.0 921.8000000000001,555.0 921.8000000000001,507.0 931.4000000000001,507.0 931.4000000000001,459.0 931.4000000000001,459.0 921.8000000000001,459.0 921.8000000000001,411.0 931.4000000000001,411.0 931.4000000000001,363.0 931.4000000000001,363.0 921.8000000000001,363.0 921.8000000000001,315.0 931.4000000000001,315.0 931.4000000000001,267.0 931.4000000000001,267.0 921.8000000000001,267.0 921.8000000000001,219.0 931.4000000000001,219.0 931.4000000000001,171.0 931.4000000000001,171.0 921.8000000000001,171.0 921.8000000000001,123.0 931.4000000000001,123.0 931.4000000000001,75.0 " style="fill:none;stroke:black;stroke-horizontalDim:2"/>
<rect x = "1022.6000000000001" y = "99.0" width = "9.600000000000001" height = "48.0" style="fill:none;stroke:black;strokeDim:3"/>
<rect x = "1022.6000000000001" y = "675.0" width = "9.600000000000001" height = "48.0" style="fill:none;stroke:black;strokeDim:3"/>
<polyline points="1551.6000000000001,75 2127.6000000000004,75 " style="fill:none;stroke:black;stroke-horizontalDim:2"/>
<polyline points="2127.6000000000004,75 2137.2000000000003,75 2137.2000000000003,123.0 2127.6000000000004,123.0 2127.6000000000004,171.0 2127.6000000000004,171 2137.2000000000003,171 2137.2000000000003,219.0 2127.6000000000004,219.0 2127.6000000000004,267.0 2127.6000000000004,267 2137.2000000000003,267 2137.2000000000003,315.0 2127.6000000000004,315.0 2127.6000000000004,363.0 2127.6000000000004,363 2137.2000000000003,363 2137.2000000000003,411.0 2127.6000000000004,411.0 2127.6000000000004,459.0 2127.6000000000004,459 2137.2000000000003,459 2137.2000000000003,507.0 2127.6000000000004,507.0 2127.6000000000004,555.0 2127.6000000000004,555 2137.2000000000003,555 2137.2000000000003,603.0 2127.6000000000004,603.0 2127.6000000000004,651.0 2127.6000000000004,651 2137.2000000000003,651 2137.2000000000003,699.0 2127.6000000000004,699.0 2127.6000000000004,747.0 " style="fill:none;stroke:black;stroke-horizontalDim:2"/>
<polyline points="2127.6000000000004,747.0 2127.6000000000004,756.6 2079.6000000000004,756.6 2079.6000000000004,747.0 2031.6000000000004,747.0 2031.6000000000004,747.0 2031.6000000000004,756.6 1983.6000000000004,756.6 1983.6000000000004,747.0 1935.6000000000004,747.0 1935.6000000000004,747.0 1935.6000000000004,756.6 1887.6000000000004,756.6 1887.6000000000004,747.0 1839.6000000000004,747.0 1839.6000000000004,747.0 1839.6000000000004,756.6 1791.6000000000004,756.6 1791.6000000000004,747.0 1743.6000000000004,747.0 1743.6000000000004,747.0 1743.6000000000004,756.6 1695.6000000000004,756.6 1695.6000000000004,747.0 1647.6000000000004,747.0 1647.6000000000004,747.0 1647.6000000000004,756.6 1599.6000000000004,756.6 1599.6000000000004,747.0 1551.6000000000004,747.0 " style="fill:none;stroke:black;stroke-horizontalDim:2"/>
<polyline points="1551.6000000000004,747.0 1542.0000000000005,747.0 1542.0000000000005,699.0 1551.6000000000004,699.0 1551.6000000000004,651.0 1551.6000000000004,651.0 1542.0000000000005,651.0 1542.0000000000005,603.0 1551.6000000000004,603.0 1551.6000000000004,555.0 1551.6000000000004,555.0 1542.0000000000005,555.0 1542.0000000000005,507.0 1551.6000000000004,507.0 1551.6000000000004,459.0 1551.6000000000004,459.0 1542.0000000000005,459.0 1542.0000000000005,411.0 1551.6000000000004,411.0 1551.6000000000004,363.0 1551.6000000000004,363.0 1542.0000000000005,363.0 1542.0000000000005,315.0 1551.6000000000004,315.0 1551.6000000000004,267.0 1551.6000000000004,267.0 1542.0000000000005,267.0 1542.0000000000005,219.0 1551.6000000000004,219.0 1551.6000000000004,171.0 1551.6000000000004,171.0 1542.0000000000005,171.0 1542.0000000000005,123.0 1551.6000000000004,123.0 1551.6000000000004,75.0 " style="fill:none;stroke:black;stroke-horizontalDim:2"/>
<rect x = "2026.8000000000004" y = "99.0" width = "9.600000000000001" height = "48.0" style="fill:none;stroke:black;strokeDim:3"/>
<rect x = "2026.8000000000004" y = "675.0" width = "9.600000000000001" height = "48.0" style="fill:none;stroke:black;strokeDim:3"/>
<polyline points="503.20000000000005,791.2 503.20000000000005,781.6 551.2,781.6 551.2,791.2 599.2,791.2 599.2,791.2 599.2,781.6 647.2,781.6 647.2,791.2 695.2,791.2 695.2,791.2 695.2,781.6 743.2,781.6 743.2,791.2 791.2,791.2 791.2,791.2 791.2,781.6 839.2,781.6 839.2,791.2 887.2,791.2 " style="fill:none;stroke:black;stroke-horizontalDim:2"/>
<polyline points="887.2,791.2 896.8000000000001,791.2 896.8000000000001,839.2 887.2,839.2 887.2,887.2 887.2,887.2 896.8000000000001,887.2 896.8000000000001,935.2 887.2,935.2 887.2,983.2 887.2,983.2 896.8000000000001,983.2 896.8000000000001,1031.2 887.2,1031.2 887.2,1079.2 887.2,1079.2 896.8000000000001,1079.2 896.8000000000001,1127.2 887.2,1127.2 887.2,1175.2 887.2,1175.2 896.8000000000001,1175.2 896.8000000000001,1223.2 887.2,1223.2 887.2,1271.2 887.2,1271.2 896.8000000000001,1271.2 896.8000000000001,1319.2 887.2,1319.2 887.2,1367.2 " style="fill:none;stroke:black;stroke-horizontalDim:2"/>
<polyline points="887.2,1367.2 887.2,1376.8 839.2,1376.8 839.2,1367.2 791.2,1367.2 791.2,1367.2 791.2,1376.8 743.2,1376.8 743.2,1367.2 695.2,1367.2 695.2,1367.2 695.2,1376.8 647.2,1376.8 647.2,1367.2 599.2,1367.2 599.2,1367.2 599.2,1376.8 551.2,1376.8 551.2,1367.2 503.20000000000005,1367.2 " style="fill:none;stroke:black;stroke-horizontalDim:2"/>
<polyline points="503.20000000000005,1367.2 493.6,1367.2 493.6,1319.2 503.20000000000005,1319.2 503.20000000000005,1271.2 503.20000000000005,1271.2 493.6,1271.2 493.6,1223.2 503.20000000000005,1223.2 503.20000000000005,1175.2 503.20000000000005,1175.2 493.6,1175.2 493.6,1127.2 503.20000000000005,1127.2 503.20000000000005,1079.2 503.20000000000005,1079.2 493.6,1079.2 493.6,1031.2 503.20000000000005,1031.2 503.20000000000005,983.2 503.20000000000005,983.2 493.6,983.2 493.6,935.2 503.20000000000005,935.2 503.20000000000005,887.2 503.20000000000005,887.2 493.6,887.2 493.6,839.2 503.20000000000005,839.2 503.20000000000005,791.2 " style="fill:none;stroke:black;stroke-horizontalDim:2"/>
<polyline points="931.4000000000001,791.2 1315.4,791.2 " style="fill:none;stroke:black;stroke-horizontalDim:2"/>
<polyline points="1315.4,791.2 1315.4,815.2 1325.0,815.2 1325.0,863.2 1315.4,863.2 1315.4,1391.2 1325.0,1391.2 1325.0,1439.2 1315.4,1439.2 1315.4,1463.2" style="fill:none;stroke:black;stroke-horizontalDim:2"/>
<polyline points="1315.4,1463.2 931.4000000000001,1463.2 " style="fill:none;stroke:black;stroke-horizontalDim:2"/>
<polyline points="931.4000000000001,791.2 931.4000000000001,815.2 921.8000000000001,815.2 921.8000000000001,863.2 931.4000000000001,863.2 931.4000000000001,1391.2 921.8000000000001,1391.2 921.8000000000001,1439.2 931.4000000000001,1439.2 931.4000000000001,1463.2" style="fill:none;stroke:black;stroke-horizontalDim:2"/>
<polyline points = "1219.4,411.0 1220.4300761498203,412.71433460140423" fill = "none" stroke = "red" /> 
<polyline points = "1219.4,411.0 1220.4300761498203,412.71433460140423" fill = "none" stroke = "red" /> 
<polyline points = "1220.4300761498203,412.71433460140423 1217.5221137488566,414.5317903714357" fill = "none" stroke = "red" /> 
<polyline points = "1217.5221137488566,414.5317903714357 1213.4082227914726,411.3140157374577" fill = "none" stroke = "red" /> 
<polyline points = "1213.4082227914726,411.3140157374577 1214.9264567722341,404.36769941955964" fill = "none" stroke = "red" /> 
<polyline points = "1214.9264567722341,404.36769941955964 1223.626182617407,401.9369221296335" fill = "none" stroke = "red" /> 
<polyline points = "1223.626182617407,401.9369221296335 1231.3342627444194,409.74565844078813" fill = "none" stroke = "red" /> 
<polyline points = "1231.3342627444194,409.74565844078813 1227.8254103241288,422.1808971406621" fill = "none" stroke = "red" /> 
<polyline points = "1227.8254103241288,422.1808971406621 1213.4062945053456,425.8349416730686" fill = "none" stroke = "red" /> 
<polyline points = "1213.4062945053456,425.8349416730686 1201.6216098692876,413.81582037072417" fill = "none" stroke = "red" /> 
<polyline points = "1201.6216098692876,413.81582037072417 1206.5442478062694,395.67911113762045" fill = "none" stroke = "red" /> 
<polyline points = "1206.5442478062694,395.67911113762045 1226.5624993980575,390.198591336815" fill = "none" stroke = "red" /> 
<polyline points = "1226.5624993980575,390.198591336815 1242.8755424176115,406.01011942037377" fill = "none" stroke = "red" /> 
<polyline points = "1242.8755424176115,406.01011942037377 1237.1319573616252,430.01519624209845" fill = "none" stroke = "red" /> 
<polyline points = "1237.1319573616252,430.01519624209845 1211.682154037124,437.91532748627293" fill = "none" stroke = "red" /> 
<polyline points = "1211.682154037124,437.91532748627293 1190.422225211328,418.7645713530756" fill = "none" stroke = "red" /> 
<polyline points = "1190.422225211328,418.7645713530756 1196.3811263891632,388.77093214531214" fill = "none" stroke = "red" /> 
<polyline points = "1196.3811263891632,388.77093214531214 1227.0483358476915,377.871417797302" fill = "none" stroke = "red" /> 
<polyline points = "1227.0483358476915,377.871417797302 1253.6380345866255,399.8753882025018" fill = "none" stroke = "red" /> 
<polyline points = "1253.6380345866255,399.8753882025018 1248.0789640484654,435.9302431016393" fill = "none" stroke = "red" /> 
<polyline points = "1248.0789640484654,435.9302431016393 1212.4540728933227,450.39231012048833" fill = "none" stroke = "red" /> 
<polyline points = "1212.4540728933227,450.39231012048833 1180.1896220871176,426.0514538809026" fill = "none" stroke = "red" /> 
<polyline points = "1180.1896220871176,426.0514538809026 1184.7275268413043,383.91089508567103" fill = "none" stroke = "red" /> 
<polyline points = "1184.7275268413043,383.91089508567103 1225.0059897966369,365.3428770244992" fill = "none" stroke = "red" /> 
<polyline points = "1225.0059897966369,365.3428770244992 1263.250181966845,391.4766411323616" fill = "none" stroke = "red" /> 
<polyline points = "1263.250181966845,391.4766411323616 1260.3576022144498,439.67882181755215" fill = "none" stroke = "red" /> 
<polyline points = "1260.3576022144498,439.67882181755215 1215.7726633653056,462.87333061351086" fill = "none" stroke = "red" /> 
<polyline points = "1215.7726633653056,462.87333061351086 1171.2856476938284,435.5154869859357" fill = "none" stroke = "red" /> 
<polyline points = "1171.2856476938284,435.5154869859357 1171.9093066152402,381.32452120294056" fill = "none" stroke = "red" /> 
<polyline points = "1171.9093066152402,381.32452120294056 1220.4122395733623,353.0088336809293" fill = "none" stroke = "red" /> 
<polyline points = "1220.4122395733623,353.0088336809293 1271.3615242270664,380.99999999999994" fill = "none" stroke = "red" /> 
<polyline points = "1271.3615242270664,380.99999999999994 1273.6264218426427,441.0581964552729" fill = "none" stroke = "red" /> 
<polyline points = "1273.6264218426427,441.0581964552729 1221.6335677889604,474.96101292922214" fill = "none" stroke = "red" /> 
<polyline points = "1221.6335677889604,474.96101292922214 1164.047742515602,446.94617631099186" fill = "none" stroke = "red" /> 
<polyline points = "1164.047742515602,446.94617631099186 1158.2820048516567,381.19076201834304" fill = "none" stroke = "red" /> 
<polyline points = "1158.2820048516567,381.19076201834304 1213.2990980076638,341.2663711335778" fill = "none" stroke = "red" /> 
<polyline points = "1213.2990980076638,341.2663711335778 1277.649223594996,368.67946183494166" fill = "none" stroke = "red" /> 
<polyline points = "1277.649223594996,368.67946183494166 1287.5173591554808,439.91410350820615" fill = "none" stroke = "red" /> 
<polyline points = "1287.5173591554808,439.91410350820615 1229.977155672965,486.26037322435934" fill = "none" stroke = "red" /> 
<polyline points = "1229.977155672965,486.26037322435934 1158.7826150063565,460.08699050188744" fill = "none" stroke = "red" /> 
<polyline points = "1158.7826150063565,460.08699050188744 1144.2245903371274,383.6383885339464" fill = "none" stroke = "red" /> 
<polyline points = "1144.2245903371274,383.6383885339464 1203.7536623791232,330.5065709572916" fill = "none" stroke = "red" /> 
<polyline points = "1203.7536623791232,330.5065709572916 1281.8241653401012,354.793029065856" fill = "none" stroke = "red" /> 
<polyline points = "1281.8241653401012,354.793029065856 1301.6422090128212,436.1439666061552" fill = "none" stroke = "red" /> 
<polyline points = "1301.6422090128212,436.1439666061552 1240.6891268127708,496.3860239122877" fill = "none" stroke = "red" /> 
<polyline points = "1240.6891268127708,496.3860239122877 1155.760389693211,474.63961030678945" fill = "none" stroke = "red" /> 
<polyline points = "1155.760389693211,474.63961030678945 1130.1327931826083,388.7431856048305" fill = "none" stroke = "red" /> 
<polyline points = "1130.1327931826083,388.7431856048305 1191.9170597560626,321.1073529394747" fill = "none" stroke = "red" /> 
<polyline points = "1191.9170597560626,321.1073529394747 1283.6365382104505,339.6580967541702" fill = "none" stroke = "red" /> 
<polyline points = "1283.6365382104505,339.6580967541702 1315.5994639778712,429.6992815469011" fill = "none" stroke = "red" /> 
<polyline points = "1315.5994639778712,429.6992815469011 1253.6020143325677,504.9692620785906" fill = "none" stroke = "red" /> 
<polyline points = "1253.6020143325677,504.9692620785906 1155.2093201129169,490.26888806861126" fill = "none" stroke = "red" /> 
<polyline points = "1155.2093201129169,490.26888806861126 1116.4121208508768,396.5259975001532" fill = "none" stroke = "red" /> 
<polyline points = "1116.4121208508768,396.5259975001532 1177.9825003801368,313.4264855340415" fill = "none" stroke = "red" /> 
<polyline points = "1177.9825003801368,313.4264855340415 1282.8808072475865,323.6261646075052" fill = "none" stroke = "red" /> 
<polyline points = "1282.8808072475865,323.6261646075052 1328.981416790092,420.58713170224274" fill = "none" stroke = "red" /> 
<polyline points = "1328.981416790092,420.58713170224274 1268.4975684403769,511.6649331855067" fill = "none" stroke = "red" /> 
<polyline points = "1268.4975684403769,511.6649331855067 1157.3111500082873,506.6084447457786" fill = "none" stroke = "red" /> 
<polyline points = "1157.3111500082873,506.6084447457786 1103.470664065785,406.9516583825108" fill = "none" stroke = "red" /> 
<polyline points = "1103.470664065785,406.9516583825108 1162.1924648109325,307.79487455755117" fill = "none" stroke = "red" /> 
<polyline points = "1162.1924648109325,307.79487455755117 1279.3999999999999,307.0769515458673" fill = "none" stroke = "red" /> 
<polyline points = "1279.3999999999999,307.0769515458673 1341.3814188090798,408.8708064146508" fill = "none" stroke = "red" /> 
<polyline points = "1341.3814188090798,408.8708064146508 1285.1099887649177,516.1579639233967" fill = "none" stroke = "red" /> 
<polyline points = "1285.1099887649177,516.1579639233967 1162.197197032817,523.2668220477342" fill = "none" stroke = "red" /> 
<polyline points = "1162.197197032817,523.2668220477342 1091.7118015667427,419.92882863924916" fill = "none" stroke = "red" /> 
<polyline points = "1091.7118015667427,419.92882863924916 1144.8350632743636,304.51023424243147" fill = "none" stroke = "red" /> 
<polyline points = "1144.8350632743636,304.51023424243147 1273.0892368860054,290.4119995911766" fill = "none" stroke = "red" /> 
<polyline points = "1273.0892368860054,290.4119995911766 1352.4011843199373,394.66950798371045" fill = "none" stroke = "red" /> 
<polyline points = "1352.4011843199373,394.66950798371045 1303.1299606442906,518.1694624905134" fill = "none" stroke = "red" /> 
<polyline points = "1303.1299606442906,518.1694624905134 1169.9452229627477,539.8340988566134" fill = "none" stroke = "red" /> 
<polyline points = "1169.9452229627477,539.8340988566134 1081.526914578291,435.3107448733706" fill = "none" stroke = "red" /> 
<polyline points = "1081.526914578291,435.3107448733706 1126.239617883348,303.8312396083663" fill = "none" stroke = "red" /> 
<polyline points = "1126.239617883348,303.8312396083663 1263.8984471899912,274.0478616534974" fill = "none" stroke = "red" /> 
<polyline points = "1263.8984471899912,274.0478616534974 1361.6580294586443,378.1571460657948" fill = "none" stroke = "red" /> 
<polyline points = "1361.6580294586443,378.1571460657948 1322.209438827932,517.46229045012" fill = "none" stroke = "red" /> 
<polyline points = "1322.209438827932,517.46229045012 1180.5771432346219,555.8888739433603" fill = "none" stroke = "red" /> 
<polyline points = "1180.5771432346219,555.8888739433603 1073.2882222173755,452.89687808418336" fill = "none" stroke = "red" /> 
<polyline points = "1073.2882222173755,452.89687808418336 1106.7715299506472,305.972252550376" fill = "none" stroke = "red" /> 
<polyline points = "1106.7715299506472,305.972252550376 1251.83422376757,258.4089742855262" fill = "none" stroke = "red" /> 
<polyline points = "1251.83422376757,258.4089742855262 1368.7919349446922,359.5602315957692" fill = "none" stroke = "red" /> 
<polyline points = "1368.7919349446922,359.5602315957692 1341.9671108990362,513.8460175498467" fill = "none" stroke = "red" /> 
<polyline points = "1341.9671108990362,513.8460175498467 1194.057616663484,571.0055111764125" fill = "none" stroke = "red" /> 
<polyline points = "1194.057616663484,571.0055111764125 1067.3418478510473,472.4354813202102" fill = "none" stroke = "red" /> 
<polyline points = "1067.3418478510473,472.4354813202102 1086.8265053321493,311.0987061567601" fill = "none" stroke = "red" /> 
<polyline points = "1086.8265053321493,311.0987061567601 1236.9607818289662,243.9203215781301" fill = "none" stroke = "red" /> 
<polyline points = "1236.9607818289662,243.9203215781301 1373.47232379623,339.15489550407983" fill = "none" stroke = "red" /> 
<polyline points = "1373.47232379623,339.15489550407983 1361.9944624794678,507.18117939696776" fill = "none" stroke = "red" /> 
<polyline points = "1361.9944624794678,507.18117939696776 1210.2935436137282,584.7615390472959" fill = "none" stroke = "red" /> 
<polyline points = "1210.2935436137282,584.7615390472959 1064.0012236568289,493.62699505031645" fill = "none" stroke = "red" /> 
<polyline points = "1064.0012236568289,493.62699505031645 1066.8242204750245,319.32322266600954" fill = "none" stroke = "red" /> 
<polyline points = "1066.8242204750245,319.32322266600954 1219.3999999999992,231.0" fill = "none" stroke = "red" /> 
<polyline points = "1219.3999999999992,231.0 1375.4044487277843,317.2630703663698" fill = "none" stroke = "red" /> 
<polyline points = "1375.4044487277843,317.2630703663698 1381.8623570860425,497.38276755260415" fill = "none" stroke = "red" /> 
<polyline points = "1381.8623570860425,497.38276755260415 1229.1344878611894,596.7450934643507" fill = "none" stroke = "red" /> 
<polyline points = "1229.1344878611894,596.7450934643507 1063.540936359653,516.1282658525014" fill = "none" stroke = "red" /> 
<polyline points = "1063.540936359653,516.1282658525014 1047.2015204630352,330.70253026926997" fill = "none" stroke = "red" /> 
<polyline points = "1047.2015204630352,330.70253026926997 1199.3305350526107,220.0517960892915" fill = "none" stroke = "red" /> 
<polyline points = "1199.3305350526107,220.0517960892915 1374.3352889491755,294.2478855085033" fill = "none" stroke = "red" /> 
<polyline points = "1374.3352889491755,294.2478855085033 1401.128035495091,484.4228923095176" fill = "none" stroke = "red" /> 
<polyline points = "1401.128035495091,484.4228923095176 1250.3740240779664,606.5622914378372" fill = "none" stroke = "red" /> 
<polyline points = "1250.3740240779664,606.5622914378372 1066.1911113762062,539.55752193731" fill = "none" stroke = "red" /> 
<text x = "267.0" y = "1079.2" dominant-baseline= "central" text-anchor= "middle" font-size = "30px" fill = "red">TOP </text> 
<text x = "267.0" y = "411.0" dominant-baseline= "central" text-anchor= "middle" font-size = "30px" fill = "red">FRONT </text> 
<rect x = "65.4" y = "781.6" width = "403.20000000000005" height = "595.2" style="fill:none;stroke:black;stroke-horizontalDim:2"/>
<polyline points = "65.4,854.6 84.00000000000003,854.6" fill = "none" stroke = "black" /> 
<polyline points = "90.00000000000003,854.6 97.00000000000003,854.6" fill = "none" stroke = "black" /> 
<path d = "M 97.00000000000003 854.6 C 97.00000000000003 864.6, 137.00000000000003 864.6, 137.00000000000003 854.6" stroke = "black" fill = "transparent"/>
<polyline points = "137.00000000000003 854.6 144.00000000000003,854.6" fill = "none" stroke = "black" /> 
<polyline points = "65.4,864.6 84.00000000000003,864.6" fill = "none" stroke = "black" /> 
<polyline points = "90.00000000000003,864.6 97.00000000000003,864.6" fill = "none" stroke = "black" /> 
<path d = "M 97.00000000000003 864.6 C 97.00000000000003 874.6, 137.00000000000003 874.6, 137.00000000000003 864.6" stroke = "black" fill = "transparent"/>
<polyline points = "137.00000000000003 864.6 144.00000000000003,864.6" fill = "none" stroke = "black" /> 
<polyline points = "65.4,874.6 84.00000000000003,874.6" fill = "none" stroke = "black" /> 
<polyline points = "90.00000000000003,874.6 97.00000000000003,874.6" fill = "none" stroke = "black" /> 
<path d = "M 97.00000000000003 874.6 C 97.00000000000003 884.6, 137.00000000000003 884.6, 137.00000000000003 874.6" stroke = "black" fill = "transparent"/>
<polyline points = "137.00000000000003 874.6 144.00000000000003,874.6" fill = "none" stroke = "black" /> 
<polyline points = "65.4,884.6 84.00000000000003,884.6" fill = "none" stroke = "black" /> 
<polyline points = "90.00000000000003,884.6 97.00000000000003,884.6" fill = "none" stroke = "black" /> 
<path d = "M 97.00000000000003 884.6 C 97.00000000000003 894.6, 137.00000000000003 894.6, 137.00000000000003 884.6" stroke = "black" fill = "transparent"/>
<polyline points = "137.00000000000003 884.6 144.00000000000003,884.6" fill = "none" stroke = "black" /> 
<polyline points = "65.4,894.6 84.00000000000003,894.6" fill = "none" stroke = "black" /> 
<polyline points = "90.00000000000003,894.6 97.00000000000003,894.6" fill = "none" stroke = "black" /> 
<path d = "M 97.00000000000003 894.6 C 97.00000000000003 904.6, 137.00000000000003 904.6, 137.00000000000003 894.6" stroke = "black" fill = "transparent"/>
<polyline points = "137.00000000000003 894.6 144.00000000000003,894.6" fill = "none" stroke = "black" /> 
<polyline points = "65.4,904.6 84.00000000000003,904.6" fill = "none" stroke = "black" /> 
<polyline points = "90.00000000000003,904.6 97.00000000000003,904.6" fill = "none" stroke = "black" /> 
<path d = "M 97.00000000000003 904.6 C 97.00000000000003 914.6, 137.00000000000003 914.6, 137.00000000000003 904.6" stroke = "black" fill = "transparent"/>
<polyline points = "137.00000000000003 904.6 144.00000000000003,904.6" fill = "none" stroke = "black" /> 
<polyline points = "65.4,914.6 84.00000000000003,914.6" fill = "none" stroke = "black" /> 
<polyline points = "90.00000000000003,914.6 97.00000000000003,914.6" fill = "none" stroke = "black" /> 
<path d = "M 97.00000000000003 914.6 C 97.00000000000003 924.6, 137.00000000000003 924.6, 137.00000000000003 914.6" stroke = "black" fill = "transparent"/>
<polyline points = "137.00000000000003 914.6 144.00000000000003,914.6" fill = "none" stroke = "black" /> 
<polyline points = "65.4,924.6 84.00000000000003,924.6" fill = "none" stroke = "black" /> 
<polyline points = "90.00000000000003,924.6 97.00000000000003,924.6" fill = "none" stroke = "black" /> 
<path d = "M 97.00000000000003 924.6 C 97.00000000000003 934.6, 137.00000000000003 934.6, 137.00000000000003 924.6" stroke = "black" fill = "transparent"/>
<polyline points = "137.00000000000003 924.6 144.00000000000003,924.6" fill = "none" stroke = "black" /> 
<polyline points = "65.4,934.6 84.00000000000003,934.6" fill = "none" stroke = "black" /> 
<polyline points = "90.00000000000003,934.6 97.00000000000003,934.6" fill = "none" stroke = "black" /> 
<path d = "M 97.00000000000003 934.6 C 97.00000000000003 944.6, 137.00000000000003 944.6, 137.00000000000003 934.6" stroke = "black" fill = "transparent"/>
<polyline points = "137.00000000000003 934.6 144.00000000000003,934.6" fill = "none" stroke = "black" /> 
<polyline points = "65.4,944.6 84.00000000000003,944.6" fill = "none" stroke = "black" /> 
<polyline points = "90.00000000000003,944.6 97.00000000000003,944.6" fill = "none" stroke = "black" /> 
<path d = "M 97.00000000000003 944.6 C 97.00000000000003 954.6, 137.00000000000003 954.6, 137.00000000000003 944.6" stroke = "black" fill = "transparent"/>
<polyline points = "137.00000000000003 944.6 144.00000000000003,944.6" fill = "none" stroke = "black" /> 
<polyline points = "150.00000000000003,858.6 157.00000000000003,858.6" fill = "none" stroke = "black" /> 
<path d = "M 157.00000000000003 858.6 C 157.00000000000003 868.6, 197.00000000000003 868.6, 197.00000000000003 858.6" stroke = "black" fill = "transparent"/>
<polyline points = "197.00000000000003 858.6 204.00000000000003,858.6" fill = "none" stroke = "black" /> 
<polyline points = "150.00000000000003,868.6 157.00000000000003,868.6" fill = "none" stroke = "black" /> 
<path d = "M 157.00000000000003 868.6 C 157.00000000000003 878.6, 197.00000000000003 878.6, 197.00000000000003 868.6" stroke = "black" fill = "transparent"/>
<polyline points = "197.00000000000003 868.6 204.00000000000003,868.6" fill = "none" stroke = "black" /> 
<polyline points = "150.00000000000003,878.6 157.00000000000003,878.6" fill = "none" stroke = "black" /> 
<path d = "M 157.00000000000003 878.6 C 157.00000000000003 888.6, 197.00000000000003 888.6, 197.00000000000003 878.6" stroke = "black" fill = "transparent"/>
<polyline points = "197.00000000000003 878.6 204.00000000000003,878.6" fill = "none" stroke = "black" /> 
<polyline points = "150.00000000000003,888.6 157.00000000000003,888.6" fill = "none" stroke = "black" /> 
<path d = "M 157.00000000000003 888.6 C 157.00000000000003 898.6, 197.00000000000003 898.6, 197.00000000000003 888.6" stroke = "black" fill = "transparent"/>
<polyline points = "197.00000000000003 888.6 204.00000000000003,888.6" fill = "none" stroke = "black" /> 
<polyline points = "150.00000000000003,898.6 157.00000000000003,898.6" fill = "none" stroke = "black" /> 
<path d = "M 157.00000000000003 898.6 C 157.00000000000003 908.6, 197.00000000000003 908.6, 197.00000000000003 898.6" stroke = "black" fill = "transparent"/>
<polyline points = "197.00000000000003 898.6 204.00000000000003,898.6" fill = "none" stroke = "black" /> 
<polyline points = "150.00000000000003,908.6 157.00000000000003,908.6" fill = "none" stroke = "black" /> 
<path d = "M 157.00000000000003 908.6 C 157.00000000000003 918.6, 197.00000000000003 918.6, 197.00000000000003 908.6" stroke = "black" fill = "transparent"/>
<polyline points = "197.00000000000003 908.6 204.00000000000003,908.6" fill = "none" stroke = "black" /> 
<polyline points = "150.00000000000003,918.6 157.00000000000003,918.6" fill = "none" stroke = "black" /> 
<path d = "M 157.00000000000003 918.6 C 157.00000000000003 928.6, 197.00000000000003 928.6, 197.00000000000003 918.6" stroke = "black" fill = "transparent"/>
<polyline points = "197.00000000000003 918.6 204.00000000000003,918.6" fill = "none" stroke = "black" /> 
<polyline points = "150.00000000000003,928.6 157.00000000000003,928.6" fill = "none" stroke = "black" /> 
<path d = "M 157.00000000000003 928.6 C 157.00000000000003 938.6, 197.00000000000003 938.6, 197.00000000000003 928.6" stroke = "black" fill = "transparent"/>
<polyline points = "197.00000000000003 928.6 204.00000000000003,928.6" fill = "none" stroke = "black" /> 
<polyline points = "150.00000000000003,938.6 157.00000000000003,938.6" fill = "none" stroke = "black" /> 
<path d = "M 157.00000000000003 938.6 C 157.00000000000003 948.6, 197.00000000000003 948.6, 197.00000000000003 938.6" stroke = "black" fill = "transparent"/>
<polyline points = "197.00000000000003 938.6 204.00000000000003,938.6" fill = "none" stroke = "black" /> 
<polyline points = "150.00000000000003,948.6 157.00000000000003,948.6" fill = "none" stroke = "black" /> 
<path d = "M 157.00000000000003 948.6 C 157.00000000000003 958.6, 197.00000000000003 958.6, 197.00000000000003 948.6" stroke = "black" fill = "transparent"/>
<polyline points = "197.00000000000003 948.6 204.00000000000003,948.6" fill = "none" stroke = "black" /> 
<polyline points = "210.00000000000003,854.6 217.00000000000003,854.6" fill = "none" stroke = "black" /> 
<path d = "M 217.00000000000003 854.6 C 217.00000000000003 864.6, 257.0 864.6, 257.0 854.6" stroke = "black" fill = "transparent"/>
<polyline points = "257.0 854.6 264.0,854.6" fill = "none" stroke = "black" /> 
<polyline points = "210.00000000000003,864.6 217.00000000000003,864.6" fill = "none" stroke = "black" /> 
<path d = "M 217.00000000000003 864.6 C 217.00000000000003 874.6, 257.0 874.6, 257.0 864.6" stroke = "black" fill = "transparent"/>
<polyline points = "257.0 864.6 264.0,864.6" fill = "none" stroke = "black" /> 
<polyline points = "210.00000000000003,874.6 217.00000000000003,874.6" fill = "none" stroke = "black" /> 
<path d = "M 217.00000000000003 874.6 C 217.00000000000003 884.6, 257.0 884.6, 257.0 874.6" stroke = "black" fill = "transparent"/>
<polyline points = "257.0 874.6 264.0,874.6" fill = "none" stroke = "black" /> 
<polyline points = "210.00000000000003,884.6 217.00000000000003,884.6" fill = "none" stroke = "black" /> 
<path d = "M 217.00000000000003 884.6 C 217.00000000000003 894.6, 257.0 894.6, 257.0 884.6" stroke = "black" fill = "transparent"/>
<polyline points = "257.0 884.6 264.0,884.6" fill = "none" stroke = "black" /> 
<polyline points = "210.00000000000003,894.6 217.00000000000003,894.6" fill = "none" stroke = "black" /> 
<path d = "M 217.00000000000003 894.6 C 217.00000000000003 904.6, 257.0 904.6, 257.0 894.6" stroke = "black" fill = "transparent"/>
<polyline points = "257.0 894.6 264.0,894.6" fill = "none" stroke = "black" /> 
<polyline points = "210.00000000000003,904.6 217.00000000000003,904.6" fill = "none" stroke = "black" /> 
<path d = "M 217.00000000000003 904.6 C 217.00000000000003 914.6, 257.0 914.6, 257.0 904.6" stroke = "black" fill = "transparent"/>
<polyline points = "257.0 904.6 264.0,904.6" fill = "none" stroke = "black" /> 
<polyline points = "210.00000000000003,914.6 217.00000000000003,914.6" fill = "none" stroke = "black" /> 
<path d = "M 217.00000000000003 914.6 C 217.00000000000003 924.6, 257.0 924.6, 257.0 914.6" stroke = "black" fill = "transparent"/>
<polyline points = "257.0 914.6 264.0,914.6" fill = "none" stroke = "black" /> 
<polyline points = "210.00000000000003,924.6 217.00000000000003,924.6" fill = "none" stroke = "black" /> 
<path d = "M 217.00000000000003 924.6 C 217.00000000000003 934.6, 257.0 934.6, 257.0 924.6" stroke = "black" fill = "transparent"/>
<polyline points = "257.0 924.6 264.0,924.6" fill = "none" stroke = "black" /> 
<polyline points = "210.00000000000003,934.6 217.00000000000003,934.6" fill = "none" stroke = "black" /> 
<path d = "M 217.00000000000003 934.6 C 217.00000000000003 944.6, 257.0 944.6, 257.0 934.6" stroke = "black" fill = "transparent"/>
<polyline points = "257.0 934.6 264.0,934.6" fill = "none" stroke = "black" /> 
<polyline points = "210.00000000000003,944.6 217.00000000000003,944.6" fill = "none" stroke = "black" /> 
<path d = "M 217.00000000000003 944.6 C 217.00000000000003 954.6, 257.0 954.6, 257.0 944.6" stroke = "black" fill = "transparent"/>
<polyline points = "257.0 944.6 264.0,944.6" fill = "none" stroke = "black" /> 
<polyline points = "270.0,858.6 277.0,858.6" fill = "none" stroke = "black" /> 
<path d = "M 277.0 858.6 C 277.0 868.6, 317.0 868.6, 317.0 858.6" stroke = "black" fill = "transparent"/>
<polyline points = "317.0 858.6 324.0,858.6" fill = "none" stroke = "black" /> 
<polyline points = "270.0,868.6 277.0,868.6" fill = "none" stroke = "black" /> 
<path d = "M 277.0 868.6 C 277.0 878.6, 317.0 878.6, 317.0 868.6" stroke = "black" fill = "transparent"/>
<polyline points = "317.0 868.6 324.0,868.6" fill = "none" stroke = "black" /> 
<polyline points = "270.0,878.6 277.0,878.6" fill = "none" stroke = "black" /> 
<path d = "M 277.0 878.6 C 277.0 888.6, 317.0 888.6, 317.0 878.6" stroke = "black" fill = "transparent"/>
<polyline points = "317.0 878.6 324.0,878.6" fill = "none" stroke = "black" /> 
<polyline points = "270.0,888.6 277.0,888.6" fill = "none" stroke = "black" /> 
<path d = "M 277.0 888.6 C 277.0 898.6, 317.0 898.6, 317.0 888.6" stroke = "black" fill = "transparent"/>
<polyline points = "317.0 888.6 324.0,888.6" fill = "none" stroke = "black" /> 
<polyline points = "270.0,898.6 277.0,898.6" fill = "none" stroke = "black" /> 
<path d = "M 277.0 898.6 C 277.0 908.6, 317.0 908.6, 317.0 898.6" stroke = "black" fill = "transparent"/>
<polyline points = "317.0 898.6 324.0,898.6" fill = "none" stroke = "black" /> 
<polyline points = "270.0,908.6 277.0,908.6" fill = "none" stroke = "black" /> 
<path d = "M 277.0 908.6 C 277.0 918.6, 317.0 918.6, 317.0 908.6" stroke = "black" fill = "transparent"/>
<polyline points = "317.0 908.6 324.0,908.6" fill = "none" stroke = "black" /> 
<polyline points = "270.0,918.6 277.0,918.6" fill = "none" stroke = "black" /> 
<path d = "M 277.0 918.6 C 277.0 928.6, 317.0 928.6, 317.0 918.6" stroke = "black" fill = "transparent"/>
<polyline points = "317.0 918.6 324.0,918.6" fill = "none" stroke = "black" /> 
<polyline points = "270.0,928.6 277.0,928.6" fill = "none" stroke = "black" /> 
<path d = "M 277.0 928.6 C 277.0 938.6, 317.0 938.6, 317.0 928.6" stroke = "black" fill = "transparent"/>
<polyline points = "317.0 928.6 324.0,928.6" fill = "none" stroke = "black" /> 
<polyline points = "270.0,938.6 277.0,938.6" fill = "none" stroke = "black" /> 
<path d = "M 277.0 938.6 C 277.0 948.6, 317.0 948.6, 317.0 938.6" stroke = "black" fill = "transparent"/>
<polyline points = "317.0 938.6 324.0,938.6" fill = "none" stroke = "black" /> 
<polyline points = "270.0,948.6 277.0,948.6" fill = "none" stroke = "black" /> 
<path d = "M 277.0 948.6 C 277.0 958.6, 317.0 958.6, 317.0 948.6" stroke = "black" fill = "transparent"/>
<polyline points = "317.0 948.6 324.0,948.6" fill = "none" stroke = "black" /> 
<polyline points = "330.0,854.6 337.0,854.6" fill = "none" stroke = "black" /> 
<path d = "M 337.0 854.6 C 337.0 864.6, 377.0 864.6, 377.0 854.6" stroke = "black" fill = "transparent"/>
<polyline points = "377.0 854.6 384.0,854.6" fill = "none" stroke = "black" /> 
<polyline points = "330.0,864.6 337.0,864.6" fill = "none" stroke = "black" /> 
<path d = "M 337.0 864.6 C 337.0 874.6, 377.0 874.6, 377.0 864.6" stroke = "black" fill = "transparent"/>
<polyline points = "377.0 864.6 384.0,864.6" fill = "none" stroke = "black" /> 
<polyline points = "330.0,874.6 337.0,874.6" fill = "none" stroke = "black" /> 
<path d = "M 337.0 874.6 C 337.0 884.6, 377.0 884.6, 377.0 874.6" stroke = "black" fill = "transparent"/>
<polyline points = "377.0 874.6 384.0,874.6" fill = "none" stroke = "black" /> 
<polyline points = "330.0,884.6 337.0,884.6" fill = "none" stroke = "black" /> 
<path d = "M 337.0 884.6 C 337.0 894.6, 377.0 894.6, 377.0 884.6" stroke = "black" fill = "transparent"/>
<polyline points = "377.0 884.6 384.0,884.6" fill = "none" stroke = "black" /> 
<polyline points = "330.0,894.6 337.0,894.6" fill = "none" stroke = "black" /> 
<path d = "M 337.0 894.6 C 337.0 904.6, 377.0 904.6, 377.0 894.6" stroke = "black" fill = "transparent"/>
<polyline points = "377.0 894.6 384.0,894.6" fill = "none" stroke = "black" /> 
<polyline points = "330.0,904.6 337.0,904.6" fill = "none" stroke = "black" /> 
<path d = "M 337.0 904.6 C 337.0 914.6, 377.0 914.6, 377.0 904.6" stroke = "black" fill = "transparent"/>
<polyline points = "377.0 904.6 384.0,904.6" fill = "none" stroke = "black" /> 
<polyline points = "330.0,914.6 337.0,914.6" fill = "none" stroke = "black" /> 
<path d = "M 337.0 914.6 C 337.0 924.6, 377.0 924.6, 377.0 914.6" stroke = "black" fill = "transparent"/>
<polyline points = "377.0 914.6 384.0,914.6" fill = "none" stroke = "black" /> 
<polyline points = "330.0,924.6 337.0,924.6" fill = "none" stroke = "black" /> 
<path d = "M 337.0 924.6 C 337.0 934.6, 377.0 934.6, 377.0 924.6" stroke = "black" fill = "transparent"/>
<polyline points = "377.0 924.6 384.0,924.6" fill = "none" stroke = "black" /> 
<polyline points = "330.0,934.6 337.0,934.6" fill = "none" stroke = "black" /> 
<path d = "M 337.0 934.6 C 337.0 944.6, 377.0 944.6, 377.0 934.6" stroke = "black" fill = "transparent"/>
<polyline points = "377.0 934.6 384.0,934.6" fill = "none" stroke = "black" /> 
<polyline points = "330.0,944.6 337.0,944.6" fill = "none" stroke = "black" /> 
<path d = "M 337.0 944.6 C 337.0 954.6, 377.0 954.6, 377.0 944.6" stroke = "black" fill = "transparent"/>
<polyline points = "377.0 944.6 384.0,944.6" fill = "none" stroke = "black" /> 
<polyline points = "390.0,858.6 397.0,858.6" fill = "none" stroke = "black" /> 
<path d = "M 397.0 858.6 C 397.0 868.6, 437.0 868.6, 437.0 858.6" stroke = "black" fill = "transparent"/>
<polyline points = "437.0 858.6 444.0,858.6" fill = "none" stroke = "black" /> 
<polyline points = "450.0 858.6 468.6,858.6" fill = "none" stroke = "black" /> 
<polyline points = "390.0,868.6 397.0,868.6" fill = "none" stroke = "black" /> 
<path d = "M 397.0 868.6 C 397.0 878.6, 437.0 878.6, 437.0 868.6" stroke = "black" fill = "transparent"/>
<polyline points = "437.0 868.6 444.0,868.6" fill = "none" stroke = "black" /> 
<polyline points = "450.0 868.6 468.6,868.6" fill = "none" stroke = "black" /> 
<polyline points = "390.0,878.6 397.0,878.6" fill = "none" stroke = "black" /> 
<path d = "M 397.0 878.6 C 397.0 888.6, 437.0 888.6, 437.0 878.6" stroke = "black" fill = "transparent"/>
<polyline points = "437.0 878.6 444.0,878.6" fill = "none" stroke = "black" /> 
<polyline points = "450.0 878.6 468.6,878.6" fill = "none" stroke = "black" /> 
<polyline points = "390.0,888.6 397.0,888.6" fill = "none" stroke = "black" /> 
<path d = "M 397.0 888.6 C 397.0 898.6, 437.0 898.6, 437.0 888.6" stroke = "black" fill = "transparent"/>
<polyline points = "437.0 888.6 444.0,888.6" fill = "none" stroke = "black" /> 
<polyline points = "450.0 888.6 468.6,888.6" fill = "none" stroke = "black" /> 
<polyline points = "390.0,898.6 397.0,898.6" fill = "none" stroke = "black" /> 
<path d = "M 397.0 898.6 C 397.0 908.6, 437.0 908.6, 437.0 898.6" stroke = "black" fill = "transparent"/>
<polyline points = "437.0 898.6 444.0,898.6" fill = "none" stroke = "black" /> 
<polyline points = "450.0 898.6 468.6,898.6" fill = "none" stroke = "black" /> 
<polyline points = "390.0,908.6 397.0,908.6" fill = "none" stroke = "black" /> 
<path d = "M 397.0 908.6 C 397.0 918.6, 437.0 918.6, 437.0 908.6" stroke = "black" fill = "transparent"/>
<polyline points = "437.0 908.6 444.0,908.6" fill = "none" stroke = "black" /> 
<polyline points = "450.0 908.6 468.6,908.6" fill = "none" stroke = "black" /> 
<polyline points = "390.0,918.6 397.0,918.6" fill = "none" stroke = "black" /> 
<path d = "M 397.0 918.6 C 397.0 928.6, 437.0 928.6, 437.0 918.6" stroke = "black" fill = "transparent"/>
<polyline points = "437.0 918.6 444.0,918.6" fill = "none" stroke = "black" /> 
<polyline points = "450.0 918.6 468.6,918.6" fill = "none" stroke = "black" /> 
<polyline points = "390.0,928.6 397.0,928.6" fill = "none" stroke = "black" /> 
<path d = "M 397.0 928.6 C 397.0 938.6, 437.0 938.6, 437.0 928.6" stroke = "black" fill = "transparent"/>
<polyline points = "437.0 928.6 444.0,928.6" fill = "none" stroke = "black" /> 
<polyline points = "450.0 928.6 468.6,928.6" fill = "none" stroke = "black" /> 
<polyline points = "390.0,938.6 397.0,938.6" fill = "none" stroke = "black" /> 
<path d = "M 397.0 938.6 C 397.0 948.6, 437.0 948.6, 437.0 938.6" stroke = "black" fill = "transparent"/>
<polyline points = "437.0 938.6 444.0,938.6" fill = "none" stroke = "black" /> 
<polyline points = "450.0 938.6 468.6,938.6" fill = "none" stroke = "black" /> 
<polyline points = "390.0,948.6 397.0,948.6" fill = "none" stroke = "black" /> 
<path d = "M 397.0 948.6 C 397.0 958.6, 437.0 958.6, 437.0 948.6" stroke = "black" fill = "transparent"/>
<polyline points = "437.0 948.6 444.0,948.6" fill = "none" stroke = "black" /> 
<polyline points = "450.0 948.6 468.6,948.6" fill = "none" stroke = "black" /> 
</svg>