<?xml version = "1.0" encoding = "UTF-8" ?> 
<svg xmlns="http://www.w3.org/2000/svg" version = "1.1"> 
<line x1="75" y1="40" x2="171" y2 ="40" style="stroke:red;stroke-horizontalDim:4"/>
<text x = "181" y = "45" font-size = "20px" fill = "red"> = 1 inch </text> 
<polyline points="75,75 459.0,75 " style="fill:none;stroke:black;stroke-horizontalDim:2"/>
<polyline points="459.0,75 483.0,75 483.0,123.0 459.0,123.0 459.0,171.0 459.0,171 483.0,171 483.0,219.0 459.0,219.0 459.0,267.0 459.0,267 483.0,267 483.0,315.0 459.0,315.0 459.0,363.0 459.0,363 483.0,363 483.0,411.0 459.0,411.0 459.0,459.0 459.0,459 483.0,459 483.0,507.0 459.0,507.0 459.0,555.0 " style="fill:none;stroke:black;stroke-horizontalDim:2"/>
<polyline points="459.0,555.0 459.0,579.0 411.0,579.0 411.0,555.0 363.0,555.0 363.0,555.0 363.0,579.0 315.0,579.0 315.0,555.0 267.0,555.0 267.0,555.0 267.0,579.0 219.0,579.0 219.0,555.0 171.0,555.0 171.0,555.0 171.0,579.0 123.0,579.0 123.0,555.0 75.0,555.0 " style="fill:none;stroke:black;stroke-horizontalDim:2"/>
<polyline points="75.0,555.0 51.0,555.0 51.0,507.0 75.0,507.0 75.0,459.0 75.0,459.0 51.0,459.0 51.0,411.0 75.0,411.0 75.0,363.0 75.0,363.0 51.0,363.0 51.0,315.0 75.0,315.0 75.0,267.0 75.0,267.0 51.0,267.0 51.0,219.0 75.0,219.0 75.0,171.0 75.0,171.0 51.0,171.0 51.0,123.0 75.0,123.0 75.0,75.0 " style="fill:none;stroke:black;stroke-horizontalDim:2"/>
<polyline points="532.0,75 916.0,75 " style="fill:none;stroke:black;stroke-horizontalDim:2"/>
<polyline points="916.0,75 940.0,75 940.0,123.0 916.0,123.0 916.0,171.0 916.0,171 940.0,171 940.0,219.0 916.0,219.0 916.0,267.0 916.0,267 940.0,267 940.0,315.0 916.0,315.0 916.0,363.0 916.0,363 940.0,363 940.0,411.0 916.0,411.0 916.0,459.0 916.0,459 940.0,459 940.0,507.0 916.0,507.0 916.0,555.0 " style="fill:none;stroke:black;stroke-horizontalDim:2"/>
<polyline points="916.0,555.0 916.0,579.0 868.0,579.0 868.0,555.0 820.0,555.0 820.0,555.0 820.0,579.0 772.0,579.0 772.0,555.0 724.0,555.0 724.0,555.0 724.0,579.0 676.0,579.0 676.0,555.0 628.0,555.0 628.0,555.0 628.0,579.0 580.0,579.0 580.0,555.0 532.0,555.0 " style="fill:none;stroke:black;stroke-horizontalDim:2"/>
<polyline points="532.0,555.0 508.0,555.0 508.0,507.0 532.0,507.0 532.0,459.0 532.0,459.0 508.0,459.0 508.0,411.0 532.0,411.0 532.0,363.0 532.0,363.0 508.0,363.0 508.0,315.0 532.0,315.0 532.0,267.0 532.0,267.0 508.0,267.0 508.0,219.0 532.0,219.0 532.0,171.0 532.0,171.0 508.0,171.0 508.0,123.0 532.0,123.0 532.0,75.0 " style="fill:none;stroke:black;stroke-horizontalDim:2"/>
<polyline points="989.0,75 1565.0,75 " style="fill:none;stroke:black;stroke-horizontalDim:2"/>
<polyline points="1565.0,75 1589.0,75 1589.0,123.0 1565.0,123.0 1565.0,171.0 1565.0,171 1589.0,171 1589.0,219.0 1565.0,219.0 1565.0,267.0 1565.0,267 1589.0,267 1589.0,315.0 1565.0,315.0 1565.0,363.0 1565.0,363 1589.0,363 1589.0,411.0 1565.0,411.0 1565.0,459.0 1565.0,459 1589.0,459 1589.0,507.0 1565.0,507.0 1565.0,555.0 " style="fill:none;stroke:black;stroke-horizontalDim:2"/>
<polyline points="1565.0,555.0 1565.0,579.0 1517.0,579.0 1517.0,555.0 1469.0,555.0 1469.0,555.0 1469.0,579.0 1421.0,579.0 1421.0,555.0 1373.0,555.0 1373.0,555.0 1373.0,579.0 1325.0,579.0 1325.0,555.0 1277.0,555.0 1277.0,555.0 1277.0,579.0 1229.0,579.0 1229.0,555.0 1181.0,555.0 1181.0,555.0 1181.0,579.0 1133.0,579.0 1133.0,555.0 1085.0,555.0 1085.0,555.0 1085.0,579.0 1037.0,579.0 1037.0,555.0 989.0,555.0 " style="fill:none;stroke:black;stroke-horizontalDim:2"/>
<polyline points="989.0,555.0 965.0,555.0 965.0,507.0 989.0,507.0 989.0,459.0 989.0,459.0 965.0,459.0 965.0,411.0 989.0,411.0 989.0,363.0 989.0,363.0 965.0,363.0 965.0,315.0 989.0,315.0 989.0,267.0 989.0,267.0 965.0,267.0 965.0,219.0 989.0,219.0 989.0,171.0 989.0,171.0 965.0,171.0 965.0,123.0 989.0,123.0 989.0,75.0 " style="fill:none;stroke:black;stroke-horizontalDim:2"/>
<polyline points="1638.0,75 2214.0,75 " style="fill:none;stroke:black;stroke-horizontalDim:2"/>
<polyline points="2214.0,75 2238.0,75 2238.0,123.0 2214.0,123.0 2214.0,171.0 2214.0,171 2238.0,171 2238.0,219.0 2214.0,219.0 2214.0,267.0 2214.0,267 2238.0,267 2238.0,315.0 2214.0,315.0 2214.0,363.0 2214.0,363 2238.0,363 2238.0,411.0 2214.0,411.0 2214.0,459.0 2214.0,459 2238.0,459 2238.0,507.0 2214.0,507.0 2214.0,555.0 " style="fill:none;stroke:black;stroke-horizontalDim:2"/>
<polyline points="2214.0,555.0 2214.0,579.0 2166.0,579.0 2166.0,555.0 2118.0,555.0 2118.0,555.0 2118.0,579.0 2070.0,579.0 2070.0,555.0 2022.0,555.0 2022.0,555.0 2022.0,579.0 1974.0,579.0 1974.0,555.0 1926.0,555.0 1926.0,555.0 1926.0,579.0 1878.0,579.0 1878.0,555.0 1830.0,555.0 1830.0,555.0 1830.0,579.0 1782.0,579.0 1782.0,555.0 1734.0,555.0 1734.0,555.0 1734.0,579.0 1686.0,579.0 1686.0,555.0 1638.0,555.0 " style="fill:none;stroke:black;stroke-horizontalDim:2"/>
<polyline points="1638.0,555.0 1614.0,555.0 1614.0,507.0 1638.0,507.0 1638.0,459.0 1638.0,459.0 1614.0,459.0 1614.0,411.0 1638.0,411.0 1638.0,363.0 1638.0,363.0 1614.0,363.0 1614.0,315.0 1638.0,315.0 1638.0,267.0 1638.0,267.0 1614.0,267.0 1614.0,219.0 1638.0,219.0 1638.0,171.0 1638.0,171.0 1614.0,171.0 1614.0,123.0 1638.0,123.0 1638.0,75.0 " style="fill:none;stroke:black;stroke-horizontalDim:2"/>
<polyline points="532.0,628.0 532.0,604.0 580.0,604.0 580.0,628.0 628.0,628.0 628.0,628.0 628.0,604.0 676.0,604.0 676.0,628.0 724.0,628.0 724.0,628.0 724.0,604.0 772.0,604.0 772.0,628.0 820.0,628.0 820.0,628.0 820.0,604.0 868.0,604.0 868.0,628.0 916.0,628.0 " style="fill:none;stroke:black;stroke-horizontalDim:2"/>
<polyline points="916.0,628.0 940.0,628.0 940.0,676.0 916.0,676.0 916.0,724.0 916.0,724.0 940.0,724.0 940.0,772.0 916.0,772.0 916.0,820.0 916.0,820.0 940.0,820.0 940.0,868.0 916.0,868.0 916.0,916.0 916.0,916.0 940.0,916.0 940.0,964.0 916.0,964.0 916.0,1012.0 916.0,1012.0 940.0,1012.0 940.0,1060.0 916.0,1060.0 916.0,1108.0 916.0,1108.0 940.0,1108.0 940.0,1156.0 916.0,1156.0 916.0,1204.0 " style="fill:none;stroke:black;stroke-horizontalDim:2"/>
<polyline points="916.0,1204.0 916.0,1228.0 868.0,1228.0 868.0,1204.0 820.0,1204.0 820.0,1204.0 820.0,1228.0 772.0,1228.0 772.0,1204.0 724.0,1204.0 724.0,1204.0 724.0,1228.0 676.0,1228.0 676.0,1204.0 628.0,1204.0 628.0,1204.0 628.0,1228.0 580.0,1228.0 580.0,1204.0 532.0,1204.0 " style="fill:none;stroke:black;stroke-horizontalDim:2"/>
<polyline points="532.0,1204.0 508.0,1204.0 508.0,1156.0 532.0,1156.0 532.0,1108.0 532.0,1108.0 508.0,1108.0 508.0,1060.0 532.0,1060.0 532.0,1012.0 532.0,1012.0 508.0,1012.0 508.0,964.0 532.0,964.0 532.0,916.0 532.0,916.0 508.0,916.0 508.0,868.0 532.0,868.0 532.0,820.0 532.0,820.0 508.0,820.0 508.0,772.0 532.0,772.0 532.0,724.0 532.0,724.0 508.0,724.0 508.0,676.0 532.0,676.0 532.0,628.0 " style="fill:none;stroke:black;stroke-horizontalDim:2"/>
<polyline points = "724.0,916.0 725.0300761498202,917.7143346014042" fill = "none" stroke = "red" /> 
<polyline points = "724.0,916.0 725.0300761498202,917.7143346014042" fill = "none" stroke = "red" /> 
<polyline points = "725.0300761498202,917.7143346014042 722.1221137488565,919.5317903714357" fill = "none" stroke = "red" /> 
<polyline points = "722.1221137488565,919.5317903714357 718.0082227914726,916.3140157374577" fill = "none" stroke = "red" /> 
<polyline points = "718.0082227914726,916.3140157374577 719.526456772234,909.3676994195597" fill = "none" stroke = "red" /> 
<polyline points = "719.526456772234,909.3676994195597 728.226182617407,906.9369221296336" fill = "none" stroke = "red" /> 
<polyline points = "728.226182617407,906.9369221296336 735.9342627444192,914.7456584407881" fill = "none" stroke = "red" /> 
<polyline points = "735.9342627444192,914.7456584407881 732.4254103241287,927.1808971406621" fill = "none" stroke = "red" /> 
<polyline points = "732.4254103241287,927.1808971406621 718.0062945053454,930.8349416730686" fill = "none" stroke = "red" /> 
<polyline points = "718.0062945053454,930.8349416730686 706.2216098692875,918.8158203707242" fill = "none" stroke = "red" /> 
<polyline points = "706.2216098692875,918.8158203707242 711.1442478062693,900.6791111376205" fill = "none" stroke = "red" /> 
<polyline points = "711.1442478062693,900.6791111376205 731.1624993980574,895.1985913368151" fill = "none" stroke = "red" /> 
<polyline points = "731.1624993980574,895.1985913368151 747.4755424176113,911.0101194203738" fill = "none" stroke = "red" /> 
<polyline points = "747.4755424176113,911.0101194203738 741.731957361625,935.0151962420985" fill = "none" stroke = "red" /> 
<polyline points = "741.731957361625,935.0151962420985 716.282154037124,942.9153274862729" fill = "none" stroke = "red" /> 
<polyline points = "716.282154037124,942.9153274862729 695.022225211328,923.7645713530757" fill = "none" stroke = "red" /> 
<polyline points = "695.022225211328,923.7645713530757 700.9811263891631,893.7709321453121" fill = "none" stroke = "red" /> 
<polyline points = "700.9811263891631,893.7709321453121 731.6483358476913,882.871417797302" fill = "none" stroke = "red" /> 
<polyline points = "731.6483358476913,882.871417797302 758.2380345866255,904.8753882025018" fill = "none" stroke = "red" /> 
<polyline points = "758.2380345866255,904.8753882025018 752.6789640484653,940.9302431016393" fill = "none" stroke = "red" /> 
<polyline points = "752.6789640484653,940.9302431016393 717.0540728933228,955.3923101204883" fill = "none" stroke = "red" /> 
<polyline points = "717.0540728933228,955.3923101204883 684.7896220871176,931.0514538809026" fill = "none" stroke = "red" /> 
<polyline points = "684.7896220871176,931.0514538809026 689.3275268413042,888.910895085671" fill = "none" stroke = "red" /> 
<polyline points = "689.3275268413042,888.910895085671 729.6059897966368,870.3428770244992" fill = "none" stroke = "red" /> 
<polyline points = "729.6059897966368,870.3428770244992 767.8501819668448,896.4766411323616" fill = "none" stroke = "red" /> 
<polyline points = "767.8501819668448,896.4766411323616 764.9576022144497,944.6788218175521" fill = "none" stroke = "red" /> 
<polyline points = "764.9576022144497,944.6788218175521 720.3726633653055,967.8733306135109" fill = "none" stroke = "red" /> 
<polyline points = "720.3726633653055,967.8733306135109 675.8856476938282,940.5154869859357" fill = "none" stroke = "red" /> 
<polyline points = "675.8856476938282,940.5154869859357 676.5093066152401,886.3245212029406" fill = "none" stroke = "red" /> 
<polyline points = "676.5093066152401,886.3245212029406 725.0122395733622,858.0088336809293" fill = "none" stroke = "red" /> 
<polyline points = "725.0122395733622,858.0088336809293 775.9615242270663,886.0" fill = "none" stroke = "red" /> 
<polyline points = "775.9615242270663,886.0 778.2264218426426,946.0581964552729" fill = "none" stroke = "red" /> 
<polyline points = "778.2264218426426,946.0581964552729 726.2335677889604,979.9610129292221" fill = "none" stroke = "red" /> 
<polyline points = "726.2335677889604,979.9610129292221 668.6477425156021,951.9461763109919" fill = "none" stroke = "red" /> 
<polyline points = "668.6477425156021,951.9461763109919 662.8820048516565,886.190762018343" fill = "none" stroke = "red" /> 
<polyline points = "662.8820048516565,886.190762018343 717.8990980076638,846.2663711335779" fill = "none" stroke = "red" /> 
<polyline points = "717.8990980076638,846.2663711335779 782.249223594996,873.6794618349417" fill = "none" stroke = "red" /> 
<polyline points = "782.249223594996,873.6794618349417 792.1173591554806,944.9141035082062" fill = "none" stroke = "red" /> 
<polyline points = "792.1173591554806,944.9141035082062 734.5771556729649,991.2603732243593" fill = "none" stroke = "red" /> 
<polyline points = "734.5771556729649,991.2603732243593 663.3826150063563,965.0869905018874" fill = "none" stroke = "red" /> 
<polyline points = "663.3826150063563,965.0869905018874 648.8245903371273,888.6383885339463" fill = "none" stroke = "red" /> 
<polyline points = "648.8245903371273,888.6383885339463 708.3536623791232,835.5065709572916" fill = "none" stroke = "red" /> 
<polyline points = "708.3536623791232,835.5065709572916 786.4241653401012,859.793029065856" fill = "none" stroke = "red" /> 
<polyline points = "786.4241653401012,859.793029065856 806.2422090128211,941.1439666061551" fill = "none" stroke = "red" /> 
<polyline points = "806.2422090128211,941.1439666061551 745.2891268127706,1001.3860239122877" fill = "none" stroke = "red" /> 
<polyline points = "745.2891268127706,1001.3860239122877 660.3603896932109,979.6396103067895" fill = "none" stroke = "red" /> 
<polyline points = "660.3603896932109,979.6396103067895 634.7327931826084,893.7431856048305" fill = "none" stroke = "red" /> 
<polyline points = "634.7327931826084,893.7431856048305 696.5170597560625,826.1073529394747" fill = "none" stroke = "red" /> 
<polyline points = "696.5170597560625,826.1073529394747 788.2365382104504,844.6580967541702" fill = "none" stroke = "red" /> 
<polyline points = "788.2365382104504,844.6580967541702 820.1994639778711,934.699281546901" fill = "none" stroke = "red" /> 
<polyline points = "820.1994639778711,934.699281546901 758.2020143325675,1009.9692620785906" fill = "none" stroke = "red" /> 
<polyline points = "758.2020143325675,1009.9692620785906 659.8093201129169,995.2688880686112" fill = "none" stroke = "red" /> 
<polyline points = "659.8093201129169,995.2688880686112 621.0121208508767,901.5259975001532" fill = "none" stroke = "red" /> 
<polyline points = "621.0121208508767,901.5259975001532 682.5825003801366,818.4264855340415" fill = "none" stroke = "red" /> 
<polyline points = "682.5825003801366,818.4264855340415 787.4808072475864,828.6261646075052" fill = "none" stroke = "red" /> 
<polyline points = "787.4808072475864,828.6261646075052 833.581416790092,925.5871317022427" fill = "none" stroke = "red" /> 
<polyline points = "833.581416790092,925.5871317022427 773.0975684403768,1016.6649331855067" fill = "none" stroke = "red" /> 
<polyline points = "773.0975684403768,1016.6649331855067 661.9111500082873,1011.6084447457786" fill = "none" stroke = "red" /> 
<polyline points = "661.9111500082873,1011.6084447457786 608.0706640657849,911.9516583825108" fill = "none" stroke = "red" /> 
<polyline points = "608.0706640657849,911.9516583825108 666.7924648109325,812.7948745575511" fill = "none" stroke = "red" /> 
<polyline points = "666.7924648109325,812.7948745575511 783.9999999999999,812.0769515458672" fill = "none" stroke = "red" /> 
<polyline points = "783.9999999999999,812.0769515458672 845.9814188090797,913.8708064146508" fill = "none" stroke = "red" /> 
<polyline points = "845.9814188090797,913.8708064146508 789.7099887649176,1021.1579639233967" fill = "none" stroke = "red" /> 
<polyline points = "789.7099887649176,1021.1579639233967 666.7971970328169,1028.2668220477342" fill = "none" stroke = "red" /> 
<polyline points = "666.7971970328169,1028.2668220477342 596.3118015667426,924.9288286392492" fill = "none" stroke = "red" /> 
<polyline points = "596.3118015667426,924.9288286392492 649.4350632743634,809.5102342424315" fill = "none" stroke = "red" /> 
<polyline points = "649.4350632743634,809.5102342424315 777.6892368860053,795.4119995911766" fill = "none" stroke = "red" /> 
<polyline points = "777.6892368860053,795.4119995911766 857.0011843199372,899.6695079837104" fill = "none" stroke = "red" /> 
<polyline points = "857.0011843199372,899.6695079837104 807.7299606442905,1023.1694624905134" fill = "none" stroke = "red" /> 
<polyline points = "807.7299606442905,1023.1694624905134 674.5452229627475,1044.8340988566135" fill = "none" stroke = "red" /> 
<polyline points = "674.5452229627475,1044.8340988566135 586.126914578291,940.3107448733706" fill = "none" stroke = "red" /> 
<polyline points = "586.126914578291,940.3107448733706 630.8396178833481,808.8312396083663" fill = "none" stroke = "red" /> 
<polyline points = "630.8396178833481,808.8312396083663 768.4984471899911,779.0478616534974" fill = "none" stroke = "red" /> 
<polyline points = "768.4984471899911,779.0478616534974 866.2580294586442,883.1571460657948" fill = "none" stroke = "red" /> 
<polyline points = "866.2580294586442,883.1571460657948 826.8094388279319,1022.46229045012" fill = "none" stroke = "red" /> 
<polyline points = "826.8094388279319,1022.46229045012 685.1771432346219,1060.8888739433603" fill = "none" stroke = "red" /> 
<polyline points = "685.1771432346219,1060.8888739433603 577.8882222173754,957.8968780841833" fill = "none" stroke = "red" /> 
<polyline points = "577.8882222173754,957.8968780841833 611.371529950647,810.9722525503761" fill = "none" stroke = "red" /> 
<polyline points = "611.371529950647,810.9722525503761 756.4342237675698,763.4089742855263" fill = "none" stroke = "red" /> 
<polyline points = "756.4342237675698,763.4089742855263 873.391934944692,864.5602315957692" fill = "none" stroke = "red" /> 
<polyline points = "873.391934944692,864.5602315957692 846.5671108990362,1018.8460175498467" fill = "none" stroke = "red" /> 
<polyline points = "846.5671108990362,1018.8460175498467 698.6576166634839,1076.0055111764125" fill = "none" stroke = "red" /> 
<polyline points = "698.6576166634839,1076.0055111764125 571.9418478510471,977.4354813202102" fill = "none" stroke = "red" /> 
<polyline points = "571.9418478510471,977.4354813202102 591.4265053321493,816.09870615676" fill = "none" stroke = "red" /> 
<polyline points = "591.4265053321493,816.09870615676 741.5607818289662,748.9203215781301" fill = "none" stroke = "red" /> 
<polyline points = "741.5607818289662,748.9203215781301 878.07232379623,844.1548955040798" fill = "none" stroke = "red" /> 
<polyline points = "878.07232379623,844.1548955040798 866.5944624794677,1012.1811793969678" fill = "none" stroke = "red" /> 
<polyline points = "866.5944624794677,1012.1811793969678 714.8935436137281,1089.7615390472959" fill = "none" stroke = "red" /> 
<polyline points = "714.8935436137281,1089.7615390472959 568.6012236568287,998.6269950503165" fill = "none" stroke = "red" /> 
<polyline points = "568.6012236568287,998.6269950503165 571.4242204750245,824.3232226660095" fill = "none" stroke = "red" /> 
<polyline points = "571.4242204750245,824.3232226660095 723.999999999999,736.0" fill = "none" stroke = "red" /> 
<polyline points = "723.999999999999,736.0 880.0044487277843,822.2630703663698" fill = "none" stroke = "red" /> 
<polyline points = "880.0044487277843,822.2630703663698 886.4623570860424,1002.3827675526042" fill = "none" stroke = "red" /> 
<polyline points = "886.4623570860424,1002.3827675526042 733.7344878611893,1101.7450934643507" fill = "none" stroke = "red" /> 
<polyline points = "733.7344878611893,1101.7450934643507 568.1409363596528,1021.1282658525014" fill = "none" stroke = "red" /> 
<polyline points = "568.1409363596528,1021.1282658525014 551.8015204630351,835.70253026927" fill = "none" stroke = "red" /> 
<polyline points = "551.8015204630351,835.70253026927 703.9305350526107,725.0517960892915" fill = "none" stroke = "red" /> 
<polyline points = "703.9305350526107,725.0517960892915 878.9352889491753,799.2478855085033" fill = "none" stroke = "red" /> 
<polyline points = "878.9352889491753,799.2478855085033 905.7280354950908,989.4228923095176" fill = "none" stroke = "red" /> 
<polyline points = "905.7280354950908,989.4228923095176 754.9740240779663,1111.562291437837" fill = "none" stroke = "red" /> 
<polyline points = "754.9740240779663,1111.562291437837 570.7911113762061,1044.55752193731" fill = "none" stroke = "red" /> 
</svg>