<?xml version = "1.0" encoding = "UTF-8" ?> 
<svg xmlns="http://www.w3.org/2000/svg" version = "1.1"> 
<polyline points="75,75 651.0,75 " style="fill:none;stroke:black;stroke-horizontalDim:2"/>
<polyline points="651.0,75 675.0,75 675.0,123.0 651.0,123.0 651.0,171.0 651.0,171 675.0,171 675.0,219.0 651.0,219.0 651.0,267.0 651.0,267 675.0,267 675.0,315.0 651.0,315.0 651.0,363.0 651.0,363 675.0,363 675.0,411.0 651.0,411.0 651.0,459.0 651.0,459 675.0,459 675.0,507.0 651.0,507.0 651.0,555.0 651.0,555 675.0,555 675.0,603.0 651.0,603.0 651.0,651.0 " style="fill:none;stroke:black;stroke-horizontalDim:2"/>
<polyline points="651.0,651.0 651.0,675.0 603.0,675.0 603.0,651.0 555.0,651.0 555.0,651.0 555.0,675.0 507.0,675.0 507.0,651.0 459.0,651.0 459.0,651.0 459.0,675.0 411.0,675.0 411.0,651.0 363.0,651.0 363.0,651.0 363.0,675.0 315.0,675.0 315.0,651.0 267.0,651.0 267.0,651.0 267.0,675.0 219.0,675.0 219.0,651.0 171.0,651.0 171.0,651.0 171.0,675.0 123.0,675.0 123.0,651.0 75.0,651.0 " style="fill:none;stroke:black;stroke-horizontalDim:2"/>
<polyline points="75.0,651.0 51.0,651.0 51.0,603.0 75.0,603.0 75.0,555.0 75.0,555.0 51.0,555.0 51.0,507.0 75.0,507.0 75.0,459.0 75.0,459.0 51.0,459.0 51.0,411.0 75.0,411.0 75.0,363.0 75.0,363.0 51.0,363.0 51.0,315.0 75.0,315.0 75.0,267.0 75.0,267.0 51.0,267.0 51.0,219.0 75.0,219.0 75.0,171.0 75.0,171.0 51.0,171.0 51.0,123.0 75.0,123.0 75.0,75.0 " style="fill:none;stroke:black;stroke-horizontalDim:2"/>
<polyline points="724.0,75 1300.0,75 " style="fill:none;stroke:black;stroke-horizontalDim:2"/>
<polyline points="1300.0,75 1324.0,75 1324.0,123.0 1300.0,123.0 1300.0,171.0 1300.0,171 1324.0,171 1324.0,219.0 1300.0,219.0 1300.0,267.0 1300.0,267 1324.0,267 1324.0,315.0 1300.0,315.0 1300.0,363.0 1300.0,363 1324.0,363 1324.0,411.0 1300.0,411.0 1300.0,459.0 1300.0,459 1324.0,459 1324.0,507.0 1300.0,507.0 1300.0,555.0 1300.0,555 1324.0,555 1324.0,603.0 1300.0,603.0 1300.0,651.0 " style="fill:none;stroke:black;stroke-horizontalDim:2"/>
<polyline points="1300.0,651.0 1300.0,675.0 1252.0,675.0 1252.0,651.0 1204.0,651.0 1204.0,651.0 1204.0,675.0 1156.0,675.0 1156.0,651.0 1108.0,651.0 1108.0,651.0 1108.0,675.0 1060.0,675.0 1060.0,651.0 1012.0,651.0 1012.0,651.0 1012.0,675.0 964.0,675.0 964.0,651.0 916.0,651.0 916.0,651.0 916.0,675.0 868.0,675.0 868.0,651.0 820.0,651.0 820.0,651.0 820.0,675.0 772.0,675.0 772.0,651.0 724.0,651.0 " style="fill:none;stroke:black;stroke-horizontalDim:2"/>
<polyline points="724.0,651.0 700.0,651.0 700.0,603.0 724.0,603.0 724.0,555.0 724.0,555.0 700.0,555.0 700.0,507.0 724.0,507.0 724.0,459.0 724.0,459.0 700.0,459.0 700.0,411.0 724.0,411.0 724.0,363.0 724.0,363.0 700.0,363.0 700.0,315.0 724.0,315.0 724.0,267.0 724.0,267.0 700.0,267.0 700.0,219.0 724.0,219.0 724.0,171.0 724.0,171.0 700.0,171.0 700.0,123.0 724.0,123.0 724.0,75.0 " style="fill:none;stroke:black;stroke-horizontalDim:2"/>
<polyline points="1373.0,75 1949.0,75 " style="fill:none;stroke:black;stroke-horizontalDim:2"/>
<polyline points="1949.0,75 1973.0,75 1973.0,123.0 1949.0,123.0 1949.0,171.0 1949.0,171 1973.0,171 1973.0,219.0 1949.0,219.0 1949.0,267.0 1949.0,267 1973.0,267 1973.0,315.0 1949.0,315.0 1949.0,363.0 1949.0,363 1973.0,363 1973.0,411.0 1949.0,411.0 1949.0,459.0 1949.0,459 1973.0,459 1973.0,507.0 1949.0,507.0 1949.0,555.0 1949.0,555 1973.0,555 1973.0,603.0 1949.0,603.0 1949.0,651.0 " style="fill:none;stroke:black;stroke-horizontalDim:2"/>
<polyline points="1949.0,651.0 1949.0,675.0 1901.0,675.0 1901.0,651.0 1853.0,651.0 1853.0,651.0 1853.0,675.0 1805.0,675.0 1805.0,651.0 1757.0,651.0 1757.0,651.0 1757.0,675.0 1709.0,675.0 1709.0,651.0 1661.0,651.0 1661.0,651.0 1661.0,675.0 1613.0,675.0 1613.0,651.0 1565.0,651.0 1565.0,651.0 1565.0,675.0 1517.0,675.0 1517.0,651.0 1469.0,651.0 1469.0,651.0 1469.0,675.0 1421.0,675.0 1421.0,651.0 1373.0,651.0 " style="fill:none;stroke:black;stroke-horizontalDim:2"/>
<polyline points="1373.0,651.0 1349.0,651.0 1349.0,603.0 1373.0,603.0 1373.0,555.0 1373.0,555.0 1349.0,555.0 1349.0,507.0 1373.0,507.0 1373.0,459.0 1373.0,459.0 1349.0,459.0 1349.0,411.0 1373.0,411.0 1373.0,363.0 1373.0,363.0 1349.0,363.0 1349.0,315.0 1373.0,315.0 1373.0,267.0 1373.0,267.0 1349.0,267.0 1349.0,219.0 1373.0,219.0 1373.0,171.0 1373.0,171.0 1349.0,171.0 1349.0,123.0 1373.0,123.0 1373.0,75.0 " style="fill:none;stroke:black;stroke-horizontalDim:2"/>
<polyline points="2022.0,75 2598.0,75 " style="fill:none;stroke:black;stroke-horizontalDim:2"/>
<polyline points="2598.0,75 2622.0,75 2622.0,123.0 2598.0,123.0 2598.0,171.0 2598.0,171 2622.0,171 2622.0,219.0 2598.0,219.0 2598.0,267.0 2598.0,267 2622.0,267 2622.0,315.0 2598.0,315.0 2598.0,363.0 2598.0,363 2622.0,363 2622.0,411.0 2598.0,411.0 2598.0,459.0 2598.0,459 2622.0,459 2622.0,507.0 2598.0,507.0 2598.0,555.0 2598.0,555 2622.0,555 2622.0,603.0 2598.0,603.0 2598.0,651.0 " style="fill:none;stroke:black;stroke-horizontalDim:2"/>
<polyline points="2598.0,651.0 2598.0,675.0 2550.0,675.0 2550.0,651.0 2502.0,651.0 2502.0,651.0 2502.0,675.0 2454.0,675.0 2454.0,651.0 2406.0,651.0 2406.0,651.0 2406.0,675.0 2358.0,675.0 2358.0,651.0 2310.0,651.0 2310.0,651.0 2310.0,675.0 2262.0,675.0 2262.0,651.0 2214.0,651.0 2214.0,651.0 2214.0,675.0 2166.0,675.0 2166.0,651.0 2118.0,651.0 2118.0,651.0 2118.0,675.0 2070.0,675.0 2070.0,651.0 2022.0,651.0 " style="fill:none;stroke:black;stroke-horizontalDim:2"/>
<polyline points="2022.0,651.0 1998.0,651.0 1998.0,603.0 2022.0,603.0 2022.0,555.0 2022.0,555.0 1998.0,555.0 1998.0,507.0 2022.0,507.0 2022.0,459.0 2022.0,459.0 1998.0,459.0 1998.0,411.0 2022.0,411.0 2022.0,363.0 2022.0,363.0 1998.0,363.0 1998.0,315.0 2022.0,315.0 2022.0,267.0 2022.0,267.0 1998.0,267.0 1998.0,219.0 2022.0,219.0 2022.0,171.0 2022.0,171.0 1998.0,171.0 1998.0,123.0 2022.0,123.0 2022.0,75.0 " style="fill:none;stroke:black;stroke-horizontalDim:2"/>
<polyline points="724.0,724.0 724.0,700.0 772.0,700.0 772.0,724.0 820.0,724.0 820.0,724.0 820.0,700.0 868.0,700.0 868.0,724.0 916.0,724.0 916.0,724.0 916.0,700.0 964.0,700.0 964.0,724.0 1012.0,724.0 1012.0,724.0 1012.0,700.0 1060.0,700.0 1060.0,724.0 1108.0,724.0 1108.0,724.0 1108.0,700.0 1156.0,700.0 1156.0,724.0 1204.0,724.0 1204.0,724.0 1204.0,700.0 1252.0,700.0 1252.0,724.0 1300.0,724.0 " style="fill:none;stroke:black;stroke-horizontalDim:2"/>
<polyline points="1300.0,724.0 1324.0,724.0 1324.0,772.0 1300.0,772.0 1300.0,820.0 1300.0,820.0 1324.0,820.0 1324.0,868.0 1300.0,868.0 1300.0,916.0 1300.0,916.0 1324.0,916.0 1324.0,964.0 1300.0,964.0 1300.0,1012.0 1300.0,1012.0 1324.0,1012.0 1324.0,1060.0 1300.0,1060.0 1300.0,1108.0 1300.0,1108.0 1324.0,1108.0 1324.0,1156.0 1300.0,1156.0 1300.0,1204.0 1300.0,1204.0 1324.0,1204.0 1324.0,1252.0 1300.0,1252.0 1300.0,1300.0 " style="fill:none;stroke:black;stroke-horizontalDim:2"/>
<polyline points="1300.0,1300.0 1300.0,1324.0 1252.0,1324.0 1252.0,1300.0 1204.0,1300.0 1204.0,1300.0 1204.0,1324.0 1156.0,1324.0 1156.0,1300.0 1108.0,1300.0 1108.0,1300.0 1108.0,1324.0 1060.0,1324.0 1060.0,1300.0 1012.0,1300.0 1012.0,1300.0 1012.0,1324.0 964.0,1324.0 964.0,1300.0 916.0,1300.0 916.0,1300.0 916.0,1324.0 868.0,1324.0 868.0,1300.0 820.0,1300.0 820.0,1300.0 820.0,1324.0 772.0,1324.0 772.0,1300.0 724.0,1300.0 " style="fill:none;stroke:black;stroke-horizontalDim:2"/>
<polyline points="724.0,1300.0 700.0,1300.0 700.0,1252.0 724.0,1252.0 724.0,1204.0 724.0,1204.0 700.0,1204.0 700.0,1156.0 724.0,1156.0 724.0,1108.0 724.0,1108.0 700.0,1108.0 700.0,1060.0 724.0,1060.0 724.0,1012.0 724.0,1012.0 700.0,1012.0 700.0,964.0 724.0,964.0 724.0,916.0 724.0,916.0 700.0,916.0 700.0,868.0 724.0,868.0 724.0,820.0 724.0,820.0 700.0,820.0 700.0,772.0 724.0,772.0 724.0,724.0 " style="fill:none;stroke:black;stroke-horizontalDim:2"/>
</svg>