<?xml version = "1.0" encoding = "UTF-8" ?> 
<svg xmlns="http://www.w3.org/2000/svg" version = "1.1"> 
<line x1="75" y1="40" x2="171" y2 ="40" style="stroke:red;stroke-horizontalDim:4"/>
<text x = "181" y = "45" font-size = "20px" fill = "red"> = 1 inch </text> 
<polyline points="75,75 651.0,75 " style="fill:none;stroke:black;stroke-horizontalDim:2"/>
<polyline points="651.0,75 675.0,75 675.0,123.0 651.0,123.0 651.0,171.0 651.0,171 675.0,171 675.0,219.0 651.0,219.0 651.0,267.0 651.0,267 675.0,267 675.0,315.0 651.0,315.0 651.0,363.0 651.0,363 675.0,363 675.0,411.0 651.0,411.0 651.0,459.0 651.0,459 675.0,459 675.0,507.0 651.0,507.0 651.0,555.0 " style="fill:none;stroke:black;stroke-horizontalDim:2"/>
<polyline points="651.0,555.0 651.0,579.0 603.0,579.0 603.0,555.0 555.0,555.0 555.0,555.0 555.0,579.0 507.0,579.0 507.0,555.0 459.0,555.0 459.0,555.0 459.0,579.0 411.0,579.0 411.0,555.0 363.0,555.0 363.0,555.0 363.0,579.0 315.0,579.0 315.0,555.0 267.0,555.0 267.0,555.0 267.0,579.0 219.0,579.0 219.0,555.0 171.0,555.0 171.0,555.0 171.0,579.0 123.0,579.0 123.0,555.0 75.0,555.0 " style="fill:none;stroke:black;stroke-horizontalDim:2"/>
<polyline points="75.0,555.0 51.0,555.0 51.0,507.0 75.0,507.0 75.0,459.0 75.0,459.0 51.0,459.0 51.0,411.0 75.0,411.0 75.0,363.0 75.0,363.0 51.0,363.0 51.0,315.0 75.0,315.0 75.0,267.0 75.0,267.0 51.0,267.0 51.0,219.0 75.0,219.0 75.0,171.0 75.0,171.0 51.0,171.0 51.0,123.0 75.0,123.0 75.0,75.0 " style="fill:none;stroke:black;stroke-horizontalDim:2"/>
<polyline points="724.0,75 1300.0,75 " style="fill:none;stroke:black;stroke-horizontalDim:2"/>
<polyline points="1300.0,75 1324.0,75 1324.0,123.0 1300.0,123.0 1300.0,171.0 1300.0,171 1324.0,171 1324.0,219.0 1300.0,219.0 1300.0,267.0 1300.0,267 1324.0,267 1324.0,315.0 1300.0,315.0 1300.0,363.0 1300.0,363 1324.0,363 1324.0,411.0 1300.0,411.0 1300.0,459.0 1300.0,459 1324.0,459 1324.0,507.0 1300.0,507.0 1300.0,555.0 " style="fill:none;stroke:black;stroke-horizontalDim:2"/>
<polyline points="1300.0,555.0 1300.0,579.0 1252.0,579.0 1252.0,555.0 1204.0,555.0 1204.0,555.0 1204.0,579.0 1156.0,579.0 1156.0,555.0 1108.0,555.0 1108.0,555.0 1108.0,579.0 1060.0,579.0 1060.0,555.0 1012.0,555.0 1012.0,555.0 1012.0,579.0 964.0,579.0 964.0,555.0 916.0,555.0 916.0,555.0 916.0,579.0 868.0,579.0 868.0,555.0 820.0,555.0 820.0,555.0 820.0,579.0 772.0,579.0 772.0,555.0 724.0,555.0 " style="fill:none;stroke:black;stroke-horizontalDim:2"/>
<polyline points="724.0,555.0 700.0,555.0 700.0,507.0 724.0,507.0 724.0,459.0 724.0,459.0 700.0,459.0 700.0,411.0 724.0,411.0 724.0,363.0 724.0,363.0 700.0,363.0 700.0,315.0 724.0,315.0 724.0,267.0 724.0,267.0 700.0,267.0 700.0,219.0 724.0,219.0 724.0,171.0 724.0,171.0 700.0,171.0 700.0,123.0 724.0,123.0 724.0,75.0 " style="fill:none;stroke:black;stroke-horizontalDim:2"/>
<polyline points="1373.0,75 1757.0,75 " style="fill:none;stroke:black;stroke-horizontalDim:2"/>
<polyline points="1757.0,75 1781.0,75 1781.0,123.0 1757.0,123.0 1757.0,171.0 1757.0,171 1781.0,171 1781.0,219.0 1757.0,219.0 1757.0,267.0 1757.0,267 1781.0,267 1781.0,315.0 1757.0,315.0 1757.0,363.0 1757.0,363 1781.0,363 1781.0,411.0 1757.0,411.0 1757.0,459.0 1757.0,459 1781.0,459 1781.0,507.0 1757.0,507.0 1757.0,555.0 " style="fill:none;stroke:black;stroke-horizontalDim:2"/>
<polyline points="1757.0,555.0 1757.0,579.0 1709.0,579.0 1709.0,555.0 1661.0,555.0 1661.0,555.0 1661.0,579.0 1613.0,579.0 1613.0,555.0 1565.0,555.0 1565.0,555.0 1565.0,579.0 1517.0,579.0 1517.0,555.0 1469.0,555.0 1469.0,555.0 1469.0,579.0 1421.0,579.0 1421.0,555.0 1373.0,555.0 " style="fill:none;stroke:black;stroke-horizontalDim:2"/>
<polyline points="1373.0,555.0 1349.0,555.0 1349.0,507.0 1373.0,507.0 1373.0,459.0 1373.0,459.0 1349.0,459.0 1349.0,411.0 1373.0,411.0 1373.0,363.0 1373.0,363.0 1349.0,363.0 1349.0,315.0 1373.0,315.0 1373.0,267.0 1373.0,267.0 1349.0,267.0 1349.0,219.0 1373.0,219.0 1373.0,171.0 1373.0,171.0 1349.0,171.0 1349.0,123.0 1373.0,123.0 1373.0,75.0 " style="fill:none;stroke:black;stroke-horizontalDim:2"/>
<polyline points="1830.0,75 2214.0,75 " style="fill:none;stroke:black;stroke-horizontalDim:2"/>
<polyline points="2214.0,75 2238.0,75 2238.0,123.0 2214.0,123.0 2214.0,171.0 2214.0,171 2238.0,171 2238.0,219.0 2214.0,219.0 2214.0,267.0 2214.0,267 2238.0,267 2238.0,315.0 2214.0,315.0 2214.0,363.0 2214.0,363 2238.0,363 2238.0,411.0 2214.0,411.0 2214.0,459.0 2214.0,459 2238.0,459 2238.0,507.0 2214.0,507.0 2214.0,555.0 " style="fill:none;stroke:black;stroke-horizontalDim:2"/>
<polyline points="2214.0,555.0 2214.0,579.0 2166.0,579.0 2166.0,555.0 2118.0,555.0 2118.0,555.0 2118.0,579.0 2070.0,579.0 2070.0,555.0 2022.0,555.0 2022.0,555.0 2022.0,579.0 1974.0,579.0 1974.0,555.0 1926.0,555.0 1926.0,555.0 1926.0,579.0 1878.0,579.0 1878.0,555.0 1830.0,555.0 " style="fill:none;stroke:black;stroke-horizontalDim:2"/>
<polyline points="1830.0,555.0 1806.0,555.0 1806.0,507.0 1830.0,507.0 1830.0,459.0 1830.0,459.0 1806.0,459.0 1806.0,411.0 1830.0,411.0 1830.0,363.0 1830.0,363.0 1806.0,363.0 1806.0,315.0 1830.0,315.0 1830.0,267.0 1830.0,267.0 1806.0,267.0 1806.0,219.0 1830.0,219.0 1830.0,171.0 1830.0,171.0 1806.0,171.0 1806.0,123.0 1830.0,123.0 1830.0,75.0 " style="fill:none;stroke:black;stroke-horizontalDim:2"/>
<polyline points="724.0,628.0 724.0,604.0 772.0,604.0 772.0,628.0 820.0,628.0 820.0,628.0 820.0,604.0 868.0,604.0 868.0,628.0 916.0,628.0 916.0,628.0 916.0,604.0 964.0,604.0 964.0,628.0 1012.0,628.0 1012.0,628.0 1012.0,604.0 1060.0,604.0 1060.0,628.0 1108.0,628.0 1108.0,628.0 1108.0,604.0 1156.0,604.0 1156.0,628.0 1204.0,628.0 1204.0,628.0 1204.0,604.0 1252.0,604.0 1252.0,628.0 1300.0,628.0 " style="fill:none;stroke:black;stroke-horizontalDim:2"/>
<polyline points="1300.0,628.0 1324.0,628.0 1324.0,676.0 1300.0,676.0 1300.0,724.0 1300.0,724.0 1324.0,724.0 1324.0,772.0 1300.0,772.0 1300.0,820.0 1300.0,820.0 1324.0,820.0 1324.0,868.0 1300.0,868.0 1300.0,916.0 1300.0,916.0 1324.0,916.0 1324.0,964.0 1300.0,964.0 1300.0,1012.0 " style="fill:none;stroke:black;stroke-horizontalDim:2"/>
<polyline points="1300.0,1012.0 1300.0,1036.0 1252.0,1036.0 1252.0,1012.0 1204.0,1012.0 1204.0,1012.0 1204.0,1036.0 1156.0,1036.0 1156.0,1012.0 1108.0,1012.0 1108.0,1012.0 1108.0,1036.0 1060.0,1036.0 1060.0,1012.0 1012.0,1012.0 1012.0,1012.0 1012.0,1036.0 964.0,1036.0 964.0,1012.0 916.0,1012.0 916.0,1012.0 916.0,1036.0 868.0,1036.0 868.0,1012.0 820.0,1012.0 820.0,1012.0 820.0,1036.0 772.0,1036.0 772.0,1012.0 724.0,1012.0 " style="fill:none;stroke:black;stroke-horizontalDim:2"/>
<polyline points="724.0,1012.0 700.0,1012.0 700.0,964.0 724.0,964.0 724.0,916.0 724.0,916.0 700.0,916.0 700.0,868.0 724.0,868.0 724.0,820.0 724.0,820.0 700.0,820.0 700.0,772.0 724.0,772.0 724.0,724.0 724.0,724.0 700.0,724.0 700.0,676.0 724.0,676.0 724.0,628.0 " style="fill:none;stroke:black;stroke-horizontalDim:2"/>
<polyline points = "1565.0,315.0 1566.0300761498202,316.71433460140423" fill = "none" stroke = "red" /> 
<polyline points = "1565.0,315.0 1566.0300761498202,316.71433460140423" fill = "none" stroke = "red" /> 
<polyline points = "1566.0300761498202,316.71433460140423 1563.1221137488565,318.5317903714357" fill = "none" stroke = "red" /> 
<polyline points = "1563.1221137488565,318.5317903714357 1559.0082227914725,315.3140157374577" fill = "none" stroke = "red" /> 
<polyline points = "1559.0082227914725,315.3140157374577 1560.526456772234,308.36769941955964" fill = "none" stroke = "red" /> 
<polyline points = "1560.526456772234,308.36769941955964 1569.226182617407,305.9369221296335" fill = "none" stroke = "red" /> 
<polyline points = "1569.226182617407,305.9369221296335 1576.9342627444194,313.74565844078813" fill = "none" stroke = "red" /> 
<polyline points = "1576.9342627444194,313.74565844078813 1573.4254103241287,326.1808971406621" fill = "none" stroke = "red" /> 
<polyline points = "1573.4254103241287,326.1808971406621 1559.0062945053455,329.8349416730686" fill = "none" stroke = "red" /> 
<polyline points = "1559.0062945053455,329.8349416730686 1547.2216098692875,317.81582037072417" fill = "none" stroke = "red" /> 
<polyline points = "1547.2216098692875,317.81582037072417 1552.1442478062693,299.67911113762045" fill = "none" stroke = "red" /> 
<polyline points = "1552.1442478062693,299.67911113762045 1572.1624993980574,294.198591336815" fill = "none" stroke = "red" /> 
<polyline points = "1572.1624993980574,294.198591336815 1588.4755424176115,310.01011942037377" fill = "none" stroke = "red" /> 
<polyline points = "1588.4755424176115,310.01011942037377 1582.731957361625,334.01519624209845" fill = "none" stroke = "red" /> 
<polyline points = "1582.731957361625,334.01519624209845 1557.282154037124,341.91532748627293" fill = "none" stroke = "red" /> 
<polyline points = "1557.282154037124,341.91532748627293 1536.0222252113279,322.7645713530756" fill = "none" stroke = "red" /> 
<polyline points = "1536.0222252113279,322.7645713530756 1541.9811263891631,292.77093214531214" fill = "none" stroke = "red" /> 
<polyline points = "1541.9811263891631,292.77093214531214 1572.6483358476914,281.871417797302" fill = "none" stroke = "red" /> 
<polyline points = "1572.6483358476914,281.871417797302 1599.2380345866254,303.8753882025018" fill = "none" stroke = "red" /> 
<polyline points = "1599.2380345866254,303.8753882025018 1593.6789640484653,339.9302431016393" fill = "none" stroke = "red" /> 
<polyline points = "1593.6789640484653,339.9302431016393 1558.0540728933227,354.39231012048833" fill = "none" stroke = "red" /> 
<polyline points = "1558.0540728933227,354.39231012048833 1525.7896220871176,330.0514538809026" fill = "none" stroke = "red" /> 
<polyline points = "1525.7896220871176,330.0514538809026 1530.3275268413042,287.91089508567103" fill = "none" stroke = "red" /> 
<polyline points = "1530.3275268413042,287.91089508567103 1570.6059897966368,269.3428770244992" fill = "none" stroke = "red" /> 
<polyline points = "1570.6059897966368,269.3428770244992 1608.850181966845,295.4766411323616" fill = "none" stroke = "red" /> 
<polyline points = "1608.850181966845,295.4766411323616 1605.9576022144497,343.67882181755215" fill = "none" stroke = "red" /> 
<polyline points = "1605.9576022144497,343.67882181755215 1561.3726633653055,366.87333061351086" fill = "none" stroke = "red" /> 
<polyline points = "1561.3726633653055,366.87333061351086 1516.8856476938283,339.5154869859357" fill = "none" stroke = "red" /> 
<polyline points = "1516.8856476938283,339.5154869859357 1517.5093066152401,285.32452120294056" fill = "none" stroke = "red" /> 
<polyline points = "1517.5093066152401,285.32452120294056 1566.0122395733622,257.0088336809293" fill = "none" stroke = "red" /> 
<polyline points = "1566.0122395733622,257.0088336809293 1616.9615242270663,284.99999999999994" fill = "none" stroke = "red" /> 
<polyline points = "1616.9615242270663,284.99999999999994 1619.2264218426426,345.0581964552729" fill = "none" stroke = "red" /> 
<polyline points = "1619.2264218426426,345.0581964552729 1567.2335677889603,378.96101292922214" fill = "none" stroke = "red" /> 
<polyline points = "1567.2335677889603,378.96101292922214 1509.647742515602,350.94617631099186" fill = "none" stroke = "red" /> 
<polyline points = "1509.647742515602,350.94617631099186 1503.8820048516566,285.19076201834304" fill = "none" stroke = "red" /> 
<polyline points = "1503.8820048516566,285.19076201834304 1558.8990980076637,245.26637113357782" fill = "none" stroke = "red" /> 
<polyline points = "1558.8990980076637,245.26637113357782 1623.249223594996,272.67946183494166" fill = "none" stroke = "red" /> 
<polyline points = "1623.249223594996,272.67946183494166 1633.1173591554807,343.91410350820615" fill = "none" stroke = "red" /> 
<polyline points = "1633.1173591554807,343.91410350820615 1575.5771556729649,390.26037322435934" fill = "none" stroke = "red" /> 
<polyline points = "1575.5771556729649,390.26037322435934 1504.3826150063564,364.08699050188744" fill = "none" stroke = "red" /> 
<polyline points = "1504.3826150063564,364.08699050188744 1489.8245903371273,287.6383885339464" fill = "none" stroke = "red" /> 
<polyline points = "1489.8245903371273,287.6383885339464 1549.353662379123,234.5065709572916" fill = "none" stroke = "red" /> 
<polyline points = "1549.353662379123,234.5065709572916 1627.4241653401011,258.793029065856" fill = "none" stroke = "red" /> 
<polyline points = "1627.4241653401011,258.793029065856 1647.2422090128211,340.1439666061552" fill = "none" stroke = "red" /> 
<polyline points = "1647.2422090128211,340.1439666061552 1586.2891268127707,400.3860239122877" fill = "none" stroke = "red" /> 
<polyline points = "1586.2891268127707,400.3860239122877 1501.360389693211,378.63961030678945" fill = "none" stroke = "red" /> 
<polyline points = "1501.360389693211,378.63961030678945 1475.7327931826082,292.7431856048305" fill = "none" stroke = "red" /> 
<polyline points = "1475.7327931826082,292.7431856048305 1537.5170597560625,225.10735293947474" fill = "none" stroke = "red" /> 
<polyline points = "1537.5170597560625,225.10735293947474 1629.2365382104504,243.65809675417017" fill = "none" stroke = "red" /> 
<polyline points = "1629.2365382104504,243.65809675417017 1661.1994639778711,333.6992815469011" fill = "none" stroke = "red" /> 
<polyline points = "1661.1994639778711,333.6992815469011 1599.2020143325676,408.9692620785906" fill = "none" stroke = "red" /> 
<polyline points = "1599.2020143325676,408.9692620785906 1500.8093201129168,394.26888806861126" fill = "none" stroke = "red" /> 
<polyline points = "1500.8093201129168,394.26888806861126 1462.0121208508767,300.5259975001532" fill = "none" stroke = "red" /> 
<polyline points = "1462.0121208508767,300.5259975001532 1523.5825003801367,217.4264855340415" fill = "none" stroke = "red" /> 
<polyline points = "1523.5825003801367,217.4264855340415 1628.4808072475864,227.6261646075052" fill = "none" stroke = "red" /> 
<polyline points = "1628.4808072475864,227.6261646075052 1674.581416790092,324.58713170224274" fill = "none" stroke = "red" /> 
<polyline points = "1674.581416790092,324.58713170224274 1614.0975684403768,415.6649331855067" fill = "none" stroke = "red" /> 
<polyline points = "1614.0975684403768,415.6649331855067 1502.9111500082872,410.6084447457786" fill = "none" stroke = "red" /> 
<polyline points = "1502.9111500082872,410.6084447457786 1449.070664065785,310.9516583825108" fill = "none" stroke = "red" /> 
<polyline points = "1449.070664065785,310.9516583825108 1507.7924648109324,211.79487455755117" fill = "none" stroke = "red" /> 
<polyline points = "1507.7924648109324,211.79487455755117 1624.9999999999998,211.0769515458673" fill = "none" stroke = "red" /> 
<polyline points = "1624.9999999999998,211.0769515458673 1686.9814188090797,312.8708064146508" fill = "none" stroke = "red" /> 
<polyline points = "1686.9814188090797,312.8708064146508 1630.7099887649176,420.1579639233967" fill = "none" stroke = "red" /> 
<polyline points = "1630.7099887649176,420.1579639233967 1507.797197032817,427.26682204773425" fill = "none" stroke = "red" /> 
<polyline points = "1507.797197032817,427.26682204773425 1437.3118015667426,323.92882863924916" fill = "none" stroke = "red" /> 
<polyline points = "1437.3118015667426,323.92882863924916 1490.4350632743635,208.51023424243147" fill = "none" stroke = "red" /> 
<polyline points = "1490.4350632743635,208.51023424243147 1618.6892368860053,194.41199959117657" fill = "none" stroke = "red" /> 
<polyline points = "1618.6892368860053,194.41199959117657 1698.0011843199372,298.66950798371045" fill = "none" stroke = "red" /> 
<polyline points = "1698.0011843199372,298.66950798371045 1648.7299606442905,422.1694624905134" fill = "none" stroke = "red" /> 
<polyline points = "1648.7299606442905,422.1694624905134 1515.5452229627476,443.8340988566134" fill = "none" stroke = "red" /> 
<polyline points = "1515.5452229627476,443.8340988566134 1427.126914578291,339.3107448733706" fill = "none" stroke = "red" /> 
<polyline points = "1427.126914578291,339.3107448733706 1471.839617883348,207.83123960836627" fill = "none" stroke = "red" /> 
<polyline points = "1471.839617883348,207.83123960836627 1609.498447189991,178.04786165349745" fill = "none" stroke = "red" /> 
<polyline points = "1609.498447189991,178.04786165349745 1707.2580294586442,282.1571460657948" fill = "none" stroke = "red" /> 
<polyline points = "1707.2580294586442,282.1571460657948 1667.809438827932,421.46229045012" fill = "none" stroke = "red" /> 
<polyline points = "1667.809438827932,421.46229045012 1526.1771432346218,459.88887394336024" fill = "none" stroke = "red" /> 
<polyline points = "1526.1771432346218,459.88887394336024 1418.8882222173754,356.89687808418336" fill = "none" stroke = "red" /> 
<polyline points = "1418.8882222173754,356.89687808418336 1452.371529950647,209.97225255037603" fill = "none" stroke = "red" /> 
<polyline points = "1452.371529950647,209.97225255037603 1597.4342237675698,162.4089742855262" fill = "none" stroke = "red" /> 
<polyline points = "1597.4342237675698,162.4089742855262 1714.3919349446921,263.5602315957692" fill = "none" stroke = "red" /> 
<polyline points = "1714.3919349446921,263.5602315957692 1687.5671108990362,417.8460175498467" fill = "none" stroke = "red" /> 
<polyline points = "1687.5671108990362,417.8460175498467 1539.6576166634839,475.0055111764125" fill = "none" stroke = "red" /> 
<polyline points = "1539.6576166634839,475.0055111764125 1412.9418478510472,376.4354813202102" fill = "none" stroke = "red" /> 
<polyline points = "1412.9418478510472,376.4354813202102 1432.4265053321492,215.0987061567601" fill = "none" stroke = "red" /> 
<polyline points = "1432.4265053321492,215.0987061567601 1582.5607818289661,147.9203215781301" fill = "none" stroke = "red" /> 
<polyline points = "1582.5607818289661,147.9203215781301 1719.07232379623,243.15489550407983" fill = "none" stroke = "red" /> 
<polyline points = "1719.07232379623,243.15489550407983 1707.5944624794677,411.18117939696776" fill = "none" stroke = "red" /> 
<polyline points = "1707.5944624794677,411.18117939696776 1555.893543613728,488.76153904729586" fill = "none" stroke = "red" /> 
<polyline points = "1555.893543613728,488.76153904729586 1409.6012236568288,397.62699505031645" fill = "none" stroke = "red" /> 
<polyline points = "1409.6012236568288,397.62699505031645 1412.4242204750244,223.32322266600954" fill = "none" stroke = "red" /> 
<polyline points = "1412.4242204750244,223.32322266600954 1564.999999999999,135.0" fill = "none" stroke = "red" /> 
<polyline points = "1564.999999999999,135.0 1721.0044487277842,221.26307036636982" fill = "none" stroke = "red" /> 
<polyline points = "1721.0044487277842,221.26307036636982 1727.4623570860424,401.38276755260415" fill = "none" stroke = "red" /> 
<polyline points = "1727.4623570860424,401.38276755260415 1574.7344878611893,500.74509346435065" fill = "none" stroke = "red" /> 
<polyline points = "1574.7344878611893,500.74509346435065 1409.1409363596529,420.12826585250133" fill = "none" stroke = "red" /> 
<polyline points = "1409.1409363596529,420.12826585250133 1392.801520463035,234.70253026926997" fill = "none" stroke = "red" /> 
<polyline points = "1392.801520463035,234.70253026926997 1544.9305350526106,124.05179608929151" fill = "none" stroke = "red" /> 
<polyline points = "1544.9305350526106,124.05179608929151 1719.9352889491754,198.24788550850332" fill = "none" stroke = "red" /> 
<polyline points = "1719.9352889491754,198.24788550850332 1746.7280354950908,388.4228923095176" fill = "none" stroke = "red" /> 
<polyline points = "1746.7280354950908,388.4228923095176 1595.9740240779663,510.5622914378372" fill = "none" stroke = "red" /> 
<polyline points = "1595.9740240779663,510.5622914378372 1411.7911113762061,443.55752193730996" fill = "none" stroke = "red" /> 
</svg>