<?xml version = "1.0" encoding = "UTF-8" ?> 
<svg xmlns="http://www.w3.org/2000/svg" version = "1.1"> 
<line x1="75" y1="40" x2="113.4" y2 ="40" style="stroke:red;stroke:4"/>
<text x = "123.4" y = "45" font-size = "12px" fill = "red"> = 1 inch (2:5 scale) </text> 
<polyline points="75,75 190.20000000000002,75 " style="fill:none;stroke:black;stroke:2"/>
<polyline points="190.20000000000002,75.0 194.73120000000003,75.0 194.73120000000003,94.2 190.20000000000002,94.2 190.20000000000002,113.4 190.20000000000002,113.4 194.73120000000003,113.4 194.73120000000003,132.60000000000002 190.20000000000002,132.60000000000002 190.20000000000002,151.8 190.20000000000002,151.8 194.73120000000003,151.8 194.73120000000003,171.0 190.20000000000002,171.0 190.20000000000002,190.20000000000002 190.20000000000002,190.20000000000002 194.73120000000003,190.20000000000002 194.73120000000003,209.40000000000003 190.20000000000002,209.40000000000003 190.20000000000002,228.60000000000002 190.20000000000002,228.60000000000002 194.73120000000003,228.60000000000002 194.73120000000003,247.8 190.20000000000002,247.8 190.20000000000002,267.0 190.20000000000002,267.0 194.73120000000003,267.0 194.73120000000003,286.20000000000005 190.20000000000002,286.20000000000005 190.20000000000002,305.40000000000003 190.20000000000002,305.40000000000003 194.73120000000003,305.40000000000003 194.73120000000003,324.6 190.20000000000002,324.6 190.20000000000002,343.80000000000007 " style="fill:none;stroke:black;stroke:2"/>
<line x1 = "190.20000000000002" y1 = "101.91023622045002" x2 = "190.20000000000002" y2 = "105.68976377955002" style="fill:none;stroke:white;stroke:2"/>
<line x1 = "190.20000000000002" y1 = "332.31023622045007" x2 = "190.20000000000002" y2 = "336.08976377955" style="fill:none;stroke:white;stroke:2"/>
<polyline points = "190.20000000000002,101.91023622045002 183.40108346454,101.91023622045002 183.40108346454,99.64251968499002 180.37746141726,99.64251968499002 180.37746141726,101.91023622045002 172.81840629906,101.91023622045002 172.81840629906,105.68976377955002 180.37746141726,105.68976377955002 180.37746141726,107.95748031501002 183.40108346454,107.95748031501002 183.40108346454,105.68976377955002 190.20000000000002,105.68976377955002" style="fill:none;stroke:black;stroke:2"/>
<polyline points = "190.20000000000002,332.31023622045007 183.40108346454,332.31023622045007 183.40108346454,330.04251968499005 180.37746141726,330.04251968499005 180.37746141726,332.31023622045007 172.81840629906,332.31023622045007 172.81840629906,336.08976377955 180.37746141726,336.08976377955 180.37746141726,338.35748031501004 183.40108346454,338.35748031501004 183.40108346454,336.08976377955 190.20000000000002,336.08976377955" style="fill:none;stroke:black;stroke:2"/>
<polyline points="190.20000000000002,343.80000000000007 190.20000000000002,348.3312000000001 171.0,348.3312000000001 171.0,343.80000000000007 151.8,343.80000000000007 151.8,343.80000000000007 151.8,348.3312000000001 132.6,348.3312000000001 132.6,343.80000000000007 113.4,343.80000000000007 113.4,343.80000000000007 113.4,348.3312000000001 94.19999999999999,348.3312000000001 94.19999999999999,343.80000000000007 75.0,343.80000000000007 " style="fill:none;stroke:black;stroke:2"/>
<line x1 = "82.71023622045" y1 = "343.80000000000007" x2 = "86.48976377955" y2 = "343.80000000000007" style="fill:none;stroke:white;stroke:2"/>
<line x1 = "159.51023622045" y1 = "343.80000000000007" x2 = "163.28976377955001" y2 = "343.80000000000007" style="fill:none;stroke:white;stroke:2"/>
<polyline points = "82.71023622045,343.80000000000007 82.71023622045,337.00108346454005 80.44251968499,337.00108346454005 80.44251968499,333.97746141726003 82.71023622045,333.97746141726003 82.71023622045,326.41840629906005 86.48976377955,326.41840629906005 86.48976377955,333.97746141726003 88.75748031501,333.97746141726003 88.75748031501,337.00108346454005 86.48976377955,337.00108346454005 86.48976377955,343.80000000000007" style="fill:none;stroke:black;stroke:2"/>
<polyline points = "159.51023622045,343.80000000000007 159.51023622045,337.00108346454005 157.24251968499001,337.00108346454005 157.24251968499001,333.97746141726003 159.51023622045,333.97746141726003 159.51023622045,326.41840629906005 163.28976377955001,326.41840629906005 163.28976377955001,333.97746141726003 165.55748031501003,333.97746141726003 165.55748031501003,337.00108346454005 163.28976377955001,337.00108346454005 163.28976377955001,343.80000000000007" style="fill:none;stroke:black;stroke:2"/>
<polyline points="75.0,343.80000000000007 70.4688,343.80000000000007 70.4688,324.6000000000001 75.0,324.6000000000001 75.0,305.4000000000001 75.0,305.4000000000001 70.4688,305.4000000000001 70.4688,286.20000000000005 75.0,286.20000000000005 75.0,267.0000000000001 75.0,267.00000000000006 70.4688,267.00000000000006 70.4688,247.80000000000007 75.0,247.80000000000007 75.0,228.60000000000008 75.0,228.60000000000005 70.4688,228.60000000000005 70.4688,209.40000000000006 75.0,209.40000000000006 75.0,190.20000000000007 75.0,190.20000000000005 70.4688,190.20000000000005 70.4688,171.00000000000006 75.0,171.00000000000006 75.0,151.80000000000007 75.0,151.80000000000004 70.4688,151.80000000000004 70.4688,132.60000000000005 75.0,132.60000000000005 75.0,113.40000000000006 75.0,113.40000000000003 70.4688,113.40000000000003 70.4688,94.20000000000005 75.0,94.20000000000005 75.0,75.00000000000006 " style="fill:none;stroke:black;stroke:2"/>
<circle cx = "74.62416377954999" cy = "103.80000000000001" r = "1.88976377955" style="fill:none;stroke:black;stroke:2"/>
<circle cx = "74.62416377954999" cy = "334.20000000000005" r = "1.88976377955" style="fill:none;stroke:black;stroke:2"/>
<polyline points="214.2624,75 329.4624,75 " style="fill:none;stroke:black;stroke:2"/>
<polyline points="329.4624,75.0 333.9936,75.0 333.9936,94.2 329.4624,94.2 329.4624,113.4 329.4624,113.4 333.9936,113.4 333.9936,132.60000000000002 329.4624,132.60000000000002 329.4624,151.8 329.4624,151.8 333.9936,151.8 333.9936,171.0 329.4624,171.0 329.4624,190.20000000000002 329.4624,190.20000000000002 333.9936,190.20000000000002 333.9936,209.40000000000003 329.4624,209.40000000000003 329.4624,228.60000000000002 329.4624,228.60000000000002 333.9936,228.60000000000002 333.9936,247.8 329.4624,247.8 329.4624,267.0 329.4624,267.0 333.9936,267.0 333.9936,286.20000000000005 329.4624,286.20000000000005 329.4624,305.40000000000003 329.4624,305.40000000000003 333.9936,305.40000000000003 333.9936,324.6 329.4624,324.6 329.4624,343.80000000000007 " style="fill:none;stroke:black;stroke:2"/>
<line x1 = "329.4624" y1 = "101.91023622045002" x2 = "329.4624" y2 = "105.68976377955002" style="fill:none;stroke:white;stroke:2"/>
<line x1 = "329.4624" y1 = "332.31023622045007" x2 = "329.4624" y2 = "336.08976377955" style="fill:none;stroke:white;stroke:2"/>
<polyline points = "329.4624,101.91023622045002 322.66348346454,101.91023622045002 322.66348346454,99.64251968499002 319.63986141725997,99.64251968499002 319.63986141725997,101.91023622045002 312.08080629906,101.91023622045002 312.08080629906,105.68976377955002 319.63986141725997,105.68976377955002 319.63986141725997,107.95748031501002 322.66348346454,107.95748031501002 322.66348346454,105.68976377955002 329.4624,105.68976377955002" style="fill:none;stroke:black;stroke:2"/>
<polyline points = "329.4624,332.31023622045007 322.66348346454,332.31023622045007 322.66348346454,330.04251968499005 319.63986141725997,330.04251968499005 319.63986141725997,332.31023622045007 312.08080629906,332.31023622045007 312.08080629906,336.08976377955 319.63986141725997,336.08976377955 319.63986141725997,338.35748031501004 322.66348346454,338.35748031501004 322.66348346454,336.08976377955 329.4624,336.08976377955" style="fill:none;stroke:black;stroke:2"/>
<polyline points="329.4624,343.80000000000007 329.4624,348.3312000000001 310.2624,348.3312000000001 310.2624,343.80000000000007 291.0624,343.80000000000007 291.0624,343.80000000000007 291.0624,348.3312000000001 271.8624,348.3312000000001 271.8624,343.80000000000007 252.66240000000002,343.80000000000007 252.6624,343.80000000000007 252.6624,348.3312000000001 233.4624,348.3312000000001 233.4624,343.80000000000007 214.2624,343.80000000000007 " style="fill:none;stroke:black;stroke:2"/>
<line x1 = "221.97263622044997" y1 = "343.80000000000007" x2 = "225.75216377954996" y2 = "343.80000000000007" style="fill:none;stroke:white;stroke:2"/>
<line x1 = "298.77263622044995" y1 = "343.80000000000007" x2 = "302.55216377954997" y2 = "343.80000000000007" style="fill:none;stroke:white;stroke:2"/>
<polyline points = "221.97263622044997,343.80000000000007 221.97263622044997,337.00108346454005 219.70491968498996,337.00108346454005 219.70491968498996,333.97746141726003 221.97263622044997,333.97746141726003 221.97263622044997,326.41840629906005 225.75216377954996,326.41840629906005 225.75216377954996,333.97746141726003 228.01988031500997,333.97746141726003 228.01988031500997,337.00108346454005 225.75216377954996,337.00108346454005 225.75216377954996,343.80000000000007" style="fill:none;stroke:black;stroke:2"/>
<polyline points = "298.77263622044995,343.80000000000007 298.77263622044995,337.00108346454005 296.50491968499,337.00108346454005 296.50491968499,333.97746141726003 298.77263622044995,333.97746141726003 298.77263622044995,326.41840629906005 302.55216377954997,326.41840629906005 302.55216377954997,333.97746141726003 304.81988031501,333.97746141726003 304.81988031501,337.00108346454005 302.55216377954997,337.00108346454005 302.55216377954997,343.80000000000007" style="fill:none;stroke:black;stroke:2"/>
<polyline points="214.26239999999999,343.80000000000007 209.73119999999997,343.80000000000007 209.73119999999997,324.6000000000001 214.26239999999999,324.6000000000001 214.26239999999999,305.4000000000001 214.26239999999999,305.4000000000001 209.73119999999997,305.4000000000001 209.73119999999997,286.20000000000005 214.26239999999999,286.20000000000005 214.26239999999999,267.0000000000001 214.26239999999999,267.00000000000006 209.73119999999997,267.00000000000006 209.73119999999997,247.80000000000007 214.26239999999999,247.80000000000007 214.26239999999999,228.60000000000008 214.26239999999999,228.60000000000005 209.73119999999997,228.60000000000005 209.73119999999997,209.40000000000006 214.26239999999999,209.40000000000006 214.26239999999999,190.20000000000007 214.26239999999999,190.20000000000005 209.73119999999997,190.20000000000005 209.73119999999997,171.00000000000006 214.26239999999999,171.00000000000006 214.26239999999999,151.80000000000007 214.26239999999999,151.80000000000004 209.73119999999997,151.80000000000004 209.73119999999997,132.60000000000005 214.26239999999999,132.60000000000005 214.26239999999999,113.40000000000006 214.26239999999999,113.40000000000003 209.73119999999997,113.40000000000003 209.73119999999997,94.20000000000005 214.26239999999999,94.20000000000005 214.26239999999999,75.00000000000006 " style="fill:none;stroke:black;stroke:2"/>
<circle cx = "213.88656377955002" cy = "103.80000000000001" r = "1.88976377955" style="fill:none;stroke:black;stroke:2"/>
<circle cx = "213.88656377955002" cy = "334.20000000000005" r = "1.88976377955" style="fill:none;stroke:black;stroke:2"/>
<polyline points="353.5248,75 430.32480000000004,75 " style="fill:none;stroke:black;stroke:2"/>
<polyline points="430.32480000000004,75.0 434.85600000000005,75.0 434.85600000000005,94.2 430.32480000000004,94.2 430.32480000000004,113.4 430.32480000000004,113.4 434.85600000000005,113.4 434.85600000000005,132.60000000000002 430.32480000000004,132.60000000000002 430.32480000000004,151.8 430.32480000000004,151.8 434.85600000000005,151.8 434.85600000000005,171.0 430.32480000000004,171.0 430.32480000000004,190.20000000000002 430.32480000000004,190.20000000000002 434.85600000000005,190.20000000000002 434.85600000000005,209.40000000000003 430.32480000000004,209.40000000000003 430.32480000000004,228.60000000000002 430.32480000000004,228.60000000000002 434.85600000000005,228.60000000000002 434.85600000000005,247.8 430.32480000000004,247.8 430.32480000000004,267.0 430.32480000000004,267.0 434.85600000000005,267.0 434.85600000000005,286.20000000000005 430.32480000000004,286.20000000000005 430.32480000000004,305.40000000000003 430.32480000000004,305.40000000000003 434.85600000000005,305.40000000000003 434.85600000000005,324.6 430.32480000000004,324.6 430.32480000000004,343.80000000000007 " style="fill:none;stroke:black;stroke:2"/>
<line x1 = "430.32480000000004" y1 = "101.91023622045002" x2 = "430.32480000000004" y2 = "105.68976377955002" style="fill:none;stroke:white;stroke:2"/>
<line x1 = "430.32480000000004" y1 = "332.31023622045007" x2 = "430.32480000000004" y2 = "336.08976377955" style="fill:none;stroke:white;stroke:2"/>
<polyline points = "430.32480000000004,101.91023622045002 423.52588346454,101.91023622045002 423.52588346454,99.64251968499002 420.50226141726,99.64251968499002 420.50226141726,101.91023622045002 412.94320629906,101.91023622045002 412.94320629906,105.68976377955002 420.50226141726,105.68976377955002 420.50226141726,107.95748031501002 423.52588346454,107.95748031501002 423.52588346454,105.68976377955002 430.32480000000004,105.68976377955002" style="fill:none;stroke:black;stroke:2"/>
<polyline points = "430.32480000000004,332.31023622045007 423.52588346454,332.31023622045007 423.52588346454,330.04251968499005 420.50226141726,330.04251968499005 420.50226141726,332.31023622045007 412.94320629906,332.31023622045007 412.94320629906,336.08976377955 420.50226141726,336.08976377955 420.50226141726,338.35748031501004 423.52588346454,338.35748031501004 423.52588346454,336.08976377955 430.32480000000004,336.08976377955" style="fill:none;stroke:black;stroke:2"/>
<polyline points="430.32480000000004,343.80000000000007 430.32480000000004,348.3312000000001 411.12480000000005,348.3312000000001 411.12480000000005,343.80000000000007 391.92480000000006,343.80000000000007 391.9248,343.80000000000007 391.9248,348.3312000000001 372.7248000000001,348.3312000000001 372.7248000000001,343.80000000000007 353.5248,343.80000000000007 " style="fill:none;stroke:black;stroke:2"/>
<polyline points="353.5248,343.80000000000007 348.9936,343.80000000000007 348.9936,324.6000000000001 353.5248,324.6000000000001 353.5248,305.4000000000001 353.5248,305.4000000000001 348.9936,305.4000000000001 348.9936,286.20000000000005 353.5248,286.20000000000005 353.5248,267.0000000000001 353.5248,267.00000000000006 348.9936,267.00000000000006 348.9936,247.80000000000007 353.5248,247.80000000000007 353.5248,228.60000000000008 353.5248,228.60000000000005 348.9936,228.60000000000005 348.9936,209.40000000000006 353.5248,209.40000000000006 353.5248,190.20000000000007 353.5248,190.20000000000005 348.9936,190.20000000000005 348.9936,171.00000000000006 353.5248,171.00000000000006 353.5248,151.80000000000007 353.5248,151.80000000000004 348.9936,151.80000000000004 348.9936,132.60000000000005 353.5248,132.60000000000005 353.5248,113.40000000000006 353.5248,113.40000000000003 348.9936,113.40000000000003 348.9936,94.20000000000005 353.5248,94.20000000000005 353.5248,75.00000000000006 " style="fill:none;stroke:black;stroke:2"/>
<circle cx = "353.14896377955" cy = "103.80000000000001" r = "1.88976377955" style="fill:none;stroke:black;stroke:2"/>
<circle cx = "353.14896377955" cy = "334.20000000000005" r = "1.88976377955" style="fill:none;stroke:black;stroke:2"/>
<rect x = "399.2592" y = "84.6" width = "4.5312" height = "19.200000000000003" style="fill:none;stroke:black;strokeDim:3"/>
<rect x = "399.2592" y = "315.0" width = "4.5312" height = "19.200000000000003" style="fill:none;stroke:black;strokeDim:3"/>
<polyline points="454.3872,75 531.1872000000001,75 " style="fill:none;stroke:black;stroke:2"/>
<polyline points="531.1872000000001,75.0 535.7184000000001,75.0 535.7184000000001,94.2 531.1872000000001,94.2 531.1872000000001,113.4 531.1872000000001,113.4 535.7184000000001,113.4 535.7184000000001,132.60000000000002 531.1872000000001,132.60000000000002 531.1872000000001,151.8 531.1872000000001,151.8 535.7184000000001,151.8 535.7184000000001,171.0 531.1872000000001,171.0 531.1872000000001,190.20000000000002 531.1872000000001,190.20000000000002 535.7184000000001,190.20000000000002 535.7184000000001,209.40000000000003 531.1872000000001,209.40000000000003 531.1872000000001,228.60000000000002 531.1872000000001,228.60000000000002 535.7184000000001,228.60000000000002 535.7184000000001,247.8 531.1872000000001,247.8 531.1872000000001,267.0 531.1872000000001,267.0 535.7184000000001,267.0 535.7184000000001,286.20000000000005 531.1872000000001,286.20000000000005 531.1872000000001,305.40000000000003 531.1872000000001,305.40000000000003 535.7184000000001,305.40000000000003 535.7184000000001,324.6 531.1872000000001,324.6 531.1872000000001,343.80000000000007 " style="fill:none;stroke:black;stroke:2"/>
<line x1 = "531.1872000000001" y1 = "101.91023622045002" x2 = "531.1872000000001" y2 = "105.68976377955002" style="fill:none;stroke:white;stroke:2"/>
<line x1 = "531.1872000000001" y1 = "332.31023622045007" x2 = "531.1872000000001" y2 = "336.08976377955" style="fill:none;stroke:white;stroke:2"/>
<polyline points = "531.1872000000001,101.91023622045002 524.3882834645401,101.91023622045002 524.3882834645401,99.64251968499002 521.3646614172601,99.64251968499002 521.3646614172601,101.91023622045002 513.8056062990601,101.91023622045002 513.8056062990601,105.68976377955002 521.3646614172601,105.68976377955002 521.3646614172601,107.95748031501002 524.3882834645401,107.95748031501002 524.3882834645401,105.68976377955002 531.1872000000001,105.68976377955002" style="fill:none;stroke:black;stroke:2"/>
<polyline points = "531.1872000000001,332.31023622045007 524.3882834645401,332.31023622045007 524.3882834645401,330.04251968499005 521.3646614172601,330.04251968499005 521.3646614172601,332.31023622045007 513.8056062990601,332.31023622045007 513.8056062990601,336.08976377955 521.3646614172601,336.08976377955 521.3646614172601,338.35748031501004 524.3882834645401,338.35748031501004 524.3882834645401,336.08976377955 531.1872000000001,336.08976377955" style="fill:none;stroke:black;stroke:2"/>
<polyline points="531.1872000000001,343.80000000000007 531.1872000000001,348.3312000000001 511.9872000000001,348.3312000000001 511.9872000000001,343.80000000000007 492.7872000000001,343.80000000000007 492.7872000000001,343.80000000000007 492.7872000000001,348.3312000000001 473.58720000000005,348.3312000000001 473.58720000000005,343.80000000000007 454.3872000000001,343.80000000000007 " style="fill:none;stroke:black;stroke:2"/>
<polyline points="454.38720000000006,343.80000000000007 449.85600000000005,343.80000000000007 449.85600000000005,324.6000000000001 454.38720000000006,324.6000000000001 454.38720000000006,305.4000000000001 454.38720000000006,305.4000000000001 449.85600000000005,305.4000000000001 449.85600000000005,286.20000000000005 454.38720000000006,286.20000000000005 454.38720000000006,267.0000000000001 454.38720000000006,267.00000000000006 449.85600000000005,267.00000000000006 449.85600000000005,247.80000000000007 454.38720000000006,247.80000000000007 454.38720000000006,228.60000000000008 454.38720000000006,228.60000000000005 449.85600000000005,228.60000000000005 449.85600000000005,209.40000000000006 454.38720000000006,209.40000000000006 454.38720000000006,190.20000000000007 454.38720000000006,190.20000000000005 449.85600000000005,190.20000000000005 449.85600000000005,171.00000000000006 454.38720000000006,171.00000000000006 454.38720000000006,151.80000000000007 454.38720000000006,151.80000000000004 449.85600000000005,151.80000000000004 449.85600000000005,132.60000000000005 454.38720000000006,132.60000000000005 454.38720000000006,113.40000000000006 454.38720000000006,113.40000000000003 449.85600000000005,113.40000000000003 449.85600000000005,94.20000000000005 454.38720000000006,94.20000000000005 454.38720000000006,75.00000000000006 " style="fill:none;stroke:black;stroke:2"/>
<circle cx = "454.01136377955" cy = "103.80000000000001" r = "1.88976377955" style="fill:none;stroke:black;stroke:2"/>
<circle cx = "454.01136377955" cy = "334.20000000000005" r = "1.88976377955" style="fill:none;stroke:black;stroke:2"/>
<rect x = "480.92160000000007" y = "84.6" width = "4.5312" height = "19.200000000000003" style="fill:none;stroke:black;strokeDim:3"/>
<rect x = "480.92160000000007" y = "315.0" width = "4.5312" height = "19.200000000000003" style="fill:none;stroke:black;strokeDim:3"/>
<polyline points="214.2624,367.86240000000004 214.2624,363.3312 233.4624,363.3312 233.4624,367.86240000000004 252.6624,367.86240000000004 252.66240000000002,367.86240000000004 252.66240000000002,363.3312 271.8624,363.3312 271.8624,367.86240000000004 291.0624,367.86240000000004 291.0624,367.86240000000004 291.0624,363.3312 310.2624,363.3312 310.2624,367.86240000000004 329.4624,367.86240000000004 " style="fill:none;stroke:black;stroke:2"/>
<circle cx = "223.8624" cy = "367.48656377955" r = "1.88976377955" style="fill:none;stroke:black;stroke:1"/>
<circle cx = "300.66240000000005" cy = "367.48656377955" r = "1.88976377955" style="fill:none;stroke:black;stroke:1"/>
<polyline points="329.4624,367.86240000000004 333.9936,367.86240000000004 333.9936,387.0624 329.4624,387.0624 329.4624,406.2624 329.4624,406.26240000000007 333.9936,406.26240000000007 333.9936,425.4624 329.4624,425.4624 329.4624,444.66240000000005 " style="fill:none;stroke:black;stroke:2"/>
<polyline points="329.4624,444.66240000000005 329.4624,449.19360000000006 310.2624,449.19360000000006 310.2624,444.66240000000005 291.0624,444.66240000000005 291.0624,444.66240000000005 291.0624,449.19360000000006 271.8624,449.19360000000006 271.8624,444.66240000000005 252.66240000000002,444.66240000000005 252.6624,444.66240000000005 252.6624,449.19360000000006 233.4624,449.19360000000006 233.4624,444.66240000000005 214.2624,444.66240000000005 " style="fill:none;stroke:black;stroke:2"/>
<circle cx = "243.0624" cy = "445.0382362204501" r = "1.88976377955" style="fill:none;stroke:black;stroke:1"/>
<circle cx = "319.8624" cy = "445.0382362204501" r = "1.88976377955" style="fill:none;stroke:black;stroke:1"/>
<polyline points="214.26239999999999,444.66240000000005 209.73119999999997,444.66240000000005 209.73119999999997,425.46240000000006 214.26239999999999,425.46240000000006 214.26239999999999,406.26240000000007 214.26239999999999,406.26240000000007 209.73119999999997,406.26240000000007 209.73119999999997,387.0624 214.26239999999999,387.0624 214.26239999999999,367.8624000000001 " style="fill:none;stroke:black;stroke:2"/>
<polyline points="353.5248,367.86240000000004 468.7248000000001,367.86240000000004 " style="fill:none;stroke:black;stroke:2"/>
<polyline points="468.7248000000001,367.86240000000004 468.7248000000001,377.46240000000006 473.2560000000001,377.46240000000006 473.2560000000001,396.66240000000005 468.7248000000001,396.66240000000005 468.7248000000001,607.8624000000001 473.2560000000001,607.8624000000001 473.2560000000001,627.0624000000001 468.7248000000001,627.0624000000001 468.7248000000001,636.6624000000002" style="fill:none;stroke:black;stroke:2"/>
<polyline points="468.7248000000001,636.6624000000002 353.5248,636.6624000000002 " style="fill:none;stroke:black;stroke:2"/>
<polyline points="353.5248,367.86240000000004 353.5248,377.46240000000006 348.9936,377.46240000000006 348.9936,396.66240000000005 353.5248,396.66240000000005 353.5248,607.8624000000001 348.9936,607.8624000000001 348.9936,627.0624000000001 353.5248,627.0624000000001 353.5248,636.6624000000002" style="fill:none;stroke:black;stroke:2"/>
<polyline points = "271.86240000000004,406.26240000000007 272.2486785561826,406.90527547552665" fill = "none" stroke = "red" /> 
<polyline points = "271.86240000000004,406.26240000000007 272.2486785561826,406.90527547552665" fill = "none" stroke = "red" /> 
<polyline points = "272.2486785561826,406.90527547552665 271.1581926558212,407.58682138928845" fill = "none" stroke = "red" /> 
<polyline points = "271.1581926558212,407.58682138928845 269.61548354680224,406.3801559015467" fill = "none" stroke = "red" /> 
<polyline points = "269.61548354680224,406.3801559015467 270.1848212895878,403.77528728233494" fill = "none" stroke = "red" /> 
<polyline points = "270.1848212895878,403.77528728233494 273.44721848152767,402.8637457986126" fill = "none" stroke = "red" /> 
<polyline points = "273.44721848152767,402.8637457986126 276.33774852915724,405.7920219152956" fill = "none" stroke = "red" /> 
<polyline points = "276.33774852915724,405.7920219152956 275.0219288715483,410.45523642774833" fill = "none" stroke = "red" /> 
<polyline points = "275.0219288715483,410.45523642774833 269.61476043950455,411.8255031274008" fill = "none" stroke = "red" /> 
<polyline points = "269.61476043950455,411.8255031274008 265.19550370098284,407.31833263902166" fill = "none" stroke = "red" /> 
<polyline points = "265.19550370098284,407.31833263902166 267.041492927351,400.5170666766077" fill = "none" stroke = "red" /> 
<polyline points = "267.041492927351,400.5170666766077 274.5483372742716,398.4618717513057" fill = "none" stroke = "red" /> 
<polyline points = "274.5483372742716,398.4618717513057 280.6657284066043,404.39119478264024" fill = "none" stroke = "red" /> 
<polyline points = "280.6657284066043,404.39119478264024 278.5118840106094,413.39309859078696" fill = "none" stroke = "red" /> 
<polyline points = "278.5118840106094,413.39309859078696 268.96820776392155,416.3556478073524" fill = "none" stroke = "red" /> 
<polyline points = "268.96820776392155,416.3556478073524 260.995734454248,409.17411425740346" fill = "none" stroke = "red" /> 
<polyline points = "260.995734454248,409.17411425740346 263.2303223959362,397.9264995544921" fill = "none" stroke = "red" /> 
<polyline points = "263.2303223959362,397.9264995544921 274.7305259428843,393.8391816739883" fill = "none" stroke = "red" /> 
<polyline points = "274.7305259428843,393.8391816739883 284.7016629699846,402.09067057593825" fill = "none" stroke = "red" /> 
<polyline points = "284.7016629699846,402.09067057593825 282.61701151817454,415.6112411631148" fill = "none" stroke = "red" /> 
<polyline points = "282.61701151817454,415.6112411631148 269.25767733499606,421.0345162951832" fill = "none" stroke = "red" /> 
<polyline points = "269.25767733499606,421.0345162951832 257.1585082826691,411.90669520533856" fill = "none" stroke = "red" /> 
<polyline points = "257.1585082826691,411.90669520533856 258.86022256548915,396.1039856571267" fill = "none" stroke = "red" /> 
<polyline points = "258.86022256548915,396.1039856571267 273.96464617373886,389.1409788841873" fill = "none" stroke = "red" /> 
<polyline points = "273.96464617373886,389.1409788841873 288.30621823756684,398.94114042463565" fill = "none" stroke = "red" /> 
<polyline points = "288.30621823756684,398.94114042463565 287.2215008304187,417.01695818158214" fill = "none" stroke = "red" /> 
<polyline points = "287.2215008304187,417.01695818158214 270.5021487619896,425.71489898006666" fill = "none" stroke = "red" /> 
<polyline points = "270.5021487619896,425.71489898006666 253.81951788518563,415.45570761972596" fill = "none" stroke = "red" /> 
<polyline points = "253.81951788518563,415.45570761972596 254.05338998071508,395.1340954511028" fill = "none" stroke = "red" /> 
<polyline points = "254.05338998071508,395.1340954511028 272.2419898400109,384.51571263034856" fill = "none" stroke = "red" /> 
<polyline points = "272.2419898400109,384.51571263034856 291.3479715851499,395.01240000000007" fill = "none" stroke = "red" /> 
<polyline points = "291.3479715851499,395.01240000000007 292.197308190991,417.5342236707274" fill = "none" stroke = "red" /> 
<polyline points = "292.197308190991,417.5342236707274 272.69998792086017,430.2477798484584" fill = "none" stroke = "red" /> 
<polyline points = "272.69998792086017,430.2477798484584 251.1053034433508,419.742216116622" fill = "none" stroke = "red" /> 
<polyline points = "251.1053034433508,419.742216116622 248.94315181937122,395.0839357568787" fill = "none" stroke = "red" /> 
<polyline points = "248.94315181937122,395.0839357568787 269.574561752874,380.11228917509175" fill = "none" stroke = "red" /> 
<polyline points = "269.574561752874,380.11228917509175 293.7058588481235,390.3921981881032" fill = "none" stroke = "red" /> 
<polyline points = "293.7058588481235,390.3921981881032 297.4064096833053,417.1051888155774" fill = "none" stroke = "red" /> 
<polyline points = "297.4064096833053,417.1051888155774 275.82883337736183,434.48503995913484" fill = "none" stroke = "red" /> 
<polyline points = "275.82883337736183,434.48503995913484 249.13088062738368,424.67002143820787" fill = "none" stroke = "red" /> 
<polyline points = "249.13088062738368,424.67002143820787 243.6716213764228,396.00179570023" fill = "none" stroke = "red" /> 
<polyline points = "243.6716213764228,396.00179570023 265.9950233921712,376.0773641089844" fill = "none" stroke = "red" /> 
<polyline points = "265.9950233921712,376.0773641089844 295.271462002538,385.18478589969607" fill = "none" stroke = "red" /> 
<polyline points = "295.271462002538,385.18478589969607 302.70322837980797,415.69138747730824" fill = "none" stroke = "red" /> 
<polyline points = "302.70322837980797,415.69138747730824 279.84582255478904,438.282158967108" fill = "none" stroke = "red" /> 
<text x = "132.60000000000002" y = "209.40000000000003" dominant-baseline= "central" text-anchor= "middle" font-size = "30px" fill = "blue">tall box </text> 
<text x = "75" y = "800" dy = "0">
<tspan x = "20" dy = ".6em" >BOX ATTRIBUTES </tspan>
<tspan x = "20" dy = "1.2em" >thickness: </tspan>
<tspan x = "20" dy = "1.2em" >width: </tspan>
<tspan x = "20" dy = "1.2em" >length:  </tspan>
<tspan x = "20" dy = "1.2em" >height: </tspan>
<tspan x = "20" dy = "1.2em" >partition:  </tspan>
<tspan x = "20" dy = "1.2em" >partition location: </tspan>
<tspan x = "20" dy = "1.2em" >lid: </tspan>
<tspan x = "20" dy = "1.2em" >top text: </tspan>
<tspan x = "20" dy = "1.2em" >top text string: </tspan>
<tspan x = "20" dy = "1.2em" >front text: </tspan>
<tspan x = "20" dy = "1.2em" >front text string: </tspan>
<tspan x = "20" dy = "1.2em" >fractal: </tspan>
</text><text x = "200" y = "800" dy = "0">
<tspan x = "200" dy = ".6em" >BOX ATTRIBUTES </tspan>
<tspan x = "200" dy = "1.2em" >0.118</tspan>
<tspan x = "200" dy = "1.2em" >3.0</tspan>
<tspan x = "200" dy = "1.2em" >2.0</tspan>
<tspan x = "200" dy = "1.2em" >7.0</tspan>
<tspan x = "200" dy = "1.2em" >True</tspan>
<tspan x = "200" dy = "1.2em" >1.25</tspan>
<tspan x = "200" dy = "1.2em" >False</tspan>
<tspan x = "200" dy = "1.2em" >False</tspan>
<tspan x = "200" dy = "1.2em" ></tspan>
<tspan x = "200" dy = "1.2em" >True</tspan>
<tspan x = "200" dy = "1.2em" >tall box</tspan>
<tspan x = "200" dy = "1.2em" >True</tspan>
</text></svg>