<?xml version = "1.0" encoding = "UTF-8" ?> 
<svg xmlns="http://www.w3.org/2000/svg" version = "1.1"> 
<line x1="75" y1="40" x2="113.4" y2 ="40" style="stroke:red;stroke:4"/>
<text x = "123.4" y = "45" font-size = "12px" fill = "red"> = 1 inch (2:5 scale) </text> 
<polyline points="75,75 267.0,75 " style="fill:none;stroke:black;stroke:2"/>
<polyline points="267.0,75.0 271.5312,75.0 271.5312,94.2 267.0,94.2 267.0,113.4 267.0,113.4 271.5312,113.4 271.5312,132.60000000000002 267.0,132.60000000000002 267.0,151.8 267.0,151.8 271.5312,151.8 271.5312,171.0 267.0,171.0 267.0,190.20000000000002 " style="fill:none;stroke:black;stroke:2"/>
<line x1 = "267.0" y1 = "101.91023622045002" x2 = "267.0" y2 = "105.68976377955002" style="fill:none;stroke:white;stroke:2"/>
<line x1 = "267.0" y1 = "178.71023622045004" x2 = "267.0" y2 = "182.48976377955003" style="fill:none;stroke:white;stroke:2"/>
<polyline points = "267.0,101.91023622045002 260.20108346454,101.91023622045002 260.20108346454,99.64251968499002 257.17746141725996,99.64251968499002 257.17746141725996,101.91023622045002 249.61840629905996,101.91023622045002 249.61840629905996,105.68976377955002 257.17746141725996,105.68976377955002 257.17746141725996,107.95748031501002 260.20108346454,107.95748031501002 260.20108346454,105.68976377955002 267.0,105.68976377955002" style="fill:none;stroke:black;stroke:2"/>
<polyline points = "267.0,178.71023622045004 260.20108346454,178.71023622045004 260.20108346454,176.44251968499003 257.17746141725996,176.44251968499003 257.17746141725996,178.71023622045004 249.61840629905996,178.71023622045004 249.61840629905996,182.48976377955003 257.17746141725996,182.48976377955003 257.17746141725996,184.75748031501 260.20108346454,184.75748031501 260.20108346454,182.48976377955003 267.0,182.48976377955003" style="fill:none;stroke:black;stroke:2"/>
<polyline points="267.0,190.20000000000002 267.0,194.73120000000003 247.8,194.73120000000003 247.8,190.20000000000002 228.60000000000002,190.20000000000002 228.6,190.20000000000002 228.6,194.73120000000003 209.4,194.73120000000003 209.4,190.20000000000002 190.20000000000002,190.20000000000002 190.2,190.20000000000002 190.2,194.73120000000003 171.0,194.73120000000003 171.0,190.20000000000002 151.8,190.20000000000002 151.79999999999998,190.20000000000002 151.79999999999998,194.73120000000003 132.6,194.73120000000003 132.6,190.20000000000002 113.4,190.20000000000002 113.39999999999998,190.20000000000002 113.39999999999998,194.73120000000003 94.19999999999999,194.73120000000003 94.19999999999999,190.20000000000002 75.0,190.20000000000002 " style="fill:none;stroke:black;stroke:2"/>
<line x1 = "82.71023622044997" y1 = "190.20000000000002" x2 = "86.48976377954997" y2 = "190.20000000000002" style="fill:none;stroke:white;stroke:2"/>
<line x1 = "236.31023622045" y1 = "190.20000000000002" x2 = "240.08976377955" y2 = "190.20000000000002" style="fill:none;stroke:white;stroke:2"/>
<polyline points = "82.71023622044997,190.20000000000002 82.71023622044997,183.40108346454 80.44251968498997,183.40108346454 80.44251968498997,180.37746141726 82.71023622044997,180.37746141726 82.71023622044997,172.81840629906 86.48976377954997,172.81840629906 86.48976377954997,180.37746141726 88.75748031500997,180.37746141726 88.75748031500997,183.40108346454 86.48976377954997,183.40108346454 86.48976377954997,190.20000000000002" style="fill:none;stroke:black;stroke:2"/>
<polyline points = "236.31023622045,190.20000000000002 236.31023622045,183.40108346454 234.04251968499,183.40108346454 234.04251968499,180.37746141726 236.31023622045,180.37746141726 236.31023622045,172.81840629906 240.08976377955,172.81840629906 240.08976377955,180.37746141726 242.35748031500998,180.37746141726 242.35748031500998,183.40108346454 240.08976377955,183.40108346454 240.08976377955,190.20000000000002" style="fill:none;stroke:black;stroke:2"/>
<polyline points="74.99999999999997,190.20000000000002 70.46879999999997,190.20000000000002 70.46879999999997,171.0 74.99999999999997,171.0 74.99999999999997,151.8 74.99999999999997,151.8 70.46879999999997,151.8 70.46879999999997,132.6 74.99999999999997,132.6 74.99999999999997,113.4 74.99999999999997,113.4 70.46879999999997,113.4 70.46879999999997,94.19999999999999 74.99999999999997,94.19999999999999 74.99999999999997,75.0 " style="fill:none;stroke:black;stroke:2"/>
<circle cx = "74.62416377954999" cy = "103.80000000000001" r = "1.88976377955" style="fill:none;stroke:black;stroke:2"/>
<circle cx = "74.62416377954999" cy = "180.60000000000002" r = "1.88976377955" style="fill:none;stroke:black;stroke:2"/>
<polyline points="286.5312,75 353.552,75 353.552,70.4688 420.57280000000003,70.4688 420.57280000000003,75 487.59360000000004,75" style="fill:none;stroke:black;stroke:2"/>
<line x1 = "321.17263622045004" y1 = "75" x2 = "324.95216377955006" y2 = "75" style="fill:none;stroke:white;stroke:2"/>
<line x1 = "449.17263622045004" y1 = "75" x2 = "452.95216377955006" y2 = "75" style="fill:none;stroke:white;stroke:2"/>
<polyline points = "321.17263622045004,75 321.17263622045004,81.79891653546 318.90491968499003,81.79891653546 318.90491968499003,84.82253858274 321.17263622045004,84.82253858274 321.17263622045004,92.38159370093999 324.95216377955006,92.38159370093999 324.95216377955006,84.82253858274 327.2198803150101,84.82253858274 327.2198803150101,81.79891653546 324.95216377955006,81.79891653546 324.95216377955006,75" style="fill:none;stroke:black;stroke:2"/>
<polyline points = "449.17263622045004,75 449.17263622045004,81.79891653546 446.90491968499003,81.79891653546 446.90491968499003,84.82253858274 449.17263622045004,84.82253858274 449.17263622045004,92.38159370093999 452.95216377955006,92.38159370093999 452.95216377955006,84.82253858274 455.2198803150101,84.82253858274 455.2198803150101,81.79891653546 452.95216377955006,81.79891653546 452.95216377955006,75" style="fill:none;stroke:black;stroke:2"/>
<line x1 = "286.5312" y1 = "75" x2 = "291.0624" y2 = "75" style="fill:none;stroke:white;stroke:2"/>
<polyline points="483.0624,75.0 487.59360000000004,75.0 487.59360000000004,94.2 483.0624,94.2 483.0624,113.4 483.0624,113.4 487.59360000000004,113.4 487.59360000000004,132.60000000000002 483.0624,132.60000000000002 483.0624,151.8 483.0624,151.8 487.59360000000004,151.8 487.59360000000004,171.0 483.0624,171.0 483.0624,190.20000000000002 " style="fill:none;stroke:black;stroke:2"/>
<line x1 = "483.0624" y1 = "101.91023622045002" x2 = "483.0624" y2 = "105.68976377955002" style="fill:none;stroke:white;stroke:2"/>
<line x1 = "483.0624" y1 = "178.71023622045004" x2 = "483.0624" y2 = "182.48976377955003" style="fill:none;stroke:white;stroke:2"/>
<polyline points = "483.0624,101.91023622045002 476.26348346454,101.91023622045002 476.26348346454,99.64251968499002 473.23986141726,99.64251968499002 473.23986141726,101.91023622045002 465.68080629906,101.91023622045002 465.68080629906,105.68976377955002 473.23986141726,105.68976377955002 473.23986141726,107.95748031501002 476.26348346454,107.95748031501002 476.26348346454,105.68976377955002 483.0624,105.68976377955002" style="fill:none;stroke:black;stroke:2"/>
<polyline points = "483.0624,178.71023622045004 476.26348346454,178.71023622045004 476.26348346454,176.44251968499003 473.23986141726,176.44251968499003 473.23986141726,178.71023622045004 465.68080629906,178.71023622045004 465.68080629906,182.48976377955003 473.23986141726,182.48976377955003 473.23986141726,184.75748031501 476.26348346454,184.75748031501 476.26348346454,182.48976377955003 483.0624,182.48976377955003" style="fill:none;stroke:black;stroke:2"/>
<polyline points="483.0624,190.20000000000002 483.0624,194.73120000000003 463.86240000000004,194.73120000000003 463.86240000000004,190.20000000000002 444.66240000000005,190.20000000000002 444.66240000000005,190.20000000000002 444.66240000000005,194.73120000000003 425.4624,194.73120000000003 425.4624,190.20000000000002 406.26240000000007,190.20000000000002 406.2624,190.20000000000002 406.2624,194.73120000000003 387.0624,194.73120000000003 387.0624,190.20000000000002 367.86240000000004,190.20000000000002 367.8624,190.20000000000002 367.8624,194.73120000000003 348.66240000000005,194.73120000000003 348.66240000000005,190.20000000000002 329.4624,190.20000000000002 329.4624,190.20000000000002 329.4624,194.73120000000003 310.2624,194.73120000000003 310.2624,190.20000000000002 291.0624,190.20000000000002 " style="fill:none;stroke:black;stroke:2"/>
<line x1 = "298.77263622045007" y1 = "190.20000000000002" x2 = "302.5521637795501" y2 = "190.20000000000002" style="fill:none;stroke:white;stroke:2"/>
<line x1 = "452.3726362204501" y1 = "190.20000000000002" x2 = "456.1521637795501" y2 = "190.20000000000002" style="fill:none;stroke:white;stroke:2"/>
<polyline points = "298.77263622045007,190.20000000000002 298.77263622045007,183.40108346454 296.50491968499006,183.40108346454 296.50491968499006,180.37746141726 298.77263622045007,180.37746141726 298.77263622045007,172.81840629906 302.5521637795501,172.81840629906 302.5521637795501,180.37746141726 304.8198803150101,180.37746141726 304.8198803150101,183.40108346454 302.5521637795501,183.40108346454 302.5521637795501,190.20000000000002" style="fill:none;stroke:black;stroke:2"/>
<polyline points = "452.3726362204501,190.20000000000002 452.3726362204501,183.40108346454 450.1049196849901,183.40108346454 450.1049196849901,180.37746141726 452.3726362204501,180.37746141726 452.3726362204501,172.81840629906 456.1521637795501,172.81840629906 456.1521637795501,180.37746141726 458.4198803150101,180.37746141726 458.4198803150101,183.40108346454 456.1521637795501,183.40108346454 456.1521637795501,190.20000000000002" style="fill:none;stroke:black;stroke:2"/>
<polyline points="291.0624,190.20000000000002 286.5312,190.20000000000002 286.5312,171.0 291.0624,171.0 291.0624,151.8 291.0624,151.8 286.5312,151.8 286.5312,132.6 291.0624,132.6 291.0624,113.4 291.0624,113.4 286.5312,113.4 286.5312,94.19999999999999 291.0624,94.19999999999999 291.0624,75.0 " style="fill:none;stroke:black;stroke:2"/>
<circle cx = "290.68656377955" cy = "103.80000000000001" r = "1.88976377955" style="fill:none;stroke:black;stroke:2"/>
<circle cx = "290.68656377955" cy = "180.60000000000002" r = "1.88976377955" style="fill:none;stroke:black;stroke:2"/>
<polyline points="507.12480000000005,75 660.7248000000001,75 " style="fill:none;stroke:black;stroke:2"/>
<polyline points="660.7248000000001,75.0 665.2560000000001,75.0 665.2560000000001,94.2 660.7248000000001,94.2 660.7248000000001,113.4 660.7248000000001,113.4 665.2560000000001,113.4 665.2560000000001,132.60000000000002 660.7248000000001,132.60000000000002 660.7248000000001,151.8 660.7248000000001,151.8 665.2560000000001,151.8 665.2560000000001,171.0 660.7248000000001,171.0 660.7248000000001,190.20000000000002 " style="fill:none;stroke:black;stroke:2"/>
<line x1 = "660.7248000000001" y1 = "101.91023622045002" x2 = "660.7248000000001" y2 = "105.68976377955002" style="fill:none;stroke:white;stroke:2"/>
<line x1 = "660.7248000000001" y1 = "178.71023622045004" x2 = "660.7248000000001" y2 = "182.48976377955003" style="fill:none;stroke:white;stroke:2"/>
<polyline points = "660.7248000000001,101.91023622045002 653.9258834645401,101.91023622045002 653.9258834645401,99.64251968499002 650.9022614172601,99.64251968499002 650.9022614172601,101.91023622045002 643.3432062990601,101.91023622045002 643.3432062990601,105.68976377955002 650.9022614172601,105.68976377955002 650.9022614172601,107.95748031501002 653.9258834645401,107.95748031501002 653.9258834645401,105.68976377955002 660.7248000000001,105.68976377955002" style="fill:none;stroke:black;stroke:2"/>
<polyline points = "660.7248000000001,178.71023622045004 653.9258834645401,178.71023622045004 653.9258834645401,176.44251968499003 650.9022614172601,176.44251968499003 650.9022614172601,178.71023622045004 643.3432062990601,178.71023622045004 643.3432062990601,182.48976377955003 650.9022614172601,182.48976377955003 650.9022614172601,184.75748031501 653.9258834645401,184.75748031501 653.9258834645401,182.48976377955003 660.7248000000001,182.48976377955003" style="fill:none;stroke:black;stroke:2"/>
<polyline points="660.7248000000001,190.20000000000002 660.7248000000001,194.73120000000003 641.5248,194.73120000000003 641.5248,190.20000000000002 622.3248,190.20000000000002 622.3248000000001,190.20000000000002 622.3248000000001,194.73120000000003 603.1248,194.73120000000003 603.1248,190.20000000000002 583.9248,190.20000000000002 583.9248,190.20000000000002 583.9248,194.73120000000003 564.7248,194.73120000000003 564.7248,190.20000000000002 545.5247999999999,190.20000000000002 545.5248,190.20000000000002 545.5248,194.73120000000003 526.3248,194.73120000000003 526.3248,190.20000000000002 507.12479999999994,190.20000000000002 " style="fill:none;stroke:black;stroke:2"/>
<polyline points="507.12480000000005,190.20000000000002 502.59360000000004,190.20000000000002 502.59360000000004,171.0 507.12480000000005,171.0 507.12480000000005,151.8 507.12480000000005,151.8 502.59360000000004,151.8 502.59360000000004,132.6 507.12480000000005,132.6 507.12480000000005,113.4 507.12480000000005,113.4 502.59360000000004,113.4 502.59360000000004,94.19999999999999 507.12480000000005,94.19999999999999 507.12480000000005,75.0 " style="fill:none;stroke:black;stroke:2"/>
<circle cx = "506.74896377955" cy = "103.80000000000001" r = "1.88976377955" style="fill:none;stroke:black;stroke:2"/>
<circle cx = "506.74896377955" cy = "180.60000000000002" r = "1.88976377955" style="fill:none;stroke:black;stroke:2"/>
<rect x = "543.2592000000001" y = "84.6" width = "4.5312" height = "19.200000000000003" style="fill:none;stroke:black;strokeDim:3"/>
<rect x = "543.2592000000001" y = "161.4" width = "4.5312" height = "19.200000000000003" style="fill:none;stroke:black;strokeDim:3"/>
<polyline points="684.7872000000001,75 838.3872000000001,75 " style="fill:none;stroke:black;stroke:2"/>
<polyline points="838.3872000000001,75.0 842.9184000000001,75.0 842.9184000000001,94.2 838.3872000000001,94.2 838.3872000000001,113.4 838.3872000000001,113.4 842.9184000000001,113.4 842.9184000000001,132.60000000000002 838.3872000000001,132.60000000000002 838.3872000000001,151.8 838.3872000000001,151.8 842.9184000000001,151.8 842.9184000000001,171.0 838.3872000000001,171.0 838.3872000000001,190.20000000000002 " style="fill:none;stroke:black;stroke:2"/>
<line x1 = "838.3872000000001" y1 = "101.91023622045002" x2 = "838.3872000000001" y2 = "105.68976377955002" style="fill:none;stroke:white;stroke:2"/>
<line x1 = "838.3872000000001" y1 = "178.71023622045004" x2 = "838.3872000000001" y2 = "182.48976377955003" style="fill:none;stroke:white;stroke:2"/>
<polyline points = "838.3872000000001,101.91023622045002 831.5882834645402,101.91023622045002 831.5882834645402,99.64251968499002 828.5646614172601,99.64251968499002 828.5646614172601,101.91023622045002 821.0056062990601,101.91023622045002 821.0056062990601,105.68976377955002 828.5646614172601,105.68976377955002 828.5646614172601,107.95748031501002 831.5882834645402,107.95748031501002 831.5882834645402,105.68976377955002 838.3872000000001,105.68976377955002" style="fill:none;stroke:black;stroke:2"/>
<polyline points = "838.3872000000001,178.71023622045004 831.5882834645402,178.71023622045004 831.5882834645402,176.44251968499003 828.5646614172601,176.44251968499003 828.5646614172601,178.71023622045004 821.0056062990601,178.71023622045004 821.0056062990601,182.48976377955003 828.5646614172601,182.48976377955003 828.5646614172601,184.75748031501 831.5882834645402,184.75748031501 831.5882834645402,182.48976377955003 838.3872000000001,182.48976377955003" style="fill:none;stroke:black;stroke:2"/>
<polyline points="838.3872000000001,190.20000000000002 838.3872000000001,194.73120000000003 819.1872000000001,194.73120000000003 819.1872000000001,190.20000000000002 799.9872,190.20000000000002 799.9872000000001,190.20000000000002 799.9872000000001,194.73120000000003 780.7872000000001,194.73120000000003 780.7872000000001,190.20000000000002 761.5872,190.20000000000002 761.5872000000002,190.20000000000002 761.5872000000002,194.73120000000003 742.3872000000001,194.73120000000003 742.3872000000001,190.20000000000002 723.1872000000001,190.20000000000002 723.1872000000001,190.20000000000002 723.1872000000001,194.73120000000003 703.9872,194.73120000000003 703.9872,190.20000000000002 684.7872,190.20000000000002 " style="fill:none;stroke:black;stroke:2"/>
<polyline points="684.7872000000001,190.20000000000002 680.2560000000001,190.20000000000002 680.2560000000001,171.0 684.7872000000001,171.0 684.7872000000001,151.8 684.7872000000001,151.8 680.2560000000001,151.8 680.2560000000001,132.6 684.7872000000001,132.6 684.7872000000001,113.4 684.7872000000001,113.4 680.2560000000001,113.4 680.2560000000001,94.19999999999999 684.7872000000001,94.19999999999999 684.7872000000001,75.0 " style="fill:none;stroke:black;stroke:2"/>
<circle cx = "684.4113637795501" cy = "103.80000000000001" r = "1.88976377955" style="fill:none;stroke:black;stroke:2"/>
<circle cx = "684.4113637795501" cy = "180.60000000000002" r = "1.88976377955" style="fill:none;stroke:black;stroke:2"/>
<rect x = "797.7216000000002" y = "84.6" width = "4.5312" height = "19.200000000000003" style="fill:none;stroke:black;strokeDim:3"/>
<rect x = "797.7216000000002" y = "161.4" width = "4.5312" height = "19.200000000000003" style="fill:none;stroke:black;strokeDim:3"/>
<polyline points="291.0624,214.2624 291.0624,209.7312 310.2624,209.7312 310.2624,214.2624 329.4624,214.2624 329.4624,214.2624 329.4624,209.7312 348.66240000000005,209.7312 348.66240000000005,214.2624 367.8624,214.2624 367.86240000000004,214.2624 367.86240000000004,209.7312 387.0624,209.7312 387.0624,214.2624 406.2624,214.2624 406.26240000000007,214.2624 406.26240000000007,209.7312 425.4624,209.7312 425.4624,214.2624 444.66240000000005,214.2624 444.66240000000005,214.2624 444.66240000000005,209.7312 463.86240000000004,209.7312 463.86240000000004,214.2624 483.0624,214.2624 " style="fill:none;stroke:black;stroke:2"/>
<circle cx = "300.66240000000005" cy = "213.88656377955002" r = "1.88976377955" style="fill:none;stroke:black;stroke:1"/>
<circle cx = "454.26240000000007" cy = "213.88656377955002" r = "1.88976377955" style="fill:none;stroke:black;stroke:1"/>
<polyline points="483.0624,214.2624 487.59360000000004,214.2624 487.59360000000004,233.4624 483.0624,233.4624 483.0624,252.6624 483.0624,252.66240000000002 487.59360000000004,252.66240000000002 487.59360000000004,271.8624 483.0624,271.8624 483.0624,291.0624 483.0624,291.0624 487.59360000000004,291.0624 487.59360000000004,310.2624 483.0624,310.2624 483.0624,329.4624 483.0624,329.4624 487.59360000000004,329.4624 487.59360000000004,348.66240000000005 483.0624,348.66240000000005 483.0624,367.8624 " style="fill:none;stroke:black;stroke:2"/>
<polyline points="483.0624,367.86240000000004 483.0624,372.39360000000005 463.86240000000004,372.39360000000005 463.86240000000004,367.86240000000004 444.66240000000005,367.86240000000004 444.66240000000005,367.86240000000004 444.66240000000005,372.39360000000005 425.4624,372.39360000000005 425.4624,367.86240000000004 406.26240000000007,367.86240000000004 406.2624,367.86240000000004 406.2624,372.39360000000005 387.0624,372.39360000000005 387.0624,367.86240000000004 367.86240000000004,367.86240000000004 367.8624,367.86240000000004 367.8624,372.39360000000005 348.66240000000005,372.39360000000005 348.66240000000005,367.86240000000004 329.4624,367.86240000000004 329.4624,367.86240000000004 329.4624,372.39360000000005 310.2624,372.39360000000005 310.2624,367.86240000000004 291.0624,367.86240000000004 " style="fill:none;stroke:black;stroke:2"/>
<circle cx = "319.86240000000004" cy = "368.23823622045006" r = "1.88976377955" style="fill:none;stroke:black;stroke:1"/>
<circle cx = "473.46240000000006" cy = "368.23823622045006" r = "1.88976377955" style="fill:none;stroke:black;stroke:1"/>
<polyline points="291.0624,367.86240000000004 286.5312,367.86240000000004 286.5312,348.66240000000005 291.0624,348.66240000000005 291.0624,329.46240000000006 291.0624,329.4624 286.5312,329.4624 286.5312,310.26240000000007 291.0624,310.26240000000007 291.0624,291.0624 291.0624,291.0624 286.5312,291.0624 286.5312,271.86240000000004 291.0624,271.86240000000004 291.0624,252.66240000000005 291.0624,252.66240000000002 286.5312,252.66240000000002 286.5312,233.46240000000003 291.0624,233.46240000000003 291.0624,214.26240000000004 " style="fill:none;stroke:black;stroke:2"/>
<polyline points="507.12480000000005,214.2624 699.1248,214.2624 " style="fill:none;stroke:black;stroke:2"/>
<polyline points="699.1248,214.2624 699.1248,223.8624 703.6560000000001,223.8624 703.6560000000001,243.06240000000003 699.1248,243.06240000000003 699.1248,300.66240000000005 703.6560000000001,300.66240000000005 703.6560000000001,319.86240000000004 699.1248,319.86240000000004 699.1248,329.4624" style="fill:none;stroke:black;stroke:2"/>
<polyline points="699.1248,329.4624 507.12480000000005,329.4624 " style="fill:none;stroke:black;stroke:2"/>
<polyline points="507.12480000000005,214.2624 507.12480000000005,223.8624 502.59360000000004,223.8624 502.59360000000004,243.06240000000003 507.12480000000005,243.06240000000003 507.12480000000005,300.66240000000005 502.59360000000004,300.66240000000005 502.59360000000004,319.86240000000004 507.12480000000005,319.86240000000004 507.12480000000005,329.4624" style="fill:none;stroke:black;stroke:2"/>
<polyline points = "70.4688,209.7312 137.4896,209.7312 137.4896,214.2624 204.5104,214.2624 204.5104,209.7312 271.5312,209.7312 271.5312,372.3936 70.4688,372.3936 70.4688,209.7312" style="fill:none;stroke:black;stroke:2"/>
<circle cx = "107.0" cy = "213.88656377955002" r = "1.88976377955" style="fill:none;stroke:black;stroke:1"/>
<circle cx = "235.00000000000003" cy = "213.88656377955002" r = "1.88976377955" style="fill:none;stroke:black;stroke:1"/>
<polyline points = "70.4688,228.7312 71.00000000000001,228.7312" fill = "none" stroke = "black" /> 
<polyline points = "71.00000000000001,228.7312 76.00000000000001,228.7312" fill = "none" stroke = "black" /> 
<path d = "M 76.00000000000001 228.7312 C 76.00000000000001 230.2312, 86.00000000000001 230.2312, 86.00000000000001 228.7312" stroke = "black" fill = "transparent"/>
<polyline points = "86.00000000000001 228.7312 91.00000000000001,228.7312" fill = "none" stroke = "black" /> 
<polyline points = "70.4688,232.2312 71.00000000000001,232.2312" fill = "none" stroke = "black" /> 
<polyline points = "71.00000000000001,232.2312 76.00000000000001,232.2312" fill = "none" stroke = "black" /> 
<path d = "M 76.00000000000001 232.2312 C 76.00000000000001 233.7312, 86.00000000000001 233.7312, 86.00000000000001 232.2312" stroke = "black" fill = "transparent"/>
<polyline points = "86.00000000000001 232.2312 91.00000000000001,232.2312" fill = "none" stroke = "black" /> 
<polyline points = "70.4688,235.7312 71.00000000000001,235.7312" fill = "none" stroke = "black" /> 
<polyline points = "71.00000000000001,235.7312 76.00000000000001,235.7312" fill = "none" stroke = "black" /> 
<path d = "M 76.00000000000001 235.7312 C 76.00000000000001 237.2312, 86.00000000000001 237.2312, 86.00000000000001 235.7312" stroke = "black" fill = "transparent"/>
<polyline points = "86.00000000000001 235.7312 91.00000000000001,235.7312" fill = "none" stroke = "black" /> 
<polyline points = "70.4688,239.2312 71.00000000000001,239.2312" fill = "none" stroke = "black" /> 
<polyline points = "71.00000000000001,239.2312 76.00000000000001,239.2312" fill = "none" stroke = "black" /> 
<path d = "M 76.00000000000001 239.2312 C 76.00000000000001 240.7312, 86.00000000000001 240.7312, 86.00000000000001 239.2312" stroke = "black" fill = "transparent"/>
<polyline points = "86.00000000000001 239.2312 91.00000000000001,239.2312" fill = "none" stroke = "black" /> 
<polyline points = "70.4688,242.7312 71.00000000000001,242.7312" fill = "none" stroke = "black" /> 
<polyline points = "71.00000000000001,242.7312 76.00000000000001,242.7312" fill = "none" stroke = "black" /> 
<path d = "M 76.00000000000001 242.7312 C 76.00000000000001 244.2312, 86.00000000000001 244.2312, 86.00000000000001 242.7312" stroke = "black" fill = "transparent"/>
<polyline points = "86.00000000000001 242.7312 91.00000000000001,242.7312" fill = "none" stroke = "black" /> 
<polyline points = "70.4688,246.2312 71.00000000000001,246.2312" fill = "none" stroke = "black" /> 
<polyline points = "71.00000000000001,246.2312 76.00000000000001,246.2312" fill = "none" stroke = "black" /> 
<path d = "M 76.00000000000001 246.2312 C 76.00000000000001 247.7312, 86.00000000000001 247.7312, 86.00000000000001 246.2312" stroke = "black" fill = "transparent"/>
<polyline points = "86.00000000000001 246.2312 91.00000000000001,246.2312" fill = "none" stroke = "black" /> 
<polyline points = "70.4688,249.7312 71.00000000000001,249.7312" fill = "none" stroke = "black" /> 
<polyline points = "71.00000000000001,249.7312 76.00000000000001,249.7312" fill = "none" stroke = "black" /> 
<path d = "M 76.00000000000001 249.7312 C 76.00000000000001 251.2312, 86.00000000000001 251.2312, 86.00000000000001 249.7312" stroke = "black" fill = "transparent"/>
<polyline points = "86.00000000000001 249.7312 91.00000000000001,249.7312" fill = "none" stroke = "black" /> 
<polyline points = "70.4688,253.2312 71.00000000000001,253.2312" fill = "none" stroke = "black" /> 
<polyline points = "71.00000000000001,253.2312 76.00000000000001,253.2312" fill = "none" stroke = "black" /> 
<path d = "M 76.00000000000001 253.2312 C 76.00000000000001 254.7312, 86.00000000000001 254.7312, 86.00000000000001 253.2312" stroke = "black" fill = "transparent"/>
<polyline points = "86.00000000000001 253.2312 91.00000000000001,253.2312" fill = "none" stroke = "black" /> 
<polyline points = "70.4688,256.7312 71.00000000000001,256.7312" fill = "none" stroke = "black" /> 
<polyline points = "71.00000000000001,256.7312 76.00000000000001,256.7312" fill = "none" stroke = "black" /> 
<path d = "M 76.00000000000001 256.7312 C 76.00000000000001 258.2312, 86.00000000000001 258.2312, 86.00000000000001 256.7312" stroke = "black" fill = "transparent"/>
<polyline points = "86.00000000000001 256.7312 91.00000000000001,256.7312" fill = "none" stroke = "black" /> 
<polyline points = "70.4688,260.2312 71.00000000000001,260.2312" fill = "none" stroke = "black" /> 
<polyline points = "71.00000000000001,260.2312 76.00000000000001,260.2312" fill = "none" stroke = "black" /> 
<path d = "M 76.00000000000001 260.2312 C 76.00000000000001 261.7312, 86.00000000000001 261.7312, 86.00000000000001 260.2312" stroke = "black" fill = "transparent"/>
<polyline points = "86.00000000000001 260.2312 91.00000000000001,260.2312" fill = "none" stroke = "black" /> 
<polyline points = "70.4688,263.7312 71.00000000000001,263.7312" fill = "none" stroke = "black" /> 
<polyline points = "71.00000000000001,263.7312 76.00000000000001,263.7312" fill = "none" stroke = "black" /> 
<path d = "M 76.00000000000001 263.7312 C 76.00000000000001 265.2312, 86.00000000000001 265.2312, 86.00000000000001 263.7312" stroke = "black" fill = "transparent"/>
<polyline points = "86.00000000000001 263.7312 91.00000000000001,263.7312" fill = "none" stroke = "black" /> 
<polyline points = "70.4688,267.2312 71.00000000000001,267.2312" fill = "none" stroke = "black" /> 
<polyline points = "71.00000000000001,267.2312 76.00000000000001,267.2312" fill = "none" stroke = "black" /> 
<path d = "M 76.00000000000001 267.2312 C 76.00000000000001 268.7312, 86.00000000000001 268.7312, 86.00000000000001 267.2312" stroke = "black" fill = "transparent"/>
<polyline points = "86.00000000000001 267.2312 91.00000000000001,267.2312" fill = "none" stroke = "black" /> 
<polyline points = "70.4688,270.7312 71.00000000000001,270.7312" fill = "none" stroke = "black" /> 
<polyline points = "71.00000000000001,270.7312 76.00000000000001,270.7312" fill = "none" stroke = "black" /> 
<path d = "M 76.00000000000001 270.7312 C 76.00000000000001 272.2312, 86.00000000000001 272.2312, 86.00000000000001 270.7312" stroke = "black" fill = "transparent"/>
<polyline points = "86.00000000000001 270.7312 91.00000000000001,270.7312" fill = "none" stroke = "black" /> 
<polyline points = "91.00000000000001,230.7312 96.00000000000001,230.7312" fill = "none" stroke = "black" /> 
<path d = "M 96.00000000000001 230.7312 C 96.00000000000001 232.2312, 106.00000000000001 232.2312, 106.00000000000001 230.7312" stroke = "black" fill = "transparent"/>
<polyline points = "106.00000000000001 230.7312 111.00000000000001,230.7312" fill = "none" stroke = "black" /> 
<polyline points = "91.00000000000001,234.2312 96.00000000000001,234.2312" fill = "none" stroke = "black" /> 
<path d = "M 96.00000000000001 234.2312 C 96.00000000000001 235.7312, 106.00000000000001 235.7312, 106.00000000000001 234.2312" stroke = "black" fill = "transparent"/>
<polyline points = "106.00000000000001 234.2312 111.00000000000001,234.2312" fill = "none" stroke = "black" /> 
<polyline points = "91.00000000000001,237.7312 96.00000000000001,237.7312" fill = "none" stroke = "black" /> 
<path d = "M 96.00000000000001 237.7312 C 96.00000000000001 239.2312, 106.00000000000001 239.2312, 106.00000000000001 237.7312" stroke = "black" fill = "transparent"/>
<polyline points = "106.00000000000001 237.7312 111.00000000000001,237.7312" fill = "none" stroke = "black" /> 
<polyline points = "91.00000000000001,241.2312 96.00000000000001,241.2312" fill = "none" stroke = "black" /> 
<path d = "M 96.00000000000001 241.2312 C 96.00000000000001 242.7312, 106.00000000000001 242.7312, 106.00000000000001 241.2312" stroke = "black" fill = "transparent"/>
<polyline points = "106.00000000000001 241.2312 111.00000000000001,241.2312" fill = "none" stroke = "black" /> 
<polyline points = "91.00000000000001,244.7312 96.00000000000001,244.7312" fill = "none" stroke = "black" /> 
<path d = "M 96.00000000000001 244.7312 C 96.00000000000001 246.2312, 106.00000000000001 246.2312, 106.00000000000001 244.7312" stroke = "black" fill = "transparent"/>
<polyline points = "106.00000000000001 244.7312 111.00000000000001,244.7312" fill = "none" stroke = "black" /> 
<polyline points = "91.00000000000001,248.2312 96.00000000000001,248.2312" fill = "none" stroke = "black" /> 
<path d = "M 96.00000000000001 248.2312 C 96.00000000000001 249.7312, 106.00000000000001 249.7312, 106.00000000000001 248.2312" stroke = "black" fill = "transparent"/>
<polyline points = "106.00000000000001 248.2312 111.00000000000001,248.2312" fill = "none" stroke = "black" /> 
<polyline points = "91.00000000000001,251.7312 96.00000000000001,251.7312" fill = "none" stroke = "black" /> 
<path d = "M 96.00000000000001 251.7312 C 96.00000000000001 253.2312, 106.00000000000001 253.2312, 106.00000000000001 251.7312" stroke = "black" fill = "transparent"/>
<polyline points = "106.00000000000001 251.7312 111.00000000000001,251.7312" fill = "none" stroke = "black" /> 
<polyline points = "91.00000000000001,255.2312 96.00000000000001,255.2312" fill = "none" stroke = "black" /> 
<path d = "M 96.00000000000001 255.2312 C 96.00000000000001 256.7312, 106.00000000000001 256.7312, 106.00000000000001 255.2312" stroke = "black" fill = "transparent"/>
<polyline points = "106.00000000000001 255.2312 111.00000000000001,255.2312" fill = "none" stroke = "black" /> 
<polyline points = "91.00000000000001,258.7312 96.00000000000001,258.7312" fill = "none" stroke = "black" /> 
<path d = "M 96.00000000000001 258.7312 C 96.00000000000001 260.2312, 106.00000000000001 260.2312, 106.00000000000001 258.7312" stroke = "black" fill = "transparent"/>
<polyline points = "106.00000000000001 258.7312 111.00000000000001,258.7312" fill = "none" stroke = "black" /> 
<polyline points = "91.00000000000001,262.2312 96.00000000000001,262.2312" fill = "none" stroke = "black" /> 
<path d = "M 96.00000000000001 262.2312 C 96.00000000000001 263.7312, 106.00000000000001 263.7312, 106.00000000000001 262.2312" stroke = "black" fill = "transparent"/>
<polyline points = "106.00000000000001 262.2312 111.00000000000001,262.2312" fill = "none" stroke = "black" /> 
<polyline points = "91.00000000000001,265.7312 96.00000000000001,265.7312" fill = "none" stroke = "black" /> 
<path d = "M 96.00000000000001 265.7312 C 96.00000000000001 267.2312, 106.00000000000001 267.2312, 106.00000000000001 265.7312" stroke = "black" fill = "transparent"/>
<polyline points = "106.00000000000001 265.7312 111.00000000000001,265.7312" fill = "none" stroke = "black" /> 
<polyline points = "91.00000000000001,269.2312 96.00000000000001,269.2312" fill = "none" stroke = "black" /> 
<path d = "M 96.00000000000001 269.2312 C 96.00000000000001 270.7312, 106.00000000000001 270.7312, 106.00000000000001 269.2312" stroke = "black" fill = "transparent"/>
<polyline points = "106.00000000000001 269.2312 111.00000000000001,269.2312" fill = "none" stroke = "black" /> 
<polyline points = "91.00000000000001,272.7312 96.00000000000001,272.7312" fill = "none" stroke = "black" /> 
<path d = "M 96.00000000000001 272.7312 C 96.00000000000001 274.2312, 106.00000000000001 274.2312, 106.00000000000001 272.7312" stroke = "black" fill = "transparent"/>
<polyline points = "106.00000000000001 272.7312 111.00000000000001,272.7312" fill = "none" stroke = "black" /> 
<polyline points = "111.00000000000001,228.7312 116.00000000000001,228.7312" fill = "none" stroke = "black" /> 
<path d = "M 116.00000000000001 228.7312 C 116.00000000000001 230.2312, 126.00000000000001 230.2312, 126.00000000000001 228.7312" stroke = "black" fill = "transparent"/>
<polyline points = "126.00000000000001 228.7312 131.0,228.7312" fill = "none" stroke = "black" /> 
<polyline points = "111.00000000000001,232.2312 116.00000000000001,232.2312" fill = "none" stroke = "black" /> 
<path d = "M 116.00000000000001 232.2312 C 116.00000000000001 233.7312, 126.00000000000001 233.7312, 126.00000000000001 232.2312" stroke = "black" fill = "transparent"/>
<polyline points = "126.00000000000001 232.2312 131.0,232.2312" fill = "none" stroke = "black" /> 
<polyline points = "111.00000000000001,235.7312 116.00000000000001,235.7312" fill = "none" stroke = "black" /> 
<path d = "M 116.00000000000001 235.7312 C 116.00000000000001 237.2312, 126.00000000000001 237.2312, 126.00000000000001 235.7312" stroke = "black" fill = "transparent"/>
<polyline points = "126.00000000000001 235.7312 131.0,235.7312" fill = "none" stroke = "black" /> 
<polyline points = "111.00000000000001,239.2312 116.00000000000001,239.2312" fill = "none" stroke = "black" /> 
<path d = "M 116.00000000000001 239.2312 C 116.00000000000001 240.7312, 126.00000000000001 240.7312, 126.00000000000001 239.2312" stroke = "black" fill = "transparent"/>
<polyline points = "126.00000000000001 239.2312 131.0,239.2312" fill = "none" stroke = "black" /> 
<polyline points = "111.00000000000001,242.7312 116.00000000000001,242.7312" fill = "none" stroke = "black" /> 
<path d = "M 116.00000000000001 242.7312 C 116.00000000000001 244.2312, 126.00000000000001 244.2312, 126.00000000000001 242.7312" stroke = "black" fill = "transparent"/>
<polyline points = "126.00000000000001 242.7312 131.0,242.7312" fill = "none" stroke = "black" /> 
<polyline points = "111.00000000000001,246.2312 116.00000000000001,246.2312" fill = "none" stroke = "black" /> 
<path d = "M 116.00000000000001 246.2312 C 116.00000000000001 247.7312, 126.00000000000001 247.7312, 126.00000000000001 246.2312" stroke = "black" fill = "transparent"/>
<polyline points = "126.00000000000001 246.2312 131.0,246.2312" fill = "none" stroke = "black" /> 
<polyline points = "111.00000000000001,249.7312 116.00000000000001,249.7312" fill = "none" stroke = "black" /> 
<path d = "M 116.00000000000001 249.7312 C 116.00000000000001 251.2312, 126.00000000000001 251.2312, 126.00000000000001 249.7312" stroke = "black" fill = "transparent"/>
<polyline points = "126.00000000000001 249.7312 131.0,249.7312" fill = "none" stroke = "black" /> 
<polyline points = "111.00000000000001,253.2312 116.00000000000001,253.2312" fill = "none" stroke = "black" /> 
<path d = "M 116.00000000000001 253.2312 C 116.00000000000001 254.7312, 126.00000000000001 254.7312, 126.00000000000001 253.2312" stroke = "black" fill = "transparent"/>
<polyline points = "126.00000000000001 253.2312 131.0,253.2312" fill = "none" stroke = "black" /> 
<polyline points = "111.00000000000001,256.7312 116.00000000000001,256.7312" fill = "none" stroke = "black" /> 
<path d = "M 116.00000000000001 256.7312 C 116.00000000000001 258.2312, 126.00000000000001 258.2312, 126.00000000000001 256.7312" stroke = "black" fill = "transparent"/>
<polyline points = "126.00000000000001 256.7312 131.0,256.7312" fill = "none" stroke = "black" /> 
<polyline points = "111.00000000000001,260.2312 116.00000000000001,260.2312" fill = "none" stroke = "black" /> 
<path d = "M 116.00000000000001 260.2312 C 116.00000000000001 261.7312, 126.00000000000001 261.7312, 126.00000000000001 260.2312" stroke = "black" fill = "transparent"/>
<polyline points = "126.00000000000001 260.2312 131.0,260.2312" fill = "none" stroke = "black" /> 
<polyline points = "111.00000000000001,263.7312 116.00000000000001,263.7312" fill = "none" stroke = "black" /> 
<path d = "M 116.00000000000001 263.7312 C 116.00000000000001 265.2312, 126.00000000000001 265.2312, 126.00000000000001 263.7312" stroke = "black" fill = "transparent"/>
<polyline points = "126.00000000000001 263.7312 131.0,263.7312" fill = "none" stroke = "black" /> 
<polyline points = "111.00000000000001,267.2312 116.00000000000001,267.2312" fill = "none" stroke = "black" /> 
<path d = "M 116.00000000000001 267.2312 C 116.00000000000001 268.7312, 126.00000000000001 268.7312, 126.00000000000001 267.2312" stroke = "black" fill = "transparent"/>
<polyline points = "126.00000000000001 267.2312 131.0,267.2312" fill = "none" stroke = "black" /> 
<polyline points = "111.00000000000001,270.7312 116.00000000000001,270.7312" fill = "none" stroke = "black" /> 
<path d = "M 116.00000000000001 270.7312 C 116.00000000000001 272.2312, 126.00000000000001 272.2312, 126.00000000000001 270.7312" stroke = "black" fill = "transparent"/>
<polyline points = "126.00000000000001 270.7312 131.0,270.7312" fill = "none" stroke = "black" /> 
<polyline points = "131.0,230.7312 136.0,230.7312" fill = "none" stroke = "black" /> 
<path d = "M 136.0 230.7312 C 136.0 232.2312, 146.0 232.2312, 146.0 230.7312" stroke = "black" fill = "transparent"/>
<polyline points = "146.0 230.7312 151.0,230.7312" fill = "none" stroke = "black" /> 
<polyline points = "131.0,234.2312 136.0,234.2312" fill = "none" stroke = "black" /> 
<path d = "M 136.0 234.2312 C 136.0 235.7312, 146.0 235.7312, 146.0 234.2312" stroke = "black" fill = "transparent"/>
<polyline points = "146.0 234.2312 151.0,234.2312" fill = "none" stroke = "black" /> 
<polyline points = "131.0,237.7312 136.0,237.7312" fill = "none" stroke = "black" /> 
<path d = "M 136.0 237.7312 C 136.0 239.2312, 146.0 239.2312, 146.0 237.7312" stroke = "black" fill = "transparent"/>
<polyline points = "146.0 237.7312 151.0,237.7312" fill = "none" stroke = "black" /> 
<polyline points = "131.0,241.2312 136.0,241.2312" fill = "none" stroke = "black" /> 
<path d = "M 136.0 241.2312 C 136.0 242.7312, 146.0 242.7312, 146.0 241.2312" stroke = "black" fill = "transparent"/>
<polyline points = "146.0 241.2312 151.0,241.2312" fill = "none" stroke = "black" /> 
<polyline points = "131.0,244.7312 136.0,244.7312" fill = "none" stroke = "black" /> 
<path d = "M 136.0 244.7312 C 136.0 246.2312, 146.0 246.2312, 146.0 244.7312" stroke = "black" fill = "transparent"/>
<polyline points = "146.0 244.7312 151.0,244.7312" fill = "none" stroke = "black" /> 
<polyline points = "131.0,248.2312 136.0,248.2312" fill = "none" stroke = "black" /> 
<path d = "M 136.0 248.2312 C 136.0 249.7312, 146.0 249.7312, 146.0 248.2312" stroke = "black" fill = "transparent"/>
<polyline points = "146.0 248.2312 151.0,248.2312" fill = "none" stroke = "black" /> 
<polyline points = "131.0,251.7312 136.0,251.7312" fill = "none" stroke = "black" /> 
<path d = "M 136.0 251.7312 C 136.0 253.2312, 146.0 253.2312, 146.0 251.7312" stroke = "black" fill = "transparent"/>
<polyline points = "146.0 251.7312 151.0,251.7312" fill = "none" stroke = "black" /> 
<polyline points = "131.0,255.2312 136.0,255.2312" fill = "none" stroke = "black" /> 
<path d = "M 136.0 255.2312 C 136.0 256.7312, 146.0 256.7312, 146.0 255.2312" stroke = "black" fill = "transparent"/>
<polyline points = "146.0 255.2312 151.0,255.2312" fill = "none" stroke = "black" /> 
<polyline points = "131.0,258.7312 136.0,258.7312" fill = "none" stroke = "black" /> 
<path d = "M 136.0 258.7312 C 136.0 260.2312, 146.0 260.2312, 146.0 258.7312" stroke = "black" fill = "transparent"/>
<polyline points = "146.0 258.7312 151.0,258.7312" fill = "none" stroke = "black" /> 
<polyline points = "131.0,262.2312 136.0,262.2312" fill = "none" stroke = "black" /> 
<path d = "M 136.0 262.2312 C 136.0 263.7312, 146.0 263.7312, 146.0 262.2312" stroke = "black" fill = "transparent"/>
<polyline points = "146.0 262.2312 151.0,262.2312" fill = "none" stroke = "black" /> 
<polyline points = "131.0,265.7312 136.0,265.7312" fill = "none" stroke = "black" /> 
<path d = "M 136.0 265.7312 C 136.0 267.2312, 146.0 267.2312, 146.0 265.7312" stroke = "black" fill = "transparent"/>
<polyline points = "146.0 265.7312 151.0,265.7312" fill = "none" stroke = "black" /> 
<polyline points = "131.0,269.2312 136.0,269.2312" fill = "none" stroke = "black" /> 
<path d = "M 136.0 269.2312 C 136.0 270.7312, 146.0 270.7312, 146.0 269.2312" stroke = "black" fill = "transparent"/>
<polyline points = "146.0 269.2312 151.0,269.2312" fill = "none" stroke = "black" /> 
<polyline points = "131.0,272.7312 136.0,272.7312" fill = "none" stroke = "black" /> 
<path d = "M 136.0 272.7312 C 136.0 274.2312, 146.0 274.2312, 146.0 272.7312" stroke = "black" fill = "transparent"/>
<polyline points = "146.0 272.7312 151.0,272.7312" fill = "none" stroke = "black" /> 
<polyline points = "151.0,228.7312 156.0,228.7312" fill = "none" stroke = "black" /> 
<path d = "M 156.0 228.7312 C 156.0 230.2312, 166.0 230.2312, 166.0 228.7312" stroke = "black" fill = "transparent"/>
<polyline points = "166.0 228.7312 171.0,228.7312" fill = "none" stroke = "black" /> 
<polyline points = "151.0,232.2312 156.0,232.2312" fill = "none" stroke = "black" /> 
<path d = "M 156.0 232.2312 C 156.0 233.7312, 166.0 233.7312, 166.0 232.2312" stroke = "black" fill = "transparent"/>
<polyline points = "166.0 232.2312 171.0,232.2312" fill = "none" stroke = "black" /> 
<polyline points = "151.0,235.7312 156.0,235.7312" fill = "none" stroke = "black" /> 
<path d = "M 156.0 235.7312 C 156.0 237.2312, 166.0 237.2312, 166.0 235.7312" stroke = "black" fill = "transparent"/>
<polyline points = "166.0 235.7312 171.0,235.7312" fill = "none" stroke = "black" /> 
<polyline points = "151.0,239.2312 156.0,239.2312" fill = "none" stroke = "black" /> 
<path d = "M 156.0 239.2312 C 156.0 240.7312, 166.0 240.7312, 166.0 239.2312" stroke = "black" fill = "transparent"/>
<polyline points = "166.0 239.2312 171.0,239.2312" fill = "none" stroke = "black" /> 
<polyline points = "151.0,242.7312 156.0,242.7312" fill = "none" stroke = "black" /> 
<path d = "M 156.0 242.7312 C 156.0 244.2312, 166.0 244.2312, 166.0 242.7312" stroke = "black" fill = "transparent"/>
<polyline points = "166.0 242.7312 171.0,242.7312" fill = "none" stroke = "black" /> 
<polyline points = "151.0,246.2312 156.0,246.2312" fill = "none" stroke = "black" /> 
<path d = "M 156.0 246.2312 C 156.0 247.7312, 166.0 247.7312, 166.0 246.2312" stroke = "black" fill = "transparent"/>
<polyline points = "166.0 246.2312 171.0,246.2312" fill = "none" stroke = "black" /> 
<polyline points = "151.0,249.7312 156.0,249.7312" fill = "none" stroke = "black" /> 
<path d = "M 156.0 249.7312 C 156.0 251.2312, 166.0 251.2312, 166.0 249.7312" stroke = "black" fill = "transparent"/>
<polyline points = "166.0 249.7312 171.0,249.7312" fill = "none" stroke = "black" /> 
<polyline points = "151.0,253.2312 156.0,253.2312" fill = "none" stroke = "black" /> 
<path d = "M 156.0 253.2312 C 156.0 254.7312, 166.0 254.7312, 166.0 253.2312" stroke = "black" fill = "transparent"/>
<polyline points = "166.0 253.2312 171.0,253.2312" fill = "none" stroke = "black" /> 
<polyline points = "151.0,256.7312 156.0,256.7312" fill = "none" stroke = "black" /> 
<path d = "M 156.0 256.7312 C 156.0 258.2312, 166.0 258.2312, 166.0 256.7312" stroke = "black" fill = "transparent"/>
<polyline points = "166.0 256.7312 171.0,256.7312" fill = "none" stroke = "black" /> 
<polyline points = "151.0,260.2312 156.0,260.2312" fill = "none" stroke = "black" /> 
<path d = "M 156.0 260.2312 C 156.0 261.7312, 166.0 261.7312, 166.0 260.2312" stroke = "black" fill = "transparent"/>
<polyline points = "166.0 260.2312 171.0,260.2312" fill = "none" stroke = "black" /> 
<polyline points = "151.0,263.7312 156.0,263.7312" fill = "none" stroke = "black" /> 
<path d = "M 156.0 263.7312 C 156.0 265.2312, 166.0 265.2312, 166.0 263.7312" stroke = "black" fill = "transparent"/>
<polyline points = "166.0 263.7312 171.0,263.7312" fill = "none" stroke = "black" /> 
<polyline points = "151.0,267.2312 156.0,267.2312" fill = "none" stroke = "black" /> 
<path d = "M 156.0 267.2312 C 156.0 268.7312, 166.0 268.7312, 166.0 267.2312" stroke = "black" fill = "transparent"/>
<polyline points = "166.0 267.2312 171.0,267.2312" fill = "none" stroke = "black" /> 
<polyline points = "151.0,270.7312 156.0,270.7312" fill = "none" stroke = "black" /> 
<path d = "M 156.0 270.7312 C 156.0 272.2312, 166.0 272.2312, 166.0 270.7312" stroke = "black" fill = "transparent"/>
<polyline points = "166.0 270.7312 171.0,270.7312" fill = "none" stroke = "black" /> 
<polyline points = "171.0,230.7312 176.0,230.7312" fill = "none" stroke = "black" /> 
<path d = "M 176.0 230.7312 C 176.0 232.2312, 186.0 232.2312, 186.0 230.7312" stroke = "black" fill = "transparent"/>
<polyline points = "186.0 230.7312 191.0,230.7312" fill = "none" stroke = "black" /> 
<polyline points = "171.0,234.2312 176.0,234.2312" fill = "none" stroke = "black" /> 
<path d = "M 176.0 234.2312 C 176.0 235.7312, 186.0 235.7312, 186.0 234.2312" stroke = "black" fill = "transparent"/>
<polyline points = "186.0 234.2312 191.0,234.2312" fill = "none" stroke = "black" /> 
<polyline points = "171.0,237.7312 176.0,237.7312" fill = "none" stroke = "black" /> 
<path d = "M 176.0 237.7312 C 176.0 239.2312, 186.0 239.2312, 186.0 237.7312" stroke = "black" fill = "transparent"/>
<polyline points = "186.0 237.7312 191.0,237.7312" fill = "none" stroke = "black" /> 
<polyline points = "171.0,241.2312 176.0,241.2312" fill = "none" stroke = "black" /> 
<path d = "M 176.0 241.2312 C 176.0 242.7312, 186.0 242.7312, 186.0 241.2312" stroke = "black" fill = "transparent"/>
<polyline points = "186.0 241.2312 191.0,241.2312" fill = "none" stroke = "black" /> 
<polyline points = "171.0,244.7312 176.0,244.7312" fill = "none" stroke = "black" /> 
<path d = "M 176.0 244.7312 C 176.0 246.2312, 186.0 246.2312, 186.0 244.7312" stroke = "black" fill = "transparent"/>
<polyline points = "186.0 244.7312 191.0,244.7312" fill = "none" stroke = "black" /> 
<polyline points = "171.0,248.2312 176.0,248.2312" fill = "none" stroke = "black" /> 
<path d = "M 176.0 248.2312 C 176.0 249.7312, 186.0 249.7312, 186.0 248.2312" stroke = "black" fill = "transparent"/>
<polyline points = "186.0 248.2312 191.0,248.2312" fill = "none" stroke = "black" /> 
<polyline points = "171.0,251.7312 176.0,251.7312" fill = "none" stroke = "black" /> 
<path d = "M 176.0 251.7312 C 176.0 253.2312, 186.0 253.2312, 186.0 251.7312" stroke = "black" fill = "transparent"/>
<polyline points = "186.0 251.7312 191.0,251.7312" fill = "none" stroke = "black" /> 
<polyline points = "171.0,255.2312 176.0,255.2312" fill = "none" stroke = "black" /> 
<path d = "M 176.0 255.2312 C 176.0 256.7312, 186.0 256.7312, 186.0 255.2312" stroke = "black" fill = "transparent"/>
<polyline points = "186.0 255.2312 191.0,255.2312" fill = "none" stroke = "black" /> 
<polyline points = "171.0,258.7312 176.0,258.7312" fill = "none" stroke = "black" /> 
<path d = "M 176.0 258.7312 C 176.0 260.2312, 186.0 260.2312, 186.0 258.7312" stroke = "black" fill = "transparent"/>
<polyline points = "186.0 258.7312 191.0,258.7312" fill = "none" stroke = "black" /> 
<polyline points = "171.0,262.2312 176.0,262.2312" fill = "none" stroke = "black" /> 
<path d = "M 176.0 262.2312 C 176.0 263.7312, 186.0 263.7312, 186.0 262.2312" stroke = "black" fill = "transparent"/>
<polyline points = "186.0 262.2312 191.0,262.2312" fill = "none" stroke = "black" /> 
<polyline points = "171.0,265.7312 176.0,265.7312" fill = "none" stroke = "black" /> 
<path d = "M 176.0 265.7312 C 176.0 267.2312, 186.0 267.2312, 186.0 265.7312" stroke = "black" fill = "transparent"/>
<polyline points = "186.0 265.7312 191.0,265.7312" fill = "none" stroke = "black" /> 
<polyline points = "171.0,269.2312 176.0,269.2312" fill = "none" stroke = "black" /> 
<path d = "M 176.0 269.2312 C 176.0 270.7312, 186.0 270.7312, 186.0 269.2312" stroke = "black" fill = "transparent"/>
<polyline points = "186.0 269.2312 191.0,269.2312" fill = "none" stroke = "black" /> 
<polyline points = "171.0,272.7312 176.0,272.7312" fill = "none" stroke = "black" /> 
<path d = "M 176.0 272.7312 C 176.0 274.2312, 186.0 274.2312, 186.0 272.7312" stroke = "black" fill = "transparent"/>
<polyline points = "186.0 272.7312 191.0,272.7312" fill = "none" stroke = "black" /> 
<polyline points = "191.0,228.7312 196.0,228.7312" fill = "none" stroke = "black" /> 
<path d = "M 196.0 228.7312 C 196.0 230.2312, 206.0 230.2312, 206.0 228.7312" stroke = "black" fill = "transparent"/>
<polyline points = "206.0 228.7312 211.0,228.7312" fill = "none" stroke = "black" /> 
<polyline points = "191.0,232.2312 196.0,232.2312" fill = "none" stroke = "black" /> 
<path d = "M 196.0 232.2312 C 196.0 233.7312, 206.0 233.7312, 206.0 232.2312" stroke = "black" fill = "transparent"/>
<polyline points = "206.0 232.2312 211.0,232.2312" fill = "none" stroke = "black" /> 
<polyline points = "191.0,235.7312 196.0,235.7312" fill = "none" stroke = "black" /> 
<path d = "M 196.0 235.7312 C 196.0 237.2312, 206.0 237.2312, 206.0 235.7312" stroke = "black" fill = "transparent"/>
<polyline points = "206.0 235.7312 211.0,235.7312" fill = "none" stroke = "black" /> 
<polyline points = "191.0,239.2312 196.0,239.2312" fill = "none" stroke = "black" /> 
<path d = "M 196.0 239.2312 C 196.0 240.7312, 206.0 240.7312, 206.0 239.2312" stroke = "black" fill = "transparent"/>
<polyline points = "206.0 239.2312 211.0,239.2312" fill = "none" stroke = "black" /> 
<polyline points = "191.0,242.7312 196.0,242.7312" fill = "none" stroke = "black" /> 
<path d = "M 196.0 242.7312 C 196.0 244.2312, 206.0 244.2312, 206.0 242.7312" stroke = "black" fill = "transparent"/>
<polyline points = "206.0 242.7312 211.0,242.7312" fill = "none" stroke = "black" /> 
<polyline points = "191.0,246.2312 196.0,246.2312" fill = "none" stroke = "black" /> 
<path d = "M 196.0 246.2312 C 196.0 247.7312, 206.0 247.7312, 206.0 246.2312" stroke = "black" fill = "transparent"/>
<polyline points = "206.0 246.2312 211.0,246.2312" fill = "none" stroke = "black" /> 
<polyline points = "191.0,249.7312 196.0,249.7312" fill = "none" stroke = "black" /> 
<path d = "M 196.0 249.7312 C 196.0 251.2312, 206.0 251.2312, 206.0 249.7312" stroke = "black" fill = "transparent"/>
<polyline points = "206.0 249.7312 211.0,249.7312" fill = "none" stroke = "black" /> 
<polyline points = "191.0,253.2312 196.0,253.2312" fill = "none" stroke = "black" /> 
<path d = "M 196.0 253.2312 C 196.0 254.7312, 206.0 254.7312, 206.0 253.2312" stroke = "black" fill = "transparent"/>
<polyline points = "206.0 253.2312 211.0,253.2312" fill = "none" stroke = "black" /> 
<polyline points = "191.0,256.7312 196.0,256.7312" fill = "none" stroke = "black" /> 
<path d = "M 196.0 256.7312 C 196.0 258.2312, 206.0 258.2312, 206.0 256.7312" stroke = "black" fill = "transparent"/>
<polyline points = "206.0 256.7312 211.0,256.7312" fill = "none" stroke = "black" /> 
<polyline points = "191.0,260.2312 196.0,260.2312" fill = "none" stroke = "black" /> 
<path d = "M 196.0 260.2312 C 196.0 261.7312, 206.0 261.7312, 206.0 260.2312" stroke = "black" fill = "transparent"/>
<polyline points = "206.0 260.2312 211.0,260.2312" fill = "none" stroke = "black" /> 
<polyline points = "191.0,263.7312 196.0,263.7312" fill = "none" stroke = "black" /> 
<path d = "M 196.0 263.7312 C 196.0 265.2312, 206.0 265.2312, 206.0 263.7312" stroke = "black" fill = "transparent"/>
<polyline points = "206.0 263.7312 211.0,263.7312" fill = "none" stroke = "black" /> 
<polyline points = "191.0,267.2312 196.0,267.2312" fill = "none" stroke = "black" /> 
<path d = "M 196.0 267.2312 C 196.0 268.7312, 206.0 268.7312, 206.0 267.2312" stroke = "black" fill = "transparent"/>
<polyline points = "206.0 267.2312 211.0,267.2312" fill = "none" stroke = "black" /> 
<polyline points = "191.0,270.7312 196.0,270.7312" fill = "none" stroke = "black" /> 
<path d = "M 196.0 270.7312 C 196.0 272.2312, 206.0 272.2312, 206.0 270.7312" stroke = "black" fill = "transparent"/>
<polyline points = "206.0 270.7312 211.0,270.7312" fill = "none" stroke = "black" /> 
<polyline points = "211.0,230.7312 216.0,230.7312" fill = "none" stroke = "black" /> 
<path d = "M 216.0 230.7312 C 216.0 232.2312, 226.0 232.2312, 226.0 230.7312" stroke = "black" fill = "transparent"/>
<polyline points = "226.0 230.7312 231.0,230.7312" fill = "none" stroke = "black" /> 
<polyline points = "211.0,234.2312 216.0,234.2312" fill = "none" stroke = "black" /> 
<path d = "M 216.0 234.2312 C 216.0 235.7312, 226.0 235.7312, 226.0 234.2312" stroke = "black" fill = "transparent"/>
<polyline points = "226.0 234.2312 231.0,234.2312" fill = "none" stroke = "black" /> 
<polyline points = "211.0,237.7312 216.0,237.7312" fill = "none" stroke = "black" /> 
<path d = "M 216.0 237.7312 C 216.0 239.2312, 226.0 239.2312, 226.0 237.7312" stroke = "black" fill = "transparent"/>
<polyline points = "226.0 237.7312 231.0,237.7312" fill = "none" stroke = "black" /> 
<polyline points = "211.0,241.2312 216.0,241.2312" fill = "none" stroke = "black" /> 
<path d = "M 216.0 241.2312 C 216.0 242.7312, 226.0 242.7312, 226.0 241.2312" stroke = "black" fill = "transparent"/>
<polyline points = "226.0 241.2312 231.0,241.2312" fill = "none" stroke = "black" /> 
<polyline points = "211.0,244.7312 216.0,244.7312" fill = "none" stroke = "black" /> 
<path d = "M 216.0 244.7312 C 216.0 246.2312, 226.0 246.2312, 226.0 244.7312" stroke = "black" fill = "transparent"/>
<polyline points = "226.0 244.7312 231.0,244.7312" fill = "none" stroke = "black" /> 
<polyline points = "211.0,248.2312 216.0,248.2312" fill = "none" stroke = "black" /> 
<path d = "M 216.0 248.2312 C 216.0 249.7312, 226.0 249.7312, 226.0 248.2312" stroke = "black" fill = "transparent"/>
<polyline points = "226.0 248.2312 231.0,248.2312" fill = "none" stroke = "black" /> 
<polyline points = "211.0,251.7312 216.0,251.7312" fill = "none" stroke = "black" /> 
<path d = "M 216.0 251.7312 C 216.0 253.2312, 226.0 253.2312, 226.0 251.7312" stroke = "black" fill = "transparent"/>
<polyline points = "226.0 251.7312 231.0,251.7312" fill = "none" stroke = "black" /> 
<polyline points = "211.0,255.2312 216.0,255.2312" fill = "none" stroke = "black" /> 
<path d = "M 216.0 255.2312 C 216.0 256.7312, 226.0 256.7312, 226.0 255.2312" stroke = "black" fill = "transparent"/>
<polyline points = "226.0 255.2312 231.0,255.2312" fill = "none" stroke = "black" /> 
<polyline points = "211.0,258.7312 216.0,258.7312" fill = "none" stroke = "black" /> 
<path d = "M 216.0 258.7312 C 216.0 260.2312, 226.0 260.2312, 226.0 258.7312" stroke = "black" fill = "transparent"/>
<polyline points = "226.0 258.7312 231.0,258.7312" fill = "none" stroke = "black" /> 
<polyline points = "211.0,262.2312 216.0,262.2312" fill = "none" stroke = "black" /> 
<path d = "M 216.0 262.2312 C 216.0 263.7312, 226.0 263.7312, 226.0 262.2312" stroke = "black" fill = "transparent"/>
<polyline points = "226.0 262.2312 231.0,262.2312" fill = "none" stroke = "black" /> 
<polyline points = "211.0,265.7312 216.0,265.7312" fill = "none" stroke = "black" /> 
<path d = "M 216.0 265.7312 C 216.0 267.2312, 226.0 267.2312, 226.0 265.7312" stroke = "black" fill = "transparent"/>
<polyline points = "226.0 265.7312 231.0,265.7312" fill = "none" stroke = "black" /> 
<polyline points = "211.0,269.2312 216.0,269.2312" fill = "none" stroke = "black" /> 
<path d = "M 216.0 269.2312 C 216.0 270.7312, 226.0 270.7312, 226.0 269.2312" stroke = "black" fill = "transparent"/>
<polyline points = "226.0 269.2312 231.0,269.2312" fill = "none" stroke = "black" /> 
<polyline points = "211.0,272.7312 216.0,272.7312" fill = "none" stroke = "black" /> 
<path d = "M 216.0 272.7312 C 216.0 274.2312, 226.0 274.2312, 226.0 272.7312" stroke = "black" fill = "transparent"/>
<polyline points = "226.0 272.7312 231.0,272.7312" fill = "none" stroke = "black" /> 
<polyline points = "231.0,228.7312 236.0,228.7312" fill = "none" stroke = "black" /> 
<path d = "M 236.0 228.7312 C 236.0 230.2312, 246.0 230.2312, 246.0 228.7312" stroke = "black" fill = "transparent"/>
<polyline points = "246.0 228.7312 251.0,228.7312" fill = "none" stroke = "black" /> 
<polyline points = "231.0,232.2312 236.0,232.2312" fill = "none" stroke = "black" /> 
<path d = "M 236.0 232.2312 C 236.0 233.7312, 246.0 233.7312, 246.0 232.2312" stroke = "black" fill = "transparent"/>
<polyline points = "246.0 232.2312 251.0,232.2312" fill = "none" stroke = "black" /> 
<polyline points = "231.0,235.7312 236.0,235.7312" fill = "none" stroke = "black" /> 
<path d = "M 236.0 235.7312 C 236.0 237.2312, 246.0 237.2312, 246.0 235.7312" stroke = "black" fill = "transparent"/>
<polyline points = "246.0 235.7312 251.0,235.7312" fill = "none" stroke = "black" /> 
<polyline points = "231.0,239.2312 236.0,239.2312" fill = "none" stroke = "black" /> 
<path d = "M 236.0 239.2312 C 236.0 240.7312, 246.0 240.7312, 246.0 239.2312" stroke = "black" fill = "transparent"/>
<polyline points = "246.0 239.2312 251.0,239.2312" fill = "none" stroke = "black" /> 
<polyline points = "231.0,242.7312 236.0,242.7312" fill = "none" stroke = "black" /> 
<path d = "M 236.0 242.7312 C 236.0 244.2312, 246.0 244.2312, 246.0 242.7312" stroke = "black" fill = "transparent"/>
<polyline points = "246.0 242.7312 251.0,242.7312" fill = "none" stroke = "black" /> 
<polyline points = "231.0,246.2312 236.0,246.2312" fill = "none" stroke = "black" /> 
<path d = "M 236.0 246.2312 C 236.0 247.7312, 246.0 247.7312, 246.0 246.2312" stroke = "black" fill = "transparent"/>
<polyline points = "246.0 246.2312 251.0,246.2312" fill = "none" stroke = "black" /> 
<polyline points = "231.0,249.7312 236.0,249.7312" fill = "none" stroke = "black" /> 
<path d = "M 236.0 249.7312 C 236.0 251.2312, 246.0 251.2312, 246.0 249.7312" stroke = "black" fill = "transparent"/>
<polyline points = "246.0 249.7312 251.0,249.7312" fill = "none" stroke = "black" /> 
<polyline points = "231.0,253.2312 236.0,253.2312" fill = "none" stroke = "black" /> 
<path d = "M 236.0 253.2312 C 236.0 254.7312, 246.0 254.7312, 246.0 253.2312" stroke = "black" fill = "transparent"/>
<polyline points = "246.0 253.2312 251.0,253.2312" fill = "none" stroke = "black" /> 
<polyline points = "231.0,256.7312 236.0,256.7312" fill = "none" stroke = "black" /> 
<path d = "M 236.0 256.7312 C 236.0 258.2312, 246.0 258.2312, 246.0 256.7312" stroke = "black" fill = "transparent"/>
<polyline points = "246.0 256.7312 251.0,256.7312" fill = "none" stroke = "black" /> 
<polyline points = "231.0,260.2312 236.0,260.2312" fill = "none" stroke = "black" /> 
<path d = "M 236.0 260.2312 C 236.0 261.7312, 246.0 261.7312, 246.0 260.2312" stroke = "black" fill = "transparent"/>
<polyline points = "246.0 260.2312 251.0,260.2312" fill = "none" stroke = "black" /> 
<polyline points = "231.0,263.7312 236.0,263.7312" fill = "none" stroke = "black" /> 
<path d = "M 236.0 263.7312 C 236.0 265.2312, 246.0 265.2312, 246.0 263.7312" stroke = "black" fill = "transparent"/>
<polyline points = "246.0 263.7312 251.0,263.7312" fill = "none" stroke = "black" /> 
<polyline points = "231.0,267.2312 236.0,267.2312" fill = "none" stroke = "black" /> 
<path d = "M 236.0 267.2312 C 236.0 268.7312, 246.0 268.7312, 246.0 267.2312" stroke = "black" fill = "transparent"/>
<polyline points = "246.0 267.2312 251.0,267.2312" fill = "none" stroke = "black" /> 
<polyline points = "231.0,270.7312 236.0,270.7312" fill = "none" stroke = "black" /> 
<path d = "M 236.0 270.7312 C 236.0 272.2312, 246.0 272.2312, 246.0 270.7312" stroke = "black" fill = "transparent"/>
<polyline points = "246.0 270.7312 251.0,270.7312" fill = "none" stroke = "black" /> 
<polyline points = "251.0,230.7312 256.0,230.7312" fill = "none" stroke = "black" /> 
<path d = "M 256.0 230.7312 C 256.0 232.2312, 266.0 232.2312, 266.0 230.7312" stroke = "black" fill = "transparent"/>
<polyline points = "266.0 230.7312 271.0,230.7312" fill = "none" stroke = "black" /> 
<polyline points = "271.0 230.7312 271.5312,230.7312" fill = "none" stroke = "black" /> 
<polyline points = "251.0,234.2312 256.0,234.2312" fill = "none" stroke = "black" /> 
<path d = "M 256.0 234.2312 C 256.0 235.7312, 266.0 235.7312, 266.0 234.2312" stroke = "black" fill = "transparent"/>
<polyline points = "266.0 234.2312 271.0,234.2312" fill = "none" stroke = "black" /> 
<polyline points = "271.0 234.2312 271.5312,234.2312" fill = "none" stroke = "black" /> 
<polyline points = "251.0,237.7312 256.0,237.7312" fill = "none" stroke = "black" /> 
<path d = "M 256.0 237.7312 C 256.0 239.2312, 266.0 239.2312, 266.0 237.7312" stroke = "black" fill = "transparent"/>
<polyline points = "266.0 237.7312 271.0,237.7312" fill = "none" stroke = "black" /> 
<polyline points = "271.0 237.7312 271.5312,237.7312" fill = "none" stroke = "black" /> 
<polyline points = "251.0,241.2312 256.0,241.2312" fill = "none" stroke = "black" /> 
<path d = "M 256.0 241.2312 C 256.0 242.7312, 266.0 242.7312, 266.0 241.2312" stroke = "black" fill = "transparent"/>
<polyline points = "266.0 241.2312 271.0,241.2312" fill = "none" stroke = "black" /> 
<polyline points = "271.0 241.2312 271.5312,241.2312" fill = "none" stroke = "black" /> 
<polyline points = "251.0,244.7312 256.0,244.7312" fill = "none" stroke = "black" /> 
<path d = "M 256.0 244.7312 C 256.0 246.2312, 266.0 246.2312, 266.0 244.7312" stroke = "black" fill = "transparent"/>
<polyline points = "266.0 244.7312 271.0,244.7312" fill = "none" stroke = "black" /> 
<polyline points = "271.0 244.7312 271.5312,244.7312" fill = "none" stroke = "black" /> 
<polyline points = "251.0,248.2312 256.0,248.2312" fill = "none" stroke = "black" /> 
<path d = "M 256.0 248.2312 C 256.0 249.7312, 266.0 249.7312, 266.0 248.2312" stroke = "black" fill = "transparent"/>
<polyline points = "266.0 248.2312 271.0,248.2312" fill = "none" stroke = "black" /> 
<polyline points = "271.0 248.2312 271.5312,248.2312" fill = "none" stroke = "black" /> 
<polyline points = "251.0,251.7312 256.0,251.7312" fill = "none" stroke = "black" /> 
<path d = "M 256.0 251.7312 C 256.0 253.2312, 266.0 253.2312, 266.0 251.7312" stroke = "black" fill = "transparent"/>
<polyline points = "266.0 251.7312 271.0,251.7312" fill = "none" stroke = "black" /> 
<polyline points = "271.0 251.7312 271.5312,251.7312" fill = "none" stroke = "black" /> 
<polyline points = "251.0,255.2312 256.0,255.2312" fill = "none" stroke = "black" /> 
<path d = "M 256.0 255.2312 C 256.0 256.7312, 266.0 256.7312, 266.0 255.2312" stroke = "black" fill = "transparent"/>
<polyline points = "266.0 255.2312 271.0,255.2312" fill = "none" stroke = "black" /> 
<polyline points = "271.0 255.2312 271.5312,255.2312" fill = "none" stroke = "black" /> 
<polyline points = "251.0,258.7312 256.0,258.7312" fill = "none" stroke = "black" /> 
<path d = "M 256.0 258.7312 C 256.0 260.2312, 266.0 260.2312, 266.0 258.7312" stroke = "black" fill = "transparent"/>
<polyline points = "266.0 258.7312 271.0,258.7312" fill = "none" stroke = "black" /> 
<polyline points = "271.0 258.7312 271.5312,258.7312" fill = "none" stroke = "black" /> 
<polyline points = "251.0,262.2312 256.0,262.2312" fill = "none" stroke = "black" /> 
<path d = "M 256.0 262.2312 C 256.0 263.7312, 266.0 263.7312, 266.0 262.2312" stroke = "black" fill = "transparent"/>
<polyline points = "266.0 262.2312 271.0,262.2312" fill = "none" stroke = "black" /> 
<polyline points = "271.0 262.2312 271.5312,262.2312" fill = "none" stroke = "black" /> 
<polyline points = "251.0,265.7312 256.0,265.7312" fill = "none" stroke = "black" /> 
<path d = "M 256.0 265.7312 C 256.0 267.2312, 266.0 267.2312, 266.0 265.7312" stroke = "black" fill = "transparent"/>
<polyline points = "266.0 265.7312 271.0,265.7312" fill = "none" stroke = "black" /> 
<polyline points = "271.0 265.7312 271.5312,265.7312" fill = "none" stroke = "black" /> 
<polyline points = "251.0,269.2312 256.0,269.2312" fill = "none" stroke = "black" /> 
<path d = "M 256.0 269.2312 C 256.0 270.7312, 266.0 270.7312, 266.0 269.2312" stroke = "black" fill = "transparent"/>
<polyline points = "266.0 269.2312 271.0,269.2312" fill = "none" stroke = "black" /> 
<polyline points = "271.0 269.2312 271.5312,269.2312" fill = "none" stroke = "black" /> 
<polyline points = "251.0,272.7312 256.0,272.7312" fill = "none" stroke = "black" /> 
<path d = "M 256.0 272.7312 C 256.0 274.2312, 266.0 274.2312, 266.0 272.7312" stroke = "black" fill = "transparent"/>
<polyline points = "266.0 272.7312 271.0,272.7312" fill = "none" stroke = "black" /> 
<polyline points = "271.0 272.7312 271.5312,272.7312" fill = "none" stroke = "black" /> 
<polyline points = "583.9248,132.60000000000002 584.3110785561826,133.2428754755266" fill = "none" stroke = "red" /> 
<polyline points = "583.9248,132.60000000000002 584.3110785561826,133.2428754755266" fill = "none" stroke = "red" /> 
<polyline points = "584.3110785561826,133.2428754755266 583.2205926558212,133.92442138928843" fill = "none" stroke = "red" /> 
<polyline points = "583.2205926558212,133.92442138928843 581.6778835468023,132.71775590154664" fill = "none" stroke = "red" /> 
<polyline points = "581.6778835468023,132.71775590154664 582.2472212895877,130.1128872823349" fill = "none" stroke = "red" /> 
<polyline points = "582.2472212895877,130.1128872823349 585.5096184815276,129.20134579861258" fill = "none" stroke = "red" /> 
<polyline points = "585.5096184815276,129.20134579861258 588.4001485291573,132.1296219152956" fill = "none" stroke = "red" /> 
<polyline points = "588.4001485291573,132.1296219152956 587.0843288715482,136.7928364277483" fill = "none" stroke = "red" /> 
<polyline points = "587.0843288715482,136.7928364277483 581.6771604395045,138.16310312740075" fill = "none" stroke = "red" /> 
<polyline points = "581.6771604395045,138.16310312740075 577.2579037009829,133.6559326390216" fill = "none" stroke = "red" /> 
<polyline points = "577.2579037009829,133.6559326390216 579.103892927351,126.85466667660769" fill = "none" stroke = "red" /> 
<polyline points = "579.103892927351,126.85466667660769 586.6107372742715,124.79947175130566" fill = "none" stroke = "red" /> 
<polyline points = "586.6107372742715,124.79947175130566 592.7281284066042,130.7287947826402" fill = "none" stroke = "red" /> 
<polyline points = "592.7281284066042,130.7287947826402 590.5742840106094,139.73069859078694" fill = "none" stroke = "red" /> 
<polyline points = "590.5742840106094,139.73069859078694 581.0306077639215,142.69324780735238" fill = "none" stroke = "red" /> 
<polyline points = "581.0306077639215,142.69324780735238 573.058134454248,135.51171425740338" fill = "none" stroke = "red" /> 
<polyline points = "573.058134454248,135.51171425740338 575.2927223959362,124.26409955449208" fill = "none" stroke = "red" /> 
<polyline points = "575.2927223959362,124.26409955449208 586.7929259428843,120.17678167398827" fill = "none" stroke = "red" /> 
<polyline points = "586.7929259428843,120.17678167398827 596.7640629699846,128.4282705759382" fill = "none" stroke = "red" /> 
<polyline points = "596.7640629699846,128.4282705759382 594.6794115181744,141.94884116311476" fill = "none" stroke = "red" /> 
<polyline points = "594.6794115181744,141.94884116311476 581.3200773349961,147.37211629518313" fill = "none" stroke = "red" /> 
<polyline points = "581.3200773349961,147.37211629518313 569.220908282669,138.2442952053385" fill = "none" stroke = "red" /> 
<polyline points = "569.220908282669,138.2442952053385 570.9226225654891,122.44158565712665" fill = "none" stroke = "red" /> 
<polyline points = "570.9226225654891,122.44158565712665 586.0270461737388,115.47857888418721" fill = "none" stroke = "red" /> 
<polyline points = "586.0270461737388,115.47857888418721 600.3686182375668,125.27874042463563" fill = "none" stroke = "red" /> 
<polyline points = "600.3686182375668,125.27874042463563 599.2839008304186,143.3545581815821" fill = "none" stroke = "red" /> 
<polyline points = "599.2839008304186,143.3545581815821 582.5645487619896,152.0524989800666" fill = "none" stroke = "red" /> 
<polyline points = "582.5645487619896,152.0524989800666 565.8819178851855,141.7933076197259" fill = "none" stroke = "red" /> 
<polyline points = "565.8819178851855,141.7933076197259 566.115789980715,121.47169545110273" fill = "none" stroke = "red" /> 
<polyline points = "566.115789980715,121.47169545110273 584.3043898400108,110.85331263034851" fill = "none" stroke = "red" /> 
<polyline points = "584.3043898400108,110.85331263034851 603.4103715851498,121.35000000000001" fill = "none" stroke = "red" /> 
<polyline points = "603.4103715851498,121.35000000000001 604.259708190991,143.87182367072734" fill = "none" stroke = "red" /> 
<polyline points = "604.259708190991,143.87182367072734 584.7623879208601,156.58537984845833" fill = "none" stroke = "red" /> 
<polyline points = "584.7623879208601,156.58537984845833 563.1677034433508,146.07981611662197" fill = "none" stroke = "red" /> 
<polyline points = "563.1677034433508,146.07981611662197 561.0055518193712,121.42153575687865" fill = "none" stroke = "red" /> 
<polyline points = "561.0055518193712,121.42153575687865 581.636961752874,106.4498891750917" fill = "none" stroke = "red" /> 
<polyline points = "581.636961752874,106.4498891750917 605.7682588481235,116.72979818810315" fill = "none" stroke = "red" /> 
<polyline points = "605.7682588481235,116.72979818810315 609.4688096833053,143.44278881557733" fill = "none" stroke = "red" /> 
<polyline points = "609.4688096833053,143.44278881557733 587.8912333773618,160.8226399591348" fill = "none" stroke = "red" /> 
<polyline points = "587.8912333773618,160.8226399591348 561.1932806273836,151.00762143820782" fill = "none" stroke = "red" /> 
<polyline points = "561.1932806273836,151.00762143820782 555.7340213764228,122.33939570022991" fill = "none" stroke = "red" /> 
<polyline points = "555.7340213764228,122.33939570022991 578.0574233921711,102.41496410898438" fill = "none" stroke = "red" /> 
<polyline points = "578.0574233921711,102.41496410898438 607.3338620025379,111.52238589969602" fill = "none" stroke = "red" /> 
<polyline points = "607.3338620025379,111.52238589969602 614.7656283798079,142.02898747730822" fill = "none" stroke = "red" /> 
<polyline points = "614.7656283798079,142.02898747730822 591.9082225547891,164.6197589671079" fill = "none" stroke = "red" /> 
<polyline points = "591.9082225547891,164.6197589671079 560.0599461349541,156.46485386504605" fill = "none" stroke = "red" /> 
<polyline points = "560.0599461349541,156.46485386504605 550.4495974434782,124.25369460181146" fill = "none" stroke = "red" /> 
<polyline points = "550.4495974434782,124.25369460181146 573.6186974085234,98.89025735230305" fill = "none" stroke = "red" /> 
<polyline points = "573.6186974085234,98.89025735230305 608.013501828919,105.84678628281384" fill = "none" stroke = "red" /> 
<polyline points = "608.013501828919,105.84678628281384 619.9995989917016,139.61223058008792" fill = "none" stroke = "red" /> 
<polyline points = "619.9995989917016,139.61223058008792 596.7505553747128,167.8384732794715" fill = "none" stroke = "red" /> 
<polyline points = "596.7505553747128,167.8384732794715 559.8532950423438,162.32583302572925" fill = "none" stroke = "red" /> 
<polyline points = "559.8532950423438,162.32583302572925 545.3043453190787,127.17224906255747" fill = "none" stroke = "red" /> 
<polyline points = "545.3043453190787,127.17224906255747 568.3932376425512,96.00993207526558" fill = "none" stroke = "red" /> 
<polyline points = "568.3932376425512,96.00993207526558 607.7301027178449,99.83481172781447" fill = "none" stroke = "red" /> 
<polyline points = "607.7301027178449,99.83481172781447 625.0178312962845,136.19517438834106" fill = "none" stroke = "red" /> 
<polyline points = "625.0178312962845,136.19517438834106 602.3363881651413,170.349349944565" fill = "none" stroke = "red" /> 
<polyline points = "602.3363881651413,170.349349944565 560.6414812531077,168.45316677966701" fill = "none" stroke = "red" /> 
<polyline points = "560.6414812531077,168.45316677966701 540.4512990246693,131.0818718934416" fill = "none" stroke = "red" /> 
<polyline points = "540.4512990246693,131.0818718934416 562.4719743040997,93.8980779590817" fill = "none" stroke = "red" /> 
<polyline points = "562.4719743040997,93.8980779590817 606.4248,93.62885682970025" fill = "none" stroke = "red" /> 
<polyline points = "606.4248,93.62885682970025 629.6678320534049,131.80155240549408" fill = "none" stroke = "red" /> 
<polyline points = "629.6678320534049,131.80155240549408 608.5660457868441,172.0342364712738" fill = "none" stroke = "red" /> 
<polyline points = "608.5660457868441,172.0342364712738 562.4737488873063,174.70005826790037" fill = "none" stroke = "red" /> 
<polyline points = "562.4737488873063,174.70005826790037 536.0417255875285,135.94831073971847" fill = "none" stroke = "red" /> 
<polyline points = "536.0417255875285,135.94831073971847 555.9629487278863,92.66633784091182" fill = "none" stroke = "red" /> 
<polyline points = "555.9629487278863,92.66633784091182 604.058263832252,87.37949984669123" fill = "none" stroke = "red" /> 
<text x = "171.0" y = "337.14240000000007" dominant-baseline= "central" text-anchor= "middle" font-size = "30px" fill = "blue">i am a lid </text> 
<text x = "171.0" y = "132.60000000000002" dominant-baseline= "central" text-anchor= "middle" font-size = "30px" fill = "blue">i am a box </text> 
<text x = "75" y = "800" dy = "0">
<tspan x = "20" dy = ".6em" >BOX ATTRIBUTES </tspan>
<tspan x = "20" dy = "1.2em" >thickness: </tspan>
<tspan x = "20" dy = "1.2em" >width: </tspan>
<tspan x = "20" dy = "1.2em" >length:  </tspan>
<tspan x = "20" dy = "1.2em" >height: </tspan>
<tspan x = "20" dy = "1.2em" >partition:  </tspan>
<tspan x = "20" dy = "1.2em" >partition location: </tspan>
<tspan x = "20" dy = "1.2em" >lid: </tspan>
<tspan x = "20" dy = "1.2em" >top text: </tspan>
<tspan x = "20" dy = "1.2em" >top text string: </tspan>
<tspan x = "20" dy = "1.2em" >front text: </tspan>
<tspan x = "20" dy = "1.2em" >front text string: </tspan>
<tspan x = "20" dy = "1.2em" >fractal: </tspan>
</text><text x = "200" y = "800" dy = "0">
<tspan x = "200" dy = ".6em" >BOX ATTRIBUTES </tspan>
<tspan x = "200" dy = "1.2em" >0.118</tspan>
<tspan x = "200" dy = "1.2em" >5.0</tspan>
<tspan x = "200" dy = "1.2em" >4.0</tspan>
<tspan x = "200" dy = "1.2em" >3.0</tspan>
<tspan x = "200" dy = "1.2em" >True</tspan>
<tspan x = "200" dy = "1.2em" >1.0</tspan>
<tspan x = "200" dy = "1.2em" >True</tspan>
<tspan x = "200" dy = "1.2em" >True</tspan>
<tspan x = "200" dy = "1.2em" >i am a lid</tspan>
<tspan x = "200" dy = "1.2em" >True</tspan>
<tspan x = "200" dy = "1.2em" >i am a box</tspan>
<tspan x = "200" dy = "1.2em" >True</tspan>
</text></svg>